<?xml version="1.0" encoding="UTF-8"?>
<svg id="Layer_1" data-name="Layer 1" xmlns="http://www.w3.org/2000/svg" viewBox="0 0 270 270">
  <defs>
    <style>
      .cls-1 {
        fill: #84857f;
      }

      .cls-2 {
        fill: #495866;
      }
    </style>
  </defs>
  <path class="cls-1" d="M237.72152,71.47421c.00127,22.04012-17.86474,39.9082-39.90486,39.90948-22.04012,.00126-39.9082-17.86475-39.90948-39.90487-.00123-21.36743,16.82791-38.94453,38.1752-39.87187l1.73197-.03991,1.73197,.03991c21.34551,.92727,38.17397,18.50162,38.1752,39.86726Z"/>
  <path class="cls-2" d="M229.40239,266.48959H40.5977c-20.44971,0-37.08691-16.63721-37.08691-37.08691V40.5975C3.51079,20.1478,20.14799,3.51059,40.5977,3.51059H229.40239c20.4502,0,37.08691,16.63721,37.08691,37.08691V229.40268c0,20.44971-16.63672,37.08691-37.08691,37.08691ZM40.5977,23.74008c-9.29541,0-16.85742,7.56201-16.85742,16.85742V229.40268c0,9.29541,7.56201,16.85742,16.85742,16.85742H229.40239c9.2959,0,16.8584-7.56201,16.8584-16.85742V40.5975c0-9.29541-7.5625-16.85742-16.8584-16.85742H40.5977Z"/>
</svg>