<?xml version="1.0" encoding="UTF-8"?>
<svg id="Layer_1" data-name="Layer 1" xmlns="http://www.w3.org/2000/svg" viewBox="0 0 262.97838 262.97838">
  <defs>
    <style>
      .cls-1 {
        fill: #fff;
      }

      .cls-2 {
        fill: #d7b62e;
      }

      .cls-3 {
        fill: #495866;
      }
    </style>
  </defs>
  <g>
    <path class="cls-2" d="M225.89169,10.11455c14.8963,0,26.97214,12.07584,26.97214,26.97214V225.89169c0,14.89631-12.07584,26.97214-26.97214,26.97214H37.08669c-14.89631,0-26.97214-12.07583-26.97214-26.97214V37.08669c0-14.8963,12.07583-26.97214,26.97214-26.97214H225.89169Z"/>
    <path class="cls-3" d="M225.89152,262.97848H37.08683C16.63712,262.97848-.00009,246.34127-.00009,225.89157V37.08688C-.00009,16.63717,16.63712-.00004,37.08683-.00004H225.89152C246.34171-.00004,262.97843,16.63717,262.97843,37.08688V225.89157c0,20.44971-16.63672,37.08691-37.08691,37.08691ZM37.08683,20.22946c-9.29541,0-16.85742,7.56201-16.85742,16.85742V225.89157c0,9.29541,7.56201,16.85742,16.85742,16.85742H225.89152c9.2959,0,16.8584-7.56201,16.8584-16.85742V37.08688c0-9.29541-7.5625-16.85742-16.8584-16.85742H37.08683Z"/>
  </g>
  <path class="cls-1" d="M234.21071,131.48803c.00127,22.04012-17.86474,39.9082-39.90486,39.90948-22.04012,.00126-39.9082-17.86475-39.90948-39.90487-.00123-21.36743,16.82791-38.94453,38.1752-39.87187l1.73197-.03991,1.73197,.03991c21.34551,.92727,38.17397,18.50162,38.1752,39.86726Z"/>
</svg>