<?xml version="1.0" encoding="UTF-8"?>
<svg id="Layer_1" data-name="Layer 1" xmlns="http://www.w3.org/2000/svg" viewBox="0 0 300 300">
  <defs>
    <style>
      .cls-1 {
        fill: #d7b62e;
      }
    </style>
  </defs>
  <path class="cls-1" d="M149.99897,111.31755c21.36375-.00124,38.68349,17.3165,38.68473,38.68025,.00122,21.36375-17.31651,38.68348-38.68026,38.68472-20.7117,.0012-37.74939-16.31149-38.64828-37.00367l-.03868-1.67882,.03868-1.67882c.89881-20.69045,17.93383-37.00247,38.6438-37.00367Z"/>
  <path class="cls-1" d="M150.00024,273.84692c-5.26123,0-9.52686-4.26563-9.52686-9.52686v-12.70215c0-5.26123,4.26562-9.52686,9.52686-9.52686s9.52686,4.26562,9.52686,9.52686v12.70215c0,5.26123-4.26562,9.52686-9.52686,9.52686Zm-81.29443-33.02588c-2.43799,0-4.87598-.93018-6.73633-2.79053-3.72021-3.72021-3.72021-9.75244,0-13.47266l8.8916-8.8916c3.7207-3.7207,9.75195-3.7207,13.47266,0,3.72021,3.72021,3.72021,9.75244,0,13.47266l-8.8916,8.8916c-1.86035,1.86035-4.29834,2.79053-6.73633,2.79053Zm162.58838,0c-2.43848,0-4.87598-.93018-6.73633-2.79053l-8.89111-8.8916c-3.7207-3.7207-3.72021-9.75244,0-13.47266,3.72119-3.72119,9.75244-3.72021,13.47266,0l8.89111,8.8916c3.7207,3.7207,3.72021,9.75244,0,13.47266-1.86035,1.86035-4.29834,2.79053-6.73633,2.79053Zm33.02588-81.29395h-12.70215c-5.26123,0-9.52686-4.26562-9.52686-9.52686s4.26562-9.52686,9.52686-9.52686h12.70215c5.26123,0,9.52686,4.26562,9.52686,9.52686s-4.26562,9.52686-9.52686,9.52686Zm-215.93799,0h-12.70215c-5.26123,0-9.52686-4.26562-9.52686-9.52686s4.26562-9.52686,9.52686-9.52686h12.70215c5.26123,0,9.52686,4.26562,9.52686,9.52686s-4.26562,9.52686-9.52686,9.52686ZM222.40308,87.12427c-2.43799,0-4.87598-.93018-6.73633-2.79004-3.72021-3.7207-3.7207-9.75244,0-13.47314l8.89111-8.8916c3.71973-3.7207,9.75195-3.72021,13.47266-.00049,3.72021,3.7207,3.7207,9.75244,0,13.47314l-8.89111,8.8916c-1.85986,1.85986-4.29834,2.79053-6.73633,2.79053Zm-144.80566,0c-2.43799,0-4.87598-.93018-6.73633-2.79053l-8.8916-8.8916c-3.72021-3.72021-3.72021-9.75244,0-13.47266,3.7207-3.7207,9.75195-3.7207,13.47266,0l8.8916,8.8916c3.72021,3.72021,3.72021,9.75244,0,13.47266-1.86035,1.86035-4.29834,2.79053-6.73633,2.79053Zm72.40283-29.21533c-5.26123,0-9.52686-4.26562-9.52686-9.52686v-12.70215c0-5.26123,4.26562-9.52686,9.52686-9.52686s9.52686,4.26562,9.52686,9.52686v12.70215c0,5.26123-4.26562,9.52686-9.52686,9.52686Z"/>
</svg>