<?xml version="1.0" encoding="UTF-8"?>
<svg id="Layer_1" data-name="Layer 1" xmlns="http://www.w3.org/2000/svg" viewBox="0 0 270 270">
  <defs>
    <style>
      .cls-1 {
        fill: #fff;
      }

      .cls-2 {
        fill: #d7b62e;
      }

      .cls-3 {
        fill: #495866;
      }
    </style>
  </defs>
  <g>
    <path class="cls-2" d="M256.37464,229.4025c0,14.8963-12.07584,26.97214-26.97214,26.97214H40.5975c-14.89631,0-26.97214-12.07584-26.97214-26.97214V40.5975c0-14.89631,12.07583-26.97214,26.97214-26.97214H229.4025c14.8963,0,26.97214,12.07583,26.97214,26.97214V229.4025Z"/>
    <path class="cls-3" d="M229.40246,266.48861H40.59728c-20.44922,0-37.08643-16.63672-37.08643-37.08594V40.59799C3.51086,20.14779,20.14807,3.51107,40.59728,3.51107H229.40246c20.4502,0,37.08691,16.63672,37.08691,37.08691V229.40267c0,20.44922-16.63672,37.08594-37.08691,37.08594ZM40.59728,23.73959c-9.29492,0-16.85693,7.5625-16.85693,16.8584V229.40267c0,9.29492,7.56201,16.85742,16.85693,16.85742H229.40246c9.2959,0,16.8584-7.5625,16.8584-16.85742V40.59799c0-9.2959-7.5625-16.8584-16.8584-16.8584H40.59728Z"/>
  </g>
  <path class="cls-1" d="M198.52579,237.72152c-22.04012,.00127-39.9082-17.86474-39.90948-39.90486-.00126-22.04012,17.86475-39.9082,39.90487-39.90948,21.36743-.00123,38.94453,16.82791,39.87187,38.1752l.03991,1.73197-.03991,1.73197c-.92727,21.34551-18.50162,38.17397-39.86726,38.1752Z"/>
</svg>