<?xml version="1.0" encoding="UTF-8"?>
<svg id="Layer_1" data-name="Layer 1" xmlns="http://www.w3.org/2000/svg" viewBox="0 0 270 270">
  <defs>
    <style>
      .cls-1 {
        fill: #fff;
      }

      .cls-2 {
        fill: #d7b62e;
      }

      .cls-3 {
        fill: #495866;
      }
    </style>
  </defs>
  <g>
    <path class="cls-2" d="M40.5975,256.37464c-14.8963,0-26.97214-12.07584-26.97214-26.97214V40.5975c0-14.89631,12.07584-26.97214,26.97214-26.97214H229.4025c14.89631,0,26.97214,12.07583,26.97214,26.97214V229.4025c0,14.8963-12.07583,26.97214-26.97214,26.97214H40.5975Z"/>
    <path class="cls-3" d="M229.40244,266.48891H40.59726c-20.44922,0-37.08643-16.63672-37.08643-37.08594V40.59731C3.51083,20.14809,20.14804,3.51137,40.59726,3.51137H229.40244c20.44971,0,37.08691,16.63672,37.08691,37.08594V229.40298c0,20.44922-16.63721,37.08594-37.08691,37.08594ZM40.59726,23.73989c-9.29492,0-16.85693,7.5625-16.85693,16.85742V229.40298c0,9.29492,7.56201,16.85742,16.85693,16.85742H229.40244c9.29541,0,16.85742-7.5625,16.85742-16.85742V40.59731c0-9.29492-7.56201-16.85742-16.85742-16.85742H40.59726Z"/>
  </g>
  <path class="cls-1" d="M32.27848,198.52579c-.00127-22.04012,17.86474-39.9082,39.90486-39.90948,22.04012-.00126,39.9082,17.86475,39.90948,39.90487,.00123,21.36743-16.82791,38.94453-38.1752,39.87187l-1.73197,.03991-1.73197-.03991c-21.34551-.92727-38.17397-18.50162-38.1752-39.86726Z"/>
</svg>