<?xml version="1.0" encoding="UTF-8"?>
<svg id="Layer_1" data-name="Layer 1" xmlns="http://www.w3.org/2000/svg" viewBox="0 0 700 550">
  <defs>
    <style>
      .cls-1 {
        fill: #fff;
      }

      .cls-2 {
        fill: #495866;
      }
    </style>
  </defs>
  <rect class="cls-1" x="201.21291" y="296.62341" width="416.27175" height="195.67738"/>
  <rect class="cls-1" x="138.7741" y="99.90213" width="229.77482" height="389.98891"/>
  <g>
    <path class="cls-1" d="M285.85934,493.21945h220.25509M331.34428,42.12042l4.92202-30.82665h-96.09376c-126.16058,0-228.56073,108.19457-228.43399,216.81685V493.21945H103.11215M13.36378,228.70377H233.63017l29.79133-186.58336"/>
    <path class="cls-2" d="M506.11439,502.21957h-220.25488c-4.9707,0-9-4.0293-9-9s4.0293-9,9-9h220.25488c4.9707,0,9,4.0293,9,9s-4.0293,9-9,9Zm-403.00244,0H11.73842c-4.9707,0-9-4.0293-9-9V228.11019c-.06348-54.55176,24.67041-110.64355,67.86035-153.88379,22.1377-22.16406,47.68701-39.69238,75.9375-52.09863C176.50599,8.96664,208.0099,2.29379,240.1725,2.29379h96.09375c2.63477,0,5.13721,1.1543,6.84717,3.15918s2.45557,4.6582,2.04004,7.25977l-4.92188,30.82617c-.78271,4.90918-5.39648,8.25-10.30615,7.46875-4.90869-.78418-8.25195-5.39844-7.46826-10.30664l3.2583-20.40723h-85.54297c-29.65576,0-58.72412,6.16211-86.39844,18.31543-26.19189,11.50195-49.8916,27.76465-70.43994,48.33789C45.73012,124.59457,23.29359,172.54574,20.94349,219.70394H225.95326l28.58057-179.00293c.78369-4.9082,5.39893-8.24902,10.30664-7.46875,4.90869,.78418,8.25244,5.39844,7.46826,10.30664l-29.7915,186.58398c-.69727,4.36719-4.46436,7.58105-8.88721,7.58105H20.73842v246.51562H103.11195c4.9707,0,9,4.0293,9,9s-4.0293,9-9,9Z"/>
  </g>
  <g>
    <path class="cls-1" d="M264.63802,42.99055h111.81184l-.65987,450.2289"/>
    <path class="cls-2" d="M375.79017,502.21957h-.01318c-4.9707-.00684-8.99414-4.04297-8.98682-9.0127l.64648-441.2168h-102.79883c-4.9707,0-9-4.0293-9-9s4.0293-9,9-9h111.81201c2.38916,0,4.68018,.9502,6.36865,2.64062,1.68799,1.69043,2.63477,3.9834,2.63135,6.37207l-.65967,450.22949c-.00732,4.9668-4.03564,8.9873-9,8.9873Z"/>
  </g>
  <g>
    <path class="cls-1" d="M388.90706,297.04752h299.95457v150.48514"/>
    <path class="cls-2" d="M688.86146,456.53304c-4.9707,0-9-4.0293-9-9v-141.48535H388.90687c-4.9707,0-9-4.0293-9-9s4.0293-9,9-9h299.95459c4.9707,0,9,4.0293,9,9v150.48535c0,4.9707-4.0293,9-9,9Z"/>
  </g>
  <g>
    <path class="cls-1" d="M331.34428,42.22043l4.92202-30.82665h-96.09376c-126.16058,0-228.56073,108.19457-228.43399,216.81685V493.21945"/>
    <path class="cls-2" d="M11.73842,502.21957c-4.9707,0-9-4.0293-9-9V228.21078c-.06348-54.55176,24.6709-110.64453,67.86084-153.88477,22.1377-22.16406,47.68701-39.69238,75.9375-52.09863C176.50648,9.06625,208.0099,2.3934,240.1725,2.3934h96.09375c2.63477,0,5.13721,1.1543,6.84717,3.15918s2.45557,4.6582,2.04004,7.25977l-4.92139,30.82715c-.78369,4.90918-5.39697,8.24902-10.30664,7.46875-4.9082-.78418-8.25195-5.39844-7.46875-10.30664l3.25879-20.4082h-85.54297c-29.65527,0-58.72412,6.16211-86.39795,18.31543-26.19189,11.50195-49.8916,27.76465-70.43994,48.33789C43.49574,126.93148,20.68031,178.37972,20.73842,228.20004V493.21957c0,4.9707-4.0293,9-9,9Z"/>
  </g>
  <g>
    <polyline class="cls-1" points="13.36378 228.80378 233.63017 228.80378 263.4215 42.22043"/>
    <path class="cls-2" d="M233.63002,237.80355H13.3639c-4.9707,0-9-4.0293-9-9s4.0293-9,9-9H225.95326l28.58105-179.00195c.7832-4.9082,5.40234-8.24121,10.30615-7.46875,4.90869,.78418,8.25195,5.39844,7.46826,10.30664l-29.7915,186.58301c-.69727,4.36719-4.46436,7.58105-8.88721,7.58105Z"/>
  </g>
  <g>
    <path class="cls-1" d="M264.63802,43.09056h111.81184l-.65987,450.12889"/>
    <path class="cls-2" d="M375.79066,502.21957h-.01367c-4.9707-.00684-8.99414-4.04297-8.98682-9.01367l.64648-441.11523h-102.79883c-4.9707,0-9-4.0293-9-9s4.0293-9,9-9h111.81201c2.38916,0,4.68018,.9502,6.36865,2.64062,1.68799,1.69043,2.63477,3.9834,2.63135,6.37305l-.65967,450.12891c-.00732,4.96582-4.03516,8.98633-8.99951,8.98633Z"/>
  </g>
  <g>
    <path class="cls-1" d="M331.34428,42.32044l4.92202-30.82665h-96.09376c-126.16058,0-228.56073,108.19457-228.43399,216.81685V493.31946"/>
    <path class="cls-2" d="M11.73842,502.31918c-4.9707,0-9-4.0293-9-9V228.31039c-.06348-54.55176,24.67041-110.64355,67.86035-153.88379,22.1377-22.16406,47.68701-39.69238,75.9375-52.09863C176.50599,9.16683,208.0099,2.49398,240.1725,2.49398h96.09375c2.63477,0,5.13721,1.1543,6.84717,3.15918s2.45557,4.6582,2.04004,7.25977l-4.92139,30.82617c-.78369,4.90918-5.39697,8.24902-10.30664,7.46875-4.9082-.78418-8.25195-5.39844-7.46875-10.30664l3.25879-20.40723h-85.54297c-29.65576,0-58.72412,6.16211-86.39844,18.31543-26.19189,11.50195-49.89111,27.76465-70.43994,48.33789C43.49574,127.03207,20.68031,178.48031,20.73842,228.29965V493.31918c0,4.9707-4.0293,9-9,9Z"/>
  </g>
  <g>
    <polyline class="cls-1" points="13.36378 228.90379 233.63017 228.90379 263.4215 42.32044"/>
    <path class="cls-2" d="M233.63002,237.90414H13.3639c-4.9707,0-9-4.0293-9-9s4.0293-9,9-9H225.95326l28.58105-179.00293c.7832-4.9082,5.39355-8.25,10.30615-7.46875,4.90869,.78418,8.25195,5.39844,7.46826,10.30664l-29.7915,186.58398c-.69727,4.36719-4.46436,7.58105-8.88721,7.58105Z"/>
  </g>
  <g>
    <path class="cls-1" d="M264.63802,43.19057h111.81184l-.65987,450.12889"/>
    <path class="cls-2" d="M375.79066,502.31918h-.01367c-4.9707-.00684-8.99414-4.04297-8.98682-9.01367l.64648-441.11523h-102.79883c-4.9707,0-9-4.0293-9-9s4.0293-9,9-9h111.81201c2.38916,0,4.68018,.9502,6.36865,2.64062,1.68799,1.69043,2.63477,3.9834,2.63135,6.37305l-.65967,450.12891c-.00732,4.96582-4.03516,8.98633-8.99951,8.98633Z"/>
  </g>
  <g>
    <path class="cls-1" d="M331.34428,42.42045l4.92202-30.82665h-96.09376c-126.16058,0-228.56073,108.19457-228.43399,216.81685V493.41947"/>
    <path class="cls-2" d="M11.73842,502.41976c-4.9707,0-9-4.0293-9-9V228.41097c-.06348-54.55176,24.6709-110.64453,67.86035-153.88477,22.13818-22.16406,47.68701-39.69238,75.93799-52.09863C176.50599,9.26644,208.0099,2.59359,240.1725,2.59359h96.09375c2.63477,0,5.13721,1.1543,6.84717,3.15918s2.45557,4.6582,2.04004,7.25977l-4.92139,30.82715c-.78369,4.90918-5.39697,8.24805-10.30664,7.46875-4.9082-.78418-8.25195-5.39844-7.46875-10.30664l3.25879-20.4082h-85.54297c-29.65576,0-58.72412,6.16211-86.39844,18.31543-26.19189,11.50195-49.89111,27.76465-70.43994,48.33789C43.49574,127.13168,20.68031,178.57992,20.73842,228.40023V493.41976c0,4.9707-4.0293,9-9,9Z"/>
  </g>
  <g>
    <polyline class="cls-1" points="13.36378 229.0038 233.63017 229.0038 263.4215 42.42045"/>
    <path class="cls-2" d="M233.63002,238.00375H13.3639c-4.9707,0-9-4.0293-9-9s4.0293-9,9-9H225.95326l28.58105-179.00195c.7832-4.9082,5.39355-8.25098,10.30615-7.46875,4.90869,.78418,8.25195,5.39844,7.46826,10.30664l-29.7915,186.58301c-.69727,4.36719-4.46436,7.58105-8.88721,7.58105Z"/>
  </g>
  <g>
    <path class="cls-1" d="M264.63802,43.29058h111.81184l-.65987,450.12889"/>
    <path class="cls-2" d="M375.79066,502.41976h-.01367c-4.9707-.00684-8.99414-4.04297-8.98682-9.01367l.64648-441.11523h-102.79883c-4.9707,0-9-4.0293-9-9s4.0293-9,9-9h111.81201c2.38916,0,4.68018,.9502,6.36865,2.64062,1.68799,1.69043,2.63477,3.9834,2.63135,6.37305l-.65967,450.12891c-.00732,4.96582-4.03516,8.98633-8.99951,8.98633Z"/>
  </g>
  <g>
    <path class="cls-1" d="M331.34428,42.52046l4.92202-30.82665h-96.09376c-126.16058,0-228.56073,108.19457-228.43399,216.81685V493.51948"/>
    <path class="cls-2" d="M11.73842,502.51937c-4.9707,0-9-4.0293-9-9V228.51058c-.06348-54.55176,24.67041-110.64355,67.86035-153.88379,22.1377-22.16406,47.68701-39.69238,75.9375-52.09863C176.50599,9.36703,208.0099,2.69418,240.1725,2.69418h96.09375c2.63477,0,5.13721,1.1543,6.84717,3.15918s2.45557,4.6582,2.04004,7.25977l-4.92139,30.82617c-.78418,4.9082-5.39307,8.24902-10.30664,7.46875-4.9082-.78418-8.25195-5.39844-7.46875-10.30664l3.25879-20.40723h-85.54297c-29.65576,0-58.72412,6.16211-86.39844,18.31543-26.19189,11.50195-49.89111,27.76465-70.43994,48.33789C43.49574,127.23226,20.68031,178.68051,20.73842,228.49984V493.51937c0,4.9707-4.0293,9-9,9Z"/>
  </g>
  <g>
    <polyline class="cls-1" points="13.36378 229.10381 233.63017 229.10381 263.4215 42.52046"/>
    <path class="cls-2" d="M233.63002,238.10336H13.3639c-4.9707,0-9-4.0293-9-9s4.0293-9,9-9H225.95326l28.58105-179.00195c.7832-4.9082,5.39355-8.25,10.30615-7.46875,4.90869,.78418,8.25195,5.39844,7.46826,10.30664l-29.7915,186.58301c-.69727,4.36719-4.46436,7.58105-8.88721,7.58105Z"/>
  </g>
  <g>
    <path class="cls-1" d="M264.63802,43.39059h111.81184l-.65987,450.12889"/>
    <path class="cls-2" d="M375.79066,502.51937h-.01367c-4.9707-.00684-8.99414-4.04297-8.98682-9.01367l.64648-441.11523h-102.79883c-4.9707,0-9-4.0293-9-9s4.0293-9,9-9h111.81201c2.38916,0,4.68018,.9502,6.36865,2.64062,1.68799,1.69043,2.63477,3.9834,2.63135,6.37305l-.65967,450.12891c-.00732,4.96582-4.03516,8.98633-8.99951,8.98633Z"/>
  </g>
  <g>
    <path class="cls-1" d="M331.34428,42.62047l4.92202-30.82665h-96.09376c-126.16058,0-228.56073,108.19457-228.43399,216.81685V493.61949"/>
    <path class="cls-2" d="M11.73842,502.61996c-4.9707,0-9-4.0293-9-9V228.61019c-.06348-54.55176,24.67041-110.64355,67.86035-153.88379,22.1377-22.16406,47.68701-39.69238,75.9375-52.09863C176.50599,9.46664,208.0099,2.79379,240.1725,2.79379h96.09375c2.63477,0,5.13721,1.1543,6.84717,3.15918s2.45557,4.6582,2.04004,7.25977l-4.92139,30.82715c-.78369,4.90918-5.39697,8.24707-10.30664,7.46875-4.9082-.78418-8.25195-5.39844-7.46875-10.30664l3.25879-20.4082h-85.54297c-29.65576,0-58.72412,6.16211-86.39844,18.31543-26.19189,11.50195-49.89111,27.76465-70.43994,48.33789C43.49574,127.33187,20.68031,178.78012,20.73842,228.59945V493.61996c0,4.9707-4.0293,9-9,9Z"/>
  </g>
  <g>
    <polyline class="cls-1" points="13.36378 229.20382 233.63017 229.20382 263.4215 42.62047"/>
    <path class="cls-2" d="M233.63002,238.20394H13.3639c-4.9707,0-9-4.0293-9-9s4.0293-9,9-9H225.95326l28.58105-179.00195c.7832-4.9082,5.40234-8.24316,10.30615-7.46875,4.90869,.78418,8.25195,5.39844,7.46826,10.30664l-29.7915,186.58301c-.69727,4.36719-4.46436,7.58105-8.88721,7.58105Z"/>
  </g>
  <g>
    <path class="cls-1" d="M264.63802,43.4906h111.81184l-.65987,450.12889"/>
    <path class="cls-2" d="M375.79066,502.61996h-.01367c-4.9707-.00684-8.99414-4.04297-8.98682-9.01367l.64648-441.11523h-102.79883c-4.9707,0-9-4.0293-9-9s4.0293-9,9-9h111.81201c2.38916,0,4.68018,.9502,6.36865,2.64062,1.68799,1.69043,2.63477,3.9834,2.63135,6.37305l-.65967,450.12891c-.00732,4.96582-4.03516,8.98633-8.99951,8.98633Z"/>
  </g>
  <g>
    <path class="cls-1" d="M331.34428,42.72048l4.92202-30.82665h-96.09376c-126.16058,0-228.56073,108.19457-228.43399,216.81685"/>
    <path class="cls-2" d="M11.73842,237.71078c-4.96631,0-8.99414-4.02246-9-8.98926-.06348-54.5625,24.6709-110.65527,67.86084-153.89551,22.1377-22.16406,47.68701-39.69238,75.9375-52.09863C176.50648,9.56625,208.0099,2.8934,240.1725,2.8934h96.09375c2.63477,0,5.13721,1.1543,6.84717,3.15918s2.45557,4.6582,2.04004,7.25977l-4.92188,30.82715c-.78369,4.9082-5.39258,8.24805-10.30615,7.46875-4.9082-.78418-8.25195-5.39844-7.46826-10.30664l3.2583-20.4082h-85.54297c-29.65576,0-58.72412,6.16211-86.39795,18.31543-26.19189,11.50195-49.89111,27.76465-70.43994,48.33789C43.49574,127.43148,20.68031,178.8807,20.73842,228.70004c.00586,4.9707-4.01904,9.00488-8.98975,9.01074h-.01025Z"/>
  </g>
  <g>
    <polyline class="cls-1" points="13.36378 229.30383 233.63017 229.30383 263.4215 42.72048"/>
    <path class="cls-2" d="M233.63002,238.30355H13.3639c-4.9707,0-9-4.0293-9-9s4.0293-9,9-9H225.95326l28.58105-179.00195c.7832-4.9082,5.40234-8.24316,10.30615-7.46875,4.90869,.78418,8.25195,5.39844,7.46826,10.30664l-29.7915,186.58301c-.69727,4.36719-4.46436,7.58105-8.88721,7.58105Z"/>
  </g>
  <g>
    <path class="cls-1" d="M264.63802,43.44631h111.81184l-.65987,442.9119"/>
    <path class="cls-2" d="M375.79066,495.21398h-.01367c-4.9707-.00673-8.99414-3.97815-8.98682-8.86915l.64648-434.04276h-102.79883c-4.9707,0-9-3.96469-9-8.8557s4.0293-8.8557,9-8.8557h111.81201c2.38916,0,4.68018,.93496,6.36865,2.59829,1.68799,1.66333,2.63477,3.91953,2.63135,6.27087l-.65967,442.91191c-.00732,4.8862-4.03516,8.84225-8.99951,8.84225Z"/>
  </g>
  <g>
    <path class="cls-1" d="M331.34428,42.82049l4.92202-30.82665h-96.09376c-126.16058,0-228.56073,108.19457-228.43399,216.81685"/>
    <path class="cls-2" d="M11.73842,237.81039c-4.96631,0-8.99414-4.02246-9-8.98926-.06348-54.5625,24.67041-110.6543,67.86035-153.89453,22.1377-22.16406,47.68701-39.69238,75.9375-52.09863C176.50599,9.66683,208.0099,2.99398,240.1725,2.99398h96.09375c2.63477,0,5.13721,1.1543,6.84717,3.15918s2.45557,4.6582,2.04004,7.25977l-4.92188,30.82617c-.78369,4.9082-5.39258,8.24805-10.30615,7.46875-4.90869-.78418-8.25195-5.39844-7.46826-10.30664l3.2583-20.40723h-85.54297c-29.65576,0-58.72412,6.16211-86.39844,18.31543-26.19189,11.50195-49.89111,27.76465-70.43994,48.33789C43.49574,127.53207,20.68031,178.98031,20.73842,228.79965c.00586,4.9707-4.01904,9.00488-8.98975,9.01074h-.01025Z"/>
  </g>
  <g>
    <polyline class="cls-1" points="13.36378 229.40384 233.63017 229.40384 263.4215 42.82049"/>
    <path class="cls-2" d="M233.63002,238.40414H13.3639c-4.9707,0-9-4.0293-9-9s4.0293-9,9-9H225.95326l28.58105-179.00293c.7832-4.9082,5.39355-8.25098,10.30615-7.46875,4.90869,.78418,8.25195,5.39844,7.46826,10.30664l-29.7915,186.58398c-.69727,4.36719-4.46436,7.58105-8.88721,7.58105Z"/>
  </g>
  <g>
    <path class="cls-1" d="M331.34428,42.9205l4.92202-30.82665h-96.09376c-126.16058,0-228.56073,108.19457-228.43399,216.81685"/>
    <path class="cls-2" d="M11.73842,237.91097c-4.96631,0-8.99414-4.02246-9-8.98926-.06348-54.5625,24.6709-110.65527,67.86084-153.89551,22.1377-22.16406,47.68701-39.69238,75.9375-52.09863C176.50648,9.76644,208.0099,3.09359,240.1725,3.09359h96.09375c2.63477,0,5.13721,1.1543,6.84717,3.15918s2.45557,4.6582,2.04004,7.25977l-4.92188,30.82715c-.78271,4.90918-5.39648,8.24609-10.30615,7.46875-4.9082-.78418-8.25195-5.39844-7.46826-10.30664l3.2583-20.4082h-85.54297c-29.65576,0-58.72412,6.16211-86.39795,18.31543-26.19189,11.50195-49.89111,27.76465-70.43994,48.33789C43.49574,127.63168,20.68031,179.0809,20.73842,228.90023c.00586,4.9707-4.01904,9.00488-8.98975,9.01074h-.01025Z"/>
  </g>
  <g>
    <polyline class="cls-1" points="13.36378 229.50385 233.63017 229.50385 263.4215 42.9205"/>
    <path class="cls-2" d="M233.63002,238.50375H13.3639c-4.9707,0-9-4.0293-9-9s4.0293-9,9-9H225.95326l28.58105-179.00195c.7832-4.9082,5.39355-8.24219,10.30615-7.46875,4.90869,.78418,8.25195,5.39844,7.46826,10.30664l-29.7915,186.58301c-.69727,4.36719-4.46436,7.58105-8.88721,7.58105Z"/>
  </g>
  <g>
    <polyline class="cls-1" points="13.36378 229.60386 233.63017 229.60386 263.4215 43.02051"/>
    <path class="cls-2" d="M233.63002,238.60433H13.3639c-4.9707,0-9-4.0293-9-9s4.0293-9,9-9H225.95326l28.58105-179.00293c.7832-4.9082,5.39355-8.24219,10.30615-7.46875,4.90869,.78418,8.25195,5.39844,7.46826,10.30664l-29.7915,186.58398c-.69727,4.36719-4.46436,7.58105-8.88721,7.58105Z"/>
  </g>
  <g>
    <path class="cls-1" d="M264.63802,43.79685h111.81184l-.65987,445.43799"/>
    <path class="cls-2" d="M375.79066,498.14089h-.01367c-4.9707-.00676-8.99414-4.00084-8.98682-8.91974l.64648-436.51827h-102.79883c-4.9707,0-9-3.98731-9-8.90621s4.0293-8.90621,9-8.90621h111.81201c2.38916,0,4.68018,.94029,6.36865,2.61311,1.68799,1.67281,2.63477,3.94189,2.63135,6.30663l-.65967,445.43801c-.00732,4.91407-4.03516,8.89268-8.99951,8.89268Z"/>
  </g>
  <g>
    <polyline class="cls-1" points="13.36378 229.70387 233.63017 229.70387 263.4215 43.12052"/>
    <path class="cls-2" d="M233.63002,238.70394H13.3639c-4.9707,0-9-4.0293-9-9s4.0293-9,9-9H225.95326l28.58105-179.00195c.7832-4.9082,5.40234-8.24414,10.30615-7.46875,4.90869,.78418,8.25195,5.39844,7.46826,10.30664l-29.7915,186.58301c-.69727,4.36719-4.46436,7.58105-8.88721,7.58105Z"/>
  </g>
  <g>
    <path class="cls-1" d="M336.2663,13.29397h-96.09376c-126.16058,0-228.56073,108.19457-228.43399,216.81685"/>
    <path class="cls-2" d="M11.73842,239.11117c-4.96631,0-8.99414-4.02246-9-8.98926-.06348-54.5625,24.6709-110.65527,67.86035-153.89551,22.13818-22.16406,47.68701-39.69238,75.93799-52.09863,29.96973-13.16113,61.47314-19.83398,93.63574-19.83398h96.09375c4.9707,0,9,4.0293,9,9s-4.0293,9-9,9h-96.09375c-29.65576,0-58.72412,6.16211-86.39844,18.31543-26.19189,11.50195-49.89111,27.76465-70.43994,48.33789-39.83838,39.88477-62.65381,91.33301-62.5957,141.15332,.00586,4.9707-4.01904,9.00488-8.98975,9.01074h-.01025Z"/>
  </g>
  <g>
    <polyline class="cls-1" points="13.36378 230.70397 233.63017 230.70397 263.4215 44.12062"/>
    <path class="cls-2" d="M233.63002,239.70394H13.3639c-4.9707,0-9-4.0293-9-9s4.0293-9,9-9H225.95326l28.58105-179.00195c.7832-4.9082,5.40234-8.23828,10.30615-7.46875,4.90869,.78418,8.25195,5.39844,7.46826,10.30664l-29.7915,186.58301c-.69727,4.36719-4.46436,7.58105-8.88721,7.58105Z"/>
  </g>
  <g>
    <polyline class="cls-1" points="13.36378 231.70407 233.63017 231.70407 263.4215 45.12072"/>
    <path class="cls-2" d="M233.63002,240.70394H13.3639c-4.9707,0-9-4.0293-9-9s4.0293-9,9-9H225.95326l28.58105-179.00195c.7832-4.9082,5.40234-8.24219,10.30615-7.46875,4.90869,.78418,8.25195,5.39844,7.46826,10.30664l-29.7915,186.58301c-.69727,4.36719-4.46436,7.58105-8.88721,7.58105Z"/>
  </g>
  <g>
    <polyline class="cls-1" points="13.36378 232.70417 233.63017 232.70417 263.4215 46.12082"/>
    <path class="cls-2" d="M233.63002,241.70394H13.3639c-4.9707,0-9-4.0293-9-9s4.0293-9,9-9H225.95326l28.58105-179.00195c.7832-4.90918,5.40234-8.24609,10.30615-7.46875,4.90869,.78418,8.25195,5.39844,7.46826,10.30664l-29.7915,186.58301c-.69727,4.36719-4.46436,7.58105-8.88721,7.58105Z"/>
  </g>
  <g>
    <path class="cls-1" d="M688.86163,447.53265c0-50.46424-40.90936-91.3736-91.3736-91.3736-50.46424,0-91.3736,40.90936-91.3736,91.3736,0,50.46429,40.90936,91.3736,91.3736,91.3736,50.46424,0,91.3736-40.90931,91.3736-91.3736"/>
    <path class="cls-2" d="M597.48793,547.90609c-55.34619,0-100.37354-45.02734-100.37354-100.37305s45.02734-100.37402,100.37354-100.37402,100.37354,45.02734,100.37354,100.37402-45.02734,100.37305-100.37354,100.37305Zm0-182.74707c-45.4209,0-82.37354,36.95312-82.37354,82.37402s36.95264,82.37305,82.37354,82.37305,82.37354-36.95215,82.37354-82.37305-36.95264-82.37402-82.37354-82.37402Z"/>
  </g>
  <g>
    <path class="cls-1" d="M285.85934,447.53265c0-50.46424-40.90936-91.3736-91.3736-91.3736-50.46429,0-91.3736,40.90936-91.3736,91.3736,0,50.46429,40.90931,91.3736,91.3736,91.3736s91.3736-40.90931,91.3736-91.3736"/>
    <path class="cls-2" d="M194.48598,547.90609c-55.34668,0-100.37402-45.02734-100.37402-100.37305s45.02734-100.37402,100.37402-100.37402,100.37354,45.02734,100.37354,100.37402-45.02734,100.37305-100.37354,100.37305Zm0-182.74707c-45.42139,0-82.37402,36.95312-82.37402,82.37402s36.95264,82.37305,82.37402,82.37305,82.37354-36.95215,82.37354-82.37305-36.95264-82.37402-82.37354-82.37402Z"/>
  </g>
  <g>
    <path class="cls-1" d="M264.63802,43.99065h111.81184l-.65987,446.52853"/>
    <path class="cls-2" d="M375.79066,499.51937h-.01367c-4.9707-.00781-8.99414-4.04297-8.98682-9.01367l.64648-437.51465h-102.79883c-4.9707,0-9-4.0293-9-9s4.0293-9,9-9h111.81201c2.38916,0,4.68066,.9502,6.36865,2.64062,1.68848,1.69043,2.63477,3.9834,2.63135,6.37305l-.65967,446.52832c-.00732,4.96582-4.03564,8.98633-8.99951,8.98633Z"/>
  </g>
  <g>
    <polyline class="cls-1" points="13.36378 229.90389 233.63017 229.90389 263.4215 43.32054"/>
    <path class="cls-2" d="M233.63002,238.90356H13.3639c-4.9707,0-9-4.0293-9-9s4.0293-9,9-9H225.95326l28.58105-179.00195c.7832-4.9082,5.40234-8.23926,10.30615-7.46875,4.90869,.78418,8.25195,5.39844,7.46826,10.30664l-29.7915,186.58301c-.69727,4.36719-4.46436,7.58105-8.88721,7.58105Z"/>
  </g>
</svg>