<?xml version="1.0" encoding="UTF-8"?>
<svg id="Layer_1" data-name="Layer 1" xmlns="http://www.w3.org/2000/svg" viewBox="0 0 270 270">
  <defs>
    <style>
      .cls-1 {
        fill: #84857f;
      }

      .cls-2 {
        fill: #495866;
      }
    </style>
  </defs>
  <path class="cls-1" d="M71.47421,32.27848c22.04012-.00127,39.9082,17.86474,39.90948,39.90486,.00126,22.04012-17.86475,39.9082-39.90487,39.90948-21.36743,.00123-38.94453-16.82791-39.87187-38.1752l-.03991-1.73197,.03991-1.73197c.92727-21.34551,18.50162-38.17397,39.86726-38.1752Z"/>
  <path class="cls-2" d="M229.40273,266.48954H40.59755c-20.44971,0-37.08691-16.63721-37.08691-37.08691V40.59745C3.51064,20.14774,20.14784,3.51053,40.59755,3.51053H229.40273c20.44922,0,37.08643,16.63721,37.08643,37.08691V229.40262c0,20.44971-16.63721,37.08691-37.08643,37.08691ZM40.59755,23.74002c-9.29541,0-16.85742,7.56201-16.85742,16.85742V229.40262c0,9.29541,7.56201,16.85742,16.85742,16.85742H229.40273c9.29492,0,16.85693-7.56201,16.85693-16.85742V40.59745c0-9.29541-7.56201-16.85742-16.85693-16.85742H40.59755Z"/>
</svg>