<?xml version="1.0" encoding="UTF-8"?>
<svg id="Layer_1" data-name="Layer 1" xmlns="http://www.w3.org/2000/svg" viewBox="0 0 620 560">
  <defs>
    <style>
      .cls-1 {
        fill: #fff;
      }

      .cls-2 {
        fill: #495866;
      }
    </style>
  </defs>
  <g>
    <rect class="cls-1" x="10.52543" y="384.37162" width="96.38121" height="162.53594" rx="19.63954" ry="19.63954"/>
    <path class="cls-2" d="M87.26706,555.90779H30.165c-15.79199,0-28.63965-12.84766-28.63965-28.63965v-123.25684c0-15.79199,12.84766-28.63965,28.63965-28.63965h57.10205c15.79199,0,28.63965,12.84766,28.63965,28.63965v123.25684c0,15.79199-12.84766,28.63965-28.63965,28.63965ZM30.165,393.37165c-5.8667,0-10.63965,4.77246-10.63965,10.63965v123.25684c0,5.86719,4.77295,10.63965,10.63965,10.63965h57.10205c5.8667,0,10.63965-4.77246,10.63965-10.63965v-123.25684c0-5.86719-4.77295-10.63965-10.63965-10.63965H30.165Z"/>
  </g>
  <g>
    <rect class="cls-1" x="513.09336" y="384.37162" width="96.38121" height="162.53594" rx="19.63954" ry="19.63954" transform="translate(1122.56793 931.27918) rotate(-180)"/>
    <path class="cls-2" d="M589.83493,555.90779h-57.10205c-15.79199,0-28.63965-12.84766-28.63965-28.63965v-123.25684c0-15.79199,12.84766-28.63965,28.63965-28.63965h57.10205c15.79199,0,28.63965,12.84766,28.63965,28.63965v123.25684c0,15.79199-12.84766,28.63965-28.63965,28.63965Zm-57.10205-162.53613c-5.8667,0-10.63965,4.77246-10.63965,10.63965v123.25684c0,5.86719,4.77295,10.63965,10.63965,10.63965h57.10205c5.8667,0,10.63965-4.77246,10.63965-10.63965v-123.25684c0-5.86719-4.77295-10.63965-10.63965-10.63965h-57.10205Z"/>
  </g>
  <g>
    <g>
      <path class="cls-1" d="M524.23164,233.80127H90.36915c-8.92283,0-16.15621-7.15133-16.15621-15.97294l-.26918-127.34904c0-42.73958,35.04479-77.38685,78.27473-77.38685H461.84394c43.22994,0,78.27473,34.64727,78.27473,77.38685l.26918,127.34904c0,8.82161-7.23338,15.97294-16.15621,15.97294Z"/>
      <path class="cls-2" d="M524.23141,242.80134H90.36911c-13.87109,0-25.15625-11.20312-25.15625-24.97266l-.26904-127.33008c0-47.65332,39.15137-86.40625,87.2749-86.40625H461.84372c48.12354,0,87.2749,38.75293,87.2749,86.38672l.26904,127.33105c0,13.78809-11.28516,24.99121-25.15625,24.99121ZM152.21872,22.09236c-38.19824,0-69.2749,30.67773-69.2749,68.38672l.26904,127.33105c0,3.86328,3.21045,6.99121,7.15625,6.99121h433.8623c3.9458,0,7.15625-3.12793,7.15625-6.97266l-.26904-127.33008c0-37.72852-31.07666-68.40625-69.2749-68.40625H152.21872Z"/>
    </g>
    <g>
      <rect class="cls-1" x="10.52543" y="384.37162" width="96.38121" height="162.53594" rx="19.63954" ry="19.63954"/>
      <path class="cls-2" d="M87.26706,555.90779H30.165c-15.79199,0-28.63965-12.84766-28.63965-28.63965v-123.25684c0-15.79199,12.84766-28.63965,28.63965-28.63965h57.10205c15.79199,0,28.63965,12.84766,28.63965,28.63965v123.25684c0,15.79199-12.84766,28.63965-28.63965,28.63965ZM30.165,393.37165c-5.8667,0-10.63965,4.77246-10.63965,10.63965v123.25684c0,5.86719,4.77295,10.63965,10.63965,10.63965h57.10205c5.8667,0,10.63965-4.77246,10.63965-10.63965v-123.25684c0-5.86719-4.77295-10.63965-10.63965-10.63965H30.165Z"/>
    </g>
    <g>
      <rect class="cls-1" x="513.09336" y="384.37162" width="96.38121" height="162.53594" rx="19.63954" ry="19.63954" transform="translate(1122.56793 931.27918) rotate(-180)"/>
      <path class="cls-2" d="M589.83493,555.90779h-57.10205c-15.79199,0-28.63965-12.84766-28.63965-28.63965v-123.25684c0-15.79199,12.84766-28.63965,28.63965-28.63965h57.10205c15.79199,0,28.63965,12.84766,28.63965,28.63965v123.25684c0,15.79199-12.84766,28.63965-28.63965,28.63965Zm-57.10205-162.53613c-5.8667,0-10.63965,4.77246-10.63965,10.63965v123.25684c0,5.86719,4.77295,10.63965,10.63965,10.63965h57.10205c5.8667,0,10.63965-4.77246,10.63965-10.63965v-123.25684c0-5.86719-4.77295-10.63965-10.63965-10.63965h-57.10205Z"/>
    </g>
    <g>
      <polygon class="cls-1" points="564.28629 319.69014 564.28629 45.89523 53.07443 45.89523 53.07443 319.69014 34.38473 319.69014 34.38473 507.69286 125.61727 507.69286 125.61727 489.14901 492.0124 489.14901 492.0124 507.69286 583.24494 507.69286 583.24494 319.69014 564.28629 319.69014"/>
      <path class="cls-2" d="M583.24508,516.69294h-91.23291c-4.9707,0-9-4.0293-9-9v-9.54395H134.61715v9.54395c0,4.9707-4.0293,9-9,9H34.38473c-4.9707,0-9-4.0293-9-9v-188.00293c0-4.9707,4.0293-9,9-9h9.68994V45.89509c0-4.9707,4.0293-9,9-9h511.21143c4.9707,0,9,4.0293,9,9V310.69001h9.95898c4.9707,0,9,4.0293,9,9v188.00293c0,4.9707-4.0293,9-9,9Zm-82.23291-18h73.23291v-170.00293h-9.95898c-4.9707,0-9-4.0293-9-9V54.89509H62.07467V319.69001c0,4.9707-4.0293,9-9,9h-9.68994v170.00293H116.61715v-9.54395c0-4.9707,4.0293-9,9-9H492.01217c4.9707,0,9,4.0293,9,9v9.54395Z"/>
    </g>
    <g>
      <polyline class="cls-1" points="560.28745 339.71731 560.28745 359.30312 57.34222 359.30312 57.34222 337.5411"/>
      <path class="cls-2" d="M560.28756,368.30329H57.34225c-4.9707,0-9-4.0293-9-9v-21.76172c0-4.9707,4.0293-9,9-9s9,4.0293,9,9v12.76172h484.94531v-10.58594c0-4.9707,4.0293-9,9-9s9,4.0293,9,9v19.58594c0,4.9707-4.0293,9-9,9Z"/>
    </g>
    <g>
      <g>
        <polyline class="cls-1" points="113.15632 449.71598 83.6923 449.71598 83.6923 417.95357"/>
        <path class="cls-2" d="M113.15622,458.71638h-29.46387c-4.9707,0-9-4.0293-9-9v-31.7627c0-4.9707,4.0293-9,9-9s9,4.0293,9,9v22.7627h20.46387c4.9707,0,9,4.0293,9,9s-4.0293,9-9,9Z"/>
      </g>
      <g>
        <polyline class="cls-1" points="491.7703 449.71598 521.23431 449.71598 521.23431 417.95357"/>
        <path class="cls-2" d="M521.23434,458.71638h-29.46387c-4.9707,0-9-4.0293-9-9s4.0293-9,9-9h20.46387v-22.7627c0-4.9707,4.0293-9,9-9s9,4.0293,9,9v31.7627c0,4.9707-4.0293,9-9,9Z"/>
      </g>
    </g>
    <path class="cls-2" d="M538.1362,331.19294H79.49313c-4.9707,0-9-4.0293-9-9s4.0293-9,9-9h458.64307c4.9707,0,9,4.0293,9,9s-4.0293,9-9,9Z"/>
  </g>
  <g>
    <path class="cls-1" d="M524.23164,233.80127H90.36915c-8.92283,0-16.15621-7.15133-16.15621-15.97294l-.26918-127.34904c0-42.73958,35.04479-77.38685,78.27473-77.38685H461.84394c43.22994,0,78.27473,34.64727,78.27473,77.38685l.26918,127.34904c0,8.82161-7.23338,15.97294-16.15621,15.97294Z"/>
    <path class="cls-2" d="M524.23141,242.80134H90.36911c-13.87109,0-25.15625-11.20312-25.15625-24.97266l-.26904-127.33008c0-47.65332,39.15137-86.40625,87.2749-86.40625H461.84372c48.12354,0,87.2749,38.75293,87.2749,86.38672l.26904,127.33105c0,13.78809-11.28516,24.99121-25.15625,24.99121ZM152.21872,22.09236c-38.19824,0-69.2749,30.67773-69.2749,68.38672l.26904,127.33105c0,3.86328,3.21045,6.99121,7.15625,6.99121h433.8623c3.9458,0,7.15625-3.12793,7.15625-6.97266l-.26904-127.33008c0-37.72852-31.07666-68.40625-69.2749-68.40625H152.21872Z"/>
  </g>
  <g>
    <path class="cls-1" d="M564.82005,321.11479V47.31985h-75.17857v85.85931c0,25.64531-20.78968,46.43493-46.43499,46.43493H171.67803c-25.64531,0-46.43493-20.78963-46.43493-46.43493V47.31985H53.60819V321.11479h-18.6897v188.00268H126.15104v-18.54385H492.54616v18.54385h91.23254v-188.00268h-18.95865Z"/>
    <path class="cls-2" d="M583.77877,518.11775h-91.23242c-4.9707,0-9-4.0293-9-9v-9.54395H135.15084v9.54395c0,4.9707-4.0293,9-9,9H34.91842c-4.9707,0-9-4.0293-9-9v-188.00293c0-4.9707,4.0293-9,9-9h9.68994V47.3199c0-4.9707,4.0293-9,9-9H125.24313c4.9707,0,9,4.0293,9,9v85.85938c0,20.6416,16.79346,37.43457,37.43506,37.43457H443.20651c20.6416,0,37.43506-16.79297,37.43506-37.43457V47.3199c0-4.9707,4.0293-9,9-9h75.17871c4.9707,0,9,4.0293,9,9V312.11482h9.9585c4.9707,0,9,4.0293,9,9v188.00293c0,4.9707-4.0293,9-9,9Zm-82.23242-18h73.23242v-170.00293h-9.9585c-4.9707,0-9-4.0293-9-9V56.3199h-57.17871v76.85938c0,30.56641-24.86816,55.43457-55.43506,55.43457H171.67819c-30.56689,0-55.43506-24.86816-55.43506-55.43457V56.3199H62.60836V321.11482c0,4.9707-4.0293,9-9,9h-9.68994v170.00293H117.15084v-9.54395c0-4.9707,4.0293-9,9-9H492.54635c4.9707,0,9,4.0293,9,9v9.54395Z"/>
  </g>
  <g>
    <path class="cls-1" d="M524.23164,233.90128H90.36915c-8.92283,0-16.15621-7.15133-16.15621-15.97294l-.26918-127.34904c0-42.73958,35.04479-77.38685,78.27473-77.38685H461.84394c43.22994,0,78.27473,34.64727,78.27473,77.38685l.26918,127.34904c0,8.82161-7.23338,15.97294-16.15621,15.97294Z"/>
    <path class="cls-2" d="M524.23141,242.90095H90.36911c-13.87109,0-25.15625-11.20312-25.15625-24.97266l-.26904-127.33008c0-47.65332,39.15137-86.40625,87.2749-86.40625H461.84372c48.12354,0,87.2749,38.75293,87.2749,86.3877l.26904,127.33008c0,13.78809-11.28516,24.99121-25.15625,24.99121ZM152.21872,22.19197c-38.19824,0-69.2749,30.67871-69.2749,68.3877l.26904,127.33008c0,3.86328,3.21045,6.99121,7.15625,6.99121h433.8623c3.9458,0,7.15625-3.12793,7.15625-6.97266l-.26904-127.33008c0-37.72754-31.07666-68.40625-69.2749-68.40625H152.21872Z"/>
  </g>
  <g>
    <polyline class="cls-1" points="564.28629 319.69014 564.28629 45.99524 53.07443 45.99524 53.07443 319.69014"/>
    <path class="cls-2" d="M564.2861,328.69001c-4.9707,0-9-4.0293-9-9V54.99568H62.07467V319.69001c0,4.9707-4.0293,9-9,9s-9-4.0293-9-9V45.99568c0-4.9707,4.0293-9,9-9h511.21143c4.9707,0,9,4.0293,9,9V319.69001c0,4.9707-4.0293,9-9,9Z"/>
  </g>
  <g>
    <path class="cls-1" d="M524.23164,233.90128H90.36915c-8.92283,0-16.15621-7.15133-16.15621-15.97294l-.26918-127.34904c0-42.73958,35.04479-77.38685,78.27473-77.38685H461.84394c43.22994,0,78.27473,34.64727,78.27473,77.38685l.26918,127.34904c0,8.82161-7.23338,15.97294-16.15621,15.97294Z"/>
    <path class="cls-2" d="M524.23141,242.90095H90.36911c-13.87109,0-25.15625-11.20312-25.15625-24.97266l-.26904-127.33008c0-47.65332,39.15137-86.40625,87.2749-86.40625H461.84372c48.12354,0,87.2749,38.75293,87.2749,86.3877l.26904,127.33008c0,13.78809-11.28516,24.99121-25.15625,24.99121ZM152.21872,22.19197c-38.19824,0-69.2749,30.67871-69.2749,68.3877l.26904,127.33008c0,3.86328,3.21045,6.99121,7.15625,6.99121h433.8623c3.9458,0,7.15625-3.12793,7.15625-6.97266l-.26904-127.33008c0-37.72754-31.07666-68.40625-69.2749-68.40625H152.21872Z"/>
  </g>
  <g>
    <path class="cls-1" d="M564.82005,321.11479V47.41986h-75.17857v85.85931c0,25.64531-20.78968,46.43493-46.43499,46.43493H171.67803c-25.64531,0-46.43493-20.78963-46.43493-46.43493V47.41986H53.60819V321.11479"/>
    <path class="cls-2" d="M564.82028,330.11482c-4.9707,0-9-4.0293-9-9V56.41951h-57.17871v76.85938c0,30.56738-24.86816,55.43555-55.43506,55.43555H171.67819c-30.56689,0-55.43506-24.86816-55.43506-55.43555V56.41951H62.60836V321.11482c0,4.9707-4.0293,9-9,9s-9-4.0293-9-9V47.41951c0-4.9707,4.0293-9,9-9H125.24313c4.9707,0,9,4.0293,9,9v85.85938c0,20.6416,16.79346,37.43555,37.43506,37.43555H443.20651c20.6416,0,37.43506-16.79395,37.43506-37.43555V47.41951c0-4.9707,4.0293-9,9-9h75.17871c4.9707,0,9,4.0293,9,9V321.11482c0,4.9707-4.0293,9-9,9Z"/>
  </g>
  <g>
    <path class="cls-1" d="M524.23164,234.00129H90.36915c-8.92283,0-16.15621-7.15133-16.15621-15.97294l-.26918-127.34904c0-42.73958,35.04479-77.38685,78.27473-77.38685H461.84394c43.22994,0,78.27473,34.64727,78.27473,77.38685l.26918,127.34904c0,8.82161-7.23338,15.97294-16.15621,15.97294Z"/>
    <path class="cls-2" d="M524.23141,243.00154H90.36911c-13.87109,0-25.15625-11.20312-25.15625-24.97363l-.26904-127.3291c0-47.65332,39.15137-86.40625,87.2749-86.40625H461.84372c48.12354,0,87.2749,38.75293,87.2749,86.38672l.26904,127.33008c0,13.78906-11.28516,24.99219-25.15625,24.99219ZM152.21872,22.29255c-38.19824,0-69.2749,30.67773-69.2749,68.38672l.26904,127.33008c0,3.86426,3.21045,6.99219,7.15625,6.99219h433.8623c3.9458,0,7.15625-3.12793,7.15625-6.97363l-.26904-127.3291c0-37.72852-31.07666-68.40625-69.2749-68.40625H152.21872Z"/>
  </g>
  <g>
    <polyline class="cls-1" points="564.28629 319.79015 564.28629 46.09525 53.07443 46.09525 53.07443 319.79015"/>
    <path class="cls-2" d="M564.2861,328.7906c-4.9707,0-9-4.0293-9-9V55.09529H62.07467V319.7906c0,4.9707-4.0293,9-9,9s-9-4.0293-9-9V46.09529c0-4.9707,4.0293-9,9-9h511.21143c4.9707,0,9,4.0293,9,9V319.7906c0,4.9707-4.0293,9-9,9Z"/>
  </g>
  <g>
    <path class="cls-1" d="M524.23164,234.00129H90.36915c-8.92283,0-16.15621-7.15133-16.15621-15.97294l-.26918-127.34904c0-42.73958,35.04479-77.38685,78.27473-77.38685H461.84394c43.22994,0,78.27473,34.64727,78.27473,77.38685l.26918,127.34904c0,8.82161-7.23338,15.97294-16.15621,15.97294Z"/>
    <path class="cls-2" d="M524.23141,243.00154H90.36911c-13.87109,0-25.15625-11.20312-25.15625-24.97363l-.26904-127.3291c0-47.65332,39.15137-86.40625,87.2749-86.40625H461.84372c48.12354,0,87.2749,38.75293,87.2749,86.38672l.26904,127.33008c0,13.78906-11.28516,24.99219-25.15625,24.99219ZM152.21872,22.29255c-38.19824,0-69.2749,30.67773-69.2749,68.38672l.26904,127.33008c0,3.86426,3.21045,6.99219,7.15625,6.99219h433.8623c3.9458,0,7.15625-3.12793,7.15625-6.97363l-.26904-127.3291c0-37.72852-31.07666-68.40625-69.2749-68.40625H152.21872Z"/>
  </g>
  <g>
    <path class="cls-1" d="M564.82005,321.2148V47.51987h-75.17857v85.85931c0,25.64531-20.78968,46.43493-46.43499,46.43493H171.67803c-25.64531,0-46.43493-20.78963-46.43493-46.43493V47.51987H53.60819V321.2148"/>
    <path class="cls-2" d="M564.82028,330.21443c-4.9707,0-9-4.0293-9-9V56.52009h-57.17871v76.85938c0,30.56641-24.86816,55.43457-55.43506,55.43457H171.67819c-30.56689,0-55.43506-24.86816-55.43506-55.43457V56.52009H62.60836V321.21443c0,4.9707-4.0293,9-9,9s-9-4.0293-9-9V47.52009c0-4.9707,4.0293-9,9-9H125.24313c4.9707,0,9,4.0293,9,9v85.85938c0,20.6416,16.79346,37.43457,37.43506,37.43457H443.20651c20.6416,0,37.43506-16.79297,37.43506-37.43457V47.52009c0-4.9707,4.0293-9,9-9h75.17871c4.9707,0,9,4.0293,9,9V321.21443c0,4.9707-4.0293,9-9,9Z"/>
  </g>
  <g>
    <path class="cls-1" d="M524.23164,234.1013H90.36915c-8.92283,0-16.15621-7.15133-16.15621-15.97294l-.26918-127.34904c0-42.73958,35.04479-77.38685,78.27473-77.38685H461.84394c43.22994,0,78.27473,34.64727,78.27473,77.38685l.26918,127.34904c0,8.82161-7.23338,15.97294-16.15621,15.97294Z"/>
    <path class="cls-2" d="M524.23141,243.10115H90.36911c-13.87109,0-25.15625-11.20312-25.15625-24.97266l-.26904-127.33008c0-47.65332,39.15137-86.40625,87.2749-86.40625H461.84372c48.12354,0,87.2749,38.75293,87.2749,86.38672l.26904,127.33105c0,13.78809-11.28516,24.99121-25.15625,24.99121ZM152.21872,22.39216c-38.19824,0-69.2749,30.67773-69.2749,68.38672l.26904,127.33105c0,3.86328,3.21045,6.99121,7.15625,6.99121h433.8623c3.9458,0,7.15625-3.12793,7.15625-6.97266l-.26904-127.33008c0-37.72852-31.07666-68.40625-69.2749-68.40625H152.21872Z"/>
  </g>
  <g>
    <polyline class="cls-1" points="564.28629 319.89016 564.28629 46.19526 53.07443 46.19526 53.07443 319.89016"/>
    <path class="cls-2" d="M564.2861,328.89021c-4.9707,0-9-4.0293-9-9V55.1949H62.07467V319.89021c0,4.9707-4.0293,9-9,9s-9-4.0293-9-9V46.1949c0-4.9707,4.0293-9,9-9h511.21143c4.9707,0,9,4.0293,9,9V319.89021c0,4.9707-4.0293,9-9,9Z"/>
  </g>
  <g>
    <path class="cls-1" d="M524.23164,234.1013H90.36915c-8.92283,0-16.15621-7.15133-16.15621-15.97294l-.26918-127.34904c0-42.73958,35.04479-77.38685,78.27473-77.38685H461.84394c43.22994,0,78.27473,34.64727,78.27473,77.38685l.26918,127.34904c0,8.82161-7.23338,15.97294-16.15621,15.97294Z"/>
    <path class="cls-2" d="M524.23141,243.10115H90.36911c-13.87109,0-25.15625-11.20312-25.15625-24.97266l-.26904-127.33008c0-47.65332,39.15137-86.40625,87.2749-86.40625H461.84372c48.12354,0,87.2749,38.75293,87.2749,86.38672l.26904,127.33105c0,13.78809-11.28516,24.99121-25.15625,24.99121ZM152.21872,22.39216c-38.19824,0-69.2749,30.67773-69.2749,68.38672l.26904,127.33105c0,3.86328,3.21045,6.99121,7.15625,6.99121h433.8623c3.9458,0,7.15625-3.12793,7.15625-6.97266l-.26904-127.33008c0-37.72852-31.07666-68.40625-69.2749-68.40625H152.21872Z"/>
  </g>
  <g>
    <path class="cls-1" d="M564.82005,321.31481V47.61988h-75.17857v85.85931c0,25.64531-20.78968,46.43493-46.43499,46.43493H171.67803c-25.64531,0-46.43493-20.78963-46.43493-46.43493V47.61988H53.60819V321.31481"/>
    <path class="cls-2" d="M564.82028,330.31501c-4.9707,0-9-4.0293-9-9V56.6197h-57.17871v76.85938c0,30.56641-24.86816,55.43457-55.43506,55.43457H171.67819c-30.56689,0-55.43506-24.86816-55.43506-55.43457V56.6197H62.60836V321.31501c0,4.9707-4.0293,9-9,9s-9-4.0293-9-9V47.6197c0-4.9707,4.0293-9,9-9H125.24313c4.9707,0,9,4.0293,9,9v85.85938c0,20.6416,16.79346,37.43457,37.43506,37.43457H443.20651c20.6416,0,37.43506-16.79297,37.43506-37.43457V47.6197c0-4.9707,4.0293-9,9-9h75.17871c4.9707,0,9,4.0293,9,9V321.31501c0,4.9707-4.0293,9-9,9Z"/>
  </g>
  <g>
    <path class="cls-1" d="M524.23164,234.20131H90.36915c-8.92283,0-16.15621-7.15133-16.15621-15.97294l-.26918-127.34904c0-42.73958,35.04479-77.38685,78.27473-77.38685H461.84394c43.22994,0,78.27473,34.64727,78.27473,77.38685l.26918,127.34904c0,8.82161-7.23338,15.97294-16.15621,15.97294Z"/>
    <path class="cls-2" d="M524.23141,243.20173H90.36911c-13.87109,0-25.15625-11.20312-25.15625-24.97363l-.26904-127.3291c0-47.65332,39.15137-86.40625,87.2749-86.40625H461.84372c48.12354,0,87.2749,38.75293,87.2749,86.38672l.26904,127.33008c0,13.78906-11.28516,24.99219-25.15625,24.99219ZM152.21872,22.49275c-38.19824,0-69.2749,30.67773-69.2749,68.38672l.26904,127.33008c0,3.86426,3.21045,6.99219,7.15625,6.99219h433.8623c3.9458,0,7.15625-3.12793,7.15625-6.97363l-.26904-127.3291c0-37.72852-31.07666-68.40625-69.2749-68.40625H152.21872Z"/>
  </g>
  <g>
    <polyline class="cls-1" points="564.28629 319.99017 564.28629 46.29527 53.07443 46.29527 53.07443 319.99017"/>
    <path class="cls-2" d="M564.2861,328.98982c-4.9707,0-9-4.0293-9-9V55.29548H62.07467V319.98982c0,4.9707-4.0293,9-9,9s-9-4.0293-9-9V46.29548c0-4.9707,4.0293-9,9-9h511.21143c4.9707,0,9,4.0293,9,9V319.98982c0,4.9707-4.0293,9-9,9Z"/>
  </g>
  <g>
    <path class="cls-1" d="M524.23164,234.20131H90.36915c-8.92283,0-16.15621-7.15133-16.15621-15.97294l-.26918-127.34904c0-42.73958,35.04479-77.38685,78.27473-77.38685H461.84394c43.22994,0,78.27473,34.64727,78.27473,77.38685l.26918,127.34904c0,8.82161-7.23338,15.97294-16.15621,15.97294Z"/>
    <path class="cls-2" d="M524.23141,243.20173H90.36911c-13.87109,0-25.15625-11.20312-25.15625-24.97363l-.26904-127.3291c0-47.65332,39.15137-86.40625,87.2749-86.40625H461.84372c48.12354,0,87.2749,38.75293,87.2749,86.38672l.26904,127.33008c0,13.78906-11.28516,24.99219-25.15625,24.99219ZM152.21872,22.49275c-38.19824,0-69.2749,30.67773-69.2749,68.38672l.26904,127.33008c0,3.86426,3.21045,6.99219,7.15625,6.99219h433.8623c3.9458,0,7.15625-3.12793,7.15625-6.97363l-.26904-127.3291c0-37.72852-31.07666-68.40625-69.2749-68.40625H152.21872Z"/>
  </g>
  <g>
    <path class="cls-1" d="M564.82005,321.41482V47.71989h-75.17857v85.85931c0,25.64531-20.78968,46.43493-46.43499,46.43493H171.67803c-25.64531,0-46.43493-20.78963-46.43493-46.43493V47.71989H53.60819V321.41482"/>
    <path class="cls-2" d="M564.82028,330.41462c-4.9707,0-9-4.0293-9-9V56.72029h-57.17871v76.85938c0,30.56641-24.86816,55.43457-55.43506,55.43457H171.67819c-30.56689,0-55.43506-24.86816-55.43506-55.43457V56.72029H62.60836V321.41462c0,4.9707-4.0293,9-9,9s-9-4.0293-9-9V47.72029c0-4.9707,4.0293-9,9-9H125.24313c4.9707,0,9,4.0293,9,9v85.85938c0,20.6416,16.79346,37.43457,37.43506,37.43457H443.20651c20.6416,0,37.43506-16.79297,37.43506-37.43457V47.72029c0-4.9707,4.0293-9,9-9h75.17871c4.9707,0,9,4.0293,9,9V321.41462c0,4.9707-4.0293,9-9,9Z"/>
  </g>
  <g>
    <path class="cls-1" d="M524.23164,234.30132H90.36915c-8.92283,0-16.15621-7.15133-16.15621-15.97294l-.26918-127.34904c0-42.73958,35.04479-77.38685,78.27473-77.38685H461.84394c43.22994,0,78.27473,34.64727,78.27473,77.38685l.26918,127.34904c0,8.82161-7.23338,15.97294-16.15621,15.97294Z"/>
    <path class="cls-2" d="M524.23141,243.30134H90.36911c-13.87109,0-25.15625-11.20312-25.15625-24.97266l-.26904-127.33008c0-47.65332,39.15137-86.40625,87.2749-86.40625H461.84372c48.12354,0,87.2749,38.75293,87.2749,86.38672l.26904,127.33105c0,13.78809-11.28516,24.99121-25.15625,24.99121ZM152.21872,22.59236c-38.19824,0-69.2749,30.67773-69.2749,68.38672l.26904,127.33105c0,3.86328,3.21045,6.99121,7.15625,6.99121h433.8623c3.9458,0,7.15625-3.12793,7.15625-6.97266l-.26904-127.33008c0-37.72852-31.07666-68.40625-69.2749-68.40625H152.21872Z"/>
  </g>
  <g>
    <polyline class="cls-1" points="564.28629 320.09018 564.28629 46.39528 53.07443 46.39528 53.07443 320.09018"/>
    <path class="cls-2" d="M564.2861,329.0904c-4.9707,0-9-4.0293-9-9V55.39509H62.07467V320.0904c0,4.9707-4.0293,9-9,9s-9-4.0293-9-9V46.39509c0-4.9707,4.0293-9,9-9h511.21143c4.9707,0,9,4.0293,9,9V320.0904c0,4.9707-4.0293,9-9,9Z"/>
  </g>
  <g>
    <path class="cls-1" d="M524.23164,234.30132H90.36915c-8.92283,0-16.15621-7.15133-16.15621-15.97294l-.26918-127.34904c0-42.73958,35.04479-77.38685,78.27473-77.38685H461.84394c43.22994,0,78.27473,34.64727,78.27473,77.38685l.26918,127.34904c0,8.82161-7.23338,15.97294-16.15621,15.97294Z"/>
    <path class="cls-2" d="M524.23141,243.30134H90.36911c-13.87109,0-25.15625-11.20312-25.15625-24.97266l-.26904-127.33008c0-47.65332,39.15137-86.40625,87.2749-86.40625H461.84372c48.12354,0,87.2749,38.75293,87.2749,86.38672l.26904,127.33105c0,13.78809-11.28516,24.99121-25.15625,24.99121ZM152.21872,22.59236c-38.19824,0-69.2749,30.67773-69.2749,68.38672l.26904,127.33105c0,3.86328,3.21045,6.99121,7.15625,6.99121h433.8623c3.9458,0,7.15625-3.12793,7.15625-6.97266l-.26904-127.33008c0-37.72852-31.07666-68.40625-69.2749-68.40625H152.21872Z"/>
  </g>
  <g>
    <path class="cls-1" d="M564.82005,321.51483V47.8199h-75.17857v85.85931c0,25.64531-20.78968,46.43493-46.43499,46.43493H171.67803c-25.64531,0-46.43493-20.78963-46.43493-46.43493V47.8199H53.60819V321.51483"/>
    <path class="cls-2" d="M564.82028,330.51521c-4.9707,0-9-4.0293-9-9V56.8199h-57.17871v76.85938c0,30.56641-24.86816,55.43457-55.43506,55.43457H171.67819c-30.56689,0-55.43506-24.86816-55.43506-55.43457V56.8199H62.60836V321.51521c0,4.9707-4.0293,9-9,9s-9-4.0293-9-9V47.8199c0-4.9707,4.0293-9,9-9H125.24313c4.9707,0,9,4.0293,9,9v85.85938c0,20.6416,16.79346,37.43457,37.43506,37.43457H443.20651c20.6416,0,37.43506-16.79297,37.43506-37.43457V47.8199c0-4.9707,4.0293-9,9-9h75.17871c4.9707,0,9,4.0293,9,9V321.51521c0,4.9707-4.0293,9-9,9Z"/>
  </g>
  <g>
    <path class="cls-1" d="M524.23164,234.40133H90.36915c-8.92283,0-16.15621-7.15133-16.15621-15.97294l-.26918-127.34904c0-42.73958,35.04479-77.38685,78.27473-77.38685H461.84394c43.22994,0,78.27473,34.64727,78.27473,77.38685l.26918,127.34904c0,8.82161-7.23338,15.97294-16.15621,15.97294Z"/>
    <path class="cls-2" d="M524.23141,243.40095H90.36911c-13.87109,0-25.15625-11.20312-25.15625-24.97266l-.26904-127.3291c0-47.65332,39.15137-86.40625,87.2749-86.40625H461.84372c48.12354,0,87.2749,38.75293,87.2749,86.38672l.26904,127.33008c0,13.78809-11.28516,24.99121-25.15625,24.99121ZM152.21872,22.69294c-38.19824,0-69.2749,30.67773-69.2749,68.38672l.26904,127.33008c0,3.86328,3.21045,6.99121,7.15625,6.99121h433.8623c3.9458,0,7.15625-3.12793,7.15625-6.97266l-.26904-127.3291c0-37.72852-31.07666-68.40625-69.2749-68.40625H152.21872Z"/>
  </g>
  <g>
    <polyline class="cls-1" points="564.28629 320.19019 564.28629 46.49529 53.07443 46.49529 53.07443 320.19019"/>
    <path class="cls-2" d="M564.2861,329.19001c-4.9707,0-9-4.0293-9-9V55.49568H62.07467V320.19001c0,4.9707-4.0293,9-9,9s-9-4.0293-9-9V46.49568c0-4.9707,4.0293-9,9-9h511.21143c4.9707,0,9,4.0293,9,9V320.19001c0,4.9707-4.0293,9-9,9Z"/>
  </g>
  <g>
    <path class="cls-1" d="M524.23164,234.40133H90.36915c-8.92283,0-16.15621-7.15133-16.15621-15.97294l-.26918-127.34904c0-42.73958,35.04479-77.38685,78.27473-77.38685H461.84394c43.22994,0,78.27473,34.64727,78.27473,77.38685l.26918,127.34904c0,8.82161-7.23338,15.97294-16.15621,15.97294Z"/>
    <path class="cls-2" d="M524.23141,243.40095H90.36911c-13.87109,0-25.15625-11.20312-25.15625-24.97266l-.26904-127.3291c0-47.65332,39.15137-86.40625,87.2749-86.40625H461.84372c48.12354,0,87.2749,38.75293,87.2749,86.38672l.26904,127.33008c0,13.78809-11.28516,24.99121-25.15625,24.99121ZM152.21872,22.69294c-38.19824,0-69.2749,30.67773-69.2749,68.38672l.26904,127.33008c0,3.86328,3.21045,6.99121,7.15625,6.99121h433.8623c3.9458,0,7.15625-3.12793,7.15625-6.97266l-.26904-127.3291c0-37.72852-31.07666-68.40625-69.2749-68.40625H152.21872Z"/>
  </g>
  <g>
    <path class="cls-1" d="M564.82005,321.61484V47.91991h-75.17857v85.85931c0,25.64531-20.78968,46.43493-46.43499,46.43493H171.67803c-25.64531,0-46.43493-20.78963-46.43493-46.43493V47.91991H53.60819V321.61484"/>
    <path class="cls-2" d="M564.82028,330.61482c-4.9707,0-9-4.0293-9-9V56.91951h-57.17871v76.85938c0,30.56738-24.86816,55.43555-55.43506,55.43555H171.67819c-30.56689,0-55.43506-24.86816-55.43506-55.43555V56.91951H62.60836V321.61482c0,4.9707-4.0293,9-9,9s-9-4.0293-9-9V47.91951c0-4.9707,4.0293-9,9-9H125.24313c4.9707,0,9,4.0293,9,9v85.85938c0,20.6416,16.79346,37.43555,37.43506,37.43555H443.20651c20.6416,0,37.43506-16.79395,37.43506-37.43555V47.91951c0-4.9707,4.0293-9,9-9h75.17871c4.9707,0,9,4.0293,9,9V321.61482c0,4.9707-4.0293,9-9,9Z"/>
  </g>
  <g>
    <path class="cls-1" d="M524.23164,234.50134H90.36915c-8.92283,0-16.15621-7.15133-16.15621-15.97294l-.26918-127.34904c0-42.73958,35.04479-77.38685,78.27473-77.38685H461.84394c43.22994,0,78.27473,34.64727,78.27473,77.38685l.26918,127.34904c0,8.82161-7.23338,15.97294-16.15621,15.97294Z"/>
    <path class="cls-2" d="M524.23141,243.50154H90.36911c-13.87109,0-25.15625-11.20312-25.15625-24.97266l-.26904-127.33008c0-47.65332,39.15137-86.40625,87.2749-86.40625H461.84372c48.12354,0,87.2749,38.75293,87.2749,86.38672l.26904,127.33105c0,13.78809-11.28516,24.99121-25.15625,24.99121ZM152.21872,22.79255c-38.19824,0-69.2749,30.67773-69.2749,68.38672l.26904,127.33105c0,3.86328,3.21045,6.99121,7.15625,6.99121h433.8623c3.9458,0,7.15625-3.12793,7.15625-6.97266l-.26904-127.33008c0-37.72852-31.07666-68.40625-69.2749-68.40625H152.21872Z"/>
  </g>
  <g>
    <polyline class="cls-1" points="564.28629 320.2902 564.28629 46.5953 53.07443 46.5953 53.07443 320.2902"/>
    <path class="cls-2" d="M564.2861,329.2906c-4.9707,0-9-4.0293-9-9V55.59529H62.07467V320.2906c0,4.9707-4.0293,9-9,9s-9-4.0293-9-9V46.59529c0-4.9707,4.0293-9,9-9h511.21143c4.9707,0,9,4.0293,9,9V320.2906c0,4.9707-4.0293,9-9,9Z"/>
  </g>
  <g>
    <path class="cls-1" d="M524.23164,234.50134H90.36915c-8.92283,0-16.15621-7.15133-16.15621-15.97294l-.26918-127.34904c0-42.73958,35.04479-77.38685,78.27473-77.38685H461.84394c43.22994,0,78.27473,34.64727,78.27473,77.38685l.26918,127.34904c0,8.82161-7.23338,15.97294-16.15621,15.97294Z"/>
    <path class="cls-2" d="M524.23141,243.50154H90.36911c-13.87109,0-25.15625-11.20312-25.15625-24.97266l-.26904-127.33008c0-47.65332,39.15137-86.40625,87.2749-86.40625H461.84372c48.12354,0,87.2749,38.75293,87.2749,86.38672l.26904,127.33105c0,13.78809-11.28516,24.99121-25.15625,24.99121ZM152.21872,22.79255c-38.19824,0-69.2749,30.67773-69.2749,68.38672l.26904,127.33105c0,3.86328,3.21045,6.99121,7.15625,6.99121h433.8623c3.9458,0,7.15625-3.12793,7.15625-6.97266l-.26904-127.33008c0-37.72852-31.07666-68.40625-69.2749-68.40625H152.21872Z"/>
  </g>
  <g>
    <path class="cls-1" d="M564.82005,321.71485V48.01992h-75.17857v85.85931c0,25.64531-20.78968,46.43493-46.43499,46.43493H171.67803c-25.64531,0-46.43493-20.78963-46.43493-46.43493V48.01992H53.60819V321.71485"/>
    <path class="cls-2" d="M564.82028,330.71443c-4.9707,0-9-4.0293-9-9V57.02009h-57.17871v76.85938c0,30.56641-24.86816,55.43457-55.43506,55.43457H171.67819c-30.56689,0-55.43506-24.86816-55.43506-55.43457V57.02009H62.60836V321.71443c0,4.9707-4.0293,9-9,9s-9-4.0293-9-9V48.02009c0-4.9707,4.0293-9,9-9H125.24313c4.9707,0,9,4.0293,9,9v85.85938c0,20.6416,16.79346,37.43457,37.43506,37.43457H443.20651c20.6416,0,37.43506-16.79297,37.43506-37.43457V48.02009c0-4.9707,4.0293-9,9-9h75.17871c4.9707,0,9,4.0293,9,9V321.71443c0,4.9707-4.0293,9-9,9Z"/>
  </g>
  <g>
    <path class="cls-1" d="M524.23164,234.60135H90.36915c-8.92283,0-16.15621-7.15133-16.15621-15.97294l-.26918-127.34904c0-42.73958,35.04479-77.38685,78.27473-77.38685H461.84394c43.22994,0,78.27473,34.64727,78.27473,77.38685l.26918,127.34904c0,8.82161-7.23338,15.97294-16.15621,15.97294Z"/>
    <path class="cls-2" d="M524.23141,243.60115H90.36911c-13.87109,0-25.15625-11.20312-25.15625-24.97266l-.26904-127.33008c0-47.65332,39.15137-86.40625,87.2749-86.40625H461.84372c48.12354,0,87.2749,38.75293,87.2749,86.38672l.26904,127.33105c0,13.78809-11.28516,24.99121-25.15625,24.99121ZM152.21872,22.89216c-38.19824,0-69.2749,30.67773-69.2749,68.38672l.26904,127.33105c0,3.86328,3.21045,6.99121,7.15625,6.99121h433.8623c3.9458,0,7.15625-3.12793,7.15625-6.97266l-.26904-127.33008c0-37.72852-31.07666-68.40625-69.2749-68.40625H152.21872Z"/>
  </g>
  <g>
    <polyline class="cls-1" points="564.28629 320.39021 564.28629 46.69531 53.07443 46.69531 53.07443 320.39021"/>
    <path class="cls-2" d="M564.2861,329.39021c-4.9707,0-9-4.0293-9-9V55.6949H62.07467V320.39021c0,4.9707-4.0293,9-9,9s-9-4.0293-9-9V46.6949c0-4.9707,4.0293-9,9-9h511.21143c4.9707,0,9,4.0293,9,9V320.39021c0,4.9707-4.0293,9-9,9Z"/>
  </g>
  <g>
    <path class="cls-1" d="M524.23164,234.60135H90.36915c-8.92283,0-16.15621-7.15133-16.15621-15.97294l-.26918-127.34904c0-42.73958,35.04479-77.38685,78.27473-77.38685H461.84394c43.22994,0,78.27473,34.64727,78.27473,77.38685l.26918,127.34904c0,8.82161-7.23338,15.97294-16.15621,15.97294Z"/>
    <path class="cls-2" d="M524.23141,243.60115H90.36911c-13.87109,0-25.15625-11.20312-25.15625-24.97266l-.26904-127.33008c0-47.65332,39.15137-86.40625,87.2749-86.40625H461.84372c48.12354,0,87.2749,38.75293,87.2749,86.38672l.26904,127.33105c0,13.78809-11.28516,24.99121-25.15625,24.99121ZM152.21872,22.89216c-38.19824,0-69.2749,30.67773-69.2749,68.38672l.26904,127.33105c0,3.86328,3.21045,6.99121,7.15625,6.99121h433.8623c3.9458,0,7.15625-3.12793,7.15625-6.97266l-.26904-127.33008c0-37.72852-31.07666-68.40625-69.2749-68.40625H152.21872Z"/>
  </g>
  <g>
    <path class="cls-1" d="M564.82005,321.81486V48.11993h-75.17857v85.85931c0,25.64531-20.78968,46.43493-46.43499,46.43493H171.67803c-25.64531,0-46.43493-20.78963-46.43493-46.43493V48.11993H53.60819V321.81486"/>
    <path class="cls-2" d="M564.82028,330.81501c-4.9707,0-9-4.0293-9-9V57.1197h-57.17871v76.85938c0,30.56738-24.86816,55.43555-55.43506,55.43555H171.67819c-30.56689,0-55.43506-24.86816-55.43506-55.43555V57.1197H62.60836V321.81501c0,4.9707-4.0293,9-9,9s-9-4.0293-9-9V48.1197c0-4.9707,4.0293-9,9-9H125.24313c4.9707,0,9,4.0293,9,9v85.85938c0,20.6416,16.79346,37.43555,37.43506,37.43555H443.20651c20.6416,0,37.43506-16.79395,37.43506-37.43555V48.1197c0-4.9707,4.0293-9,9-9h75.17871c4.9707,0,9,4.0293,9,9V321.81501c0,4.9707-4.0293,9-9,9Z"/>
  </g>
  <g>
    <path class="cls-1" d="M524.23164,234.70136H90.36915c-8.92283,0-16.15621-7.15133-16.15621-15.97294l-.26918-127.34904c0-42.73958,35.04479-77.38685,78.27473-77.38685H461.84394c43.22994,0,78.27473,34.64727,78.27473,77.38685l.26918,127.34904c0,8.82161-7.23338,15.97294-16.15621,15.97294Z"/>
    <path class="cls-2" d="M524.23141,243.70173H90.36911c-13.87109,0-25.15625-11.20312-25.15625-24.97363l-.26904-127.3291c0-47.65332,39.15137-86.40625,87.2749-86.40625H461.84372c48.12354,0,87.2749,38.75293,87.2749,86.38672l.26904,127.33008c0,13.78906-11.28516,24.99219-25.15625,24.99219ZM152.21872,22.99275c-38.19824,0-69.2749,30.67773-69.2749,68.38672l.26904,127.33008c0,3.86426,3.21045,6.99219,7.15625,6.99219h433.8623c3.9458,0,7.15625-3.12793,7.15625-6.97363l-.26904-127.3291c0-37.72852-31.07666-68.40625-69.2749-68.40625H152.21872Z"/>
  </g>
  <g>
    <polyline class="cls-1" points="564.28629 320.49022 564.28629 46.79532 53.07443 46.79532 53.07443 320.49022"/>
    <path class="cls-2" d="M564.2861,329.48982c-4.9707,0-9-4.0293-9-9V55.79548H62.07467V320.48982c0,4.9707-4.0293,9-9,9s-9-4.0293-9-9V46.79548c0-4.9707,4.0293-9,9-9h511.21143c4.9707,0,9,4.0293,9,9V320.48982c0,4.9707-4.0293,9-9,9Z"/>
  </g>
  <g>
    <path class="cls-1" d="M524.23164,234.70136H90.36915c-8.92283,0-16.15621-7.15133-16.15621-15.97294l-.26918-127.34904c0-42.73958,35.04479-77.38685,78.27473-77.38685H461.84394c43.22994,0,78.27473,34.64727,78.27473,77.38685l.26918,127.34904c0,8.82161-7.23338,15.97294-16.15621,15.97294Z"/>
    <path class="cls-2" d="M524.23141,243.70173H90.36911c-13.87109,0-25.15625-11.20312-25.15625-24.97363l-.26904-127.3291c0-47.65332,39.15137-86.40625,87.2749-86.40625H461.84372c48.12354,0,87.2749,38.75293,87.2749,86.38672l.26904,127.33008c0,13.78906-11.28516,24.99219-25.15625,24.99219ZM152.21872,22.99275c-38.19824,0-69.2749,30.67773-69.2749,68.38672l.26904,127.33008c0,3.86426,3.21045,6.99219,7.15625,6.99219h433.8623c3.9458,0,7.15625-3.12793,7.15625-6.97363l-.26904-127.3291c0-37.72852-31.07666-68.40625-69.2749-68.40625H152.21872Z"/>
  </g>
  <g>
    <path class="cls-1" d="M564.82005,321.91487V48.21994h-75.17857v85.85931c0,25.64531-20.78968,46.43493-46.43499,46.43493H171.67803c-25.64531,0-46.43493-20.78963-46.43493-46.43493V48.21994H53.60819V321.91487"/>
    <path class="cls-2" d="M564.82028,330.91462c-4.9707,0-9-4.0293-9-9V57.22029h-57.17871v76.85938c0,30.56641-24.86816,55.43457-55.43506,55.43457H171.67819c-30.56689,0-55.43506-24.86816-55.43506-55.43457V57.22029H62.60836V321.91462c0,4.9707-4.0293,9-9,9s-9-4.0293-9-9V48.22029c0-4.9707,4.0293-9,9-9H125.24313c4.9707,0,9,4.0293,9,9v85.85938c0,20.6416,16.79346,37.43457,37.43506,37.43457H443.20651c20.6416,0,37.43506-16.79297,37.43506-37.43457V48.22029c0-4.9707,4.0293-9,9-9h75.17871c4.9707,0,9,4.0293,9,9V321.91462c0,4.9707-4.0293,9-9,9Z"/>
  </g>
  <g>
    <path class="cls-1" d="M524.23164,234.80137H90.36915c-8.92283,0-16.15621-7.15133-16.15621-15.97294l-.26918-127.34904c0-42.73958,35.04479-77.38685,78.27473-77.38685H461.84394c43.22994,0,78.27473,34.64727,78.27473,77.38685l.26918,127.34904c0,8.82161-7.23338,15.97294-16.15621,15.97294Z"/>
    <path class="cls-2" d="M524.23141,243.80134H90.36911c-13.87109,0-25.15625-11.20312-25.15625-24.97266l-.26904-127.33008c0-47.65332,39.15137-86.40625,87.2749-86.40625H461.84372c48.12354,0,87.2749,38.75293,87.2749,86.38672l.26904,127.33105c0,13.78809-11.28516,24.99121-25.15625,24.99121ZM152.21872,23.09236c-38.19824,0-69.2749,30.67773-69.2749,68.38672l.26904,127.33105c0,3.86328,3.21045,6.99121,7.15625,6.99121h433.8623c3.9458,0,7.15625-3.12793,7.15625-6.97266l-.26904-127.33008c0-37.72852-31.07666-68.40625-69.2749-68.40625H152.21872Z"/>
  </g>
  <g>
    <polyline class="cls-1" points="564.28629 320.59023 564.28629 46.89533 53.07443 46.89533 53.07443 320.59023"/>
    <path class="cls-2" d="M564.2861,329.5904c-4.9707,0-9-4.0293-9-9V55.89509H62.07467V320.5904c0,4.9707-4.0293,9-9,9s-9-4.0293-9-9V46.89509c0-4.9707,4.0293-9,9-9h511.21143c4.9707,0,9,4.0293,9,9V320.5904c0,4.9707-4.0293,9-9,9Z"/>
  </g>
  <g>
    <path class="cls-1" d="M524.23164,234.80137H90.36915c-8.92283,0-16.15621-7.15133-16.15621-15.97294l-.26918-127.34904c0-42.73958,35.04479-77.38685,78.27473-77.38685H461.84394c43.22994,0,78.27473,34.64727,78.27473,77.38685l.26918,127.34904c0,8.82161-7.23338,15.97294-16.15621,15.97294Z"/>
    <path class="cls-2" d="M524.23141,243.80134H90.36911c-13.87109,0-25.15625-11.20312-25.15625-24.97266l-.26904-127.33008c0-47.65332,39.15137-86.40625,87.2749-86.40625H461.84372c48.12354,0,87.2749,38.75293,87.2749,86.38672l.26904,127.33105c0,13.78809-11.28516,24.99121-25.15625,24.99121ZM152.21872,23.09236c-38.19824,0-69.2749,30.67773-69.2749,68.38672l.26904,127.33105c0,3.86328,3.21045,6.99121,7.15625,6.99121h433.8623c3.9458,0,7.15625-3.12793,7.15625-6.97266l-.26904-127.33008c0-37.72852-31.07666-68.40625-69.2749-68.40625H152.21872Z"/>
  </g>
  <g>
    <path class="cls-1" d="M564.82005,322.01488V48.31995h-75.17857v85.85931c0,25.64531-20.78968,46.43493-46.43499,46.43493H171.67803c-25.64531,0-46.43493-20.78963-46.43493-46.43493V48.31995H53.60819V322.01488"/>
    <path class="cls-2" d="M564.82028,331.01521c-4.9707,0-9-4.0293-9-9V57.3199h-57.17871v76.85938c0,30.56641-24.86816,55.43457-55.43506,55.43457H171.67819c-30.56689,0-55.43506-24.86816-55.43506-55.43457V57.3199H62.60836V322.01521c0,4.9707-4.0293,9-9,9s-9-4.0293-9-9V48.3199c0-4.9707,4.0293-9,9-9H125.24313c4.9707,0,9,4.0293,9,9v85.85938c0,20.6416,16.79346,37.43457,37.43506,37.43457H443.20651c20.6416,0,37.43506-16.79297,37.43506-37.43457V48.3199c0-4.9707,4.0293-9,9-9h75.17871c4.9707,0,9,4.0293,9,9V322.01521c0,4.9707-4.0293,9-9,9Z"/>
  </g>
  <g>
    <path class="cls-1" d="M524.23164,235.80147H90.36915c-8.92283,0-16.15621-7.15133-16.15621-15.97294l-.26918-127.34904c0-42.73958,35.04479-77.38685,78.27473-77.38685H461.84394c43.22994,0,78.27473,34.64727,78.27473,77.38685l.26918,127.34904c0,8.82161-7.23338,15.97294-16.15621,15.97294Z"/>
    <path class="cls-2" d="M524.23141,244.80134H90.36911c-13.87109,0-25.15625-11.20312-25.15625-24.97266l-.26904-127.33008c0-47.65332,39.15137-86.40625,87.2749-86.40625H461.84372c48.12354,0,87.2749,38.75293,87.2749,86.38672l.26904,127.33105c0,13.78809-11.28516,24.99121-25.15625,24.99121ZM152.21872,24.09236c-38.19824,0-69.2749,30.67773-69.2749,68.38672l.26904,127.33105c0,3.86328,3.21045,6.99121,7.15625,6.99121h433.8623c3.9458,0,7.15625-3.12793,7.15625-6.97266l-.26904-127.33008c0-37.72852-31.07666-68.40625-69.2749-68.40625H152.21872Z"/>
  </g>
  <g>
    <polyline class="cls-1" points="564.28629 321.59033 564.28629 47.89543 53.07443 47.89543 53.07443 321.59033"/>
    <path class="cls-2" d="M564.2861,330.5904c-4.9707,0-9-4.0293-9-9V56.89509H62.07467V321.5904c0,4.9707-4.0293,9-9,9s-9-4.0293-9-9V47.89509c0-4.9707,4.0293-9,9-9h511.21143c4.9707,0,9,4.0293,9,9V321.5904c0,4.9707-4.0293,9-9,9Z"/>
  </g>
  <g>
    <path class="cls-1" d="M524.23164,235.80147H90.36915c-8.92283,0-16.15621-7.15133-16.15621-15.97294l-.26918-127.34904c0-42.73958,35.04479-77.38685,78.27473-77.38685H461.84394c43.22994,0,78.27473,34.64727,78.27473,77.38685l.26918,127.34904c0,8.82161-7.23338,15.97294-16.15621,15.97294Z"/>
    <path class="cls-2" d="M524.23141,244.80134H90.36911c-13.87109,0-25.15625-11.20312-25.15625-24.97266l-.26904-127.33008c0-47.65332,39.15137-86.40625,87.2749-86.40625H461.84372c48.12354,0,87.2749,38.75293,87.2749,86.38672l.26904,127.33105c0,13.78809-11.28516,24.99121-25.15625,24.99121ZM152.21872,24.09236c-38.19824,0-69.2749,30.67773-69.2749,68.38672l.26904,127.33105c0,3.86328,3.21045,6.99121,7.15625,6.99121h433.8623c3.9458,0,7.15625-3.12793,7.15625-6.97266l-.26904-127.33008c0-37.72852-31.07666-68.40625-69.2749-68.40625H152.21872Z"/>
  </g>
  <g>
    <path class="cls-1" d="M564.82005,323.01498V49.32005h-75.17857v85.85931c0,25.64531-20.78968,46.43493-46.43499,46.43493H171.67803c-25.64531,0-46.43493-20.78963-46.43493-46.43493V49.32005H53.60819V323.01498"/>
    <path class="cls-2" d="M564.82028,332.01521c-4.9707,0-9-4.0293-9-9V58.3199h-57.17871v76.85938c0,30.56641-24.86816,55.43457-55.43506,55.43457H171.67819c-30.56689,0-55.43506-24.86816-55.43506-55.43457V58.3199H62.60836V323.01521c0,4.9707-4.0293,9-9,9s-9-4.0293-9-9V49.3199c0-4.9707,4.0293-9,9-9H125.24313c4.9707,0,9,4.0293,9,9v85.85938c0,20.6416,16.79346,37.43457,37.43506,37.43457H443.20651c20.6416,0,37.43506-16.79297,37.43506-37.43457V49.3199c0-4.9707,4.0293-9,9-9h75.17871c4.9707,0,9,4.0293,9,9V323.01521c0,4.9707-4.0293,9-9,9Z"/>
  </g>
  <g>
    <path class="cls-1" d="M524.23164,236.80157H90.36915c-8.92283,0-16.15621-7.15133-16.15621-15.97294l-.26918-127.34904c0-42.73958,35.04479-77.38685,78.27473-77.38685H461.84394c43.22994,0,78.27473,34.64727,78.27473,77.38685l.26918,127.34904c0,8.82161-7.23338,15.97294-16.15621,15.97294Z"/>
    <path class="cls-2" d="M524.23141,245.80134H90.36911c-13.87109,0-25.15625-11.20312-25.15625-24.97266l-.26904-127.33008c0-47.65332,39.15137-86.40625,87.2749-86.40625H461.84372c48.12354,0,87.2749,38.75293,87.2749,86.3877l.26904,127.33008c0,13.78809-11.28516,24.99121-25.15625,24.99121ZM152.21872,25.09236c-38.19824,0-69.2749,30.67871-69.2749,68.3877l.26904,127.33008c0,3.86328,3.21045,6.99121,7.15625,6.99121h433.8623c3.9458,0,7.15625-3.12793,7.15625-6.97266l-.26904-127.33008c0-37.72754-31.07666-68.40625-69.2749-68.40625H152.21872Z"/>
  </g>
  <g>
    <polyline class="cls-1" points="564.28629 322.59043 564.28629 48.89553 53.07443 48.89553 53.07443 322.59043"/>
    <path class="cls-2" d="M564.2861,331.5904c-4.9707,0-9-4.0293-9-9V57.89509H62.07467V322.5904c0,4.9707-4.0293,9-9,9s-9-4.0293-9-9V48.89509c0-4.9707,4.0293-9,9-9h511.21143c4.9707,0,9,4.0293,9,9V322.5904c0,4.9707-4.0293,9-9,9Z"/>
  </g>
  <g>
    <path class="cls-1" d="M524.23164,236.80157H90.36915c-8.92283,0-16.15621-7.15133-16.15621-15.97294l-.26918-127.34904c0-42.73958,35.04479-77.38685,78.27473-77.38685H461.84394c43.22994,0,78.27473,34.64727,78.27473,77.38685l.26918,127.34904c0,8.82161-7.23338,15.97294-16.15621,15.97294Z"/>
    <path class="cls-2" d="M524.23141,245.80134H90.36911c-13.87109,0-25.15625-11.20312-25.15625-24.97266l-.26904-127.33008c0-47.65332,39.15137-86.40625,87.2749-86.40625H461.84372c48.12354,0,87.2749,38.75293,87.2749,86.3877l.26904,127.33008c0,13.78809-11.28516,24.99121-25.15625,24.99121ZM152.21872,25.09236c-38.19824,0-69.2749,30.67871-69.2749,68.3877l.26904,127.33008c0,3.86328,3.21045,6.99121,7.15625,6.99121h433.8623c3.9458,0,7.15625-3.12793,7.15625-6.97266l-.26904-127.33008c0-37.72754-31.07666-68.40625-69.2749-68.40625H152.21872Z"/>
  </g>
  <g>
    <path class="cls-1" d="M564.82005,324.01508V50.32015h-75.17857v85.85931c0,25.64531-20.78968,46.43493-46.43499,46.43493H171.67803c-25.64531,0-46.43493-20.78963-46.43493-46.43493V50.32015H53.60819V324.01508"/>
    <path class="cls-2" d="M564.82028,333.01521c-4.9707,0-9-4.0293-9-9V59.3199h-57.17871v76.85938c0,30.56738-24.86816,55.43555-55.43506,55.43555H171.67819c-30.56689,0-55.43506-24.86816-55.43506-55.43555V59.3199H62.60836V324.01521c0,4.9707-4.0293,9-9,9s-9-4.0293-9-9V50.3199c0-4.9707,4.0293-9,9-9H125.24313c4.9707,0,9,4.0293,9,9v85.85938c0,20.6416,16.79346,37.43555,37.43506,37.43555H443.20651c20.6416,0,37.43506-16.79395,37.43506-37.43555V50.3199c0-4.9707,4.0293-9,9-9h75.17871c4.9707,0,9,4.0293,9,9V324.01521c0,4.9707-4.0293,9-9,9Z"/>
  </g>
  <g>
    <path class="cls-1" d="M524.23164,237.80167H90.36915c-8.92283,0-16.15621-7.15133-16.15621-15.97294l-.26918-127.34904c0-42.73958,35.04479-77.38685,78.27473-77.38685H461.84394c43.22994,0,78.27473,34.64727,78.27473,77.38685l.26918,127.34904c0,8.82161-7.23338,15.97294-16.15621,15.97294Z"/>
    <path class="cls-2" d="M524.23141,246.80134H90.36911c-13.87109,0-25.15625-11.20312-25.15625-24.97266l-.26904-127.33008c0-47.65332,39.15137-86.40625,87.2749-86.40625H461.84372c48.12354,0,87.2749,38.75293,87.2749,86.3877l.26904,127.33008c0,13.78809-11.28516,24.99121-25.15625,24.99121ZM152.21872,26.09236c-38.19824,0-69.2749,30.67871-69.2749,68.3877l.26904,127.33008c0,3.86328,3.21045,6.99121,7.15625,6.99121h433.8623c3.9458,0,7.15625-3.12793,7.15625-6.97266l-.26904-127.33008c0-37.72754-31.07666-68.40625-69.2749-68.40625H152.21872Z"/>
  </g>
  <g>
    <polyline class="cls-1" points="564.28629 323.59053 564.28629 49.89563 53.07443 49.89563 53.07443 323.59053"/>
    <path class="cls-2" d="M564.2861,332.5904c-4.9707,0-9-4.0293-9-9V58.89607H62.07467V323.5904c0,4.9707-4.0293,9-9,9s-9-4.0293-9-9V49.89607c0-4.9707,4.0293-9,9-9h511.21143c4.9707,0,9,4.0293,9,9V323.5904c0,4.9707-4.0293,9-9,9Z"/>
  </g>
  <g>
    <path class="cls-1" d="M524.23164,237.80167H90.36915c-8.92283,0-16.15621-7.15133-16.15621-15.97294l-.26918-127.34904c0-42.73958,35.04479-77.38685,78.27473-77.38685H461.84394c43.22994,0,78.27473,34.64727,78.27473,77.38685l.26918,127.34904c0,8.82161-7.23338,15.97294-16.15621,15.97294Z"/>
    <path class="cls-2" d="M524.23141,246.80134H90.36911c-13.87109,0-25.15625-11.20312-25.15625-24.97266l-.26904-127.33008c0-47.65332,39.15137-86.40625,87.2749-86.40625H461.84372c48.12354,0,87.2749,38.75293,87.2749,86.3877l.26904,127.33008c0,13.78809-11.28516,24.99121-25.15625,24.99121ZM152.21872,26.09236c-38.19824,0-69.2749,30.67871-69.2749,68.3877l.26904,127.33008c0,3.86328,3.21045,6.99121,7.15625,6.99121h433.8623c3.9458,0,7.15625-3.12793,7.15625-6.97266l-.26904-127.33008c0-37.72754-31.07666-68.40625-69.2749-68.40625H152.21872Z"/>
  </g>
  <g>
    <path class="cls-1" d="M564.82005,325.01518V51.32025h-75.17857v85.85931c0,25.64531-20.78968,46.43493-46.43499,46.43493H171.67803c-25.64531,0-46.43493-20.78963-46.43493-46.43493V51.32025H53.60819V325.01518"/>
    <path class="cls-2" d="M564.82028,334.01521c-4.9707,0-9-4.0293-9-9V60.3199h-57.17871v76.85938c0,30.56738-24.86816,55.43555-55.43506,55.43555H171.67819c-30.56689,0-55.43506-24.86816-55.43506-55.43555V60.3199H62.60836V325.01521c0,4.9707-4.0293,9-9,9s-9-4.0293-9-9V51.3199c0-4.9707,4.0293-9,9-9H125.24313c4.9707,0,9,4.0293,9,9v85.85938c0,20.6416,16.79346,37.43555,37.43506,37.43555H443.20651c20.6416,0,37.43506-16.79395,37.43506-37.43555V51.3199c0-4.9707,4.0293-9,9-9h75.17871c4.9707,0,9,4.0293,9,9V325.01521c0,4.9707-4.0293,9-9,9Z"/>
  </g>
  <g>
    <path class="cls-1" d="M524.23164,238.80177H90.36915c-8.92283,0-16.15621-7.15133-16.15621-15.97294l-.26918-127.34904c0-42.73958,35.04479-77.38685,78.27473-77.38685H461.84394c43.22994,0,78.27473,34.64727,78.27473,77.38685l.26918,127.34904c0,8.82161-7.23338,15.97294-16.15621,15.97294Z"/>
    <path class="cls-2" d="M524.23141,247.80134H90.36911c-13.87109,0-25.15625-11.20312-25.15625-24.97266l-.26904-127.3291c0-47.65332,39.15137-86.40625,87.2749-86.40625H461.84372c48.12354,0,87.2749,38.75293,87.2749,86.38672l.26904,127.33008c0,13.78809-11.28516,24.99121-25.15625,24.99121ZM152.21872,27.09333c-38.19824,0-69.2749,30.67773-69.2749,68.38672l.26904,127.33008c0,3.86328,3.21045,6.99121,7.15625,6.99121h433.8623c3.9458,0,7.15625-3.12793,7.15625-6.97266l-.26904-127.3291c0-37.72852-31.07666-68.40625-69.2749-68.40625H152.21872Z"/>
  </g>
  <g>
    <polyline class="cls-1" points="564.28629 324.59063 564.28629 50.89573 53.07443 50.89573 53.07443 324.59063"/>
    <path class="cls-2" d="M564.2861,333.5904c-4.9707,0-9-4.0293-9-9V59.89607H62.07467V324.5904c0,4.9707-4.0293,9-9,9s-9-4.0293-9-9V50.89607c0-4.9707,4.0293-9,9-9h511.21143c4.9707,0,9,4.0293,9,9V324.5904c0,4.9707-4.0293,9-9,9Z"/>
  </g>
  <g>
    <path class="cls-1" d="M524.23164,238.80177H90.36915c-8.92283,0-16.15621-7.15133-16.15621-15.97294l-.26918-127.34904c0-42.73958,35.04479-77.38685,78.27473-77.38685H461.84394c43.22994,0,78.27473,34.64727,78.27473,77.38685l.26918,127.34904c0,8.82161-7.23338,15.97294-16.15621,15.97294Z"/>
    <path class="cls-2" d="M524.23141,247.80134H90.36911c-13.87109,0-25.15625-11.20312-25.15625-24.97266l-.26904-127.3291c0-47.65332,39.15137-86.40625,87.2749-86.40625H461.84372c48.12354,0,87.2749,38.75293,87.2749,86.38672l.26904,127.33008c0,13.78809-11.28516,24.99121-25.15625,24.99121ZM152.21872,27.09333c-38.19824,0-69.2749,30.67773-69.2749,68.38672l.26904,127.33008c0,3.86328,3.21045,6.99121,7.15625,6.99121h433.8623c3.9458,0,7.15625-3.12793,7.15625-6.97266l-.26904-127.3291c0-37.72852-31.07666-68.40625-69.2749-68.40625H152.21872Z"/>
  </g>
  <g>
    <path class="cls-1" d="M564.82005,326.01528V52.32035h-75.17857v85.85931c0,25.64531-20.78968,46.43493-46.43499,46.43493H171.67803c-25.64531,0-46.43493-20.78963-46.43493-46.43493V52.32035H53.60819V326.01528"/>
    <path class="cls-2" d="M564.82028,335.01521c-4.9707,0-9-4.0293-9-9V61.3199h-57.17871v76.85938c0,30.56738-24.86816,55.43555-55.43506,55.43555H171.67819c-30.56689,0-55.43506-24.86816-55.43506-55.43555V61.3199H62.60836V326.01521c0,4.9707-4.0293,9-9,9s-9-4.0293-9-9V52.3199c0-4.9707,4.0293-9,9-9H125.24313c4.9707,0,9,4.0293,9,9v85.85938c0,20.6416,16.79346,37.43555,37.43506,37.43555H443.20651c20.6416,0,37.43506-16.79395,37.43506-37.43555V52.3199c0-4.9707,4.0293-9,9-9h75.17871c4.9707,0,9,4.0293,9,9V326.01521c0,4.9707-4.0293,9-9,9Z"/>
  </g>
  <g>
    <polyline class="cls-1" points="560.28745 339.71731 560.28745 359.30312 57.34222 359.30312 57.34222 337.5411"/>
    <path class="cls-2" d="M560.28756,368.30329H57.34225c-4.9707,0-9-4.0293-9-9v-21.76172c0-4.9707,4.0293-9,9-9s9,4.0293,9,9v12.76172h484.94531v-10.58594c0-4.9707,4.0293-9,9-9s9,4.0293,9,9v19.58594c0,4.9707-4.0293,9-9,9Z"/>
  </g>
  <g>
    <g>
      <polyline class="cls-1" points="113.15632 449.71598 83.6923 449.71598 83.6923 417.95357"/>
      <path class="cls-2" d="M113.15622,458.71638h-29.46387c-4.9707,0-9-4.0293-9-9v-31.7627c0-4.9707,4.0293-9,9-9s9,4.0293,9,9v22.7627h20.46387c4.9707,0,9,4.0293,9,9s-4.0293,9-9,9Z"/>
    </g>
    <g>
      <polyline class="cls-1" points="491.7703 449.71598 521.23431 449.71598 521.23431 417.95357"/>
      <path class="cls-2" d="M521.23434,458.71638h-29.46387c-4.9707,0-9-4.0293-9-9s4.0293-9,9-9h20.46387v-22.7627c0-4.9707,4.0293-9,9-9s9,4.0293,9,9v31.7627c0,4.9707-4.0293,9-9,9Z"/>
    </g>
  </g>
  <path class="cls-2" d="M538.1362,331.19294H79.49313c-4.9707,0-9-4.0293-9-9s4.0293-9,9-9h458.64307c4.9707,0,9,4.0293,9,9s-4.0293,9-9,9Z"/>
</svg>