<?xml version="1.0" encoding="UTF-8"?>
<svg id="Layer_1" data-name="Layer 1" xmlns="http://www.w3.org/2000/svg" viewBox="0 0 620 560">
  <defs>
    <style>
      .cls-1 {
        fill: #fff;
      }

      .cls-2 {
        fill: #495866;
      }
    </style>
  </defs>
  <g>
    <g>
      <rect class="cls-1" x="9.73266" y="383.28538" width="96.38121" height="162.53594" rx="19.63954" ry="19.63954"/>
      <path class="cls-2" d="M86.47432,554.82115H29.37227c-15.79199,0-28.63965-12.84766-28.63965-28.63965v-123.25684c0-15.79199,12.84766-28.63965,28.63965-28.63965h57.10205c15.79199,0,28.63965,12.84766,28.63965,28.63965v123.25684c0,15.79199-12.84766,28.63965-28.63965,28.63965ZM29.37227,392.28502c-5.8667,0-10.63965,4.77246-10.63965,10.63965v123.25684c0,5.86719,4.77295,10.63965,10.63965,10.63965h57.10205c5.8667,0,10.63965-4.77246,10.63965-10.63965v-123.25684c0-5.86719-4.77295-10.63965-10.63965-10.63965H29.37227Z"/>
    </g>
    <g>
      <rect class="cls-1" x="513.88614" y="383.28538" width="96.38121" height="162.53594" rx="19.63954" ry="19.63954" transform="translate(1124.15348 929.10671) rotate(-180)"/>
      <path class="cls-2" d="M590.62764,554.82115h-57.10205c-15.79199,0-28.63965-12.84766-28.63965-28.63965v-123.25684c0-15.79199,12.84766-28.63965,28.63965-28.63965h57.10205c15.79199,0,28.63965,12.84766,28.63965,28.63965v123.25684c0,15.79199-12.84766,28.63965-28.63965,28.63965Zm-57.10205-162.53613c-5.8667,0-10.63965,4.77246-10.63965,10.63965v123.25684c0,5.86719,4.77295,10.63965,10.63965,10.63965h57.10205c5.8667,0,10.63965-4.77246,10.63965-10.63965v-123.25684c0-5.86719-4.77295-10.63965-10.63965-10.63965h-57.10205Z"/>
    </g>
    <g>
      <polygon class="cls-1" points="564.0678 365.44675 563.80168 48.05081 52.58982 48.05081 52.85594 365.44675 34.16624 365.44675 34.16624 506.60662 125.39879 506.60662 125.39879 488.06277 491.79391 488.06277 491.79391 506.60662 583.02645 506.60662 583.02645 365.44675 564.0678 365.44675"/>
      <path class="cls-2" d="M583.02657,515.60631h-91.23242c-4.9707,0-9-4.0293-9-9v-9.54395H134.39864v9.54395c0,4.9707-4.0293,9-9,9H34.16622c-4.9707,0-9-4.0293-9-9v-141.15918c0-4.9707,4.0293-9,9-9h9.68262l-.25879-308.38867c-.00195-2.38867,.94531-4.67969,2.6333-6.36914s3.97852-2.63867,6.3667-2.63867h511.21143c4.96777,0,8.99561,4.02441,9,8.99219l.25879,308.4043h9.96631c4.9707,0,9,4.0293,9,9v141.15918c0,4.9707-4.0293,9-9,9Zm-82.23242-18h73.23242v-123.15918h-9.95898c-4.96777,0-8.99561-4.02441-9-8.99219l-.25879-308.4043H61.59737l.25879,308.38867c.00195,2.38867-.94531,4.67969-2.6333,6.36914s-3.97852,2.63867-6.3667,2.63867h-9.68994v123.15918H116.39864v-9.54395c0-4.9707,4.0293-9,9-9H491.79415c4.9707,0,9,4.0293,9,9v9.54395Z"/>
    </g>
    <g>
      <path class="cls-1" d="M524.42035,234.8875H90.55786c-8.92283,0-16.15621-7.15133-16.15621-15.97294l-.26918-127.34904c0-42.73958,35.04479-77.38685,78.27473-77.38685H462.03265c43.22994,0,78.27473,34.64727,78.27473,77.38685l.26918,127.34904c0,8.82161-7.23338,15.97294-16.15621,15.97294Z"/>
      <path class="cls-2" d="M524.42012,243.88756H90.55782c-13.87109,0-25.15625-11.20312-25.15625-24.97266l-.26904-127.33008c0-47.65332,39.15137-86.40625,87.2749-86.40625H462.03243c48.12354,0,87.2749,38.75293,87.2749,86.38672l.26904,127.33105c0,13.78809-11.28516,24.99121-25.15625,24.99121ZM152.40743,23.17857c-38.19824,0-69.2749,30.67773-69.2749,68.38672l.26904,127.33105c0,3.86328,3.21045,6.99121,7.15625,6.99121h433.8623c3.9458,0,7.15625-3.12793,7.15625-6.97266l-.26904-127.33008c0-37.72852-31.07666-68.40625-69.2749-68.40625H152.40743Z"/>
    </g>
    <g>
      <g>
        <polyline class="cls-1" points="118.17591 322.44682 88.01078 322.44682 88.01078 354.37828"/>
        <path class="cls-2" d="M88.01094,363.37779c-4.9707,0-9-4.0293-9-9v-31.93066c0-4.9707,4.0293-9,9-9h30.16504c4.9707,0,9,4.0293,9,9s-4.0293,9-9,9h-21.16504v22.93066c0,4.9707-4.0293,9-9,9Z"/>
      </g>
      <g>
        <polyline class="cls-1" points="159.73643 347.95371 194.52108 407.15449 154.95702 407.15449"/>
        <path class="cls-2" d="M194.5212,416.15416h-39.56396c-4.9707,0-9-4.0293-9-9s4.0293-9,9-9h23.83691l-26.81738-45.64062c-2.51807-4.28613-1.08496-9.80078,3.2002-12.31934,4.28516-2.51758,9.80078-1.08496,12.31934,3.2002l34.78467,59.2002c1.63477,2.7832,1.65479,6.22852,.05176,9.0293-1.60352,2.80176-4.58398,4.53027-7.81152,4.53027Z"/>
      </g>
    </g>
    <g>
      <g>
        <polyline class="cls-1" points="496.70311 322.44682 528.63457 322.44682 528.63457 354.37828"/>
        <path class="cls-2" d="M528.63448,363.37779c-4.9707,0-9-4.0293-9-9v-22.93066h-22.93115c-4.9707,0-9-4.0293-9-9s4.0293-9,9-9h31.93115c4.9707,0,9,4.0293,9,9v31.93066c0,4.9707-4.0293,9-9,9Z"/>
      </g>
      <g>
        <polyline class="cls-1" points="456.90892 347.95371 422.12426 407.15449 461.68832 407.15449"/>
        <path class="cls-2" d="M461.68819,416.15416h-39.56396c-3.22754,0-6.20801-1.72852-7.81152-4.53027-1.60303-2.80078-1.58301-6.24609,.05176-9.0293l34.78467-59.2002c2.51807-4.28418,8.03271-5.71875,12.31934-3.2002,4.28516,2.51855,5.71826,8.0332,3.2002,12.31934l-26.81738,45.64062h23.83691c4.9707,0,9,4.0293,9,9s-4.0293,9-9,9Z"/>
      </g>
    </g>
  </g>
  <g>
    <polyline class="cls-1" points="564.0678 365.44675 563.80168 48.15082 52.58982 48.15082 52.85594 365.44675"/>
    <path class="cls-2" d="M564.06758,374.44713c-4.96729,0-8.99609-4.02441-9-8.99219l-.25879-308.30371H61.59786l.2583,308.28809c.00439,4.9707-4.02197,9.00391-8.99268,9.00781h-.00732c-4.96729,0-8.99561-4.02441-9-8.99219l-.26611-317.2959c-.00195-2.38867,.94531-4.67969,2.6333-6.36914s3.97852-2.63867,6.3667-2.63867h511.21143c4.96777,0,8.99561,4.02441,9,8.99219l.26611,317.2959c.00391,4.9707-4.02197,9.00391-8.99268,9.00781h-.00732Z"/>
  </g>
  <g>
    <path class="cls-1" d="M524.42035,234.98751H90.55786c-8.92283,0-16.15621-7.15133-16.15621-15.97294l-.26918-127.34904c0-42.73958,35.04479-77.38685,78.27473-77.38685H462.03265c43.22994,0,78.27473,34.64727,78.27473,77.38685l.26918,127.34904c0,8.82161-7.23338,15.97294-16.15621,15.97294Z"/>
    <path class="cls-2" d="M524.42012,243.98717H90.55782c-13.87109,0-25.15625-11.20312-25.15625-24.97266l-.26904-127.33008c0-47.65234,39.15137-86.40527,87.2749-86.40527H462.03243c48.12354,0,87.2749,38.75293,87.2749,86.38672l.26904,127.33008c0,13.78809-11.28516,24.99121-25.15625,24.99121ZM152.40743,23.27916c-38.19824,0-69.2749,30.67773-69.2749,68.38672l.26904,127.33008c0,3.86328,3.21045,6.99121,7.15625,6.99121h433.8623c3.9458,0,7.15625-3.12793,7.15625-6.97266l-.26904-127.33008c0-37.72754-31.07666-68.40527-69.2749-68.40527H152.40743Z"/>
  </g>
  <g>
    <polyline class="cls-1" points="564.0678 365.54676 563.80168 48.25083 52.58982 48.25083 52.85594 365.54676"/>
    <path class="cls-2" d="M564.06758,374.54674c-4.96729,0-8.99609-4.02441-9-8.99219l-.25879-308.30371H61.59786l.2583,308.28809c.00439,4.9707-4.02197,9.00391-8.99268,9.00781h-.00732c-4.96729,0-8.99561-4.02441-9-8.99219l-.26611-317.2959c-.00195-2.38867,.94531-4.67969,2.6333-6.36914s3.97852-2.63867,6.3667-2.63867h511.21143c4.96777,0,8.99561,4.02441,9,8.99219l.26611,317.2959c.00391,4.9707-4.02197,9.00391-8.99268,9.00781h-.00732Z"/>
  </g>
  <g>
    <path class="cls-1" d="M524.42035,235.08752H90.55786c-8.92283,0-16.15621-7.15133-16.15621-15.97294l-.26918-127.34904c0-42.73958,35.04479-77.38685,78.27473-77.38685H462.03265c43.22994,0,78.27473,34.64727,78.27473,77.38685l.26918,127.34904c0,8.82161-7.23338,15.97294-16.15621,15.97294Z"/>
    <path class="cls-2" d="M524.42012,244.08775H90.55782c-13.87109,0-25.15625-11.20312-25.15625-24.97363l-.26904-127.3291c0-47.65332,39.15137-86.40625,87.2749-86.40625H462.03243c48.12354,0,87.2749,38.75293,87.2749,86.38672l.26904,127.33008c0,13.78906-11.28516,24.99219-25.15625,24.99219ZM152.40743,23.37877c-38.19824,0-69.2749,30.67773-69.2749,68.38672l.26904,127.33008c0,3.86426,3.21045,6.99219,7.15625,6.99219h433.8623c3.9458,0,7.15625-3.12793,7.15625-6.97363l-.26904-127.3291c0-37.72852-31.07666-68.40625-69.2749-68.40625H152.40743Z"/>
  </g>
  <g>
    <polyline class="cls-1" points="564.0678 365.64677 563.80168 48.35084 52.58982 48.35084 52.85594 365.64677"/>
    <path class="cls-2" d="M564.06758,374.64635c-4.96729,0-8.99609-4.02441-9-8.99219l-.25879-308.30371H61.59786l.2583,308.28809c.00439,4.9707-4.02197,9.00391-8.99268,9.00781h-.00732c-4.96729,0-8.99561-4.02441-9-8.99219l-.26611-317.2959c-.00195-2.38867,.94531-4.67969,2.6333-6.36914s3.97852-2.63867,6.3667-2.63867h511.21143c4.96777,0,8.99561,4.02441,9,8.99219l.26611,317.2959c.00391,4.9707-4.02197,9.00391-8.99268,9.00781h-.00732Z"/>
  </g>
  <g>
    <path class="cls-1" d="M524.42035,235.18753H90.55786c-8.92283,0-16.15621-7.15133-16.15621-15.97294l-.26918-127.34904c0-42.73958,35.04479-77.38685,78.27473-77.38685H462.03265c43.22994,0,78.27473,34.64727,78.27473,77.38685l.26918,127.34904c0,8.82161-7.23338,15.97294-16.15621,15.97294Z"/>
    <path class="cls-2" d="M524.42012,244.18736H90.55782c-13.87109,0-25.15625-11.20312-25.15625-24.97266l-.26904-127.33008c0-47.65332,39.15137-86.40625,87.2749-86.40625H462.03243c48.12354,0,87.2749,38.75293,87.2749,86.38672l.26904,127.33105c0,13.78809-11.28516,24.99121-25.15625,24.99121ZM152.40743,23.47838c-38.19824,0-69.2749,30.67773-69.2749,68.38672l.26904,127.33105c0,3.86328,3.21045,6.99121,7.15625,6.99121h433.8623c3.9458,0,7.15625-3.12793,7.15625-6.97266l-.26904-127.33008c0-37.72852-31.07666-68.40625-69.2749-68.40625H152.40743Z"/>
  </g>
  <g>
    <polyline class="cls-1" points="564.0678 365.74678 563.80168 48.45085 52.58982 48.45085 52.85594 365.74678"/>
    <path class="cls-2" d="M564.06758,374.74693c-4.96729,0-8.99609-4.02441-9-8.99219l-.25879-308.30371H61.59786l.2583,308.28809c.00439,4.9707-4.02197,9.00391-8.99268,9.00781h-.00732c-4.96729,0-8.99561-4.02441-9-8.99219l-.26611-317.2959c-.00195-2.38867,.94531-4.67969,2.6333-6.36914s3.97852-2.63867,6.3667-2.63867h511.21143c4.96777,0,8.99561,4.02441,9,8.99219l.26611,317.2959c.00391,4.9707-4.02197,9.00391-8.99268,9.00781h-.00732Z"/>
  </g>
  <g>
    <path class="cls-1" d="M524.42035,235.28754H90.55786c-8.92283,0-16.15621-7.15133-16.15621-15.97294l-.26918-127.34904c0-42.73958,35.04479-77.38685,78.27473-77.38685H462.03265c43.22994,0,78.27473,34.64727,78.27473,77.38685l.26918,127.34904c0,8.82161-7.23338,15.97294-16.15621,15.97294Z"/>
    <path class="cls-2" d="M524.42012,244.28795H90.55782c-13.87109,0-25.15625-11.20312-25.15625-24.97363l-.26904-127.3291c0-47.65332,39.15137-86.40625,87.2749-86.40625H462.03243c48.12354,0,87.2749,38.75293,87.2749,86.38672l.26904,127.33008c0,13.78906-11.28516,24.99219-25.15625,24.99219ZM152.40743,23.57896c-38.19824,0-69.2749,30.67773-69.2749,68.38672l.26904,127.33008c0,3.86426,3.21045,6.99219,7.15625,6.99219h433.8623c3.9458,0,7.15625-3.12793,7.15625-6.97363l-.26904-127.3291c0-37.72852-31.07666-68.40625-69.2749-68.40625H152.40743Z"/>
  </g>
  <g>
    <polyline class="cls-1" points="564.0678 365.84679 563.80168 48.55086 52.58982 48.55086 52.85594 365.84679"/>
    <path class="cls-2" d="M564.06758,374.84654c-4.96729,0-8.99609-4.02441-9-8.99219l-.25879-308.30371H61.59786l.2583,308.28809c.00439,4.9707-4.02197,9.00391-8.99268,9.00781h-.00732c-4.96729,0-8.99561-4.02441-9-8.99219l-.26611-317.2959c-.00195-2.38867,.94531-4.67969,2.6333-6.36914s3.97852-2.63867,6.3667-2.63867h511.21143c4.96777,0,8.99561,4.02441,9,8.99219l.26611,317.2959c.00391,4.9707-4.02197,9.00391-8.99268,9.00781h-.00732Z"/>
  </g>
  <g>
    <path class="cls-1" d="M524.42035,235.38755H90.55786c-8.92283,0-16.15621-7.15133-16.15621-15.97294l-.26918-127.34904c0-42.73958,35.04479-77.38685,78.27473-77.38685H462.03265c43.22994,0,78.27473,34.64727,78.27473,77.38685l.26918,127.34904c0,8.82161-7.23338,15.97294-16.15621,15.97294Z"/>
    <path class="cls-2" d="M524.42012,244.38756H90.55782c-13.87109,0-25.15625-11.20312-25.15625-24.97266l-.26904-127.33008c0-47.65332,39.15137-86.40625,87.2749-86.40625H462.03243c48.12354,0,87.2749,38.75293,87.2749,86.38672l.26904,127.33105c0,13.78809-11.28516,24.99121-25.15625,24.99121ZM152.40743,23.67857c-38.19824,0-69.2749,30.67773-69.2749,68.38672l.26904,127.33105c0,3.86328,3.21045,6.99121,7.15625,6.99121h433.8623c3.9458,0,7.15625-3.12793,7.15625-6.97266l-.26904-127.33008c0-37.72852-31.07666-68.40625-69.2749-68.40625H152.40743Z"/>
  </g>
  <g>
    <polyline class="cls-1" points="564.0678 365.9468 563.80168 48.65087 52.58982 48.65087 52.85594 365.9468"/>
    <path class="cls-2" d="M564.06758,374.94713c-4.96729,0-8.99609-4.02441-9-8.99219l-.25879-308.30371H61.59786l.2583,308.28809c.00439,4.9707-4.02197,9.00391-8.99268,9.00781h-.00732c-4.96729,0-8.99561-4.02441-9-8.99219l-.26611-317.2959c-.00195-2.38867,.94531-4.67969,2.6333-6.36914s3.97852-2.63867,6.3667-2.63867h511.21143c4.96777,0,8.99561,4.02441,9,8.99219l.26611,317.2959c.00391,4.9707-4.02197,9.00391-8.99268,9.00781h-.00732Z"/>
  </g>
  <g>
    <path class="cls-1" d="M524.42035,235.48756H90.55786c-8.92283,0-16.15621-7.15133-16.15621-15.97294l-.26918-127.34904c0-42.73958,35.04479-77.38685,78.27473-77.38685H462.03265c43.22994,0,78.27473,34.64727,78.27473,77.38685l.26918,127.34904c0,8.82161-7.23338,15.97294-16.15621,15.97294Z"/>
    <path class="cls-2" d="M524.42012,244.48717H90.55782c-13.87109,0-25.15625-11.20312-25.15625-24.97266l-.26904-127.33008c0-47.65234,39.15137-86.40527,87.2749-86.40527H462.03243c48.12354,0,87.2749,38.75293,87.2749,86.38672l.26904,127.33008c0,13.78809-11.28516,24.99121-25.15625,24.99121ZM152.40743,23.77916c-38.19824,0-69.2749,30.67773-69.2749,68.38672l.26904,127.33008c0,3.86328,3.21045,6.99121,7.15625,6.99121h433.8623c3.9458,0,7.15625-3.12793,7.15625-6.97266l-.26904-127.33008c0-37.72754-31.07666-68.40527-69.2749-68.40527H152.40743Z"/>
  </g>
  <g>
    <polyline class="cls-1" points="564.0678 366.04681 563.80168 48.75088 52.58982 48.75088 52.85594 366.04681"/>
    <path class="cls-2" d="M564.06758,375.04674c-4.96729,0-8.99609-4.02441-9-8.99219l-.25879-308.30371H61.59786l.2583,308.28809c.00439,4.9707-4.02197,9.00391-8.99268,9.00781h-.00732c-4.96729,0-8.99561-4.02441-9-8.99219l-.26611-317.2959c-.00195-2.38867,.94531-4.67969,2.6333-6.36914s3.97852-2.63867,6.3667-2.63867h511.21143c4.96777,0,8.99561,4.02441,9,8.99219l.26611,317.2959c.00391,4.9707-4.02197,9.00391-8.99268,9.00781h-.00732Z"/>
  </g>
  <g>
    <path class="cls-1" d="M524.42035,235.58757H90.55786c-8.92283,0-16.15621-7.15133-16.15621-15.97294l-.26918-127.34904c0-42.73958,35.04479-77.38685,78.27473-77.38685H462.03265c43.22994,0,78.27473,34.64727,78.27473,77.38685l.26918,127.34904c0,8.82161-7.23338,15.97294-16.15621,15.97294Z"/>
    <path class="cls-2" d="M524.42012,244.58775H90.55782c-13.87109,0-25.15625-11.20312-25.15625-24.97266l-.26904-127.33008c0-47.65332,39.15137-86.40625,87.2749-86.40625H462.03243c48.12354,0,87.2749,38.75293,87.2749,86.38672l.26904,127.33105c0,13.78809-11.28516,24.99121-25.15625,24.99121ZM152.40743,23.87877c-38.19824,0-69.2749,30.67773-69.2749,68.38672l.26904,127.33105c0,3.86328,3.21045,6.99121,7.15625,6.99121h433.8623c3.9458,0,7.15625-3.12793,7.15625-6.97266l-.26904-127.33008c0-37.72852-31.07666-68.40625-69.2749-68.40625H152.40743Z"/>
  </g>
  <g>
    <polyline class="cls-1" points="564.0678 366.14682 563.80168 48.85089 52.58982 48.85089 52.85594 366.14682"/>
    <path class="cls-2" d="M564.06758,375.14635c-4.96729,0-8.99609-4.02441-9-8.99219l-.25879-308.30371H61.59786l.2583,308.28809c.00439,4.9707-4.02197,9.00391-8.99268,9.00781h-.00732c-4.96729,0-8.99561-4.02441-9-8.99219l-.26611-317.2959c-.00195-2.38867,.94531-4.67969,2.6333-6.36914s3.97852-2.63867,6.3667-2.63867h511.21143c4.96777,0,8.99561,4.02441,9,8.99219l.26611,317.2959c.00391,4.9707-4.02197,9.00391-8.99268,9.00781h-.00732Z"/>
  </g>
  <g>
    <path class="cls-1" d="M524.42035,235.68758H90.55786c-8.92283,0-16.15621-7.15133-16.15621-15.97294l-.26918-127.34904c0-42.73958,35.04479-77.38685,78.27473-77.38685H462.03265c43.22994,0,78.27473,34.64727,78.27473,77.38685l.26918,127.34904c0,8.82161-7.23338,15.97294-16.15621,15.97294Z"/>
    <path class="cls-2" d="M524.42012,244.68736H90.55782c-13.87109,0-25.15625-11.20312-25.15625-24.97266l-.26904-127.33008c0-47.65332,39.15137-86.40625,87.2749-86.40625H462.03243c48.12354,0,87.2749,38.75293,87.2749,86.3877l.26904,127.33008c0,13.78809-11.28516,24.99121-25.15625,24.99121ZM152.40743,23.97838c-38.19824,0-69.2749,30.67871-69.2749,68.3877l.26904,127.33008c0,3.86328,3.21045,6.99121,7.15625,6.99121h433.8623c3.9458,0,7.15625-3.12793,7.15625-6.97266l-.26904-127.33008c0-37.72754-31.07666-68.40625-69.2749-68.40625H152.40743Z"/>
  </g>
  <g>
    <polyline class="cls-1" points="564.0678 366.24683 563.80168 48.9509 52.58982 48.9509 52.85594 366.24683"/>
    <path class="cls-2" d="M564.06758,375.24693c-4.96729,0-8.99609-4.02441-9-8.99219l-.25879-308.30371H61.59786l.2583,308.28809c.00439,4.9707-4.02197,9.00391-8.99268,9.00781h-.00732c-4.96729,0-8.99561-4.02441-9-8.99219l-.26611-317.2959c-.00195-2.38867,.94531-4.67969,2.6333-6.36914s3.97852-2.63867,6.3667-2.63867h511.21143c4.96777,0,8.99561,4.02441,9,8.99219l.26611,317.2959c.00391,4.9707-4.02197,9.00391-8.99268,9.00781h-.00732Z"/>
  </g>
  <g>
    <path class="cls-1" d="M524.42035,235.78759H90.55786c-8.92283,0-16.15621-7.15133-16.15621-15.97294l-.26918-127.34904c0-42.73958,35.04479-77.38685,78.27473-77.38685H462.03265c43.22994,0,78.27473,34.64727,78.27473,77.38685l.26918,127.34904c0,8.82161-7.23338,15.97294-16.15621,15.97294Z"/>
    <path class="cls-2" d="M524.42012,244.78795H90.55782c-13.87109,0-25.15625-11.20312-25.15625-24.97363l-.26904-127.3291c0-47.65332,39.15137-86.40625,87.2749-86.40625H462.03243c48.12354,0,87.2749,38.75293,87.2749,86.38672l.26904,127.33008c0,13.78906-11.28516,24.99219-25.15625,24.99219ZM152.40743,24.07896c-38.19824,0-69.2749,30.67773-69.2749,68.38672l.26904,127.33008c0,3.86426,3.21045,6.99219,7.15625,6.99219h433.8623c3.9458,0,7.15625-3.12793,7.15625-6.97363l-.26904-127.3291c0-37.72852-31.07666-68.40625-69.2749-68.40625H152.40743Z"/>
  </g>
  <g>
    <polyline class="cls-1" points="564.0678 366.34684 563.80168 49.05091 52.58982 49.05091 52.85594 366.34684"/>
    <path class="cls-2" d="M564.06758,375.34654c-4.96729,0-8.99609-4.02441-9-8.99219l-.25879-308.30371H61.59786l.2583,308.28809c.00439,4.9707-4.02197,9.00391-8.99268,9.00781h-.00732c-4.96729,0-8.99561-4.02441-9-8.99219l-.26611-317.2959c-.00195-2.38867,.94531-4.67969,2.6333-6.36914s3.97852-2.63867,6.3667-2.63867h511.21143c4.96777,0,8.99561,4.02441,9,8.99219l.26611,317.2959c.00391,4.9707-4.02197,9.00391-8.99268,9.00781h-.00732Z"/>
  </g>
  <g>
    <path class="cls-1" d="M524.42035,235.8876H90.55786c-8.92283,0-16.15621-7.15133-16.15621-15.97294l-.26918-127.34904c0-42.73958,35.04479-77.38685,78.27473-77.38685H462.03265c43.22994,0,78.27473,34.64727,78.27473,77.38685l.26918,127.34904c0,8.82161-7.23338,15.97294-16.15621,15.97294Z"/>
    <path class="cls-2" d="M524.42012,244.88756H90.55782c-13.87109,0-25.15625-11.20312-25.15625-24.97266l-.26904-127.33008c0-47.65332,39.15137-86.40625,87.2749-86.40625H462.03243c48.12354,0,87.2749,38.75293,87.2749,86.38672l.26904,127.33105c0,13.78809-11.28516,24.99121-25.15625,24.99121ZM152.40743,24.17857c-38.19824,0-69.2749,30.67773-69.2749,68.38672l.26904,127.33105c0,3.86328,3.21045,6.99121,7.15625,6.99121h433.8623c3.9458,0,7.15625-3.12793,7.15625-6.97266l-.26904-127.33008c0-37.72852-31.07666-68.40625-69.2749-68.40625H152.40743Z"/>
  </g>
  <g>
    <polyline class="cls-1" points="564.0678 367.34694 563.80168 50.05101 52.58982 50.05101 52.85594 367.34694"/>
    <path class="cls-2" d="M564.06758,376.34654c-4.96729,0-8.99609-4.02441-9-8.99219l-.25879-308.30371H61.59786l.2583,308.28809c.00439,4.9707-4.02197,9.00391-8.99268,9.00781h-.00732c-4.96729,0-8.99561-4.02441-9-8.99219l-.26611-317.2959c-.00195-2.38867,.94531-4.67969,2.6333-6.36914s3.97852-2.63867,6.3667-2.63867h511.21143c4.96777,0,8.99561,4.02441,9,8.99219l.26611,317.2959c.00391,4.9707-4.02197,9.00391-8.99268,9.00781h-.00732Z"/>
  </g>
  <g>
    <path class="cls-1" d="M524.42035,236.8877H90.55786c-8.92283,0-16.15621-7.15133-16.15621-15.97294l-.26918-127.34904c0-42.73958,35.04479-77.38685,78.27473-77.38685H462.03265c43.22994,0,78.27473,34.64727,78.27473,77.38685l.26918,127.34904c0,8.82161-7.23338,15.97294-16.15621,15.97294Z"/>
    <path class="cls-2" d="M524.42012,245.88756H90.55782c-13.87109,0-25.15625-11.20312-25.15625-24.97266l-.26904-127.33008c0-47.65332,39.15137-86.40625,87.2749-86.40625H462.03243c48.12354,0,87.2749,38.75293,87.2749,86.38672l.26904,127.33105c0,13.78809-11.28516,24.99121-25.15625,24.99121ZM152.40743,25.17857c-38.19824,0-69.2749,30.67773-69.2749,68.38672l.26904,127.33105c0,3.86328,3.21045,6.99121,7.15625,6.99121h433.8623c3.9458,0,7.15625-3.12793,7.15625-6.97266l-.26904-127.33008c0-37.72852-31.07666-68.40625-69.2749-68.40625H152.40743Z"/>
  </g>
  <g>
    <polyline class="cls-1" points="564.0678 368.34704 563.80168 51.05111 52.58982 51.05111 52.85594 368.34704"/>
    <path class="cls-2" d="M564.06758,377.34752c-4.96729,0-8.99609-4.02441-9-8.99219l-.25879-308.30469H61.59786l.2583,308.28906c.00439,4.9707-4.02197,9.00391-8.99268,9.00781h-.00732c-4.96729,0-8.99561-4.02441-9-8.99219l-.26611-317.29688c-.00195-2.38867,.94531-4.67969,2.6333-6.36914s3.97852-2.63867,6.3667-2.63867h511.21143c4.96777,0,8.99561,4.02441,9,8.99219l.26611,317.29688c.00391,4.9707-4.02197,9.00391-8.99268,9.00781h-.00732Z"/>
  </g>
  <g>
    <path class="cls-1" d="M524.42035,237.8878H90.55786c-8.92283,0-16.15621-7.15133-16.15621-15.97294l-.26918-127.34904c0-42.73958,35.04479-77.38685,78.27473-77.38685H462.03265c43.22994,0,78.27473,34.64727,78.27473,77.38685l.26918,127.34904c0,8.82161-7.23338,15.97294-16.15621,15.97294Z"/>
    <path class="cls-2" d="M524.42012,246.88756H90.55782c-13.87109,0-25.15625-11.20312-25.15625-24.97266l-.26904-127.33008c0-47.65332,39.15137-86.40625,87.2749-86.40625H462.03243c48.12354,0,87.2749,38.75293,87.2749,86.3877l.26904,127.33008c0,13.78809-11.28516,24.99121-25.15625,24.99121ZM152.40743,26.17857c-38.19824,0-69.2749,30.67871-69.2749,68.3877l.26904,127.33008c0,3.86328,3.21045,6.99121,7.15625,6.99121h433.8623c3.9458,0,7.15625-3.12793,7.15625-6.97266l-.26904-127.33008c0-37.72754-31.07666-68.40625-69.2749-68.40625H152.40743Z"/>
  </g>
  <g>
    <polyline class="cls-1" points="564.0678 369.34714 563.80168 52.05121 52.58982 52.05121 52.85594 369.34714"/>
    <path class="cls-2" d="M564.06758,378.34752c-4.96729,0-8.99609-4.02441-9-8.99219l-.25879-308.30371H61.59786l.2583,308.28809c.00439,4.9707-4.02197,9.00391-8.99268,9.00781h-.00732c-4.96729,0-8.99561-4.02441-9-8.99219l-.26611-317.2959c-.00195-2.38867,.94531-4.67969,2.6333-6.36914s3.97852-2.63867,6.3667-2.63867h511.21143c4.96777,0,8.99561,4.02441,9,8.99219l.26611,317.2959c.00391,4.9707-4.02197,9.00391-8.99268,9.00781h-.00732Z"/>
  </g>
  <g>
    <path class="cls-1" d="M524.42035,238.8879H90.55786c-8.92283,0-16.15621-7.15133-16.15621-15.97294l-.26918-127.34904c0-42.73958,35.04479-77.38685,78.27473-77.38685H462.03265c43.22994,0,78.27473,34.64727,78.27473,77.38685l.26918,127.34904c0,8.82161-7.23338,15.97294-16.15621,15.97294Z"/>
    <path class="cls-2" d="M524.42012,247.88756H90.55782c-13.87109,0-25.15625-11.20312-25.15625-24.97266l-.26904-127.33008c0-47.65234,39.15137-86.40527,87.2749-86.40527H462.03243c48.12354,0,87.2749,38.75293,87.2749,86.38672l.26904,127.33008c0,13.78809-11.28516,24.99121-25.15625,24.99121ZM152.40743,27.17955c-38.19824,0-69.2749,30.67773-69.2749,68.38672l.26904,127.33008c0,3.86328,3.21045,6.99121,7.15625,6.99121h433.8623c3.9458,0,7.15625-3.12793,7.15625-6.97266l-.26904-127.33008c0-37.72754-31.07666-68.40527-69.2749-68.40527H152.40743Z"/>
  </g>
  <g>
    <polyline class="cls-1" points="564.0678 370.34724 563.80168 53.05131 52.58982 53.05131 52.85594 370.34724"/>
    <path class="cls-2" d="M564.06758,379.34752c-4.96729,0-8.99609-4.02441-9-8.99219l-.25879-308.30371H61.59786l.2583,308.28809c.00439,4.9707-4.02197,9.00391-8.99268,9.00781h-.00732c-4.96729,0-8.99561-4.02441-9-8.99219l-.26611-317.2959c-.00195-2.38867,.94531-4.67969,2.6333-6.36914s3.97852-2.63867,6.3667-2.63867h511.21143c4.96777,0,8.99561,4.02441,9,8.99219l.26611,317.2959c.00391,4.9707-4.02197,9.00391-8.99268,9.00781h-.00732Z"/>
  </g>
  <g>
    <path class="cls-1" d="M524.42035,222.88507H90.55786c-8.92283,0-16.15621-6.60041-16.15621-14.74242l-.26918-117.53834c0-39.44701,35.04479-71.42513,78.27473-71.42513H462.03265c43.22994,0,78.27473,31.97812,78.27473,71.42513l.26918,117.53834c0,8.14201-7.23338,14.74242-16.15621,14.74242Z"/>
    <path class="cls-2" d="M524.42012,231.53111H90.55782c-13.67627,0-24.80273-10.49219-24.80273-23.38867l-.26904-117.51855c0-44.1709,38.99268-80.09082,86.92139-80.09082H462.03243c47.92871,0,86.92139,35.91992,86.92139,80.07129l.26904,117.51855c0,12.91602-11.12646,23.4082-24.80273,23.4082ZM152.40743,27.82603c-38.39355,0-69.62842,28.16211-69.62842,62.77832l.26904,117.51855c0,3.32422,3.43896,6.11523,7.50977,6.11523h433.8623c4.0708,0,7.50977-2.79102,7.50977-6.0957l-.26904-117.51855c0-34.63574-31.23486-62.79785-69.62842-62.79785H152.40743Z"/>
  </g>
</svg>