<?xml version="1.0" encoding="UTF-8"?>
<svg id="Layer_1" data-name="Layer 1" xmlns="http://www.w3.org/2000/svg" viewBox="0 0 270 270">
  <defs>
    <style>
      .cls-1 {
        fill: #fff;
      }

      .cls-2 {
        fill: #d7b62e;
      }

      .cls-3 {
        fill: #495866;
      }
    </style>
  </defs>
  <g>
    <path class="cls-2" d="M13.62536,40.5975c0-14.8963,12.07584-26.97214,26.97214-26.97214H229.4025c14.89631,0,26.97214,12.07584,26.97214,26.97214V229.4025c0,14.89631-12.07583,26.97214-26.97214,26.97214H40.5975c-14.8963,0-26.97214-12.07583-26.97214-26.97214V40.5975Z"/>
    <path class="cls-3" d="M229.40273,266.48929H40.59755c-20.44971,0-37.08691-16.63721-37.08691-37.08691V40.59769C3.51064,20.14798,20.14784,3.51077,40.59755,3.51077H229.40273c20.44922,0,37.08643,16.63721,37.08643,37.08691V229.40237c0,20.44971-16.63721,37.08691-37.08643,37.08691ZM40.59755,23.74026c-9.29541,0-16.85742,7.56201-16.85742,16.85742V229.40237c0,9.29541,7.56201,16.85742,16.85742,16.85742H229.40273c9.29492,0,16.85693-7.56201,16.85693-16.85742V40.59769c0-9.29541-7.56201-16.85742-16.85693-16.85742H40.59755Z"/>
  </g>
  <path class="cls-1" d="M71.47421,95.09283c22.04012-.00127,39.9082,17.86474,39.90948,39.90486,.00126,22.04012-17.86475,39.9082-39.90487,39.90948-21.36743,.00123-38.94453-16.82791-39.87187-38.1752l-.03991-1.73197,.03991-1.73197c.92727-21.34551,18.50162-38.17397,39.86726-38.1752Z"/>
</svg>