<?xml version="1.0" encoding="UTF-8"?>
<svg xmlns="http://www.w3.org/2000/svg" viewBox="0 0 1080.75 1080.75">
  <defs>
    <style>
      .cls-1 {
        opacity: .65;
      }

      .cls-1, .cls-2, .cls-3, .cls-4, .cls-5, .cls-6, .cls-7, .cls-8, .cls-9, .cls-10, .cls-11, .cls-12, .cls-13, .cls-14, .cls-15, .cls-16, .cls-17, .cls-18, .cls-19, .cls-20 {
        fill: #fff;
      }

      .cls-1, .cls-3, .cls-6, .cls-9, .cls-10, .cls-11, .cls-14, .cls-15, .cls-21, .cls-20 {
        stroke-width: 0px;
      }

      .cls-22 {
        letter-spacing: .89em;
      }

      .cls-22, .cls-23, .cls-24, .cls-25, .cls-26, .cls-27, .cls-28, .cls-29, .cls-30, .cls-31, .cls-32, .cls-33, .cls-21, .cls-34, .cls-35, .cls-36 {
        fill: #495866;
      }

      .cls-2 {
        letter-spacing: .17em;
      }

      .cls-23 {
        letter-spacing: 2.28em;
      }

      .cls-3 {
        opacity: .35;
      }

      .cls-24 {
        letter-spacing: .89em;
      }

      .cls-5 {
        letter-spacing: 1.08em;
      }

      .cls-26 {
        letter-spacing: 1.17em;
      }

      .cls-6 {
        opacity: .33;
      }

      .cls-6, .cls-11 {
        mix-blend-mode: overlay;
      }

      .cls-27, .cls-7 {
        letter-spacing: 0em;
      }

      .cls-8 {
        font-size: 21.67px;
        letter-spacing: .06em;
      }

      .cls-8, .cls-13, .cls-16, .cls-37 {
        font-family: HelveticaNeue, 'Helvetica Neue';
      }

      .cls-38 {
        fill: none;
        stroke: #999;
        stroke-miterlimit: 10;
        stroke-width: .75px;
      }

      .cls-9 {
        opacity: .88;
      }

      .cls-10 {
        opacity: .45;
      }

      .cls-12 {
        letter-spacing: .33em;
      }

      .cls-28 {
        letter-spacing: 1.16em;
      }

      .cls-13 {
        font-size: 40px;
        letter-spacing: .06em;
      }

      .cls-14 {
        opacity: .24;
      }

      .cls-29 {
        letter-spacing: .81em;
      }

      .cls-30 {
        letter-spacing: 1.02em;
      }

      .cls-15 {
        opacity: .55;
      }

      .cls-16 {
        font-size: 25.09px;
        letter-spacing: .06em;
      }

      .cls-31 {
        letter-spacing: .73em;
      }

      .cls-39 {
        isolation: isolate;
      }

      .cls-17 {
        letter-spacing: -.03em;
      }

      .cls-37 {
        font-size: 19.39px;
      }

      .cls-32, .cls-18 {
        letter-spacing: .76em;
      }

      .cls-33, .cls-19 {
        letter-spacing: .76em;
      }

      .cls-34 {
        letter-spacing: .91em;
      }

      .cls-35 {
        letter-spacing: .9em;
      }

      .cls-36 {
        letter-spacing: .9em;
      }
    </style>
  </defs>
  <g class="cls-39">
    <g id="Base">
      <rect class="cls-21" x=".38" y=".38" width="1080" height="1080"/>
      <g>
        <rect class="cls-38" x=".38" y=".38" width="1080" height="1080"/>
        <line class="cls-38" x1=".38" y1="1031.28" x2="1080.38" y2="1031.28"/>
        <line class="cls-38" x1=".38" y1="982.19" x2="1080.38" y2="982.19"/>
        <line class="cls-38" x1=".38" y1="933.1" x2="1080.38" y2="933.1"/>
        <line class="cls-38" x1=".38" y1="884.01" x2="1080.38" y2="884.01"/>
        <line class="cls-38" x1=".38" y1="834.92" x2="1080.38" y2="834.92"/>
        <line class="cls-38" x1=".38" y1="785.83" x2="1080.38" y2="785.83"/>
        <line class="cls-38" x1=".38" y1="736.74" x2="1080.38" y2="736.74"/>
        <line class="cls-38" x1=".38" y1="687.65" x2="1080.38" y2="687.65"/>
        <line class="cls-38" x1=".38" y1="638.56" x2="1080.38" y2="638.56"/>
        <line class="cls-38" x1=".38" y1="589.47" x2="1080.38" y2="589.47"/>
        <line class="cls-38" x1=".38" y1="540.38" x2="1080.38" y2="540.38"/>
        <line class="cls-38" x1=".38" y1="491.28" x2="1080.38" y2="491.28"/>
        <line class="cls-38" x1=".38" y1="442.19" x2="1080.38" y2="442.19"/>
        <line class="cls-38" x1=".38" y1="393.1" x2="1080.38" y2="393.1"/>
        <line class="cls-38" x1=".38" y1="344.01" x2="1080.38" y2="344.01"/>
        <line class="cls-38" x1=".38" y1="294.92" x2="1080.38" y2="294.92"/>
        <line class="cls-38" x1=".38" y1="245.83" x2="1080.38" y2="245.83"/>
        <line class="cls-38" x1=".38" y1="196.74" x2="1080.38" y2="196.74"/>
        <line class="cls-38" x1=".38" y1="147.65" x2="1080.38" y2="147.65"/>
        <line class="cls-38" x1=".38" y1="98.56" x2="1080.38" y2="98.56"/>
        <line class="cls-38" x1=".38" y1="49.47" x2="1080.38" y2="49.47"/>
        <line class="cls-38" x1="1031.28" y1=".38" x2="1031.28" y2="1080.38"/>
        <line class="cls-38" x1="982.19" y1=".38" x2="982.19" y2="1080.38"/>
        <line class="cls-38" x1="933.1" y1=".38" x2="933.1" y2="1080.38"/>
        <line class="cls-38" x1="884.01" y1=".38" x2="884.01" y2="1080.38"/>
        <line class="cls-38" x1="834.92" y1=".38" x2="834.92" y2="1080.38"/>
        <line class="cls-38" x1="785.83" y1=".38" x2="785.83" y2="1080.38"/>
        <line class="cls-38" x1="736.74" y1=".38" x2="736.74" y2="1080.38"/>
        <line class="cls-38" x1="687.65" y1=".38" x2="687.65" y2="1080.38"/>
        <line class="cls-38" x1="638.56" y1=".38" x2="638.56" y2="1080.38"/>
        <line class="cls-38" x1="589.47" y1=".38" x2="589.47" y2="1080.38"/>
        <line class="cls-38" x1="540.38" y1=".38" x2="540.38" y2="1080.38"/>
        <line class="cls-38" x1="491.28" y1=".38" x2="491.28" y2="1080.38"/>
        <line class="cls-38" x1="442.19" y1=".38" x2="442.19" y2="1080.38"/>
        <line class="cls-38" x1="393.1" y1=".38" x2="393.1" y2="1080.38"/>
        <line class="cls-38" x1="344.01" y1=".38" x2="344.01" y2="1080.38"/>
        <line class="cls-38" x1="294.92" y1=".38" x2="294.92" y2="1080.38"/>
        <line class="cls-38" x1="245.83" y1=".38" x2="245.83" y2="1080.38"/>
        <line class="cls-38" x1="196.74" y1=".38" x2="196.74" y2="1080.38"/>
        <line class="cls-38" x1="147.65" y1=".38" x2="147.65" y2="1080.38"/>
        <line class="cls-38" x1="98.56" y1=".38" x2="98.56" y2="1080.38"/>
        <line class="cls-38" x1="49.47" y1=".38" x2="49.47" y2="1080.38"/>
      </g>
    </g>
    <g id="Layer_2" data-name="Layer 2">
      <path class="cls-6" d="M167.89,535.44c-1.14,11.99,11.99,42.82,17.13,52.53,5.14,9.71,24.55,42.82,37.68,57.1,13.13,14.27,86.79,49.67,115.34,59.38,28.55,9.71,108.77,17.7,146.46,17.7s105.92-20.56,137.32-28.55c31.4-7.99,55.38-15.99,78.79-29.12,82.01-55.59,106.98-124.17,108.67-129.04.06,0,.1,0,.1,0,0,0-.02-.06-.05-.14.03-.09.05-.14.05-.14,0,0-.04,0-.1,0-1.69-4.87-26.66-73.45-108.67-129.04-23.41-13.13-47.39-21.13-78.79-29.12s-87.36-28.55-125.04-28.55-130.18,7.99-158.73,17.7c-28.55,9.71-102.2,45.11-115.34,59.38-13.13,14.27-32.55,47.39-37.68,57.1s-18.27,40.54-17.13,52.53"/>
      <path class="cls-6" d="M709.22,534.8c0-.17.02-.33.02-.5h-.05c-.86-11.62-12.91-20.02-14.58-21.13-20.56-13.7-37.11-30.26-41.68-36.54-3.83-5.26-32.55-46.25-35.4-49.1-2.85-2.85-9.71-10.85-33.12-11.99s-54.24-14.27-54.24-14.27c0,0-41.68-13.13-61.09-12.56-83.93-1.71-90.21,2.86-150.74,13.71-49.1,13.13-66.8,33.69-66.8,33.69,0,0-41.68,42.25-64.52,66.23-19.78,20.77-19.65,30.3-19.25,32.47-.39,2.18-.53,11.7,19.25,32.47,22.84,23.98,64.52,66.23,64.52,66.23,0,0,17.7,20.56,66.8,33.69,60.52,10.85,66.8,15.42,150.74,13.71,19.41.57,61.09-12.56,61.09-12.56,0,0,30.83-13.13,54.24-14.27,23.41-1.14,30.26-9.14,33.12-11.99,2.85-2.85,31.57-43.84,35.4-49.1,4.57-6.28,21.13-22.84,41.68-36.54,1.67-1.11,13.72-9.51,14.58-21.13h.05c0-.17-.02-.33-.02-.5Z"/>
      <path class="cls-6" d="M610.2,534.8s0,0,0,0h0c-.48-19.48-22.36-42.18-44.63-64.44-22.27-22.27-47.96-36.54-56.53-39.97-8.56-3.43-37.68-5.71-42.25-6.85-4.57-1.14-28.55-6.85-49.1-10.85-20.56-4-73.66,10.85-73.66,10.85,0,0-28.09,7.65-42.82,12.56-13.7,4.57-26.26,9.71-32.55,13.7-15.99,10.85-31.4,37.11-41.68,53.67-10.24,16.5-9.93,31.23-9.93,31.33,0,.1-.32,14.82,9.93,31.33,10.28,16.56,25.69,42.82,41.68,53.67,6.28,4,18.84,9.14,32.55,13.7,14.74,4.91,42.82,12.56,42.82,12.56,0,0,53.1,14.85,73.66,10.85,20.56-4,44.54-9.71,49.1-10.85,4.57-1.14,33.69-3.43,42.25-6.85s34.26-17.7,56.53-39.97c22.26-22.26,44.15-44.96,44.63-64.44h0s0,0,0,0Z"/>
      <path class="cls-6" d="M524.46,511.82c-9.14-3.43-18.84-9.71-31.11-21.25-16.28-15.87-29.99-23.29-29.99-23.29-7.99-4.57-34.83-18.84-51.96-20.56-47.96-4-91.36,9.14-118.19,17.7-26.84,8.56-32.55,15.99-51.39,32.55-23.41,21.13-24.77,38.18-24.77,38.18,0,0,1.36,17.05,24.77,38.18,18.84,16.56,24.55,23.98,51.39,32.55,26.84,8.56,70.23,21.7,118.19,17.7,17.13-1.71,43.97-15.99,51.96-20.56,0,0,13.7-7.42,29.99-23.29,12.26-11.54,21.97-17.82,31.11-21.25,9.14-3.43,37.11-11.91,37.11-23.33,0-12.56-27.98-19.91-37.11-23.33Z"/>
      <path class="cls-6" d="M491.35,514.96c-5.95-3.97-38.26-22.27-38.26-22.27,0,0-23.98-13.7-38.83-17.7-17.13-5.14-39.98-10.22-56.53-9.71-18.27.57-34.83,2.85-34.83,2.85-14.27,1.71-34.26,15.42-44.54,22.84-10.28,7.42-18.56,13.06-31.69,20.48s-17.13,9.71-23.41,14.85c-6.28,5.14-6.21,11.99-6.21,11.99,0,0-.07,6.85,6.21,11.99,6.28,5.14,8.56,7.42,21.7,14.85,13.13,7.42,23.12,13.06,33.4,20.48,10.28,7.42,30.26,21.13,44.54,22.84,0,0,16.56,2.28,34.83,2.85,16.55.52,39.57-4.03,56.53-9.71,15.13-5.06,39.11-18.2,39.11-18.2,0,0,30.26-17.13,37.97-21.77,5.29-3.19,21.37-12.26,21.37-23.33s-16.23-19.91-21.37-23.33Z"/>
      <path class="cls-6" d="M413.69,496.97s-21.04-8.85-38.83-13.7c-18.84-5.14-38.26-3.43-49.67-2.85s-26.84,14.27-26.84,14.27c0,0-21.13,18.84-29.69,25.12-8.56,6.28-18.27,4.57-37.68,9.71-13.7,4-13.65,10.78-13.65,10.78,0,0-.05,6.78,13.65,10.78,19.41,5.14,29.12,3.43,37.68,9.71s29.41,26.05,29.41,26.05c0,0,14.85,13.13,26.26,13.7,11.42.57,31.69,1.93,50.53-3.21,17.78-4.85,38.83-13.7,38.83-13.7l93.64-43.32-93.64-43.32Z"/>
      <path class="cls-11" d="M437.88,499.06c-49.47-7.84-68.15-5.29-76.15-1.3-47.68,23.7-45.96,41.97-45.96,41.97,0,0-1.14,19.98,45.96,43.11,7.99,4,26.68,6.54,76.15-1.3,20.19-3.34,65.45-22.11,69.74-41.81,0-19.98-49.96-37.4-69.74-40.67Z"/>
      <text class="cls-13" transform="translate(106.51 229.58)"><tspan x="0" y="0">Zaurac 4-30 Hybrid</tspan></text>
      <rect class="cls-20" x="820.3" y="435.89" width="33.25" height="14.03"/>
      <rect class="cls-9" x="820.3" y="400.33" width="33.25" height="14.03"/>
      <rect class="cls-1" x="820.3" y="364.78" width="33.25" height="14.03"/>
      <rect class="cls-15" x="820.3" y="329.22" width="33.25" height="14.03"/>
      <rect class="cls-10" x="820.3" y="293.67" width="33.25" height="14.03"/>
      <rect class="cls-3" x="820.3" y="258.11" width="33.25" height="14.03"/>
      <rect class="cls-14" x="820.3" y="222.56" width="33.25" height="14.03"/>
      <text class="cls-8" transform="translate(866.51 236.25)"><tspan x="0" y="0">5 lux</tspan><tspan x="0" y="35.28">10 lux</tspan><tspan x="0" y="70.56">20 lux</tspan><tspan x="0" y="105.83">40 lux</tspan><tspan x="0" y="141.11">60 lux</tspan><tspan x="0" y="176.39">80 lux</tspan><tspan x="0" y="211.67">100 lux</tspan></text>
      <text class="cls-37" transform="translate(141.77 545.99)"><tspan class="cls-23" x="0" y="0">	</tspan><tspan class="cls-18" x="49.55" y="0">1</tspan><tspan class="cls-5" x="75.06" y="0">	</tspan><tspan class="cls-33" x="101.36" y="0">2</tspan><tspan class="cls-29" x="126.87" y="0">	</tspan><tspan class="cls-32" x="148.03" y="0">3</tspan><tspan class="cls-24" x="173.54" y="0">	</tspan><tspan class="cls-33" x="196.26" y="0">4</tspan><tspan class="cls-36" x="221.77" y="0">	</tspan><tspan class="cls-33" x="244.59" y="0">5</tspan><tspan class="cls-30" x="270.11" y="0">	</tspan><tspan class="cls-32" x="295.23" y="0">6</tspan><tspan class="cls-22" x="320.74" y="0">	</tspan><tspan class="cls-33" x="343.29" y="0">7</tspan><tspan class="cls-34" x="368.8" y="0">	</tspan><tspan class="cls-32" x="391.84" y="0">8</tspan><tspan class="cls-31" x="417.35" y="0">	</tspan><tspan class="cls-32" x="436.93" y="0">9</tspan><tspan class="cls-35" x="462.44" y="0">	</tspan><tspan class="cls-25" x="485.26" y="0">10</tspan><tspan class="cls-26" x="506.81" y="0">	</tspan><tspan class="cls-27" x="534.88" y="0">11</tspan><tspan class="cls-28" x="556.44" y="0">	</tspan><tspan class="cls-4" x="584.3" y="0">1</tspan><tspan class="cls-18" x="595.08" y="0">2</tspan><tspan class="cls-12" x="620.59" y="0">	</tspan><tspan class="cls-7" x="632.33" y="0">1</tspan><tspan class="cls-19" x="643.11" y="0">3</tspan><tspan class="cls-2" x="668.62" y="0">	</tspan><tspan class="cls-4" x="677.35" y="0">1</tspan><tspan class="cls-18" x="688.12" y="0">4</tspan><tspan class="cls-17" x="713.63" y="0">	</tspan><tspan class="cls-4" x="718.4" y="0">15</tspan></text>
      <text class="cls-16" transform="translate(142.2 301.99)"><tspan x="0" y="0">5 m</tspan><tspan x="0" y="48.8">4</tspan><tspan x="0" y="97.61">3</tspan><tspan x="0" y="146.42">2</tspan><tspan x="0" y="195.22">1</tspan><tspan x="0" y="244.03">0 m</tspan><tspan x="0" y="292.83">1</tspan><tspan x="0" y="341.64">2</tspan><tspan x="0" y="390.44">3</tspan><tspan x="0" y="439.25">4</tspan><tspan x="0" y="488.05">5 m</tspan></text>
    </g>
  </g>
</svg>