<?xml version="1.0" encoding="UTF-8"?><svg xmlns="http://www.w3.org/2000/svg" xmlns:xlink="http://www.w3.org/1999/xlink" viewBox="0 0 1080 1080"><defs><style>.ak,.al,.am,.an,.ao{fill:none;}.ap{stroke:#fff;stroke-linejoin:round;stroke-width:3.15px;}.ap,.aq,.ar,.as,.at{fill:#fff;}.aq{font-family:Helvetica-Bold, Helvetica;font-size:37px;}.au{font-family:Helvetica, Helvetica;font-size:35px;}.au,.av{fill:#999;}.al{stroke:#495866;}.al,.am{stroke-width:2.05px;}.al,.am,.an,.ao{stroke-miterlimit:8.22;}.am,.an,.ao{stroke:#999;}.aw{fill:#495866;}.as{letter-spacing:.06em;}.as,.at{font-family:HelveticaNeue, Helvetica Neue;font-size:40px;}.an{stroke-width:.75px;}.ao{stroke-linecap:square;stroke-width:4.11px;}.ax{letter-spacing:.06em;}.ay{clip-path:url(#v);}.b`{clip-path:url(#u);}.ba{clip-path:url(#t);}.bb{clip-path:url(#y);}.bc{clip-path:url(#x);}.bd{clip-path:url(#w);}.be{clip-path:url(#f);}.bf{clip-path:url(#n);}.bg{clip-path:url(#m);}.bh{clip-path:url(#l);}.bi{clip-path:url(#k);}.bj{clip-path:url(#j);}.bk{clip-path:url(#i);}.bl{clip-path:url(#h);}.bm{clip-path:url(#g);}.bn{clip-path:url(#s);}.bo{clip-path:url(#r);}.bp{clip-path:url(#q);}.bq{clip-path:url(#p);}.br{clip-path:url(#o);}.bs{clip-path:url(#ah);}.bt{clip-path:url(#ag);}.bu{clip-path:url(#ab);}.bv{clip-path:url(#aa);}.bw{clip-path:url(#ac);}.bx{clip-path:url(#af);}.by{clip-path:url(#ae);}.c`{clip-path:url(#aj);}.ca{clip-path:url(#ai);}.cb{clip-path:url(#ad);}.cc{clip-path:url(#a`);}.cd,.ce{isolation:isolate;}.cf{letter-spacing:-.07em;}.ce{opacity:.25;}</style><clipPath id="f"><rect class="ak" x="139.29" y="35.12" width="841.32" height="946.49"/></clipPath><clipPath id="g"><rect class="ak" x="213.03" y="948.15" width="61.73" height="49.61"/></clipPath><clipPath id="h"><rect class="ak" x="152.64" y="831.69" width="61.73" height="49.61"/></clipPath><clipPath id="i"><rect class="ak" x="63.71" y="398.5" width="61.73" height="49.61"/></clipPath><clipPath id="j"><rect class="ak" x="182.74" y="49.32" width="61.73" height="49.61"/></clipPath><clipPath id="k"><rect class="ak" x="395.02" y="137.64" width="61.73" height="49.61"/></clipPath><clipPath id="l"><rect class="ak" x="547.84" y="276.08" width="61.73" height="49.61"/></clipPath><clipPath id="m"><rect class="ak" x="694.7" y="421.3" width="61.73" height="49.61"/></clipPath><clipPath id="n"><rect class="ak" x="815.06" y="541.25" width="61.73" height="49.61"/></clipPath><clipPath id="o"><rect class="ak" x="882.85" y="608.62" width="61.73" height="49.61"/></clipPath><clipPath id="p"><rect class="ak" x="550.27" y="1034.34" width="17.5" height="46.89"/></clipPath><clipPath id="q"><rect class="ak" x="113.87" y="993.26" width="48.66" height="46.89"/></clipPath><clipPath id="r"><rect class="ak" x="219.04" y="993.26" width="48.65" height="46.89"/></clipPath><clipPath id="s"><rect class="ak" x="324.21" y="993.26" width="48.65" height="46.89"/></clipPath><clipPath id="t"><rect class="ak" x="429.37" y="993.26" width="48.65" height="46.89"/></clipPath><clipPath id="u"><rect class="ak" x="534.54" y="993.26" width="48.66" height="46.89"/></clipPath><clipPath id="v"><rect class="ak" x="639.7" y="993.26" width="48.66" height="46.89"/></clipPath><clipPath id="w"><rect class="ak" x="744.87" y="993.26" width="48.65" height="46.89"/></clipPath><clipPath id="x"><rect class="ak" x="850.03" y="993.26" width="48.65" height="46.89"/></clipPath><clipPath id="y"><rect class="ak" x="955.2" y="993.26" width="48.66" height="46.89"/></clipPath><clipPath id="a`"><rect class="ak" x="38.78" y="491.25" width="17.5" height="46.89"/></clipPath><clipPath id="aa"><rect class="ak" x="73.05" y="964.5" width="48.65" height="46.89"/></clipPath><clipPath id="ab"><rect class="ak" x="73.05" y="859.33" width="48.65" height="46.89"/></clipPath><clipPath id="ac"><rect class="ak" x="73.05" y="754.17" width="48.65" height="46.89"/></clipPath><clipPath id="ad"><rect class="ak" x="73.05" y="649" width="48.65" height="46.89"/></clipPath><clipPath id="ae"><rect class="ak" x="73.05" y="543.84" width="48.65" height="46.89"/></clipPath><clipPath id="af"><rect class="ak" x="73.05" y="438.67" width="48.65" height="46.89"/></clipPath><clipPath id="ag"><rect class="ak" x="73.05" y="333.51" width="48.65" height="46.89"/></clipPath><clipPath id="ah"><rect class="ak" x="73.05" y="228.34" width="48.65" height="46.89"/></clipPath><clipPath id="ai"><rect class="ak" x="73.05" y="123.18" width="48.65" height="46.89"/></clipPath><clipPath id="aj"><rect class="ak" x="73.05" y="18.01" width="48.65" height="46.88"/></clipPath></defs><g id="a"><rect class="aw" width="1080" height="1080"/></g><g id="b"/><g id="c"/><g id="d"/><g id="e"><g class="ce"><g class="be"><path class="ar" d="M190.64,981.61V35.12m53.4,946.49V35.12m51.35,946.49V87.71m53.4,893.91V140.29m53.4,841.32V192.87m51.35,788.74V245.45m53.4,736.16V298.04m51.35,683.58V350.62m53.4,630.99V403.2m53.4,578.41V455.78m51.35,525.83V508.37m53.4,473.24v-420.66m51.35,420.66v-368.08m53.4,368.08v-315.5m53.4,315.5v-262.91m51.35,262.91v-210.33M139.29,930.26H980.62m-841.32-53.4H980.62m-841.32-51.35H980.62m-841.32-53.4H980.62m-841.32-53.4H928.03m-788.74-51.35H875.45m-736.16-53.4H822.87m-683.58-51.35H770.29m-630.99-53.4H717.7m-578.41-53.4H665.12m-525.83-51.35h473.24m-473.24-53.4h420.66m-420.66-51.35H507.37m-368.08-53.4H454.79m-315.5-53.4H402.21m-262.91-51.35h210.33m-210.33-53.41h157.75M139.29,36.77h105.17m-.41,0L979.38,772.1"/><path class="an" d="M190.64,981.61V35.12m53.4,946.49V35.12m51.35,946.49V87.71m53.4,893.91V140.29m53.4,841.32V192.87m51.35,788.74V245.45m53.4,736.16V298.04m51.35,683.58V350.62m53.4,630.99V403.2m53.4,578.41V455.78m51.35,525.83V508.37m53.4,473.24v-420.66m51.35,420.66v-368.08m53.4,368.08v-315.5m53.4,315.5v-262.91m51.35,262.91v-210.33M139.29,930.26H980.62m-841.32-53.4H980.62m-841.32-51.35H980.62m-841.32-53.4H980.62m-841.32-53.4H928.03m-788.74-51.35H875.45m-736.16-53.4H822.87m-683.58-51.35H770.29m-630.99-53.4H717.7m-578.41-53.4H665.12m-525.83-51.35h473.24m-473.24-53.4h420.66m-420.66-51.35H507.37m-368.08-53.4H454.79m-315.5-53.4H402.21m-262.91-51.35h210.33m-210.33-53.41h157.75M139.29,36.77h105.17m-.41,0L979.38,772.1"/></g></g><path class="am" d="M323.13,976.48c-6.16,0-10.27-4.11-16.43-8.22-14.38-14.38-26.7-28.76-36.97-47.24-6.16-10.27-12.32-20.54-16.43-30.81-6.16-14.38-12.33-30.81-18.49-47.24-8.22-24.65-16.43-47.24-24.65-71.89-18.49-69.84-36.97-154.05-47.24-223.89-12.32-78.05-22.59-174.59-20.54-252.64,2.05-47.24,6.16-123.24,36.97-166.38,8.22-12.32,22.59-20.54,36.97-22.59,14.38-2.05,28.76,4.11,41.08,8.22,45.19,14.38,86.27,47.24,123.24,76,119.13,92.43,223.89,207.46,330.7,314.26,43.14,43.13,84.22,84.21,127.35,127.35,16.43,16.43,32.86,32.86,51.35,49.3,4.11,6.16,8.22,10.27,14.38,16.43,2.05,0,2.05,2.05,4.11,4.11l2.05,2.05"/><path class="av" d="M319.84,977.09l-.82,12.32m.2-12.32l-2.67,12.12m2.05-12.32l-9.24,18.28m8.01-19.1l-6.98,10.07m5.55-11.09l-7.8,9.65m5.75-11.5l-8.22,9.24m5.55-11.71l-13.76,15.2m10.27-18.28l-8.22,9.24m3.49-13.35l-8.22,9.24m2.26-14.38l-8.42,9.04m1.03-16.43l-15.2,13.97m6.37-24.65l-9.86,7.19m-2.26-26.09l-10.68,6.16m-4.52-36.77l-11.3,5.13m-8.01-53.2l-19.31,6.98m-4.31-78.67l-11.91,3.49m-12.74-102.5l-12.12,2.67m-10.89-126.53l-12.12,1.85m-3.9-134.13l-20.54,1.64m16.02-124.06l-12.32-.41m22.8-99.83l-11.91-3.08m38.21-62.03l-9.45-8.01m46.63-14.79l-3.7-20.13m45.8,28.14l3.9-11.71m38.62,33.07l6.16-10.68m34.1,36.15l6.98-10.06m31.63,38.82l12.73-16.23m25.27,47.65l8.01-9.24m29.58,42.93l8.22-9.04m29.37,44.37l8.42-9.04m29.17,45.19l14.38-14.79m23.21,51.35l8.63-8.83m28.55,45.6l8.63-8.83m27.73,45.19l8.63-8.83m26.91,44.16l14.58-14.58m19.31,48.27l8.63-8.83m23.42,40.67l8.63-8.83m20.54,38l8.63-8.63m16.64,33.89l14.58-14.58m7.81,36.77l8.63-8.83m9.86,27.11l8.63-8.83m6.37,23.83l8.63-8.63m3.49,20.54l14.58-14.58m-5.14,24.24l8.63-8.83m-.82,16.43l8.63-8.83m-2.26,15.2l8.63-8.63m-3.49,13.97l14.58-14.58m-10.27,18.69l8.63-8.83m-5.55,11.91l8.63-8.63m-6.16,11.09l8.63-8.63m-6.98,10.27l14.58-14.58m-13.35,15.82l8.63-8.63m-7.6,9.65l8.63-8.63m-7.81,9.45l8.63-8.63m-8.01,9.24l14.58-14.58m-13.97,15.2l8.63-8.63m-8.22,9.04l8.63-8.63m-8.42,8.83l8.63-8.63"/><path class="al" d="M319.84,977.09l-.82,12.32m.2-12.32l-2.67,12.12m2.05-12.32l-9.24,18.28m8.01-19.1l-6.98,10.07m5.55-11.09l-7.8,9.65m5.75-11.5l-8.22,9.24m5.55-11.71l-13.76,15.2m10.27-18.28l-8.22,9.24m3.49-13.35l-8.22,9.24m2.26-14.38l-8.42,9.04m1.03-16.43l-15.2,13.97m6.37-24.65l-9.86,7.19m-2.26-26.09l-10.68,6.16m-4.52-36.77l-11.3,5.13m-8.01-53.2l-19.31,6.98m-4.31-78.67l-11.91,3.49m-12.74-102.5l-12.12,2.67m-10.89-126.53l-12.12,1.85m-3.9-134.13l-20.54,1.64m16.02-124.06l-12.32-.41m22.8-99.83l-11.91-3.08m38.21-62.03l-9.45-8.01m46.63-14.79l-3.7-20.13m45.8,28.14l3.9-11.71m38.62,33.07l6.16-10.68m34.1,36.15l6.98-10.06m31.63,38.82l12.73-16.23m25.27,47.65l8.01-9.24m29.58,42.93l8.22-9.04m29.37,44.37l8.42-9.04m29.17,45.19l14.38-14.79m23.21,51.35l8.63-8.83m28.55,45.6l8.63-8.83m27.73,45.19l8.63-8.83m26.91,44.16l14.58-14.58m19.31,48.27l8.63-8.83m23.42,40.67l8.63-8.83m20.54,38l8.63-8.63m16.64,33.89l14.58-14.58m7.81,36.77l8.63-8.83m9.86,27.11l8.63-8.83m6.37,23.83l8.63-8.63m3.49,20.54l14.58-14.58m-5.14,24.24l8.63-8.83m-.82,16.43l8.63-8.83m-2.26,15.2l8.63-8.63m-3.49,13.97l14.58-14.58m-10.27,18.69l8.63-8.83m-5.55,11.91l8.63-8.63m-6.16,11.09l8.63-8.63m-6.98,10.27l14.58-14.58m-13.35,15.82l8.63-8.63m-7.6,9.65l8.63-8.63m-7.81,9.45l8.63-8.63m-8.01,9.24l14.58-14.58m-13.97,15.2l8.63-8.63m-8.22,9.04l8.63-8.63m-8.42,8.83l8.63-8.63"/><path class="ao" d="M138.27,35.74V982.64H980.41m-842.15,0v8.22m53.4-8.22v8.22m51.35-8.22v8.22m53.4-8.22v8.22m51.35-8.22v8.22m53.41-8.22v8.22m53.4-8.22v8.22m51.35-8.22v8.22m53.41-8.22v8.22m51.35-8.22v8.22m53.4-8.22v8.22m53.4-8.22v8.22m51.35-8.22v8.22m53.4-8.22v8.22m51.35-8.22v8.22m53.4-8.22v8.22m53.4-8.22v8.22m-842.15-8.22h-8.22m8.22-53.4h-8.22m8.22-51.35h-8.22m8.22-53.4h-8.22m8.22-53.4h-8.22m8.22-51.35h-8.22m8.22-53.4h-8.22m8.22-51.35h-8.22m8.22-53.4h-8.22m8.22-53.4h-8.22m8.22-51.35h-8.22m8.22-53.41h-8.22m8.22-51.35h-8.22m8.22-53.4h-8.22m8.22-53.4h-8.22m8.22-51.35h-8.22m8.22-53.4h-8.22m8.22-51.35h-8.22m8.22-53.4h-8.22"/><g class="cd"><g class="bm"><text class="aq" transform="translate(213.03 979.97)"><tspan x="0" y="0">460</tspan></text></g></g><g class="cd"><g class="bl"><text class="aq" transform="translate(152.64 863.51)"><tspan x="0" y="0">480</tspan></text></g></g><g class="cd"><g class="bk"><text class="aq" transform="translate(63.71 430.31)"><tspan x="0" y="0">500</tspan></text></g></g><g class="cd"><g class="bj"><text class="aq" transform="translate(182.74 81.13)"><tspan x="0" y="0">520</tspan></text></g></g><g class="cd"><g class="bi"><text class="aq" transform="translate(395.02 169.46)"><tspan x="0" y="0">540</tspan></text></g></g><g class="cd"><g class="bh"><text class="aq" transform="translate(547.84 307.9)"><tspan x="0" y="0">560</tspan></text></g></g><g class="cd"><g class="bg"><text class="aq" transform="translate(694.7 453.11)"><tspan x="0" y="0">580</tspan></text></g></g><g class="cd"><g class="bf"><text class="aq" transform="translate(815.06 573.07)"><tspan x="0" y="0">600</tspan></text></g></g><g class="cd"><g class="br"><text class="aq" transform="translate(882.85 640.44)"><tspan x="0" y="0">620</tspan></text></g></g><g class="cd"><g class="bq"><text class="au" transform="translate(550.27 1064.39)"><tspan x="0" y="0">x</tspan></text></g></g><g class="cd"><g class="bp"><text class="au" transform="translate(113.88 1023.31)"><tspan x="0" y="0">0.0</tspan></text></g></g><g class="cd"><g class="bo"><text class="au" transform="translate(219.04 1023.31)"><tspan x="0" y="0">0.1</tspan></text></g></g><g class="cd"><g class="bn"><text class="au" transform="translate(324.21 1023.31)"><tspan x="0" y="0">0.2</tspan></text></g></g><g class="cd"><g class="ba"><text class="au" transform="translate(429.37 1023.31)"><tspan x="0" y="0">0.3</tspan></text></g></g><g class="cd"><g class="b`"><text class="au" transform="translate(534.54 1023.31)"><tspan x="0" y="0">0.4</tspan></text></g></g><g class="cd"><g class="ay"><text class="au" transform="translate(639.7 1023.31)"><tspan x="0" y="0">0.5</tspan></text></g></g><g class="cd"><g class="bd"><text class="au" transform="translate(744.87 1023.31)"><tspan x="0" y="0">0.6</tspan></text></g></g><g class="cd"><g class="bc"><text class="au" transform="translate(850.03 1023.31)"><tspan x="0" y="0">0.7</tspan></text></g></g><g class="cd"><g class="bb"><text class="au" transform="translate(955.2 1023.31)"><tspan x="0" y="0">0.8</tspan></text></g></g><g class="cd"><g class="cc"><text class="au" transform="translate(38.78 521.31)"><tspan x="0" y="0">y</tspan></text></g></g><g class="cd"><g class="bv"><text class="au" transform="translate(73.05 994.55)"><tspan x="0" y="0">0.0</tspan></text></g></g><g class="cd"><g class="bu"><text class="au" transform="translate(73.05 889.39)"><tspan x="0" y="0">0.1</tspan></text></g></g><g class="cd"><g class="bw"><text class="au" transform="translate(73.05 784.22)"><tspan x="0" y="0">0.2</tspan></text></g></g><g class="cd"><g class="cb"><text class="au" transform="translate(73.05 679.06)"><tspan x="0" y="0">0.3</tspan></text></g></g><g class="cd"><g class="by"><text class="au" transform="translate(73.05 573.89)"><tspan x="0" y="0">0.4</tspan></text></g></g><g class="cd"><g class="bx"><text class="au" transform="translate(73.05 468.72)"><tspan x="0" y="0">0.5</tspan></text></g></g><g class="cd"><g class="bt"><text class="au" transform="translate(73.05 363.56)"><tspan x="0" y="0">0.6</tspan></text></g></g><g class="cd"><g class="bs"><text class="au" transform="translate(73.05 258.39)"><tspan x="0" y="0">0.7</tspan></text></g></g><g class="cd"><g class="ca"><text class="au" transform="translate(73.05 153.23)"><tspan x="0" y="0">0.8</tspan></text></g></g><g class="cd"><g class="c`"><text class="au" transform="translate(73.05 48.06)"><tspan x="0" y="0">0.9</tspan></text></g></g><path class="ap" d="M465.31,638.77c5.81,0,10.52,4.71,10.52,10.52s-4.71,10.52-10.52,10.52-10.52-4.71-10.52-10.52,4.71-10.52,10.52-10.52Z"/><rect class="ak" x="38.78" y="18.01" width="965.07" height="1063.21"/><rect class="ak" x="38.78" y="18.01" width="965.07" height="1063.21"/><rect class="ak" x="90.72" y="74.52" width="887.33" height="920.2"/><text class="as" transform="translate(270.48 590.83)"><tspan x="0" y="0">Zaurac 4-30 Hybrid</tspan></text><text class="at" transform="translate(267.82 655.03)"><tspan class="ax"><tspan x="0" y="0">4500K </tspan></tspan><tspan class="ax" x="0" y="51.6">644</tspan><tspan class="cf" x="73.92" y="51.6"> </tspan><tspan class="ax" x="82.4" y="51.6">nm</tspan></text></g></svg>