<?xml version="1.0" encoding="UTF-8"?>
<svg xmlns="http://www.w3.org/2000/svg" viewBox="0 0 1080.75 1080.75">
  <defs>
    <style>
      .cls-1 {
        letter-spacing: .89em;
      }

      .cls-1, .cls-2, .cls-3, .cls-4, .cls-5, .cls-6, .cls-7, .cls-8, .cls-9, .cls-10, .cls-11, .cls-12, .cls-13, .cls-14 {
        fill: #495866;
      }

      .cls-15 {
        letter-spacing: .17em;
      }

      .cls-15, .cls-16, .cls-17, .cls-18, .cls-19, .cls-20, .cls-21, .cls-22, .cls-23, .cls-24, .cls-25, .cls-26, .cls-27, .cls-28, .cls-29, .cls-30, .cls-31, .cls-32, .cls-33, .cls-34, .cls-35, .cls-36, .cls-37, .cls-38 {
        fill: #fff;
      }

      .cls-2 {
        letter-spacing: 2.28em;
      }

      .cls-16 {
        opacity: .35;
      }

      .cls-16, .cls-39, .cls-17, .cls-20, .cls-21, .cls-23, .cls-25, .cls-26, .cls-27, .cls-28, .cls-29, .cls-35, .cls-11, .cls-38 {
        stroke-width: 0px;
      }

      .cls-3 {
        letter-spacing: .89em;
      }

      .cls-39, .cls-40 {
        fill: none;
      }

      .cls-17 {
        opacity: .7;
      }

      .cls-19 {
        letter-spacing: 1.08em;
      }

      .cls-5 {
        letter-spacing: 1.17em;
      }

      .cls-20 {
        opacity: .33;
      }

      .cls-20, .cls-23, .cls-27, .cls-28, .cls-35 {
        mix-blend-mode: overlay;
      }

      .cls-21 {
        opacity: .85;
      }

      .cls-22 {
        letter-spacing: 0em;
      }

      .cls-23 {
        opacity: .38;
      }

      .cls-24 {
        font-size: 21.67px;
        letter-spacing: .06em;
      }

      .cls-24, .cls-32, .cls-33, .cls-41 {
        font-family: HelveticaNeue, 'Helvetica Neue';
      }

      .cls-40 {
        stroke: #999;
        stroke-miterlimit: 10;
        stroke-width: .75px;
      }

      .cls-25 {
        opacity: .15;
      }

      .cls-26 {
        opacity: .25;
      }

      .cls-28 {
        opacity: .65;
      }

      .cls-29 {
        opacity: .5;
      }

      .cls-30 {
        letter-spacing: .33em;
      }

      .cls-31 {
        letter-spacing: 1.16em;
      }

      .cls-32 {
        font-size: 40px;
        letter-spacing: .06em;
      }

      .cls-6 {
        letter-spacing: .81em;
      }

      .cls-7 {
        letter-spacing: 1.02em;
      }

      .cls-33 {
        font-size: 25.09px;
        letter-spacing: .06em;
      }

      .cls-8 {
        letter-spacing: .73em;
      }

      .cls-42 {
        isolation: isolate;
      }

      .cls-34 {
        letter-spacing: -.03em;
      }

      .cls-41 {
        font-size: 19.39px;
      }

      .cls-35 {
        opacity: .55;
      }

      .cls-9, .cls-36 {
        letter-spacing: .76em;
      }

      .cls-10, .cls-37 {
        letter-spacing: .76em;
      }

      .cls-12 {
        letter-spacing: .91em;
      }

      .cls-13 {
        letter-spacing: .9em;
      }

      .cls-14 {
        letter-spacing: .9em;
      }
    </style>
  </defs>
  <g class="cls-42">
    <g id="Base">
      <rect class="cls-11" x=".38" y=".38" width="1080" height="1080"/>
      <g>
        <rect class="cls-40" x=".38" y=".38" width="1080" height="1080"/>
        <line class="cls-40" x1=".38" y1="1031.28" x2="1080.38" y2="1031.28"/>
        <line class="cls-40" x1=".38" y1="982.19" x2="1080.38" y2="982.19"/>
        <line class="cls-40" x1=".38" y1="933.1" x2="1080.38" y2="933.1"/>
        <line class="cls-40" x1=".38" y1="884.01" x2="1080.38" y2="884.01"/>
        <line class="cls-40" x1=".38" y1="834.92" x2="1080.38" y2="834.92"/>
        <line class="cls-40" x1=".38" y1="785.83" x2="1080.38" y2="785.83"/>
        <line class="cls-40" x1=".38" y1="736.74" x2="1080.38" y2="736.74"/>
        <line class="cls-40" x1=".38" y1="687.65" x2="1080.38" y2="687.65"/>
        <line class="cls-40" x1=".38" y1="638.56" x2="1080.38" y2="638.56"/>
        <line class="cls-40" x1=".38" y1="589.47" x2="1080.38" y2="589.47"/>
        <line class="cls-40" x1=".38" y1="540.38" x2="1080.38" y2="540.38"/>
        <line class="cls-40" x1=".38" y1="491.28" x2="1080.38" y2="491.28"/>
        <line class="cls-40" x1=".38" y1="442.19" x2="1080.38" y2="442.19"/>
        <line class="cls-40" x1=".38" y1="393.1" x2="1080.38" y2="393.1"/>
        <line class="cls-40" x1=".38" y1="344.01" x2="1080.38" y2="344.01"/>
        <line class="cls-40" x1=".38" y1="294.92" x2="1080.38" y2="294.92"/>
        <line class="cls-40" x1=".38" y1="245.83" x2="1080.38" y2="245.83"/>
        <line class="cls-40" x1=".38" y1="196.74" x2="1080.38" y2="196.74"/>
        <line class="cls-40" x1=".38" y1="147.65" x2="1080.38" y2="147.65"/>
        <line class="cls-40" x1=".38" y1="98.56" x2="1080.38" y2="98.56"/>
        <line class="cls-40" x1=".38" y1="49.47" x2="1080.38" y2="49.47"/>
        <line class="cls-40" x1="1031.28" y1=".38" x2="1031.28" y2="1080.38"/>
        <line class="cls-40" x1="982.19" y1=".38" x2="982.19" y2="1080.38"/>
        <line class="cls-40" x1="933.1" y1=".38" x2="933.1" y2="1080.38"/>
        <line class="cls-40" x1="884.01" y1=".38" x2="884.01" y2="1080.38"/>
        <line class="cls-40" x1="834.92" y1=".38" x2="834.92" y2="1080.38"/>
        <line class="cls-40" x1="785.83" y1=".38" x2="785.83" y2="1080.38"/>
        <line class="cls-40" x1="736.74" y1=".38" x2="736.74" y2="1080.38"/>
        <line class="cls-40" x1="687.65" y1=".38" x2="687.65" y2="1080.38"/>
        <line class="cls-40" x1="638.56" y1=".38" x2="638.56" y2="1080.38"/>
        <line class="cls-40" x1="589.47" y1=".38" x2="589.47" y2="1080.38"/>
        <line class="cls-40" x1="540.38" y1=".38" x2="540.38" y2="1080.38"/>
        <line class="cls-40" x1="491.28" y1=".38" x2="491.28" y2="1080.38"/>
        <line class="cls-40" x1="442.19" y1=".38" x2="442.19" y2="1080.38"/>
        <line class="cls-40" x1="393.1" y1=".38" x2="393.1" y2="1080.38"/>
        <line class="cls-40" x1="344.01" y1=".38" x2="344.01" y2="1080.38"/>
        <line class="cls-40" x1="294.92" y1=".38" x2="294.92" y2="1080.38"/>
        <line class="cls-40" x1="245.83" y1=".38" x2="245.83" y2="1080.38"/>
        <line class="cls-40" x1="196.74" y1=".38" x2="196.74" y2="1080.38"/>
        <line class="cls-40" x1="147.65" y1=".38" x2="147.65" y2="1080.38"/>
        <line class="cls-40" x1="98.56" y1=".38" x2="98.56" y2="1080.38"/>
        <line class="cls-40" x1="49.47" y1=".38" x2="49.47" y2="1080.38"/>
      </g>
    </g>
    <g id="Layer_2" data-name="Layer 2">
      <path class="cls-20" d="M871.3,544.87c0-7.49-11.27-16.46-32.94-28.43-27.37-15.39-63.86-68.99-99.78-111.75-49.03-50.17-54.73-48.46-109.47-67.85-54.73-19.39-104.34-11.97-123.72-8.55-19.39,3.42-26.8,4.56-50.17,5.7-23.38,1.14-34.21,7.41-34.21,7.41,0,0-66.14,28.51-80.96,36.49-14.82,7.98-19.39,13.68-19.39,13.68,0,0-10.26,9.69-29.08,25.09-18.82,15.39-21.1,30.79-36.83,68.04-15.74,37.25-36.38,40.57-41.05,41.72-30.64,6.89-29.7,17.78-29.6,18.49-.1.71-1.82,11.55,28.51,19.71,10.89,2.93,21.89,7.42,40.48,43.33,16.53,31.93,19.67,49.81,38.49,65.21,18.82,15.39,29.08,25.09,29.08,25.09,0,0,4.56,5.7,19.39,13.68,14.82,7.98,80.96,36.49,80.96,36.49,0,0,12.26,3.21,35.63,4.35,23.38,1.14,29.36,5.34,48.75,8.76,19.39,3.42,68.99,10.83,123.72-8.55,54.73-19.39,60.44-17.67,109.47-67.85,35.92-42.76,72.41-96.36,99.78-111.75,21.67-11.97,32.94-20.94,32.94-28.43"/>
      <path class="cls-20" d="M723.76,544.66c-.57-18.24-19.96-57.02-56.45-98.64-36.49-41.62-70.13-54.16-107.76-67.85-37.63-13.68-49.6-10.83-88.94-7.98-78.68,3.99-137.41,44.47-167.63,68.99-50.7,39.04-70.82,92.33-70.7,105.76v-.57c-.57,15.39,20,66.73,70.7,105.76,30.22,24.52,88.94,65,167.63,68.99,39.34,2.85,51.31,5.7,88.94-7.98,37.63-13.68,71.27-26.23,107.76-67.85,36.49-41.62,55.88-80.39,56.45-98.64h0Z"/>
      <path class="cls-20" d="M232,544.66s-1.14,10.26,25.09,18.53c24.25,7.64,27.7,10.66,43.9,41.62,15.96,30.5,17.67,35.92,25.66,45.04,7.98,9.12,39.91,14.82,39.91,14.82,0,0,80.39,13.68,104.91,12.54,24.52-1.14,58.73-5.7,88.94-26.23,10.83-7.98,38.2-32.5,54.73-69.56,10.83-26.8,10.83-36.77,10.83-36.77,0,0-1.38-10.12-11.12-34.21-16.53-37.06-44.19-62.72-55.02-70.7-30.22-20.53-63.86-25.09-88.37-26.23-24.52-1.14-105.19,13.68-105.19,13.68,0,0-31.93,5.7-39.91,14.82-7.98,9.12-9.98,13.11-26.51,43.9-16.53,30.79-19.11,33.89-43.33,41.62-26.8,8.55-24.52,17.1-24.52,17.1"/>
      <path class="cls-23" d="M281.04,545.48s.57,10.59,10.26,23.13c2.39,3.09,31.93,37.31,46.18,44.72,14.25,7.41,49.03,28.83,91.22,28.83,39.14.04,59.3-20.53,59.3-20.53,0,0,33.07-39.91,55.3-49.6,26.97-11.76,33.29-24.77,33.7-27.12h.02s0-.08,0-.12c0-.05,0-.09,0-.13h-.02c-.35-2.41-6.11-16.45-29.14-25.09-18.24-6.84-58.16-53.59-58.16-53.59,0,0-16.53-18.53-57.95-18.53-45.41,0-80.03,21.38-94.28,28.79-14.25,7.41-33.64,30.79-45.04,43.9-11.4,13.11-11.4,25.33-11.4,25.33Z"/>
      <path class="cls-35" d="M527.68,544.66s-2.62-14.25-38.54-31.36c-38.2-24.52-60.44-46.75-104.91-37.63-37.63,8.55-103.2,40.98-103.2,69.81s78.68,63.61,96.36,67.6c17.67,3.99,49.6,13.11,101.49-29.65,3.99-3.99,29.84-14.62,38.58-23.27,8.74-8.65,9.99-8.65,10.22-15.5Z"/>
      <rect class="cls-38" x="820.3" y="435.89" width="33.25" height="14.03"/>
      <rect class="cls-21" x="820.3" y="400.33" width="33.25" height="14.03"/>
      <rect class="cls-17" x="820.3" y="364.78" width="33.25" height="14.03"/>
      <rect class="cls-29" x="820.3" y="329.22" width="33.25" height="14.03"/>
      <rect class="cls-16" x="820.3" y="293.67" width="33.25" height="14.03"/>
      <rect class="cls-26" x="820.3" y="258.11" width="33.25" height="14.03"/>
      <rect class="cls-25" x="820.3" y="222.56" width="33.25" height="14.03"/>
      <text class="cls-24" transform="translate(866.51 236.25)"><tspan x="0" y="0">5 lux</tspan><tspan x="0" y="35.28">10 lux</tspan><tspan x="0" y="70.56">20 lux</tspan><tspan x="0" y="105.83">40 lux</tspan><tspan x="0" y="141.11">60 lux</tspan><tspan x="0" y="176.39">80 lux</tspan><tspan x="0" y="211.67">100 lux</tspan></text>
      <path class="cls-39" d="M379.82,545.16s-3-17.6,47.74-24.44c11.4-1.14,50.52,8.55,50.52,23.95l-98.27.49Z"/>
      <path class="cls-28" d="M430.42,505.07c-38.77-17.67-59.23-6.27-67.53,0-8.13,6.14-31.26,20.96-32.21,39.02h-.15c0,18.57,24.07,33.89,32.37,40.16,8.3,6.27,28.76,17.67,67.53,0,47.98-22.95,48.01-37.31,47.67-39.59.34-2.28.31-16.64-47.67-39.59Z"/>
      <path class="cls-27" d="M478.09,544.66c0-15.39-39.12-25.09-50.52-23.95-46.9,6.32-47.89,21.83-47.77,24.15-.12,2.32.88,17.83,47.77,24.15,11.4,1.14,50.52-8.55,50.52-23.95l-40.11-.2,40.11-.2Z"/>
      <text class="cls-41" transform="translate(130.77 552.99)"><tspan class="cls-2" x="0" y="0">	</tspan><tspan class="cls-36" x="49.55" y="0">1</tspan><tspan class="cls-19" x="75.06" y="0">	</tspan><tspan class="cls-37" x="101.36" y="0">2</tspan><tspan class="cls-6" x="126.87" y="0">	</tspan><tspan class="cls-9" x="148.03" y="0">3</tspan><tspan class="cls-3" x="173.54" y="0">	</tspan><tspan class="cls-10" x="196.26" y="0">4</tspan><tspan class="cls-14" x="221.77" y="0">	</tspan><tspan class="cls-10" x="244.59" y="0">5</tspan><tspan class="cls-7" x="270.11" y="0">	</tspan><tspan class="cls-9" x="295.23" y="0">6</tspan><tspan class="cls-1" x="320.74" y="0">	</tspan><tspan class="cls-10" x="343.29" y="0">7</tspan><tspan class="cls-12" x="368.8" y="0">	</tspan><tspan class="cls-9" x="391.84" y="0">8</tspan><tspan class="cls-8" x="417.35" y="0">	</tspan><tspan class="cls-9" x="436.93" y="0">9</tspan><tspan class="cls-13" x="462.44" y="0">	</tspan><tspan class="cls-4" x="485.26" y="0">10</tspan><tspan class="cls-5" x="506.81" y="0">	</tspan><tspan class="cls-22" x="534.88" y="0">11</tspan><tspan class="cls-31" x="556.44" y="0">	</tspan><tspan class="cls-18" x="584.3" y="0">1</tspan><tspan class="cls-36" x="595.08" y="0">2</tspan><tspan class="cls-30" x="620.59" y="0">	</tspan><tspan class="cls-22" x="632.33" y="0">1</tspan><tspan class="cls-37" x="643.11" y="0">3</tspan><tspan class="cls-15" x="668.62" y="0">	</tspan><tspan class="cls-18" x="677.35" y="0">1</tspan><tspan class="cls-36" x="688.12" y="0">4</tspan><tspan class="cls-34" x="713.63" y="0">	</tspan><tspan class="cls-18" x="718.4" y="0">15</tspan></text>
      <text class="cls-33" transform="translate(106.2 309.99)"><tspan x="0" y="0">5 m</tspan><tspan x="0" y="48.8">4</tspan><tspan x="0" y="97.61">3</tspan><tspan x="0" y="146.42">2</tspan><tspan x="0" y="195.22">1</tspan><tspan x="0" y="244.03">0 m</tspan><tspan x="0" y="292.83">1</tspan><tspan x="0" y="341.64">2</tspan><tspan x="0" y="390.44">3</tspan><tspan x="0" y="439.25">4</tspan><tspan x="0" y="488.05">5 m</tspan></text>
      <text class="cls-32" transform="translate(106.26 222.44)"><tspan x="0" y="0">Zaurac 4-30 Wide</tspan></text>
    </g>
  </g>
</svg>