<?xml version="1.0" encoding="UTF-8"?>
<svg xmlns="http://www.w3.org/2000/svg" viewBox="0 0 1080.75 1080.75">
  <defs>
    <style>
      .cls-1, .cls-2 {
        fill: none;
      }

      .cls-3, .cls-4, .cls-5, .cls-6, .cls-7, .cls-8, .cls-9, .cls-10, .cls-11, .cls-12, .cls-13, .cls-14 {
        fill: #fff;
      }

      .cls-15 {
        fill: #495866;
      }

      .cls-4, .cls-5, .cls-6, .cls-7, .cls-8 {
        mix-blend-mode: overlay;
      }

      .cls-16 {
        isolation: isolate;
      }

      .cls-5, .cls-13 {
        opacity: .35;
      }

      .cls-6 {
        opacity: .38;
      }

      .cls-7 {
        opacity: .42;
      }

      .cls-8 {
        opacity: .4;
      }

      .cls-9 {
        opacity: .55;
      }

      .cls-10 {
        opacity: .88;
      }

      .cls-2 {
        stroke: #d7b62e;
        stroke-miterlimit: 10;
        stroke-width: .25px;
      }

      .cls-11 {
        opacity: .24;
      }

      .cls-12 {
        opacity: .45;
      }

      .cls-14 {
        opacity: .65;
      }
    </style>
  </defs>
  <g class="cls-16">
    <g id="Base">
      <rect class="cls-15" x=".375" y=".375" width="1080" height="1080"/>
      <g>
        <rect class="cls-2" x=".375" y=".375" width="1080" height="1080"/>
        <line class="cls-2" x1=".375" y1="1031.28409" x2="1080.375" y2="1031.28409"/>
        <line class="cls-2" x1=".375" y1="982.19318" x2="1080.375" y2="982.19318"/>
        <line class="cls-2" x1=".375" y1="933.10227" x2="1080.375" y2="933.10227"/>
        <line class="cls-2" x1=".375" y1="884.01136" x2="1080.375" y2="884.01136"/>
        <line class="cls-2" x1=".375" y1="834.92045" x2="1080.375" y2="834.92045"/>
        <line class="cls-2" x1=".375" y1="785.82955" x2="1080.375" y2="785.82955"/>
        <line class="cls-2" x1=".375" y1="736.73864" x2="1080.375" y2="736.73864"/>
        <line class="cls-2" x1=".375" y1="687.64773" x2="1080.375" y2="687.64773"/>
        <line class="cls-2" x1=".375" y1="638.55682" x2="1080.375" y2="638.55682"/>
        <line class="cls-2" x1=".375" y1="589.46591" x2="1080.375" y2="589.46591"/>
        <line class="cls-2" x1=".375" y1="540.375" x2="1080.375" y2="540.375"/>
        <line class="cls-2" x1=".375" y1="491.28409" x2="1080.375" y2="491.28409"/>
        <line class="cls-2" x1=".375" y1="442.19318" x2="1080.375" y2="442.19318"/>
        <line class="cls-2" x1=".375" y1="393.10227" x2="1080.375" y2="393.10227"/>
        <line class="cls-2" x1=".375" y1="344.01136" x2="1080.375" y2="344.01136"/>
        <line class="cls-2" x1=".375" y1="294.92045" x2="1080.375" y2="294.92045"/>
        <line class="cls-2" x1=".375" y1="245.82955" x2="1080.375" y2="245.82955"/>
        <line class="cls-2" x1=".375" y1="196.73864" x2="1080.375" y2="196.73864"/>
        <line class="cls-2" x1=".375" y1="147.64773" x2="1080.375" y2="147.64773"/>
        <line class="cls-2" x1=".375" y1="98.55682" x2="1080.375" y2="98.55682"/>
        <line class="cls-2" x1=".375" y1="49.46591" x2="1080.375" y2="49.46591"/>
        <line class="cls-2" x1="1031.28409" y1=".375" x2="1031.28409" y2="1080.375"/>
        <line class="cls-2" x1="982.19318" y1=".375" x2="982.19318" y2="1080.375"/>
        <line class="cls-2" x1="933.10227" y1=".375" x2="933.10227" y2="1080.375"/>
        <line class="cls-2" x1="884.01136" y1=".375" x2="884.01136" y2="1080.375"/>
        <line class="cls-2" x1="834.92045" y1=".375" x2="834.92045" y2="1080.375"/>
        <line class="cls-2" x1="785.82955" y1=".375" x2="785.82955" y2="1080.375"/>
        <line class="cls-2" x1="736.73864" y1=".375" x2="736.73864" y2="1080.375"/>
        <line class="cls-2" x1="687.64773" y1=".375" x2="687.64773" y2="1080.375"/>
        <line class="cls-2" x1="638.55682" y1=".375" x2="638.55682" y2="1080.375"/>
        <line class="cls-2" x1="589.46591" y1=".375" x2="589.46591" y2="1080.375"/>
        <line class="cls-2" x1="540.375" y1=".375" x2="540.375" y2="1080.375"/>
        <line class="cls-2" x1="491.28409" y1=".375" x2="491.28409" y2="1080.375"/>
        <line class="cls-2" x1="442.19318" y1=".375" x2="442.19318" y2="1080.375"/>
        <line class="cls-2" x1="393.10227" y1=".375" x2="393.10227" y2="1080.375"/>
        <line class="cls-2" x1="344.01136" y1=".375" x2="344.01136" y2="1080.375"/>
        <line class="cls-2" x1="294.92045" y1=".375" x2="294.92045" y2="1080.375"/>
        <line class="cls-2" x1="245.82955" y1=".375" x2="245.82955" y2="1080.375"/>
        <line class="cls-2" x1="196.73864" y1=".375" x2="196.73864" y2="1080.375"/>
        <line class="cls-2" x1="147.64773" y1=".375" x2="147.64773" y2="1080.375"/>
        <line class="cls-2" x1="98.55682" y1=".375" x2="98.55682" y2="1080.375"/>
        <line class="cls-2" x1="49.46591" y1=".375" x2="49.46591" y2="1080.375"/>
      </g>
    </g>
    <g id="Layer_3" data-name="Layer 3"/>
    <g id="Layer_1" data-name="Layer 1"/>
    <g id="Layer_2" data-name="Layer 2">
      <path class="cls-5" d="M945.82082,517.43148c0-9.06921-13.65552-19.9346-39.89707-34.43651-33.14722-18.64531-77.34351-83.55862-120.84924-135.35115-59.38877-60.7699-66.29444-58.6982-132.58888-82.17748-66.29444-23.47928-126.37377-14.50191-149.85305-10.35851-23.47928,4.1434-32.45665,5.52454-60.7699,6.90567-28.31325,1.38113-41.43402,8.97737-41.43402,8.97737,0,0-80.10578,34.52835-98.06052,44.19629-17.95474,9.66794-23.47928,16.57361-23.47928,16.57361,0,0-12.43021,11.73964-35.21892,30.38495-22.78871,18.64531-25.55098,37.29062-44.60977,82.40922-19.05879,45.11864-44.0647,49.14381-49.71594,50.52495-37.11646,8.34577-35.96993,21.53188-35.85309,22.39749-.11684,.86561-2.20324,13.99298,34.53527,23.87051,13.18408,3.54468,26.50714,8.99018,49.03026,52.4831,20.02645,38.67176,23.82456,60.33278,46.61328,78.97809,22.78871,18.64531,35.21892,30.38495,35.21892,30.38495,0,0,5.52454,6.90567,23.47928,16.57361,17.95474,9.66794,98.06052,44.19629,98.06052,44.19629,0,0,14.84719,3.88996,43.16044,5.2711,28.31325,1.38113,35.5642,6.46854,59.04348,10.61195,23.47928,4.1434,83.55862,13.12077,149.85305-10.35851s73.20011-21.40758,132.58888-82.17748c43.50573-51.79253,87.70202-116.70583,120.84924-135.35115,26.24155-14.50191,39.89707-25.3673,39.89707-34.43651"/>
      <path class="cls-6" d="M767.11978,517.17804c-.69057-22.09815-24.16985-69.05671-68.36614-119.4681-44.19629-50.4114-84.93975-65.60387-130.51718-82.17748-45.57743-16.57361-60.07934-13.12077-107.72846-9.66794-95.29826,4.83397-166.42666,53.86423-203.02672,83.55862-61.40146,47.27915-85.7775,111.82394-85.63032,128.10019v-.69057c-.69057,18.64531,24.22902,80.8213,85.63049,128.10044,36.60005,29.69434,107.72846,78.72456,203.02672,83.55849,47.64913,3.45284,62.15104,6.90567,107.72846-9.66798,45.57743-16.57361,86.32088-31.76613,130.51718-82.17752,44.19625-50.41144,67.67549-97.37,68.36606-119.46815h-.00008Z"/>
      <path class="cls-8" d="M171.50568,517.17804s-1.38113,12.43025,30.38495,22.44347c29.37331,9.25898,33.54633,12.90917,53.17366,50.4114,19.33588,36.94534,21.40758,43.50573,31.07552,54.5548,9.66794,11.04907,48.33969,17.95474,48.33969,17.95474,0,0,97.36996,16.57361,127.06434,15.19248,29.69438-1.38113,71.12841-6.90567,107.72846-31.76609,13.12077-9.66794,46.26799-39.36232,66.29444-84.24918,13.12077-32.45665,13.12077-44.54162,13.12077-44.54162,0,0-1.67028-12.25504-13.46606-41.43411-20.02645-44.88686-53.51895-75.96238-66.63972-85.63032-36.60005-24.86041-77.34351-30.38495-107.0379-31.76609s-127.40962,16.57361-127.40962,16.57361c0,0-38.67176,6.90567-48.33969,17.95474-9.66794,11.04907-12.08492,15.88304-32.11137,53.17366-20.02645,37.29062-23.14305,41.04755-52.4831,50.4114-32.45665,10.35851-29.69438,20.7171-29.69438,20.7171"/>
      <path class="cls-7" d="M230.89445,518.16795s.69057,12.82143,12.43021,28.01391c2.89436,3.7456,38.67176,45.1862,55.93593,54.16357s59.38877,34.91958,110.49073,34.91958c47.40028,.0459,71.81898-24.86041,71.81898-24.86041,0,0,40.05289-48.33969,66.98501-60.07934,32.67009-14.24084,40.31716-29.9995,40.81292-32.84784l.02681-.00004c.00202-.03684-.0032-.09104-.00691-.1417,.00624-.06023,.00927-.1146,.00691-.15764l-.02478,.00008c-.42924-2.91603-7.39527-19.9244-35.29041-30.38504-22.09815-8.2868-70.43784-64.9133-70.43784-64.9133,0,0-20.02645-22.44343-70.18899-22.44343-54.99643,0-96.92824,25.89627-114.19241,34.87364-17.26418,8.97737-40.74346,37.29062-54.5548,53.17366-13.81134,15.88304-13.81134,30.68429-13.81134,30.68429Z"/>
      <path class="cls-8" d="M529.62765,517.1781s-3.1705-17.26424-46.67622-37.98125c-46.26799-29.69438-73.20011-56.6265-127.06434-45.57743-45.57743,10.35851-124.99264,49.62894-124.99264,84.54852s95.29826,77.04417,116.70583,81.87814c21.40758,4.83397,60.07934,15.88304,122.92094-35.90949,4.83397-4.83397,36.14106-17.70785,46.72906-28.1898,10.588-10.48195,12.09503-10.48183,12.37737-18.7687Z"/>
      <path class="cls-1" d="M350.54179,525.04418s-3.63207-21.31599,57.8284-29.60279c13.81134-1.38113,61.1897,10.35851,61.1897,29.00382l-119.0181,.59898Z"/>
      <path class="cls-8" d="M411.82302,469.22953c-46.95856-21.40758-71.74462-7.59624-81.79511,0-9.84378,7.44008-37.86536,25.39225-39.01333,47.25794h-.18731c0,22.48933,29.15033,41.0428,39.20064,48.63904,10.05048,7.59624,34.83655,21.40758,81.79511,0,58.1157-27.79448,58.15296-45.18473,57.73687-47.94847,.41609-2.76374,.37883-20.15403-57.73687-47.94851Z"/>
      <path class="cls-4" d="M469.55989,524.4452c0-18.64531-47.37836-30.38495-61.1897-29.00382-56.79998,7.65841-58.00477,26.44323-57.86096,29.24832-.14381,2.80509,1.06097,21.58992,57.86096,29.24832,13.81134,1.38113,61.1897-10.35851,61.1897-29.00382l-48.58382-.24451,48.58382-.24451Z"/>
      <g>
        <path class="cls-3" d="M75.09136,91.10399h-19.86328v-3.87598h25.28906v3.87598l-21.46191,26.83984h22.04395v3.87598h-27.51855v-3.87598l21.51074-26.83984Z"/>
        <path class="cls-3" d="M110.31206,121.72313c-.71094,.41895-1.69531,.62988-2.95508,.62988-1.06641,0-1.91406-.29883-2.54297-.89648-.63086-.59766-.94531-1.57422-.94531-2.93164-1.13086,1.35742-2.44727,2.33398-3.94922,2.93164-1.50098,.59766-3.12402,.89648-4.86816,.89648-1.13086,0-2.2041-.12988-3.22168-.3877s-1.89844-.66211-2.64062-1.21094c-.74316-.54883-1.33203-1.26758-1.76855-2.15625-.43652-.8877-.65332-1.96191-.65332-3.22168,0-1.4209,.24219-2.58398,.72656-3.48828s1.12109-1.63867,1.91309-2.2041,1.69629-.99316,2.71387-1.28418,2.05859-.5332,3.125-.72656c1.12891-.22559,2.20312-.39551,3.2207-.50879s1.91406-.27441,2.68945-.48438,1.38867-.5166,1.84082-.9209c.45215-.40332,.67871-.99316,.67871-1.76855,0-.90332-.16992-1.62988-.50977-2.17969-.33789-.54883-.77441-.96875-1.30762-1.25977-.53223-.29102-1.13086-.48438-1.79199-.58105-.66211-.09766-1.31641-.14551-1.96289-.14551-1.74414,0-3.19727,.33105-4.35938,.99316-1.16406,.66211-1.79297,1.91309-1.89062,3.75488h-4.11719c.06445-1.55078,.38672-2.8584,.96875-3.9248,.58105-1.06543,1.35645-1.92969,2.3252-2.5918,.96973-.66113,2.0752-1.13867,3.31934-1.42871,1.24219-.29102,2.57422-.43652,3.99609-.43652,1.13086,0,2.25391,.08105,3.36719,.24219,1.11523,.16113,2.12305,.49121,3.02832,.99121,.90332,.49902,1.62988,1.2002,2.18066,2.10254,.54883,.90234,.82324,2.0791,.82324,3.52832v12.86035c0,.9668,.05566,1.67578,.16895,2.12695s.49219,.67676,1.13867,.67676c.35547,0,.77539-.06445,1.25977-.19434v3.19824Zm-6.68555-12.83887c-.51758,.38574-1.19531,.66699-2.03516,.84375-.83984,.17773-1.71973,.32227-2.64062,.43359-.91992,.11328-1.84863,.24219-2.78516,.38672-.9375,.14453-1.77734,.37793-2.51953,.69824-.74316,.32129-1.34863,.7793-1.81641,1.37402-.46875,.59473-.70312,1.40625-.70312,2.43457,0,.67578,.13672,1.24512,.41211,1.71191,.27344,.46582,.62988,.84375,1.06641,1.13281,.43555,.28906,.94434,.49805,1.52539,.62695,.58203,.12891,1.19531,.19238,1.8418,.19238,1.35547,0,2.51855-.18457,3.48828-.55371,.96875-.37012,1.75977-.83594,2.37305-1.39844s1.06641-1.17383,1.35742-1.83203c.29004-.65918,.43555-1.27832,.43555-1.85645v-4.19434Z"/>
        <path class="cls-3" d="M133.90581,121.81981v-3.97266h-.09668c-.87207,1.5498-1.98633,2.68848-3.34277,3.41504-1.35742,.72754-2.95508,1.09082-4.79688,1.09082-1.64648,0-3.01953-.21875-4.11719-.6543-1.09961-.43652-1.98633-1.05762-2.66504-1.86523-.67871-.80664-1.15527-1.76855-1.42871-2.88281-.27539-1.11426-.41211-2.34961-.41211-3.70605v-16.47266h4.11719v16.95703c0,1.55078,.45215,2.77832,1.35742,3.68164,.90332,.90527,2.14648,1.35742,3.73047,1.35742,1.25977,0,2.34961-.19434,3.26953-.58203,.9209-.3877,1.6875-.93652,2.30176-1.64746,.6123-.70996,1.07324-1.54199,1.37988-2.49414,.30664-.95312,.46094-1.99414,.46094-3.125v-14.14746h4.11816v25.04785h-3.87598Z"/>
        <path class="cls-3" d="M150.62066,96.77196v5.28125h.09668c1.00098-2.03516,2.22852-3.53711,3.68164-4.50586,1.4541-.96875,3.29395-1.4209,5.52344-1.35645v4.36035c-1.64746,0-3.05176,.22656-4.21582,.67871-1.16211,.45215-2.09961,1.11426-2.80859,1.98633-.71094,.87207-1.22852,1.92969-1.55078,3.17285-.32422,1.24414-.48438,2.67285-.48438,4.28809v11.14258h-4.11914v-25.04785h3.87695Z"/>
        <path class="cls-3" d="M188.1187,121.72313c-.71094,.41895-1.69531,.62988-2.95508,.62988-1.06641,0-1.91406-.29883-2.54395-.89648s-.94434-1.57422-.94434-2.93164c-1.13086,1.35742-2.44727,2.33398-3.94922,2.93164s-3.125,.89648-4.86914,.89648c-1.13086,0-2.2041-.12988-3.2207-.3877-1.01758-.25781-1.89844-.66211-2.64062-1.21094-.74414-.54883-1.33301-1.26758-1.76953-2.15625-.43555-.8877-.65332-1.96191-.65332-3.22168,0-1.4209,.24219-2.58398,.72656-3.48828s1.12207-1.63867,1.91309-2.2041c.79199-.56543,1.69629-.99316,2.71387-1.28418s2.05957-.5332,3.125-.72656c1.12988-.22559,2.2041-.39551,3.22168-.50879s1.91406-.27441,2.68945-.48438c.77441-.20996,1.3877-.5166,1.83984-.9209,.45312-.40332,.67871-.99316,.67871-1.76855,0-.90332-.16895-1.62988-.50879-2.17969-.33887-.54883-.77539-.96875-1.30859-1.25977-.53223-.29102-1.13086-.48438-1.79199-.58105-.66211-.09766-1.31641-.14551-1.96191-.14551-1.74414,0-3.19727,.33105-4.36035,.99316s-1.79199,1.91309-1.88965,3.75488h-4.11816c.06445-1.55078,.3877-2.8584,.96973-3.9248,.58008-1.06543,1.35547-1.92969,2.32422-2.5918,.96973-.66113,2.07617-1.13867,3.31934-1.42871,1.24316-.29102,2.5752-.43652,3.99707-.43652,1.12988,0,2.25293,.08105,3.36719,.24219s2.12305,.49121,3.02734,.99121c.9043,.49902,1.63086,1.2002,2.18066,2.10254,.54883,.90234,.82324,2.0791,.82324,3.52832v12.86035c0,.9668,.05664,1.67578,.16992,2.12695s.49219,.67676,1.13867,.67676c.35547,0,.77539-.06445,1.25977-.19434v3.19824Zm-6.68555-12.83887c-.51758,.38574-1.19531,.66699-2.03516,.84375-.83984,.17773-1.7207,.32227-2.64062,.43359-.91992,.11328-1.84961,.24219-2.78516,.38672-.9375,.14453-1.77734,.37793-2.51953,.69824-.74414,.32129-1.34961,.7793-1.81641,1.37402-.46875,.59473-.70312,1.40625-.70312,2.43457,0,.67578,.13672,1.24512,.41211,1.71191,.27344,.46582,.62891,.84375,1.06543,1.13281s.94434,.49805,1.52637,.62695c.58105,.12891,1.19434,.19238,1.84082,.19238,1.35645,0,2.51855-.18457,3.48828-.55371,.96875-.37012,1.75977-.83594,2.37402-1.39844,.61328-.5625,1.06641-1.17383,1.35645-1.83203,.29004-.65918,.43652-1.27832,.43652-1.85645v-4.19434Z"/>
        <path class="cls-3" d="M209.82183,101.13231c-1.0332-.87207-2.42188-1.30762-4.16602-1.30762-1.48633,0-2.72949,.27441-3.73047,.82324-1.00195,.5498-1.80078,1.27637-2.39844,2.18066s-1.02539,1.94629-1.2832,3.125c-.25977,1.17871-.3877,2.39746-.3877,3.65723,0,1.16309,.13672,2.29395,.41113,3.3916,.27441,1.09863,.70312,2.0752,1.28516,2.93066,.58008,.85645,1.33984,1.54297,2.27637,2.05957s2.05078,.77539,3.34277,.77539c2.03516,0,3.625-.5332,4.77148-1.59961,1.14648-1.06543,1.84961-2.56738,2.1084-4.50488h4.21484c-.45215,3.10059-1.60742,5.49121-3.46387,7.16992-1.85742,1.67969-4.38477,2.51953-7.58203,2.51953-1.90625,0-3.59375-.30762-5.0625-.9209-1.4707-.61328-2.69727-1.48535-3.68262-2.61621-.98535-1.12988-1.72754-2.47852-2.22852-4.04492s-.75098-3.28613-.75098-5.16016c0-1.87305,.24219-3.625,.72656-5.25684,.48438-1.62988,1.21875-3.05176,2.20508-4.2627,.98438-1.21191,2.21973-2.16406,3.70508-2.8584,1.48633-.69434,3.21387-1.04199,5.18457-1.04199,1.4209,0,2.75293,.16992,3.99707,.50879,1.24219,.33887,2.3418,.86426,3.29492,1.57422,.95117,.71094,1.73535,1.60742,2.34961,2.68945,.61328,1.08203,1,2.36621,1.16211,3.85156h-4.26367c-.32227-1.58203-1.00098-2.81055-2.03516-3.68262Z"/>
        <path class="cls-3" d="M261.99956,110.14403v3.63379h-4.65039v8.04199h-3.87598v-8.04199h-15.06738v-3.97266l15.64844-22.33496h3.29492v22.67383h4.65039Zm-8.52637-16.81152h-.09668l-11.43359,16.81152h11.53027v-16.81152Z"/>
        <path class="cls-3" d="M283.31695,106.41356v3.87598h-14.00098v-3.87598h14.00098Z"/>
        <path class="cls-3" d="M299.64409,102.24657h1.35547c.87305,0,1.7041-.12109,2.49609-.36328,.79102-.24219,1.48438-.59668,2.08301-1.06543,.59668-.46777,1.07324-1.05762,1.42871-1.76855,.35547-.70996,.5332-1.51758,.5332-2.42188,0-1.8418-.58105-3.22266-1.74414-4.14258-1.16211-.9209-2.61621-1.38086-4.36035-1.38086-1.09863,0-2.05957,.20215-2.88184,.60547-.82422,.4043-1.50195,.94434-2.03516,1.62305s-.92969,1.46973-1.1875,2.37402c-.25879,.9043-.38672,1.85742-.38672,2.8584h-4.11914c.06445-1.64746,.33105-3.14941,.7998-4.50586,.46777-1.35645,1.13867-2.51953,2.01074-3.48828s1.96191-1.72754,3.26953-2.27637c1.30859-.54883,2.81836-.82422,4.53027-.82422,1.48535,0,2.86621,.18652,4.14258,.55762,1.27539,.37109,2.38184,.92871,3.31836,1.6709,.93652,.74316,1.6709,1.69629,2.2041,2.8584,.5332,1.16309,.7998,2.53613,.7998,4.11816,0,1.55078-.45215,2.92383-1.35645,4.11816-.9043,1.19531-2.03516,2.09961-3.3916,2.71289v.09668c2.09863,.45312,3.6582,1.4375,4.6748,2.95605,1.01758,1.51855,1.52734,3.31055,1.52734,5.37695,0,1.71289-.31543,3.22266-.94531,4.53027-.62988,1.30859-1.47754,2.39844-2.54297,3.27051-1.06641,.87207-2.31836,1.52539-3.75586,1.96191-1.4375,.43555-2.96289,.6543-4.57812,.6543-1.74414,0-3.32617-.24219-4.74805-.72656-1.4209-.48535-2.63281-1.20312-3.63281-2.15625-1.00195-.95215-1.76855-2.12305-2.30078-3.5127-.5332-1.38867-.78418-2.9707-.75195-4.74805h4.11816c.06445,2.22852,.70996,4.0459,1.93848,5.4502,1.22656,1.40527,3.01953,2.1084,5.37695,2.1084,1.00098,0,1.9541-.15332,2.85938-.46094,.90332-.30664,1.69531-.74219,2.37305-1.30762,.67871-.56543,1.21875-1.25977,1.62305-2.08301,.4043-.82422,.60547-1.75195,.60547-2.78613,0-1.06641-.19336-2.01074-.58105-2.83398-.3877-.82422-.9043-1.51855-1.5498-2.08398-.64648-.56445-1.41406-.98438-2.30176-1.25879-.88867-.27441-1.84863-.41211-2.88281-.41211-.87207,0-1.69531,.04785-2.4707,.14551v-3.48828c.16113,.03223,.30664,.04785,.43652,.04785Z"/>
        <path class="cls-3" d="M320.62163,101.03563c.06348-1.35645,.22559-2.68066,.48438-3.97266,.25879-1.29102,.62988-2.51953,1.11426-3.68164,.48438-1.16309,1.14648-2.18066,1.98633-3.05273s1.89648-1.56641,3.17383-2.08301c1.27539-.5166,2.80078-.77539,4.57812-.77539,1.77539,0,3.30176,.25879,4.57812,.77539,1.27539,.5166,2.33301,1.21094,3.17383,2.08301,.83887,.87207,1.50195,1.88965,1.98633,3.05273,.48438,1.16211,.85547,2.39062,1.11328,3.68164,.25879,1.29199,.41992,2.61621,.48438,3.97266s.09766,2.66504,.09766,3.9248c0,1.25879-.0332,2.56738-.09766,3.92383s-.22559,2.68164-.48438,3.97266c-.25781,1.29199-.62891,2.51172-1.11328,3.6582s-1.14746,2.15527-1.98633,3.02734c-.84082,.87207-1.89062,1.55859-3.15039,2.05957-1.25879,.5-2.79297,.75098-4.60156,.75098-1.77734,0-3.30273-.25098-4.57812-.75098-1.27734-.50098-2.33398-1.1875-3.17383-2.05957s-1.50195-1.88086-1.98633-3.02734-.85547-2.36621-1.11426-3.6582c-.25879-1.29102-.4209-2.61621-.48438-3.97266-.06543-1.35645-.09668-2.66504-.09668-3.92383,0-1.25977,.03125-2.56836,.09668-3.9248Zm4.38379,8.21191c.08105,1.59863,.33984,3.10059,.77539,4.50586,.43652,1.40527,1.13867,2.5918,2.10742,3.56055s2.32617,1.4541,4.07031,1.4541,3.10059-.48535,4.06934-1.4541,1.6709-2.15527,2.10742-3.56055,.69434-2.90723,.77539-4.50586c.08008-1.59863,.12109-3.04395,.12109-4.33594,0-.83984-.00879-1.76855-.02441-2.78613-.0166-1.0166-.09668-2.03418-.24219-3.05176s-.35547-2.01074-.62988-2.97949-.67871-1.81738-1.21094-2.54395c-.5332-.72656-1.2041-1.31543-2.01074-1.76758-.80762-.45215-1.79297-.67871-2.95508-.67871-1.16309,0-2.14844,.22656-2.95508,.67871-.80859,.45215-1.47852,1.04102-2.01172,1.76758-.53223,.72656-.93652,1.5752-1.21094,2.54395s-.48438,1.96191-.62891,2.97949c-.14648,1.01758-.22656,2.03516-.24219,3.05176-.01758,1.01758-.02539,1.94629-.02539,2.78613,0,1.29199,.04102,2.7373,.12109,4.33594Z"/>
        <path class="cls-3" d="M394.93999,121.81981l-7.89746-29.06836h-.09668l-7.99316,29.06836h-4.79688l-8.86523-34.5918h4.69922l6.78223,28.77832h.09668l7.75195-28.77832h4.99023l7.6543,28.77832h.09766l7.02441-28.77832h4.60254l-9.25391,34.5918h-4.7959Z"/>
        <path class="cls-3" d="M415.82085,92.26707v-5.03906h4.11816v5.03906h-4.11816Zm4.11816,4.50488v25.04785h-4.11816v-25.04785h4.11816Z"/>
        <path class="cls-3" d="M447.50542,121.81981v-3.3916h-.09766c-.67773,1.38965-1.74414,2.39062-3.19727,3.00391s-3.05273,.9209-4.7959,.9209c-1.93848,0-3.62598-.35645-5.06348-1.06641s-2.63281-1.66309-3.58398-2.8584c-.95312-1.19434-1.67188-2.58301-2.15625-4.16602-.48438-1.58203-.72656-3.26172-.72656-5.03906,0-1.77539,.2334-3.45508,.70215-5.03809,.46777-1.58203,1.17871-2.96289,2.13184-4.14258,.95215-1.17871,2.14746-2.11523,3.58496-2.80957,1.43652-.69434,3.1084-1.04199,5.01465-1.04199,.64551,0,1.33984,.06543,2.08301,.19434,.74219,.12891,1.48535,.34668,2.22852,.65332,.74316,.30762,1.44434,.71094,2.10742,1.21191,.66113,.50098,1.21875,1.12207,1.6709,1.86523h.09766v-12.8877h4.11719v34.5918h-4.11719Zm-14.80078-8.89062c.30664,1.11523,.77539,2.1084,1.4043,2.98047,.63086,.87207,1.4375,1.56641,2.42285,2.08301s2.13965,.77539,3.46387,.77539c1.38867,0,2.56836-.27441,3.53711-.82422,.96875-.54883,1.75977-1.2666,2.37305-2.15625,.61328-.8877,1.05859-1.89648,1.33301-3.02734,.27441-1.12988,.41113-2.27734,.41113-3.44043,0-1.22656-.14453-2.41309-.43555-3.56055-.29102-1.14551-.75098-2.15625-1.38086-3.02832s-1.44531-1.57422-2.44629-2.10742c-1.00098-.53223-2.21289-.79883-3.63379-.79883-1.38867,0-2.56836,.27441-3.53711,.82324-.96875,.5498-1.74414,1.27637-2.3252,2.18066s-1.00098,1.9375-1.25879,3.10059c-.25977,1.16211-.38867,2.35742-.38867,3.58496,0,1.16309,.15332,2.30078,.46094,3.41504Z"/>
        <path class="cls-3" d="M478.60796,120.22118c-1.87402,1.42188-4.23145,2.13184-7.07324,2.13184-2.00293,0-3.73828-.32324-5.20898-.96875-1.46875-.64648-2.70508-1.55078-3.70508-2.71387-1.00195-1.16211-1.75293-2.55078-2.25391-4.16602-.5-1.61523-.7832-3.375-.84766-5.28125,0-1.90527,.29102-3.64941,.87305-5.23242,.58105-1.58203,1.39648-2.95508,2.44629-4.11816,1.04883-1.16211,2.29297-2.06641,3.73047-2.71289,1.43652-.64551,3.01074-.96875,4.72363-.96875,2.22852,0,4.07715,.45996,5.54688,1.38086s2.64844,2.0918,3.53711,3.5127c.8877,1.4209,1.50195,2.97168,1.84082,4.65039,.33887,1.67969,.47559,3.2793,.41113,4.79688h-18.74805c-.0332,1.09863,.0957,2.13965,.38672,3.125s.75879,1.85742,1.40527,2.61621c.64551,.75879,1.46973,1.36426,2.4707,1.81641,1.00098,.45312,2.18066,.67871,3.53613,.67871,1.74414,0,3.17383-.4043,4.28809-1.21191,1.11426-.80664,1.84863-2.03418,2.2041-3.68164h4.07031c-.5498,2.80957-1.76074,4.92578-3.63379,6.34668Zm-.99316-16.08496c-.37109-.87207-.87207-1.62305-1.50195-2.25293s-1.37305-1.12988-2.22852-1.50195c-.85547-.37012-1.80078-.55664-2.83398-.55664-1.06641,0-2.02734,.18652-2.88281,.55664-.85645,.37207-1.5918,.88086-2.20508,1.52637-.61328,.64648-1.09766,1.39746-1.45312,2.25293-.35547,.85645-.56445,1.76855-.62891,2.7373h14.38867c-.06543-.96875-.2832-1.88965-.6543-2.76172Z"/>
        <path class="cls-3" d="M509.90386,96.77196v5.28125h.09766c1-2.03516,2.22852-3.53711,3.68164-4.50586s3.29492-1.4209,5.52344-1.35645v4.36035c-1.64746,0-3.05273,.22656-4.21484,.67871-1.16309,.45215-2.09961,1.11426-2.81055,1.98633s-1.22754,1.92969-1.55078,3.17285c-.32227,1.24414-.48438,2.67285-.48438,4.28809v11.14258h-4.11719v-25.04785h3.875Z"/>
        <path class="cls-3" d="M547.40191,121.72313c-.70996,.41895-1.69531,.62988-2.95508,.62988-1.06543,0-1.91309-.29883-2.54297-.89648s-.94531-1.57422-.94531-2.93164c-1.13086,1.35742-2.44629,2.33398-3.94824,2.93164-1.50098,.59766-3.12402,.89648-4.86816,.89648-1.13086,0-2.20508-.12988-3.22266-.3877s-1.89746-.66211-2.64062-1.21094c-.74219-.54883-1.33203-1.26758-1.76758-2.15625-.43652-.8877-.6543-1.96191-.6543-3.22168,0-1.4209,.24219-2.58398,.72656-3.48828s1.12207-1.63867,1.91406-2.2041c.79102-.56543,1.69531-.99316,2.71289-1.28418s2.05859-.5332,3.125-.72656c1.12988-.22559,2.2041-.39551,3.22168-.50879,1.0166-.11328,1.91309-.27441,2.68848-.48438s1.38867-.5166,1.8418-.9209c.45117-.40332,.67773-.99316,.67773-1.76855,0-.90332-.16992-1.62988-.50879-2.17969-.33887-.54883-.77441-.96875-1.30762-1.25977s-1.13086-.48438-1.79297-.58105c-.66211-.09766-1.31641-.14551-1.96191-.14551-1.74414,0-3.19824,.33105-4.36035,.99316-1.16309,.66211-1.79297,1.91309-1.88965,3.75488h-4.11816c.06445-1.55078,.3877-2.8584,.96875-3.9248,.58203-1.06543,1.35742-1.92969,2.32617-2.5918,.96875-.66113,2.07422-1.13867,3.31836-1.42871,1.24316-.29102,2.5752-.43652,3.99707-.43652,1.12988,0,2.25293,.08105,3.36719,.24219s2.12305,.49121,3.02832,.99121c.90332,.49902,1.62988,1.2002,2.17969,2.10254,.54883,.90234,.82422,2.0791,.82422,3.52832v12.86035c0,.9668,.05469,1.67578,.16895,2.12695,.1123,.45117,.49219,.67676,1.13867,.67676,.35449,0,.77441-.06445,1.25879-.19434v3.19824Zm-6.68555-12.83887c-.5166,.38574-1.19531,.66699-2.03418,.84375-.84082,.17773-1.71973,.32227-2.64062,.43359-.9209,.11328-1.84863,.24219-2.78613,.38672-.93652,.14453-1.77637,.37793-2.51953,.69824-.74219,.32129-1.34766,.7793-1.81641,1.37402s-.70215,1.40625-.70215,2.43457c0,.67578,.13672,1.24512,.41113,1.71191,.27441,.46582,.63086,.84375,1.06641,1.13281s.94531,.49805,1.52637,.62695,1.19434,.19238,1.84082,.19238c1.35645,0,2.51953-.18457,3.48828-.55371,.96875-.37012,1.75977-.83594,2.37402-1.39844,.6123-.5625,1.06543-1.17383,1.35645-1.83203,.29102-.65918,.43555-1.27832,.43555-1.85645v-4.19434Z"/>
        <path class="cls-3" d="M558.01226,96.77196v3.97266h.09668c1.71191-3.03516,4.4248-4.55371,8.13867-4.55371,1.64844,0,3.02051,.22656,4.11914,.67871,1.09766,.45215,1.98633,1.08203,2.66406,1.88867,.67871,.80859,1.1543,1.76855,1.42969,2.88281,.27344,1.11426,.41113,2.34961,.41113,3.70605v16.47266h-4.11816v-16.95703c0-1.5498-.45215-2.77734-1.35645-3.68164s-2.14746-1.35645-3.72949-1.35645c-1.25977,0-2.34961,.19336-3.27148,.58105-.91992,.3877-1.6875,.9375-2.30078,1.64746-.61328,.71094-1.07422,1.54297-1.38086,2.49512-.30664,.95312-.45996,1.99414-.45996,3.125v14.14648h-4.11816v-25.04785h3.87598Z"/>
        <path class="cls-3" d="M602.77788,128.89305c-1.87402,2.03516-4.81348,3.05273-8.81738,3.05273-1.16309,0-2.34961-.12988-3.56152-.3877-1.21094-.25879-2.30957-.67871-3.29395-1.25977-.98535-.58105-1.80078-1.34082-2.44629-2.27734-.64648-.9375-1.00195-2.08301-1.06641-3.43945h4.11816c.03223,.74219,.2666,1.37207,.70215,1.88965,.43652,.51562,.96973,.93555,1.59961,1.25879s1.31543,.55762,2.05859,.70312c.74219,.14551,1.45312,.21777,2.13184,.21777,1.35645,0,2.50293-.23438,3.43945-.70215,.93652-.46875,1.71191-1.11426,2.32617-1.93848,.6123-.82324,1.05664-1.81641,1.33203-2.97949,.27344-1.16211,.41211-2.43848,.41211-3.82715v-1.64746h-.09766c-.71094,1.55078-1.78516,2.68945-3.22168,3.41602-1.4375,.72656-2.96387,1.08984-4.57812,1.08984-1.87402,0-3.50488-.33887-4.89355-1.01758-1.38867-.67773-2.55176-1.58984-3.48828-2.7373-.93652-1.14551-1.63965-2.48633-2.10742-4.02051s-.70215-3.15723-.70215-4.86914c0-1.48535,.19336-3.01172,.58105-4.57812s1.0332-2.9873,1.93848-4.26367c.90332-1.27539,2.09863-2.3252,3.58496-3.14941,1.48535-.82324,3.31055-1.23535,5.47461-1.23535,1.58203,0,3.03516,.34766,4.36035,1.04199,1.32422,.69434,2.35742,1.73633,3.10059,3.125h.04883v-3.58594h3.875v22.91602c0,4.10156-.93652,7.16992-2.80957,9.20508Zm-5.25684-11.26367c.95215-.56543,1.71973-1.30859,2.30176-2.22852,.58105-.9209,1.00879-1.96289,1.2832-3.125,.27441-1.16309,.41211-2.32617,.41211-3.48828,0-1.09766-.12891-2.18066-.3877-3.24609-.25879-1.06641-.6709-2.02637-1.23535-2.88281-.56543-.85547-1.30078-1.54199-2.2041-2.05859-.9043-.5166-2.00293-.77539-3.29492-.77539-1.32422,0-2.45508,.25-3.39062,.75098-.9375,.50098-1.7041,1.1709-2.30176,2.01074s-1.03418,1.80859-1.30762,2.90625c-.27539,1.09863-.41211,2.24512-.41211,3.44043,0,1.13086,.1123,2.26074,.33887,3.39062,.22559,1.13086,.61328,2.15625,1.16309,3.07715,.54883,.91992,1.27539,1.66309,2.17969,2.22852s2.03516,.84766,3.3916,.84766,2.51074-.28223,3.46387-.84766Z"/>
        <path class="cls-3" d="M632.4273,120.22118c-1.87402,1.42188-4.23242,2.13184-7.07422,2.13184-2.00293,0-3.73828-.32324-5.20801-.96875-1.46973-.64648-2.70508-1.55078-3.70605-2.71387-1.00098-1.16211-1.75195-2.55078-2.25293-4.16602s-.7832-3.375-.84766-5.28125c0-1.90527,.29102-3.64941,.87207-5.23242,.58105-1.58203,1.39648-2.95508,2.44629-4.11816,1.0498-1.16211,2.29297-2.06641,3.73047-2.71289,1.4375-.64551,3.01172-.96875,4.72363-.96875,2.22852,0,4.07715,.45996,5.54785,1.38086,1.46875,.9209,2.64746,2.0918,3.53613,3.5127s1.50195,2.97168,1.84082,4.65039c.33984,1.67969,.47656,3.2793,.41211,4.79688h-18.74902c-.03223,1.09863,.09668,2.13965,.3877,3.125,.29004,.98535,.75879,1.85742,1.40527,2.61621,.64551,.75879,1.46875,1.36426,2.4707,1.81641,1,.45312,2.17969,.67871,3.53613,.67871,1.74414,0,3.17383-.4043,4.28809-1.21191,1.11426-.80664,1.84863-2.03418,2.2041-3.68164h4.06934c-.54883,2.80957-1.76074,4.92578-3.63281,6.34668Zm-.99414-16.08496c-.37109-.87207-.87207-1.62305-1.50098-2.25293-.62988-.62988-1.37402-1.12988-2.22949-1.50195-.85547-.37012-1.80078-.55664-2.83398-.55664-1.06543,0-2.02734,.18652-2.88281,.55664-.85547,.37207-1.59082,.88086-2.2041,1.52637-.61328,.64648-1.09863,1.39746-1.45312,2.25293-.35547,.85645-.56543,1.76855-.62988,2.7373h14.38867c-.06445-.96875-.2832-1.88965-.6543-2.76172Z"/>
      </g>
      <g>
        <path class="cls-3" d="M128.59429,526.05321v-11.92773h-4.32031v-1.59668c.56348,0,1.11133-.04297,1.64355-.12891s1.01367-.24609,1.44434-.48145c.43066-.23438,.79395-.55566,1.0918-.96289,.29688-.40625,.50098-.92285,.61035-1.54883h1.52539v16.64648h-1.99512Z"/>
        <path class="cls-15" d="M186.27691,512.95164c.21875-.71973,.55859-1.3418,1.02051-1.86621s1.03711-.93555,1.72559-1.2334c.68945-.29688,1.47168-.44531,2.34766-.44531,.7207,0,1.39746,.10547,2.03125,.31641,.63477,.21191,1.18555,.5166,1.65625,.91602,.46875,.39941,.84082,.89648,1.11523,1.49121,.27344,.59473,.41016,1.2832,.41016,2.06543,0,.73633-.11328,1.38574-.33984,1.94922-.22754,.56348-.5293,1.06836-.9043,1.51465-.37598,.44629-.80664,.84863-1.29102,1.20898-.48633,.36035-.98633,.7041-1.50293,1.0332-.5166,.31348-1.0332,.62207-1.5498,.92676-.5166,.30566-.99023,.63086-1.41992,.97461-.43164,.34473-.79883,.7168-1.10352,1.11523-.30566,.39941-.50586,.85742-.59961,1.37402h8.54688v1.76074h-10.87109c.07812-.98633,.25391-1.82715,.52832-2.52441,.27344-.69629,.62207-1.30273,1.04492-1.81934s.89941-.9707,1.43262-1.36133c.53125-.3916,1.08789-.75977,1.66602-1.10352,.70508-.43848,1.32324-.8418,1.85547-1.20996,.53125-.36719,.97461-.73926,1.32617-1.11523,.35254-.375,.61914-.78223,.79883-1.2207,.17969-.4375,.26953-.94629,.26953-1.52637,0-.45312-.08594-.86426-.25781-1.23242-.17285-.36719-.40332-.68457-.69336-.95117-.28906-.26562-.62988-.46875-1.02148-.61035-.39062-.14062-.80566-.21094-1.24414-.21094-.5791,0-1.07617,.12109-1.49023,.36426-.41504,.24219-.75586,.55957-1.02148,.9502-.2666,.3916-.45801,.83398-.5752,1.32715-.11816,.49316-.16895,.99023-.15332,1.49023h-1.99512c-.04688-.84473,.03809-1.62695,.25879-2.34766Z"/>
        <path class="cls-15" d="M246.84429,516.56786h.65723c.42285,0,.82617-.05859,1.20898-.17676,.38379-.11719,.7207-.28906,1.00977-.5166,.29004-.22656,.52051-.51172,.69336-.85645,.17188-.34375,.25781-.73535,.25781-1.17383,0-.89258-.28125-1.56152-.8457-2.00781-.5625-.44629-1.26758-.66895-2.1123-.66895-.53223,0-.99805,.09766-1.39746,.29297-.39844,.19629-.72754,.45801-.98633,.78711-.25781,.32812-.44922,.71191-.57422,1.15039-.12598,.43848-.18848,.90039-.18848,1.38477h-1.99512c.03125-.79785,.16016-1.52539,.38672-2.18359,.22656-.65723,.55176-1.2207,.97461-1.69043,.42188-.46875,.95117-.83691,1.58496-1.10352,.63379-.26562,1.36523-.39844,2.19531-.39844,.71973,0,1.38867,.08984,2.00684,.26953,.61914,.18066,1.1543,.4502,1.60938,.81055,.45312,.36035,.80957,.82129,1.06836,1.38477,.25781,.56348,.38672,1.22949,.38672,1.99609,0,.75098-.21875,1.41699-.65723,1.99512-.43848,.58008-.98633,1.01855-1.64355,1.31543v.04688c1.01758,.21973,1.77246,.69629,2.26562,1.43262,.49316,.73535,.74023,1.60449,.74023,2.60547,0,.83008-.15332,1.56152-.45898,2.19531-.30469,.63379-.71582,1.16211-1.23242,1.58496-.51562,.42285-1.12305,.74023-1.81934,.95117s-1.43652,.31641-2.21875,.31641c-.84473,0-1.6123-.11719-2.30176-.35156-.68848-.23535-1.27539-.58301-1.75977-1.04492-.48633-.46191-.85742-1.0293-1.11523-1.70215-.25879-.67285-.38086-1.44043-.36426-2.30078h1.99512c.03125,1.08008,.34473,1.95996,.93945,2.64062,.59473,.68164,1.46289,1.02148,2.60645,1.02148,.48535,0,.94629-.07422,1.38574-.22266,.4375-.14844,.82129-.36035,1.15039-.63379,.32812-.27441,.58984-.61035,.78613-1.00977,.19531-.39941,.29395-.84863,.29395-1.35059,0-.51562-.09375-.97363-.28223-1.37305s-.43848-.73535-.75098-1.00977c-.31348-.27344-.68555-.47754-1.11523-.61035-.43164-.13281-.89648-.19922-1.39746-.19922-.42285,0-.82129,.02344-1.19727,.07031v-1.69043c.07812,.01562,.14844,.02344,.21094,.02344Z"/>
        <path class="cls-15" d="M312.01714,520.395v1.76074h-2.25391v3.89746h-1.87891v-3.89746h-7.30176v-1.92578l7.58398-10.82324h1.59668v10.98828h2.25391Zm-4.13281-8.14746h-.04688l-5.54102,8.14746h5.58789v-8.14746Z"/>
        <path class="cls-15" d="M362.78863,511.44872l-.89258,4.79004,.04688,.04688c.36035-.40625,.82617-.70801,1.39746-.90332,.57129-.19629,1.13867-.29395,1.70215-.29395,.73535,0,1.43164,.11719,2.08984,.35254,.65723,.23438,1.22852,.59082,1.71387,1.06836s.86816,1.07227,1.15039,1.78418,.42285,1.5459,.42285,2.5c0,.70508-.12109,1.38965-.36426,2.05469-.24316,.66602-.60645,1.25586-1.0918,1.77246s-1.0918,.92773-1.81934,1.2334c-.72852,.30469-1.57715,.45703-2.54785,.45703-.71973,0-1.39746-.10547-2.03027-.31641-.63477-.21094-1.19434-.5166-1.67969-.91602-.48438-.39941-.86816-.89551-1.15039-1.49023-.28125-.59473-.42969-1.26855-.44531-2.01953h1.99512c.03125,.42285,.1377,.81836,.31738,1.18555,.17969,.36816,.42188,.68848,.72754,.96289,.30566,.27344,.66504,.48535,1.08008,.63379s.87207,.22266,1.37402,.22266c.46875,0,.91895-.08203,1.34961-.24609,.42969-.16406,.80664-.41113,1.12695-.73926,.32031-.3291,.5752-.74023,.76367-1.2334,.1875-.49316,.28125-1.06836,.28125-1.72559,0-.54785-.08984-1.05273-.26953-1.51465-.18066-.46094-.43555-.86035-.76367-1.19727-.32812-.33594-.72461-.59863-1.18555-.78613-.46191-.18848-.97461-.28223-1.53809-.28223-.65723,0-1.24121,.14551-1.74902,.43457-.50879,.29004-.95898,.66895-1.34961,1.13867l-1.71484-.09375,1.5498-8.64062h8.21777v1.76074h-6.71484Z"/>
        <path class="cls-15" d="M428.64898,511.84813c-.48535-.4541-1.12695-.68066-1.9248-.68066-.8457,0-1.52637,.20801-2.04297,.62207-.5166,.41504-.91992,.93945-1.20898,1.57324-.29004,.63379-.49023,1.31836-.59961,2.05469-.10938,.73535-.17188,1.42383-.1875,2.06543l.04688,.04688c.46973-.7666,1.05273-1.32227,1.75-1.66699,.69531-.34375,1.49805-.5166,2.40625-.5166,.79883,0,1.51367,.1377,2.14844,.41113,.63379,.27441,1.16602,.6543,1.5957,1.13867,.43164,.48535,.76367,1.05664,.99805,1.71387,.23535,.6582,.35254,1.37012,.35254,2.13672,0,.61035-.09375,1.24512-.28223,1.90234-.1875,.65723-.49609,1.25586-.92676,1.7959s-1.00195,.98633-1.71387,1.33887c-.71289,.35156-1.59375,.52734-2.6416,.52734-1.2373,0-2.23047-.25-2.98145-.75098-.75195-.50098-1.33105-1.14258-1.73828-1.9248-.40625-.7832-.67676-1.64355-.80957-2.58301-.13379-.93945-.2002-1.84668-.2002-2.72363,0-1.14258,.09766-2.25,.29395-3.32227s.52832-2.02344,.99805-2.85254c.46973-.83008,1.09473-1.49512,1.87793-1.99609s1.76953-.75098,2.95898-.75098c1.37695,0,2.47266,.36328,3.28711,1.0918,.81348,.72754,1.2832,1.78027,1.4082,3.15723h-1.99609c-.09375-.75098-.38281-1.35352-.86816-1.80762Zm-3.61621,5.55273c-.42188,.19629-.78223,.46191-1.08008,.79883-.29688,.33691-.51953,.73535-.66797,1.19727-.14941,.46191-.22363,.95117-.22363,1.46777,0,.51562,.07812,1.00098,.23535,1.45508,.15625,.4541,.37891,.8457,.66797,1.17383,.29004,.3291,.65039,.5918,1.08008,.78711,.43066,.19531,.91992,.29297,1.46777,.29297s1.0293-.09766,1.44434-.29297c.41406-.19531,.76367-.46582,1.04492-.81055,.28125-.34375,.49609-.73926,.64551-1.18555,.14844-.44629,.22363-.91113,.22363-1.39648,0-.5166-.06738-1.00586-.2002-1.46777-.13379-.46191-.34082-.86035-.62207-1.19727s-.63477-.60645-1.05664-.81055c-.42285-.20312-.91602-.30469-1.47949-.30469s-1.05566,.09766-1.47949,.29297Z"/>
        <path class="cls-15" d="M487.58941,514.36082c-.73633,1.14258-1.38867,2.36328-1.96094,3.66211-.57129,1.2998-1.03711,2.6377-1.39648,4.01562-.36035,1.37695-.58008,2.71582-.6582,4.01465h-2.23047c.09375-1.40918,.3252-2.78223,.69336-4.12109,.36719-1.33789,.84082-2.62109,1.41992-3.85059,.5791-1.22852,1.24805-2.39062,2.00781-3.48633s1.57617-2.10449,2.45312-3.02832h-8.73438v-1.87891h10.77734v1.71387c-.8457,.83008-1.63574,1.81641-2.37109,2.95898Z"/>
        <path class="cls-15" d="M538.73687,511.83641c.26562-.52441,.625-.96582,1.0791-1.32617s.97461-.63379,1.56152-.82227c.58691-.1875,1.20117-.28125,1.84375-.28125,.90723,0,1.68164,.12109,2.32422,.36328,.6416,.24316,1.16211,.56348,1.56152,.96289,.39844,.39941,.69238,.85352,.87988,1.3623,.18848,.50879,.28223,1.0293,.28223,1.56055,0,.75195-.20801,1.43652-.62207,2.05469-.41504,.61914-.97461,1.08398-1.67871,1.39746,1.00098,.31348,1.74512,.8252,2.23047,1.53809,.48438,.71191,.72754,1.58398,.72754,2.61719,0,.81445-.14453,1.53418-.43457,2.16016-.28906,.62598-.68066,1.1543-1.17383,1.58496s-1.07617,.75586-1.74902,.97461-1.39355,.32812-2.16016,.32812c-.79785,0-1.54199-.10156-2.23047-.30469-.68945-.20312-1.28809-.5166-1.7959-.93945-.50879-.42285-.9082-.95117-1.19727-1.58496-.29004-.63379-.43457-1.37305-.43457-2.21875,0-.98633,.25-1.84277,.75098-2.57031,.50098-.72852,1.2207-1.25684,2.16016-1.58496-.7041-.28223-1.26758-.74023-1.69043-1.37402s-.63379-1.32617-.63379-2.07812c0-.68848,.13281-1.29492,.39941-1.81934Zm2.12402,11.88086c.66504,.57129,1.51465,.85645,2.54785,.85645,.50098,0,.95898-.08203,1.37402-.24609,.41406-.16406,.77441-.3916,1.0791-.68066,.30566-.29004,.54004-.62988,.70508-1.02148,.16406-.3916,.24609-.82227,.24609-1.29199,0-.45312-.08984-.87207-.26953-1.25586-.18066-.38281-.42676-.71582-.74023-.99805-.3125-.28125-.67676-.50488-1.0918-.66895-.41406-.16406-.85645-.24609-1.32617-.24609-.48535,0-.94336,.07422-1.37402,.22266-.43066,.14941-.80566,.36426-1.12695,.64551-.32031,.28223-.57129,.61914-.75098,1.00977-.17969,.3916-.26953,.83008-.26953,1.31445,0,1.00195,.33203,1.78906,.99707,2.36035Zm-.17578-8.80469c.15625,.33691,.36719,.61426,.63379,.83301,.2666,.21973,.5791,.38379,.93945,.49316,.35938,.10938,.74316,.16406,1.15039,.16406,.79785,0,1.45605-.23438,1.97266-.7041s.77441-1.12695,.77441-1.97168c0-.8457-.2627-1.4834-.78613-1.91406-.52539-.43066-1.19434-.64551-2.00781-.64551-.3916,0-.76758,.05469-1.12695,.16406-.36035,.10938-.66895,.27441-.92773,.49316-.25781,.21973-.46582,.48535-.62207,.79883-.15625,.3125-.23438,.68066-.23438,1.10352,0,.4541,.07812,.84863,.23438,1.18555Z"/>
        <path class="cls-15" d="M595.55034,523.91649c.57812,.43848,1.26758,.65723,2.06543,.65723,1.22168,0,2.13672-.52832,2.74707-1.58496s.94727-2.67188,1.00977-4.84766l-.04688-.04785c-.37598,.70508-.9082,1.26465-1.59668,1.67969-.68848,.41406-1.44043,.62207-2.25391,.62207-.8457,0-1.59668-.13672-2.25391-.41113-.65723-.27344-1.20898-.65332-1.65527-1.13867s-.7832-1.07227-1.00977-1.76074-.34082-1.44043-.34082-2.25391c0-.79883,.13281-1.53027,.39941-2.19531,.2666-.66602,.6416-1.23633,1.12695-1.71484,.48535-.47656,1.06445-.84863,1.7373-1.11523,.67285-.26562,1.40918-.39844,2.20703-.39844,.7832,0,1.51855,.12109,2.20703,.36328,.68945,.24316,1.29199,.66211,1.80859,1.25684s.92676,1.4043,1.23242,2.42969,.45801,2.32812,.45801,3.90918c0,2.88086-.45801,5.0918-1.37402,6.63281-.91504,1.54199-2.38281,2.3125-4.40234,2.3125-1.39258,0-2.55078-.35156-3.47461-1.05566-.92383-.70508-1.44824-1.77637-1.57324-3.2168h1.99609c.07812,.81348,.40625,1.44043,.98633,1.87793Zm5.24707-10.40137c-.14844-.4541-.36816-.85645-.65723-1.20898-.29004-.35254-.64551-.62988-1.06836-.83398-.42285-.20312-.91602-.30469-1.47949-.30469-.59473,0-1.09961,.10938-1.51465,.32812-.41406,.21973-.75098,.51367-1.00879,.88086-.25879,.36816-.44629,.78711-.56348,1.25586-.11816,.46973-.17676,.96289-.17676,1.47949,0,.4541,.08203,.89258,.24707,1.31445,.16406,.42285,.39062,.79883,.68066,1.12793,.28906,.32812,.63379,.59082,1.0332,.78613,.39941,.19629,.84082,.29297,1.32617,.29297,.5166,0,.98633-.09668,1.40918-.29297,.42285-.19531,.78223-.46191,1.08008-.79883,.29688-.33594,.52441-.72754,.68066-1.17383,.15625-.44531,.23438-.91113,.23438-1.39648,0-.5166-.07422-1.00195-.22266-1.45605Z"/>
        <path class="cls-15" d="M656.31792,526.05321v-11.92773h-4.32031v-1.59668c.56348,0,1.11133-.04297,1.64355-.12891,.53125-.08594,1.0127-.24609,1.44336-.48145,.43066-.23438,.79492-.55566,1.0918-.96289,.29785-.40625,.50098-.92285,.61035-1.54883h1.52637v16.64648h-1.99512Z"/>
        <path class="cls-15" d="M664.04253,515.98094c.03125-.6582,.10938-1.2998,.23438-1.92578s.30566-1.2207,.54004-1.78418c.23535-.56348,.55566-1.05664,.96289-1.47949s.91895-.75879,1.53809-1.00977c.61816-.25,1.35742-.375,2.21875-.375,.86035,0,1.60059,.125,2.21875,.375,.61816,.25098,1.13086,.58691,1.53809,1.00977,.40625,.42285,.72754,.91602,.96191,1.47949,.23535,.56348,.41504,1.1582,.54004,1.78418,.12598,.62598,.2041,1.26758,.23535,1.92578,.03125,.65723,.04688,1.29102,.04688,1.90137s-.01562,1.24414-.04688,1.90234c-.03125,.65723-.10938,1.29883-.23535,1.9248-.125,.62598-.30469,1.21777-.54004,1.77246-.23438,.55566-.55566,1.04492-.96191,1.46777-.40723,.42285-.91602,.75488-1.52637,.99805-.61035,.24219-1.35449,.36328-2.23047,.36328-.86133,0-1.60059-.12109-2.21875-.36328-.61914-.24316-1.13086-.5752-1.53809-.99805s-.72754-.91211-.96289-1.46777c-.23438-.55469-.41504-1.14648-.54004-1.77246s-.20312-1.26758-.23438-1.9248c-.03125-.6582-.04688-1.29199-.04688-1.90234s.01562-1.24414,.04688-1.90137Zm2.125,3.97949c.03906,.77441,.16406,1.50293,.375,2.18359,.21191,.68066,.55176,1.25586,1.02148,1.72559s1.12695,.7041,1.97266,.7041c.84473,0,1.50293-.23438,1.97168-.7041,.46973-.46973,.81055-1.04492,1.02148-1.72559,.21191-.68066,.33691-1.40918,.37598-2.18359,.03906-.77539,.05859-1.47559,.05859-2.10156,0-.40723-.00391-.85645-.01172-1.34961s-.04688-.98633-.11719-1.47949-.17285-.97461-.30566-1.44434-.32812-.87988-.58691-1.23242c-.25781-.35254-.58301-.6377-.97363-.85742-.3916-.21875-.86914-.32812-1.43262-.32812s-1.04102,.10938-1.43262,.32812c-.3916,.21973-.71582,.50488-.97363,.85742-.25879,.35254-.45508,.7627-.58789,1.23242s-.23438,.95117-.30469,1.44434-.10938,.98633-.11719,1.47949c-.00879,.49316-.01172,.94238-.01172,1.34961,0,.62598,.01953,1.32617,.05859,2.10156Z"/>
        <path class="cls-15" d="M716.4273,526.05321v-11.92773h-4.32031v-1.59668c.56348,0,1.11133-.04297,1.64355-.12891,.53125-.08594,1.0127-.24609,1.44336-.48145,.43066-.23438,.79492-.55566,1.0918-.96289,.29785-.40625,.50098-.92285,.61035-1.54883h1.52637v16.64648h-1.99512Z"/>
        <path class="cls-15" d="M729.48199,526.05321v-11.92773h-4.32031v-1.59668c.56348,0,1.11133-.04297,1.64355-.12891,.53125-.08594,1.0127-.24609,1.44336-.48145,.43066-.23438,.79492-.55566,1.0918-.96289,.29785-.40625,.50098-.92285,.61035-1.54883h1.52637v16.64648h-1.99512Z"/>
        <path class="cls-3" d="M776.28374,526.05321v-11.92773h-4.32031v-1.59668c.56348,0,1.11133-.04297,1.64355-.12891,.53125-.08594,1.0127-.24609,1.44336-.48145,.43066-.23438,.79492-.55566,1.0918-.96289,.29785-.40625,.50098-.92285,.61035-1.54883h1.52637v16.64648h-1.99512Z"/>
        <path class="cls-3" d="M784.26617,512.95164c.21973-.71973,.55957-1.3418,1.02148-1.86621s1.03711-.93555,1.72559-1.2334c.68848-.29688,1.47168-.44531,2.34863-.44531,.71973,0,1.39648,.10547,2.03027,.31641,.63379,.21191,1.18555,.5166,1.65527,.91602s.8418,.89648,1.11523,1.49121c.27441,.59473,.41113,1.2832,.41113,2.06543,0,.73633-.11328,1.38574-.33984,1.94922-.22754,.56348-.52832,1.06836-.9043,1.51465s-.80664,.84863-1.29102,1.20898c-.48535,.36035-.98633,.7041-1.50293,1.0332-.5166,.31348-1.0332,.62207-1.5498,.92676-.5166,.30566-.99023,.63086-1.4209,.97461-.43066,.34473-.79785,.7168-1.10352,1.11523-.30469,.39941-.50488,.85742-.59863,1.37402h8.54688v1.76074h-10.87109c.07812-.98633,.25391-1.82715,.52832-2.52441,.27344-.69629,.62207-1.30273,1.04492-1.81934s.89941-.9707,1.43262-1.36133c.53125-.3916,1.08691-.75977,1.66699-1.10352,.7041-.43848,1.32227-.8418,1.85449-1.20996,.53223-.36719,.97461-.73926,1.32617-1.11523,.35254-.375,.61816-.78223,.79883-1.2207,.17969-.4375,.26953-.94629,.26953-1.52637,0-.45312-.08594-.86426-.25781-1.23242-.17285-.36719-.40332-.68457-.69238-.95117-.29004-.26562-.63086-.46875-1.02148-.61035-.3916-.14062-.80664-.21094-1.24512-.21094-.5791,0-1.07617,.12109-1.49023,.36426-.41504,.24219-.75586,.55957-1.02148,.9502-.2666,.3916-.45801,.83398-.5752,1.32715s-.16895,.99023-.15234,1.49023h-1.99609c-.04688-.84473,.03906-1.62695,.25781-2.34766Z"/>
        <path class="cls-3" d="M834.45757,526.05321v-11.92773h-4.32031v-1.59668c.56348,0,1.11133-.04297,1.64355-.12891,.53125-.08594,1.0127-.24609,1.44336-.48145,.43066-.23438,.79492-.55566,1.0918-.96289,.29785-.40625,.50098-.92285,.61035-1.54883h1.52637v16.64648h-1.99512Z"/>
        <path class="cls-3" d="M846.47906,516.56786h.65723c.42285,0,.8252-.05859,1.20898-.17676,.38379-.11719,.71973-.28906,1.00977-.5166,.28906-.22656,.52051-.51172,.69238-.85645,.17188-.34375,.25879-.73535,.25879-1.17383,0-.89258-.28223-1.56152-.8457-2.00781s-1.26758-.66895-2.11328-.66895c-.53223,0-.99805,.09766-1.39648,.29297-.39941,.19629-.72852,.45801-.98633,.78711-.25879,.32812-.4502,.71191-.5752,1.15039-.12598,.43848-.1875,.90039-.1875,1.38477h-1.99609c.03125-.79785,.16016-1.52539,.3877-2.18359,.22656-.65723,.55176-1.2207,.97363-1.69043,.42285-.46875,.95117-.83691,1.58496-1.10352,.63379-.26562,1.36621-.39844,2.19531-.39844,.71973,0,1.38965,.08984,2.00781,.26953,.61816,.18066,1.1543,.4502,1.6084,.81055s.80957,.82129,1.06836,1.38477c.25781,.56348,.3877,1.22949,.3877,1.99609,0,.75098-.21973,1.41699-.6582,1.99512-.43848,.58008-.98535,1.01855-1.64355,1.31543v.04688c1.01758,.21973,1.77344,.69629,2.26562,1.43262,.49316,.73535,.74023,1.60449,.74023,2.60547,0,.83008-.15234,1.56152-.45801,2.19531s-.71582,1.16211-1.23242,1.58496-1.12402,.74023-1.82031,.95117-1.43555,.31641-2.21875,.31641c-.84473,0-1.6123-.11719-2.30078-.35156-.68848-.23535-1.27539-.58301-1.76074-1.04492s-.85742-1.0293-1.11523-1.70215c-.25879-.67285-.37988-1.44043-.36426-2.30078h1.99609c.03125,1.08008,.34375,1.95996,.93945,2.64062,.59473,.68164,1.46289,1.02148,2.60547,1.02148,.48535,0,.94727-.07422,1.38574-.22266,.4375-.14844,.82129-.36035,1.15039-.63379,.3291-.27441,.59082-.61035,.78613-1.00977,.19629-.39941,.29395-.84863,.29395-1.35059,0-.51562-.09375-.97363-.28223-1.37305-.1875-.39941-.4375-.73535-.75098-1.00977-.31348-.27344-.68457-.47754-1.11523-.61035s-.89648-.19922-1.39648-.19922c-.42285,0-.82227,.02344-1.19824,.07031v-1.69043c.07812,.01562,.14844,.02344,.21191,.02344Z"/>
        <path class="cls-3" d="M888.9771,526.05321v-11.92773h-4.32031v-1.59668c.56348,0,1.11133-.04297,1.64355-.12891,.53125-.08594,1.0127-.24609,1.44336-.48145,.43066-.23438,.79492-.55566,1.0918-.96289,.29785-.40625,.50098-.92285,.61035-1.54883h1.52637v16.64648h-1.99512Z"/>
        <path class="cls-3" d="M907.76031,520.395v1.76074h-2.25391v3.89746h-1.87793v-3.89746h-7.30273v-1.92578l7.58398-10.82324h1.59668v10.98828h2.25391Zm-4.13184-8.14746h-.04785l-5.54102,8.14746h5.58887v-8.14746Z"/>
        <path class="cls-3" d="M938.69878,526.05321v-11.92773h-4.32031v-1.59668c.56348,0,1.11133-.04297,1.64355-.12891,.53125-.08594,1.0127-.24609,1.44336-.48145,.43066-.23438,.79492-.55566,1.0918-.96289,.29785-.40625,.50098-.92285,.61035-1.54883h1.52637v16.64648h-1.99512Z"/>
        <path class="cls-3" d="M949.7105,511.44872l-.89258,4.79004,.04688,.04688c.36035-.40625,.82617-.70801,1.39746-.90332,.57129-.19629,1.13867-.29395,1.70215-.29395,.73535,0,1.43262,.11719,2.08984,.35254,.65723,.23438,1.22852,.59082,1.71387,1.06836s.86816,1.07227,1.15039,1.78418,.42285,1.5459,.42285,2.5c0,.70508-.12207,1.38965-.36426,2.05469-.24316,.66602-.60645,1.25586-1.0918,1.77246s-1.0918,.92773-1.81934,1.2334c-.72852,.30469-1.57715,.45703-2.54785,.45703-.71973,0-1.39648-.10547-2.03125-.31641-.63379-.21094-1.19336-.5166-1.67871-.91602s-.86816-.89551-1.15039-1.49023c-.28125-.59473-.43066-1.26855-.44629-2.01953h1.99609c.03125,.42285,.13672,.81836,.31738,1.18555,.17969,.36816,.42188,.68848,.72754,.96289,.30566,.27344,.66504,.48535,1.08008,.63379s.87207,.22266,1.37402,.22266c.46875,0,.91895-.08203,1.34961-.24609s.80566-.41113,1.12695-.73926c.32031-.3291,.5752-.74023,.7627-1.2334,.18848-.49316,.28223-1.06836,.28223-1.72559,0-.54785-.08984-1.05273-.27051-1.51465-.17969-.46094-.43359-.86035-.7627-1.19727-.3291-.33594-.72461-.59863-1.18555-.78613-.46191-.18848-.97461-.28223-1.53809-.28223-.65723,0-1.24023,.14551-1.74902,.43457-.50879,.29004-.95898,.66895-1.35059,1.13867l-1.71387-.09375,1.5498-8.64062h8.21777v1.76074h-6.71484Z"/>
      </g>
      <g>
        <path class="cls-3" d="M68.33159,211.61864l-1.15527,6.19824,.06152,.06055c.46484-.52637,1.06836-.91602,1.80664-1.16895,.74023-.25391,1.47461-.37988,2.20312-.37988,.95215,0,1.85352,.15137,2.70508,.45508,.85059,.30469,1.58984,.76562,2.21777,1.38281,.62793,.61816,1.12402,1.3877,1.48926,2.30957,.36426,.92188,.54688,2,.54688,3.23535,0,.91211-.1582,1.79883-.4707,2.65918-.31445,.86133-.78613,1.62598-1.41406,2.29395-.62695,.66895-1.41211,1.2002-2.35449,1.5957-.94238,.39453-2.04102,.5918-3.2959,.5918-.93262,0-1.80859-.13672-2.62891-.41016s-1.54492-.66797-2.17188-1.18457c-.62891-.5166-1.125-1.15918-1.49023-1.92969-.36328-.76953-.55664-1.64062-.57617-2.61328h2.58203c.04102,.54688,.17773,1.05859,.41016,1.53418,.23242,.47656,.54688,.8916,.94238,1.24609s.86035,.62793,1.39746,.82031c.53711,.19336,1.12891,.28906,1.77734,.28906,.60742,0,1.18945-.10645,1.74805-.31934,.55664-.21289,1.04297-.53125,1.45801-.95703s.74414-.95703,.9873-1.59473c.24316-.63867,.36523-1.38281,.36523-2.2334,0-.70898-.11719-1.3623-.34961-1.95996-.2334-.59766-.5625-1.11426-.98828-1.5498s-.9375-.77441-1.53418-1.01758c-.59766-.24316-1.26074-.36523-1.99023-.36523-.85059,0-1.60547,.1875-2.26367,.5625s-1.24121,.86621-1.74707,1.47363l-2.21875-.12207,2.00586-11.18164h10.63477v2.2793h-8.68945Z"/>
        <path class="cls-3" d="M96.10308,214.80907v2.30957h.06055c1.17383-1.78223,2.86523-2.67383,5.07422-2.67383,.97266,0,1.85352,.20215,2.64258,.60742,.79102,.40527,1.34766,1.09375,1.67188,2.06641,.52637-.85156,1.2207-1.50879,2.08203-1.97559,.85938-.46582,1.80664-.69824,2.83984-.69824,.79102,0,1.50391,.08594,2.14258,.25781,.63867,.17285,1.18555,.44043,1.64062,.80566,.45605,.36426,.81055,.83496,1.06348,1.41211,.25293,.57812,.37988,1.27148,.37988,2.08203v11.51562h-2.58203v-10.30078c0-.48633-.04102-.94141-.12207-1.36719-.08105-.4248-.2334-.79492-.45605-1.10938-.22266-.31348-.53125-.56152-.92676-.74414-.39453-.18164-.90723-.27344-1.53418-.27344-1.27637,0-2.2793,.36523-3.00781,1.09375-.72949,.72949-1.09375,1.70215-1.09375,2.91699v9.78418h-2.58301v-10.30078c0-.50586-.0459-.97168-.13672-1.39746s-.24902-.79492-.47168-1.10938c-.22266-.31348-.52148-.55664-.89648-.72852s-.85547-.25879-1.44238-.25879c-.75,0-1.39355,.15234-1.92969,.45605-.53711,.30371-.97168,.66797-1.30664,1.09375-.33398,.42578-.57715,.86621-.72949,1.32129-.15137,.45605-.22754,.83594-.22754,1.13965v9.78418h-2.58301v-15.70898h2.43164Z"/>
        <path class="cls-3" d="M78.38824,282.30711v2.2793h-2.91602v5.04395h-2.43164v-5.04395h-9.44922v-2.49121l9.81445-14.00781h2.06641v14.21973h2.91602Zm-5.34766-10.54297h-.06055l-7.1709,10.54297h7.23145v-10.54297Z"/>
        <path class="cls-3" d="M69.63824,336.46825h.84961c.54688,0,1.06836-.07617,1.56543-.22754,.49609-.15234,.93164-.375,1.30664-.66895,.37402-.29297,.67285-.66309,.89648-1.10938,.22266-.44531,.33398-.95117,.33398-1.51855,0-1.15527-.36426-2.02051-1.09375-2.59863-.72949-.57715-1.64062-.86523-2.73535-.86523-.68848,0-1.29102,.12598-1.80664,.37988-.51758,.25293-.94238,.5918-1.27734,1.01758-.33398,.4248-.58203,.92188-.74414,1.48828-.16211,.56738-.24219,1.16504-.24219,1.79297h-2.58398c.04102-1.0332,.20801-1.97461,.50195-2.8252,.29297-.85156,.71387-1.58008,1.26172-2.18848,.54688-.60742,1.23047-1.08301,2.05078-1.42773,.82031-.34375,1.7666-.5166,2.83984-.5166,.93164,0,1.79785,.11719,2.59863,.34961,.7998,.2334,1.49316,.58203,2.08105,1.04785,.58789,.4668,1.04883,1.06348,1.38281,1.79297s.50195,1.59082,.50195,2.58301c0,.97168-.28516,1.83301-.85156,2.58203-.56738,.75-1.27539,1.31738-2.12695,1.70215v.06055c1.31641,.28418,2.29395,.90137,2.93164,1.85352,.63867,.95215,.95703,2.07617,.95703,3.37305,0,1.07324-.19727,2.02051-.5918,2.84082s-.92676,1.50391-1.5957,2.05078c-.66797,.54688-1.45312,.95703-2.35449,1.23047s-1.8584,.41016-2.87109,.41016c-1.09375,0-2.08691-.15137-2.97754-.45508-.89258-.30469-1.65137-.75488-2.2793-1.35254s-1.10938-1.33203-1.44336-2.20312c-.33398-.87012-.49121-1.86328-.4707-2.97754h2.58203c.04102,1.39746,.44531,2.53711,1.21582,3.41797,.77051,.88184,1.89355,1.32227,3.37305,1.32227,.62793,0,1.22559-.0957,1.79199-.28906,.56738-.19238,1.06445-.46582,1.48926-.82031,.42578-.35449,.76465-.79004,1.01855-1.30664,.25195-.5166,.37891-1.09863,.37891-1.74707,0-.66797-.12109-1.26074-.36426-1.77734s-.56738-.95215-.97168-1.30664c-.40625-.35449-.88672-.61719-1.44336-.79004-.55762-.17188-1.16016-.25781-1.80859-.25781-.54688,0-1.06348,.03027-1.54883,.09082v-2.1875c.10059,.02051,.19141,.03027,.27344,.03027Z"/>
        <path class="cls-3" d="M64.41167,390.90086c.2832-.93164,.72363-1.73633,1.32129-2.41504s1.3418-1.21094,2.2334-1.5957c.89062-.38477,1.9043-.57715,3.03906-.57715,.93164,0,1.80762,.13672,2.62793,.41016s1.53418,.66895,2.1416,1.18555c.6084,.51562,1.08887,1.15918,1.44336,1.92871,.35449,.77051,.53223,1.66113,.53223,2.67383,0,.95312-.14746,1.79297-.44043,2.52246-.29395,.72949-.68359,1.38281-1.16992,1.95996s-1.04297,1.09863-1.67188,1.56445c-.62695,.46582-1.27539,.91113-1.94336,1.33691-.66895,.40527-1.33789,.80566-2.00586,1.2002-.66895,.39551-1.28125,.81543-1.83789,1.26074-.55859,.44629-1.0332,.92676-1.42871,1.44336s-.65332,1.10938-.77441,1.77734h11.05957v2.2793h-14.06836c.10156-1.27637,.3291-2.36523,.68457-3.2666,.35352-.90137,.80469-1.68652,1.35156-2.35449,.54688-.66895,1.16406-1.25586,1.85352-1.7627,.68848-.50586,1.4082-.98242,2.15723-1.42773,.91113-.56738,1.71191-1.08887,2.40039-1.56445,.68848-.47656,1.26074-.95801,1.7168-1.44336,.45605-.48633,.7998-1.0127,1.0332-1.58008,.23242-.56738,.34863-1.22559,.34863-1.97559,0-.58691-.11133-1.11914-.33398-1.59473s-.52148-.88574-.89648-1.23047-.81445-.6084-1.32129-.79004c-.50684-.18262-1.04395-.27344-1.61035-.27344-.75,0-1.39258,.15723-1.92969,.4707-.53711,.31445-.97754,.72461-1.32129,1.23047-.34473,.50684-.59277,1.0791-.74512,1.7168-.15137,.6377-.2168,1.28125-.19727,1.92969h-2.58203c-.06055-1.09375,.0498-2.10645,.33398-3.03906Z"/>
        <path class="cls-3" d="M70.97417,466.96825v-15.43555h-5.58984v-2.06641c.72852,0,1.4375-.05566,2.12695-.16699,.6875-.11133,1.31055-.31934,1.86816-.62305,.55664-.30371,1.02832-.71875,1.41309-1.24512,.38477-.52734,.64844-1.19531,.78906-2.00586h1.97559v21.54297h-2.58301Z"/>
        <path class="cls-3" d="M64.07769,513.04539c.04004-.85059,.14062-1.68066,.30273-2.49121s.39551-1.58008,.69922-2.30957c.30469-.72949,.71875-1.36719,1.24609-1.91406,.52637-.54688,1.18945-.98242,1.99023-1.30664,.7998-.32422,1.75684-.48633,2.87109-.48633s2.07129,.16211,2.87109,.48633c.80078,.32422,1.46387,.75977,1.99023,1.30664,.52734,.54688,.94238,1.18457,1.24609,1.91406,.30469,.72949,.53711,1.49902,.69922,2.30957s.2627,1.64062,.30371,2.49121c.04004,.85059,.06055,1.6709,.06055,2.46094s-.02051,1.61035-.06055,2.46191c-.04102,.85059-.1416,1.68066-.30371,2.49121s-.39453,1.5752-.69922,2.29395c-.30371,.71973-.71875,1.35254-1.24609,1.89941-.52637,.54688-1.18457,.97754-1.97461,1.29102s-1.75195,.4707-2.88672,.4707c-1.11426,0-2.07129-.15723-2.87109-.4707-.80078-.31348-1.46387-.74414-1.99023-1.29102-.52734-.54688-.94141-1.17969-1.24609-1.89941-.30371-.71875-.53711-1.4834-.69922-2.29395s-.2627-1.64062-.30273-2.49121c-.04102-.85156-.06055-1.67188-.06055-2.46191s.01953-1.61035,.06055-2.46094Zm2.75,5.15039c.0498,1.00293,.21191,1.94434,.48535,2.8252,.27344,.88184,.71387,1.62598,1.32129,2.2334,.6084,.6084,1.45898,.91211,2.55273,.91211s1.94531-.30371,2.55273-.91211c.60742-.60742,1.04883-1.35156,1.32227-2.2334,.27344-.88086,.43457-1.82227,.48535-2.8252,.0498-1.00293,.07617-1.90918,.07617-2.71973,0-.52637-.00488-1.10938-.01465-1.74707-.01172-.6377-.06152-1.27637-.15234-1.91406-.0918-.63867-.22266-1.26074-.39453-1.86914-.17285-.60742-.42578-1.13867-.75977-1.59473-.33496-.45605-.75586-.8252-1.26172-1.10938-.50586-.2832-1.12402-.4248-1.85352-.4248-.72852,0-1.34766,.1416-1.85352,.4248-.50586,.28418-.92578,.65332-1.26074,1.10938-.33398,.45605-.58789,.9873-.75977,1.59473-.17285,.6084-.30371,1.23047-.39551,1.86914-.08984,.6377-.14062,1.27637-.15137,1.91406s-.01465,1.2207-.01465,1.74707c0,.81055,.02539,1.7168,.07617,2.71973Z"/>
        <path class="cls-3" d="M96.10308,510.37157v2.30957h.06055c1.17383-1.78223,2.86523-2.67383,5.07422-2.67383,.97266,0,1.85352,.20215,2.64258,.60742,.79102,.40527,1.34766,1.09375,1.67188,2.06641,.52637-.85156,1.2207-1.50879,2.08203-1.97559,.85938-.46582,1.80664-.69824,2.83984-.69824,.79102,0,1.50391,.08594,2.14258,.25781,.63867,.17285,1.18555,.44043,1.64062,.80566,.45605,.36426,.81055,.83496,1.06348,1.41211,.25293,.57812,.37988,1.27148,.37988,2.08203v11.51562h-2.58203v-10.30078c0-.48633-.04102-.94141-.12207-1.36719-.08105-.4248-.2334-.79492-.45605-1.10938-.22266-.31348-.53125-.56152-.92676-.74414-.39453-.18164-.90723-.27344-1.53418-.27344-1.27637,0-2.2793,.36523-3.00781,1.09375-.72949,.72949-1.09375,1.70215-1.09375,2.91699v9.78418h-2.58301v-10.30078c0-.50586-.0459-.97168-.13672-1.39746s-.24902-.79492-.47168-1.10938c-.22266-.31348-.52148-.55664-.89648-.72852s-.85547-.25879-1.44238-.25879c-.75,0-1.39355,.15234-1.92969,.45605-.53711,.30371-.97168,.66797-1.30664,1.09375-.33398,.42578-.57715,.86621-.72949,1.32129-.15137,.45605-.22754,.83594-.22754,1.13965v9.78418h-2.58301v-15.70898h2.43164Z"/>
        <path class="cls-3" d="M70.97417,585.19383v-15.43555h-5.58984v-2.06641c.72852,0,1.4375-.05566,2.12695-.16699,.6875-.11133,1.31055-.31934,1.86816-.62305,.55664-.30371,1.02832-.71875,1.41309-1.24512,.38477-.52734,.64844-1.19531,.78906-2.00586h1.97559v21.54297h-2.58301Z"/>
        <path class="cls-3" d="M64.41167,627.35106c.2832-.93164,.72363-1.73633,1.32129-2.41504s1.3418-1.21094,2.2334-1.5957c.89062-.38477,1.9043-.57715,3.03906-.57715,.93164,0,1.80762,.13672,2.62793,.41016s1.53418,.66895,2.1416,1.18555c.6084,.51562,1.08887,1.15918,1.44336,1.92871,.35449,.77051,.53223,1.66113,.53223,2.67383,0,.95312-.14746,1.79297-.44043,2.52246-.29395,.72949-.68359,1.38281-1.16992,1.95996s-1.04297,1.09863-1.67188,1.56445c-.62695,.46582-1.27539,.91113-1.94336,1.33691-.66895,.40527-1.33789,.80566-2.00586,1.2002-.66895,.39551-1.28125,.81543-1.83789,1.26074-.55859,.44629-1.0332,.92676-1.42871,1.44336s-.65332,1.10938-.77441,1.77734h11.05957v2.2793h-14.06836c.10156-1.27637,.3291-2.36523,.68457-3.2666,.35352-.90137,.80469-1.68652,1.35156-2.35449,.54688-.66895,1.16406-1.25586,1.85352-1.7627,.68848-.50586,1.4082-.98242,2.15723-1.42773,.91113-.56738,1.71191-1.08887,2.40039-1.56445,.68848-.47656,1.26074-.95801,1.7168-1.44336,.45605-.48633,.7998-1.0127,1.0332-1.58008,.23242-.56738,.34863-1.22559,.34863-1.97559,0-.58691-.11133-1.11914-.33398-1.59473s-.52148-.88574-.89648-1.23047-.81445-.6084-1.32129-.79004c-.50684-.18262-1.04395-.27344-1.61035-.27344-.75,0-1.39258,.15723-1.92969,.4707-.53711,.31445-.97754,.72461-1.32129,1.23047-.34473,.50684-.59277,1.0791-.74512,1.7168-.15137,.6377-.2168,1.28125-.19727,1.92969h-2.58203c-.06055-1.09375,.0498-2.10645,.33398-3.03906Z"/>
        <path class="cls-3" d="M69.63824,691.14305h.84961c.54688,0,1.06836-.07617,1.56543-.22754,.49609-.15234,.93164-.375,1.30664-.66895,.37402-.29297,.67285-.66309,.89648-1.10938,.22266-.44531,.33398-.95117,.33398-1.51855,0-1.15527-.36426-2.02051-1.09375-2.59863-.72949-.57715-1.64062-.86523-2.73535-.86523-.68848,0-1.29102,.12598-1.80664,.37988-.51758,.25293-.94238,.5918-1.27734,1.01758-.33398,.4248-.58203,.92188-.74414,1.48828-.16211,.56738-.24219,1.16504-.24219,1.79297h-2.58398c.04102-1.0332,.20801-1.97461,.50195-2.8252,.29297-.85156,.71387-1.58008,1.26172-2.18848,.54688-.60742,1.23047-1.08301,2.05078-1.42773,.82031-.34375,1.7666-.5166,2.83984-.5166,.93164,0,1.79785,.11719,2.59863,.34961,.7998,.2334,1.49316,.58203,2.08105,1.04785,.58789,.4668,1.04883,1.06348,1.38281,1.79297s.50195,1.59082,.50195,2.58301c0,.97168-.28516,1.83301-.85156,2.58203-.56738,.75-1.27539,1.31738-2.12695,1.70215v.06055c1.31641,.28418,2.29395,.90137,2.93164,1.85352,.63867,.95215,.95703,2.07617,.95703,3.37305,0,1.07324-.19727,2.02051-.5918,2.84082s-.92676,1.50391-1.5957,2.05078c-.66797,.54688-1.45312,.95703-2.35449,1.23047s-1.8584,.41016-2.87109,.41016c-1.09375,0-2.08691-.15137-2.97754-.45508-.89258-.30469-1.65137-.75488-2.2793-1.35254s-1.10938-1.33203-1.44336-2.20312c-.33398-.87012-.49121-1.86328-.4707-2.97754h2.58203c.04102,1.39746,.44531,2.53711,1.21582,3.41797,.77051,.88184,1.89355,1.32227,3.37305,1.32227,.62793,0,1.22559-.0957,1.79199-.28906,.56738-.19238,1.06445-.46582,1.48926-.82031,.42578-.35449,.76465-.79004,1.01855-1.30664,.25195-.5166,.37891-1.09863,.37891-1.74707,0-.66797-.12109-1.26074-.36426-1.77734s-.56738-.95215-.97168-1.30664c-.40625-.35449-.88672-.61719-1.44336-.79004-.55762-.17188-1.16016-.25781-1.80859-.25781-.54688,0-1.06348,.03027-1.54883,.09082v-2.1875c.10059,.02051,.19141,.03027,.27344,.03027Z"/>
        <path class="cls-3" d="M78.38824,755.2075v2.2793h-2.91602v5.04395h-2.43164v-5.04395h-9.44922v-2.49121l9.81445-14.00781h2.06641v14.21973h2.91602Zm-5.34766-10.54297h-.06055l-7.1709,10.54297h7.23145v-10.54297Z"/>
        <path class="cls-3" d="M68.33159,802.74461l-1.15527,6.19824,.06152,.06055c.46484-.52637,1.06836-.91602,1.80664-1.16895,.74023-.25391,1.47461-.37988,2.20312-.37988,.95215,0,1.85352,.15137,2.70508,.45508,.85059,.30469,1.58984,.76562,2.21777,1.38281,.62793,.61816,1.12402,1.3877,1.48926,2.30957,.36426,.92188,.54688,2,.54688,3.23535,0,.91211-.1582,1.79883-.4707,2.65918-.31445,.86133-.78613,1.62598-1.41406,2.29395-.62695,.66895-1.41211,1.2002-2.35449,1.5957-.94238,.39453-2.04102,.5918-3.2959,.5918-.93262,0-1.80859-.13672-2.62891-.41016s-1.54492-.66797-2.17188-1.18457c-.62891-.5166-1.125-1.15918-1.49023-1.92969-.36328-.76953-.55664-1.64062-.57617-2.61328h2.58203c.04102,.54688,.17773,1.05859,.41016,1.53418,.23242,.47656,.54688,.8916,.94238,1.24609s.86035,.62793,1.39746,.82031c.53711,.19336,1.12891,.28906,1.77734,.28906,.60742,0,1.18945-.10645,1.74805-.31934,.55664-.21289,1.04297-.53125,1.45801-.95703s.74414-.95703,.9873-1.59473c.24316-.63867,.36523-1.38281,.36523-2.2334,0-.70898-.11719-1.3623-.34961-1.95996-.2334-.59766-.5625-1.11426-.98828-1.5498s-.9375-.77441-1.53418-1.01758c-.59766-.24316-1.26074-.36523-1.99023-.36523-.85059,0-1.60547,.1875-2.26367,.5625s-1.24121,.86621-1.74707,1.47363l-2.21875-.12207,2.00586-11.18164h10.63477v2.2793h-8.68945Z"/>
        <path class="cls-3" d="M96.10308,805.93504v2.30957h.06055c1.17383-1.78223,2.86523-2.67383,5.07422-2.67383,.97266,0,1.85352,.20215,2.64258,.60742,.79102,.40527,1.34766,1.09375,1.67188,2.06641,.52637-.85156,1.2207-1.50879,2.08203-1.97559,.85938-.46582,1.80664-.69824,2.83984-.69824,.79102,0,1.50391,.08594,2.14258,.25781,.63867,.17285,1.18555,.44043,1.64062,.80566,.45605,.36426,.81055,.83496,1.06348,1.41211,.25293,.57812,.37988,1.27148,.37988,2.08203v11.51562h-2.58203v-10.30078c0-.48633-.04102-.94141-.12207-1.36719-.08105-.4248-.2334-.79492-.45605-1.10938-.22266-.31348-.53125-.56152-.92676-.74414-.39453-.18164-.90723-.27344-1.53418-.27344-1.27637,0-2.2793,.36523-3.00781,1.09375-.72949,.72949-1.09375,1.70215-1.09375,2.91699v9.78418h-2.58301v-10.30078c0-.50586-.0459-.97168-.13672-1.39746s-.24902-.79492-.47168-1.10938c-.22266-.31348-.52148-.55664-.89648-.72852s-.85547-.25879-1.44238-.25879c-.75,0-1.39355,.15234-1.92969,.45605-.53711,.30371-.97168,.66797-1.30664,1.09375-.33398,.42578-.57715,.86621-.72949,1.32129-.15137,.45605-.22754,.83594-.22754,1.13965v9.78418h-2.58301v-15.70898h2.43164Z"/>
      </g>
      <g>
        <rect class="cls-3" x="845.06381" y="888.69555" width="40.26628" height="16.99131"/>
        <rect class="cls-10" x="845.06381" y="845.63256" width="40.26628" height="16.99131"/>
        <rect class="cls-14" x="845.06381" y="802.56956" width="40.26628" height="16.99131"/>
        <rect class="cls-9" x="845.06381" y="759.50657" width="40.26628" height="16.99131"/>
        <rect class="cls-12" x="845.06381" y="716.44358" width="40.26628" height="16.99131"/>
        <rect class="cls-13" x="845.06381" y="673.38059" width="40.26628" height="16.99131"/>
        <rect class="cls-11" x="845.06381" y="630.31759" width="40.26628" height="16.99131"/>
        <g>
          <path class="cls-3" d="M905.86773,630.58055l-.99707,5.35352,.05273,.05273c.40234-.45508,.92285-.79199,1.56152-1.01074s1.27246-.32812,1.90234-.32812c.82227,0,1.60059,.13086,2.33594,.39355,.73438,.2627,1.37305,.66113,1.91504,1.19434s.9707,1.19824,1.28613,1.99414c.31445,.7959,.47266,1.72754,.47266,2.79492,0,.78711-.13574,1.55273-.40723,2.2959-.27148,.74414-.67773,1.4043-1.2207,1.98145-.54199,.57715-1.21973,1.03613-2.0332,1.37793-.81348,.34082-1.7627,.51172-2.84766,.51172-.80469,0-1.56055-.11816-2.26953-.35449-.70801-.23633-1.33398-.57715-1.87598-1.02344-.54297-.44629-.9707-1.00098-1.28613-1.66602-.31445-.66504-.48145-1.41797-.49902-2.25684h2.23145c.03418,.47168,.15234,.91406,.35352,1.3252s.47266,.76953,.81348,1.0752c.3418,.30664,.74414,.54297,1.20703,.70898,.46387,.16602,.97559,.24902,1.53516,.24902,.52539,0,1.02832-.0918,1.50879-.27539,.48145-.18359,.90137-.45898,1.25977-.82617,.3584-.36816,.64355-.82715,.85352-1.37793,.20996-.55176,.31445-1.19434,.31445-1.92871,0-.6123-.10059-1.17676-.30176-1.69238-.20117-.5166-.48535-.96191-.85254-1.33887-.36719-.37598-.80957-.66895-1.3252-.87891-.5166-.20996-1.08887-.31543-1.71875-.31543-.73535,0-1.38672,.16211-1.95508,.48633-.56934,.32324-1.07227,.74707-1.50879,1.27246l-1.91602-.10547,1.73242-9.65625h9.18457v1.96777h-7.50586Z"/>
          <path class="cls-3" d="M930.1148,628.16649v18.73633h-2.23047v-18.73633h2.23047Z"/>
          <path class="cls-3" d="M944.28472,646.90282v-2.15137h-.05273c-.47168,.83887-1.0752,1.45605-1.81055,1.84961-.73438,.39355-1.60059,.59082-2.59766,.59082-.89258,0-1.63574-.11816-2.23047-.35449s-1.07617-.57324-1.44336-1.01074c-.36719-.43652-.62598-.95801-.77441-1.56152s-.22266-1.27246-.22266-2.00684v-8.92188h2.23047v9.18359c0,.83984,.24414,1.50488,.73438,1.99512,.49023,.48926,1.16309,.73438,2.02051,.73438,.68262,0,1.27344-.10449,1.77148-.31445,.49902-.20996,.91406-.50781,1.24707-.89258,.33203-.38477,.58105-.83496,.74707-1.35156,.16602-.51562,.25-1.08008,.25-1.69238v-7.66211h2.23047v13.56641h-2.09961Z"/>
          <path class="cls-3" d="M950.24077,633.33641h2.86035l3.25391,4.74902,3.38477-4.74902h2.67676l-4.6709,6.24512,5.24902,7.32129h-2.86035l-3.7793-5.61523-3.77832,5.61523h-2.70312l5.09082-7.1377-4.72363-6.42871Z"/>
          <path class="cls-3" d="M908.15093,689.63133v-13.33105h-4.82812v-1.78418c.62988,0,1.24219-.04785,1.83691-.14453,.59473-.0957,1.13184-.27539,1.61328-.53809,.48145-.26172,.8877-.62012,1.2207-1.0752,.33203-.45508,.55957-1.03223,.68262-1.73242h1.70508v18.60547h-2.23047Z"/>
          <path class="cls-3" d="M918.35796,678.37352c.03516-.73438,.12207-1.45215,.2627-2.15137,.13965-.7002,.34082-1.36523,.60352-1.99414,.2627-.62988,.62109-1.18164,1.07617-1.65332,.4541-.47266,1.02734-.84863,1.71875-1.12891,.69043-.2793,1.51758-.41992,2.47949-.41992s1.78906,.14062,2.48047,.41992c.69043,.28027,1.26367,.65625,1.71875,1.12891,.4541,.47168,.81348,1.02344,1.0752,1.65332,.2627,.62891,.46387,1.29395,.60352,1.99414,.14062,.69922,.22754,1.41699,.2627,2.15137,.03516,.73535,.05273,1.44336,.05273,2.12598,0,.68164-.01758,1.39062-.05273,2.125-.03516,.73535-.12207,1.45312-.2627,2.15234-.13965,.7002-.34082,1.36035-.60352,1.98145-.26172,.62109-.62109,1.16699-1.0752,1.63965-.45508,.47266-1.02344,.84473-1.70605,1.11523-.68262,.27148-1.51367,.40723-2.49316,.40723-.96191,0-1.78906-.13574-2.47949-.40723-.69141-.27051-1.26465-.64258-1.71875-1.11523-.45508-.47266-.81348-1.01855-1.07617-1.63965s-.46387-1.28125-.60352-1.98145c-.14062-.69922-.22754-1.41699-.2627-2.15234-.03516-.73438-.05176-1.44336-.05176-2.125,0-.68262,.0166-1.39062,.05176-2.12598Zm2.375,4.44824c.04395,.86621,.18359,1.67969,.41992,2.44043s.61719,1.4043,1.1416,1.92871,1.25977,.78711,2.2041,.78711c.94531,0,1.67969-.2627,2.2041-.78711,.52539-.52441,.90527-1.16797,1.1416-1.92871s.37598-1.57422,.41992-2.44043,.06543-1.64844,.06543-2.34863c0-.45508-.00391-.95801-.0127-1.50879-.00879-.55176-.05273-1.10254-.13086-1.65332-.0791-.55078-.19336-1.08887-.3418-1.61426-.14844-.52441-.36719-.9834-.65527-1.37695-.28906-.39453-.65234-.71289-1.08984-.95801s-.9707-.36719-1.60059-.36719-1.16309,.12207-1.60059,.36719-.7998,.56348-1.08887,.95801c-.28906,.39355-.50781,.85254-.65625,1.37695-.14844,.52539-.2627,1.06348-.34082,1.61426-.0791,.55078-.12305,1.10156-.13184,1.65332-.00879,.55078-.0127,1.05371-.0127,1.50879,0,.7002,.02148,1.48242,.06543,2.34863Z"/>
          <path class="cls-3" d="M946.27886,670.895v18.73633h-2.23047v-18.73633h2.23047Z"/>
          <path class="cls-3" d="M960.44878,689.63133v-2.15137h-.05273c-.47168,.83887-1.0752,1.45605-1.81055,1.84961-.73438,.39355-1.60059,.59082-2.59766,.59082-.89258,0-1.63574-.11816-2.23047-.35449s-1.07617-.57324-1.44336-1.01074c-.36719-.43652-.62598-.95801-.77441-1.56152s-.22266-1.27246-.22266-2.00684v-8.92188h2.23047v9.18359c0,.83984,.24414,1.50488,.73438,1.99512,.49023,.48926,1.16309,.73438,2.02051,.73438,.68262,0,1.27344-.10449,1.77148-.31445,.49902-.20996,.91406-.50781,1.24707-.89258,.33203-.38477,.58105-.83496,.74707-1.35156,.16602-.51562,.25-1.08008,.25-1.69238v-7.66211h2.23047v13.56641h-2.09961Z"/>
          <path class="cls-3" d="M966.40484,676.06493h2.86035l3.25391,4.74902,3.38477-4.74902h2.67676l-4.6709,6.24512,5.24902,7.32129h-2.86035l-3.7793-5.61523-3.77832,5.61523h-2.70312l5.09082-7.1377-4.72363-6.42871Z"/>
          <path class="cls-3" d="M902.48296,717.71727c.24512-.80469,.625-1.5,1.1416-2.08594,.51562-.58594,1.1582-1.0459,1.92871-1.37793,.76953-.33203,1.64453-.49902,2.62402-.49902,.80469,0,1.56152,.11816,2.26953,.35449,.70898,.23633,1.3252,.57715,1.85059,1.02344,.52441,.44629,.94043,1.00195,1.24609,1.66602,.30566,.66504,.45898,1.43457,.45898,2.30957,0,.82227-.12695,1.54785-.37988,2.17773-.25391,.62988-.59082,1.19434-1.01074,1.69238-.41992,.49902-.90137,.94922-1.44336,1.35156-.54199,.40332-1.10156,.78809-1.67871,1.15527-.57812,.34961-1.15527,.69531-1.73242,1.03613s-1.10645,.7041-1.58789,1.08887c-.48145,.38574-.8916,.80078-1.2334,1.24707-.34082,.44531-.56348,.95703-.66895,1.53516h9.55176v1.96777h-12.14941c.08691-1.10254,.28418-2.04199,.59082-2.82129,.30566-.77832,.69531-1.45605,1.16699-2.0332,.47266-.57715,1.00586-1.08496,1.60059-1.52246,.59473-.43652,1.21582-.84766,1.86328-1.2334,.78711-.48926,1.47852-.93945,2.07324-1.35156,.59473-.41016,1.08887-.82617,1.48242-1.24609s.69141-.875,.89258-1.36426c.20117-.49023,.30176-1.05859,.30176-1.70605,0-.50684-.09668-.9668-.28906-1.37793-.19238-.41016-.4502-.76465-.77344-1.0625-.32422-.29688-.70508-.52441-1.1416-.68262-.4375-.15723-.90137-.23535-1.39062-.23535-.64746,0-1.20312,.13574-1.66699,.40625-.46387,.27148-.84375,.62598-1.1416,1.0625-.29688,.4375-.51172,.93164-.64258,1.4834-.13086,.55078-.18848,1.10645-.1709,1.66602h-2.23047c-.05176-.94434,.04395-1.81934,.28906-2.62402Z"/>
          <path class="cls-3" d="M918.35796,721.10204c.03516-.73438,.12207-1.45215,.2627-2.15137,.13965-.7002,.34082-1.36523,.60352-1.99414,.2627-.62988,.62109-1.18164,1.07617-1.65332,.4541-.47266,1.02734-.84863,1.71875-1.12891,.69043-.2793,1.51758-.41992,2.47949-.41992s1.78906,.14062,2.48047,.41992c.69043,.28027,1.26367,.65625,1.71875,1.12891,.4541,.47168,.81348,1.02344,1.0752,1.65332,.2627,.62891,.46387,1.29395,.60352,1.99414,.14062,.69922,.22754,1.41699,.2627,2.15137,.03516,.73535,.05273,1.44336,.05273,2.12598,0,.68164-.01758,1.39062-.05273,2.125-.03516,.73535-.12207,1.45312-.2627,2.15234-.13965,.7002-.34082,1.36035-.60352,1.98145-.26172,.62109-.62109,1.16699-1.0752,1.63965-.45508,.47266-1.02344,.84473-1.70605,1.11523-.68262,.27148-1.51367,.40723-2.49316,.40723-.96191,0-1.78906-.13574-2.47949-.40723-.69141-.27051-1.26465-.64258-1.71875-1.11523-.45508-.47266-.81348-1.01855-1.07617-1.63965s-.46387-1.28125-.60352-1.98145c-.14062-.69922-.22754-1.41699-.2627-2.15234-.03516-.73438-.05176-1.44336-.05176-2.125,0-.68262,.0166-1.39062,.05176-2.12598Zm2.375,4.44824c.04395,.86621,.18359,1.67969,.41992,2.44043s.61719,1.4043,1.1416,1.92871,1.25977,.78711,2.2041,.78711c.94531,0,1.67969-.2627,2.2041-.78711,.52539-.52441,.90527-1.16797,1.1416-1.92871s.37598-1.57422,.41992-2.44043,.06543-1.64844,.06543-2.34863c0-.45508-.00391-.95801-.0127-1.50879-.00879-.55176-.05273-1.10254-.13086-1.65332-.0791-.55078-.19336-1.08887-.3418-1.61426-.14844-.52441-.36719-.9834-.65527-1.37695-.28906-.39453-.65234-.71289-1.08984-.95801s-.9707-.36719-1.60059-.36719-1.16309,.12207-1.60059,.36719-.7998,.56348-1.08887,.95801c-.28906,.39355-.50781,.85254-.65625,1.37695-.14844,.52539-.2627,1.06348-.34082,1.61426-.0791,.55078-.12305,1.10156-.13184,1.65332-.00879,.55078-.0127,1.05371-.0127,1.50879,0,.7002,.02148,1.48242,.06543,2.34863Z"/>
          <path class="cls-3" d="M946.27886,713.62352v18.73633h-2.23047v-18.73633h2.23047Z"/>
          <path class="cls-3" d="M960.44878,732.35985v-2.15137h-.05273c-.47168,.83887-1.0752,1.45605-1.81055,1.84961-.73438,.39355-1.60059,.59082-2.59766,.59082-.89258,0-1.63574-.11816-2.23047-.35449s-1.07617-.57324-1.44336-1.01074c-.36719-.43652-.62598-.95801-.77441-1.56152s-.22266-1.27246-.22266-2.00684v-8.92188h2.23047v9.18359c0,.83984,.24414,1.50488,.73438,1.99512,.49023,.48926,1.16309,.73438,2.02051,.73438,.68262,0,1.27344-.10449,1.77148-.31445,.49902-.20996,.91406-.50781,1.24707-.89258,.33203-.38477,.58105-.83496,.74707-1.35156,.16602-.51562,.25-1.08008,.25-1.69238v-7.66211h2.23047v13.56641h-2.09961Z"/>
          <path class="cls-3" d="M966.40484,718.79344h2.86035l3.25391,4.74902,3.38477-4.74902h2.67676l-4.6709,6.24512,5.24902,7.32129h-2.86035l-3.7793-5.61523-3.77832,5.61523h-2.70312l5.09082-7.1377-4.72363-6.42871Z"/>
          <path class="cls-3" d="M914.55425,768.76512v1.96777h-2.51953v4.35645h-2.09961v-4.35645h-8.16113v-2.15137l8.47656-12.09766h1.78418v12.28125h2.51953Zm-4.61914-9.10547h-.05176l-6.19336,9.10547h6.24512v-9.10547Z"/>
          <path class="cls-3" d="M918.35796,763.83153c.03516-.73438,.12207-1.45215,.2627-2.15137,.13965-.7002,.34082-1.36523,.60352-1.99414,.2627-.62988,.62109-1.18164,1.07617-1.65332,.4541-.47266,1.02734-.84863,1.71875-1.12891,.69043-.2793,1.51758-.41992,2.47949-.41992s1.78906,.14062,2.48047,.41992c.69043,.28027,1.26367,.65625,1.71875,1.12891,.4541,.47168,.81348,1.02344,1.0752,1.65332,.2627,.62891,.46387,1.29395,.60352,1.99414,.14062,.69922,.22754,1.41699,.2627,2.15137,.03516,.73535,.05273,1.44336,.05273,2.12598,0,.68164-.01758,1.39062-.05273,2.125-.03516,.73535-.12207,1.45312-.2627,2.15234-.13965,.7002-.34082,1.36035-.60352,1.98145-.26172,.62109-.62109,1.16699-1.0752,1.63965-.45508,.47266-1.02344,.84473-1.70605,1.11523-.68262,.27148-1.51367,.40723-2.49316,.40723-.96191,0-1.78906-.13574-2.47949-.40723-.69141-.27051-1.26465-.64258-1.71875-1.11523-.45508-.47266-.81348-1.01855-1.07617-1.63965s-.46387-1.28125-.60352-1.98145c-.14062-.69922-.22754-1.41699-.2627-2.15234-.03516-.73438-.05176-1.44336-.05176-2.125,0-.68262,.0166-1.39062,.05176-2.12598Zm2.375,4.44824c.04395,.86621,.18359,1.67969,.41992,2.44043s.61719,1.4043,1.1416,1.92871,1.25977,.78711,2.2041,.78711c.94531,0,1.67969-.2627,2.2041-.78711,.52539-.52441,.90527-1.16797,1.1416-1.92871s.37598-1.57422,.41992-2.44043,.06543-1.64844,.06543-2.34863c0-.45508-.00391-.95801-.0127-1.50879-.00879-.55176-.05273-1.10254-.13086-1.65332-.0791-.55078-.19336-1.08887-.3418-1.61426-.14844-.52441-.36719-.9834-.65527-1.37695-.28906-.39453-.65234-.71289-1.08984-.95801s-.9707-.36719-1.60059-.36719-1.16309,.12207-1.60059,.36719-.7998,.56348-1.08887,.95801c-.28906,.39355-.50781,.85254-.65625,1.37695-.14844,.52539-.2627,1.06348-.34082,1.61426-.0791,.55078-.12305,1.10156-.13184,1.65332-.00879,.55078-.0127,1.05371-.0127,1.50879,0,.7002,.02148,1.48242,.06543,2.34863Z"/>
          <path class="cls-3" d="M946.27886,756.35301v18.73633h-2.23047v-18.73633h2.23047Z"/>
          <path class="cls-3" d="M960.44878,775.08934v-2.15137h-.05273c-.47168,.83887-1.0752,1.45605-1.81055,1.84961-.73438,.39355-1.60059,.59082-2.59766,.59082-.89258,0-1.63574-.11816-2.23047-.35449s-1.07617-.57324-1.44336-1.01074c-.36719-.43652-.62598-.95801-.77441-1.56152s-.22266-1.27246-.22266-2.00684v-8.92188h2.23047v9.18359c0,.83984,.24414,1.50488,.73438,1.99512,.49023,.48926,1.16309,.73438,2.02051,.73438,.68262,0,1.27344-.10449,1.77148-.31445,.49902-.20996,.91406-.50781,1.24707-.89258,.33203-.38477,.58105-.83496,.74707-1.35156,.16602-.51562,.25-1.08008,.25-1.69238v-7.66211h2.23047v13.56641h-2.09961Z"/>
          <path class="cls-3" d="M966.40484,761.52293h2.86035l3.25391,4.74902,3.38477-4.74902h2.67676l-4.6709,6.24512,5.24902,7.32129h-2.86035l-3.7793-5.61523-3.77832,5.61523h-2.70312l5.09082-7.1377-4.72363-6.42871Z"/>
          <path class="cls-3" d="M910.93218,801.94188c-.54199-.50781-1.25879-.76074-2.15137-.76074-.94434,0-1.70605,.23145-2.2832,.69531s-1.02734,1.0498-1.35156,1.75781c-.32324,.70898-.54688,1.47363-.66895,2.2959-.12207,.82324-.19238,1.59277-.20996,2.30957l.05273,.05273c.52441-.85742,1.17676-1.47852,1.95508-1.86328s1.6748-.57715,2.68945-.57715c.89258,0,1.69238,.15332,2.40137,.45898,.70801,.30664,1.30273,.73047,1.78418,1.27246,.48145,.54297,.85254,1.18066,1.11523,1.91602,.2627,.73438,.39355,1.53125,.39355,2.3877,0,.68262-.10449,1.39062-.31445,2.12598-.20996,.73438-.55566,1.40332-1.03711,2.00684s-1.11914,1.10254-1.91504,1.49609c-.79688,.39355-1.78027,.59082-2.95215,.59082-1.38281,0-2.49316-.28027-3.33301-.83984s-1.4873-1.27734-1.94141-2.15234c-.45508-.87402-.75684-1.83691-.90527-2.88672-.14941-1.04883-.22363-2.06348-.22363-3.04395,0-1.27637,.10938-2.51465,.32812-3.71289s.59082-2.26074,1.11523-3.18848c.52441-.92676,1.22461-1.66992,2.09961-2.23047,.87402-.55957,1.97656-.83984,3.30664-.83984,1.53906,0,2.76367,.40723,3.67383,1.2207,.90918,.81348,1.43359,1.99023,1.57422,3.5293h-2.23047c-.10547-.83984-.42871-1.5127-.97168-2.02051Zm-4.04102,6.20605c-.47168,.21875-.875,.5166-1.20703,.89258s-.58203,.82227-.74805,1.33789c-.16602,.5166-.24902,1.0625-.24902,1.63965,0,.57812,.08789,1.12012,.2627,1.62695,.1748,.50781,.42383,.94531,.74805,1.3125,.32324,.36719,.72559,.66016,1.20703,.87891,.48047,.21875,1.02734,.32812,1.63965,.32812s1.15039-.10938,1.61426-.32812c.46289-.21875,.85254-.52051,1.16797-.90527,.31445-.38477,.55469-.82617,.72168-1.3252,.16602-.49805,.24902-1.01855,.24902-1.56152,0-.57715-.0752-1.12402-.22363-1.63965s-.37988-.96191-.69531-1.33887c-.31445-.37598-.70801-.67773-1.18066-.90527-.47266-.22656-1.02344-.34082-1.65332-.34082s-1.18066,.10938-1.65332,.32812Z"/>
          <path class="cls-3" d="M918.35796,806.56004c.03516-.73438,.12207-1.45215,.2627-2.15137,.13965-.7002,.34082-1.36523,.60352-1.99414,.2627-.62988,.62109-1.18164,1.07617-1.65332,.4541-.47266,1.02734-.84863,1.71875-1.12891,.69043-.2793,1.51758-.41992,2.47949-.41992s1.78906,.14062,2.48047,.41992c.69043,.28027,1.26367,.65625,1.71875,1.12891,.4541,.47168,.81348,1.02344,1.0752,1.65332,.2627,.62891,.46387,1.29395,.60352,1.99414,.14062,.69922,.22754,1.41699,.2627,2.15137,.03516,.73535,.05273,1.44336,.05273,2.12598,0,.68164-.01758,1.39062-.05273,2.125-.03516,.73535-.12207,1.45312-.2627,2.15234-.13965,.7002-.34082,1.36035-.60352,1.98145-.26172,.62109-.62109,1.16699-1.0752,1.63965-.45508,.47266-1.02344,.84473-1.70605,1.11523-.68262,.27148-1.51367,.40723-2.49316,.40723-.96191,0-1.78906-.13574-2.47949-.40723-.69141-.27051-1.26465-.64258-1.71875-1.11523-.45508-.47266-.81348-1.01855-1.07617-1.63965s-.46387-1.28125-.60352-1.98145c-.14062-.69922-.22754-1.41699-.2627-2.15234-.03516-.73438-.05176-1.44336-.05176-2.125,0-.68262,.0166-1.39062,.05176-2.12598Zm2.375,4.44824c.04395,.86621,.18359,1.67969,.41992,2.44043s.61719,1.4043,1.1416,1.92871,1.25977,.78711,2.2041,.78711c.94531,0,1.67969-.2627,2.2041-.78711,.52539-.52441,.90527-1.16797,1.1416-1.92871s.37598-1.57422,.41992-2.44043,.06543-1.64844,.06543-2.34863c0-.45508-.00391-.95801-.0127-1.50879-.00879-.55176-.05273-1.10254-.13086-1.65332-.0791-.55078-.19336-1.08887-.3418-1.61426-.14844-.52441-.36719-.9834-.65527-1.37695-.28906-.39453-.65234-.71289-1.08984-.95801s-.9707-.36719-1.60059-.36719-1.16309,.12207-1.60059,.36719-.7998,.56348-1.08887,.95801c-.28906,.39355-.50781,.85254-.65625,1.37695-.14844,.52539-.2627,1.06348-.34082,1.61426-.0791,.55078-.12305,1.10156-.13184,1.65332-.00879,.55078-.0127,1.05371-.0127,1.50879,0,.7002,.02148,1.48242,.06543,2.34863Z"/>
          <path class="cls-3" d="M946.27886,799.08153v18.73633h-2.23047v-18.73633h2.23047Z"/>
          <path class="cls-3" d="M960.44878,817.81786v-2.15137h-.05273c-.47168,.83887-1.0752,1.45605-1.81055,1.84961-.73438,.39355-1.60059,.59082-2.59766,.59082-.89258,0-1.63574-.11816-2.23047-.35449s-1.07617-.57324-1.44336-1.01074c-.36719-.43652-.62598-.95801-.77441-1.56152s-.22266-1.27246-.22266-2.00684v-8.92188h2.23047v9.18359c0,.83984,.24414,1.50488,.73438,1.99512,.49023,.48926,1.16309,.73438,2.02051,.73438,.68262,0,1.27344-.10449,1.77148-.31445,.49902-.20996,.91406-.50781,1.24707-.89258,.33203-.38477,.58105-.83496,.74707-1.35156,.16602-.51562,.25-1.08008,.25-1.69238v-7.66211h2.23047v13.56641h-2.09961Z"/>
          <path class="cls-3" d="M966.40484,804.25145h2.86035l3.25391,4.74902,3.38477-4.74902h2.67676l-4.6709,6.24512,5.24902,7.32129h-2.86035l-3.7793-5.61523-3.77832,5.61523h-2.70312l5.09082-7.1377-4.72363-6.42871Z"/>
          <path class="cls-3" d="M903.19097,844.65672c.29785-.58594,.7002-1.08008,1.20801-1.48242,.50684-.40234,1.08887-.70801,1.74414-.91797,.65625-.20996,1.34277-.31543,2.06055-.31543,1.01465,0,1.87988,.13574,2.59766,.40723,.7168,.27148,1.29883,.62988,1.74512,1.0752,.44629,.44629,.77441,.9541,.98438,1.52246s.31445,1.15039,.31445,1.74512c0,.83984-.23145,1.60547-.69531,2.2959-.46387,.69141-1.08887,1.21191-1.87598,1.56152,1.11914,.35059,1.9502,.92285,2.49316,1.71875,.54199,.7959,.81348,1.77148,.81348,2.92578,0,.91016-.16211,1.71484-.48633,2.41406-.32324,.7002-.76074,1.29102-1.31152,1.77148-.55078,.48145-1.20312,.84473-1.95508,1.08887-.75195,.24512-1.55762,.36816-2.41406,.36816-.89258,0-1.72363-.11426-2.49316-.3418-.76953-.22656-1.43945-.57715-2.00781-1.0498-.56836-.47168-1.01465-1.0625-1.33789-1.77051-.32422-.70898-.48535-1.53516-.48535-2.48047,0-1.10156,.2793-2.05957,.83984-2.87305,.55957-.81348,1.36426-1.4043,2.41406-1.77148-.78711-.31445-1.41699-.82617-1.88965-1.53516-.47266-.70801-.70801-1.48242-.70801-2.32227,0-.76953,.14844-1.44727,.44531-2.03418Zm2.375,13.27832c.74414,.63867,1.69336,.95801,2.84766,.95801,.55957,0,1.07129-.0918,1.53516-.27539,.46289-.18359,.86621-.4375,1.20703-.76074,.34082-.32422,.60352-.7041,.78711-1.1416s.27539-.91895,.27539-1.44336c0-.50781-.10059-.97559-.30176-1.4043s-.47656-.7998-.82617-1.11523c-.35059-.31445-.75684-.56445-1.2207-.74805s-.95801-.27539-1.48242-.27539c-.54297,0-1.05371,.08301-1.53516,.25-.48145,.16602-.90137,.40625-1.25977,.7207-.3584,.31543-.63867,.69141-.83984,1.12891s-.30176,.92773-.30176,1.46973c0,1.11914,.37207,1.99902,1.11523,2.63672Zm-.19629-9.83984c.1748,.37598,.41016,.68652,.70801,.93066,.29785,.24609,.64746,.42969,1.0498,.55176s.83105,.18359,1.28613,.18359c.8916,0,1.62695-.2627,2.2041-.78711,.57715-.52539,.86621-1.25977,.86621-2.2041,0-.94531-.29297-1.6582-.87891-2.13867-.58691-.48145-1.33496-.72168-2.24414-.72168-.4375,0-.85742,.06152-1.25977,.18359s-.74805,.30566-1.03613,.55078c-.28906,.24512-.52051,.54199-.69531,.89258-.17578,.34961-.2627,.76074-.2627,1.2334,0,.50684,.08691,.94922,.2627,1.3252Z"/>
          <path class="cls-3" d="M918.35796,849.28856c.03516-.73438,.12207-1.45215,.2627-2.15137,.13965-.7002,.34082-1.36523,.60352-1.99414,.2627-.62988,.62109-1.18164,1.07617-1.65332,.4541-.47266,1.02734-.84863,1.71875-1.12891,.69043-.2793,1.51758-.41992,2.47949-.41992s1.78906,.14062,2.48047,.41992c.69043,.28027,1.26367,.65625,1.71875,1.12891,.4541,.47168,.81348,1.02344,1.0752,1.65332,.2627,.62891,.46387,1.29395,.60352,1.99414,.14062,.69922,.22754,1.41699,.2627,2.15137,.03516,.73535,.05273,1.44336,.05273,2.12598,0,.68164-.01758,1.39062-.05273,2.125-.03516,.73535-.12207,1.45312-.2627,2.15234-.13965,.7002-.34082,1.36035-.60352,1.98145-.26172,.62109-.62109,1.16699-1.0752,1.63965-.45508,.47266-1.02344,.84473-1.70605,1.11523-.68262,.27148-1.51367,.40723-2.49316,.40723-.96191,0-1.78906-.13574-2.47949-.40723-.69141-.27051-1.26465-.64258-1.71875-1.11523-.45508-.47266-.81348-1.01855-1.07617-1.63965s-.46387-1.28125-.60352-1.98145c-.14062-.69922-.22754-1.41699-.2627-2.15234-.03516-.73438-.05176-1.44336-.05176-2.125,0-.68262,.0166-1.39062,.05176-2.12598Zm2.375,4.44824c.04395,.86621,.18359,1.67969,.41992,2.44043s.61719,1.4043,1.1416,1.92871,1.25977,.78711,2.2041,.78711c.94531,0,1.67969-.2627,2.2041-.78711,.52539-.52441,.90527-1.16797,1.1416-1.92871s.37598-1.57422,.41992-2.44043,.06543-1.64844,.06543-2.34863c0-.45508-.00391-.95801-.0127-1.50879-.00879-.55176-.05273-1.10254-.13086-1.65332-.0791-.55078-.19336-1.08887-.3418-1.61426-.14844-.52441-.36719-.9834-.65527-1.37695-.28906-.39453-.65234-.71289-1.08984-.95801s-.9707-.36719-1.60059-.36719-1.16309,.12207-1.60059,.36719-.7998,.56348-1.08887,.95801c-.28906,.39355-.50781,.85254-.65625,1.37695-.14844,.52539-.2627,1.06348-.34082,1.61426-.0791,.55078-.12305,1.10156-.13184,1.65332-.00879,.55078-.0127,1.05371-.0127,1.50879,0,.7002,.02148,1.48242,.06543,2.34863Z"/>
          <path class="cls-3" d="M946.27886,841.81004v18.73633h-2.23047v-18.73633h2.23047Z"/>
          <path class="cls-3" d="M960.44878,860.54637v-2.15137h-.05273c-.47168,.83887-1.0752,1.45605-1.81055,1.84961-.73438,.39355-1.60059,.59082-2.59766,.59082-.89258,0-1.63574-.11816-2.23047-.35449s-1.07617-.57324-1.44336-1.01074c-.36719-.43652-.62598-.95801-.77441-1.56152s-.22266-1.27246-.22266-2.00684v-8.92188h2.23047v9.18359c0,.83984,.24414,1.50488,.73438,1.99512,.49023,.48926,1.16309,.73438,2.02051,.73438,.68262,0,1.27344-.10449,1.77148-.31445,.49902-.20996,.91406-.50781,1.24707-.89258,.33203-.38477,.58105-.83496,.74707-1.35156,.16602-.51562,.25-1.08008,.25-1.69238v-7.66211h2.23047v13.56641h-2.09961Z"/>
          <path class="cls-3" d="M966.40484,846.97997h2.86035l3.25391,4.74902,3.38477-4.74902h2.67676l-4.6709,6.24512,5.24902,7.32129h-2.86035l-3.7793-5.61523-3.77832,5.61523h-2.70312l5.09082-7.1377-4.72363-6.42871Z"/>
          <path class="cls-3" d="M908.15093,903.27489v-13.33105h-4.82812v-1.78418c.62988,0,1.24219-.04785,1.83691-.14453,.59473-.0957,1.13184-.27539,1.61328-.53809,.48145-.26172,.8877-.62012,1.2207-1.0752,.33203-.45508,.55957-1.03223,.68262-1.73242h1.70508v18.60547h-2.23047Z"/>
          <path class="cls-3" d="M918.35796,892.01707c.03516-.73438,.12207-1.45215,.2627-2.15137,.13965-.7002,.34082-1.36523,.60352-1.99414,.2627-.62988,.62109-1.18164,1.07617-1.65332,.4541-.47266,1.02734-.84863,1.71875-1.12891,.69043-.2793,1.51758-.41992,2.47949-.41992s1.78906,.14062,2.48047,.41992c.69043,.28027,1.26367,.65625,1.71875,1.12891,.4541,.47168,.81348,1.02344,1.0752,1.65332,.2627,.62891,.46387,1.29395,.60352,1.99414,.14062,.69922,.22754,1.41699,.2627,2.15137,.03516,.73535,.05273,1.44336,.05273,2.12598,0,.68164-.01758,1.39062-.05273,2.125-.03516,.73535-.12207,1.45312-.2627,2.15234-.13965,.7002-.34082,1.36035-.60352,1.98145-.26172,.62109-.62109,1.16699-1.0752,1.63965-.45508,.47266-1.02344,.84473-1.70605,1.11523-.68262,.27148-1.51367,.40723-2.49316,.40723-.96191,0-1.78906-.13574-2.47949-.40723-.69141-.27051-1.26465-.64258-1.71875-1.11523-.45508-.47266-.81348-1.01855-1.07617-1.63965s-.46387-1.28125-.60352-1.98145c-.14062-.69922-.22754-1.41699-.2627-2.15234-.03516-.73438-.05176-1.44336-.05176-2.125,0-.68262,.0166-1.39062,.05176-2.12598Zm2.375,4.44824c.04395,.86621,.18359,1.67969,.41992,2.44043s.61719,1.4043,1.1416,1.92871,1.25977,.78711,2.2041,.78711c.94531,0,1.67969-.2627,2.2041-.78711,.52539-.52441,.90527-1.16797,1.1416-1.92871s.37598-1.57422,.41992-2.44043,.06543-1.64844,.06543-2.34863c0-.45508-.00391-.95801-.0127-1.50879-.00879-.55176-.05273-1.10254-.13086-1.65332-.0791-.55078-.19336-1.08887-.3418-1.61426-.14844-.52441-.36719-.9834-.65527-1.37695-.28906-.39453-.65234-.71289-1.08984-.95801s-.9707-.36719-1.60059-.36719-1.16309,.12207-1.60059,.36719-.7998,.56348-1.08887,.95801c-.28906,.39355-.50781,.85254-.65625,1.37695-.14844,.52539-.2627,1.06348-.34082,1.61426-.0791,.55078-.12305,1.10156-.13184,1.65332-.00879,.55078-.0127,1.05371-.0127,1.50879,0,.7002,.02148,1.48242,.06543,2.34863Z"/>
          <path class="cls-3" d="M934.523,892.01707c.03516-.73438,.12207-1.45215,.2627-2.15137,.13965-.7002,.34082-1.36523,.60352-1.99414,.2627-.62988,.62109-1.18164,1.07617-1.65332,.4541-.47266,1.02734-.84863,1.71875-1.12891,.69043-.2793,1.51758-.41992,2.47949-.41992s1.78906,.14062,2.48047,.41992c.69043,.28027,1.26367,.65625,1.71875,1.12891,.4541,.47168,.81348,1.02344,1.0752,1.65332,.2627,.62891,.46387,1.29395,.60352,1.99414,.14062,.69922,.22754,1.41699,.2627,2.15137,.03516,.73535,.05273,1.44336,.05273,2.12598,0,.68164-.01758,1.39062-.05273,2.125-.03516,.73535-.12207,1.45312-.2627,2.15234-.13965,.7002-.34082,1.36035-.60352,1.98145-.26172,.62109-.62109,1.16699-1.0752,1.63965-.45508,.47266-1.02344,.84473-1.70605,1.11523-.68262,.27148-1.51367,.40723-2.49316,.40723-.96191,0-1.78906-.13574-2.47949-.40723-.69141-.27051-1.26465-.64258-1.71875-1.11523-.45508-.47266-.81348-1.01855-1.07617-1.63965s-.46387-1.28125-.60352-1.98145c-.14062-.69922-.22754-1.41699-.2627-2.15234-.03516-.73438-.05176-1.44336-.05176-2.125,0-.68262,.0166-1.39062,.05176-2.12598Zm2.375,4.44824c.04395,.86621,.18359,1.67969,.41992,2.44043s.61719,1.4043,1.1416,1.92871,1.25977,.78711,2.2041,.78711c.94531,0,1.67969-.2627,2.2041-.78711,.52539-.52441,.90527-1.16797,1.1416-1.92871s.37598-1.57422,.41992-2.44043,.06543-1.64844,.06543-2.34863c0-.45508-.00391-.95801-.0127-1.50879-.00879-.55176-.05273-1.10254-.13086-1.65332-.0791-.55078-.19336-1.08887-.3418-1.61426-.14844-.52441-.36719-.9834-.65527-1.37695-.28906-.39453-.65234-.71289-1.08984-.95801s-.9707-.36719-1.60059-.36719-1.16309,.12207-1.60059,.36719-.7998,.56348-1.08887,.95801c-.28906,.39355-.50781,.85254-.65625,1.37695-.14844,.52539-.2627,1.06348-.34082,1.61426-.0791,.55078-.12305,1.10156-.13184,1.65332-.00879,.55078-.0127,1.05371-.0127,1.50879,0,.7002,.02148,1.48242,.06543,2.34863Z"/>
          <path class="cls-3" d="M962.44292,884.53856v18.73633h-2.23047v-18.73633h2.23047Z"/>
          <path class="cls-3" d="M976.61284,903.27489v-2.15137h-.05273c-.47168,.83887-1.0752,1.45605-1.81055,1.84961-.73438,.39355-1.60059,.59082-2.59766,.59082-.89258,0-1.63574-.11816-2.23047-.35449s-1.07617-.57324-1.44336-1.01074c-.36719-.43652-.62598-.95801-.77441-1.56152s-.22266-1.27246-.22266-2.00684v-8.92188h2.23047v9.18359c0,.83984,.24414,1.50488,.73438,1.99512,.49023,.48926,1.16309,.73438,2.02051,.73438,.68262,0,1.27344-.10449,1.77148-.31445,.49902-.20996,.91406-.50781,1.24707-.89258,.33203-.38477,.58105-.83496,.74707-1.35156,.16602-.51562,.25-1.08008,.25-1.69238v-7.66211h2.23047v13.56641h-2.09961Z"/>
          <path class="cls-3" d="M982.56988,889.70848h2.86035l3.25391,4.74902,3.38477-4.74902h2.67676l-4.6709,6.24512,5.24902,7.32129h-2.86035l-3.7793-5.61523-3.77832,5.61523h-2.70312l5.09082-7.1377-4.72363-6.42871Z"/>
        </g>
      </g>
    </g>
    <g id="Layer_5" data-name="Layer 5"/>
  </g>
</svg>