<?xml version="1.0" encoding="UTF-8"?>
<svg xmlns="http://www.w3.org/2000/svg" viewBox="0 0 1080.75 1080.75">
  <defs>
    <style>
      .cls-1, .cls-2, .cls-3, .cls-4, .cls-5, .cls-6, .cls-7, .cls-8, .cls-9 {
        fill: #fff;
      }

      .cls-10 {
        fill: #495866;
      }

      .cls-2, .cls-3 {
        mix-blend-mode: overlay;
      }

      .cls-11 {
        isolation: isolate;
      }

      .cls-3 {
        opacity: .33;
      }

      .cls-4 {
        opacity: .55;
      }

      .cls-5 {
        opacity: .88;
      }

      .cls-12 {
        fill: none;
        stroke: #d7b62e;
        stroke-miterlimit: 10;
        stroke-width: .25px;
      }

      .cls-6 {
        opacity: .24;
      }

      .cls-7 {
        opacity: .45;
      }

      .cls-8 {
        opacity: .35;
      }

      .cls-9 {
        opacity: .65;
      }
    </style>
  </defs>
  <g class="cls-11">
    <g id="Base">
      <rect class="cls-10" x=".375" y=".375" width="1080" height="1080"/>
      <g>
        <rect class="cls-12" x=".375" y=".375" width="1080" height="1080"/>
        <line class="cls-12" x1=".375" y1="1031.28409" x2="1080.375" y2="1031.28409"/>
        <line class="cls-12" x1=".375" y1="982.19318" x2="1080.375" y2="982.19318"/>
        <line class="cls-12" x1=".375" y1="933.10227" x2="1080.375" y2="933.10227"/>
        <line class="cls-12" x1=".375" y1="884.01136" x2="1080.375" y2="884.01136"/>
        <line class="cls-12" x1=".375" y1="834.92045" x2="1080.375" y2="834.92045"/>
        <line class="cls-12" x1=".375" y1="785.82955" x2="1080.375" y2="785.82955"/>
        <line class="cls-12" x1=".375" y1="736.73864" x2="1080.375" y2="736.73864"/>
        <line class="cls-12" x1=".375" y1="687.64773" x2="1080.375" y2="687.64773"/>
        <line class="cls-12" x1=".375" y1="638.55682" x2="1080.375" y2="638.55682"/>
        <line class="cls-12" x1=".375" y1="589.46591" x2="1080.375" y2="589.46591"/>
        <line class="cls-12" x1=".375" y1="540.375" x2="1080.375" y2="540.375"/>
        <line class="cls-12" x1=".375" y1="491.28409" x2="1080.375" y2="491.28409"/>
        <line class="cls-12" x1=".375" y1="442.19318" x2="1080.375" y2="442.19318"/>
        <line class="cls-12" x1=".375" y1="393.10227" x2="1080.375" y2="393.10227"/>
        <line class="cls-12" x1=".375" y1="344.01136" x2="1080.375" y2="344.01136"/>
        <line class="cls-12" x1=".375" y1="294.92045" x2="1080.375" y2="294.92045"/>
        <line class="cls-12" x1=".375" y1="245.82955" x2="1080.375" y2="245.82955"/>
        <line class="cls-12" x1=".375" y1="196.73864" x2="1080.375" y2="196.73864"/>
        <line class="cls-12" x1=".375" y1="147.64773" x2="1080.375" y2="147.64773"/>
        <line class="cls-12" x1=".375" y1="98.55682" x2="1080.375" y2="98.55682"/>
        <line class="cls-12" x1=".375" y1="49.46591" x2="1080.375" y2="49.46591"/>
        <line class="cls-12" x1="1031.28409" y1=".375" x2="1031.28409" y2="1080.375"/>
        <line class="cls-12" x1="982.19318" y1=".375" x2="982.19318" y2="1080.375"/>
        <line class="cls-12" x1="933.10227" y1=".375" x2="933.10227" y2="1080.375"/>
        <line class="cls-12" x1="884.01136" y1=".375" x2="884.01136" y2="1080.375"/>
        <line class="cls-12" x1="834.92045" y1=".375" x2="834.92045" y2="1080.375"/>
        <line class="cls-12" x1="785.82955" y1=".375" x2="785.82955" y2="1080.375"/>
        <line class="cls-12" x1="736.73864" y1=".375" x2="736.73864" y2="1080.375"/>
        <line class="cls-12" x1="687.64773" y1=".375" x2="687.64773" y2="1080.375"/>
        <line class="cls-12" x1="638.55682" y1=".375" x2="638.55682" y2="1080.375"/>
        <line class="cls-12" x1="589.46591" y1=".375" x2="589.46591" y2="1080.375"/>
        <line class="cls-12" x1="540.375" y1=".375" x2="540.375" y2="1080.375"/>
        <line class="cls-12" x1="491.28409" y1=".375" x2="491.28409" y2="1080.375"/>
        <line class="cls-12" x1="442.19318" y1=".375" x2="442.19318" y2="1080.375"/>
        <line class="cls-12" x1="393.10227" y1=".375" x2="393.10227" y2="1080.375"/>
        <line class="cls-12" x1="344.01136" y1=".375" x2="344.01136" y2="1080.375"/>
        <line class="cls-12" x1="294.92045" y1=".375" x2="294.92045" y2="1080.375"/>
        <line class="cls-12" x1="245.82955" y1=".375" x2="245.82955" y2="1080.375"/>
        <line class="cls-12" x1="196.73864" y1=".375" x2="196.73864" y2="1080.375"/>
        <line class="cls-12" x1="147.64773" y1=".375" x2="147.64773" y2="1080.375"/>
        <line class="cls-12" x1="98.55682" y1=".375" x2="98.55682" y2="1080.375"/>
        <line class="cls-12" x1="49.46591" y1=".375" x2="49.46591" y2="1080.375"/>
      </g>
    </g>
    <g id="Layer_3" data-name="Layer 3"/>
    <g id="Layer_1" data-name="Layer 1"/>
    <g id="Layer_2" data-name="Layer 2">
      <path class="cls-3" d="M89.87285,513.27909c-1.38312,14.52278,14.52278,51.86706,20.74683,63.6236,6.22405,11.75653,29.73712,51.86706,45.64302,69.15608,15.9059,17.28902,105.11725,60.16579,139.69529,71.92233,34.57804,11.75653,131.74234,21.43839,177.38536,21.43839s128.28454-24.89619,166.32038-34.57804c38.03585-9.68185,67.0814-19.3637,95.4354-35.2696,99.3315-67.33208,129.57395-150.39604,131.62382-156.29279l.11852,.00004s-.02288-.06817-.05876-.17289c.03588-.10472,.05876-.17289,.05876-.17289l-.11852,.00004c-2.04986-5.89675-32.29231-88.96071-131.62382-156.29279-28.35399-15.9059-57.39955-25.58775-95.4354-35.2696-38.03585-9.68185-105.80881-34.57804-151.45183-34.57804s-157.67587,9.68185-192.25392,21.43839c-34.57804,11.75653-123.78939,54.63331-139.69529,71.92233-15.9059,17.28902-39.41897,57.39955-45.64302,69.15608-6.22405,11.75653-22.12995,49.10082-20.74683,63.6236"/>
      <path class="cls-3" d="M745.52723,512.50109c.00929-.20193,.02642-.40167,.03005-.60512h-.06019c-1.04688-14.07067-15.64209-24.24291-17.65937-25.58775-24.89619-16.59746-44.95146-36.65272-50.48394-44.25989-4.63773-6.37689-39.41897-56.01643-42.87677-59.47423-3.4578-3.4578-11.75653-13.13966-40.11053-14.52278-28.35399-1.38312-65.69828-17.28902-65.69828-17.28902,0,0-50.48394-15.9059-73.99701-15.21776-101.65944-2.07126-109.26661,3.46122-182.57206,16.60088-59.47423,15.9059-80.91262,40.80209-80.91262,40.80209,0,0-50.48394,51.1755-78.14638,80.22106-23.95935,25.1573-23.79444,36.69401-23.32093,39.33252-.47351,2.63852-.63842,14.17522,23.32093,39.33252,27.66243,29.04556,78.14638,80.22106,78.14638,80.22106,0,0,21.43839,24.89619,80.91262,40.80209,73.30545,13.13966,80.91262,18.67214,182.57206,16.60084,23.51307,.68818,73.99701-15.21772,73.99701-15.21772,0,0,37.34429-15.9059,65.69828-17.28902,28.35399-1.38312,36.65272-11.06497,40.11053-14.52278,3.4578-3.4578,38.23904-53.09734,42.87677-59.47423,5.53249-7.60717,25.58775-27.66243,50.48394-44.25989,2.01728-1.34484,16.61249-11.51708,17.65937-25.58775h.06019c-.00363-.20345-.02077-.40319-.03005-.60512Z"/>
      <path class="cls-3" d="M625.59989,512.49556l.00034-.00549h-.00063c-.58599-23.59707-27.08792-51.08222-54.05461-78.04891-26.97087-26.97087-58.09111-44.25989-68.46452-48.40926-10.37341-4.14937-45.64302-6.91561-51.1755-8.29873-5.53249-1.38312-34.57804-8.29873-59.47423-13.13966-24.89619-4.84093-89.21135,13.13966-89.21135,13.13966,0,0-34.01999,9.26529-51.86706,15.21434-16.59746,5.53249-31.8118,11.75653-39.41897,16.59746-19.3637,13.13966-38.03585,44.95146-50.48394,65.00672-12.40703,19.98908-12.02478,37.82632-12.02212,37.94387-.00266,.11755-.38491,17.95479,12.02212,37.94387,12.4481,20.05526,31.12024,51.86706,50.48394,65.00672,7.60717,4.84093,22.82151,11.06497,39.41897,16.59746,17.84707,5.94905,51.86706,15.21434,51.86706,15.21434,0,0,64.31516,17.98058,89.21135,13.13966,24.89619-4.84093,53.94175-11.75653,59.47423-13.13966s40.80209-4.14937,51.1755-8.29873c10.37341-4.14937,41.49365-21.43839,68.46452-48.40926,26.96669-26.96669,53.46862-54.45185,54.05461-78.04891h.00063l-.00034-.00549Z"/>
      <path class="cls-3" d="M521.75259,484.67129c-11.06497-4.14937-22.82151-11.75653-37.67593-25.73515-19.72362-19.21631-36.32108-28.2066-36.32108-28.2066-9.68185-5.53249-42.18521-22.82151-62.93204-24.89619-58.09111-4.84093-110.64974,11.06497-143.1531,21.43839-32.50336,10.37341-39.41897,19.3637-62.24048,39.41897-28.35399,25.58775-30.0027,46.2426-30.0027,46.2426,0,0,1.6487,20.65485,30.0027,46.2426,22.82151,20.05526,29.73712,29.04556,62.24048,39.41897,32.50336,10.37341,85.06198,26.27931,143.1531,21.43839,20.74683-2.07468,53.25019-19.3637,62.93204-24.89619,0,0,16.59746-8.99029,36.32108-28.20664,14.85442-13.97857,26.61095-21.58574,37.67593-25.7351,11.06497-4.14937,44.95146-14.4308,44.95146-28.26202,0-15.21434-33.88648-24.11266-44.95146-28.26202Z"/>
      <path class="cls-3" d="M481.64207,488.47296c-7.20989-4.80661-46.33458-26.97087-46.33458-26.97087,0,0-29.04556-16.59746-47.02614-21.43839-20.74683-6.22405-48.41905-12.38297-68.46452-11.75653-22.12995,.69156-42.18521,3.4578-42.18521,3.4578-17.28902,2.07468-41.49365,18.67214-53.94175,27.66243-12.4481,8.99029-22.47573,15.81392-38.38163,24.80422-15.9059,8.99029-20.74683,11.75653-28.35399,17.98058-7.60717,6.22405-7.52697,14.52278-7.52697,14.52278,0,0-.0802,8.29873,7.52697,14.52278,7.60717,6.22405,10.37341,8.99029,26.27931,17.98058,15.9059,8.99029,28.00821,15.81392,40.45631,24.80422,12.4481,8.99029,36.65272,25.58775,53.94175,27.66243,0,0,20.05526,2.76624,42.18521,3.4578,20.04547,.62643,47.92358-4.88345,68.46452-11.75653,18.32636-6.13207,47.37192-22.03797,47.37192-22.03797,0,0,36.65272-20.74683,45.9888-26.37129,6.40745-3.86013,25.88541-14.84644,25.88541-28.26202s-19.66137-24.11266-25.88541-28.26202Z"/>
      <path class="cls-3" d="M387.58979,466.68522s-25.48915-10.72375-47.02614-16.59746c-22.82151-6.22405-46.33458-4.14937-60.16579-3.4578-13.83122,.69156-32.50336,17.28902-32.50336,17.28902,0,0-25.58775,22.82151-35.96116,30.42868-10.37341,7.60717-22.12995,5.53249-45.64302,11.75653-16.59746,4.84093-16.53292,13.05317-16.53292,13.05317,0,0-.06454,8.21224,16.53292,13.05317,23.51307,6.22405,35.2696,4.14937,45.64302,11.75653,10.37341,7.60717,35.61538,31.55251,35.61538,31.55251,0,0,17.98058,15.9059,31.8118,16.59746,13.83122,.69156,38.38163,2.33398,61.20313-3.89007,21.53699-5.87371,47.02614-16.59746,47.02614-16.59746l113.41598-52.47214-113.41598-52.47214Z"/>
      <path class="cls-2" d="M416.88831,469.20695c-59.91279-9.49415-82.5487-6.4118-92.23055-1.57087-57.74533,28.69978-55.67065,50.82972-55.67065,50.82972,0,0-1.38312,24.20463,55.67065,52.21284,9.68185,4.84093,32.31776,7.92323,92.23055-1.57087,24.45324-4.0446,79.27654-26.78313,84.46324-50.64197,0-24.20463-60.51157-45.29724-84.46324-49.25885Z"/>
      <g>
        <path class="cls-1" d="M84.10992,91.10399h-19.86328v-3.87598h25.29004v3.87598l-21.46289,26.83984h22.04395v3.87598h-27.51855v-3.87598l21.51074-26.83984Z"/>
        <path class="cls-1" d="M119.33159,121.72313c-.71094,.41895-1.69629,.62988-2.95605,.62988-1.06543,0-1.91309-.29883-2.54297-.89648s-.94531-1.57422-.94531-2.93164c-1.13086,1.35742-2.44629,2.33398-3.94824,2.93164s-3.125,.89648-4.86914,.89648c-1.13086,0-2.2041-.12988-3.22168-.3877s-1.89746-.66211-2.63965-1.21094c-.74414-.54883-1.33301-1.26758-1.76855-2.15625-.43652-.8877-.6543-1.96191-.6543-3.22168,0-1.4209,.24219-2.58398,.72656-3.48828s1.12207-1.63867,1.91406-2.2041c.79102-.56543,1.69531-.99316,2.71289-1.28418s2.05859-.5332,3.125-.72656c1.12988-.22559,2.2041-.39551,3.22168-.50879s1.91406-.27441,2.68848-.48438c.77539-.20996,1.38867-.5166,1.84082-.9209,.45215-.40332,.67871-.99316,.67871-1.76855,0-.90332-.16992-1.62988-.50879-2.17969-.33887-.54883-.77539-.96875-1.30762-1.25977-.5332-.29102-1.13086-.48438-1.79297-.58105-.66211-.09766-1.31641-.14551-1.96191-.14551-1.74414,0-3.19727,.33105-4.36035,.99316s-1.79297,1.91309-1.88965,3.75488h-4.11816c.06445-1.55078,.3877-2.8584,.96875-3.9248,.58203-1.06543,1.35645-1.92969,2.32617-2.5918,.96875-.66113,2.07422-1.13867,3.31836-1.42871,1.24316-.29102,2.5752-.43652,3.99707-.43652,1.12988,0,2.25293,.08105,3.36719,.24219s2.12305,.49121,3.02734,.99121c.9043,.49902,1.63086,1.2002,2.18066,2.10254,.54883,.90234,.82324,2.0791,.82324,3.52832v12.86035c0,.9668,.05664,1.67578,.16992,2.12695,.1123,.45117,.49219,.67676,1.13867,.67676,.35449,0,.77539-.06445,1.25977-.19434v3.19824Zm-6.68652-12.83887c-.5166,.38574-1.19531,.66699-2.03418,.84375-.84082,.17773-1.71973,.32227-2.64062,.43359-.9209,.11328-1.84961,.24219-2.78613,.38672s-1.77637,.37793-2.51855,.69824c-.74414,.32129-1.34961,.7793-1.81738,1.37402-.46875,.59473-.70215,1.40625-.70215,2.43457,0,.67578,.13672,1.24512,.41211,1.71191,.27344,.46582,.62988,.84375,1.06543,1.13281,.43652,.28906,.94434,.49805,1.52637,.62695,.58105,.12891,1.19434,.19238,1.84082,.19238,1.35645,0,2.51953-.18457,3.48828-.55371,.96875-.37012,1.75977-.83594,2.37402-1.39844,.61328-.5625,1.06543-1.17383,1.35645-1.83203,.29102-.65918,.43555-1.27832,.43555-1.85645v-4.19434Z"/>
        <path class="cls-1" d="M142.92534,121.81981v-3.97266h-.09766c-.87207,1.5498-1.98633,2.68848-3.34277,3.41504-1.35645,.72754-2.95508,1.09082-4.7959,1.09082-1.64746,0-3.02051-.21875-4.11816-.6543-1.09863-.43652-1.98633-1.05762-2.66504-1.86523-.67773-.80664-1.15527-1.76855-1.42871-2.88281-.27539-1.11426-.41211-2.34961-.41211-3.70605v-16.47266h4.11816v16.95703c0,1.55078,.45215,2.77832,1.35645,3.68164,.9043,.90527,2.14746,1.35742,3.73047,1.35742,1.25977,0,2.34961-.19434,3.27051-.58203,.91992-.3877,1.6875-.93652,2.30078-1.64746,.61328-.70996,1.07324-1.54199,1.38086-2.49414,.30664-.95312,.45996-1.99414,.45996-3.125v-14.14746h4.11816v25.04785h-3.875Z"/>
        <path class="cls-1" d="M159.63921,96.77196v5.28125h.09668c1.00098-2.03516,2.22852-3.53711,3.68262-4.50586,1.45312-.96875,3.29395-1.4209,5.52246-1.35645v4.36035c-1.64648,0-3.05176,.22656-4.21484,.67871-1.16211,.45215-2.09961,1.11426-2.80957,1.98633-.71094,.87207-1.22852,1.92969-1.55078,3.17285-.32324,1.24414-.48438,2.67285-.48438,4.28809v11.14258h-4.11816v-25.04785h3.87598Z"/>
        <path class="cls-1" d="M197.13824,121.72313c-.71094,.41895-1.69629,.62988-2.95605,.62988-1.06543,0-1.91309-.29883-2.54297-.89648s-.94531-1.57422-.94531-2.93164c-1.13086,1.35742-2.44629,2.33398-3.94824,2.93164s-3.125,.89648-4.86914,.89648c-1.13086,0-2.2041-.12988-3.22168-.3877s-1.89746-.66211-2.63965-1.21094c-.74414-.54883-1.33301-1.26758-1.76855-2.15625-.43652-.8877-.6543-1.96191-.6543-3.22168,0-1.4209,.24219-2.58398,.72656-3.48828s1.12207-1.63867,1.91406-2.2041c.79102-.56543,1.69531-.99316,2.71289-1.28418s2.05859-.5332,3.125-.72656c1.12988-.22559,2.2041-.39551,3.22168-.50879s1.91406-.27441,2.68848-.48438c.77539-.20996,1.38867-.5166,1.84082-.9209,.45215-.40332,.67871-.99316,.67871-1.76855,0-.90332-.16992-1.62988-.50879-2.17969-.33887-.54883-.77539-.96875-1.30762-1.25977-.5332-.29102-1.13086-.48438-1.79297-.58105-.66211-.09766-1.31641-.14551-1.96191-.14551-1.74414,0-3.19727,.33105-4.36035,.99316s-1.79297,1.91309-1.88965,3.75488h-4.11816c.06445-1.55078,.3877-2.8584,.96875-3.9248,.58203-1.06543,1.35645-1.92969,2.32617-2.5918,.96875-.66113,2.07422-1.13867,3.31836-1.42871,1.24316-.29102,2.5752-.43652,3.99707-.43652,1.12988,0,2.25293,.08105,3.36719,.24219s2.12305,.49121,3.02734,.99121c.9043,.49902,1.63086,1.2002,2.18066,2.10254,.54883,.90234,.82324,2.0791,.82324,3.52832v12.86035c0,.9668,.05664,1.67578,.16992,2.12695,.1123,.45117,.49219,.67676,1.13867,.67676,.35449,0,.77539-.06445,1.25977-.19434v3.19824Zm-6.68652-12.83887c-.5166,.38574-1.19531,.66699-2.03418,.84375-.84082,.17773-1.71973,.32227-2.64062,.43359-.9209,.11328-1.84961,.24219-2.78613,.38672s-1.77637,.37793-2.51855,.69824c-.74414,.32129-1.34961,.7793-1.81738,1.37402-.46875,.59473-.70215,1.40625-.70215,2.43457,0,.67578,.13672,1.24512,.41211,1.71191,.27344,.46582,.62988,.84375,1.06543,1.13281,.43652,.28906,.94434,.49805,1.52637,.62695,.58105,.12891,1.19434,.19238,1.84082,.19238,1.35645,0,2.51953-.18457,3.48828-.55371,.96875-.37012,1.75977-.83594,2.37402-1.39844,.61328-.5625,1.06543-1.17383,1.35645-1.83203,.29102-.65918,.43555-1.27832,.43555-1.85645v-4.19434Z"/>
        <path class="cls-1" d="M218.84136,101.13231c-1.03418-.87207-2.42285-1.30762-4.16699-1.30762-1.48535,0-2.72949,.27441-3.73047,.82324-1.00098,.5498-1.80078,1.27637-2.39844,2.18066s-1.02539,1.94629-1.2832,3.125c-.25879,1.17871-.3877,2.39746-.3877,3.65723,0,1.16309,.13672,2.29395,.41211,3.3916,.27344,1.09863,.70215,2.0752,1.2832,2.93066,.58203,.85645,1.33984,1.54297,2.27734,2.05957,.93652,.5166,2.05078,.77539,3.34277,.77539,2.03516,0,3.625-.5332,4.77246-1.59961,1.14551-1.06543,1.84863-2.56738,2.10742-4.50488h4.21484c-.45312,3.10059-1.60742,5.49121-3.46387,7.16992-1.85742,1.67969-4.38477,2.51953-7.58203,2.51953-1.90625,0-3.59375-.30762-5.06348-.9209s-2.69629-1.48535-3.68164-2.61621c-.98535-1.12988-1.72852-2.47852-2.22852-4.04492-.50098-1.56641-.75098-3.28613-.75098-5.16016,0-1.87305,.24219-3.625,.72656-5.25684,.48438-1.62988,1.21875-3.05176,2.2041-4.2627,.98535-1.21191,2.2207-2.16406,3.70703-2.8584,1.48438-.69434,3.21289-1.04199,5.18359-1.04199,1.4209,0,2.75293,.16992,3.99707,.50879,1.24316,.33887,2.34082,.86426,3.29395,1.57422,.95215,.71094,1.73633,1.60742,2.34961,2.68945s1.00098,2.36621,1.16309,3.85156h-4.26367c-.32324-1.58203-1.00098-2.81055-2.03418-3.68262Z"/>
        <path class="cls-1" d="M271.01909,110.14403v3.63379h-4.65039v8.04199h-3.87598v-8.04199h-15.06738v-3.97266l15.64844-22.33496h3.29492v22.67383h4.65039Zm-8.52637-16.81152h-.09668l-11.43359,16.81152h11.53027v-16.81152Z"/>
        <path class="cls-1" d="M292.33648,106.41356v3.87598h-14.00098v-3.87598h14.00098Z"/>
        <path class="cls-1" d="M308.66265,102.24657h1.35645c.87207,0,1.70312-.12109,2.49512-.36328,.79102-.24219,1.48438-.59668,2.08301-1.06543,.59668-.46777,1.07324-1.05762,1.42871-1.76855,.35547-.70996,.5332-1.51758,.5332-2.42188,0-1.8418-.58105-3.22266-1.74414-4.14258-1.16309-.9209-2.61621-1.38086-4.36035-1.38086-1.09863,0-2.05859,.20215-2.88281,.60547-.82324,.4043-1.50195,.94434-2.03418,1.62305-.5332,.67871-.92871,1.46973-1.1875,2.37402s-.3877,1.85742-.3877,2.8584h-4.11816c.06445-1.64746,.33105-3.14941,.7998-4.50586,.46777-1.35645,1.13867-2.51953,2.01074-3.48828s1.96191-1.72754,3.27051-2.27637c1.30762-.54883,2.81738-.82422,4.5293-.82422,1.48535,0,2.86621,.18652,4.14258,.55762,1.27539,.37109,2.38184,.92871,3.31836,1.6709,.93652,.74316,1.67188,1.69629,2.2041,2.8584,.5332,1.16309,.7998,2.53613,.7998,4.11816,0,1.55078-.45312,2.92383-1.35645,4.11816-.9043,1.19531-2.03516,2.09961-3.3916,2.71289v.09668c2.09961,.45312,3.6582,1.4375,4.67578,2.95605,1.0166,1.51855,1.52539,3.31055,1.52539,5.37695,0,1.71289-.31445,3.22266-.94434,4.53027-.62988,1.30859-1.47754,2.39844-2.54395,3.27051-1.06543,.87207-2.31738,1.52539-3.75391,1.96191-1.4375,.43555-2.96387,.6543-4.5791,.6543-1.74414,0-3.32617-.24219-4.74707-.72656-1.42188-.48535-2.63281-1.20312-3.63379-2.15625-1.00195-.95215-1.76855-2.12305-2.30176-3.5127-.53223-1.38867-.7832-2.9707-.75098-4.74805h4.11816c.06445,2.22852,.70996,4.0459,1.93848,5.4502,1.22656,1.40527,3.01953,2.1084,5.37695,2.1084,1.00098,0,1.9541-.15332,2.8584-.46094,.9043-.30664,1.69629-.74219,2.37402-1.30762,.67871-.56543,1.21875-1.25977,1.62305-2.08301,.40332-.82422,.60547-1.75195,.60547-2.78613,0-1.06641-.19336-2.01074-.58105-2.83398-.3877-.82422-.9043-1.51855-1.5498-2.08398-.64648-.56445-1.41406-.98438-2.30176-1.25879-.88867-.27441-1.84961-.41211-2.88281-.41211-.87207,0-1.69531,.04785-2.4707,.14551v-3.48828c.16113,.03223,.30664,.04785,.43652,.04785Z"/>
        <path class="cls-1" d="M329.64019,101.03563c.06445-1.35645,.22559-2.68066,.48438-3.97266,.25781-1.29102,.62988-2.51953,1.11426-3.68164,.48438-1.16309,1.14648-2.18066,1.98633-3.05273s1.89746-1.56641,3.17383-2.08301c1.27539-.5166,2.80078-.77539,4.57812-.77539,1.77539,0,3.30176,.25879,4.57812,.77539,1.27539,.5166,2.33301,1.21094,3.17285,2.08301s1.50195,1.88965,1.98633,3.05273c.48535,1.16211,.85547,2.39062,1.11426,3.68164,.25879,1.29199,.41992,2.61621,.48535,3.97266,.06348,1.35645,.09668,2.66504,.09668,3.9248,0,1.25879-.0332,2.56738-.09668,3.92383-.06543,1.35645-.22656,2.68164-.48535,3.97266-.25879,1.29199-.62891,2.51172-1.11426,3.6582-.48438,1.14648-1.14648,2.15527-1.98633,3.02734s-1.88867,1.55859-3.14844,2.05957c-1.25977,.5-2.79395,.75098-4.60254,.75098-1.77734,0-3.30273-.25098-4.57812-.75098-1.27637-.50098-2.33398-1.1875-3.17383-2.05957s-1.50195-1.88086-1.98633-3.02734-.85645-2.36621-1.11426-3.6582c-.25879-1.29102-.41992-2.61621-.48438-3.97266-.06543-1.35645-.09668-2.66504-.09668-3.92383,0-1.25977,.03125-2.56836,.09668-3.9248Zm4.38477,8.21191c.08008,1.59863,.33887,3.10059,.77441,4.50586,.43652,1.40527,1.13867,2.5918,2.10742,3.56055,.96973,.96875,2.32617,1.4541,4.07031,1.4541s3.10059-.48535,4.06934-1.4541,1.67188-2.15527,2.10742-3.56055c.43652-1.40527,.69434-2.90723,.77539-4.50586,.08008-1.59863,.12109-3.04395,.12109-4.33594,0-.83984-.00879-1.76855-.02441-2.78613-.0166-1.0166-.09668-2.03418-.24219-3.05176s-.35547-2.01074-.62988-2.97949-.67871-1.81738-1.21094-2.54395c-.5332-.72656-1.2041-1.31543-2.01074-1.76758-.80762-.45215-1.79297-.67871-2.95508-.67871-1.16309,0-2.14844,.22656-2.95605,.67871s-1.47754,1.04102-2.00977,1.76758c-.5332,.72656-.9375,1.5752-1.21191,2.54395s-.48438,1.96191-.62988,2.97949c-.14453,1.01758-.22559,2.03516-.24219,3.05176-.0166,1.01758-.02344,1.94629-.02344,2.78613,0,1.29199,.04004,2.7373,.12109,4.33594Z"/>
        <path class="cls-1" d="M382.10992,87.22801v14.87402h18.21582v-14.87402h4.60254v34.5918h-4.60254v-15.84277h-18.21582v15.84277h-4.60254v-34.5918h4.60254Z"/>
        <path class="cls-1" d="M424.54839,125.16258c-.48438,1.22754-.96094,2.26074-1.42969,3.10059-.46777,.83984-.98535,1.52637-1.5498,2.05957-.56543,.53223-1.19531,.91992-1.88965,1.16211s-1.49414,.36328-2.39844,.36328c-.48438,0-.96875-.03223-1.45312-.09668-.48438-.06543-.95312-.17773-1.40527-.33887v-3.7793c.35547,.16113,.76758,.29883,1.23535,.41211,.46875,.1123,.86426,.16992,1.1875,.16992,.83984,0,1.54199-.20215,2.10742-.60645,.56445-.40332,.99316-.97656,1.28418-1.71973l1.69531-4.21484-9.93164-24.90234h4.65039l7.31641,20.49414h.09668l7.02441-20.49414h4.36035l-10.90039,28.39062Z"/>
        <path class="cls-1" d="M446.10796,87.22801v12.93555h.09668c.67871-1.38867,1.74414-2.39844,3.19727-3.02832,1.4541-.62891,3.05273-.94434,4.79688-.94434,1.9375,0,3.625,.35547,5.0625,1.06543,1.43652,.71094,2.63184,1.67188,3.58496,2.88281,.95215,1.21191,1.67188,2.60938,2.15625,4.19141s.72656,3.2627,.72656,5.03809c0,1.77637-.23438,3.45703-.70215,5.03906-.46875,1.58203-1.17969,2.96289-2.13184,4.1416-.95312,1.17969-2.14844,2.10742-3.58496,2.78613-1.4375,.67773-3.10938,1.01758-5.01465,1.01758-.61426,0-1.30078-.06543-2.05859-.19434-.75977-.12891-1.51074-.33887-2.25293-.62988-.74414-.29004-1.44629-.68555-2.10742-1.18652-.66309-.50098-1.21973-1.12207-1.67188-1.86523h-.09668v3.34277h-4.11816v-34.5918h4.11816Zm14.80078,18.43457c-.30762-1.11426-.77539-2.10742-1.40527-2.97949s-1.4375-1.56641-2.42188-2.08301c-.98633-.5166-2.14062-.77539-3.46484-.77539-1.38867,0-2.56738,.27441-3.53613,.82324-.96875,.5498-1.76074,1.26855-2.37402,2.15625-.61426,.88867-1.05859,1.89746-1.33203,3.02832-.27539,1.13086-.41211,2.27637-.41211,3.43945,0,1.22754,.14551,2.41504,.43555,3.56055,.29102,1.14746,.75098,2.15625,1.38086,3.02832s1.44531,1.57422,2.44727,2.10742c1,.5332,2.21191,.7998,3.63281,.7998s2.6084-.27441,3.56152-.82422c.95215-.54883,1.71973-1.27539,2.30078-2.17969,.58203-.9043,1.00098-1.93848,1.25977-3.10059,.25879-1.16309,.3877-2.35742,.3877-3.58594,0-1.16211-.15332-2.30078-.45996-3.41504Z"/>
        <path class="cls-1" d="M477.2105,96.77196v5.28125h.09668c1.00098-2.03516,2.22852-3.53711,3.68262-4.50586,1.45312-.96875,3.29395-1.4209,5.52246-1.35645v4.36035c-1.64648,0-3.05176,.22656-4.21484,.67871-1.16211,.45215-2.09961,1.11426-2.80957,1.98633-.71094,.87207-1.22852,1.92969-1.55078,3.17285-.32324,1.24414-.48438,2.67285-.48438,4.28809v11.14258h-4.11816v-25.04785h3.87598Z"/>
        <path class="cls-1" d="M492.76226,92.26707v-5.03906h4.11816v5.03906h-4.11816Zm4.11816,4.50488v25.04785h-4.11816v-25.04785h4.11816Z"/>
        <path class="cls-1" d="M524.44585,121.81981v-3.3916h-.09668c-.67871,1.38965-1.74414,2.39062-3.19727,3.00391-1.4541,.61328-3.05273,.9209-4.79688,.9209-1.9375,0-3.62598-.35645-5.0625-1.06641-1.4375-.70996-2.63281-1.66309-3.58496-2.8584-.95312-1.19434-1.67188-2.58301-2.15625-4.16602-.48438-1.58203-.72656-3.26172-.72656-5.03906,0-1.77539,.23438-3.45508,.70215-5.03809,.46777-1.58203,1.17871-2.96289,2.13184-4.14258,.95215-1.17871,2.14746-2.11523,3.58496-2.80957s3.1084-1.04199,5.01465-1.04199c.64551,0,1.33984,.06543,2.08301,.19434s1.48535,.34668,2.22852,.65332c.74316,.30762,1.44531,.71094,2.10742,1.21191s1.21875,1.12207,1.67188,1.86523h.09668v-12.8877h4.11816v34.5918h-4.11816Zm-14.80078-8.89062c.30664,1.11523,.77539,2.1084,1.40527,2.98047s1.43652,1.56641,2.42188,2.08301,2.13965,.77539,3.46484,.77539c1.3877,0,2.56738-.27441,3.53613-.82422,.96875-.54883,1.75977-1.2666,2.37402-2.15625,.61328-.8877,1.05762-1.89648,1.33203-3.02734,.27441-1.12988,.41211-2.27734,.41211-3.44043,0-1.22656-.14551-2.41309-.43555-3.56055-.29102-1.14551-.75098-2.15625-1.38086-3.02832s-1.44629-1.57422-2.44727-2.10742c-1.00098-.53223-2.21191-.79883-3.63281-.79883-1.38965,0-2.56836,.27441-3.53711,.82324-.96875,.5498-1.74414,1.27637-2.3252,2.18066-.58203,.9043-1.00195,1.9375-1.25977,3.10059-.25879,1.16211-.3877,2.35742-.3877,3.58496,0,1.16309,.15332,2.30078,.45996,3.41504Z"/>
        <path class="cls-1" d="M557.92242,96.77196v5.28125h.09668c1.00098-2.03516,2.22852-3.53711,3.68262-4.50586,1.45312-.96875,3.29395-1.4209,5.52246-1.35645v4.36035c-1.64648,0-3.05176,.22656-4.21484,.67871-1.16211,.45215-2.09961,1.11426-2.80957,1.98633-.71094,.87207-1.22852,1.92969-1.55078,3.17285-.32324,1.24414-.48438,2.67285-.48438,4.28809v11.14258h-4.11816v-25.04785h3.87598Z"/>
        <path class="cls-1" d="M595.42144,121.72313c-.71094,.41895-1.69629,.62988-2.95605,.62988-1.06543,0-1.91309-.29883-2.54297-.89648s-.94531-1.57422-.94531-2.93164c-1.13086,1.35742-2.44629,2.33398-3.94824,2.93164s-3.125,.89648-4.86914,.89648c-1.13086,0-2.2041-.12988-3.22168-.3877s-1.89746-.66211-2.63965-1.21094c-.74414-.54883-1.33301-1.26758-1.76855-2.15625-.43652-.8877-.6543-1.96191-.6543-3.22168,0-1.4209,.24219-2.58398,.72656-3.48828s1.12207-1.63867,1.91406-2.2041c.79102-.56543,1.69531-.99316,2.71289-1.28418s2.05859-.5332,3.125-.72656c1.12988-.22559,2.2041-.39551,3.22168-.50879s1.91406-.27441,2.68848-.48438c.77539-.20996,1.38867-.5166,1.84082-.9209,.45215-.40332,.67871-.99316,.67871-1.76855,0-.90332-.16992-1.62988-.50879-2.17969-.33887-.54883-.77539-.96875-1.30762-1.25977-.5332-.29102-1.13086-.48438-1.79297-.58105-.66211-.09766-1.31641-.14551-1.96191-.14551-1.74414,0-3.19727,.33105-4.36035,.99316s-1.79297,1.91309-1.88965,3.75488h-4.11816c.06445-1.55078,.3877-2.8584,.96875-3.9248,.58203-1.06543,1.35645-1.92969,2.32617-2.5918,.96875-.66113,2.07422-1.13867,3.31836-1.42871,1.24316-.29102,2.5752-.43652,3.99707-.43652,1.12988,0,2.25293,.08105,3.36719,.24219s2.12305,.49121,3.02734,.99121c.9043,.49902,1.63086,1.2002,2.18066,2.10254,.54883,.90234,.82324,2.0791,.82324,3.52832v12.86035c0,.9668,.05664,1.67578,.16992,2.12695,.1123,.45117,.49219,.67676,1.13867,.67676,.35449,0,.77539-.06445,1.25977-.19434v3.19824Zm-6.68652-12.83887c-.5166,.38574-1.19531,.66699-2.03418,.84375-.84082,.17773-1.71973,.32227-2.64062,.43359-.9209,.11328-1.84961,.24219-2.78613,.38672s-1.77637,.37793-2.51855,.69824c-.74414,.32129-1.34961,.7793-1.81738,1.37402-.46875,.59473-.70215,1.40625-.70215,2.43457,0,.67578,.13672,1.24512,.41211,1.71191,.27344,.46582,.62988,.84375,1.06543,1.13281,.43652,.28906,.94434,.49805,1.52637,.62695,.58105,.12891,1.19434,.19238,1.84082,.19238,1.35645,0,2.51953-.18457,3.48828-.55371,.96875-.37012,1.75977-.83594,2.37402-1.39844,.61328-.5625,1.06543-1.17383,1.35645-1.83203,.29102-.65918,.43555-1.27832,.43555-1.85645v-4.19434Z"/>
        <path class="cls-1" d="M606.03081,96.77196v3.97266h.09668c1.71191-3.03516,4.4248-4.55371,8.13965-4.55371,1.64648,0,3.01953,.22656,4.11816,.67871,1.09766,.45215,1.98633,1.08203,2.66406,1.88867,.67871,.80859,1.1543,1.76855,1.42969,2.88281,.27344,1.11426,.41113,2.34961,.41113,3.70605v16.47266h-4.11816v-16.95703c0-1.5498-.45215-2.77734-1.35645-3.68164s-2.14844-1.35645-3.73047-1.35645c-1.25977,0-2.34961,.19336-3.26953,.58105-.9209,.3877-1.68848,.9375-2.30176,1.64746-.61328,.71094-1.07422,1.54297-1.38086,2.49512-.30664,.95312-.45996,1.99414-.45996,3.125v14.14648h-4.11816v-25.04785h3.87598Z"/>
        <path class="cls-1" d="M650.79644,128.89305c-1.87402,2.03516-4.81348,3.05273-8.81738,3.05273-1.16309,0-2.34961-.12988-3.56152-.3877-1.21094-.25879-2.30957-.67871-3.29395-1.25977-.98535-.58105-1.80078-1.34082-2.44629-2.27734-.64648-.9375-1.00195-2.08301-1.06641-3.43945h4.11816c.03223,.74219,.2666,1.37207,.70215,1.88965,.43652,.51562,.96973,.93555,1.59961,1.25879s1.31543,.55762,2.05859,.70312c.74219,.14551,1.45312,.21777,2.13184,.21777,1.35645,0,2.50293-.23438,3.43945-.70215,.93652-.46875,1.71191-1.11426,2.32617-1.93848,.6123-.82324,1.05664-1.81641,1.33203-2.97949,.27344-1.16211,.41211-2.43848,.41211-3.82715v-1.64746h-.09766c-.71094,1.55078-1.78516,2.68945-3.22168,3.41602-1.4375,.72656-2.96387,1.08984-4.57812,1.08984-1.87402,0-3.50488-.33887-4.89355-1.01758-1.38867-.67773-2.55176-1.58984-3.48828-2.7373-.93652-1.14551-1.63965-2.48633-2.10742-4.02051s-.70215-3.15723-.70215-4.86914c0-1.48535,.19336-3.01172,.58105-4.57812s1.0332-2.9873,1.93848-4.26367c.90332-1.27539,2.09863-2.3252,3.58496-3.14941,1.48535-.82324,3.31055-1.23535,5.47461-1.23535,1.58203,0,3.03516,.34766,4.36035,1.04199,1.32422,.69434,2.35742,1.73633,3.10059,3.125h.04883v-3.58594h3.875v22.91602c0,4.10156-.93652,7.16992-2.80957,9.20508Zm-5.25684-11.26367c.95215-.56543,1.71973-1.30859,2.30176-2.22852,.58105-.9209,1.00879-1.96289,1.2832-3.125,.27441-1.16309,.41211-2.32617,.41211-3.48828,0-1.09766-.12891-2.18066-.3877-3.24609-.25879-1.06641-.6709-2.02637-1.23535-2.88281-.56543-.85547-1.30078-1.54199-2.2041-2.05859-.9043-.5166-2.00293-.77539-3.29492-.77539-1.32422,0-2.45508,.25-3.39062,.75098-.9375,.50098-1.7041,1.1709-2.30176,2.01074s-1.03418,1.80859-1.30762,2.90625c-.27539,1.09863-.41211,2.24512-.41211,3.44043,0,1.13086,.1123,2.26074,.33887,3.39062,.22559,1.13086,.61328,2.15625,1.16309,3.07715,.54883,.91992,1.27539,1.66309,2.17969,2.22852s2.03516,.84766,3.3916,.84766,2.51074-.28223,3.46387-.84766Z"/>
        <path class="cls-1" d="M680.44585,120.22118c-1.87402,1.42188-4.23242,2.13184-7.07422,2.13184-2.00293,0-3.73828-.32324-5.20801-.96875-1.46973-.64648-2.70508-1.55078-3.70605-2.71387-1.00098-1.16211-1.75195-2.55078-2.25293-4.16602s-.7832-3.375-.84766-5.28125c0-1.90527,.29102-3.64941,.87207-5.23242,.58105-1.58203,1.39648-2.95508,2.44629-4.11816,1.0498-1.16211,2.29297-2.06641,3.73047-2.71289,1.4375-.64551,3.01172-.96875,4.72363-.96875,2.22852,0,4.07715,.45996,5.54785,1.38086,1.46875,.9209,2.64746,2.0918,3.53613,3.5127s1.50195,2.97168,1.84082,4.65039c.33984,1.67969,.47656,3.2793,.41211,4.79688h-18.74902c-.03223,1.09863,.09668,2.13965,.3877,3.125,.29004,.98535,.75879,1.85742,1.40527,2.61621,.64551,.75879,1.46875,1.36426,2.4707,1.81641,1,.45312,2.17969,.67871,3.53613,.67871,1.74414,0,3.17383-.4043,4.28809-1.21191,1.11426-.80664,1.84863-2.03418,2.2041-3.68164h4.06934c-.54883,2.80957-1.76074,4.92578-3.63281,6.34668Zm-.99414-16.08496c-.37109-.87207-.87207-1.62305-1.50098-2.25293-.62988-.62988-1.37402-1.12988-2.22949-1.50195-.85547-.37012-1.80078-.55664-2.83398-.55664-1.06543,0-2.02734,.18652-2.88281,.55664-.85547,.37207-1.59082,.88086-2.2041,1.52637-.61328,.64648-1.09863,1.39746-1.45312,2.25293-.35547,.85645-.56543,1.76855-.62988,2.7373h14.38867c-.06445-.96875-.2832-1.88965-.6543-2.76172Z"/>
      </g>
      <g>
        <path class="cls-1" d="M124.61577,526.05321v-11.92773h-4.32031v-1.59668c.56348,0,1.11133-.04297,1.64355-.12891,.53125-.08594,1.0127-.24609,1.44336-.48145,.43066-.23438,.79492-.55566,1.0918-.96289,.29785-.40625,.50098-.92285,.61035-1.54883h1.52637v16.64648h-1.99512Z"/>
        <path class="cls-10" d="M182.29644,512.95164c.21973-.71973,.55957-1.3418,1.02148-1.86621s1.03711-.93555,1.72559-1.2334c.68848-.29688,1.47168-.44531,2.34863-.44531,.71973,0,1.39648,.10547,2.03027,.31641,.63379,.21191,1.18555,.5166,1.65527,.91602s.8418,.89648,1.11523,1.49121c.27441,.59473,.41113,1.2832,.41113,2.06543,0,.73633-.11328,1.38574-.33984,1.94922-.22754,.56348-.52832,1.06836-.9043,1.51465s-.80664,.84863-1.29102,1.20898c-.48535,.36035-.98633,.7041-1.50293,1.0332-.5166,.31348-1.0332,.62207-1.5498,.92676-.5166,.30566-.99023,.63086-1.4209,.97461-.43066,.34473-.79785,.7168-1.10352,1.11523-.30469,.39941-.50488,.85742-.59863,1.37402h8.54688v1.76074h-10.87109c.07812-.98633,.25391-1.82715,.52832-2.52441,.27344-.69629,.62207-1.30273,1.04492-1.81934s.89941-.9707,1.43262-1.36133c.53125-.3916,1.08691-.75977,1.66699-1.10352,.7041-.43848,1.32227-.8418,1.85449-1.20996,.53223-.36719,.97461-.73926,1.32617-1.11523,.35254-.375,.61816-.78223,.79883-1.2207,.17969-.4375,.26953-.94629,.26953-1.52637,0-.45312-.08594-.86426-.25781-1.23242-.17285-.36719-.40332-.68457-.69238-.95117-.29004-.26562-.63086-.46875-1.02148-.61035-.3916-.14062-.80664-.21094-1.24512-.21094-.5791,0-1.07617,.12109-1.49023,.36426-.41504,.24219-.75586,.55957-1.02148,.9502-.2666,.3916-.45801,.83398-.5752,1.32715s-.16895,.99023-.15234,1.49023h-1.99609c-.04688-.84473,.03906-1.62695,.25781-2.34766Z"/>
        <path class="cls-10" d="M242.8648,516.56786h.65723c.42285,0,.8252-.05859,1.20898-.17676,.38379-.11719,.71973-.28906,1.00977-.5166,.28906-.22656,.52051-.51172,.69238-.85645,.17188-.34375,.25879-.73535,.25879-1.17383,0-.89258-.28223-1.56152-.8457-2.00781s-1.26758-.66895-2.11328-.66895c-.53223,0-.99805,.09766-1.39648,.29297-.39941,.19629-.72852,.45801-.98633,.78711-.25879,.32812-.4502,.71191-.5752,1.15039-.12598,.43848-.1875,.90039-.1875,1.38477h-1.99609c.03125-.79785,.16016-1.52539,.3877-2.18359,.22656-.65723,.55176-1.2207,.97363-1.69043,.42285-.46875,.95117-.83691,1.58496-1.10352,.63379-.26562,1.36621-.39844,2.19531-.39844,.71973,0,1.38965,.08984,2.00781,.26953,.61816,.18066,1.1543,.4502,1.6084,.81055s.80957,.82129,1.06836,1.38477c.25781,.56348,.3877,1.22949,.3877,1.99609,0,.75098-.21973,1.41699-.6582,1.99512-.43848,.58008-.98535,1.01855-1.64355,1.31543v.04688c1.01758,.21973,1.77344,.69629,2.26562,1.43262,.49316,.73535,.74023,1.60449,.74023,2.60547,0,.83008-.15234,1.56152-.45801,2.19531s-.71582,1.16211-1.23242,1.58496-1.12402,.74023-1.82031,.95117-1.43555,.31641-2.21875,.31641c-.84473,0-1.6123-.11719-2.30078-.35156-.68848-.23535-1.27539-.58301-1.76074-1.04492s-.85742-1.0293-1.11523-1.70215c-.25879-.67285-.37988-1.44043-.36426-2.30078h1.99609c.03125,1.08008,.34375,1.95996,.93945,2.64062,.59473,.68164,1.46289,1.02148,2.60547,1.02148,.48535,0,.94727-.07422,1.38574-.22266,.4375-.14844,.82129-.36035,1.15039-.63379,.3291-.27441,.59082-.61035,.78613-1.00977,.19629-.39941,.29395-.84863,.29395-1.35059,0-.51562-.09375-.97363-.28223-1.37305-.1875-.39941-.4375-.73535-.75098-1.00977-.31348-.27344-.68457-.47754-1.11523-.61035s-.89648-.19922-1.39648-.19922c-.42285,0-.82227,.02344-1.19824,.07031v-1.69043c.07812,.01562,.14844,.02344,.21191,.02344Z"/>
        <path class="cls-10" d="M308.03765,520.395v1.76074h-2.25391v3.89746h-1.87793v-3.89746h-7.30273v-1.92578l7.58398-10.82324h1.59668v10.98828h2.25391Zm-4.13184-8.14746h-.04785l-5.54102,8.14746h5.58887v-8.14746Z"/>
        <path class="cls-10" d="M358.80913,511.44872l-.89258,4.79004,.04688,.04688c.36035-.40625,.82617-.70801,1.39746-.90332,.57129-.19629,1.13867-.29395,1.70215-.29395,.73535,0,1.43262,.11719,2.08984,.35254,.65723,.23438,1.22852,.59082,1.71387,1.06836s.86816,1.07227,1.15039,1.78418,.42285,1.5459,.42285,2.5c0,.70508-.12207,1.38965-.36426,2.05469-.24316,.66602-.60645,1.25586-1.0918,1.77246s-1.0918,.92773-1.81934,1.2334c-.72852,.30469-1.57715,.45703-2.54785,.45703-.71973,0-1.39648-.10547-2.03125-.31641-.63379-.21094-1.19336-.5166-1.67871-.91602s-.86816-.89551-1.15039-1.49023c-.28125-.59473-.43066-1.26855-.44629-2.01953h1.99609c.03125,.42285,.13672,.81836,.31738,1.18555,.17969,.36816,.42188,.68848,.72754,.96289,.30566,.27344,.66504,.48535,1.08008,.63379s.87207,.22266,1.37402,.22266c.46875,0,.91895-.08203,1.34961-.24609s.80566-.41113,1.12695-.73926c.32031-.3291,.5752-.74023,.7627-1.2334,.18848-.49316,.28223-1.06836,.28223-1.72559,0-.54785-.08984-1.05273-.27051-1.51465-.17969-.46094-.43359-.86035-.7627-1.19727-.3291-.33594-.72461-.59863-1.18555-.78613-.46191-.18848-.97461-.28223-1.53809-.28223-.65723,0-1.24023,.14551-1.74902,.43457-.50879,.29004-.95898,.66895-1.35059,1.13867l-1.71387-.09375,1.5498-8.64062h8.21777v1.76074h-6.71484Z"/>
        <path class="cls-10" d="M424.66949,511.84813c-.48535-.4541-1.12695-.68066-1.9248-.68066-.8457,0-1.52637,.20801-2.04297,.62207-.5166,.41504-.91992,.93945-1.20898,1.57324-.29004,.63379-.48926,1.31836-.59863,2.05469-.11035,.73535-.17285,1.42383-.18848,2.06543l.04688,.04688c.46973-.7666,1.05273-1.32227,1.75-1.66699,.69629-.34375,1.49805-.5166,2.40625-.5166,.79785,0,1.51465,.1377,2.14844,.41113,.63379,.27441,1.16602,.6543,1.59668,1.13867,.42969,.48535,.7627,1.05664,.99805,1.71387,.23438,.6582,.35156,1.37012,.35156,2.13672,0,.61035-.09375,1.24512-.28125,1.90234-.18848,.65723-.49707,1.25586-.92773,1.7959s-1.00195,.98633-1.71387,1.33887c-.71289,.35156-1.59277,.52734-2.6416,.52734-1.23633,0-2.23047-.25-2.98145-.75098-.75195-.50098-1.33105-1.14258-1.73828-1.9248-.40723-.7832-.67676-1.64355-.80957-2.58301s-.19922-1.84668-.19922-2.72363c0-1.14258,.09766-2.25,.29297-3.32227s.52832-2.02344,.99805-2.85254c.46973-.83008,1.0957-1.49512,1.87793-1.99609,.7832-.50098,1.76855-.75098,2.95898-.75098,1.37695,0,2.47266,.36328,3.28711,1.0918,.81348,.72754,1.2832,1.78027,1.4082,3.15723h-1.99512c-.09375-.75098-.38379-1.35352-.86914-1.80762Zm-3.61523,5.55273c-.42285,.19629-.7832,.46191-1.08008,.79883-.29785,.33691-.52148,.73535-.66992,1.19727s-.22266,.95117-.22266,1.46777c0,.51562,.07812,1.00098,.23438,1.45508s.37988,.8457,.66992,1.17383c.28906,.3291,.64941,.5918,1.08008,.78711,.42969,.19531,.91895,.29297,1.4668,.29297s1.0293-.09766,1.44434-.29297c.41406-.19531,.7627-.46582,1.04492-.81055,.28125-.34375,.49609-.73926,.64551-1.18555,.14844-.44629,.22266-.91113,.22266-1.39648,0-.5166-.06641-1.00586-.19922-1.46777s-.34082-.86035-.62207-1.19727c-.28223-.33691-.63379-.60645-1.05664-.81055-.42285-.20312-.91602-.30469-1.47949-.30469s-1.05664,.09766-1.47852,.29297Z"/>
        <path class="cls-10" d="M483.60894,514.36082c-.73535,1.14258-1.38867,2.36328-1.95996,3.66211-.57129,1.2998-1.03711,2.6377-1.39746,4.01562-.36035,1.37695-.5791,2.71582-.65723,4.01465h-2.23047c.09375-1.40918,.3252-2.78223,.69238-4.12109,.36816-1.33789,.8418-2.62109,1.4209-3.85059,.5791-1.22852,1.24805-2.39062,2.00781-3.48633,.75879-1.0957,1.57617-2.10449,2.45312-3.02832h-8.73438v-1.87891h10.77734v1.71387c-.8457,.83008-1.63574,1.81641-2.37207,2.95898Z"/>
        <path class="cls-10" d="M534.75738,511.83641c.26562-.52441,.625-.96582,1.0791-1.32617s.97461-.63379,1.56152-.82227c.58691-.1875,1.20117-.28125,1.84375-.28125,.90723,0,1.68164,.12109,2.32422,.36328,.6416,.24316,1.16211,.56348,1.56152,.96289,.39844,.39941,.69238,.85352,.87988,1.3623,.18848,.50879,.28223,1.0293,.28223,1.56055,0,.75195-.20801,1.43652-.62207,2.05469-.41504,.61914-.97461,1.08398-1.67871,1.39746,1.00098,.31348,1.74512,.8252,2.23047,1.53809,.48438,.71191,.72754,1.58398,.72754,2.61719,0,.81445-.14453,1.53418-.43457,2.16016-.28906,.62598-.68066,1.1543-1.17383,1.58496s-1.07617,.75586-1.74902,.97461-1.39355,.32812-2.16016,.32812c-.79785,0-1.54199-.10156-2.23047-.30469-.68945-.20312-1.28809-.5166-1.7959-.93945-.50879-.42285-.9082-.95117-1.19727-1.58496-.29004-.63379-.43457-1.37305-.43457-2.21875,0-.98633,.25-1.84277,.75098-2.57031,.50098-.72852,1.2207-1.25684,2.16016-1.58496-.7041-.28223-1.26758-.74023-1.69043-1.37402s-.63379-1.32617-.63379-2.07812c0-.68848,.13281-1.29492,.39941-1.81934Zm2.12402,11.88086c.66504,.57129,1.51465,.85645,2.54785,.85645,.50098,0,.95898-.08203,1.37402-.24609,.41406-.16406,.77441-.3916,1.0791-.68066,.30566-.29004,.54004-.62988,.70508-1.02148,.16406-.3916,.24609-.82227,.24609-1.29199,0-.45312-.08984-.87207-.26953-1.25586-.18066-.38281-.42676-.71582-.74023-.99805-.3125-.28125-.67676-.50488-1.0918-.66895-.41406-.16406-.85645-.24609-1.32617-.24609-.48535,0-.94336,.07422-1.37402,.22266-.43066,.14941-.80566,.36426-1.12695,.64551-.32031,.28223-.57129,.61914-.75098,1.00977-.17969,.3916-.26953,.83008-.26953,1.31445,0,1.00195,.33203,1.78906,.99707,2.36035Zm-.17578-8.80469c.15625,.33691,.36719,.61426,.63379,.83301,.2666,.21973,.5791,.38379,.93945,.49316,.35938,.10938,.74316,.16406,1.15039,.16406,.79785,0,1.45605-.23438,1.97266-.7041s.77441-1.12695,.77441-1.97168c0-.8457-.2627-1.4834-.78613-1.91406-.52539-.43066-1.19434-.64551-2.00781-.64551-.3916,0-.76758,.05469-1.12695,.16406-.36035,.10938-.66895,.27441-.92773,.49316-.25781,.21973-.46582,.48535-.62207,.79883-.15625,.3125-.23438,.68066-.23438,1.10352,0,.4541,.07812,.84863,.23438,1.18555Z"/>
        <path class="cls-10" d="M591.57085,523.91649c.57812,.43848,1.26758,.65723,2.06543,.65723,1.22168,0,2.13672-.52832,2.74707-1.58496s.94727-2.67188,1.00977-4.84766l-.04688-.04785c-.37598,.70508-.9082,1.26465-1.59668,1.67969-.68848,.41406-1.44043,.62207-2.25391,.62207-.8457,0-1.59668-.13672-2.25391-.41113-.65723-.27344-1.20898-.65332-1.65527-1.13867s-.7832-1.07227-1.00977-1.76074-.34082-1.44043-.34082-2.25391c0-.79883,.13281-1.53027,.39941-2.19531,.2666-.66602,.6416-1.23633,1.12695-1.71484,.48535-.47656,1.06445-.84863,1.7373-1.11523,.67285-.26562,1.40918-.39844,2.20703-.39844,.7832,0,1.51855,.12109,2.20703,.36328,.68945,.24316,1.29199,.66211,1.80859,1.25684s.92676,1.4043,1.23242,2.42969,.45801,2.32812,.45801,3.90918c0,2.88086-.45801,5.0918-1.37402,6.63281-.91504,1.54199-2.38281,2.3125-4.40234,2.3125-1.39258,0-2.55078-.35156-3.47461-1.05566-.92383-.70508-1.44824-1.77637-1.57324-3.2168h1.99609c.07812,.81348,.40625,1.44043,.98633,1.87793Zm5.24707-10.40137c-.14844-.4541-.36816-.85645-.65723-1.20898-.29004-.35254-.64551-.62988-1.06836-.83398-.42285-.20312-.91602-.30469-1.47949-.30469-.59473,0-1.09961,.10938-1.51465,.32812-.41406,.21973-.75098,.51367-1.00879,.88086-.25879,.36816-.44629,.78711-.56348,1.25586-.11816,.46973-.17676,.96289-.17676,1.47949,0,.4541,.08203,.89258,.24707,1.31445,.16406,.42285,.39062,.79883,.68066,1.12793,.28906,.32812,.63379,.59082,1.0332,.78613,.39941,.19629,.84082,.29297,1.32617,.29297,.5166,0,.98633-.09668,1.40918-.29297,.42285-.19531,.78223-.46191,1.08008-.79883,.29688-.33594,.52441-.72754,.68066-1.17383,.15625-.44531,.23438-.91113,.23438-1.39648,0-.5166-.07422-1.00195-.22266-1.45605Z"/>
        <path class="cls-10" d="M652.33843,526.05321v-11.92773h-4.32031v-1.59668c.56348,0,1.11133-.04297,1.64355-.12891,.53125-.08594,1.0127-.24609,1.44336-.48145,.43066-.23438,.79492-.55566,1.0918-.96289,.29785-.40625,.50098-.92285,.61035-1.54883h1.52637v16.64648h-1.99512Z"/>
        <path class="cls-10" d="M660.06304,515.98094c.03125-.6582,.10938-1.2998,.23438-1.92578s.30566-1.2207,.54004-1.78418c.23535-.56348,.55566-1.05664,.96289-1.47949s.91895-.75879,1.53809-1.00977c.61816-.25,1.35742-.375,2.21875-.375,.86035,0,1.60059,.125,2.21875,.375,.61816,.25098,1.13086,.58691,1.53809,1.00977,.40625,.42285,.72754,.91602,.96191,1.47949,.23535,.56348,.41504,1.1582,.54004,1.78418,.12598,.62598,.2041,1.26758,.23535,1.92578,.03125,.65723,.04688,1.29102,.04688,1.90137s-.01562,1.24414-.04688,1.90234c-.03125,.65723-.10938,1.29883-.23535,1.9248-.125,.62598-.30469,1.21777-.54004,1.77246-.23438,.55566-.55566,1.04492-.96191,1.46777-.40723,.42285-.91602,.75488-1.52637,.99805-.61035,.24219-1.35449,.36328-2.23047,.36328-.86133,0-1.60059-.12109-2.21875-.36328-.61914-.24316-1.13086-.5752-1.53809-.99805s-.72754-.91211-.96289-1.46777c-.23438-.55469-.41504-1.14648-.54004-1.77246s-.20312-1.26758-.23438-1.9248c-.03125-.6582-.04688-1.29199-.04688-1.90234s.01562-1.24414,.04688-1.90137Zm2.125,3.97949c.03906,.77441,.16406,1.50293,.375,2.18359,.21191,.68066,.55176,1.25586,1.02148,1.72559s1.12695,.7041,1.97266,.7041c.84473,0,1.50293-.23438,1.97168-.7041,.46973-.46973,.81055-1.04492,1.02148-1.72559,.21191-.68066,.33691-1.40918,.37598-2.18359,.03906-.77539,.05859-1.47559,.05859-2.10156,0-.40723-.00391-.85645-.01172-1.34961s-.04688-.98633-.11719-1.47949-.17285-.97461-.30566-1.44434-.32812-.87988-.58691-1.23242c-.25781-.35254-.58301-.6377-.97363-.85742-.3916-.21875-.86914-.32812-1.43262-.32812s-1.04102,.10938-1.43262,.32812c-.3916,.21973-.71582,.50488-.97363,.85742-.25879,.35254-.45508,.7627-.58789,1.23242s-.23438,.95117-.30469,1.44434-.10938,.98633-.11719,1.47949c-.00879,.49316-.01172,.94238-.01172,1.34961,0,.62598,.01953,1.32617,.05859,2.10156Z"/>
        <path class="cls-10" d="M712.44781,526.05321v-11.92773h-4.32031v-1.59668c.56348,0,1.11133-.04297,1.64355-.12891,.53125-.08594,1.0127-.24609,1.44336-.48145,.43066-.23438,.79492-.55566,1.0918-.96289,.29785-.40625,.50098-.92285,.61035-1.54883h1.52637v16.64648h-1.99512Z"/>
        <path class="cls-10" d="M725.50249,526.05321v-11.92773h-4.32031v-1.59668c.56348,0,1.11133-.04297,1.64355-.12891,.53125-.08594,1.0127-.24609,1.44336-.48145,.43066-.23438,.79492-.55566,1.0918-.96289,.29785-.40625,.50098-.92285,.61035-1.54883h1.52637v16.64648h-1.99512Z"/>
        <path class="cls-1" d="M772.30425,526.05321v-11.92773h-4.32031v-1.59668c.56348,0,1.11133-.04297,1.64355-.12891,.53125-.08594,1.0127-.24609,1.44336-.48145,.43066-.23438,.79492-.55566,1.0918-.96289,.29785-.40625,.50098-.92285,.61035-1.54883h1.52637v16.64648h-1.99512Z"/>
        <path class="cls-1" d="M780.28667,512.95164c.21973-.71973,.55957-1.3418,1.02148-1.86621s1.03711-.93555,1.72559-1.2334c.68848-.29688,1.47168-.44531,2.34863-.44531,.71973,0,1.39648,.10547,2.03027,.31641,.63379,.21191,1.18555,.5166,1.65527,.91602s.8418,.89648,1.11523,1.49121c.27441,.59473,.41113,1.2832,.41113,2.06543,0,.73633-.11328,1.38574-.33984,1.94922-.22754,.56348-.52832,1.06836-.9043,1.51465s-.80664,.84863-1.29102,1.20898c-.48535,.36035-.98633,.7041-1.50293,1.0332-.5166,.31348-1.0332,.62207-1.5498,.92676-.5166,.30566-.99023,.63086-1.4209,.97461-.43066,.34473-.79785,.7168-1.10352,1.11523-.30469,.39941-.50488,.85742-.59863,1.37402h8.54688v1.76074h-10.87109c.07812-.98633,.25391-1.82715,.52832-2.52441,.27344-.69629,.62207-1.30273,1.04492-1.81934s.89941-.9707,1.43262-1.36133c.53125-.3916,1.08691-.75977,1.66699-1.10352,.7041-.43848,1.32227-.8418,1.85449-1.20996,.53223-.36719,.97461-.73926,1.32617-1.11523,.35254-.375,.61816-.78223,.79883-1.2207,.17969-.4375,.26953-.94629,.26953-1.52637,0-.45312-.08594-.86426-.25781-1.23242-.17285-.36719-.40332-.68457-.69238-.95117-.29004-.26562-.63086-.46875-1.02148-.61035-.3916-.14062-.80664-.21094-1.24512-.21094-.5791,0-1.07617,.12109-1.49023,.36426-.41504,.24219-.75586,.55957-1.02148,.9502-.2666,.3916-.45801,.83398-.5752,1.32715s-.16895,.99023-.15234,1.49023h-1.99609c-.04688-.84473,.03906-1.62695,.25781-2.34766Z"/>
        <path class="cls-1" d="M830.47808,526.05321v-11.92773h-4.32031v-1.59668c.56348,0,1.11133-.04297,1.64355-.12891,.53125-.08594,1.0127-.24609,1.44336-.48145,.43066-.23438,.79492-.55566,1.0918-.96289,.29785-.40625,.50098-.92285,.61035-1.54883h1.52637v16.64648h-1.99512Z"/>
        <path class="cls-1" d="M842.49956,516.56786h.65723c.42285,0,.8252-.05859,1.20898-.17676,.38379-.11719,.71973-.28906,1.00977-.5166,.28906-.22656,.52051-.51172,.69238-.85645,.17188-.34375,.25879-.73535,.25879-1.17383,0-.89258-.28223-1.56152-.8457-2.00781s-1.26758-.66895-2.11328-.66895c-.53223,0-.99805,.09766-1.39648,.29297-.39941,.19629-.72852,.45801-.98633,.78711-.25879,.32812-.4502,.71191-.5752,1.15039-.12598,.43848-.1875,.90039-.1875,1.38477h-1.99609c.03125-.79785,.16016-1.52539,.3877-2.18359,.22656-.65723,.55176-1.2207,.97363-1.69043,.42285-.46875,.95117-.83691,1.58496-1.10352,.63379-.26562,1.36621-.39844,2.19531-.39844,.71973,0,1.38965,.08984,2.00781,.26953,.61816,.18066,1.1543,.4502,1.6084,.81055s.80957,.82129,1.06836,1.38477c.25781,.56348,.3877,1.22949,.3877,1.99609,0,.75098-.21973,1.41699-.6582,1.99512-.43848,.58008-.98535,1.01855-1.64355,1.31543v.04688c1.01758,.21973,1.77344,.69629,2.26562,1.43262,.49316,.73535,.74023,1.60449,.74023,2.60547,0,.83008-.15234,1.56152-.45801,2.19531s-.71582,1.16211-1.23242,1.58496-1.12402,.74023-1.82031,.95117-1.43555,.31641-2.21875,.31641c-.84473,0-1.6123-.11719-2.30078-.35156-.68848-.23535-1.27539-.58301-1.76074-1.04492s-.85742-1.0293-1.11523-1.70215c-.25879-.67285-.37988-1.44043-.36426-2.30078h1.99609c.03125,1.08008,.34375,1.95996,.93945,2.64062,.59473,.68164,1.46289,1.02148,2.60547,1.02148,.48535,0,.94727-.07422,1.38574-.22266,.4375-.14844,.82129-.36035,1.15039-.63379,.3291-.27441,.59082-.61035,.78613-1.00977,.19629-.39941,.29395-.84863,.29395-1.35059,0-.51562-.09375-.97363-.28223-1.37305-.1875-.39941-.4375-.73535-.75098-1.00977-.31348-.27344-.68457-.47754-1.11523-.61035s-.89648-.19922-1.39648-.19922c-.42285,0-.82227,.02344-1.19824,.07031v-1.69043c.07812,.01562,.14844,.02344,.21191,.02344Z"/>
        <path class="cls-1" d="M884.99761,526.05321v-11.92773h-4.32031v-1.59668c.56348,0,1.11133-.04297,1.64355-.12891,.53125-.08594,1.0127-.24609,1.44336-.48145,.43066-.23438,.79492-.55566,1.0918-.96289,.29785-.40625,.50098-.92285,.61035-1.54883h1.52637v16.64648h-1.99512Z"/>
        <path class="cls-1" d="M903.78081,520.395v1.76074h-2.25391v3.89746h-1.87793v-3.89746h-7.30273v-1.92578l7.58398-10.82324h1.59668v10.98828h2.25391Zm-4.13184-8.14746h-.04785l-5.54102,8.14746h5.58887v-8.14746Z"/>
        <path class="cls-1" d="M934.71929,526.05321v-11.92773h-4.32031v-1.59668c.56348,0,1.11133-.04297,1.64355-.12891,.53125-.08594,1.0127-.24609,1.44336-.48145,.43066-.23438,.79492-.55566,1.0918-.96289,.29785-.40625,.50098-.92285,.61035-1.54883h1.52637v16.64648h-1.99512Z"/>
        <path class="cls-1" d="M945.73101,511.44872l-.89258,4.79004,.04688,.04688c.36035-.40625,.82617-.70801,1.39746-.90332,.57129-.19629,1.13867-.29395,1.70215-.29395,.73535,0,1.43262,.11719,2.08984,.35254,.65723,.23438,1.22852,.59082,1.71387,1.06836s.86816,1.07227,1.15039,1.78418,.42285,1.5459,.42285,2.5c0,.70508-.12207,1.38965-.36426,2.05469-.24316,.66602-.60645,1.25586-1.0918,1.77246s-1.0918,.92773-1.81934,1.2334c-.72852,.30469-1.57715,.45703-2.54785,.45703-.71973,0-1.39648-.10547-2.03125-.31641-.63379-.21094-1.19336-.5166-1.67871-.91602s-.86816-.89551-1.15039-1.49023c-.28125-.59473-.43066-1.26855-.44629-2.01953h1.99609c.03125,.42285,.13672,.81836,.31738,1.18555,.17969,.36816,.42188,.68848,.72754,.96289,.30566,.27344,.66504,.48535,1.08008,.63379s.87207,.22266,1.37402,.22266c.46875,0,.91895-.08203,1.34961-.24609s.80566-.41113,1.12695-.73926c.32031-.3291,.5752-.74023,.7627-1.2334,.18848-.49316,.28223-1.06836,.28223-1.72559,0-.54785-.08984-1.05273-.27051-1.51465-.17969-.46094-.43359-.86035-.7627-1.19727-.3291-.33594-.72461-.59863-1.18555-.78613-.46191-.18848-.97461-.28223-1.53809-.28223-.65723,0-1.24023,.14551-1.74902,.43457-.50879,.29004-.95898,.66895-1.35059,1.13867l-1.71387-.09375,1.5498-8.64062h8.21777v1.76074h-6.71484Z"/>
      </g>
      <g>
        <path class="cls-1" d="M64.3521,211.61864l-1.1543,6.19824,.06055,.06055c.46582-.52637,1.06836-.91602,1.80762-1.16895,.73926-.25391,1.47363-.37988,2.20312-.37988,.95215,0,1.85352,.15137,2.7041,.45508,.85059,.30469,1.58984,.76562,2.21777,1.38281,.62793,.61816,1.125,1.3877,1.48926,2.30957s.54688,2,.54688,3.23535c0,.91211-.15723,1.79883-.4707,2.65918-.31445,.86133-.78516,1.62598-1.41309,2.29395-.62793,.66895-1.41309,1.2002-2.35449,1.5957-.94238,.39453-2.04102,.5918-3.29688,.5918-.93262,0-1.80762-.13672-2.62891-.41016-.82031-.27344-1.54492-.66797-2.17188-1.18457-.62793-.5166-1.12402-1.15918-1.48926-1.92969-.36426-.76953-.55762-1.64062-.57715-2.61328h2.58301c.04004,.54688,.17676,1.05859,.41016,1.53418,.23242,.47656,.54688,.8916,.94141,1.24609,.39551,.35449,.86133,.62793,1.39844,.82031,.53613,.19336,1.12891,.28906,1.77734,.28906,.60742,0,1.18945-.10645,1.74707-.31934,.55664-.21289,1.04297-.53125,1.45801-.95703s.74512-.95703,.9873-1.59473c.24316-.63867,.36523-1.38281,.36523-2.2334,0-.70898-.11719-1.3623-.34961-1.95996-.2334-.59766-.5625-1.11426-.9873-1.5498-.42578-.43555-.9375-.77441-1.53418-1.01758-.59863-.24316-1.26172-.36523-1.99023-.36523-.85156,0-1.60645,.1875-2.26367,.5625-.65918,.375-1.24121,.86621-1.74707,1.47363l-2.21875-.12207,2.00586-11.18164h10.63477v2.2793h-8.69043Z"/>
        <path class="cls-1" d="M92.12359,214.80907v2.30957h.06152c1.17383-1.78223,2.86621-2.67383,5.07422-2.67383,.97168,0,1.85352,.20215,2.64355,.60742s1.34668,1.09375,1.6709,2.06641c.52637-.85156,1.21973-1.50879,2.08105-1.97559,.86133-.46582,1.80859-.69824,2.84082-.69824,.79004,0,1.50488,.08594,2.14258,.25781,.6377,.17285,1.18457,.44043,1.64062,.80566,.45605,.36426,.81055,.83496,1.06348,1.41211,.25293,.57812,.37988,1.27148,.37988,2.08203v11.51562h-2.58301v-10.30078c0-.48633-.04004-.94141-.12109-1.36719-.08105-.4248-.2334-.79492-.45605-1.10938-.22266-.31348-.53125-.56152-.92676-.74414-.39453-.18164-.90625-.27344-1.53418-.27344-1.27637,0-2.2793,.36523-3.00781,1.09375-.72949,.72949-1.09375,1.70215-1.09375,2.91699v9.78418h-2.58301v-10.30078c0-.50586-.0459-.97168-.13672-1.39746-.0918-.42578-.24805-.79492-.4707-1.10938-.22363-.31348-.52246-.55664-.89648-.72852-.375-.17188-.85645-.25879-1.44336-.25879-.75,0-1.39355,.15234-1.92969,.45605-.53711,.30371-.97266,.66797-1.30664,1.09375s-.57715,.86621-.72949,1.32129c-.15137,.45605-.22754,.83594-.22754,1.13965v9.78418h-2.58301v-15.70898h2.43066Z"/>
        <path class="cls-1" d="M74.40972,282.30711v2.2793h-2.91699v5.04395h-2.43066v-5.04395h-9.4502v-2.49121l9.81445-14.00781h2.06641v14.21973h2.91699Zm-5.34766-10.54297h-.06152l-7.16992,10.54297h7.23145v-10.54297Z"/>
        <path class="cls-1" d="M65.65874,336.46825h.85059c.54688,0,1.06836-.07617,1.56445-.22754,.49707-.15234,.93164-.375,1.30664-.66895,.375-.29297,.67383-.66309,.89648-1.10938,.22266-.44531,.33496-.95117,.33496-1.51855,0-1.15527-.36523-2.02051-1.09473-2.59863-.72852-.57715-1.64062-.86523-2.73438-.86523-.68848,0-1.29102,.12598-1.80762,.37988-.5166,.25293-.94238,.5918-1.27637,1.01758-.33398,.4248-.58203,.92188-.74414,1.48828-.16309,.56738-.24316,1.16504-.24316,1.79297h-2.58301c.04004-1.0332,.20801-1.97461,.50195-2.8252,.29297-.85156,.71387-1.58008,1.26074-2.18848,.54688-.60742,1.23047-1.08301,2.05078-1.42773,.82031-.34375,1.7666-.5166,2.84082-.5166,.93164,0,1.79785,.11719,2.59766,.34961,.80078,.2334,1.49414,.58203,2.08203,1.04785,.58691,.4668,1.04785,1.06348,1.38184,1.79297,.33496,.72949,.50195,1.59082,.50195,2.58301,0,.97168-.28418,1.83301-.85059,2.58203-.56738,.75-1.27637,1.31738-2.12695,1.70215v.06055c1.31641,.28418,2.29395,.90137,2.93164,1.85352,.63867,.95215,.95703,2.07617,.95703,3.37305,0,1.07324-.19727,2.02051-.5918,2.84082-.39551,.82031-.92676,1.50391-1.5957,2.05078-.66797,.54688-1.4541,.95703-2.35449,1.23047-.90234,.27344-1.85938,.41016-2.87207,.41016-1.09375,0-2.08594-.15137-2.97754-.45508-.8916-.30469-1.65137-.75488-2.27832-1.35254-.62891-.59766-1.10938-1.33203-1.44336-2.20312-.33496-.87012-.49121-1.86328-.47168-2.97754h2.58301c.04004,1.39746,.44531,2.53711,1.21582,3.41797,.76953,.88184,1.89355,1.32227,3.37207,1.32227,.62793,0,1.22559-.0957,1.79297-.28906,.56738-.19238,1.06348-.46582,1.48926-.82031,.4248-.35449,.76367-.79004,1.01758-1.30664,.25293-.5166,.37988-1.09863,.37988-1.74707,0-.66797-.12109-1.26074-.36426-1.77734s-.56738-.95215-.97266-1.30664-.88672-.61719-1.44336-.79004c-.55762-.17188-1.16016-.25781-1.80762-.25781-.54688,0-1.06348,.03027-1.5498,.09082v-2.1875c.10059,.02051,.19238,.03027,.27344,.03027Z"/>
        <path class="cls-1" d="M60.43218,390.90086c.28418-.93164,.72461-1.73633,1.32227-2.41504,.59668-.67871,1.3418-1.21094,2.2334-1.5957,.89062-.38477,1.90332-.57715,3.03809-.57715,.93164,0,1.80762,.13672,2.62793,.41016,.82129,.27344,1.53516,.66895,2.14258,1.18555,.60742,.51562,1.08887,1.15918,1.44336,1.92871,.35449,.77051,.53125,1.66113,.53125,2.67383,0,.95312-.14648,1.79297-.44043,2.52246s-.68359,1.38281-1.16992,1.95996c-.48535,.57715-1.04297,1.09863-1.6709,1.56445s-1.27637,.91113-1.94434,1.33691c-.66895,.40527-1.33691,.80566-2.00586,1.2002-.66797,.39551-1.28125,.81543-1.83789,1.26074-.55762,.44629-1.0332,.92676-1.42871,1.44336-.39453,.5166-.65234,1.10938-.77441,1.77734h11.06055v2.2793h-14.06836c.10059-1.27637,.3291-2.36523,.68359-3.2666,.35352-.90137,.80469-1.68652,1.35156-2.35449,.54688-.66895,1.16504-1.25586,1.85352-1.7627,.68848-.50586,1.4082-.98242,2.15723-1.42773,.91211-.56738,1.71191-1.08887,2.40039-1.56445,.68848-.47656,1.26172-.95801,1.7168-1.44336,.45605-.48633,.80078-1.0127,1.0332-1.58008,.2334-.56738,.34961-1.22559,.34961-1.97559,0-.58691-.11133-1.11914-.33398-1.59473-.22363-.47559-.52148-.88574-.89648-1.23047s-.81543-.6084-1.32129-.79004c-.50684-.18262-1.04395-.27344-1.61133-.27344-.74902,0-1.39258,.15723-1.92871,.4707-.53711,.31445-.97754,.72461-1.32227,1.23047-.34473,.50684-.5918,1.0791-.74414,1.7168s-.21777,1.28125-.19727,1.92969h-2.58301c-.06055-1.09375,.05078-2.10645,.33398-3.03906Z"/>
        <path class="cls-1" d="M66.99566,466.96825v-15.43555h-5.59082v-2.06641c.72949,0,1.43848-.05566,2.12695-.16699s1.31152-.31934,1.86816-.62305c.55762-.30371,1.02832-.71875,1.41309-1.24512,.38477-.52734,.64844-1.19531,.79004-2.00586h1.97559v21.54297h-2.58301Z"/>
        <path class="cls-1" d="M60.0982,513.04539c.04004-.85059,.1416-1.68066,.30371-2.49121s.39551-1.58008,.69922-2.30957,.71875-1.36719,1.24512-1.91406c.52734-.54688,1.19043-.98242,1.99023-1.30664,.80078-.32422,1.75781-.48633,2.87207-.48633,1.11328,0,2.07031,.16211,2.87109,.48633,.7998,.32422,1.46289,.75977,1.99023,1.30664,.52637,.54688,.94238,1.18457,1.24609,1.91406s.53613,1.49902,.69824,2.30957,.26367,1.64062,.30371,2.49121c.04102,.85059,.06152,1.6709,.06152,2.46094s-.02051,1.61035-.06152,2.46191c-.04004,.85059-.1416,1.68066-.30371,2.49121s-.39453,1.5752-.69824,2.29395c-.30371,.71973-.71973,1.35254-1.24609,1.89941-.52734,.54688-1.18457,.97754-1.97461,1.29102s-1.75293,.4707-2.88672,.4707c-1.11426,0-2.07129-.15723-2.87207-.4707-.7998-.31348-1.46289-.74414-1.99023-1.29102-.52637-.54688-.94141-1.17969-1.24512-1.89941-.30371-.71875-.53711-1.4834-.69922-2.29395s-.26367-1.64062-.30371-2.49121c-.04102-.85156-.06055-1.67188-.06055-2.46191s.01953-1.61035,.06055-2.46094Zm2.75,5.15039c.0498,1.00293,.21289,1.94434,.48633,2.8252,.27344,.88184,.71387,1.62598,1.32129,2.2334,.60742,.6084,1.45898,.91211,2.55273,.91211s1.94434-.30371,2.55176-.91211c.6084-.60742,1.04883-1.35156,1.32227-2.2334,.27344-.88086,.43555-1.82227,.48633-2.8252,.0498-1.00293,.0752-1.90918,.0752-2.71973,0-.52637-.00488-1.10938-.01465-1.74707-.01074-.6377-.06055-1.27637-.15234-1.91406-.09082-.63867-.22266-1.26074-.39453-1.86914-.17285-.60742-.42578-1.13867-.75977-1.59473s-.75488-.8252-1.26074-1.10938c-.50684-.2832-1.125-.4248-1.85352-.4248-.72949,0-1.34766,.1416-1.85352,.4248-.50684,.28418-.92676,.65332-1.26074,1.10938-.33496,.45605-.58789,.9873-.75977,1.59473-.17285,.6084-.30371,1.23047-.39551,1.86914-.09082,.6377-.1416,1.27637-.15137,1.91406-.01074,.6377-.01562,1.2207-.01562,1.74707,0,.81055,.02539,1.7168,.07617,2.71973Z"/>
        <path class="cls-1" d="M92.12359,510.37157v2.30957h.06152c1.17383-1.78223,2.86621-2.67383,5.07422-2.67383,.97168,0,1.85352,.20215,2.64355,.60742s1.34668,1.09375,1.6709,2.06641c.52637-.85156,1.21973-1.50879,2.08105-1.97559,.86133-.46582,1.80859-.69824,2.84082-.69824,.79004,0,1.50488,.08594,2.14258,.25781,.6377,.17285,1.18457,.44043,1.64062,.80566,.45605,.36426,.81055,.83496,1.06348,1.41211,.25293,.57812,.37988,1.27148,.37988,2.08203v11.51562h-2.58301v-10.30078c0-.48633-.04004-.94141-.12109-1.36719-.08105-.4248-.2334-.79492-.45605-1.10938-.22266-.31348-.53125-.56152-.92676-.74414-.39453-.18164-.90625-.27344-1.53418-.27344-1.27637,0-2.2793,.36523-3.00781,1.09375-.72949,.72949-1.09375,1.70215-1.09375,2.91699v9.78418h-2.58301v-10.30078c0-.50586-.0459-.97168-.13672-1.39746-.0918-.42578-.24805-.79492-.4707-1.10938-.22363-.31348-.52246-.55664-.89648-.72852-.375-.17188-.85645-.25879-1.44336-.25879-.75,0-1.39355,.15234-1.92969,.45605-.53711,.30371-.97266,.66797-1.30664,1.09375s-.57715,.86621-.72949,1.32129c-.15137,.45605-.22754,.83594-.22754,1.13965v9.78418h-2.58301v-15.70898h2.43066Z"/>
        <path class="cls-1" d="M66.99566,585.19383v-15.43555h-5.59082v-2.06641c.72949,0,1.43848-.05566,2.12695-.16699s1.31152-.31934,1.86816-.62305c.55762-.30371,1.02832-.71875,1.41309-1.24512,.38477-.52734,.64844-1.19531,.79004-2.00586h1.97559v21.54297h-2.58301Z"/>
        <path class="cls-1" d="M60.43218,627.35106c.28418-.93164,.72461-1.73633,1.32227-2.41504,.59668-.67871,1.3418-1.21094,2.2334-1.5957,.89062-.38477,1.90332-.57715,3.03809-.57715,.93164,0,1.80762,.13672,2.62793,.41016,.82129,.27344,1.53516,.66895,2.14258,1.18555,.60742,.51562,1.08887,1.15918,1.44336,1.92871,.35449,.77051,.53125,1.66113,.53125,2.67383,0,.95312-.14648,1.79297-.44043,2.52246s-.68359,1.38281-1.16992,1.95996c-.48535,.57715-1.04297,1.09863-1.6709,1.56445s-1.27637,.91113-1.94434,1.33691c-.66895,.40527-1.33691,.80566-2.00586,1.2002-.66797,.39551-1.28125,.81543-1.83789,1.26074-.55762,.44629-1.0332,.92676-1.42871,1.44336-.39453,.5166-.65234,1.10938-.77441,1.77734h11.06055v2.2793h-14.06836c.10059-1.27637,.3291-2.36523,.68359-3.2666,.35352-.90137,.80469-1.68652,1.35156-2.35449,.54688-.66895,1.16504-1.25586,1.85352-1.7627,.68848-.50586,1.4082-.98242,2.15723-1.42773,.91211-.56738,1.71191-1.08887,2.40039-1.56445,.68848-.47656,1.26172-.95801,1.7168-1.44336,.45605-.48633,.80078-1.0127,1.0332-1.58008,.2334-.56738,.34961-1.22559,.34961-1.97559,0-.58691-.11133-1.11914-.33398-1.59473-.22363-.47559-.52148-.88574-.89648-1.23047s-.81543-.6084-1.32129-.79004c-.50684-.18262-1.04395-.27344-1.61133-.27344-.74902,0-1.39258,.15723-1.92871,.4707-.53711,.31445-.97754,.72461-1.32227,1.23047-.34473,.50684-.5918,1.0791-.74414,1.7168s-.21777,1.28125-.19727,1.92969h-2.58301c-.06055-1.09375,.05078-2.10645,.33398-3.03906Z"/>
        <path class="cls-1" d="M65.65874,691.14305h.85059c.54688,0,1.06836-.07617,1.56445-.22754,.49707-.15234,.93164-.375,1.30664-.66895,.375-.29297,.67383-.66309,.89648-1.10938,.22266-.44531,.33496-.95117,.33496-1.51855,0-1.15527-.36523-2.02051-1.09473-2.59863-.72852-.57715-1.64062-.86523-2.73438-.86523-.68848,0-1.29102,.12598-1.80762,.37988-.5166,.25293-.94238,.5918-1.27637,1.01758-.33398,.4248-.58203,.92188-.74414,1.48828-.16309,.56738-.24316,1.16504-.24316,1.79297h-2.58301c.04004-1.0332,.20801-1.97461,.50195-2.8252,.29297-.85156,.71387-1.58008,1.26074-2.18848,.54688-.60742,1.23047-1.08301,2.05078-1.42773,.82031-.34375,1.7666-.5166,2.84082-.5166,.93164,0,1.79785,.11719,2.59766,.34961,.80078,.2334,1.49414,.58203,2.08203,1.04785,.58691,.4668,1.04785,1.06348,1.38184,1.79297,.33496,.72949,.50195,1.59082,.50195,2.58301,0,.97168-.28418,1.83301-.85059,2.58203-.56738,.75-1.27637,1.31738-2.12695,1.70215v.06055c1.31641,.28418,2.29395,.90137,2.93164,1.85352,.63867,.95215,.95703,2.07617,.95703,3.37305,0,1.07324-.19727,2.02051-.5918,2.84082-.39551,.82031-.92676,1.50391-1.5957,2.05078-.66797,.54688-1.4541,.95703-2.35449,1.23047-.90234,.27344-1.85938,.41016-2.87207,.41016-1.09375,0-2.08594-.15137-2.97754-.45508-.8916-.30469-1.65137-.75488-2.27832-1.35254-.62891-.59766-1.10938-1.33203-1.44336-2.20312-.33496-.87012-.49121-1.86328-.47168-2.97754h2.58301c.04004,1.39746,.44531,2.53711,1.21582,3.41797,.76953,.88184,1.89355,1.32227,3.37207,1.32227,.62793,0,1.22559-.0957,1.79297-.28906,.56738-.19238,1.06348-.46582,1.48926-.82031,.4248-.35449,.76367-.79004,1.01758-1.30664,.25293-.5166,.37988-1.09863,.37988-1.74707,0-.66797-.12109-1.26074-.36426-1.77734s-.56738-.95215-.97266-1.30664-.88672-.61719-1.44336-.79004c-.55762-.17188-1.16016-.25781-1.80762-.25781-.54688,0-1.06348,.03027-1.5498,.09082v-2.1875c.10059,.02051,.19238,.03027,.27344,.03027Z"/>
        <path class="cls-1" d="M74.40972,755.2075v2.2793h-2.91699v5.04395h-2.43066v-5.04395h-9.4502v-2.49121l9.81445-14.00781h2.06641v14.21973h2.91699Zm-5.34766-10.54297h-.06152l-7.16992,10.54297h7.23145v-10.54297Z"/>
        <path class="cls-1" d="M64.3521,802.74461l-1.1543,6.19824,.06055,.06055c.46582-.52637,1.06836-.91602,1.80762-1.16895,.73926-.25391,1.47363-.37988,2.20312-.37988,.95215,0,1.85352,.15137,2.7041,.45508,.85059,.30469,1.58984,.76562,2.21777,1.38281,.62793,.61816,1.125,1.3877,1.48926,2.30957s.54688,2,.54688,3.23535c0,.91211-.15723,1.79883-.4707,2.65918-.31445,.86133-.78516,1.62598-1.41309,2.29395-.62793,.66895-1.41309,1.2002-2.35449,1.5957-.94238,.39453-2.04102,.5918-3.29688,.5918-.93262,0-1.80762-.13672-2.62891-.41016-.82031-.27344-1.54492-.66797-2.17188-1.18457-.62793-.5166-1.12402-1.15918-1.48926-1.92969-.36426-.76953-.55762-1.64062-.57715-2.61328h2.58301c.04004,.54688,.17676,1.05859,.41016,1.53418,.23242,.47656,.54688,.8916,.94141,1.24609,.39551,.35449,.86133,.62793,1.39844,.82031,.53613,.19336,1.12891,.28906,1.77734,.28906,.60742,0,1.18945-.10645,1.74707-.31934,.55664-.21289,1.04297-.53125,1.45801-.95703s.74512-.95703,.9873-1.59473c.24316-.63867,.36523-1.38281,.36523-2.2334,0-.70898-.11719-1.3623-.34961-1.95996-.2334-.59766-.5625-1.11426-.9873-1.5498-.42578-.43555-.9375-.77441-1.53418-1.01758-.59863-.24316-1.26172-.36523-1.99023-.36523-.85156,0-1.60645,.1875-2.26367,.5625-.65918,.375-1.24121,.86621-1.74707,1.47363l-2.21875-.12207,2.00586-11.18164h10.63477v2.2793h-8.69043Z"/>
        <path class="cls-1" d="M92.12359,805.93504v2.30957h.06152c1.17383-1.78223,2.86621-2.67383,5.07422-2.67383,.97168,0,1.85352,.20215,2.64355,.60742s1.34668,1.09375,1.6709,2.06641c.52637-.85156,1.21973-1.50879,2.08105-1.97559,.86133-.46582,1.80859-.69824,2.84082-.69824,.79004,0,1.50488,.08594,2.14258,.25781,.6377,.17285,1.18457,.44043,1.64062,.80566,.45605,.36426,.81055,.83496,1.06348,1.41211,.25293,.57812,.37988,1.27148,.37988,2.08203v11.51562h-2.58301v-10.30078c0-.48633-.04004-.94141-.12109-1.36719-.08105-.4248-.2334-.79492-.45605-1.10938-.22266-.31348-.53125-.56152-.92676-.74414-.39453-.18164-.90625-.27344-1.53418-.27344-1.27637,0-2.2793,.36523-3.00781,1.09375-.72949,.72949-1.09375,1.70215-1.09375,2.91699v9.78418h-2.58301v-10.30078c0-.50586-.0459-.97168-.13672-1.39746-.0918-.42578-.24805-.79492-.4707-1.10938-.22363-.31348-.52246-.55664-.89648-.72852-.375-.17188-.85645-.25879-1.44336-.25879-.75,0-1.39355,.15234-1.92969,.45605-.53711,.30371-.97266,.66797-1.30664,1.09375s-.57715,.86621-.72949,1.32129c-.15137,.45605-.22754,.83594-.22754,1.13965v9.78418h-2.58301v-15.70898h2.43066Z"/>
      </g>
      <g>
        <rect class="cls-1" x="845.06381" y="888.69555" width="40.26628" height="16.99131"/>
        <rect class="cls-5" x="845.06381" y="845.63256" width="40.26628" height="16.99131"/>
        <rect class="cls-9" x="845.06381" y="802.56956" width="40.26628" height="16.99131"/>
        <rect class="cls-4" x="845.06381" y="759.50657" width="40.26628" height="16.99131"/>
        <rect class="cls-7" x="845.06381" y="716.44358" width="40.26628" height="16.99131"/>
        <rect class="cls-8" x="845.06381" y="673.38059" width="40.26628" height="16.99131"/>
        <rect class="cls-6" x="845.06381" y="630.31759" width="40.26628" height="16.99131"/>
        <g>
          <path class="cls-1" d="M905.86773,630.58055l-.99707,5.35352,.05273,.05273c.40234-.45508,.92285-.79199,1.56152-1.01074s1.27246-.32812,1.90234-.32812c.82227,0,1.60059,.13086,2.33594,.39355,.73438,.2627,1.37305,.66113,1.91504,1.19434s.9707,1.19824,1.28613,1.99414c.31445,.7959,.47266,1.72754,.47266,2.79492,0,.78711-.13574,1.55273-.40723,2.2959-.27148,.74414-.67773,1.4043-1.2207,1.98145-.54199,.57715-1.21973,1.03613-2.0332,1.37793-.81348,.34082-1.7627,.51172-2.84766,.51172-.80469,0-1.56055-.11816-2.26953-.35449-.70801-.23633-1.33398-.57715-1.87598-1.02344-.54297-.44629-.9707-1.00098-1.28613-1.66602-.31445-.66504-.48145-1.41797-.49902-2.25684h2.23145c.03418,.47168,.15234,.91406,.35352,1.3252s.47266,.76953,.81348,1.0752c.3418,.30664,.74414,.54297,1.20703,.70898,.46387,.16602,.97559,.24902,1.53516,.24902,.52539,0,1.02832-.0918,1.50879-.27539,.48145-.18359,.90137-.45898,1.25977-.82617,.3584-.36816,.64355-.82715,.85352-1.37793,.20996-.55176,.31445-1.19434,.31445-1.92871,0-.6123-.10059-1.17676-.30176-1.69238-.20117-.5166-.48535-.96191-.85254-1.33887-.36719-.37598-.80957-.66895-1.3252-.87891-.5166-.20996-1.08887-.31543-1.71875-.31543-.73535,0-1.38672,.16211-1.95508,.48633-.56934,.32324-1.07227,.74707-1.50879,1.27246l-1.91602-.10547,1.73242-9.65625h9.18457v1.96777h-7.50586Z"/>
          <path class="cls-1" d="M930.1148,628.16649v18.73633h-2.23047v-18.73633h2.23047Z"/>
          <path class="cls-1" d="M944.28472,646.90282v-2.15137h-.05273c-.47168,.83887-1.0752,1.45605-1.81055,1.84961-.73438,.39355-1.60059,.59082-2.59766,.59082-.89258,0-1.63574-.11816-2.23047-.35449s-1.07617-.57324-1.44336-1.01074c-.36719-.43652-.62598-.95801-.77441-1.56152s-.22266-1.27246-.22266-2.00684v-8.92188h2.23047v9.18359c0,.83984,.24414,1.50488,.73438,1.99512,.49023,.48926,1.16309,.73438,2.02051,.73438,.68262,0,1.27344-.10449,1.77148-.31445,.49902-.20996,.91406-.50781,1.24707-.89258,.33203-.38477,.58105-.83496,.74707-1.35156,.16602-.51562,.25-1.08008,.25-1.69238v-7.66211h2.23047v13.56641h-2.09961Z"/>
          <path class="cls-1" d="M950.24077,633.33641h2.86035l3.25391,4.74902,3.38477-4.74902h2.67676l-4.6709,6.24512,5.24902,7.32129h-2.86035l-3.7793-5.61523-3.77832,5.61523h-2.70312l5.09082-7.1377-4.72363-6.42871Z"/>
          <path class="cls-1" d="M908.15093,689.63133v-13.33105h-4.82812v-1.78418c.62988,0,1.24219-.04785,1.83691-.14453,.59473-.0957,1.13184-.27539,1.61328-.53809,.48145-.26172,.8877-.62012,1.2207-1.0752,.33203-.45508,.55957-1.03223,.68262-1.73242h1.70508v18.60547h-2.23047Z"/>
          <path class="cls-1" d="M918.35796,678.37352c.03516-.73438,.12207-1.45215,.2627-2.15137,.13965-.7002,.34082-1.36523,.60352-1.99414,.2627-.62988,.62109-1.18164,1.07617-1.65332,.4541-.47266,1.02734-.84863,1.71875-1.12891,.69043-.2793,1.51758-.41992,2.47949-.41992s1.78906,.14062,2.48047,.41992c.69043,.28027,1.26367,.65625,1.71875,1.12891,.4541,.47168,.81348,1.02344,1.0752,1.65332,.2627,.62891,.46387,1.29395,.60352,1.99414,.14062,.69922,.22754,1.41699,.2627,2.15137,.03516,.73535,.05273,1.44336,.05273,2.12598,0,.68164-.01758,1.39062-.05273,2.125-.03516,.73535-.12207,1.45312-.2627,2.15234-.13965,.7002-.34082,1.36035-.60352,1.98145-.26172,.62109-.62109,1.16699-1.0752,1.63965-.45508,.47266-1.02344,.84473-1.70605,1.11523-.68262,.27148-1.51367,.40723-2.49316,.40723-.96191,0-1.78906-.13574-2.47949-.40723-.69141-.27051-1.26465-.64258-1.71875-1.11523-.45508-.47266-.81348-1.01855-1.07617-1.63965s-.46387-1.28125-.60352-1.98145c-.14062-.69922-.22754-1.41699-.2627-2.15234-.03516-.73438-.05176-1.44336-.05176-2.125,0-.68262,.0166-1.39062,.05176-2.12598Zm2.375,4.44824c.04395,.86621,.18359,1.67969,.41992,2.44043s.61719,1.4043,1.1416,1.92871,1.25977,.78711,2.2041,.78711c.94531,0,1.67969-.2627,2.2041-.78711,.52539-.52441,.90527-1.16797,1.1416-1.92871s.37598-1.57422,.41992-2.44043,.06543-1.64844,.06543-2.34863c0-.45508-.00391-.95801-.0127-1.50879-.00879-.55176-.05273-1.10254-.13086-1.65332-.0791-.55078-.19336-1.08887-.3418-1.61426-.14844-.52441-.36719-.9834-.65527-1.37695-.28906-.39453-.65234-.71289-1.08984-.95801s-.9707-.36719-1.60059-.36719-1.16309,.12207-1.60059,.36719-.7998,.56348-1.08887,.95801c-.28906,.39355-.50781,.85254-.65625,1.37695-.14844,.52539-.2627,1.06348-.34082,1.61426-.0791,.55078-.12305,1.10156-.13184,1.65332-.00879,.55078-.0127,1.05371-.0127,1.50879,0,.7002,.02148,1.48242,.06543,2.34863Z"/>
          <path class="cls-1" d="M946.27886,670.895v18.73633h-2.23047v-18.73633h2.23047Z"/>
          <path class="cls-1" d="M960.44878,689.63133v-2.15137h-.05273c-.47168,.83887-1.0752,1.45605-1.81055,1.84961-.73438,.39355-1.60059,.59082-2.59766,.59082-.89258,0-1.63574-.11816-2.23047-.35449s-1.07617-.57324-1.44336-1.01074c-.36719-.43652-.62598-.95801-.77441-1.56152s-.22266-1.27246-.22266-2.00684v-8.92188h2.23047v9.18359c0,.83984,.24414,1.50488,.73438,1.99512,.49023,.48926,1.16309,.73438,2.02051,.73438,.68262,0,1.27344-.10449,1.77148-.31445,.49902-.20996,.91406-.50781,1.24707-.89258,.33203-.38477,.58105-.83496,.74707-1.35156,.16602-.51562,.25-1.08008,.25-1.69238v-7.66211h2.23047v13.56641h-2.09961Z"/>
          <path class="cls-1" d="M966.40484,676.06493h2.86035l3.25391,4.74902,3.38477-4.74902h2.67676l-4.6709,6.24512,5.24902,7.32129h-2.86035l-3.7793-5.61523-3.77832,5.61523h-2.70312l5.09082-7.1377-4.72363-6.42871Z"/>
          <path class="cls-1" d="M902.48296,717.71727c.24512-.80469,.625-1.5,1.1416-2.08594,.51562-.58594,1.1582-1.0459,1.92871-1.37793,.76953-.33203,1.64453-.49902,2.62402-.49902,.80469,0,1.56152,.11816,2.26953,.35449,.70898,.23633,1.3252,.57715,1.85059,1.02344,.52441,.44629,.94043,1.00195,1.24609,1.66602,.30566,.66504,.45898,1.43457,.45898,2.30957,0,.82227-.12695,1.54785-.37988,2.17773-.25391,.62988-.59082,1.19434-1.01074,1.69238-.41992,.49902-.90137,.94922-1.44336,1.35156-.54199,.40332-1.10156,.78809-1.67871,1.15527-.57812,.34961-1.15527,.69531-1.73242,1.03613s-1.10645,.7041-1.58789,1.08887c-.48145,.38574-.8916,.80078-1.2334,1.24707-.34082,.44531-.56348,.95703-.66895,1.53516h9.55176v1.96777h-12.14941c.08691-1.10254,.28418-2.04199,.59082-2.82129,.30566-.77832,.69531-1.45605,1.16699-2.0332,.47266-.57715,1.00586-1.08496,1.60059-1.52246,.59473-.43652,1.21582-.84766,1.86328-1.2334,.78711-.48926,1.47852-.93945,2.07324-1.35156,.59473-.41016,1.08887-.82617,1.48242-1.24609s.69141-.875,.89258-1.36426c.20117-.49023,.30176-1.05859,.30176-1.70605,0-.50684-.09668-.9668-.28906-1.37793-.19238-.41016-.4502-.76465-.77344-1.0625-.32422-.29688-.70508-.52441-1.1416-.68262-.4375-.15723-.90137-.23535-1.39062-.23535-.64746,0-1.20312,.13574-1.66699,.40625-.46387,.27148-.84375,.62598-1.1416,1.0625-.29688,.4375-.51172,.93164-.64258,1.4834-.13086,.55078-.18848,1.10645-.1709,1.66602h-2.23047c-.05176-.94434,.04395-1.81934,.28906-2.62402Z"/>
          <path class="cls-1" d="M918.35796,721.10204c.03516-.73438,.12207-1.45215,.2627-2.15137,.13965-.7002,.34082-1.36523,.60352-1.99414,.2627-.62988,.62109-1.18164,1.07617-1.65332,.4541-.47266,1.02734-.84863,1.71875-1.12891,.69043-.2793,1.51758-.41992,2.47949-.41992s1.78906,.14062,2.48047,.41992c.69043,.28027,1.26367,.65625,1.71875,1.12891,.4541,.47168,.81348,1.02344,1.0752,1.65332,.2627,.62891,.46387,1.29395,.60352,1.99414,.14062,.69922,.22754,1.41699,.2627,2.15137,.03516,.73535,.05273,1.44336,.05273,2.12598,0,.68164-.01758,1.39062-.05273,2.125-.03516,.73535-.12207,1.45312-.2627,2.15234-.13965,.7002-.34082,1.36035-.60352,1.98145-.26172,.62109-.62109,1.16699-1.0752,1.63965-.45508,.47266-1.02344,.84473-1.70605,1.11523-.68262,.27148-1.51367,.40723-2.49316,.40723-.96191,0-1.78906-.13574-2.47949-.40723-.69141-.27051-1.26465-.64258-1.71875-1.11523-.45508-.47266-.81348-1.01855-1.07617-1.63965s-.46387-1.28125-.60352-1.98145c-.14062-.69922-.22754-1.41699-.2627-2.15234-.03516-.73438-.05176-1.44336-.05176-2.125,0-.68262,.0166-1.39062,.05176-2.12598Zm2.375,4.44824c.04395,.86621,.18359,1.67969,.41992,2.44043s.61719,1.4043,1.1416,1.92871,1.25977,.78711,2.2041,.78711c.94531,0,1.67969-.2627,2.2041-.78711,.52539-.52441,.90527-1.16797,1.1416-1.92871s.37598-1.57422,.41992-2.44043,.06543-1.64844,.06543-2.34863c0-.45508-.00391-.95801-.0127-1.50879-.00879-.55176-.05273-1.10254-.13086-1.65332-.0791-.55078-.19336-1.08887-.3418-1.61426-.14844-.52441-.36719-.9834-.65527-1.37695-.28906-.39453-.65234-.71289-1.08984-.95801s-.9707-.36719-1.60059-.36719-1.16309,.12207-1.60059,.36719-.7998,.56348-1.08887,.95801c-.28906,.39355-.50781,.85254-.65625,1.37695-.14844,.52539-.2627,1.06348-.34082,1.61426-.0791,.55078-.12305,1.10156-.13184,1.65332-.00879,.55078-.0127,1.05371-.0127,1.50879,0,.7002,.02148,1.48242,.06543,2.34863Z"/>
          <path class="cls-1" d="M946.27886,713.62352v18.73633h-2.23047v-18.73633h2.23047Z"/>
          <path class="cls-1" d="M960.44878,732.35985v-2.15137h-.05273c-.47168,.83887-1.0752,1.45605-1.81055,1.84961-.73438,.39355-1.60059,.59082-2.59766,.59082-.89258,0-1.63574-.11816-2.23047-.35449s-1.07617-.57324-1.44336-1.01074c-.36719-.43652-.62598-.95801-.77441-1.56152s-.22266-1.27246-.22266-2.00684v-8.92188h2.23047v9.18359c0,.83984,.24414,1.50488,.73438,1.99512,.49023,.48926,1.16309,.73438,2.02051,.73438,.68262,0,1.27344-.10449,1.77148-.31445,.49902-.20996,.91406-.50781,1.24707-.89258,.33203-.38477,.58105-.83496,.74707-1.35156,.16602-.51562,.25-1.08008,.25-1.69238v-7.66211h2.23047v13.56641h-2.09961Z"/>
          <path class="cls-1" d="M966.40484,718.79344h2.86035l3.25391,4.74902,3.38477-4.74902h2.67676l-4.6709,6.24512,5.24902,7.32129h-2.86035l-3.7793-5.61523-3.77832,5.61523h-2.70312l5.09082-7.1377-4.72363-6.42871Z"/>
          <path class="cls-1" d="M914.55425,768.76512v1.96777h-2.51953v4.35645h-2.09961v-4.35645h-8.16113v-2.15137l8.47656-12.09766h1.78418v12.28125h2.51953Zm-4.61914-9.10547h-.05176l-6.19336,9.10547h6.24512v-9.10547Z"/>
          <path class="cls-1" d="M918.35796,763.83153c.03516-.73438,.12207-1.45215,.2627-2.15137,.13965-.7002,.34082-1.36523,.60352-1.99414,.2627-.62988,.62109-1.18164,1.07617-1.65332,.4541-.47266,1.02734-.84863,1.71875-1.12891,.69043-.2793,1.51758-.41992,2.47949-.41992s1.78906,.14062,2.48047,.41992c.69043,.28027,1.26367,.65625,1.71875,1.12891,.4541,.47168,.81348,1.02344,1.0752,1.65332,.2627,.62891,.46387,1.29395,.60352,1.99414,.14062,.69922,.22754,1.41699,.2627,2.15137,.03516,.73535,.05273,1.44336,.05273,2.12598,0,.68164-.01758,1.39062-.05273,2.125-.03516,.73535-.12207,1.45312-.2627,2.15234-.13965,.7002-.34082,1.36035-.60352,1.98145-.26172,.62109-.62109,1.16699-1.0752,1.63965-.45508,.47266-1.02344,.84473-1.70605,1.11523-.68262,.27148-1.51367,.40723-2.49316,.40723-.96191,0-1.78906-.13574-2.47949-.40723-.69141-.27051-1.26465-.64258-1.71875-1.11523-.45508-.47266-.81348-1.01855-1.07617-1.63965s-.46387-1.28125-.60352-1.98145c-.14062-.69922-.22754-1.41699-.2627-2.15234-.03516-.73438-.05176-1.44336-.05176-2.125,0-.68262,.0166-1.39062,.05176-2.12598Zm2.375,4.44824c.04395,.86621,.18359,1.67969,.41992,2.44043s.61719,1.4043,1.1416,1.92871,1.25977,.78711,2.2041,.78711c.94531,0,1.67969-.2627,2.2041-.78711,.52539-.52441,.90527-1.16797,1.1416-1.92871s.37598-1.57422,.41992-2.44043,.06543-1.64844,.06543-2.34863c0-.45508-.00391-.95801-.0127-1.50879-.00879-.55176-.05273-1.10254-.13086-1.65332-.0791-.55078-.19336-1.08887-.3418-1.61426-.14844-.52441-.36719-.9834-.65527-1.37695-.28906-.39453-.65234-.71289-1.08984-.95801s-.9707-.36719-1.60059-.36719-1.16309,.12207-1.60059,.36719-.7998,.56348-1.08887,.95801c-.28906,.39355-.50781,.85254-.65625,1.37695-.14844,.52539-.2627,1.06348-.34082,1.61426-.0791,.55078-.12305,1.10156-.13184,1.65332-.00879,.55078-.0127,1.05371-.0127,1.50879,0,.7002,.02148,1.48242,.06543,2.34863Z"/>
          <path class="cls-1" d="M946.27886,756.35301v18.73633h-2.23047v-18.73633h2.23047Z"/>
          <path class="cls-1" d="M960.44878,775.08934v-2.15137h-.05273c-.47168,.83887-1.0752,1.45605-1.81055,1.84961-.73438,.39355-1.60059,.59082-2.59766,.59082-.89258,0-1.63574-.11816-2.23047-.35449s-1.07617-.57324-1.44336-1.01074c-.36719-.43652-.62598-.95801-.77441-1.56152s-.22266-1.27246-.22266-2.00684v-8.92188h2.23047v9.18359c0,.83984,.24414,1.50488,.73438,1.99512,.49023,.48926,1.16309,.73438,2.02051,.73438,.68262,0,1.27344-.10449,1.77148-.31445,.49902-.20996,.91406-.50781,1.24707-.89258,.33203-.38477,.58105-.83496,.74707-1.35156,.16602-.51562,.25-1.08008,.25-1.69238v-7.66211h2.23047v13.56641h-2.09961Z"/>
          <path class="cls-1" d="M966.40484,761.52293h2.86035l3.25391,4.74902,3.38477-4.74902h2.67676l-4.6709,6.24512,5.24902,7.32129h-2.86035l-3.7793-5.61523-3.77832,5.61523h-2.70312l5.09082-7.1377-4.72363-6.42871Z"/>
          <path class="cls-1" d="M910.93218,801.94188c-.54199-.50781-1.25879-.76074-2.15137-.76074-.94434,0-1.70605,.23145-2.2832,.69531s-1.02734,1.0498-1.35156,1.75781c-.32324,.70898-.54688,1.47363-.66895,2.2959-.12207,.82324-.19238,1.59277-.20996,2.30957l.05273,.05273c.52441-.85742,1.17676-1.47852,1.95508-1.86328s1.6748-.57715,2.68945-.57715c.89258,0,1.69238,.15332,2.40137,.45898,.70801,.30664,1.30273,.73047,1.78418,1.27246,.48145,.54297,.85254,1.18066,1.11523,1.91602,.2627,.73438,.39355,1.53125,.39355,2.3877,0,.68262-.10449,1.39062-.31445,2.12598-.20996,.73438-.55566,1.40332-1.03711,2.00684s-1.11914,1.10254-1.91504,1.49609c-.79688,.39355-1.78027,.59082-2.95215,.59082-1.38281,0-2.49316-.28027-3.33301-.83984s-1.4873-1.27734-1.94141-2.15234c-.45508-.87402-.75684-1.83691-.90527-2.88672-.14941-1.04883-.22363-2.06348-.22363-3.04395,0-1.27637,.10938-2.51465,.32812-3.71289s.59082-2.26074,1.11523-3.18848c.52441-.92676,1.22461-1.66992,2.09961-2.23047,.87402-.55957,1.97656-.83984,3.30664-.83984,1.53906,0,2.76367,.40723,3.67383,1.2207,.90918,.81348,1.43359,1.99023,1.57422,3.5293h-2.23047c-.10547-.83984-.42871-1.5127-.97168-2.02051Zm-4.04102,6.20605c-.47168,.21875-.875,.5166-1.20703,.89258s-.58203,.82227-.74805,1.33789c-.16602,.5166-.24902,1.0625-.24902,1.63965,0,.57812,.08789,1.12012,.2627,1.62695,.1748,.50781,.42383,.94531,.74805,1.3125,.32324,.36719,.72559,.66016,1.20703,.87891,.48047,.21875,1.02734,.32812,1.63965,.32812s1.15039-.10938,1.61426-.32812c.46289-.21875,.85254-.52051,1.16797-.90527,.31445-.38477,.55469-.82617,.72168-1.3252,.16602-.49805,.24902-1.01855,.24902-1.56152,0-.57715-.0752-1.12402-.22363-1.63965s-.37988-.96191-.69531-1.33887c-.31445-.37598-.70801-.67773-1.18066-.90527-.47266-.22656-1.02344-.34082-1.65332-.34082s-1.18066,.10938-1.65332,.32812Z"/>
          <path class="cls-1" d="M918.35796,806.56004c.03516-.73438,.12207-1.45215,.2627-2.15137,.13965-.7002,.34082-1.36523,.60352-1.99414,.2627-.62988,.62109-1.18164,1.07617-1.65332,.4541-.47266,1.02734-.84863,1.71875-1.12891,.69043-.2793,1.51758-.41992,2.47949-.41992s1.78906,.14062,2.48047,.41992c.69043,.28027,1.26367,.65625,1.71875,1.12891,.4541,.47168,.81348,1.02344,1.0752,1.65332,.2627,.62891,.46387,1.29395,.60352,1.99414,.14062,.69922,.22754,1.41699,.2627,2.15137,.03516,.73535,.05273,1.44336,.05273,2.12598,0,.68164-.01758,1.39062-.05273,2.125-.03516,.73535-.12207,1.45312-.2627,2.15234-.13965,.7002-.34082,1.36035-.60352,1.98145-.26172,.62109-.62109,1.16699-1.0752,1.63965-.45508,.47266-1.02344,.84473-1.70605,1.11523-.68262,.27148-1.51367,.40723-2.49316,.40723-.96191,0-1.78906-.13574-2.47949-.40723-.69141-.27051-1.26465-.64258-1.71875-1.11523-.45508-.47266-.81348-1.01855-1.07617-1.63965s-.46387-1.28125-.60352-1.98145c-.14062-.69922-.22754-1.41699-.2627-2.15234-.03516-.73438-.05176-1.44336-.05176-2.125,0-.68262,.0166-1.39062,.05176-2.12598Zm2.375,4.44824c.04395,.86621,.18359,1.67969,.41992,2.44043s.61719,1.4043,1.1416,1.92871,1.25977,.78711,2.2041,.78711c.94531,0,1.67969-.2627,2.2041-.78711,.52539-.52441,.90527-1.16797,1.1416-1.92871s.37598-1.57422,.41992-2.44043,.06543-1.64844,.06543-2.34863c0-.45508-.00391-.95801-.0127-1.50879-.00879-.55176-.05273-1.10254-.13086-1.65332-.0791-.55078-.19336-1.08887-.3418-1.61426-.14844-.52441-.36719-.9834-.65527-1.37695-.28906-.39453-.65234-.71289-1.08984-.95801s-.9707-.36719-1.60059-.36719-1.16309,.12207-1.60059,.36719-.7998,.56348-1.08887,.95801c-.28906,.39355-.50781,.85254-.65625,1.37695-.14844,.52539-.2627,1.06348-.34082,1.61426-.0791,.55078-.12305,1.10156-.13184,1.65332-.00879,.55078-.0127,1.05371-.0127,1.50879,0,.7002,.02148,1.48242,.06543,2.34863Z"/>
          <path class="cls-1" d="M946.27886,799.08153v18.73633h-2.23047v-18.73633h2.23047Z"/>
          <path class="cls-1" d="M960.44878,817.81786v-2.15137h-.05273c-.47168,.83887-1.0752,1.45605-1.81055,1.84961-.73438,.39355-1.60059,.59082-2.59766,.59082-.89258,0-1.63574-.11816-2.23047-.35449s-1.07617-.57324-1.44336-1.01074c-.36719-.43652-.62598-.95801-.77441-1.56152s-.22266-1.27246-.22266-2.00684v-8.92188h2.23047v9.18359c0,.83984,.24414,1.50488,.73438,1.99512,.49023,.48926,1.16309,.73438,2.02051,.73438,.68262,0,1.27344-.10449,1.77148-.31445,.49902-.20996,.91406-.50781,1.24707-.89258,.33203-.38477,.58105-.83496,.74707-1.35156,.16602-.51562,.25-1.08008,.25-1.69238v-7.66211h2.23047v13.56641h-2.09961Z"/>
          <path class="cls-1" d="M966.40484,804.25145h2.86035l3.25391,4.74902,3.38477-4.74902h2.67676l-4.6709,6.24512,5.24902,7.32129h-2.86035l-3.7793-5.61523-3.77832,5.61523h-2.70312l5.09082-7.1377-4.72363-6.42871Z"/>
          <path class="cls-1" d="M903.19097,844.65672c.29785-.58594,.7002-1.08008,1.20801-1.48242,.50684-.40234,1.08887-.70801,1.74414-.91797,.65625-.20996,1.34277-.31543,2.06055-.31543,1.01465,0,1.87988,.13574,2.59766,.40723,.7168,.27148,1.29883,.62988,1.74512,1.0752,.44629,.44629,.77441,.9541,.98438,1.52246s.31445,1.15039,.31445,1.74512c0,.83984-.23145,1.60547-.69531,2.2959-.46387,.69141-1.08887,1.21191-1.87598,1.56152,1.11914,.35059,1.9502,.92285,2.49316,1.71875,.54199,.7959,.81348,1.77148,.81348,2.92578,0,.91016-.16211,1.71484-.48633,2.41406-.32324,.7002-.76074,1.29102-1.31152,1.77148-.55078,.48145-1.20312,.84473-1.95508,1.08887-.75195,.24512-1.55762,.36816-2.41406,.36816-.89258,0-1.72363-.11426-2.49316-.3418-.76953-.22656-1.43945-.57715-2.00781-1.0498-.56836-.47168-1.01465-1.0625-1.33789-1.77051-.32422-.70898-.48535-1.53516-.48535-2.48047,0-1.10156,.2793-2.05957,.83984-2.87305,.55957-.81348,1.36426-1.4043,2.41406-1.77148-.78711-.31445-1.41699-.82617-1.88965-1.53516-.47266-.70801-.70801-1.48242-.70801-2.32227,0-.76953,.14844-1.44727,.44531-2.03418Zm2.375,13.27832c.74414,.63867,1.69336,.95801,2.84766,.95801,.55957,0,1.07129-.0918,1.53516-.27539,.46289-.18359,.86621-.4375,1.20703-.76074,.34082-.32422,.60352-.7041,.78711-1.1416s.27539-.91895,.27539-1.44336c0-.50781-.10059-.97559-.30176-1.4043s-.47656-.7998-.82617-1.11523c-.35059-.31445-.75684-.56445-1.2207-.74805s-.95801-.27539-1.48242-.27539c-.54297,0-1.05371,.08301-1.53516,.25-.48145,.16602-.90137,.40625-1.25977,.7207-.3584,.31543-.63867,.69141-.83984,1.12891s-.30176,.92773-.30176,1.46973c0,1.11914,.37207,1.99902,1.11523,2.63672Zm-.19629-9.83984c.1748,.37598,.41016,.68652,.70801,.93066,.29785,.24609,.64746,.42969,1.0498,.55176s.83105,.18359,1.28613,.18359c.8916,0,1.62695-.2627,2.2041-.78711,.57715-.52539,.86621-1.25977,.86621-2.2041,0-.94531-.29297-1.6582-.87891-2.13867-.58691-.48145-1.33496-.72168-2.24414-.72168-.4375,0-.85742,.06152-1.25977,.18359s-.74805,.30566-1.03613,.55078c-.28906,.24512-.52051,.54199-.69531,.89258-.17578,.34961-.2627,.76074-.2627,1.2334,0,.50684,.08691,.94922,.2627,1.3252Z"/>
          <path class="cls-1" d="M918.35796,849.28856c.03516-.73438,.12207-1.45215,.2627-2.15137,.13965-.7002,.34082-1.36523,.60352-1.99414,.2627-.62988,.62109-1.18164,1.07617-1.65332,.4541-.47266,1.02734-.84863,1.71875-1.12891,.69043-.2793,1.51758-.41992,2.47949-.41992s1.78906,.14062,2.48047,.41992c.69043,.28027,1.26367,.65625,1.71875,1.12891,.4541,.47168,.81348,1.02344,1.0752,1.65332,.2627,.62891,.46387,1.29395,.60352,1.99414,.14062,.69922,.22754,1.41699,.2627,2.15137,.03516,.73535,.05273,1.44336,.05273,2.12598,0,.68164-.01758,1.39062-.05273,2.125-.03516,.73535-.12207,1.45312-.2627,2.15234-.13965,.7002-.34082,1.36035-.60352,1.98145-.26172,.62109-.62109,1.16699-1.0752,1.63965-.45508,.47266-1.02344,.84473-1.70605,1.11523-.68262,.27148-1.51367,.40723-2.49316,.40723-.96191,0-1.78906-.13574-2.47949-.40723-.69141-.27051-1.26465-.64258-1.71875-1.11523-.45508-.47266-.81348-1.01855-1.07617-1.63965s-.46387-1.28125-.60352-1.98145c-.14062-.69922-.22754-1.41699-.2627-2.15234-.03516-.73438-.05176-1.44336-.05176-2.125,0-.68262,.0166-1.39062,.05176-2.12598Zm2.375,4.44824c.04395,.86621,.18359,1.67969,.41992,2.44043s.61719,1.4043,1.1416,1.92871,1.25977,.78711,2.2041,.78711c.94531,0,1.67969-.2627,2.2041-.78711,.52539-.52441,.90527-1.16797,1.1416-1.92871s.37598-1.57422,.41992-2.44043,.06543-1.64844,.06543-2.34863c0-.45508-.00391-.95801-.0127-1.50879-.00879-.55176-.05273-1.10254-.13086-1.65332-.0791-.55078-.19336-1.08887-.3418-1.61426-.14844-.52441-.36719-.9834-.65527-1.37695-.28906-.39453-.65234-.71289-1.08984-.95801s-.9707-.36719-1.60059-.36719-1.16309,.12207-1.60059,.36719-.7998,.56348-1.08887,.95801c-.28906,.39355-.50781,.85254-.65625,1.37695-.14844,.52539-.2627,1.06348-.34082,1.61426-.0791,.55078-.12305,1.10156-.13184,1.65332-.00879,.55078-.0127,1.05371-.0127,1.50879,0,.7002,.02148,1.48242,.06543,2.34863Z"/>
          <path class="cls-1" d="M946.27886,841.81004v18.73633h-2.23047v-18.73633h2.23047Z"/>
          <path class="cls-1" d="M960.44878,860.54637v-2.15137h-.05273c-.47168,.83887-1.0752,1.45605-1.81055,1.84961-.73438,.39355-1.60059,.59082-2.59766,.59082-.89258,0-1.63574-.11816-2.23047-.35449s-1.07617-.57324-1.44336-1.01074c-.36719-.43652-.62598-.95801-.77441-1.56152s-.22266-1.27246-.22266-2.00684v-8.92188h2.23047v9.18359c0,.83984,.24414,1.50488,.73438,1.99512,.49023,.48926,1.16309,.73438,2.02051,.73438,.68262,0,1.27344-.10449,1.77148-.31445,.49902-.20996,.91406-.50781,1.24707-.89258,.33203-.38477,.58105-.83496,.74707-1.35156,.16602-.51562,.25-1.08008,.25-1.69238v-7.66211h2.23047v13.56641h-2.09961Z"/>
          <path class="cls-1" d="M966.40484,846.97997h2.86035l3.25391,4.74902,3.38477-4.74902h2.67676l-4.6709,6.24512,5.24902,7.32129h-2.86035l-3.7793-5.61523-3.77832,5.61523h-2.70312l5.09082-7.1377-4.72363-6.42871Z"/>
          <path class="cls-1" d="M908.15093,903.27489v-13.33105h-4.82812v-1.78418c.62988,0,1.24219-.04785,1.83691-.14453,.59473-.0957,1.13184-.27539,1.61328-.53809,.48145-.26172,.8877-.62012,1.2207-1.0752,.33203-.45508,.55957-1.03223,.68262-1.73242h1.70508v18.60547h-2.23047Z"/>
          <path class="cls-1" d="M918.35796,892.01707c.03516-.73438,.12207-1.45215,.2627-2.15137,.13965-.7002,.34082-1.36523,.60352-1.99414,.2627-.62988,.62109-1.18164,1.07617-1.65332,.4541-.47266,1.02734-.84863,1.71875-1.12891,.69043-.2793,1.51758-.41992,2.47949-.41992s1.78906,.14062,2.48047,.41992c.69043,.28027,1.26367,.65625,1.71875,1.12891,.4541,.47168,.81348,1.02344,1.0752,1.65332,.2627,.62891,.46387,1.29395,.60352,1.99414,.14062,.69922,.22754,1.41699,.2627,2.15137,.03516,.73535,.05273,1.44336,.05273,2.12598,0,.68164-.01758,1.39062-.05273,2.125-.03516,.73535-.12207,1.45312-.2627,2.15234-.13965,.7002-.34082,1.36035-.60352,1.98145-.26172,.62109-.62109,1.16699-1.0752,1.63965-.45508,.47266-1.02344,.84473-1.70605,1.11523-.68262,.27148-1.51367,.40723-2.49316,.40723-.96191,0-1.78906-.13574-2.47949-.40723-.69141-.27051-1.26465-.64258-1.71875-1.11523-.45508-.47266-.81348-1.01855-1.07617-1.63965s-.46387-1.28125-.60352-1.98145c-.14062-.69922-.22754-1.41699-.2627-2.15234-.03516-.73438-.05176-1.44336-.05176-2.125,0-.68262,.0166-1.39062,.05176-2.12598Zm2.375,4.44824c.04395,.86621,.18359,1.67969,.41992,2.44043s.61719,1.4043,1.1416,1.92871,1.25977,.78711,2.2041,.78711c.94531,0,1.67969-.2627,2.2041-.78711,.52539-.52441,.90527-1.16797,1.1416-1.92871s.37598-1.57422,.41992-2.44043,.06543-1.64844,.06543-2.34863c0-.45508-.00391-.95801-.0127-1.50879-.00879-.55176-.05273-1.10254-.13086-1.65332-.0791-.55078-.19336-1.08887-.3418-1.61426-.14844-.52441-.36719-.9834-.65527-1.37695-.28906-.39453-.65234-.71289-1.08984-.95801s-.9707-.36719-1.60059-.36719-1.16309,.12207-1.60059,.36719-.7998,.56348-1.08887,.95801c-.28906,.39355-.50781,.85254-.65625,1.37695-.14844,.52539-.2627,1.06348-.34082,1.61426-.0791,.55078-.12305,1.10156-.13184,1.65332-.00879,.55078-.0127,1.05371-.0127,1.50879,0,.7002,.02148,1.48242,.06543,2.34863Z"/>
          <path class="cls-1" d="M934.523,892.01707c.03516-.73438,.12207-1.45215,.2627-2.15137,.13965-.7002,.34082-1.36523,.60352-1.99414,.2627-.62988,.62109-1.18164,1.07617-1.65332,.4541-.47266,1.02734-.84863,1.71875-1.12891,.69043-.2793,1.51758-.41992,2.47949-.41992s1.78906,.14062,2.48047,.41992c.69043,.28027,1.26367,.65625,1.71875,1.12891,.4541,.47168,.81348,1.02344,1.0752,1.65332,.2627,.62891,.46387,1.29395,.60352,1.99414,.14062,.69922,.22754,1.41699,.2627,2.15137,.03516,.73535,.05273,1.44336,.05273,2.12598,0,.68164-.01758,1.39062-.05273,2.125-.03516,.73535-.12207,1.45312-.2627,2.15234-.13965,.7002-.34082,1.36035-.60352,1.98145-.26172,.62109-.62109,1.16699-1.0752,1.63965-.45508,.47266-1.02344,.84473-1.70605,1.11523-.68262,.27148-1.51367,.40723-2.49316,.40723-.96191,0-1.78906-.13574-2.47949-.40723-.69141-.27051-1.26465-.64258-1.71875-1.11523-.45508-.47266-.81348-1.01855-1.07617-1.63965s-.46387-1.28125-.60352-1.98145c-.14062-.69922-.22754-1.41699-.2627-2.15234-.03516-.73438-.05176-1.44336-.05176-2.125,0-.68262,.0166-1.39062,.05176-2.12598Zm2.375,4.44824c.04395,.86621,.18359,1.67969,.41992,2.44043s.61719,1.4043,1.1416,1.92871,1.25977,.78711,2.2041,.78711c.94531,0,1.67969-.2627,2.2041-.78711,.52539-.52441,.90527-1.16797,1.1416-1.92871s.37598-1.57422,.41992-2.44043,.06543-1.64844,.06543-2.34863c0-.45508-.00391-.95801-.0127-1.50879-.00879-.55176-.05273-1.10254-.13086-1.65332-.0791-.55078-.19336-1.08887-.3418-1.61426-.14844-.52441-.36719-.9834-.65527-1.37695-.28906-.39453-.65234-.71289-1.08984-.95801s-.9707-.36719-1.60059-.36719-1.16309,.12207-1.60059,.36719-.7998,.56348-1.08887,.95801c-.28906,.39355-.50781,.85254-.65625,1.37695-.14844,.52539-.2627,1.06348-.34082,1.61426-.0791,.55078-.12305,1.10156-.13184,1.65332-.00879,.55078-.0127,1.05371-.0127,1.50879,0,.7002,.02148,1.48242,.06543,2.34863Z"/>
          <path class="cls-1" d="M962.44292,884.53856v18.73633h-2.23047v-18.73633h2.23047Z"/>
          <path class="cls-1" d="M976.61284,903.27489v-2.15137h-.05273c-.47168,.83887-1.0752,1.45605-1.81055,1.84961-.73438,.39355-1.60059,.59082-2.59766,.59082-.89258,0-1.63574-.11816-2.23047-.35449s-1.07617-.57324-1.44336-1.01074c-.36719-.43652-.62598-.95801-.77441-1.56152s-.22266-1.27246-.22266-2.00684v-8.92188h2.23047v9.18359c0,.83984,.24414,1.50488,.73438,1.99512,.49023,.48926,1.16309,.73438,2.02051,.73438,.68262,0,1.27344-.10449,1.77148-.31445,.49902-.20996,.91406-.50781,1.24707-.89258,.33203-.38477,.58105-.83496,.74707-1.35156,.16602-.51562,.25-1.08008,.25-1.69238v-7.66211h2.23047v13.56641h-2.09961Z"/>
          <path class="cls-1" d="M982.56988,889.70848h2.86035l3.25391,4.74902,3.38477-4.74902h2.67676l-4.6709,6.24512,5.24902,7.32129h-2.86035l-3.7793-5.61523-3.77832,5.61523h-2.70312l5.09082-7.1377-4.72363-6.42871Z"/>
        </g>
      </g>
    </g>
    <g id="Layer_5" data-name="Layer 5"/>
  </g>
</svg>