<svg width="40" height="40" viewBox="0 0 40 40" fill="none" xmlns="http://www.w3.org/2000/svg">
<circle cx="20" cy="20" r="20" fill="#ECC833"/>
<path d="M31 19.99L28.56 17.2L28.9 13.51L25.29 12.69L23.4 9.5L20 10.96L16.6 9.5L14.71 12.69L11.1 13.5L11.44 17.2L9 19.99L11.44 22.78L11.1 26.48L14.71 27.3L16.6 30.5L20 29.03L23.4 30.49L25.29 27.3L28.9 26.48L28.56 22.79L31 19.99ZM27.05 21.47L26.49 22.12L26.57 22.97L26.75 24.92L24.01 25.54L23.57 26.28L22.58 27.96L20.8 27.19L20 26.85L19.21 27.19L17.43 27.96L16.44 26.29L16 25.55L13.26 24.93L13.44 22.97L13.52 22.12L12.96 21.47L11.67 20L12.96 18.52L13.52 17.87L13.43 17.01L13.25 15.07L15.99 14.45L16.43 13.71L17.42 12.03L19.2 12.8L20 13.14L20.79 12.8L22.57 12.03L23.56 13.71L24 14.45L26.74 15.07L26.56 17.02L26.48 17.87L27.04 18.52L28.33 19.99L27.05 21.47Z" fill="black"/>
<path d="M18.09 21.75L15.77 19.42L14.29 20.91L18.09 24.72L25.43 17.36L23.95 15.87L18.09 21.75Z" fill="black"/>
</svg>
