<?xml version="1.0" encoding="UTF-8"?><svg id="a" xmlns="http://www.w3.org/2000/svg" viewBox="0 0 1080 1080"><defs><style>.b,.c{fill:#495866;}.d{stroke-width:1.4px;}.d,.e{fill:none;}.d,.e,.c{stroke-miterlimit:10;}.d,.c{stroke:#bacbdb;}.e{stroke:#999;stroke-width:.75px;}.c{stroke-width:1.4px;}</style></defs><rect class="b" width="1080" height="1080"/><g><rect class="e" width="1080" height="1080"/><line class="e" y1="1030.91" x2="1080" y2="1030.91"/><line class="e" y1="981.82" x2="1080" y2="981.82"/><line class="e" y1="932.73" x2="1080" y2="932.73"/><line class="e" y1="883.64" x2="1080" y2="883.64"/><line class="e" y1="834.55" x2="1080" y2="834.55"/><line class="e" y1="785.45" x2="1080" y2="785.45"/><line class="e" y1="736.36" x2="1080" y2="736.36"/><line class="e" y1="687.27" x2="1080" y2="687.27"/><line class="e" y1="638.18" x2="1080" y2="638.18"/><line class="e" y1="589.09" x2="1080" y2="589.09"/><line class="e" y1="540" x2="1080" y2="540"/><line class="e" y1="490.91" x2="1080" y2="490.91"/><line class="e" y1="441.82" x2="1080" y2="441.82"/><line class="e" y1="392.73" x2="1080" y2="392.73"/><line class="e" y1="343.64" x2="1080" y2="343.64"/><line class="e" y1="294.55" x2="1080" y2="294.55"/><line class="e" y1="245.45" x2="1080" y2="245.45"/><line class="e" y1="196.36" x2="1080" y2="196.36"/><line class="e" y1="147.27" x2="1080" y2="147.27"/><line class="e" y1="98.18" x2="1080" y2="98.18"/><line class="e" y1="49.09" x2="1080" y2="49.09"/><line class="e" x1="1030.91" x2="1030.91" y2="1080"/><line class="e" x1="981.82" x2="981.82" y2="1080"/><line class="e" x1="932.73" x2="932.73" y2="1080"/><line class="e" x1="883.64" x2="883.64" y2="1080"/><line class="e" x1="834.55" x2="834.55" y2="1080"/><line class="e" x1="785.45" x2="785.45" y2="1080"/><line class="e" x1="736.36" x2="736.36" y2="1080"/><line class="e" x1="687.27" x2="687.27" y2="1080"/><line class="e" x1="638.18" x2="638.18" y2="1080"/><line class="e" x1="589.09" x2="589.09" y2="1080"/><line class="e" x1="540" x2="540" y2="1080"/><line class="e" x1="490.91" x2="490.91" y2="1080"/><line class="e" x1="441.82" x2="441.82" y2="1080"/><line class="e" x1="392.73" x2="392.73" y2="1080"/><line class="e" x1="343.64" x2="343.64" y2="1080"/><line class="e" x1="294.55" x2="294.55" y2="1080"/><line class="e" x1="245.45" x2="245.45" y2="1080"/><line class="e" x1="196.36" x2="196.36" y2="1080"/><line class="e" x1="147.27" x2="147.27" y2="1080"/><line class="e" x1="98.18" x2="98.18" y2="1080"/><line class="e" x1="49.09" x2="49.09" y2="1080"/></g><g><rect class="c" x="492.21" y="665.88" width="145.13" height="67.69"/><polygon class="c" points="492.21 665.88 507.21 679.38 507.21 720.07 492.21 733.57 492.21 665.88"/><polygon class="c" points="637.71 665.89 563.93 679.39 563.93 720.08 637.71 733.58 637.71 665.89"/><rect class="d" x="507.21" y="679.38" width="56.72" height="40.69"/></g><g><polygon class="c" points="648.12 392.47 491.2 392.24 505.68 332.14 560.54 332.03 648.07 388.8 648.12 392.47"/><polygon class="c" points="624.06 391.8 504.02 391.63 515.09 345.66 557.06 345.57 624.02 388.99 624.06 391.8"/><polygon class="c" points="505.68 332.14 515.09 345.66 557.06 345.57 560.54 332.03 505.68 332.14"/></g></svg>