<?xml version="1.0" encoding="UTF-8"?>
<svg xmlns="http://www.w3.org/2000/svg" viewBox="0 0 1080 1080">
  <defs>
    <style>
      .cls-1 {
        stroke-width: .92438px;
      }

      .cls-1, .cls-2, .cls-3, .cls-4, .cls-5, .cls-6, .cls-7, .cls-8 {
        stroke-miterlimit: 10;
      }

      .cls-1, .cls-2, .cls-3, .cls-4, .cls-5, .cls-7, .cls-8 {
        stroke: #bacbdb;
      }

      .cls-1, .cls-3, .cls-9, .cls-4, .cls-7, .cls-8 {
        fill: #495866;
      }

      .cls-2 {
        stroke-width: 1.50599px;
      }

      .cls-2, .cls-5, .cls-6 {
        fill: none;
      }

      .cls-3 {
        stroke-width: 1.16453px;
      }

      .cls-10 {
        fill: #b4c5d1;
      }

      .cls-4 {
        stroke-width: 1.58572px;
      }

      .cls-5, .cls-7 {
        stroke-width: 1.4px;
      }

      .cls-6 {
        stroke: #999;
        stroke-width: .75px;
      }

      .cls-8 {
        stroke-width: 1.49474px;
      }
    </style>
  </defs>
  <g id="Base_copy" data-name="Base copy">
    <rect class="cls-9" width="1080" height="1080"/>
    <g>
      <rect class="cls-6" width="1080" height="1080"/>
      <line class="cls-6" y1="1030.90909" x2="1080" y2="1030.90909"/>
      <line class="cls-6" y1="981.81818" x2="1080" y2="981.81818"/>
      <line class="cls-6" y1="932.72727" x2="1080" y2="932.72727"/>
      <line class="cls-6" y1="883.63636" x2="1080" y2="883.63636"/>
      <line class="cls-6" y1="834.54545" x2="1080" y2="834.54545"/>
      <line class="cls-6" y1="785.45455" x2="1080" y2="785.45455"/>
      <line class="cls-6" y1="736.36364" x2="1080" y2="736.36364"/>
      <line class="cls-6" y1="687.27273" x2="1080" y2="687.27273"/>
      <line class="cls-6" y1="638.18182" x2="1080" y2="638.18182"/>
      <line class="cls-6" y1="589.09091" x2="1080" y2="589.09091"/>
      <line class="cls-6" y1="540" x2="1080" y2="540"/>
      <line class="cls-6" y1="490.90909" x2="1080" y2="490.90909"/>
      <line class="cls-6" y1="441.81818" x2="1080" y2="441.81818"/>
      <line class="cls-6" y1="392.72727" x2="1080" y2="392.72727"/>
      <line class="cls-6" y1="343.63636" x2="1080" y2="343.63636"/>
      <line class="cls-6" y1="294.54545" x2="1080" y2="294.54545"/>
      <line class="cls-6" y1="245.45455" x2="1080" y2="245.45455"/>
      <line class="cls-6" y1="196.36364" x2="1080" y2="196.36364"/>
      <line class="cls-6" y1="147.27273" x2="1080" y2="147.27273"/>
      <line class="cls-6" y1="98.18182" x2="1080" y2="98.18182"/>
      <line class="cls-6" y1="49.09091" x2="1080" y2="49.09091"/>
      <line class="cls-6" x1="1030.90909" x2="1030.90909" y2="1080"/>
      <line class="cls-6" x1="981.81818" x2="981.81818" y2="1080"/>
      <line class="cls-6" x1="932.72727" x2="932.72727" y2="1080"/>
      <line class="cls-6" x1="883.63636" x2="883.63636" y2="1080"/>
      <line class="cls-6" x1="834.54545" x2="834.54545" y2="1080"/>
      <line class="cls-6" x1="785.45455" x2="785.45455" y2="1080"/>
      <line class="cls-6" x1="736.36364" x2="736.36364" y2="1080"/>
      <line class="cls-6" x1="687.27273" x2="687.27273" y2="1080"/>
      <line class="cls-6" x1="638.18182" x2="638.18182" y2="1080"/>
      <line class="cls-6" x1="589.09091" x2="589.09091" y2="1080"/>
      <line class="cls-6" x1="540" x2="540" y2="1080"/>
      <line class="cls-6" x1="490.90909" x2="490.90909" y2="1080"/>
      <line class="cls-6" x1="441.81818" x2="441.81818" y2="1080"/>
      <line class="cls-6" x1="392.72727" x2="392.72727" y2="1080"/>
      <line class="cls-6" x1="343.63636" x2="343.63636" y2="1080"/>
      <line class="cls-6" x1="294.54545" x2="294.54545" y2="1080"/>
      <line class="cls-6" x1="245.45455" x2="245.45455" y2="1080"/>
      <line class="cls-6" x1="196.36364" x2="196.36364" y2="1080"/>
      <line class="cls-6" x1="147.27273" x2="147.27273" y2="1080"/>
      <line class="cls-6" x1="98.18182" x2="98.18182" y2="1080"/>
      <line class="cls-6" x1="49.09091" x2="49.09091" y2="1080"/>
    </g>
  </g>
  <g id="measures">
    <g>
      <path class="cls-10" d="M545.04905,1001.36864c1.38379,1.82373,2.07617,3.70215,2.07617,5.63574h-3.91113c-.23438-1.24463-.60791-2.21875-1.12061-2.92188-.95215-1.31836-2.39502-1.97754-4.32861-1.97754-2.21191,0-3.96973,1.02148-5.27344,3.06494s-2.02881,4.96924-2.17529,8.77783c.9082-1.33252,2.05078-2.3291,3.42773-2.98828,1.25977-.58545,2.66602-.87891,4.21875-.87891,2.63672,0,4.93652,.84277,6.89941,2.52734s2.94434,4.19629,2.94434,7.53613c0,2.85645-.93018,5.38721-2.79053,7.5918-1.86035,2.20508-4.51172,3.30664-7.9541,3.30664-2.94434,0-5.48584-1.1167-7.62451-3.35059-2.13867-2.2334-3.20801-5.99512-3.20801-11.2832,0-3.91113,.47607-7.22852,1.42822-9.95312,1.83105-5.21484,5.17822-7.82227,10.0415-7.82227,3.51562,0,5.96533,.91162,7.3501,2.73535Zm-2.9668,24.06006c1.0332-1.39893,1.54932-3.05029,1.54932-4.95459,0-1.61133-.46143-3.14551-1.38428-4.60352-.92285-1.45752-2.6001-2.18652-5.03174-2.18652-1.69922,0-3.18994,.56445-4.47119,1.69238-1.28223,1.12793-1.92285,2.82715-1.92285,5.09766,0,1.99219,.58203,3.66602,1.74707,5.02051,1.16406,1.35498,2.7793,2.03223,4.84473,2.03223,2.08008,0,3.63672-.69922,4.66895-2.09814Z"/>
      <path class="cls-10" d="M564.96702,1006.69677h3.91113v3.33984c.9375-1.15674,1.78711-1.99902,2.54883-2.52637,1.30371-.89355,2.7832-1.34082,4.43848-1.34082,1.875,0,3.38379,.46191,4.52637,1.38477,.64453,.52734,1.23047,1.30371,1.75781,2.3291,.87891-1.25977,1.91162-2.19385,3.09814-2.80176,1.18652-.60742,2.51953-.91211,3.99902-.91211,3.16406,0,5.31738,1.14258,6.45996,3.42773,.61523,1.23047,.92285,2.88623,.92285,4.96582v15.66699h-4.10889v-16.34766c0-1.56738-.39209-2.64453-1.17578-3.23047-.78369-.58545-1.73926-.87891-2.86719-.87891-1.55273,0-2.88965,.52051-4.00977,1.56055-1.12109,1.04004-1.68115,2.77588-1.68115,5.20703v13.68945h-4.021v-15.35938c0-1.59619-.19043-2.76074-.57129-3.49316-.60059-1.09863-1.72119-1.64844-3.36182-1.64844-1.49414,0-2.85303,.5791-4.07568,1.73633-1.22363,1.15723-1.83496,3.25195-1.83496,6.28418v12.48047h-3.95508v-23.5332Z"/>
    </g>
    <g>
      <rect class="cls-10" x="502.96409" y="979.53417" width="123.11768" height="3.30762"/>
      <polygon class="cls-10" points="504.5803 969.13417 504.5803 993.2415 492.52952 981.18783 504.5803 969.13417"/>
      <polygon class="cls-10" points="624.46556 969.13417 624.46556 993.2415 636.51634 981.18783 624.46556 969.13417"/>
    </g>
    <g>
      <path class="cls-10" d="M57.62669,78.08544l19.84766-24.80762h-18.39746v-3.84473h24.03809v3.75684l-19.9668,24.67578h19.9668v3.84473h-25.48828v-3.625Z"/>
      <path class="cls-10" d="M99.59495,67.46923c.90771-.11719,1.51611-.49707,1.82373-1.14062,.17529-.35303,.26318-.86035,.26318-1.52246,0-1.35254-.479-2.33398-1.43652-2.94434s-2.32812-.91504-4.11133-.91504c-2.06104,0-3.52344,.55957-4.38574,1.67773-.48242,.61914-.79639,1.53906-.94287,2.76074h-3.69141c.07324-2.90918,1.01318-4.93262,2.81982-6.0708,1.80713-1.13818,3.90332-1.70752,6.2876-1.70752,2.76514,0,5.01123,.52734,6.73779,1.58203,1.71191,1.05469,2.56787,2.69531,2.56787,4.92188v13.55762c0,.41064,.08398,.74023,.25293,.98877,.16797,.24854,.52344,.37256,1.06543,.37256,.17578,0,.37354-.01074,.59326-.03271s.4541-.05469,.70312-.09863v2.92236c-.61523,.17578-1.08398,.28516-1.40625,.3291s-.76172,.06641-1.31836,.06641c-1.3623,0-2.35107-.4834-2.96631-1.4502-.32227-.5127-.54932-1.2373-.68115-2.1748-.80566,1.05469-1.96289,1.96973-3.47168,2.74609s-3.17139,1.16406-4.98779,1.16406c-2.18262,0-3.96582-.66211-5.35059-1.98584-1.38379-1.32373-2.07617-2.98096-2.07617-4.9707,0-2.17969,.68115-3.86963,2.04346-5.06885,1.3623-1.2002,3.14941-1.93896,5.36133-2.2168l6.30664-.79004Zm-8.32812,10.68457c.83496,.65723,1.82373,.98633,2.96631,.98633,1.3916,0,2.73926-.32227,4.04297-.96533,2.19727-1.06787,3.2959-2.81494,3.2959-5.24316v-3.18115c-.48291,.30859-1.104,.56592-1.86377,.77148-.76025,.20605-1.50586,.35254-2.23682,.44043l-2.39014,.30713c-1.43262,.18994-2.51025,.48975-3.23193,.89893-1.22363,.6875-1.83496,1.7832-1.83496,3.28857,0,1.14014,.41748,2.03857,1.25244,2.69678Z"/>
      <path class="cls-10" d="M115.96409,58.17821v15.62207c0,1.20117,.18555,2.18311,.55664,2.94434,.68457,1.40625,1.96143,2.10938,3.83057,2.10938,2.68164,0,4.50781-1.23047,5.47803-3.69141,.52734-1.31836,.7915-3.12695,.7915-5.42676v-11.55762h3.95508v23.53223h-3.73535l.04395-3.47168c-.50342,.89355-1.12939,1.64844-1.87646,2.26367-1.48047,1.23047-3.27734,1.8457-5.39014,1.8457-3.2915,0-5.53369-1.12109-6.72656-3.3623-.64697-1.20068-.97021-2.80469-.97021-4.81152v-15.99609h4.04297Z"/>
      <path class="cls-10" d="M137.14573,58.17821h3.75732v4.06445c.30762-.79102,1.06201-1.75391,2.26318-2.88916s2.58545-1.70264,4.15283-1.70264c.07324,0,.19775,.00732,.37354,.02148,.17578,.01465,.47607,.04395,.90088,.08789v4.1748c-.23438-.04395-.4502-.07324-.64844-.08789-.19727-.01416-.41357-.02148-.64795-.02148-1.99219,0-3.52295,.64062-4.59229,1.92236s-1.604,2.75732-1.604,4.42725v13.53516h-3.95508v-23.53223Z"/>
      <path class="cls-10" d="M164.63401,67.46923c.90771-.11719,1.51611-.49707,1.82373-1.14062,.17529-.35303,.26318-.86035,.26318-1.52246,0-1.35254-.479-2.33398-1.43652-2.94434s-2.32812-.91504-4.11133-.91504c-2.06104,0-3.52344,.55957-4.38574,1.67773-.48242,.61914-.79639,1.53906-.94287,2.76074h-3.69141c.07324-2.90918,1.01318-4.93262,2.81982-6.0708,1.80713-1.13818,3.90332-1.70752,6.2876-1.70752,2.76514,0,5.01123,.52734,6.73779,1.58203,1.71191,1.05469,2.56787,2.69531,2.56787,4.92188v13.55762c0,.41064,.08398,.74023,.25293,.98877,.16797,.24854,.52344,.37256,1.06543,.37256,.17578,0,.37354-.01074,.59326-.03271s.4541-.05469,.70312-.09863v2.92236c-.61523,.17578-1.08398,.28516-1.40625,.3291s-.76172,.06641-1.31836,.06641c-1.3623,0-2.35107-.4834-2.96631-1.4502-.32227-.5127-.54932-1.2373-.68115-2.1748-.80566,1.05469-1.96289,1.96973-3.47168,2.74609s-3.17139,1.16406-4.98779,1.16406c-2.18262,0-3.96582-.66211-5.35059-1.98584-1.38379-1.32373-2.07617-2.98096-2.07617-4.9707,0-2.17969,.68115-3.86963,2.04346-5.06885,1.3623-1.2002,3.14941-1.93896,5.36133-2.2168l6.30664-.79004Zm-8.32812,10.68457c.83496,.65723,1.82373,.98633,2.96631,.98633,1.3916,0,2.73926-.32227,4.04297-.96533,2.19727-1.06787,3.2959-2.81494,3.2959-5.24316v-3.18115c-.48291,.30859-1.104,.56592-1.86377,.77148-.76025,.20605-1.50586,.35254-2.23682,.44043l-2.39014,.30713c-1.43262,.18994-2.51025,.48975-3.23193,.89893-1.22363,.6875-1.83496,1.7832-1.83496,3.28857,0,1.14014,.41748,2.03857,1.25244,2.69678Z"/>
      <path class="cls-10" d="M176.96018,49.43309h3.80127v18.74023l10.14209-9.99512h5.05225l-9.04443,8.75,9.55176,14.78223h-5.05225l-7.40186-11.97461-3.24756,3.1416v8.83301h-3.80127V49.43309Z"/>
      <path class="cls-10" d="M224.09153,81.71044v-7.69043h-13.79883v-3.86719l14.41406-19.99512h3.33984v20.41309h4.63623v3.44922h-4.63623v7.69043h-3.95508Zm-.06592-11.13965v-14.29199l-10.08545,14.29199h10.08545Z"/>
      <path class="cls-10" d="M236.04466,67.14306h11.03027v4.06445h-11.03027v-4.06445Z"/>
      <path class="cls-10" d="M252.75511,79.50243c-1.67773-2.04346-2.51611-4.52979-2.51611-7.45996h4.13086c.17578,2.03613,.55664,3.51562,1.14258,4.43848,1.02539,1.65576,2.87842,2.4834,5.55908,2.4834,2.08008,0,3.75-.55664,5.00977-1.66992s1.88965-2.54883,1.88965-4.30664c0-2.16797-.66309-3.68408-1.98828-4.54883-1.32617-.86426-3.16797-1.2959-5.52637-1.2959-.26367,0-.53125,.00342-.80176,.01074-.27148,.00781-.5459,.01855-.82422,.0332v-3.49414c.41016,.04395,.75439,.07373,1.03271,.08789,.27832,.01465,.57861,.02246,.90088,.02246,1.47949,0,2.69531-.23438,3.64746-.70312,1.66992-.82031,2.50488-2.28516,2.50488-4.39453,0-1.56738-.55664-2.77637-1.66992-3.62598-1.11328-.84912-2.40967-1.27441-3.88916-1.27441-2.63672,0-4.46045,.87891-5.47119,2.63672-.55664,.9668-.87158,2.34375-.94482,4.13086h-3.91113c0-2.34326,.46875-4.33594,1.40625-5.97656,1.61133-2.92969,4.4458-4.39453,8.50342-4.39453,3.20801,0,5.69092,.71436,7.44873,2.14258s2.63672,3.49707,2.63672,6.20703c0,1.93359-.52002,3.50146-1.56006,4.70215-.64453,.74707-1.47949,1.33301-2.50488,1.75781,1.65527,.4541,2.94775,1.32959,3.87793,2.62598s1.39551,2.88184,1.39551,4.75684c0,3.00293-.98877,5.44922-2.96631,7.33887s-4.78271,2.83496-8.41553,2.83496c-3.7207,0-6.41992-1.02197-8.09668-3.06543Z"/>
      <path class="cls-10" d="M295.19505,55.27782c1.40625,2.59277,2.10938,6.14453,2.10938,10.65625,0,4.27734-.63721,7.81543-1.91162,10.61328-1.8457,4.01367-4.86328,6.02051-9.05273,6.02051-3.7793,0-6.5918-1.64062-8.4375-4.92188-1.53809-2.73926-2.30713-6.41602-2.30713-11.03027,0-3.57422,.46143-6.64355,1.38428-9.20703,1.72852-4.77539,4.85596-7.16309,9.38232-7.16309,4.07227,0,7.0166,1.67773,8.83301,5.03223Zm-3.97998,20.96191c1.21777-1.81641,1.82666-5.2002,1.82666-10.15137,0-3.57422-.44043-6.51514-1.3208-8.82227s-2.58984-3.46094-5.12793-3.46094c-2.33301,0-4.03857,1.0957-5.11719,3.28516-1.07861,2.18994-1.61768,5.41602-1.61768,9.67871,0,3.20801,.34473,5.78662,1.03467,7.73438,1.05615,2.97412,2.86084,4.46094,5.41406,4.46094,2.0542,0,3.68994-.9082,4.9082-2.72461Z"/>
    </g>
    <g>
      <path class="cls-1" d="M570.22643,331.36716h2.97542c1.39319,0,2.52428,1.13109,2.52428,2.52428v32.19304c0,.24436-.19839,.44274-.44274,.44274h-5.05696c-.24436,0-.44274-.19839-.44274-.44274v-34.27457c0-.24436,.19839-.44274,.44274-.44274Z"/>
      <g>
        <polygon class="cls-9" points="531.66963 366.89765 531.66963 351.64167 531.78877 351.64167 531.78877 327.37629 511.72871 327.37629 511.72871 348.75868 490.82685 348.75868 490.82685 385.75746 527.68183 385.75746 527.68183 386.06526 637.86079 386.06526 637.86079 366.89765 531.66963 366.89765"/>
        <path class="cls-7" d="M517.13656,386.45292h104.12796m-130.46901-37.64021h22.01983l3.47026-21.73428h-2.81623c-12.61216,0-22.84901,10.81611-22.83634,21.67499v37.6995h10.43467"/>
        <path class="cls-5" d="M513.42915,327.07844h18.3093v59.37449"/>
        <path class="cls-7" d="M531.73845,366.84179h106.69503v15.04386"/>
        <path class="cls-7" d="M518.03665,381.88566c0-5.04487-4.08967-9.13454-9.13454-9.13454s-9.13454,4.08967-9.13454,9.13454,4.08967,9.13454,9.13454,9.13454c5.04487,0,9.13454-4.08967,9.13454-9.13454"/>
        <path class="cls-7" d="M638.43349,381.88566c0-5.04487-4.08967-9.13454-9.13454-9.13454s-9.13454,4.08967-9.13454,9.13454,4.08967,9.13454,9.13454,9.13454,9.13454-4.08967,9.13454-9.13454"/>
      </g>
    </g>
    <g>
      <g>
        <rect class="cls-4" x="500.70589" y="731.61932" width="18.52853" height="7.98007" rx="1.673" ry="1.673"/>
        <rect class="cls-4" x="500.70589" y="664.5066" width="18.52853" height="7.98007" rx="1.673" ry="1.673"/>
        <rect class="cls-4" x="619.80774" y="731.61932" width="18.52853" height="7.98007" rx="1.673" ry="1.673"/>
        <rect class="cls-4" x="619.80774" y="664.5066" width="18.52853" height="7.98007" rx="1.673" ry="1.673"/>
        <path class="cls-8" d="M556.11692,668.77622h-50.04677c-8.54326,0-15.46901,7.97283-15.46901,17.80779v31.21749c0,9.83497,6.92576,17.80779,15.46901,17.80779h132.56719v-66.83308h-82.52042Z"/>
        <line class="cls-2" x1="530.44871" y1="735.60931" x2="530.44871" y2="668.77623"/>
        <line class="cls-2" x1="515.93527" y1="734.6118" x2="515.91198" y2="668.62221"/>
      </g>
      <path class="cls-3" d="M570.13448,674.1519h2.76236c1.75513,0,3.18008,1.42495,3.18008,3.18008v49.44212c0,1.75509-1.42491,3.18-3.18,3.18h-2.76244v-55.8022h0Z"/>
    </g>
  </g>
  <g id="lights"/>
</svg>