<?xml version="1.0" encoding="UTF-8"?>
<svg xmlns="http://www.w3.org/2000/svg" xmlns:xlink="http://www.w3.org/1999/xlink" viewBox="0 0 1080 1080">
  <defs>
    <style>
      .cls-1 {
        fill: none;
      }

      .cls-2 {
        fill: url(#linear-gradient-3);
      }

      .cls-3 {
        fill: url(#linear-gradient-2);
      }

      .cls-4 {
        fill: url(#linear-gradient-4);
      }

      .cls-5 {
        mix-blend-mode: overlay;
      }

      .cls-5, .cls-6 {
        opacity: .33;
      }

      .cls-7 {
        fill: #fff;
      }

      .cls-8 {
        fill: url(#New_Gradient_Swatch);
      }

      .cls-9 {
        fill: url(#linear-gradient);
      }

      .cls-10 {
        clip-path: url(#clippath-16);
      }

      .cls-11 {
        clip-path: url(#clippath-10);
      }

      .cls-12 {
        clip-path: url(#clippath-15);
      }

      .cls-13 {
        clip-path: url(#clippath-11);
      }

      .cls-14 {
        clip-path: url(#clippath-13);
      }

      .cls-15 {
        clip-path: url(#clippath-14);
      }

      .cls-16 {
        clip-path: url(#clippath-12);
      }

      .cls-17 {
        clip-path: url(#clippath-3);
      }

      .cls-18 {
        clip-path: url(#clippath-1);
      }

      .cls-19 {
        clip-path: url(#clippath-4);
      }

      .cls-20 {
        clip-path: url(#clippath-2);
      }

      .cls-21 {
        clip-path: url(#clippath-9);
      }

      .cls-22 {
        clip-path: url(#clippath-8);
      }

      .cls-23 {
        clip-path: url(#clippath-7);
      }

      .cls-24 {
        clip-path: url(#clippath-6);
      }

      .cls-25 {
        clip-path: url(#clippath-5);
      }

      .cls-26 {
        fill: url(#New_Gradient_Swatch-2);
      }

      .cls-27 {
        fill: url(#New_Gradient_Swatch-3);
      }

      .cls-28 {
        fill: url(#New_Gradient_Swatch-4);
      }

      .cls-29 {
        isolation: isolate;
      }

      .cls-30 {
        clip-path: url(#clippath);
      }
    </style>
    <clipPath id="clippath">
      <rect class="cls-1" x="154.30881" y="221.37024" width="424.12675" height="170.91165" transform="translate(732.74437 613.65213) rotate(-180)"/>
    </clipPath>
    <clipPath id="clippath-1">
      <rect class="cls-1" x="175.84946" y="241.77738" width="322.97765" height="188.08675"/>
    </clipPath>
    <clipPath id="clippath-2">
      <rect class="cls-1" x="175.84897" y="241.77738" width="322.97814" height="188.08675"/>
    </clipPath>
    <clipPath id="clippath-3">
      <rect class="cls-1" x="175.84897" y="241.77738" width="322.90104" height="188.08675"/>
    </clipPath>
    <clipPath id="clippath-4">
      <rect class="cls-1" x="226.24845" y="261.85977" width="272.57866" height="147.41877"/>
    </clipPath>
    <clipPath id="clippath-5">
      <rect class="cls-1" x="276.09584" y="273.76294" width="197.87211" height="123.60789"/>
    </clipPath>
    <clipPath id="clippath-6">
      <rect class="cls-1" x="300.57006" y="290.87232" width="173.39713" height="89.75309"/>
    </clipPath>
    <clipPath id="clippath-7">
      <rect class="cls-1" x="325.16056" y="300.56446" width="148.80668" height="73.52991"/>
    </clipPath>
    <clipPath id="clippath-8">
      <rect class="cls-1" x="327.87036" y="307.82615" width="145.95969" height="61.12745"/>
    </clipPath>
    <linearGradient id="linear-gradient" x1="176.13699" y1="521.13386" x2="497.7825" y2="521.13386" gradientTransform="matrix(1, 0, 0, 1, 0, 0)" gradientUnits="userSpaceOnUse">
      <stop offset="0" stop-color="#fff" stop-opacity=".5"/>
      <stop offset=".15646" stop-color="#fff" stop-opacity=".44956"/>
      <stop offset=".44542" stop-color="#fff" stop-opacity=".31608"/>
      <stop offset=".83206" stop-color="#fff" stop-opacity=".10168"/>
      <stop offset="1" stop-color="#fff" stop-opacity="0"/>
    </linearGradient>
    <linearGradient id="New_Gradient_Swatch" data-name="New Gradient Swatch" x1="319.17558" y1="583.87165" x2="498.15019" y2="583.87165" gradientTransform="matrix(1, 0, 0, 1, 0, 0)" gradientUnits="userSpaceOnUse">
      <stop offset=".49008" stop-color="#fff"/>
      <stop offset=".95002" stop-color="#fff" stop-opacity="0"/>
    </linearGradient>
    <linearGradient id="linear-gradient-2" x1="176.22781" y1="1171.31513" x2="497.87332" y2="1171.31513" gradientTransform="translate(0 2013.81228) scale(1 -1)" xlink:href="#linear-gradient"/>
    <linearGradient id="New_Gradient_Swatch-2" data-name="New Gradient Swatch" x1="319.27519" y1="1244.80928" x2="498.2498" y2="1244.80928" gradientTransform="translate(0 2013.81228) scale(1 -1)" xlink:href="#New_Gradient_Swatch"/>
    <linearGradient id="linear-gradient-3" x1="175.8157" y1="200.60015" x2="497.46121" y2="200.60015" xlink:href="#linear-gradient"/>
    <linearGradient id="New_Gradient_Swatch-3" data-name="New Gradient Swatch" x1="318.85429" y1="256.58308" x2="497.8289" y2="256.58308" xlink:href="#New_Gradient_Swatch"/>
    <linearGradient id="linear-gradient-4" x1="175.90652" y1="1632.30148" x2="180.44656" y2="1632.30148" gradientTransform="translate(0 2013.81228) scale(1 -1)" xlink:href="#linear-gradient"/>
    <linearGradient id="New_Gradient_Swatch-4" data-name="New Gradient Swatch" x1="318.9539" y1="1639.7917" x2="326.22343" y2="1639.7917" gradientTransform="translate(0 2013.81228) scale(1 -1)" xlink:href="#New_Gradient_Swatch"/>
    <clipPath id="clippath-9">
      <rect class="cls-1" x="180.39538" y="587.83926" width="322.97765" height="188.08675"/>
    </clipPath>
    <clipPath id="clippath-10">
      <rect class="cls-1" x="180.39489" y="587.83926" width="322.97814" height="188.08675"/>
    </clipPath>
    <clipPath id="clippath-11">
      <rect class="cls-1" x="180.39489" y="587.83926" width="322.90104" height="188.08675"/>
    </clipPath>
    <clipPath id="clippath-12">
      <rect class="cls-1" x="230.79437" y="607.92165" width="272.57866" height="147.41877"/>
    </clipPath>
    <clipPath id="clippath-13">
      <rect class="cls-1" x="280.64176" y="619.82482" width="197.87211" height="123.60789"/>
    </clipPath>
    <clipPath id="clippath-14">
      <rect class="cls-1" x="305.11598" y="636.93419" width="173.39713" height="89.75309"/>
    </clipPath>
    <clipPath id="clippath-15">
      <rect class="cls-1" x="329.70648" y="646.62634" width="148.80668" height="73.52991"/>
    </clipPath>
    <clipPath id="clippath-16">
      <rect class="cls-1" x="332.41628" y="653.88803" width="145.95969" height="61.12745"/>
    </clipPath>
  </defs>
  <g class="cls-29">
    <g id="lights">
      <g class="cls-30">
        <g class="cls-18">
          <g class="cls-20">
            <g class="cls-5">
              <g class="cls-17">
                <path class="cls-7" d="M498.71477,335.89258c.57477,6.03463-6.03463,21.55305-8.62112,26.43863-2.58649,4.88508-12.35716,21.55305-18.96707,28.73723-6.60941,7.18469-43.68088,25.0017-58.04974,29.88729-14.36837,4.88508-54.74453,8.9085-73.71159,8.9085s-53.3076-10.34544-69.1134-14.36886c-15.80582-4.02343-27.87558-8.04634-39.65794-14.65626-41.27661-27.97925-53.84364-62.49593-54.69524-64.94653h-.0493l.02415-.07198-.02415-.07147h.0493c.8516-2.4506,13.41863-36.96728,54.69524-64.94703,11.78237-6.60942,23.85213-10.63283,39.65794-14.65625,15.8058-4.02293,43.96825-14.36838,62.93482-14.36838,18.96706,0,65.5218,4.02293,79.89017,8.90851,14.36886,4.88559,51.44034,22.7026,58.04974,29.88679,6.60991,7.18468,16.38058,23.85214,18.96707,28.73773,2.58649,4.88508,9.19589,20.4035,8.62112,26.43863"/>
              </g>
            </g>
            <g class="cls-6">
              <g class="cls-19">
                <path class="cls-7" d="M226.26073,335.56931c-.00402-.08406-.01106-.1671-.01259-.25165h.02519c.43483-5.8469,6.50018-10.07366,7.33817-10.63283,10.34545-6.89679,18.67918-15.23052,20.97829-18.39178,1.92715-2.6499,16.38057-23.27737,17.81752-24.71431s4.88508-5.45985,16.66746-6.03463c11.78238-.57477,27.3008-7.1847,27.3008-7.1847,0,0,20.97826-6.6094,30.74894-6.32351,42.24393-.86066,45.40519,1.43843,75.86675,6.8983,24.7143,6.60991,33.62332,16.95535,33.62332,16.95535,0,0,20.97827,21.26566,32.47328,33.33543,9.95586,10.45366,9.88741,15.24814,9.69063,16.34434,.19679,1.0962,.26523,5.89068-9.69063,16.34434-11.495,12.06977-32.47328,33.33543-32.47328,33.33543,0,0-8.90902,10.34544-33.62332,16.95536-30.46156,5.45985-33.62282,7.75896-75.86675,6.8983-9.77068,.28588-30.74894-6.32353-30.74894-6.32353,0,0-15.51842-6.60991-27.3008-7.18469-11.78238-.57477-15.23053-4.5977-16.66746-6.03463-1.43694-1.43694-15.89037-22.06441-17.81752-24.71431-2.29911-3.16126-10.63283-11.495-20.97829-18.39178-.83799-.55918-6.90334-4.78593-7.33817-10.63283h-.02519c.00154-.08455,.00857-.1676,.01259-.25165"/>
              </g>
            </g>
            <g class="cls-6">
              <g class="cls-25">
                <path class="cls-7" d="M276.09598,335.56699v-.00252c.2436-9.80539,11.25642-21.22691,22.46202-32.4325,11.20761-11.2076,24.13954-18.3923,28.45035-20.11611,4.31081-1.72432,18.96656-2.87387,21.26565-3.44864s14.36887-3.44864,24.71431-5.46036c10.34545-2.01172,37.07147,5.46036,37.07147,5.46036,0,0,14.13685,3.85028,21.55305,6.32201,6.8968,2.29911,13.21932,4.8856,16.38008,6.8973,8.04684,5.45985,15.8058,18.67918,20.97877,27.01291,5.15536,8.30655,4.99682,15.71873,4.99532,15.76755,.00151,.04882,.16005,7.461-4.99532,15.76755-5.17297,8.33373-12.93193,21.55305-20.97877,27.01291-3.16076,2.01171-9.48329,4.5982-16.38008,6.8973-7.4162,2.47173-21.55305,6.32202-21.55305,6.32202,0,0-26.72602,7.47207-37.07147,5.46036-10.34544-2.01171-22.41522-4.88559-24.71431-5.46036s-16.95484-1.72433-21.26565-3.44865c-4.31081-1.72382-17.24274-8.90851-28.45035-20.11611-11.2056-11.20559-22.21841-22.6271-22.46202-32.4325v-.00252"/>
              </g>
            </g>
            <g class="cls-6">
              <g class="cls-24">
                <path class="cls-7" d="M319.24924,324.00476c4.59819-1.72432,9.48329-4.88559,15.65581-10.69423,8.19633-7.98494,15.09313-11.72097,15.09313-11.72097,4.02343-2.2991,17.53014-9.48329,26.15125-10.34545,24.13953-2.0117,45.97997,4.5977,59.48667,8.90851s16.38008,8.04634,25.86386,16.38058c11.78238,10.63283,12.46738,19.2157,12.46738,19.2157,0,0-.68499,8.58287-12.46738,19.2157-9.48378,8.33424-12.35716,12.06977-25.86386,16.38058-13.5067,4.31081-35.34714,10.92022-59.48667,8.90851-8.62112-.86216-22.12782-8.04634-26.15125-10.34544,0,0-6.8968-3.73604-15.09313-11.72098-6.17253-5.80865-11.05762-8.9699-15.65581-10.69423-4.59819-1.72432-18.67918-5.99638-18.67918-11.74413,0-6.32202,14.08099-10.01981,18.67918-11.74413"/>
              </g>
            </g>
            <g class="cls-6">
              <g class="cls-23">
                <path class="cls-7" d="M335.91695,325.58453c2.99618-1.99712,19.25395-11.20761,19.25395-11.20761,0,0,12.06976-6.89679,19.54184-8.9085,8.62112-2.58648,20.12014-5.14579,28.44984-4.88559,9.19589,.28739,17.53013,1.43694,17.53013,1.43694,7.18418,.86216,17.24224,7.75895,22.41521,11.49499,5.17247,3.73604,9.33934,6.57166,15.94924,10.30719,6.60942,3.73604,8.62112,4.88559,11.78238,7.47207,3.16076,2.58598,3.12753,6.03463,3.12753,6.03463,0,0,.03322,3.44865-3.12753,6.03513-3.16126,2.58598-4.31081,3.73553-10.92021,7.47157-6.60992,3.73604-11.63894,6.57116-16.81141,10.30719-5.17297,3.73604-15.23103,10.63283-22.41521,11.49499,0,0-8.33424,1.14955-17.53013,1.43694-8.32971,.26021-19.91429-2.02933-28.44984-4.88559-7.61552-2.54824-19.68528-9.15765-19.68528-9.15765,0,0-15.23103-8.62112-19.11051-10.95847-2.66249-1.60403-10.75665-6.16952-10.75665-11.74413,0-5.57461,8.17016-10.01981,10.75665-11.74413"/>
              </g>
            </g>
            <g class="cls-6">
              <g class="cls-22">
                <path class="cls-7" d="M374.99993,316.53072s10.59206-4.45627,19.54134-6.8968c9.48328-2.58648,19.25445-1.72432,25.0017-1.43693,5.74774,.28739,13.5067,7.18418,13.5067,7.18418,0,0,10.63283,9.48328,14.94364,12.64454,4.31031,3.16126,9.19589,2.2991,18.96657,4.88559,6.89679,2.01121,6.87012,5.42412,6.87012,5.42412,0,0,.02667,3.41241-6.87012,5.42412-9.77067,2.58649-14.65626,1.72433-18.96657,4.88509-4.31081,3.16126-14.8002,13.11162-14.8002,13.11162,0,0-7.47157,6.6099-13.21882,6.89729-5.74775,.28739-15.94975,.96987-25.43303-1.61662-8.94928-2.44103-19.54134-6.8973-19.54134-6.8973l-47.12953-21.8042,47.12953-21.8047Z"/>
              </g>
            </g>
            <path class="cls-7" d="M362.82507,317.5786c24.89651-3.94541,34.30278-2.6645,38.32571-.65279,23.99609,11.92582,23.13393,21.12222,23.13393,21.12222,0,0,.57477,10.05806-23.13393,21.69649-4.02293,2.01172-13.4292,3.29262-38.32571-.65279-10.16123-1.68054-32.94285-11.1296-35.0985-21.04371,0-10.05805,25.14564-18.82312,35.0985-20.46943"/>
          </g>
        </g>
      </g>
      <path class="cls-9" d="M178.13699,681.95662h-2c0-85.91504,33.45703-166.6875,94.20801-227.4375,60.75-60.75098,141.52246-94.20801,227.4375-94.20801v2c-85.38086,0-165.65039,33.24902-226.02344,93.62207s-93.62207,140.64258-93.62207,226.02344Z"/>
      <path class="cls-8" d="M321.15995,673.35896h-1.98438c0-98.6875,80.28711-178.97461,178.97461-178.97461v1.98438c-97.59277,0-176.99023,79.39746-176.99023,176.99023Z"/>
      <path class="cls-3" d="M497.87332,1003.3199c-85.91504,0-166.6875-33.45703-227.4375-94.20801-60.75098-60.75-94.20801-141.52246-94.20801-227.4375h2c0,85.38086,33.24902,165.65039,93.62207,226.02344s140.64258,93.62207,226.02344,93.62207v2Z"/>
      <path class="cls-26" d="M498.2498,858.48982c-98.6875,0-178.97461-80.28711-178.97461-178.97363h1.98438c0,97.5918,79.39746,176.98926,176.99023,176.98926v1.98438Z"/>
      <path class="cls-2" d="M177.8157,361.42291h-2c0-85.91504,33.45703-166.6875,94.20801-227.4375,60.75-60.75098,141.52246-94.20801,227.4375-94.20801v2c-85.38086,0-165.65039,33.24902-226.02344,93.62207s-93.62207,140.64258-93.62207,226.02344Z"/>
      <path class="cls-27" d="M320.83867,346.0699h-1.98438c0-98.68652,80.28711-178.97363,178.97461-178.97363v1.98438c-97.59277,0-176.99023,79.39746-176.99023,176.98926Z"/>
      <path class="cls-4" d="M178.46218,401.88092c-1.69531-13.41406-2.55566-27.12109-2.55566-40.74023h2c0,13.53613,.85449,27.1582,2.54004,40.49023l-1.98438,.25Z"/>
      <path class="cls-28" d="M324.29765,395.81306c-3.5459-14.17188-5.34375-28.83594-5.34375-43.58496h1.98438c0,14.58691,1.77832,29.08887,5.28516,43.10254l-1.92578,.48242Z"/>
      <g class="cls-21">
        <g class="cls-11">
          <g class="cls-5">
            <g class="cls-13">
              <path class="cls-7" d="M503.26069,681.95446c.57477,6.03463-6.03463,21.55305-8.62112,26.43863-2.58649,4.88508-12.35716,21.55305-18.96707,28.73723-6.60941,7.18469-43.68088,25.0017-58.04974,29.88729-14.36837,4.88508-54.74453,8.9085-73.71159,8.9085s-53.3076-10.34544-69.1134-14.36886c-15.80582-4.02343-27.87558-8.04634-39.65794-14.65626-41.27661-27.97925-53.84364-62.49593-54.69524-64.94653h-.0493l.02415-.07198-.02415-.07147h.0493c.8516-2.4506,13.41863-36.96728,54.69524-64.94703,11.78237-6.60942,23.85213-10.63283,39.65794-14.65625,15.8058-4.02293,43.96825-14.36838,62.93482-14.36838s65.5218,4.02293,79.89017,8.90851c14.36886,4.88559,51.44034,22.7026,58.04974,29.88679,6.60991,7.18468,16.38058,23.85214,18.96707,28.73773,2.58649,4.88508,9.19589,20.4035,8.62112,26.43863"/>
            </g>
          </g>
          <g class="cls-6">
            <g class="cls-16">
              <path class="cls-7" d="M230.80665,681.63118c-.00402-.08406-.01106-.1671-.01259-.25165h.02519c.43483-5.8469,6.50018-10.07366,7.33817-10.63283,10.34545-6.89679,18.67918-15.23052,20.97829-18.39178,1.92715-2.6499,16.38057-23.27737,17.81752-24.71431s4.88508-5.45985,16.66746-6.03463c11.78238-.57477,27.3008-7.1847,27.3008-7.1847,0,0,20.97826-6.6094,30.74894-6.32351,42.24393-.86066,45.40519,1.43843,75.86675,6.8983,24.7143,6.60991,33.62332,16.95535,33.62332,16.95535,0,0,20.97827,21.26566,32.47328,33.33543,9.95586,10.45366,9.88741,15.24814,9.69063,16.34434,.19679,1.0962,.26523,5.89068-9.69063,16.34434-11.495,12.06977-32.47328,33.33543-32.47328,33.33543,0,0-8.90902,10.34544-33.62332,16.95536-30.46156,5.45985-33.62282,7.75896-75.86675,6.8983-9.77068,.28588-30.74894-6.32353-30.74894-6.32353,0,0-15.51842-6.60991-27.3008-7.18469-11.78238-.57477-15.23053-4.5977-16.66746-6.03463-1.43694-1.43694-15.89037-22.06441-17.81752-24.71431-2.29911-3.16126-10.63283-11.495-20.97829-18.39178-.83799-.55918-6.90334-4.78593-7.33817-10.63283h-.02519c.00154-.08455,.00857-.1676,.01259-.25165"/>
            </g>
          </g>
          <g class="cls-6">
            <g class="cls-14">
              <path class="cls-7" d="M280.64189,681.62887v-.00252c.2436-9.80539,11.25642-21.22691,22.46202-32.4325,11.20761-11.2076,24.13954-18.3923,28.45035-20.11611,4.31081-1.72432,18.96656-2.87387,21.26565-3.44864s14.36887-3.44864,24.71431-5.46036c10.34545-2.01172,37.07147,5.46036,37.07147,5.46036,0,0,14.13685,3.85028,21.55305,6.32201,6.8968,2.29911,13.21932,4.8856,16.38008,6.8973,8.04684,5.45985,15.8058,18.67918,20.97877,27.01291,5.15536,8.30655,4.99682,15.71873,4.99532,15.76755,.00151,.04882,.16005,7.461-4.99532,15.76755-5.17297,8.33373-12.93193,21.55305-20.97877,27.01291-3.16076,2.01171-9.48329,4.5982-16.38008,6.8973-7.4162,2.47173-21.55305,6.32202-21.55305,6.32202,0,0-26.72602,7.47207-37.07147,5.46036-10.34544-2.01171-22.41522-4.88559-24.71431-5.46036s-16.95484-1.72433-21.26565-3.44865c-4.31081-1.72382-17.24274-8.90851-28.45035-20.11611-11.2056-11.20559-22.21841-22.6271-22.46202-32.4325v-.00252"/>
            </g>
          </g>
          <g class="cls-6">
            <g class="cls-15">
              <path class="cls-7" d="M323.79516,670.06664c4.59819-1.72432,9.48329-4.88559,15.65581-10.69423,8.19633-7.98494,15.09313-11.72097,15.09313-11.72097,4.02343-2.2991,17.53014-9.48329,26.15125-10.34545,24.13953-2.0117,45.97997,4.5977,59.48667,8.90851,13.5067,4.31081,16.38008,8.04634,25.86386,16.38058,11.78238,10.63283,12.46738,19.2157,12.46738,19.2157,0,0-.68499,8.58287-12.46738,19.2157-9.48378,8.33424-12.35716,12.06977-25.86386,16.38058-13.5067,4.31081-35.34714,10.92022-59.48667,8.90851-8.62112-.86216-22.12782-8.04634-26.15125-10.34544,0,0-6.8968-3.73604-15.09313-11.72098-6.17253-5.80865-11.05762-8.9699-15.65581-10.69423-4.59819-1.72432-18.67918-5.99638-18.67918-11.74413,0-6.32202,14.08099-10.01981,18.67918-11.74413"/>
            </g>
          </g>
          <g class="cls-6">
            <g class="cls-12">
              <path class="cls-7" d="M340.46287,671.64641c2.99618-1.99712,19.25395-11.20761,19.25395-11.20761,0,0,12.06976-6.89679,19.54184-8.9085,8.62112-2.58648,20.12014-5.14579,28.44984-4.88559,9.19589,.28739,17.53013,1.43694,17.53013,1.43694,7.18418,.86216,17.24224,7.75895,22.41521,11.49499,5.17247,3.73604,9.33934,6.57166,15.94924,10.30719,6.60942,3.73604,8.62112,4.88559,11.78238,7.47207,3.16076,2.58598,3.12753,6.03463,3.12753,6.03463,0,0,.03322,3.44865-3.12753,6.03513-3.16126,2.58598-4.31081,3.73553-10.92021,7.47157-6.60992,3.73604-11.63894,6.57116-16.81141,10.30719-5.17297,3.73604-15.23103,10.63283-22.41521,11.49499,0,0-8.33424,1.14955-17.53013,1.43694-8.32971,.26021-19.91429-2.02933-28.44984-4.88559-7.61552-2.54824-19.68528-9.15765-19.68528-9.15765,0,0-15.23103-8.62112-19.11051-10.95847-2.66249-1.60403-10.75665-6.16952-10.75665-11.74413s8.17016-10.01981,10.75665-11.74413"/>
            </g>
          </g>
          <g class="cls-6">
            <g class="cls-10">
              <path class="cls-7" d="M379.54585,662.59259s10.59206-4.45627,19.54134-6.8968c9.48328-2.58648,19.25445-1.72432,25.0017-1.43693,5.74774,.28739,13.5067,7.18418,13.5067,7.18418,0,0,10.63283,9.48328,14.94364,12.64454,4.31031,3.16126,9.19589,2.2991,18.96657,4.88559,6.89679,2.01121,6.87012,5.42412,6.87012,5.42412,0,0,.02667,3.41241-6.87012,5.42412-9.77067,2.58649-14.65626,1.72433-18.96657,4.88509-4.31081,3.16126-14.8002,13.11162-14.8002,13.11162,0,0-7.47157,6.6099-13.21882,6.89729-5.74775,.28739-15.94975,.96987-25.43303-1.61662-8.94928-2.44103-19.54134-6.8973-19.54134-6.8973l-47.12953-21.8042,47.12953-21.8047Z"/>
            </g>
          </g>
          <path class="cls-7" d="M367.37098,663.64048c24.89651-3.94541,34.30278-2.6645,38.32571-.65279,23.99609,11.92582,23.13393,21.12222,23.13393,21.12222,0,0,.57477,10.05806-23.13393,21.69649-4.02293,2.01172-13.4292,3.29262-38.32571-.65279-10.16123-1.68054-32.94285-11.1296-35.0985-21.04371,0-10.05805,25.14564-18.82312,35.0985-20.46943"/>
        </g>
      </g>
    </g>
  </g>
</svg>