<?xml version="1.0" encoding="UTF-8"?><svg xmlns="http://www.w3.org/2000/svg" xmlns:xlink="http://www.w3.org/1999/xlink" viewBox="0 0 1080 1080"><defs><style>.y,.a`,.aa,.ab,.ac,.ad,.ae{fill:none;}.af{mix-blend-mode:overlay;}.af,.ag{opacity:.33;}.ah{fill:#fff;}.ai{clip-path:url(#c);}.aj{clip-path:url(#b);}.ak{clip-path:url(#f);}.al{clip-path:url(#e);}.am{clip-path:url(#d);}.an{clip-path:url(#n);}.ao{clip-path:url(#m);}.ap{clip-path:url(#l);}.aq{clip-path:url(#k);}.ar{clip-path:url(#j);}.as{clip-path:url(#i);}.at{clip-path:url(#h);}.au{clip-path:url(#g);}.av{clip-path:url(#r);}.aw{clip-path:url(#q);}.ax{clip-path:url(#p);}.ay{clip-path:url(#o);}.a`{stroke:url(#s);}.a`,.aa,.ab{stroke-width:2px;}.a`,.aa,.ab,.ac,.ad,.ae{stroke-miterlimit:10;}.aa{stroke:url(#w);}.ab{stroke:url(#u);}.b`{isolation:isolate;}.ac{stroke:url(#t);}.ac,.ad,.ae{stroke-width:1.99px;}.ad{stroke:url(#x);}.ae{stroke:url(#v);}</style><clipPath id="b"><rect class="y" x="556.84" y="256.45" width="424.13" height="135.44"/></clipPath><clipPath id="c"><rect class="y" x="636.44" y="276.85" width="322.98" height="188.09"/></clipPath><clipPath id="d"><rect class="y" x="636.44" y="276.85" width="322.98" height="188.09"/></clipPath><clipPath id="e"><rect class="y" x="636.52" y="276.85" width="322.9" height="188.09"/></clipPath><clipPath id="f"><rect class="y" x="636.44" y="296.94" width="272.58" height="147.42"/></clipPath><clipPath id="g"><rect class="y" x="661.3" y="308.84" width="197.87" height="123.61"/></clipPath><clipPath id="h"><rect class="y" x="661.3" y="325.95" width="173.4" height="89.75"/></clipPath><clipPath id="i"><rect class="y" x="661.3" y="335.64" width="148.81" height="73.53"/></clipPath><clipPath id="j"><rect class="y" x="661.44" y="342.9" width="145.96" height="61.13"/></clipPath><clipPath id="k"><rect class="y" x="640.44" y="587.2" width="322.98" height="188.09"/></clipPath><clipPath id="l"><rect class="y" x="640.44" y="587.2" width="322.98" height="188.09"/></clipPath><clipPath id="m"><rect class="y" x="640.52" y="587.2" width="322.9" height="188.09"/></clipPath><clipPath id="n"><rect class="y" x="640.44" y="607.28" width="272.58" height="147.42"/></clipPath><clipPath id="o"><rect class="y" x="665.3" y="619.18" width="197.87" height="123.61"/></clipPath><clipPath id="p"><rect class="y" x="665.3" y="636.29" width="173.4" height="89.75"/></clipPath><clipPath id="q"><rect class="y" x="665.3" y="645.98" width="148.81" height="73.53"/></clipPath><clipPath id="r"><rect class="y" x="665.44" y="653.24" width="145.96" height="61.13"/></clipPath><linearGradient id="s" x1="256.81" y1="231.28" x2="-64.84" y2="231.28" gradientTransform="translate(906.13) rotate(-180) scale(1 -1)" gradientUnits="userSpaceOnUse"><stop offset="0" stop-color="#fff" stop-opacity="0"/><stop offset="1" stop-color="#fff" stop-opacity=".5"/></linearGradient><linearGradient id="t" x1="84.95" y1="294.02" x2="263.93" y2="294.02" gradientTransform="translate(906.13) rotate(-180) scale(1 -1)" gradientUnits="userSpaceOnUse"><stop offset=".49" stop-color="#fff"/><stop offset=".95" stop-color="#fff" stop-opacity="0"/></linearGradient><linearGradient id="u" x1="264.71" y1="526.09" x2="-56.93" y2="526.09" xlink:href="#s"/><linearGradient id="v" x1="92.86" y1="588.83" x2="271.84" y2="588.83" xlink:href="#t"/><linearGradient id="w" x1="264.8" y1="-1271.28" x2="-56.84" y2="-1271.28" gradientTransform="translate(906.13 -423.82) rotate(-180)" xlink:href="#s"/><linearGradient id="x" x1="92.96" y1="-1197.79" x2="271.93" y2="-1197.79" gradientTransform="translate(906.13 -423.82) rotate(-180)" xlink:href="#t"/></defs><g class="b`"><g id="a"><g class="aj"><g class="ai"><g class="am"><g class="af"><g class="al"><path class="ah" d="M636.56,370.97c-.57,6.03,6.03,21.55,8.62,26.44,2.59,4.89,12.36,21.55,18.97,28.74,6.61,7.18,43.68,25,58.05,29.89,14.37,4.89,54.74,8.91,73.71,8.91s53.31-10.35,69.11-14.37c15.81-4.02,27.88-8.05,39.66-14.66,41.28-27.98,53.84-62.5,54.7-64.95h.05l-.02-.07,.02-.07h-.05c-.85-2.45-13.42-36.97-54.7-64.95-11.78-6.61-23.85-10.63-39.66-14.66-15.81-4.02-43.97-14.37-62.93-14.37s-65.52,4.02-79.89,8.91c-14.37,4.89-51.44,22.7-58.05,29.89-6.61,7.18-16.38,23.85-18.97,28.74-2.59,4.89-9.2,20.4-8.62,26.44"/></g></g><g class="ag"><g class="ak"><path class="ah" d="M909.01,370.65c0-.08,.01-.17,.01-.25h-.03c-.43-5.85-6.5-10.07-7.34-10.63-10.35-6.9-18.68-15.23-20.98-18.39-1.93-2.65-16.38-23.28-17.82-24.71s-4.89-5.46-16.67-6.03-27.3-7.18-27.3-7.18c0,0-20.98-6.61-30.75-6.32-42.24-.86-45.41,1.44-75.87,6.9-24.71,6.61-33.62,16.96-33.62,16.96,0,0-20.98,21.27-32.47,33.34-9.96,10.45-9.89,15.25-9.69,16.34-.2,1.1-.27,5.89,9.69,16.34,11.5,12.07,32.47,33.34,32.47,33.34,0,0,8.91,10.35,33.62,16.96,30.46,5.46,33.62,7.76,75.87,6.9,9.77,.29,30.75-6.32,30.75-6.32,0,0,15.52-6.61,27.3-7.18s15.23-4.6,16.67-6.03c1.44-1.44,15.89-22.06,17.82-24.71,2.3-3.16,10.63-11.49,20.98-18.39,.84-.56,6.9-4.79,7.34-10.63h.03c0-.08,0-.17-.01-.25"/></g></g><g class="ag"><g class="au"><path class="ah" d="M859.18,370.64h0c-.24-9.81-11.26-21.23-22.46-32.44-11.21-11.21-24.14-18.39-28.45-20.12-4.31-1.72-18.97-2.87-21.27-3.45s-14.37-3.45-24.71-5.46c-10.35-2.01-37.07,5.46-37.07,5.46,0,0-14.14,3.85-21.55,6.32-6.9,2.3-13.22,4.89-16.38,6.9-8.05,5.46-15.81,18.68-20.98,27.01-5.16,8.31-5,15.72-5,15.77,0,.05-.16,7.46,5,15.77,5.17,8.33,12.93,21.55,20.98,27.01,3.16,2.01,9.48,4.6,16.38,6.9,7.42,2.47,21.55,6.32,21.55,6.32,0,0,26.73,7.47,37.07,5.46,10.35-2.01,22.42-4.89,24.71-5.46s16.95-1.72,21.27-3.45c4.31-1.72,17.24-8.91,28.45-20.12,11.21-11.21,22.22-22.63,22.46-32.43h0"/></g></g><g class="ag"><g class="at"><path class="ah" d="M816.02,359.08c-4.6-1.72-9.48-4.89-15.66-10.69-8.2-7.98-15.09-11.72-15.09-11.72-4.02-2.3-17.53-9.48-26.15-10.35-24.14-2.01-45.98,4.6-59.49,8.91s-16.38,8.05-25.86,16.38c-11.78,10.63-12.47,19.22-12.47,19.22,0,0,.68,8.58,12.47,19.22,9.48,8.33,12.36,12.07,25.86,16.38,13.51,4.31,35.35,10.92,59.49,8.91,8.62-.86,22.13-8.05,26.15-10.35,0,0,6.9-3.74,15.09-11.72,6.17-5.81,11.06-8.97,15.66-10.69,4.6-1.72,18.68-6,18.68-11.74,0-6.32-14.08-10.02-18.68-11.74"/></g></g><g class="ag"><g class="as"><path class="ah" d="M799.35,360.66c-3-2-19.25-11.21-19.25-11.21,0,0-12.07-6.9-19.54-8.91-8.62-2.59-20.12-5.15-28.45-4.89-9.2,.29-17.53,1.44-17.53,1.44-7.18,.86-17.24,7.76-22.42,11.49-5.17,3.74-9.34,6.57-15.95,10.31-6.61,3.74-8.62,4.89-11.78,7.47-3.16,2.59-3.13,6.03-3.13,6.03,0,0-.03,3.45,3.13,6.04,3.16,2.59,4.31,3.74,10.92,7.47,6.61,3.74,11.64,6.57,16.81,10.31,5.17,3.74,15.23,10.63,22.42,11.49,0,0,8.33,1.15,17.53,1.44,8.33,.26,19.91-2.03,28.45-4.89,7.62-2.55,19.69-9.16,19.69-9.16,0,0,15.23-8.62,19.11-10.96,2.66-1.6,10.76-6.17,10.76-11.74s-8.17-10.02-10.76-11.74"/></g></g><g class="ag"><g class="ar"><path class="ah" d="M760.27,351.61s-10.59-4.46-19.54-6.9c-9.48-2.59-19.25-1.72-25-1.44-5.75,.29-13.51,7.18-13.51,7.18,0,0-10.63,9.48-14.94,12.64-4.31,3.16-9.2,2.3-18.97,4.89-6.9,2.01-6.87,5.42-6.87,5.42,0,0-.03,3.41,6.87,5.42,9.77,2.59,14.66,1.72,18.97,4.89,4.31,3.16,14.8,13.11,14.8,13.11,0,0,7.47,6.61,13.22,6.9,5.75,.29,15.95,.97,25.43-1.62,8.95-2.44,19.54-6.9,19.54-6.9l47.13-21.8-47.13-21.8Z"/></g></g><path class="ah" d="M772.45,352.66c-24.9-3.95-34.3-2.66-38.33-.65-24,11.93-23.13,21.12-23.13,21.12,0,0-.57,10.06,23.13,21.7,4.02,2.01,13.43,3.29,38.33-.65,10.16-1.68,32.94-11.13,35.1-21.04,0-10.06-25.15-18.82-35.1-20.47"/></g></g></g><g class="aq"><g class="ap"><g class="af"><g class="ao"><path class="ah" d="M640.55,681.31c-.57,6.03,6.03,21.55,8.62,26.44,2.59,4.89,12.36,21.55,18.97,28.74,6.61,7.18,43.68,25,58.05,29.89,14.37,4.89,54.74,8.91,73.71,8.91s53.31-10.35,69.11-14.37c15.81-4.02,27.88-8.05,39.66-14.66,41.28-27.98,53.84-62.5,54.7-64.95h.05l-.02-.07,.02-.07h-.05c-.85-2.45-13.42-36.97-54.7-64.95-11.78-6.61-23.85-10.63-39.66-14.66-15.81-4.02-43.97-14.37-62.93-14.37s-65.52,4.02-79.89,8.91c-14.37,4.89-51.44,22.7-58.05,29.89-6.61,7.18-16.38,23.85-18.97,28.74-2.59,4.89-9.2,20.4-8.62,26.44"/></g></g><g class="ag"><g class="an"><path class="ah" d="M913,680.99c0-.08,.01-.17,.01-.25h-.03c-.43-5.85-6.5-10.07-7.34-10.63-10.35-6.9-18.68-15.23-20.98-18.39-1.93-2.65-16.38-23.28-17.82-24.71s-4.89-5.46-16.67-6.03-27.3-7.18-27.3-7.18c0,0-20.98-6.61-30.75-6.32-42.24-.86-45.41,1.44-75.87,6.9-24.71,6.61-33.62,16.96-33.62,16.96,0,0-20.98,21.27-32.47,33.34-9.96,10.45-9.89,15.25-9.69,16.34-.2,1.1-.27,5.89,9.69,16.34,11.5,12.07,32.47,33.34,32.47,33.34,0,0,8.91,10.35,33.62,16.96,30.46,5.46,33.62,7.76,75.87,6.9,9.77,.29,30.75-6.32,30.75-6.32,0,0,15.52-6.61,27.3-7.18s15.23-4.6,16.67-6.03c1.44-1.44,15.89-22.06,17.82-24.71,2.3-3.16,10.63-11.49,20.98-18.39,.84-.56,6.9-4.79,7.34-10.63h.03c0-.08,0-.17-.01-.25"/></g></g><g class="ag"><g class="ay"><path class="ah" d="M863.17,680.99h0c-.24-9.81-11.26-21.23-22.46-32.44-11.21-11.21-24.14-18.39-28.45-20.12-4.31-1.72-18.97-2.87-21.27-3.45s-14.37-3.45-24.71-5.46c-10.35-2.01-37.07,5.46-37.07,5.46,0,0-14.14,3.85-21.55,6.32-6.9,2.3-13.22,4.89-16.38,6.9-8.05,5.46-15.81,18.68-20.98,27.01-5.16,8.31-5,15.72-5,15.77,0,.05-.16,7.46,5,15.77,5.17,8.33,12.93,21.55,20.98,27.01,3.16,2.01,9.48,4.6,16.38,6.9,7.42,2.47,21.55,6.32,21.55,6.32,0,0,26.73,7.47,37.07,5.46,10.35-2.01,22.42-4.89,24.71-5.46s16.95-1.72,21.27-3.45c4.31-1.72,17.24-8.91,28.45-20.12,11.21-11.21,22.22-22.63,22.46-32.43h0"/></g></g><g class="ag"><g class="ax"><path class="ah" d="M820.02,669.42c-4.6-1.72-9.48-4.89-15.66-10.69-8.2-7.98-15.09-11.72-15.09-11.72-4.02-2.3-17.53-9.48-26.15-10.35-24.14-2.01-45.98,4.6-59.49,8.91s-16.38,8.05-25.86,16.38c-11.78,10.63-12.47,19.22-12.47,19.22,0,0,.68,8.58,12.47,19.22,9.48,8.33,12.36,12.07,25.86,16.38,13.51,4.31,35.35,10.92,59.49,8.91,8.62-.86,22.13-8.05,26.15-10.35,0,0,6.9-3.74,15.09-11.72,6.17-5.81,11.06-8.97,15.66-10.69,4.6-1.72,18.68-6,18.68-11.74,0-6.32-14.08-10.02-18.68-11.74"/></g></g><g class="ag"><g class="aw"><path class="ah" d="M803.35,671c-3-2-19.25-11.21-19.25-11.21,0,0-12.07-6.9-19.54-8.91-8.62-2.59-20.12-5.15-28.45-4.89-9.2,.29-17.53,1.44-17.53,1.44-7.18,.86-17.24,7.76-22.42,11.49-5.17,3.74-9.34,6.57-15.95,10.31-6.61,3.74-8.62,4.89-11.78,7.47-3.16,2.59-3.13,6.03-3.13,6.03,0,0-.03,3.45,3.13,6.04,3.16,2.59,4.31,3.74,10.92,7.47,6.61,3.74,11.64,6.57,16.81,10.31,5.17,3.74,15.23,10.63,22.42,11.49,0,0,8.33,1.15,17.53,1.44,8.33,.26,19.91-2.03,28.45-4.89,7.62-2.55,19.69-9.16,19.69-9.16,0,0,15.23-8.62,19.11-10.96,2.66-1.6,10.76-6.17,10.76-11.74s-8.17-10.02-10.76-11.74"/></g></g><g class="ag"><g class="av"><path class="ah" d="M764.27,661.95s-10.59-4.46-19.54-6.9c-9.48-2.59-19.25-1.72-25-1.44-5.75,.29-13.51,7.18-13.51,7.18,0,0-10.63,9.48-14.94,12.64-4.31,3.16-9.2,2.3-18.97,4.89-6.9,2.01-6.87,5.42-6.87,5.42,0,0-.03,3.41,6.87,5.42,9.77,2.59,14.66,1.72,18.97,4.89,4.31,3.16,14.8,13.11,14.8,13.11,0,0,7.47,6.61,13.22,6.9,5.75,.29,15.95,.97,25.43-1.62,8.95-2.44,19.54-6.9,19.54-6.9l47.13-21.8-47.13-21.8Z"/></g></g><path class="ah" d="M776.44,663c-24.9-3.95-34.3-2.66-38.33-.65-24,11.93-23.13,21.12-23.13,21.12,0,0-.57,10.06,23.13,21.7,4.02,2.01,13.43,3.29,38.33-.65,10.16-1.68,32.94-11.13,35.1-21.04,0-10.06-25.15-18.82-35.1-20.47"/></g></g><path class="a`" d="M969.96,392.1c0-177.09-143.56-320.65-320.65-320.65"/><path class="ac" d="M820.18,383.5c0-98.3-79.69-177.98-177.98-177.98"/><path class="ab" d="M962.06,686.91c0-177.09-143.56-320.65-320.65-320.65"/><path class="ae" d="M812.27,678.32c0-98.3-79.69-177.98-177.98-177.98"/><path class="aa" d="M961.97,686.63c0,177.09-143.56,320.65-320.65,320.65"/><path class="ad" d="M812.17,684.47c0,98.3-79.69,177.98-177.98,177.98"/></g></g></svg>