<?xml version="1.0" encoding="UTF-8"?><svg xmlns="http://www.w3.org/2000/svg" xmlns:xlink="http://www.w3.org/1999/xlink" viewBox="0 0 1080 1080"><defs><style>.y,.a`,.aa,.ab,.ac,.ad,.ae{fill:none;}.af{mix-blend-mode:overlay;}.af,.ag{opacity:.33;}.ah{fill:#fff;}.ai{clip-path:url(#c);}.aj{clip-path:url(#b);}.ak{clip-path:url(#f);}.al{clip-path:url(#e);}.am{clip-path:url(#d);}.an{clip-path:url(#n);}.ao{clip-path:url(#m);}.ap{clip-path:url(#l);}.aq{clip-path:url(#k);}.ar{clip-path:url(#j);}.as{clip-path:url(#i);}.at{clip-path:url(#h);}.au{clip-path:url(#g);}.av{clip-path:url(#r);}.aw{clip-path:url(#q);}.ax{clip-path:url(#p);}.ay{clip-path:url(#o);}.a`{stroke:url(#s);}.a`,.aa,.ab{stroke-width:2px;}.a`,.aa,.ab,.ac,.ad,.ae{stroke-miterlimit:10;}.aa{stroke:url(#w);}.ab{stroke:url(#u);}.b`{isolation:isolate;}.ac{stroke:url(#t);}.ac,.ad,.ae{stroke-width:1.99px;}.ad{stroke:url(#x);}.ae{stroke:url(#v);}.ba{fill:#f8f499;opacity:.5;}</style><clipPath id="b"><rect class="y" x="152.98" y="266.11" width="424.13" height="135.44" transform="translate(730.09 667.65) rotate(-180)"/></clipPath><clipPath id="c"><rect class="y" x="174.52" y="286.52" width="322.98" height="188.09"/></clipPath><clipPath id="d"><rect class="y" x="174.52" y="286.52" width="322.98" height="188.09"/></clipPath><clipPath id="e"><rect class="y" x="174.52" y="286.52" width="322.9" height="188.09"/></clipPath><clipPath id="f"><rect class="y" x="224.92" y="306.6" width="272.58" height="147.42"/></clipPath><clipPath id="g"><rect class="y" x="274.77" y="318.5" width="197.87" height="123.61"/></clipPath><clipPath id="h"><rect class="y" x="299.24" y="335.61" width="173.4" height="89.75"/></clipPath><clipPath id="i"><rect class="y" x="323.84" y="345.3" width="148.81" height="73.53"/></clipPath><clipPath id="j"><rect class="y" x="326.55" y="352.56" width="145.96" height="61.13"/></clipPath><clipPath id="k"><rect class="y" x="170.53" y="642.87" width="322.98" height="188.09"/></clipPath><clipPath id="l"><rect class="y" x="170.53" y="642.87" width="322.98" height="188.09"/></clipPath><clipPath id="m"><rect class="y" x="170.53" y="642.87" width="322.9" height="188.09"/></clipPath><clipPath id="n"><rect class="y" x="220.93" y="662.95" width="272.58" height="147.42"/></clipPath><clipPath id="o"><rect class="y" x="270.78" y="674.86" width="197.87" height="123.61"/></clipPath><clipPath id="p"><rect class="y" x="295.25" y="691.97" width="173.4" height="89.75"/></clipPath><clipPath id="q"><rect class="y" x="319.84" y="701.66" width="148.81" height="73.53"/></clipPath><clipPath id="r"><rect class="y" x="322.55" y="708.92" width="145.96" height="61.13"/></clipPath><linearGradient id="s" x1="169.38" y1="576.49" x2="491.03" y2="576.49" gradientTransform="matrix(1, 0, 0, 1, 0, 0)" gradientUnits="userSpaceOnUse"><stop offset="0" stop-color="#fff" stop-opacity=".5"/><stop offset=".16" stop-color="#fff" stop-opacity=".45"/><stop offset=".45" stop-color="#fff" stop-opacity=".32"/><stop offset=".83" stop-color="#fff" stop-opacity=".1"/><stop offset="1" stop-color="#fff" stop-opacity="0"/></linearGradient><linearGradient id="t" x1="319.18" y1="639.23" x2="498.15" y2="639.23" gradientTransform="matrix(1, 0, 0, 1, 0, 0)" gradientUnits="userSpaceOnUse"><stop offset=".49" stop-color="#fff"/><stop offset=".95" stop-color="#fff" stop-opacity="0"/></linearGradient><linearGradient id="u" x1="169.47" y1="1062.5" x2="491.12" y2="1062.5" gradientTransform="translate(0 1960.35) scale(1 -1)" xlink:href="#s"/><linearGradient id="v" x1="319.27" y1="1135.99" x2="498.25" y2="1135.99" gradientTransform="translate(0 1960.35) scale(1 -1)" xlink:href="#t"/><linearGradient id="w" x1="168.06" y1="236.21" x2="489.71" y2="236.21" xlink:href="#s"/><linearGradient id="x" x1="317.85" y1="298.95" x2="496.83" y2="298.95" xlink:href="#t"/></defs><g class="b`"><g id="a"><g class="aj"><g class="ai"><g class="am"><g class="af"><g class="al"><path class="ah" d="M497.39,380.63c.57,6.03-6.03,21.55-8.62,26.44-2.59,4.89-12.36,21.55-18.97,28.74-6.61,7.18-43.68,25-58.05,29.89-14.37,4.89-54.74,8.91-73.71,8.91s-53.31-10.35-69.11-14.37c-15.81-4.02-27.88-8.05-39.66-14.66-41.28-27.98-53.84-62.5-54.7-64.95h-.05l.02-.07-.02-.07h.05c.85-2.45,13.42-36.97,54.7-64.95,11.78-6.61,23.85-10.63,39.66-14.66,15.81-4.02,43.97-14.37,62.93-14.37s65.52,4.02,79.89,8.91c14.37,4.89,51.44,22.7,58.05,29.89,6.61,7.18,16.38,23.85,18.97,28.74,2.59,4.89,9.2,20.4,8.62,26.44"/></g></g><g class="ag"><g class="ak"><path class="ah" d="M224.94,380.31c0-.08-.01-.17-.01-.25h.03c.43-5.85,6.5-10.07,7.34-10.63,10.35-6.9,18.68-15.23,20.98-18.39,1.93-2.65,16.38-23.28,17.82-24.71s4.89-5.46,16.67-6.03,27.3-7.18,27.3-7.18c0,0,20.98-6.61,30.75-6.32,42.24-.86,45.41,1.44,75.87,6.9,24.71,6.61,33.62,16.96,33.62,16.96,0,0,20.98,21.27,32.47,33.34,9.96,10.45,9.89,15.25,9.69,16.34,.2,1.1,.27,5.89-9.69,16.34-11.5,12.07-32.47,33.34-32.47,33.34,0,0-8.91,10.35-33.62,16.96-30.46,5.46-33.62,7.76-75.87,6.9-9.77,.29-30.75-6.32-30.75-6.32,0,0-15.52-6.61-27.3-7.18s-15.23-4.6-16.67-6.03c-1.44-1.44-15.89-22.06-17.82-24.71-2.3-3.16-10.63-11.49-20.98-18.39-.84-.56-6.9-4.79-7.34-10.63h-.03c0-.08,0-.17,.01-.25"/></g></g><g class="ag"><g class="au"><path class="ah" d="M274.77,380.31h0c.24-9.81,11.26-21.23,22.46-32.44,11.21-11.21,24.14-18.39,28.45-20.12,4.31-1.72,18.97-2.87,21.27-3.45s14.37-3.45,24.71-5.46c10.35-2.01,37.07,5.46,37.07,5.46,0,0,14.14,3.85,21.55,6.32,6.9,2.3,13.22,4.89,16.38,6.9,8.05,5.46,15.81,18.68,20.98,27.01,5.16,8.31,5,15.72,5,15.77,0,.05,.16,7.46-5,15.77-5.17,8.33-12.93,21.55-20.98,27.01-3.16,2.01-9.48,4.6-16.38,6.9-7.42,2.47-21.55,6.32-21.55,6.32,0,0-26.73,7.47-37.07,5.46-10.35-2.01-22.42-4.89-24.71-5.46s-16.95-1.72-21.27-3.45c-4.31-1.72-17.24-8.91-28.45-20.12-11.21-11.21-22.22-22.63-22.46-32.43h0"/></g></g><g class="ag"><g class="at"><path class="ah" d="M317.92,368.74c4.6-1.72,9.48-4.89,15.66-10.69,8.2-7.98,15.09-11.72,15.09-11.72,4.02-2.3,17.53-9.48,26.15-10.35,24.14-2.01,45.98,4.6,59.49,8.91,13.51,4.31,16.38,8.05,25.86,16.38,11.78,10.63,12.47,19.22,12.47,19.22,0,0-.68,8.58-12.47,19.22-9.48,8.33-12.36,12.07-25.86,16.38-13.51,4.31-35.35,10.92-59.49,8.91-8.62-.86-22.13-8.05-26.15-10.35,0,0-6.9-3.74-15.09-11.72-6.17-5.81-11.06-8.97-15.66-10.69-4.6-1.72-18.68-6-18.68-11.74,0-6.32,14.08-10.02,18.68-11.74"/></g></g><g class="ag"><g class="as"><path class="ah" d="M334.59,370.32c3-2,19.25-11.21,19.25-11.21,0,0,12.07-6.9,19.54-8.91,8.62-2.59,20.12-5.15,28.45-4.89,9.2,.29,17.53,1.44,17.53,1.44,7.18,.86,17.24,7.76,22.42,11.49,5.17,3.74,9.34,6.57,15.95,10.31,6.61,3.74,8.62,4.89,11.78,7.47,3.16,2.59,3.13,6.03,3.13,6.03,0,0,.03,3.45-3.13,6.04-3.16,2.59-4.31,3.74-10.92,7.47-6.61,3.74-11.64,6.57-16.81,10.31-5.17,3.74-15.23,10.63-22.42,11.49,0,0-8.33,1.15-17.53,1.44-8.33,.26-19.91-2.03-28.45-4.89-7.62-2.55-19.69-9.16-19.69-9.16,0,0-15.23-8.62-19.11-10.96-2.66-1.6-10.76-6.17-10.76-11.74s8.17-10.02,10.76-11.74"/></g></g><g class="ag"><g class="ar"><path class="ah" d="M373.67,361.27s10.59-4.46,19.54-6.9c9.48-2.59,19.25-1.72,25-1.44,5.75,.29,13.51,7.18,13.51,7.18,0,0,10.63,9.48,14.94,12.64,4.31,3.16,9.2,2.3,18.97,4.89,6.9,2.01,6.87,5.42,6.87,5.42,0,0,.03,3.41-6.87,5.42-9.77,2.59-14.66,1.72-18.97,4.89-4.31,3.16-14.8,13.11-14.8,13.11,0,0-7.47,6.61-13.22,6.9-5.75,.29-15.95,.97-25.43-1.62-8.95-2.44-19.54-6.9-19.54-6.9l-47.13-21.8,47.13-21.8Z"/></g></g><path class="ah" d="M361.5,362.32c24.9-3.95,34.3-2.66,38.33-.65,24,11.93,23.13,21.12,23.13,21.12,0,0,.57,10.06-23.13,21.7-4.02,2.01-13.43,3.29-38.33-.65-10.16-1.68-32.94-11.13-35.1-21.04,0-10.06,25.15-18.82,35.1-20.47"/></g></g></g><g class="aq"><g class="ap"><g class="af"><g class="ao"><path class="ah" d="M493.4,736.99c.57,6.03-6.03,21.55-8.62,26.44-2.59,4.89-12.36,21.55-18.97,28.74-6.61,7.18-43.68,25-58.05,29.89-14.37,4.89-54.74,8.91-73.71,8.91s-53.31-10.35-69.11-14.37c-15.81-4.02-27.88-8.05-39.66-14.66-41.28-27.98-53.84-62.5-54.7-64.95h-.05l.02-.07-.02-.07h.05c.85-2.45,13.42-36.97,54.7-64.95,11.78-6.61,23.85-10.63,39.66-14.66,15.81-4.02,43.97-14.37,62.93-14.37s65.52,4.02,79.89,8.91c14.37,4.89,51.44,22.7,58.05,29.89,6.61,7.18,16.38,23.85,18.97,28.74,2.59,4.89,9.2,20.4,8.62,26.44"/></g></g><g class="ag"><g class="an"><path class="ah" d="M220.94,736.66c0-.08-.01-.17-.01-.25h.03c.43-5.85,6.5-10.07,7.34-10.63,10.35-6.9,18.68-15.23,20.98-18.39,1.93-2.65,16.38-23.28,17.82-24.71s4.89-5.46,16.67-6.03c11.78-.57,27.3-7.18,27.3-7.18,0,0,20.98-6.61,30.75-6.32,42.24-.86,45.41,1.44,75.87,6.9,24.71,6.61,33.62,16.96,33.62,16.96,0,0,20.98,21.27,32.47,33.34,9.96,10.45,9.89,15.25,9.69,16.34,.2,1.1,.27,5.89-9.69,16.34-11.5,12.07-32.47,33.34-32.47,33.34,0,0-8.91,10.35-33.62,16.96-30.46,5.46-33.62,7.76-75.87,6.9-9.77,.29-30.75-6.32-30.75-6.32,0,0-15.52-6.61-27.3-7.18-11.78-.57-15.23-4.6-16.67-6.03-1.44-1.44-15.89-22.06-17.82-24.71-2.3-3.16-10.63-11.49-20.98-18.39-.84-.56-6.9-4.79-7.34-10.63h-.03c0-.08,0-.17,.01-.25"/></g></g><g class="ag"><g class="ay"><path class="ah" d="M270.78,736.66h0c.24-9.81,11.26-21.23,22.46-32.44,11.21-11.21,24.14-18.39,28.45-20.12,4.31-1.72,18.97-2.87,21.27-3.45s14.37-3.45,24.71-5.46c10.35-2.01,37.07,5.46,37.07,5.46,0,0,14.14,3.85,21.55,6.32,6.9,2.3,13.22,4.89,16.38,6.9,8.05,5.46,15.81,18.68,20.98,27.01,5.16,8.31,5,15.72,5,15.77,0,.05,.16,7.46-5,15.77-5.17,8.33-12.93,21.55-20.98,27.01-3.16,2.01-9.48,4.6-16.38,6.9-7.42,2.47-21.55,6.32-21.55,6.32,0,0-26.73,7.47-37.07,5.46-10.35-2.01-22.42-4.89-24.71-5.46s-16.95-1.72-21.27-3.45c-4.31-1.72-17.24-8.91-28.45-20.12-11.21-11.21-22.22-22.63-22.46-32.43h0"/></g></g><g class="ag"><g class="ax"><path class="ah" d="M313.93,725.1c4.6-1.72,9.48-4.89,15.66-10.69,8.2-7.98,15.09-11.72,15.09-11.72,4.02-2.3,17.53-9.48,26.15-10.35,24.14-2.01,45.98,4.6,59.49,8.91,13.51,4.31,16.38,8.05,25.86,16.38,11.78,10.63,12.47,19.22,12.47,19.22,0,0-.68,8.58-12.47,19.22-9.48,8.33-12.36,12.07-25.86,16.38-13.51,4.31-35.35,10.92-59.49,8.91-8.62-.86-22.13-8.05-26.15-10.35,0,0-6.9-3.74-15.09-11.72-6.17-5.81-11.06-8.97-15.66-10.69-4.6-1.72-18.68-6-18.68-11.74,0-6.32,14.08-10.02,18.68-11.74"/></g></g><g class="ag"><g class="aw"><path class="ah" d="M330.6,726.68c3-2,19.25-11.21,19.25-11.21,0,0,12.07-6.9,19.54-8.91,8.62-2.59,20.12-5.15,28.45-4.89,9.2,.29,17.53,1.44,17.53,1.44,7.18,.86,17.24,7.76,22.42,11.49,5.17,3.74,9.34,6.57,15.95,10.31,6.61,3.74,8.62,4.89,11.78,7.47,3.16,2.59,3.13,6.03,3.13,6.03,0,0,.03,3.45-3.13,6.04-3.16,2.59-4.31,3.74-10.92,7.47-6.61,3.74-11.64,6.57-16.81,10.31-5.17,3.74-15.23,10.63-22.42,11.49,0,0-8.33,1.15-17.53,1.44-8.33,.26-19.91-2.03-28.45-4.89-7.62-2.55-19.69-9.16-19.69-9.16,0,0-15.23-8.62-19.11-10.96-2.66-1.6-10.76-6.17-10.76-11.74s8.17-10.02,10.76-11.74"/></g></g><g class="ag"><g class="av"><path class="ah" d="M369.68,717.63s10.59-4.46,19.54-6.9c9.48-2.59,19.25-1.72,25-1.44,5.75,.29,13.51,7.18,13.51,7.18,0,0,10.63,9.48,14.94,12.64,4.31,3.16,9.2,2.3,18.97,4.89,6.9,2.01,6.87,5.42,6.87,5.42,0,0,.03,3.41-6.87,5.42-9.77,2.59-14.66,1.72-18.97,4.89-4.31,3.16-14.8,13.11-14.8,13.11,0,0-7.47,6.61-13.22,6.9-5.75,.29-15.95,.97-25.43-1.62-8.95-2.44-19.54-6.9-19.54-6.9l-47.13-21.8,47.13-21.8Z"/></g></g><path class="ah" d="M357.51,718.67c24.9-3.95,34.3-2.66,38.33-.65,24,11.93,23.13,21.12,23.13,21.12,0,0,.57,10.06-23.13,21.7-4.02,2.01-13.43,3.29-38.33-.65-10.16-1.68-32.94-11.13-35.1-21.04,0-10.06,25.15-18.82,35.1-20.47"/></g></g><path class="a`" d="M170.38,737.32c0-177.09,143.56-320.65,320.65-320.65"/><path class="ac" d="M320.17,728.72c0-98.3,79.69-177.98,177.98-177.98"/><path class="ab" d="M170.47,737.03c0,177.09,143.56,320.65,320.65,320.65"/><path class="ae" d="M320.27,734.88c0,98.3,79.69,177.98,177.98,177.98"/><path class="aa" d="M169.06,397.03c0-177.09,143.56-320.65,320.65-320.65"/><path class="ad" d="M318.85,388.43c0-98.3,79.69-177.98,177.98-177.98"/><polygon class="ba" points="169.16 392.06 169.16 392.06 169.16 392.06 169.16 392.06"/><polygon class="ba" points="169.16 391.92 169.16 391.92 169.16 391.92 169.16 391.92"/><path class="y" d="M169.16,391.92v.14l.02-.07-.02-.07Z"/><path class="y" d="M223.62,327.3c11.72-6.58,23.73-10.58,39.46-14.58,15.73-4,49.89-14.3,68.76-14.3H169.16v93.49h.05c.85-2.44,13.35-36.78,54.42-64.62Z"/><path class="y" d="M169.21,392.06h-.05v2.2h.89c-.47-1.14-.74-1.9-.84-2.2Z"/></g></g></svg>