<?xml version="1.0" encoding="UTF-8"?><svg xmlns="http://www.w3.org/2000/svg" xmlns:xlink="http://www.w3.org/1999/xlink" viewBox="0 0 1080 1080"><defs><style>.aa,.ab,.ac,.ad,.ae,.af,.ag,.ah,.ai{fill:none;}.aj{mix-blend-mode:overlay;}.aj,.ak{opacity:.33;}.al{fill:#fff;}.am{clip-path:url(#v);}.an{clip-path:url(#u);}.ao{clip-path:url(#t);}.ap{clip-path:url(#y);}.aq{clip-path:url(#x);}.ar{clip-path:url(#w);}.as{clip-path:url(#c);}.at{clip-path:url(#b);}.au{clip-path:url(#f);}.av{clip-path:url(#e);}.aw{clip-path:url(#d);}.ax{clip-path:url(#j);}.ay{clip-path:url(#i);}.b`{clip-path:url(#h);}.ba{clip-path:url(#g);}.bb{clip-path:url(#s);}.bc{clip-path:url(#a`);}.ab{stroke:url(#q);}.ab,.ac,.ad,.ae{stroke-width:2px;}.ab,.ac,.ad,.ae,.af,.ag,.ah,.ai{stroke-miterlimit:10;}.ac{stroke:url(#m);}.ad{stroke:url(#o);}.ae{stroke:url(#k);}.bd{isolation:isolate;}.af{stroke:url(#l);}.af,.ag,.ah,.ai{stroke-width:1.99px;}.ag{stroke:url(#r);}.ah{stroke:url(#n);}.ai{stroke:url(#p);}</style><clipPath id="b"><rect class="aa" x="481.93" y="221.24" width="424.13" height="170.91"/></clipPath><clipPath id="c"><rect class="aa" x="561.54" y="241.65" width="322.98" height="188.09"/></clipPath><clipPath id="d"><rect class="aa" x="561.54" y="241.65" width="322.98" height="188.09"/></clipPath><clipPath id="e"><rect class="aa" x="561.61" y="241.65" width="322.9" height="188.09"/></clipPath><clipPath id="f"><rect class="aa" x="561.54" y="261.73" width="272.58" height="147.42"/></clipPath><clipPath id="g"><rect class="aa" x="586.39" y="273.64" width="197.87" height="123.61"/></clipPath><clipPath id="h"><rect class="aa" x="586.39" y="290.75" width="173.4" height="89.75"/></clipPath><clipPath id="i"><rect class="aa" x="586.39" y="300.44" width="148.81" height="73.53"/></clipPath><clipPath id="j"><rect class="aa" x="586.53" y="307.7" width="145.96" height="61.13"/></clipPath><linearGradient id="k" x1="-1960.78" y1="524.72" x2="-2282.42" y2="524.72" gradientTransform="translate(-1397.87) rotate(-180) scale(1 -1)" gradientUnits="userSpaceOnUse"><stop offset="0" stop-color="#fff" stop-opacity="0"/><stop offset="1" stop-color="#fff" stop-opacity=".5"/></linearGradient><linearGradient id="l" x1="-2132.63" y1="587.45" x2="-1953.65" y2="587.45" gradientTransform="translate(-1397.87) rotate(-180) scale(1 -1)" gradientUnits="userSpaceOnUse"><stop offset=".49" stop-color="#fff"/><stop offset=".95" stop-color="#fff" stop-opacity="0"/></linearGradient><linearGradient id="m" x1="-1960.69" y1="-1269.9" x2="-2282.33" y2="-1269.9" gradientTransform="translate(-1397.87 -423.82) rotate(-180)" xlink:href="#k"/><linearGradient id="n" x1="-2132.53" y1="-1196.41" x2="-1953.56" y2="-1196.41" gradientTransform="translate(-1397.87 -423.82) rotate(-180)" xlink:href="#l"/><linearGradient id="o" x1="2015.09" y1="183.82" x2="1693.45" y2="183.82" gradientTransform="translate(2582.89) rotate(-180) scale(1 -1)" xlink:href="#k"/><linearGradient id="p" x1="1843.24" y1="246.55" x2="2022.21" y2="246.55" gradientTransform="translate(2582.89) rotate(-180) scale(1 -1)" xlink:href="#l"/><linearGradient id="q" x1="1698.08" y1="-788.55" x2="1693.54" y2="-788.55" gradientTransform="translate(2582.89 -423.82) rotate(-180)" gradientUnits="userSpaceOnUse"><stop offset="0" stop-color="#fff" stop-opacity="0"/><stop offset="1" stop-color="#fff" stop-opacity=".5"/></linearGradient><linearGradient id="r" x1="1843.34" y1="-787.82" x2="1850.61" y2="-787.82" gradientTransform="translate(2582.89 -423.82) rotate(-180)" xlink:href="#l"/><clipPath id="s"><rect class="aa" x="568.45" y="587.82" width="322.98" height="188.09"/></clipPath><clipPath id="t"><rect class="aa" x="568.45" y="587.82" width="322.98" height="188.09"/></clipPath><clipPath id="u"><rect class="aa" x="568.52" y="587.82" width="322.9" height="188.09"/></clipPath><clipPath id="v"><rect class="aa" x="568.45" y="607.9" width="272.58" height="147.42"/></clipPath><clipPath id="w"><rect class="aa" x="593.31" y="619.8" width="197.87" height="123.61"/></clipPath><clipPath id="x"><rect class="aa" x="593.31" y="636.91" width="173.4" height="89.75"/></clipPath><clipPath id="y"><rect class="aa" x="593.31" y="646.61" width="148.81" height="73.53"/></clipPath><clipPath id="a`"><rect class="aa" x="593.44" y="653.87" width="145.96" height="61.13"/></clipPath></defs><g class="bd"><g id="a"><g class="at"><g class="as"><g class="aw"><g class="aj"><g class="av"><path class="al" d="M561.65,335.77c-.57,6.03,6.03,21.55,8.62,26.44,2.59,4.89,12.36,21.55,18.97,28.74,6.61,7.18,43.68,25,58.05,29.89,14.37,4.89,54.74,8.91,73.71,8.91s53.31-10.35,69.11-14.37c15.81-4.02,27.88-8.05,39.66-14.66,41.28-27.98,53.84-62.5,54.7-64.95h.05l-.02-.07,.02-.07h-.05c-.85-2.45-13.42-36.97-54.7-64.95-11.78-6.61-23.85-10.63-39.66-14.66-15.81-4.02-43.97-14.37-62.93-14.37s-65.52,4.02-79.89,8.91c-14.37,4.89-51.44,22.7-58.05,29.89-6.61,7.18-16.38,23.85-18.97,28.74-2.59,4.89-9.2,20.4-8.62,26.44"/></g></g><g class="ak"><g class="au"><path class="al" d="M834.1,335.44c0-.08,.01-.17,.01-.25h-.03c-.43-5.85-6.5-10.07-7.34-10.63-10.35-6.9-18.68-15.23-20.98-18.39-1.93-2.65-16.38-23.28-17.82-24.71s-4.89-5.46-16.67-6.03-27.3-7.18-27.3-7.18c0,0-20.98-6.61-30.75-6.32-42.24-.86-45.41,1.44-75.87,6.9-24.71,6.61-33.62,16.96-33.62,16.96,0,0-20.98,21.27-32.47,33.34-9.96,10.45-9.89,15.25-9.69,16.34-.2,1.1-.27,5.89,9.69,16.34,11.5,12.07,32.47,33.34,32.47,33.34,0,0,8.91,10.35,33.62,16.96,30.46,5.46,33.62,7.76,75.87,6.9,9.77,.29,30.75-6.32,30.75-6.32,0,0,15.52-6.61,27.3-7.18s15.23-4.6,16.67-6.03c1.44-1.44,15.89-22.06,17.82-24.71,2.3-3.16,10.63-11.49,20.98-18.39,.84-.56,6.9-4.79,7.34-10.63h.03c0-.08,0-.17-.01-.25"/></g></g><g class="ak"><g class="ba"><path class="al" d="M784.27,335.44h0c-.24-9.81-11.26-21.23-22.46-32.44-11.21-11.21-24.14-18.39-28.45-20.12-4.31-1.72-18.97-2.87-21.27-3.45s-14.37-3.45-24.71-5.46c-10.35-2.01-37.07,5.46-37.07,5.46,0,0-14.14,3.85-21.55,6.32-6.9,2.3-13.22,4.89-16.38,6.9-8.05,5.46-15.81,18.68-20.98,27.01-5.16,8.31-5,15.72-5,15.77,0,.05-.16,7.46,5,15.77,5.17,8.33,12.93,21.55,20.98,27.01,3.16,2.01,9.48,4.6,16.38,6.9,7.42,2.47,21.55,6.32,21.55,6.32,0,0,26.73,7.47,37.07,5.46,10.35-2.01,22.42-4.89,24.71-5.46s16.95-1.72,21.27-3.45c4.31-1.72,17.24-8.91,28.45-20.12,11.21-11.21,22.22-22.63,22.46-32.43h0"/></g></g><g class="ak"><g class="b`"><path class="al" d="M741.11,323.88c-4.6-1.72-9.48-4.89-15.66-10.69-8.2-7.98-15.09-11.72-15.09-11.72-4.02-2.3-17.53-9.48-26.15-10.35-24.14-2.01-45.98,4.6-59.49,8.91s-16.38,8.05-25.86,16.38c-11.78,10.63-12.47,19.22-12.47,19.22,0,0,.68,8.58,12.47,19.22,9.48,8.33,12.36,12.07,25.86,16.38,13.51,4.31,35.35,10.92,59.49,8.91,8.62-.86,22.13-8.05,26.15-10.35,0,0,6.9-3.74,15.09-11.72,6.17-5.81,11.06-8.97,15.66-10.69,4.6-1.72,18.68-6,18.68-11.74,0-6.32-14.08-10.02-18.68-11.74"/></g></g><g class="ak"><g class="ay"><path class="al" d="M724.45,325.46c-3-2-19.25-11.21-19.25-11.21,0,0-12.07-6.9-19.54-8.91-8.62-2.59-20.12-5.15-28.45-4.89-9.2,.29-17.53,1.44-17.53,1.44-7.18,.86-17.24,7.76-22.42,11.49-5.17,3.74-9.34,6.57-15.95,10.31-6.61,3.74-8.62,4.89-11.78,7.47-3.16,2.59-3.13,6.03-3.13,6.03,0,0-.03,3.45,3.13,6.04,3.16,2.59,4.31,3.74,10.92,7.47,6.61,3.74,11.64,6.57,16.81,10.31,5.17,3.74,15.23,10.63,22.42,11.49,0,0,8.33,1.15,17.53,1.44,8.33,.26,19.91-2.03,28.45-4.89,7.62-2.55,19.69-9.16,19.69-9.16,0,0,15.23-8.62,19.11-10.96,2.66-1.6,10.76-6.17,10.76-11.74s-8.17-10.02-10.76-11.74"/></g></g><g class="ak"><g class="ax"><path class="al" d="M685.36,316.4s-10.59-4.46-19.54-6.9c-9.48-2.59-19.25-1.72-25-1.44-5.75,.29-13.51,7.18-13.51,7.18,0,0-10.63,9.48-14.94,12.64-4.31,3.16-9.2,2.3-18.97,4.89-6.9,2.01-6.87,5.42-6.87,5.42,0,0-.03,3.41,6.87,5.42,9.77,2.59,14.66,1.72,18.97,4.89,4.31,3.16,14.8,13.11,14.8,13.11,0,0,7.47,6.61,13.22,6.9,5.75,.29,15.95,.97,25.43-1.62,8.95-2.44,19.54-6.9,19.54-6.9l47.13-21.8-47.13-21.8Z"/></g></g><path class="al" d="M697.54,317.45c-24.9-3.95-34.3-2.66-38.33-.65-24,11.93-23.13,21.12-23.13,21.12,0,0-.57,10.06,23.13,21.7,4.02,2.01,13.43,3.29,38.33-.65,10.16-1.68,32.94-11.13,35.1-21.04,0-10.06-25.15-18.82-35.1-20.47"/></g></g></g><path class="ae" d="M883.55,685.54c0-177.09-143.56-320.65-320.65-320.65"/><path class="af" d="M733.77,676.94c0-98.3-79.69-177.98-177.98-177.98"/><path class="ac" d="M883.46,685.26c0,177.09-143.56,320.65-320.65,320.65"/><path class="ah" d="M733.67,683.1c0,98.3-79.69,177.98-177.98,177.98"/><path class="ad" d="M888.44,344.64c0-177.09-143.56-320.65-320.65-320.65"/><path class="ai" d="M738.65,336.04c0-98.3-79.69-177.98-177.98-177.98"/><path class="ab" d="M888.35,344.36c0,13.76-.87,27.31-2.55,40.62"/><path class="ag" d="M738.55,342.2c0,14.95-1.84,29.47-5.31,43.34"/><g class="bb"><g class="ao"><g class="aj"><g class="an"><path class="al" d="M568.56,681.93c-.57,6.03,6.03,21.55,8.62,26.44,2.59,4.89,12.36,21.55,18.97,28.74,6.61,7.18,43.68,25,58.05,29.89,14.37,4.89,54.74,8.91,73.71,8.91s53.31-10.35,69.11-14.37c15.81-4.02,27.88-8.05,39.66-14.66,41.28-27.98,53.84-62.5,54.7-64.95h.05l-.02-.07,.02-.07h-.05c-.85-2.45-13.42-36.97-54.7-64.95-11.78-6.61-23.85-10.63-39.66-14.66-15.81-4.02-43.97-14.37-62.93-14.37s-65.52,4.02-79.89,8.91c-14.37,4.89-51.44,22.7-58.05,29.89-6.61,7.18-16.38,23.85-18.97,28.74-2.59,4.89-9.2,20.4-8.62,26.44"/></g></g><g class="ak"><g class="am"><path class="al" d="M841.01,681.61c0-.08,.01-.17,.01-.25h-.03c-.43-5.85-6.5-10.07-7.34-10.63-10.35-6.9-18.68-15.23-20.98-18.39-1.93-2.65-16.38-23.28-17.82-24.71s-4.89-5.46-16.67-6.03-27.3-7.18-27.3-7.18c0,0-20.98-6.61-30.75-6.32-42.24-.86-45.41,1.44-75.87,6.9-24.71,6.61-33.62,16.96-33.62,16.96,0,0-20.98,21.27-32.47,33.34-9.96,10.45-9.89,15.25-9.69,16.34-.2,1.1-.27,5.89,9.69,16.34,11.5,12.07,32.47,33.34,32.47,33.34,0,0,8.91,10.35,33.62,16.96,30.46,5.46,33.62,7.76,75.87,6.9,9.77,.29,30.75-6.32,30.75-6.32,0,0,15.52-6.61,27.3-7.18s15.23-4.6,16.67-6.03c1.44-1.44,15.89-22.06,17.82-24.71,2.3-3.16,10.63-11.49,20.98-18.39,.84-.56,6.9-4.79,7.34-10.63h.03c0-.08,0-.17-.01-.25"/></g></g><g class="ak"><g class="ar"><path class="al" d="M791.18,681.61h0c-.24-9.81-11.26-21.23-22.46-32.44-11.21-11.21-24.14-18.39-28.45-20.12-4.31-1.72-18.97-2.87-21.27-3.45s-14.37-3.45-24.71-5.46c-10.35-2.01-37.07,5.46-37.07,5.46,0,0-14.14,3.85-21.55,6.32-6.9,2.3-13.22,4.89-16.38,6.9-8.05,5.46-15.81,18.68-20.98,27.01-5.16,8.31-5,15.72-5,15.77,0,.05-.16,7.46,5,15.77,5.17,8.33,12.93,21.55,20.98,27.01,3.16,2.01,9.48,4.6,16.38,6.9,7.42,2.47,21.55,6.32,21.55,6.32,0,0,26.73,7.47,37.07,5.46,10.35-2.01,22.42-4.89,24.71-5.46s16.95-1.72,21.27-3.45c4.31-1.72,17.24-8.91,28.45-20.12,11.21-11.21,22.22-22.63,22.46-32.43h0"/></g></g><g class="ak"><g class="aq"><path class="al" d="M748.03,670.05c-4.6-1.72-9.48-4.89-15.66-10.69-8.2-7.98-15.09-11.72-15.09-11.72-4.02-2.3-17.53-9.48-26.15-10.35-24.14-2.01-45.98,4.6-59.49,8.91s-16.38,8.05-25.86,16.38c-11.78,10.63-12.47,19.22-12.47,19.22,0,0,.68,8.58,12.47,19.22,9.48,8.33,12.36,12.07,25.86,16.38,13.51,4.31,35.35,10.92,59.49,8.91,8.62-.86,22.13-8.05,26.15-10.35,0,0,6.9-3.74,15.09-11.72,6.17-5.81,11.06-8.97,15.66-10.69,4.6-1.72,18.68-6,18.68-11.74,0-6.32-14.08-10.02-18.68-11.74"/></g></g><g class="ak"><g class="ap"><path class="al" d="M731.36,671.63c-3-2-19.25-11.21-19.25-11.21,0,0-12.07-6.9-19.54-8.91-8.62-2.59-20.12-5.15-28.45-4.89-9.2,.29-17.53,1.44-17.53,1.44-7.18,.86-17.24,7.76-22.42,11.49-5.17,3.74-9.34,6.57-15.95,10.31-6.61,3.74-8.62,4.89-11.78,7.47-3.16,2.59-3.13,6.03-3.13,6.03,0,0-.03,3.45,3.13,6.04,3.16,2.59,4.31,3.74,10.92,7.47,6.61,3.74,11.64,6.57,16.81,10.31,5.17,3.74,15.23,10.63,22.42,11.49,0,0,8.33,1.15,17.53,1.44,8.33,.26,19.91-2.03,28.45-4.89,7.62-2.55,19.69-9.16,19.69-9.16,0,0,15.23-8.62,19.11-10.96,2.66-1.6,10.76-6.17,10.76-11.74s-8.17-10.02-10.76-11.74"/></g></g><g class="ak"><g class="bc"><path class="al" d="M692.27,662.57s-10.59-4.46-19.54-6.9c-9.48-2.59-19.25-1.72-25-1.44-5.75,.29-13.51,7.18-13.51,7.18,0,0-10.63,9.48-14.94,12.64-4.31,3.16-9.2,2.3-18.97,4.89-6.9,2.01-6.87,5.42-6.87,5.42,0,0-.03,3.41,6.87,5.42,9.77,2.59,14.66,1.72,18.97,4.89,4.31,3.16,14.8,13.11,14.8,13.11,0,0,7.47,6.61,13.22,6.9,5.75,.29,15.95,.97,25.43-1.62,8.95-2.44,19.54-6.9,19.54-6.9l47.13-21.8-47.13-21.8Z"/></g></g><path class="al" d="M704.45,663.62c-24.9-3.95-34.3-2.66-38.33-.65-24,11.93-23.13,21.12-23.13,21.12,0,0-.57,10.06,23.13,21.7,4.02,2.01,13.43,3.29,38.33-.65,10.16-1.68,32.94-11.13,35.1-21.04,0-10.06-25.15-18.82-35.1-20.47"/></g></g></g></g></svg>