<?xml version="1.0" encoding="UTF-8"?><svg xmlns="http://www.w3.org/2000/svg" xmlns:xlink="http://www.w3.org/1999/xlink" viewBox="0 0 1080 1080"><defs><style>.ac,.ad,.ae,.af,.ag,.ah,.ai,.aj,.ak{fill:none;}.al{opacity:.33;}.al,.am{mix-blend-mode:overlay;}.an{fill:#fff;}.ad{stroke:url(#ab);}.ad,.ae,.af,.ag,.ah,.ai,.aj,.ak{stroke-miterlimit:10;stroke-width:2px;}.ae{stroke:url(#aa);}.af{stroke:url(#a`);}.ao{clip-path:url(#t);}.ap{clip-path:url(#c);}.aq{clip-path:url(#b);}.ar{clip-path:url(#f);}.as{clip-path:url(#e);}.at{clip-path:url(#d);}.au{clip-path:url(#n);}.av{clip-path:url(#m);}.aw{clip-path:url(#l);}.ax{clip-path:url(#k);}.ay{clip-path:url(#j);}.b`{clip-path:url(#i);}.ba{clip-path:url(#h);}.bb{clip-path:url(#g);}.bc{clip-path:url(#s);}.bd{clip-path:url(#r);}.be{clip-path:url(#q);}.bf{clip-path:url(#p);}.bg{clip-path:url(#o);}.ag{stroke:url(#v);}.ah{stroke:url(#y);}.ai{stroke:url(#w);}.aj{stroke:url(#u);}.ak{stroke:url(#x);}.bh{isolation:isolate;}</style><clipPath id="b"><rect class="ac" x="563.29" y="225.82" width="385.46" height="165.92" transform="translate(1512.04 617.55) rotate(-180)"/></clipPath><clipPath id="c"><rect class="ac" x="573.05" y="247.45" width="359.29" height="169.46"/></clipPath><clipPath id="d"><rect class="ac" x="573.05" y="247.45" width="359.29" height="169.46"/></clipPath><clipPath id="e"><rect class="ac" x="573.05" y="247.45" width="359.29" height="169.46"/></clipPath><clipPath id="f"><rect class="ac" x="599.36" y="259.92" width="269.25" height="145.48"/></clipPath><clipPath id="g"><rect class="ac" x="599.44" y="273.3" width="220.13" height="120.07"/></clipPath><clipPath id="h"><rect class="ac" x="599.44" y="284.25" width="195.5" height="97.01"/></clipPath><clipPath id="i"><rect class="ac" x="599.43" y="291.11" width="170.33" height="83.61"/></clipPath><clipPath id="j"><rect class="ac" x="623.4" y="296.03" width="146.36" height="73.95"/></clipPath><clipPath id="k"><rect class="ac" x="623.54" y="302.52" width="121.19" height="61.58"/></clipPath><clipPath id="l"><rect class="ac" x="574.48" y="594.7" width="359.29" height="169.46"/></clipPath><clipPath id="m"><rect class="ac" x="574.48" y="594.7" width="359.29" height="169.46"/></clipPath><clipPath id="n"><rect class="ac" x="574.48" y="594.7" width="359.29" height="169.46"/></clipPath><clipPath id="o"><rect class="ac" x="600.79" y="607.16" width="269.25" height="145.48"/></clipPath><clipPath id="p"><rect class="ac" x="600.87" y="620.54" width="220.13" height="120.07"/></clipPath><clipPath id="q"><rect class="ac" x="600.87" y="631.5" width="195.5" height="97.01"/></clipPath><clipPath id="r"><rect class="ac" x="600.86" y="638.35" width="170.33" height="83.61"/></clipPath><clipPath id="s"><rect class="ac" x="624.83" y="643.27" width="146.36" height="73.95"/></clipPath><clipPath id="t"><rect class="ac" x="624.97" y="649.77" width="121.19" height="61.58"/></clipPath><linearGradient id="u" x1="-4538.95" y1="589.86" x2="-4358.65" y2="589.86" gradientTransform="translate(-3787.4) rotate(-180) scale(1 -1)" gradientUnits="userSpaceOnUse"><stop offset=".49" stop-color="#fff"/><stop offset=".95" stop-color="#fff" stop-opacity="0"/></linearGradient><linearGradient id="v" x1="-4538.85" y1="5657.54" x2="-4358.55" y2="5657.54" gradientTransform="translate(-3787.4 6433.91) rotate(-180)" xlink:href="#u"/><linearGradient id="w" x1="-4538.52" y1="243.6" x2="-4358.21" y2="243.6" xlink:href="#u"/><linearGradient id="x" x1="-4538.42" y1="6067.14" x2="-4528.4" y2="6067.14" gradientTransform="translate(-3787.4 6433.91) rotate(-180)" xlink:href="#u"/><linearGradient id="y" x1="-4930.29" y1="505.86" x2="-4575.46" y2="505.86" gradientTransform="translate(-3985.43) rotate(-180) scale(1 -1)" gradientUnits="userSpaceOnUse"><stop offset="0" stop-color="#fff" stop-opacity=".5"/><stop offset=".16" stop-color="#fff" stop-opacity=".45"/><stop offset=".45" stop-color="#fff" stop-opacity=".32"/><stop offset=".83" stop-color="#fff" stop-opacity=".1"/><stop offset="1" stop-color="#fff" stop-opacity="0"/></linearGradient><linearGradient id="a`" x1="-4930.19" y1="5573.52" x2="-4575.36" y2="5573.52" gradientTransform="translate(-3985.43 6433.91) rotate(-180)" xlink:href="#y"/><linearGradient id="aa" x1="-344.02" y1="162.18" x2="-698.85" y2="162.18" gradientTransform="translate(239.82) rotate(-180) scale(1 -1)" gradientUnits="userSpaceOnUse"><stop offset="0" stop-color="#fff" stop-opacity="0"/><stop offset="1" stop-color="#fff" stop-opacity=".5"/></linearGradient><linearGradient id="ab" x1="-692.43" y1="6066.76" x2="-698.75" y2="6066.76" gradientTransform="translate(239.82 6433.91) rotate(-180)" gradientUnits="userSpaceOnUse"><stop offset="0" stop-color="#fff" stop-opacity="0"/><stop offset="1" stop-color="#fff" stop-opacity=".5"/></linearGradient></defs><g class="bh"><g id="a"><g class="aq"><g class="ap"><g class="at"><g class="al"><g class="as"><path class="an" d="M932.34,332.03c0,17.69-32.33,47.25-57.79,64.22-25.45,16.97-71.83,20.74-88.64,20.66-62.67-.3-82.19-6.8-82.19-6.8,0,0-42.14-12.16-63.32-18.68s-25.31-17.96-25.31-17.96c-11.7-18.53-17.15-22.48-21.96-27-18.72-9.24-20.02-12.85-20.07-13.58h-.01s-1.13-4.54,20.08-15.01c4.81-4.53,10.26-8.47,21.96-27,0,0,4.13-11.44,25.31-17.96,21.17-6.51,63.32-18.68,63.32-18.68,0,0,19.52-6.51,82.19-6.8,16.81-.08,63.18,3.69,88.64,20.66,25.45,16.96,57.79,46.83,57.79,63.92"/></g></g><g class="al"><g class="ar"><path class="an" d="M709.66,401.91s-110.3-17.43-110.3-69.29c3.11-53.74,110.3-69.29,110.3-69.29,121.76-19.37,158.95,49.35,158.95,69.29s-38.89,88.95-158.95,69.29"/></g></g><g class="al"><g class="bb"><path class="an" d="M819.54,332.48c.28,9.9-27.9,70.41-122.89,59.62-88.89-10.1-96.66-54.67-97.18-58.63h-.03s0-.05,.01-.14c-.01-.09-.01-.14-.01-.14h.03c.52-3.96,8.28-48.53,97.18-58.63,94.99-10.79,124.02,51.42,122.89,57.92"/></g></g><g class="al"><g class="ba"><path class="an" d="M794.93,333.33c0,12.44-25.49,47.94-96.25,47.94-62.28,0-99.25-38.7-99.25-48.34,0,0,21.88-48.67,99.85-48.67,66.09,0,95.65,36.63,95.65,49.07"/></g></g><g class="al"><g class="b`"><path class="an" d="M695.52,374.32c-48.44,4.55-67.03-31.68-75.23-33.37-8.19-1.69-20.45-3.93-20.85-8.03h0v-.02h0c.4-4.1,12.66-6.33,20.85-8.03,8.2-1.7,26.8-37.93,75.23-33.37,57.23,5.38,74.24,31.93,74.24,41.26s-17.01,36.18-74.24,41.56"/></g></g><g class="al"><g class="ay"><path class="an" d="M769.76,332.76c0,8.2-10.12,31.35-83.01,37.19,0,0-50.63,2.26-63.35-37.05,10.89-40.73,62.22-36.77,62.22-36.77,68.44,6.51,84.14,28.42,84.14,36.63"/></g></g><g class="am"><g class="ax"><path class="an" d="M676.85,363.84c-46.95-3.11-53.31-22.32-53.31-31.08,0-8.2,14-30.4,53.3-30.23,46.68,.11,67.9,22.74,67.9,30.66s-20.93,33.77-67.88,30.66"/></g></g></g></g></g><g class="aw"><g class="av"><g class="al"><g class="au"><path class="an" d="M933.77,679.28c0,17.69-32.33,47.25-57.79,64.22-25.45,16.97-71.83,20.74-88.64,20.66-62.67-.3-82.19-6.8-82.19-6.8,0,0-42.14-12.16-63.32-18.68-21.17-6.51-25.31-17.96-25.31-17.96-11.7-18.53-17.15-22.48-21.96-27-18.72-9.24-20.02-12.85-20.07-13.58h-.01s-1.13-4.54,20.08-15.01c4.81-4.53,10.26-8.47,21.96-27,0,0,4.13-11.44,25.31-17.96,21.17-6.51,63.32-18.68,63.32-18.68,0,0,19.52-6.51,82.19-6.8,16.81-.08,63.18,3.69,88.64,20.66,25.45,16.96,57.79,46.83,57.79,63.92"/></g></g><g class="al"><g class="bg"><path class="an" d="M711.09,749.15s-110.3-17.43-110.3-69.29c3.11-53.74,110.3-69.29,110.3-69.29,121.76-19.37,158.95,49.35,158.95,69.29,0,19.94-38.89,88.95-158.95,69.29"/></g></g><g class="al"><g class="bf"><path class="an" d="M820.97,679.72c.28,9.9-27.9,70.41-122.89,59.62-88.89-10.1-96.66-54.67-97.18-58.63h-.03s0-.05,.01-.14c-.01-.09-.01-.14-.01-.14h.03c.52-3.96,8.28-48.53,97.18-58.63,94.99-10.79,124.02,51.42,122.89,57.92"/></g></g><g class="al"><g class="be"><path class="an" d="M796.37,680.57c0,12.44-25.49,47.94-96.25,47.94-62.28,0-99.25-38.7-99.25-48.34,0,0,21.88-48.67,99.85-48.67,66.09,0,95.65,36.63,95.65,49.07"/></g></g><g class="al"><g class="bd"><path class="an" d="M696.95,721.56c-48.44,4.55-67.03-31.68-75.23-33.37-8.19-1.69-20.45-3.93-20.85-8.03h0v-.02h0c.4-4.1,12.66-6.33,20.85-8.03,8.2-1.7,26.8-37.93,75.23-33.37,57.23,5.38,74.24,31.93,74.24,41.26s-17.01,36.18-74.24,41.56"/></g></g><g class="al"><g class="bc"><path class="an" d="M771.19,680c0,8.2-10.12,31.35-83.01,37.19,0,0-50.63,2.26-63.35-37.05,10.89-40.73,62.22-36.77,62.22-36.77,68.44,6.51,84.14,28.42,84.14,36.63"/></g></g><g class="am"><g class="ao"><path class="an" d="M678.28,711.08c-46.95-3.11-53.31-22.32-53.31-31.08,0-8.2,14-30.4,53.3-30.23,46.68,.11,67.9,22.74,67.9,30.66s-20.93,33.77-67.88,30.66"/></g></g></g></g><path class="aj" d="M750.56,680.01c0-99.03-80.28-179.3-179.3-179.3"/><path class="ag" d="M750.46,686.21c0,99.03-80.28,179.3-179.3,179.3"/><path class="ai" d="M750.12,333.75c0-99.03-80.28-179.3-179.3-179.3"/><path class="ak" d="M750.02,339.95c0,18.57-2.82,36.48-8.06,53.32"/><path class="ah" d="M943.86,683.28c0-195.41-158.42-353.83-353.83-353.83"/><path class="af" d="M943.76,682.97c0,195.41-158.42,353.83-353.83,353.83"/><path class="ae" d="M937.67,339.6c0-195.41-158.42-353.83-353.83-353.83"/><path class="ad" d="M937.57,339.28c0,18.91-1.48,37.47-4.34,55.57"/></g></g></svg>