<?xml version="1.0" encoding="UTF-8"?><svg xmlns="http://www.w3.org/2000/svg" xmlns:xlink="http://www.w3.org/1999/xlink" viewBox="0 0 1080 1080"><defs><style>.aa,.ab,.ac,.ad,.ae,.af,.ag{fill:none;}.ah{opacity:.33;}.ah,.ai{mix-blend-mode:overlay;}.aj{fill:#fff;}.ab{stroke:url(#a`);}.ab,.ac,.ad,.ae,.af,.ag{stroke-miterlimit:10;stroke-width:2px;}.ak{clip-path:url(#t);}.al{clip-path:url(#c);}.am{clip-path:url(#b);}.an{clip-path:url(#f);}.ao{clip-path:url(#e);}.ap{clip-path:url(#d);}.aq{clip-path:url(#n);}.ar{clip-path:url(#m);}.as{clip-path:url(#l);}.at{clip-path:url(#k);}.au{clip-path:url(#j);}.av{clip-path:url(#i);}.aw{clip-path:url(#h);}.ax{clip-path:url(#g);}.ay{clip-path:url(#s);}.b`{clip-path:url(#r);}.ba{clip-path:url(#q);}.bb{clip-path:url(#p);}.bc{clip-path:url(#o);}.ac{stroke:url(#v);}.ad{stroke:url(#y);}.ae{stroke:url(#w);}.af{stroke:url(#u);}.ag{stroke:url(#x);}.bd{isolation:isolate;}</style><clipPath id="b"><rect class="aa" x="634.75" y="640.66" width="359.29" height="169.46"/></clipPath><clipPath id="c"><rect class="aa" x="634.75" y="640.66" width="359.29" height="169.46"/></clipPath><clipPath id="d"><rect class="aa" x="634.75" y="640.66" width="359.29" height="169.46"/></clipPath><clipPath id="e"><rect class="aa" x="661.06" y="653.13" width="269.25" height="145.48"/></clipPath><clipPath id="f"><rect class="aa" x="661.14" y="666.51" width="220.13" height="120.07"/></clipPath><clipPath id="g"><rect class="aa" x="661.14" y="677.46" width="195.5" height="97.01"/></clipPath><clipPath id="h"><rect class="aa" x="661.13" y="684.31" width="170.33" height="83.61"/></clipPath><clipPath id="i"><rect class="aa" x="685.1" y="689.24" width="146.36" height="73.95"/></clipPath><clipPath id="j"><rect class="aa" x="685.24" y="695.73" width="121.19" height="61.58"/></clipPath><clipPath id="k"><rect class="aa" x="627.24" y="266.75" width="385.46" height="121.89" transform="translate(1639.93 655.39) rotate(-180)"/></clipPath><clipPath id="l"><rect class="aa" x="636.99" y="288.38" width="359.29" height="169.46"/></clipPath><clipPath id="m"><rect class="aa" x="636.99" y="288.38" width="359.29" height="169.46"/></clipPath><clipPath id="n"><rect class="aa" x="636.99" y="288.38" width="359.29" height="169.46"/></clipPath><clipPath id="o"><rect class="aa" x="663.31" y="300.85" width="269.25" height="145.48"/></clipPath><clipPath id="p"><rect class="aa" x="663.38" y="314.23" width="220.13" height="120.07"/></clipPath><clipPath id="q"><rect class="aa" x="663.38" y="325.18" width="195.5" height="97.01"/></clipPath><clipPath id="r"><rect class="aa" x="663.38" y="332.03" width="170.33" height="83.61"/></clipPath><clipPath id="s"><rect class="aa" x="687.35" y="336.96" width="146.36" height="73.95"/></clipPath><clipPath id="t"><rect class="aa" x="687.49" y="343.45" width="121.19" height="61.58"/></clipPath><linearGradient id="u" x1="837.5" y1="296.51" x2="1017.8" y2="296.51" gradientTransform="translate(1649.35) rotate(-180) scale(1 -1)" gradientUnits="userSpaceOnUse"><stop offset=".49" stop-color="#fff"/><stop offset=".95" stop-color="#fff" stop-opacity="0"/></linearGradient><linearGradient id="v" x1="839.34" y1="637.74" x2="1019.64" y2="637.74" xlink:href="#u"/><linearGradient id="w" x1="839.44" y1="5609.66" x2="1019.74" y2="5609.66" gradientTransform="translate(1649.35 6433.91) rotate(-180)" xlink:href="#u"/><linearGradient id="x" x1="-380.76" y1="214.4" x2="-25.93" y2="214.4" gradientTransform="translate(617.03) rotate(-180) scale(1 -1)" gradientUnits="userSpaceOnUse"><stop offset="0" stop-color="#fff" stop-opacity=".5"/><stop offset=".16" stop-color="#fff" stop-opacity=".45"/><stop offset=".45" stop-color="#fff" stop-opacity=".32"/><stop offset=".83" stop-color="#fff" stop-opacity=".1"/><stop offset="1" stop-color="#fff" stop-opacity="0"/></linearGradient><linearGradient id="y" x1="-378.92" y1="555.63" x2="-24.09" y2="555.63" xlink:href="#x"/><linearGradient id="a`" x1="-378.82" y1="5523.76" x2="-23.99" y2="5523.76" gradientTransform="translate(617.03 6433.91) rotate(-180)" xlink:href="#x"/></defs><g class="bd"><g id="a"><g class="am"><g class="al"><g class="ah"><g class="ap"><path class="aj" d="M994.04,725.24c0,17.69-32.33,47.25-57.79,64.22-25.45,16.97-71.83,20.74-88.64,20.66-62.67-.3-82.19-6.8-82.19-6.8,0,0-42.14-12.16-63.32-18.68-21.17-6.51-25.31-17.96-25.31-17.96-11.7-18.53-17.15-22.48-21.96-27-18.72-9.24-20.02-12.85-20.07-13.58h-.01s-1.13-4.54,20.08-15.01c4.81-4.53,10.26-8.47,21.96-27,0,0,4.13-11.44,25.31-17.96,21.17-6.51,63.32-18.68,63.32-18.68,0,0,19.52-6.51,82.19-6.8,16.81-.08,63.18,3.69,88.64,20.66,25.45,16.96,57.79,46.83,57.79,63.92"/></g></g><g class="ah"><g class="ao"><path class="aj" d="M771.36,795.12s-110.3-17.43-110.3-69.29c3.11-53.74,110.3-69.29,110.3-69.29,121.76-19.37,158.95,49.35,158.95,69.29s-38.89,88.95-158.95,69.29"/></g></g><g class="ah"><g class="an"><path class="aj" d="M881.24,725.68c.28,9.9-27.9,70.41-122.89,59.62-88.89-10.1-96.66-54.67-97.18-58.63h-.03s0-.05,.01-.14c-.01-.09-.01-.14-.01-.14h.03c.52-3.96,8.28-48.53,97.18-58.63,94.99-10.79,124.02,51.42,122.89,57.92"/></g></g><g class="ah"><g class="ax"><path class="aj" d="M856.63,726.53c0,12.44-25.49,47.94-96.25,47.94-62.28,0-99.25-38.7-99.25-48.34,0,0,21.88-48.67,99.85-48.67,66.09,0,95.65,36.63,95.65,49.07"/></g></g><g class="ah"><g class="aw"><path class="aj" d="M757.22,767.53c-48.44,4.55-67.03-31.68-75.23-33.37-8.19-1.69-20.45-3.93-20.85-8.03h0v-.02h0c.4-4.1,12.66-6.33,20.85-8.03,8.2-1.7,26.8-37.93,75.23-33.37,57.23,5.38,74.24,31.93,74.24,41.26s-17.01,36.18-74.24,41.56"/></g></g><g class="ah"><g class="av"><path class="aj" d="M831.46,725.97c0,8.2-10.12,31.35-83.01,37.19,0,0-50.63,2.26-63.35-37.05,10.89-40.73,62.22-36.77,62.22-36.77,68.44,6.51,84.14,28.42,84.14,36.63"/></g></g><g class="ai"><g class="au"><path class="aj" d="M738.55,757.05c-46.95-3.11-53.31-22.32-53.31-31.08,0-8.2,14-30.4,53.3-30.23,46.68,.11,67.9,22.74,67.9,30.66s-20.93,33.77-67.88,30.66"/></g></g></g></g><g class="at"><g class="as"><g class="ar"><g class="ah"><g class="aq"><path class="aj" d="M996.28,372.96c0,17.69-32.33,47.25-57.79,64.22-25.45,16.97-71.83,20.74-88.64,20.66-62.67-.3-82.19-6.8-82.19-6.8,0,0-42.14-12.16-63.32-18.68-21.17-6.51-25.31-17.96-25.31-17.96-11.7-18.53-17.15-22.48-21.96-27-18.72-9.24-20.02-12.85-20.07-13.58h-.01s-1.13-4.54,20.08-15.01c4.81-4.53,10.26-8.47,21.96-27,0,0,4.13-11.44,25.31-17.96,21.17-6.51,63.32-18.68,63.32-18.68,0,0,19.52-6.51,82.19-6.8,16.81-.08,63.18,3.69,88.64,20.66,25.45,16.96,57.79,46.83,57.79,63.92"/></g></g><g class="ah"><g class="bc"><path class="aj" d="M773.61,442.84s-110.3-17.43-110.3-69.29c3.11-53.74,110.3-69.29,110.3-69.29,121.76-19.37,158.95,49.35,158.95,69.29s-38.89,88.95-158.95,69.29"/></g></g><g class="ah"><g class="bb"><path class="aj" d="M883.49,373.41c.28,9.9-27.9,70.41-122.89,59.62-88.89-10.1-96.66-54.67-97.18-58.63h-.03s0-.05,.01-.14c-.01-.09-.01-.14-.01-.14h.03c.52-3.96,8.28-48.53,97.18-58.63,94.99-10.79,124.02,51.42,122.89,57.92"/></g></g><g class="ah"><g class="ba"><path class="aj" d="M858.88,374.25c0,12.44-25.49,47.94-96.25,47.94-62.28,0-99.25-38.7-99.25-48.34,0,0,21.88-48.67,99.85-48.67,66.09,0,95.65,36.63,95.65,49.07"/></g></g><g class="ah"><g class="b`"><path class="aj" d="M759.47,415.25c-48.44,4.55-67.03-31.68-75.23-33.37-8.19-1.69-20.45-3.93-20.85-8.03h0v-.02h0c.4-4.1,12.66-6.33,20.85-8.03,8.2-1.7,26.8-37.93,75.23-33.37,57.23,5.38,74.24,31.93,74.24,41.26s-17.01,36.18-74.24,41.56"/></g></g><g class="ah"><g class="ay"><path class="aj" d="M833.71,373.69c0,8.2-10.12,31.35-83.01,37.19,0,0-50.63,2.26-63.35-37.05,10.89-40.73,62.22-36.77,62.22-36.77,68.44,6.51,84.14,28.42,84.14,36.63"/></g></g><g class="ai"><g class="ak"><path class="aj" d="M740.8,404.77c-46.95-3.11-53.31-22.32-53.31-31.08,0-8.2,14-30.4,53.3-30.23,46.68,.11,67.9,22.74,67.9,30.66s-20.93,33.77-67.88,30.66"/></g></g></g></g></g><path class="af" d="M810.85,386.66c0-99.03-80.28-179.3-179.3-179.3"/><path class="aj" d="M687.72,384.6c.19-8.29,14.85-30.41,54.56-29.33,47.18,1.19,68.09,24.54,67.91,32.55,0,.3-.06,.64-.13,.99h-121.98c-.3-1.56-.39-2.99-.36-4.21Z"/><path class="ac" d="M809.01,727.89c0-99.03-80.28-179.3-179.3-179.3"/><path class="ae" d="M808.91,734.1c0,99.03-80.28,179.3-179.3,179.3"/><g><path class="ag" d="M996.79,391.82c0-195.41-158.42-353.83-353.83-353.83"/><path class="ad" d="M994.95,733.04c0-195.41-158.42-353.83-353.83-353.83"/><path class="ab" d="M994.85,732.73c0,195.41-158.42,353.83-353.83,353.83"/></g></g></g></svg>