<?xml version="1.0" encoding="UTF-8"?><svg xmlns="http://www.w3.org/2000/svg" xmlns:xlink="http://www.w3.org/1999/xlink" viewBox="0 0 1080 1080"><defs><style>.ac,.ad,.ae,.af,.ag,.ah,.ai,.aj,.ak{fill:none;}.al{opacity:.33;}.al,.am{mix-blend-mode:overlay;}.an{fill:#fff;}.ao{clip-path:url(#v);}.ap{clip-path:url(#u);}.aq{clip-path:url(#t);}.ar{clip-path:url(#y);}.as{clip-path:url(#x);}.at{clip-path:url(#w);}.au{clip-path:url(#c);}.av{clip-path:url(#b);}.aw{clip-path:url(#f);}.ax{clip-path:url(#e);}.ay{clip-path:url(#d);}.b`{clip-path:url(#k);}.ba{clip-path:url(#j);}.bb{clip-path:url(#i);}.bc{clip-path:url(#h);}.bd{clip-path:url(#g);}.be{clip-path:url(#ab);}.bf{clip-path:url(#aa);}.bg{clip-path:url(#a`);}.ad{stroke:url(#q);}.ad,.ae,.af,.ag,.ah,.ai,.aj,.ak{stroke-miterlimit:10;stroke-width:2px;}.ae{stroke:url(#r);}.af{stroke:url(#s);}.ag{stroke:url(#m);}.ah{stroke:url(#n);}.ai{stroke:url(#o);}.aj{stroke:url(#p);}.ak{stroke:url(#l);}.bh{isolation:isolate;}</style><clipPath id="b"><rect class="ac" x="130.35" y="227.2" width="385.46" height="165.92"/></clipPath><clipPath id="c"><rect class="ac" x="146.77" y="248.84" width="359.29" height="169.46"/></clipPath><clipPath id="d"><rect class="ac" x="146.77" y="248.84" width="359.29" height="169.46"/></clipPath><clipPath id="e"><rect class="ac" x="146.77" y="248.84" width="359.29" height="169.46"/></clipPath><clipPath id="f"><rect class="ac" x="210.49" y="261.3" width="269.25" height="145.48"/></clipPath><clipPath id="g"><rect class="ac" x="259.53" y="274.69" width="220.13" height="120.07"/></clipPath><clipPath id="h"><rect class="ac" x="284.17" y="285.64" width="195.5" height="97.01"/></clipPath><clipPath id="i"><rect class="ac" x="309.34" y="292.49" width="170.33" height="83.61"/></clipPath><clipPath id="j"><rect class="ac" x="309.34" y="297.41" width="146.36" height="73.95"/></clipPath><clipPath id="k"><rect class="ac" x="334.37" y="303.91" width="121.19" height="61.58"/></clipPath><linearGradient id="l" x1="142.79" y1="506.58" x2="497.62" y2="506.58" gradientTransform="matrix(1, 0, 0, 1, 0, 0)" gradientUnits="userSpaceOnUse"><stop offset="0" stop-color="#fff" stop-opacity=".5"/><stop offset=".16" stop-color="#fff" stop-opacity=".45"/><stop offset=".45" stop-color="#fff" stop-opacity=".32"/><stop offset=".83" stop-color="#fff" stop-opacity=".1"/><stop offset="1" stop-color="#fff" stop-opacity="0"/></linearGradient><linearGradient id="m" x1="330.75" y1="590.58" x2="511.06" y2="590.58" gradientTransform="matrix(1, 0, 0, 1, 0, 0)" gradientUnits="userSpaceOnUse"><stop offset=".49" stop-color="#fff"/><stop offset=".95" stop-color="#fff" stop-opacity="0"/></linearGradient><linearGradient id="n" x1="142.89" y1="8055.46" x2="497.72" y2="8055.46" gradientTransform="translate(0 8916.55) scale(1 -1)" xlink:href="#l"/><linearGradient id="o" x1="330.85" y1="8139.46" x2="511.16" y2="8139.46" gradientTransform="translate(0 8916.55) scale(1 -1)" xlink:href="#m"/><linearGradient id="p" x1="143.23" y1="160.32" x2="498.06" y2="160.32" xlink:href="#l"/><linearGradient id="q" x1="331.19" y1="244.32" x2="511.49" y2="244.32" xlink:href="#m"/><linearGradient id="r" x1="143.33" y1="8551.27" x2="149.65" y2="8551.27" gradientTransform="translate(0 8916.55) scale(1 -1)" xlink:href="#l"/><linearGradient id="s" x1="331.29" y1="8549.06" x2="341.31" y2="8549.06" gradientTransform="translate(0 8916.55) scale(1 -1)" xlink:href="#m"/><clipPath id="t"><rect class="ac" x="145.33" y="596.08" width="359.29" height="169.46"/></clipPath><clipPath id="u"><rect class="ac" x="145.33" y="596.08" width="359.29" height="169.46"/></clipPath><clipPath id="v"><rect class="ac" x="145.33" y="596.08" width="359.29" height="169.46"/></clipPath><clipPath id="w"><rect class="ac" x="209.06" y="608.55" width="269.25" height="145.48"/></clipPath><clipPath id="x"><rect class="ac" x="258.1" y="621.93" width="220.13" height="120.07"/></clipPath><clipPath id="y"><rect class="ac" x="282.74" y="632.88" width="195.5" height="97.01"/></clipPath><clipPath id="a`"><rect class="ac" x="307.91" y="639.73" width="170.33" height="83.61"/></clipPath><clipPath id="aa"><rect class="ac" x="307.91" y="644.65" width="146.36" height="73.95"/></clipPath><clipPath id="ab"><rect class="ac" x="332.94" y="651.15" width="121.19" height="61.58"/></clipPath></defs><g class="bh"><g id="a"><g class="av"><g class="au"><g class="ay"><g class="al"><g class="ax"><path class="an" d="M146.77,333.42c0,17.69,32.33,47.25,57.79,64.22,25.45,16.97,71.83,20.74,88.64,20.66,62.67-.3,82.19-6.8,82.19-6.8,0,0,42.14-12.16,63.32-18.68,21.17-6.51,25.31-17.96,25.31-17.96,11.7-18.53,17.15-22.48,21.96-27,18.72-9.24,20.02-12.85,20.07-13.58h.01s1.13-4.54-20.08-15.01c-4.81-4.53-10.26-8.47-21.96-27,0,0-4.13-11.44-25.31-17.96-21.17-6.51-63.32-18.68-63.32-18.68,0,0-19.52-6.51-82.19-6.8-16.81-.08-63.18,3.69-88.64,20.66-25.45,16.96-57.79,46.83-57.79,63.92"/></g></g><g class="al"><g class="aw"><path class="an" d="M369.44,403.29s110.3-17.43,110.3-69.29c-3.11-53.74-110.3-69.29-110.3-69.29-121.76-19.37-158.95,49.35-158.95,69.29s38.89,88.95,158.95,69.29"/></g></g><g class="al"><g class="bd"><path class="an" d="M259.56,333.86c-.28,9.9,27.9,70.41,122.89,59.62,88.89-10.1,96.66-54.67,97.18-58.63h.03s0-.05-.01-.14c.01-.09,.01-.14,.01-.14h-.03c-.52-3.96-8.28-48.53-97.18-58.63-94.99-10.79-124.02,51.42-122.89,57.92"/></g></g><g class="al"><g class="bc"><path class="an" d="M284.17,334.71c0,12.44,25.49,47.94,96.25,47.94,62.28,0,99.25-38.7,99.25-48.34,0,0-21.88-48.67-99.85-48.67-66.09,0-95.65,36.63-95.65,49.07"/></g></g><g class="al"><g class="bb"><path class="an" d="M383.58,375.71c48.44,4.55,67.03-31.68,75.23-33.37,8.19-1.69,20.45-3.93,20.85-8.03h0v-.02h0c-.4-4.1-12.66-6.33-20.85-8.03-8.2-1.7-26.8-37.93-75.23-33.37-57.23,5.38-74.24,31.93-74.24,41.26s17.01,36.18,74.24,41.56"/></g></g><g class="al"><g class="ba"><path class="an" d="M309.34,334.14c0,8.2,10.12,31.35,83.01,37.19,0,0,50.63,2.26,63.35-37.05-10.89-40.73-62.22-36.77-62.22-36.77-68.44,6.51-84.14,28.42-84.14,36.63"/></g></g><g class="am"><g class="b`"><path class="an" d="M402.25,365.23c46.95-3.11,53.31-22.32,53.31-31.08,0-8.2-14-30.4-53.3-30.23-46.68,.11-67.9,22.74-67.9,30.66s20.93,33.77,67.88,30.66"/></g></g></g></g></g><path class="ak" d="M143.79,683.99c0-195.41,158.42-353.83,353.83-353.83"/><path class="ag" d="M331.75,680.73c0-99.03,80.28-179.3,179.3-179.3"/><path class="ah" d="M143.89,683.68c0,195.41,158.42,353.83,353.83,353.83"/><path class="ai" d="M331.85,686.94c0,99.03,80.28,179.3,179.3,179.3"/><path class="aj" d="M144.23,337.73c0-195.41,158.42-353.83,353.83-353.83"/><path class="ad" d="M332.19,334.47c0-99.03,80.28-179.3,179.3-179.3"/><path class="ae" d="M144.33,337.42c0,18.91,1.48,37.47,4.34,55.57"/><path class="af" d="M332.29,340.68c0,18.57,2.82,36.48,8.06,53.32"/><g class="aq"><g class="ap"><g class="al"><g class="ao"><path class="an" d="M145.34,680.66c0,17.69,32.33,47.25,57.79,64.22,25.45,16.97,71.83,20.74,88.64,20.66,62.67-.3,82.19-6.8,82.19-6.8,0,0,42.14-12.16,63.32-18.68,21.17-6.51,25.31-17.96,25.31-17.96,11.7-18.53,17.15-22.48,21.96-27,18.72-9.24,20.02-12.85,20.07-13.58h.01s1.13-4.54-20.08-15.01c-4.81-4.53-10.26-8.47-21.96-27,0,0-4.13-11.44-25.31-17.96-21.17-6.51-63.32-18.68-63.32-18.68,0,0-19.52-6.51-82.19-6.8-16.81-.08-63.18,3.69-88.64,20.66-25.45,16.96-57.79,46.83-57.79,63.92"/></g></g><g class="al"><g class="at"><path class="an" d="M368.01,750.54s110.3-17.43,110.3-69.29c-3.11-53.74-110.3-69.29-110.3-69.29-121.76-19.37-158.95,49.35-158.95,69.29s38.89,88.95,158.95,69.29"/></g></g><g class="al"><g class="as"><path class="an" d="M258.13,681.1c-.28,9.9,27.9,70.41,122.89,59.62,88.89-10.1,96.66-54.67,97.18-58.63h.03s0-.05-.01-.14c.01-.09,.01-.14,.01-.14h-.03c-.52-3.96-8.28-48.53-97.18-58.63-94.99-10.79-124.02,51.42-122.89,57.92"/></g></g><g class="al"><g class="ar"><path class="an" d="M282.74,681.95c0,12.44,25.49,47.94,96.25,47.94,62.28,0,99.25-38.7,99.25-48.34,0,0-21.88-48.67-99.85-48.67-66.09,0-95.65,36.63-95.65,49.07"/></g></g><g class="al"><g class="bg"><path class="an" d="M382.15,722.95c48.44,4.55,67.03-31.68,75.23-33.37,8.19-1.69,20.45-3.93,20.85-8.03h0v-.02h0c-.4-4.1-12.66-6.33-20.85-8.03-8.2-1.7-26.8-37.93-75.23-33.37-57.23,5.38-74.24,31.93-74.24,41.26s17.01,36.18,74.24,41.56"/></g></g><g class="al"><g class="bf"><path class="an" d="M307.91,681.39c0,8.2,10.12,31.35,83.01,37.19,0,0,50.63,2.26,63.35-37.05-10.89-40.73-62.22-36.77-62.22-36.77-68.44,6.51-84.14,28.42-84.14,36.63"/></g></g><g class="am"><g class="be"><path class="an" d="M400.82,712.47c46.95-3.11,53.31-22.32,53.31-31.08,0-8.2-14-30.4-53.3-30.23-46.68,.11-67.9,22.74-67.9,30.66s20.93,33.77,67.88,30.66"/></g></g></g></g></g></g></svg>