<?xml version="1.0" encoding="UTF-8"?>
<svg xmlns="http://www.w3.org/2000/svg" xmlns:xlink="http://www.w3.org/1999/xlink" viewBox="0 0 1080 1080">
  <defs>
    <style>
      .cls-1 {
        fill: none;
      }

      .cls-2 {
        fill: url(#linear-gradient-3);
      }

      .cls-3 {
        fill: url(#linear-gradient-2);
      }

      .cls-4 {
        fill: url(#linear-gradient-4);
      }

      .cls-5 {
        opacity: .33;
      }

      .cls-5, .cls-6 {
        mix-blend-mode: overlay;
      }

      .cls-7 {
        fill: #fff;
      }

      .cls-8 {
        fill: url(#New_Gradient_Swatch);
      }

      .cls-9 {
        fill: url(#linear-gradient);
      }

      .cls-10 {
        clip-path: url(#clippath-18);
      }

      .cls-11 {
        clip-path: url(#clippath-16);
      }

      .cls-12 {
        clip-path: url(#clippath-10);
      }

      .cls-13 {
        clip-path: url(#clippath-15);
      }

      .cls-14 {
        clip-path: url(#clippath-17);
      }

      .cls-15 {
        clip-path: url(#clippath-11);
      }

      .cls-16 {
        clip-path: url(#clippath-13);
      }

      .cls-17 {
        clip-path: url(#clippath-14);
      }

      .cls-18 {
        clip-path: url(#clippath-12);
      }

      .cls-19 {
        clip-path: url(#clippath-3);
      }

      .cls-20 {
        clip-path: url(#clippath-1);
      }

      .cls-21 {
        clip-path: url(#clippath-4);
      }

      .cls-22 {
        clip-path: url(#clippath-2);
      }

      .cls-23 {
        clip-path: url(#clippath-9);
      }

      .cls-24 {
        clip-path: url(#clippath-8);
      }

      .cls-25 {
        clip-path: url(#clippath-7);
      }

      .cls-26 {
        clip-path: url(#clippath-6);
      }

      .cls-27 {
        clip-path: url(#clippath-5);
      }

      .cls-28 {
        fill: url(#New_Gradient_Swatch-2);
      }

      .cls-29 {
        fill: url(#New_Gradient_Swatch-3);
      }

      .cls-30 {
        fill: url(#New_Gradient_Swatch-4);
      }

      .cls-31 {
        isolation: isolate;
      }

      .cls-32 {
        clip-path: url(#clippath);
      }
    </style>
    <clipPath id="clippath">
      <rect class="cls-1" x="130.3536" y="227.20189" width="385.45632" height="165.91944"/>
    </clipPath>
    <clipPath id="clippath-1">
      <rect class="cls-1" x="146.76534" y="248.83925" width="359.28967" height="169.45971"/>
    </clipPath>
    <clipPath id="clippath-2">
      <rect class="cls-1" x="146.76534" y="248.83925" width="359.28967" height="169.45971"/>
    </clipPath>
    <clipPath id="clippath-3">
      <rect class="cls-1" x="146.76534" y="248.83925" width="359.28967" height="169.45971"/>
    </clipPath>
    <clipPath id="clippath-4">
      <rect class="cls-1" x="210.49094" y="261.30428" width="269.25067" height="145.47583"/>
    </clipPath>
    <clipPath id="clippath-5">
      <rect class="cls-1" x="259.52953" y="274.68666" width="220.1349" height="120.07487"/>
    </clipPath>
    <clipPath id="clippath-6">
      <rect class="cls-1" x="284.16719" y="285.63901" width="195.49724" height="97.00962"/>
    </clipPath>
    <clipPath id="clippath-7">
      <rect class="cls-1" x="309.33884" y="292.48968" width="170.32847" height="83.61221"/>
    </clipPath>
    <clipPath id="clippath-8">
      <rect class="cls-1" x="309.33884" y="297.41279" width="146.36246" height="73.94677"/>
    </clipPath>
    <clipPath id="clippath-9">
      <rect class="cls-1" x="334.36855" y="303.90799" width="121.19131" height="61.57777"/>
    </clipPath>
    <linearGradient id="linear-gradient" x1="140.49774" y1="551.51405" x2="495.32782" y2="551.51405" gradientTransform="matrix(1, 0, 0, 1, 0, 0)" gradientUnits="userSpaceOnUse">
      <stop offset="0" stop-color="#fff" stop-opacity=".5"/>
      <stop offset=".15646" stop-color="#fff" stop-opacity=".44956"/>
      <stop offset=".44542" stop-color="#fff" stop-opacity=".31608"/>
      <stop offset=".83206" stop-color="#fff" stop-opacity=".10168"/>
      <stop offset="1" stop-color="#fff" stop-opacity="0"/>
    </linearGradient>
    <linearGradient id="New_Gradient_Swatch" data-name="New Gradient Swatch" x1="319.43427" y1="639.63295" x2="499.73896" y2="639.63295" gradientTransform="matrix(1, 0, 0, 1, 0, 0)" gradientUnits="userSpaceOnUse">
      <stop offset=".49008" stop-color="#fff"/>
      <stop offset=".95002" stop-color="#fff" stop-opacity="0"/>
    </linearGradient>
    <linearGradient id="linear-gradient-2" x1="140.59784" y1="8022.28712" x2="495.42792" y2="8022.28712" gradientTransform="translate(0 8928.31973) scale(1 -1)" xlink:href="#linear-gradient"/>
    <linearGradient id="New_Gradient_Swatch-2" data-name="New Gradient Swatch" x1="319.53388" y1="8102.17872" x2="499.83905" y2="8102.17872" gradientTransform="translate(0 8928.31973) scale(1 -1)" xlink:href="#New_Gradient_Swatch"/>
    <linearGradient id="linear-gradient-3" x1="143.22577" y1="160.3163" x2="498.05536" y2="160.3163" xlink:href="#linear-gradient"/>
    <linearGradient id="New_Gradient_Swatch-3" data-name="New Gradient Swatch" x1="331.18915" y1="244.32118" x2="511.49384" y2="244.32118" xlink:href="#New_Gradient_Swatch"/>
    <linearGradient id="linear-gradient-4" x1="143.32538" y1="8563.03639" x2="149.65204" y2="8563.03639" gradientTransform="translate(0 8928.31973) scale(1 -1)" xlink:href="#linear-gradient"/>
    <linearGradient id="New_Gradient_Swatch-4" data-name="New Gradient Swatch" x1="331.28925" y1="8560.83424" x2="341.30536" y2="8560.83424" gradientTransform="translate(0 8928.31973) scale(1 -1)" xlink:href="#New_Gradient_Swatch"/>
    <clipPath id="clippath-10">
      <rect class="cls-1" x="143.14974" y="634.3887" width="359.28967" height="169.45971"/>
    </clipPath>
    <clipPath id="clippath-11">
      <rect class="cls-1" x="143.14974" y="634.3887" width="359.28967" height="169.45971"/>
    </clipPath>
    <clipPath id="clippath-12">
      <rect class="cls-1" x="143.14974" y="634.3887" width="359.28967" height="169.45971"/>
    </clipPath>
    <clipPath id="clippath-13">
      <rect class="cls-1" x="206.87534" y="646.85373" width="269.25067" height="145.47583"/>
    </clipPath>
    <clipPath id="clippath-14">
      <rect class="cls-1" x="255.91394" y="660.23611" width="220.1349" height="120.07487"/>
    </clipPath>
    <clipPath id="clippath-15">
      <rect class="cls-1" x="280.5516" y="671.18847" width="195.49724" height="97.00962"/>
    </clipPath>
    <clipPath id="clippath-16">
      <rect class="cls-1" x="305.72325" y="678.03914" width="170.32847" height="83.61221"/>
    </clipPath>
    <clipPath id="clippath-17">
      <rect class="cls-1" x="305.72325" y="682.96225" width="146.36246" height="73.94677"/>
    </clipPath>
    <clipPath id="clippath-18">
      <rect class="cls-1" x="330.75296" y="689.45744" width="121.19131" height="61.57777"/>
    </clipPath>
  </defs>
  <g class="cls-31">
    <g id="lights">
      <g class="cls-32">
        <g class="cls-20">
          <g class="cls-22">
            <g class="cls-5">
              <g class="cls-19">
                <path class="cls-7" d="M146.76543,333.41888c0,17.69439,32.33179,47.25005,57.78579,64.2194,25.45451,16.96985,71.82916,20.73899,88.63921,20.65959,62.67303-.29626,82.18821-6.80084,82.18821-6.80084,0,0,42.14098-12.16152,63.3157-18.6765,21.17472-6.51499,25.30912-17.9584,25.30912-17.9584,11.69601-18.53308,17.15246-22.47593,21.96029-27.00138,18.72317-9.23701,20.02138-12.85381,20.06854-13.57537h.01239s1.13099-4.54332-20.08093-15.0076c-4.80783-4.52546-10.26428-8.4683-21.96029-27.00188,0,0-4.1344-11.44292-25.30912-17.95791-21.17472-6.51499-63.3157-18.6765-63.3157-18.6765,0,0-19.51518-6.50506-82.18821-6.80084-16.81005-.0794-63.1847,3.68974-88.63921,20.65959-25.44754,16.96488-57.78579,46.82525-57.78579,63.91866"/>
              </g>
            </g>
            <g class="cls-5">
              <g class="cls-21">
                <path class="cls-7" d="M369.43928,403.29482s110.30224-17.43435,110.30224-69.29274c-3.1111-53.73675-110.30224-69.29224-110.30224-69.29224-121.75705-19.37376-158.94828,49.35323-158.94828,69.29224s38.88845,88.94937,158.94828,69.29274"/>
              </g>
            </g>
            <g class="cls-5">
              <g class="cls-27">
                <path class="cls-7" d="M259.56116,333.86091c-.28288,9.89904,27.9031,70.40635,122.89103,59.61752,88.89477-10.09705,96.66333-54.66925,97.17945-58.62747h.03276s-.00397-.04814-.01489-.14143c.01092-.0933,.01489-.14144,.01489-.14144h-.03276c-.51612-3.95822-8.28468-48.53092-97.17945-58.62747-94.98793-10.78934-124.02252,51.41522-122.89103,57.92028"/>
              </g>
            </g>
            <g class="cls-5">
              <g class="cls-26">
                <path class="cls-7" d="M284.16706,334.70937c0,12.44439,25.48578,47.93887,96.24746,47.93887,62.27701,0,99.24988-38.70434,99.24988-48.34184,0,0-21.8809-48.66739-99.85086-48.66739-66.09132,0-95.64648,36.62597-95.64648,49.07036"/>
              </g>
            </g>
            <g class="cls-5">
              <g class="cls-25">
                <path class="cls-7" d="M383.58059,375.70667c48.43613,4.55225,67.02975-31.67671,75.23205-33.37345,8.18741-1.69426,20.45364-3.92696,20.85165-8.02661h.00298l-.00149-.01092,.00149-.01043h-.00298c-.39801-4.10015-12.66424-6.33286-20.85165-8.02662-8.2023-1.69723-26.79592-37.9262-75.23205-33.37345-57.23395,5.37904-74.24201,31.92534-74.24201,41.25863s17.00806,36.1833,74.24201,41.56283"/>
              </g>
            </g>
            <g class="cls-5">
              <g class="cls-24">
                <path class="cls-7" d="M309.33864,334.14373c0,8.2018,10.11789,31.34917,83.00955,37.19172,0,0,50.62616,2.26248,63.35341-37.05028-10.88909-40.72712-62.22193-36.76741-62.22193-36.76741-68.44412,6.50507-84.14104,28.42417-84.14104,36.62598"/>
              </g>
            </g>
            <g class="cls-6">
              <g class="cls-23">
                <path class="cls-7" d="M402.24717,365.2272c46.94932-3.11109,53.31294-22.31562,53.31294-31.08366,0-8.2018-14.00018-30.40379-53.29607-30.23456-46.68332,.11364-67.89524,22.73993-67.89524,30.65886,0,7.91942,20.92906,33.77045,67.87837,30.65936"/>
              </g>
            </g>
          </g>
        </g>
      </g>
      <path class="cls-9" d="M142.49774,728.92909h-2c0-47.90137,9.38184-94.37012,27.88477-138.11621,17.87158-42.25293,43.45605-80.19971,76.04248-112.78613s70.53369-58.17139,112.78662-76.04297c43.74609-18.50293,90.21484-27.88477,138.11621-27.88477v2c-94.24414,0-182.84766,36.70068-249.48877,103.3418s-103.34131,155.24414-103.34131,249.48828Z"/>
      <path class="cls-8" d="M321.43427,729.78554h-2c0-99.42041,80.88428-180.30518,180.30469-180.30518v2c-98.31738,0-178.30469,79.9873-178.30469,178.30518Z"/>
      <path class="cls-3" d="M495.42792,1083.44765c-47.90137,0-94.37012-9.38184-138.11621-27.88477-42.25293-17.87158-80.19971-43.45605-112.78662-76.04248-32.58643-32.58691-58.1709-70.53369-76.04248-112.78662-18.50293-43.74609-27.88477-90.21484-27.88477-138.11621h2c0,94.24414,36.70068,182.84766,103.34131,249.48877,66.64111,66.64062,155.24463,103.34131,249.48877,103.34131v2Z"/>
      <path class="cls-28" d="M499.83905,916.29335c-99.42041,0-180.30518-80.88428-180.30518-180.30469h2c0,98.31738,79.9873,178.30469,178.30518,178.30469v2Z"/>
      <path class="cls-7" d="M456.18697,333.89687c0-8.2915-14.15259-30.73535-53.87744-30.56494-47.19238,.11523-68.63574,22.98828-68.63574,30.99365,0,8.00586,21.15747,34.13916,68.6189,30.99414,47.46143-3.14551,53.89429-22.55957,53.89429-31.42285Z"/>
      <path class="cls-2" d="M145.22577,337.73134h-2c0-47.90137,9.38184-94.37012,27.88477-138.11621,17.87158-42.25293,43.45605-80.19971,76.04248-112.78662,32.58643-32.58643,70.5332-58.1709,112.78662-76.04248,43.74561-18.50293,90.21436-27.88477,138.11572-27.88477v2c-94.24414,0-182.84717,36.70068-249.48828,103.34131-66.64062,66.64111-103.34131,155.24463-103.34131,249.48877Z"/>
      <path class="cls-29" d="M333.18915,334.47353h-2c0-99.42041,80.88428-180.30469,180.30469-180.30469v2c-98.31738,0-178.30469,79.9873-178.30469,178.30469Z"/>
      <path class="cls-4" d="M147.67646,393.14735c-2.88721-18.30225-4.35107-37.05176-4.35107-55.72803h2c0,18.57227,1.45557,37.2168,4.32666,55.4165l-1.97559,.31152Z"/>
      <path class="cls-30" d="M339.39521,394.29384c-5.37842-17.29395-8.10596-35.3335-8.10596-53.6167h2c0,18.08154,2.69678,35.92139,8.01611,53.02295l-1.91016,.59375Z"/>
      <g class="cls-12">
        <g class="cls-15">
          <g class="cls-5">
            <g class="cls-18">
              <path class="cls-7" d="M143.14983,718.96834c0,17.69439,32.33179,47.25005,57.78579,64.2194,25.45451,16.96985,71.82916,20.73899,88.63921,20.65959,62.67303-.29626,82.18821-6.80084,82.18821-6.80084,0,0,42.14098-12.16152,63.3157-18.6765,21.17472-6.51499,25.30912-17.9584,25.30912-17.9584,11.69601-18.53308,17.15246-22.47593,21.96029-27.00138,18.72317-9.23701,20.02138-12.85381,20.06854-13.57537h.01239s1.13099-4.54332-20.08093-15.0076c-4.80783-4.52546-10.26428-8.4683-21.96029-27.00188,0,0-4.1344-11.44292-25.30912-17.95791-21.17472-6.51499-63.3157-18.6765-63.3157-18.6765,0,0-19.51518-6.50506-82.18821-6.80084-16.81005-.0794-63.1847,3.68974-88.63921,20.65959-25.44754,16.96488-57.78579,46.82525-57.78579,63.91866"/>
            </g>
          </g>
          <g class="cls-5">
            <g class="cls-16">
              <path class="cls-7" d="M365.82368,788.84428s110.30224-17.43435,110.30224-69.29274c-3.1111-53.73675-110.30224-69.29224-110.30224-69.29224-121.75705-19.37376-158.94828,49.35323-158.94828,69.29224s38.88845,88.94937,158.94828,69.29274"/>
            </g>
          </g>
          <g class="cls-5">
            <g class="cls-17">
              <path class="cls-7" d="M255.94556,719.41036c-.28288,9.89904,27.9031,70.40635,122.89103,59.61752,88.89477-10.09705,96.66333-54.66925,97.17945-58.62747h.03276s-.00397-.04814-.01489-.14143c.01092-.0933,.01489-.14144,.01489-.14144h-.03276c-.51612-3.95822-8.28468-48.53092-97.17945-58.62747-94.98793-10.78934-124.02252,51.41522-122.89103,57.92028"/>
            </g>
          </g>
          <g class="cls-5">
            <g class="cls-13">
              <path class="cls-7" d="M280.55146,720.25883c0,12.44439,25.48578,47.93887,96.24746,47.93887,62.27701,0,99.24988-38.70434,99.24988-48.34184,0,0-21.8809-48.66739-99.85086-48.66739-66.09132,0-95.64648,36.62597-95.64648,49.07036"/>
            </g>
          </g>
          <g class="cls-5">
            <g class="cls-11">
              <path class="cls-7" d="M379.965,761.25612c48.43613,4.55225,67.02975-31.67671,75.23205-33.37345,8.18741-1.69426,20.45364-3.92696,20.85165-8.02661h.00298l-.00149-.01092,.00149-.01043h-.00298c-.39801-4.10015-12.66424-6.33286-20.85165-8.02662-8.2023-1.69723-26.79592-37.9262-75.23205-33.37345-57.23395,5.37904-74.24201,31.92534-74.24201,41.25863s17.00806,36.1833,74.24201,41.56283"/>
            </g>
          </g>
          <g class="cls-5">
            <g class="cls-14">
              <path class="cls-7" d="M305.72305,719.69318c0,8.2018,10.11789,31.34917,83.00955,37.19172,0,0,50.62616,2.26248,63.35341-37.05028-10.88909-40.72712-62.22193-36.76741-62.22193-36.76741-68.44412,6.50507-84.14104,28.42417-84.14104,36.62598"/>
            </g>
          </g>
          <g class="cls-6">
            <g class="cls-10">
              <path class="cls-7" d="M398.63157,750.77665c46.94932-3.11109,53.31294-22.31562,53.31294-31.08366,0-8.2018-14.00018-30.40379-53.29607-30.23456-46.68332,.11364-67.89524,22.73993-67.89524,30.65886,0,7.91942,20.92906,33.77045,67.87837,30.65936"/>
            </g>
          </g>
        </g>
      </g>
    </g>
  </g>
</svg>