<?xml version="1.0" encoding="UTF-8"?><svg xmlns="http://www.w3.org/2000/svg" xmlns:xlink="http://www.w3.org/1999/xlink" viewBox="0 0 1080 1080"><defs><style>.aa,.ab,.ac,.ad,.ae,.af,.ag{fill:none;}.ah{opacity:.33;}.ah,.ai{mix-blend-mode:overlay;}.aj{fill:#fff;}.ab{stroke:url(#a`);}.ab,.ac,.ad,.ae,.af,.ag{stroke-miterlimit:10;stroke-width:2px;}.ak{clip-path:url(#v);}.al{clip-path:url(#u);}.am{clip-path:url(#t);}.an{clip-path:url(#w);}.ao{clip-path:url(#f);}.ap{clip-path:url(#e);}.aq{clip-path:url(#n);}.ar{clip-path:url(#m);}.as{clip-path:url(#l);}.at{clip-path:url(#k);}.au{clip-path:url(#j);}.av{clip-path:url(#i);}.aw{clip-path:url(#h);}.ax{clip-path:url(#g);}.ay{clip-path:url(#s);}.b`{clip-path:url(#r);}.ba{clip-path:url(#q);}.bb{clip-path:url(#p);}.bc{clip-path:url(#o);}.ac{stroke:url(#b);}.ad{stroke:url(#c);}.ae{stroke:url(#y);}.af{stroke:url(#d);}.ag{stroke:url(#x);}.bd{isolation:isolate;}</style><linearGradient id="b" x1="-3190.77" y1="296.14" x2="-3010.46" y2="296.14" gradientTransform="translate(-2378.54) rotate(-180) scale(1 -1)" gradientUnits="userSpaceOnUse"><stop offset=".49" stop-color="#fff"/><stop offset=".95" stop-color="#fff" stop-opacity="0"/></linearGradient><linearGradient id="c" x1="-3188.93" y1="586.43" x2="-3008.62" y2="586.43" xlink:href="#b"/><linearGradient id="d" x1="-3188.83" y1="5660.97" x2="-3008.52" y2="5660.97" gradientTransform="translate(-2378.54 6433.91) rotate(-180)" xlink:href="#b"/><clipPath id="e"><rect class="aa" x="634.75" y="582.94" width="359.29" height="169.46"/></clipPath><clipPath id="f"><rect class="aa" x="634.75" y="582.94" width="359.29" height="169.46"/></clipPath><clipPath id="g"><rect class="aa" x="634.75" y="582.94" width="359.29" height="169.46"/></clipPath><clipPath id="h"><rect class="aa" x="661.06" y="595.4" width="269.25" height="145.48"/></clipPath><clipPath id="i"><rect class="aa" x="661.14" y="608.78" width="220.13" height="120.07"/></clipPath><clipPath id="j"><rect class="aa" x="661.14" y="619.73" width="195.5" height="97.01"/></clipPath><clipPath id="k"><rect class="aa" x="661.13" y="626.59" width="170.33" height="83.61"/></clipPath><clipPath id="l"><rect class="aa" x="685.1" y="631.51" width="146.36" height="73.95"/></clipPath><clipPath id="m"><rect class="aa" x="685.24" y="638" width="121.19" height="61.58"/></clipPath><clipPath id="n"><rect class="aa" x="627.24" y="266.75" width="385.46" height="121.89" transform="translate(1639.93 655.39) rotate(-180)"/></clipPath><clipPath id="o"><rect class="aa" x="636.99" y="288.38" width="359.29" height="169.46"/></clipPath><clipPath id="p"><rect class="aa" x="636.99" y="288.38" width="359.29" height="169.46"/></clipPath><clipPath id="q"><rect class="aa" x="636.99" y="288.38" width="359.29" height="169.46"/></clipPath><clipPath id="r"><rect class="aa" x="663.31" y="300.85" width="269.25" height="145.48"/></clipPath><clipPath id="s"><rect class="aa" x="663.38" y="314.23" width="220.13" height="120.07"/></clipPath><clipPath id="t"><rect class="aa" x="663.38" y="325.18" width="195.5" height="97.01"/></clipPath><clipPath id="u"><rect class="aa" x="663.38" y="332.03" width="170.33" height="83.61"/></clipPath><clipPath id="v"><rect class="aa" x="687.35" y="336.96" width="146.36" height="73.95"/></clipPath><clipPath id="w"><rect class="aa" x="687.49" y="343.45" width="121.19" height="61.58"/></clipPath><linearGradient id="x" x1="-2679.22" y1="214.4" x2="-2324.39" y2="214.4" gradientTransform="translate(-1681.43) rotate(-180) scale(1 -1)" gradientUnits="userSpaceOnUse"><stop offset="0" stop-color="#fff" stop-opacity=".5"/><stop offset=".16" stop-color="#fff" stop-opacity=".45"/><stop offset=".45" stop-color="#fff" stop-opacity=".32"/><stop offset=".83" stop-color="#fff" stop-opacity=".1"/><stop offset="1" stop-color="#fff" stop-opacity="0"/></linearGradient><linearGradient id="y" x1="-2677.38" y1="493.84" x2="-2322.55" y2="493.84" xlink:href="#x"/><linearGradient id="a`" x1="-2677.28" y1="5585.54" x2="-2322.45" y2="5585.54" gradientTransform="translate(-1681.43 6433.91) rotate(-180)" xlink:href="#x"/></defs><g class="bd"><g id="a"><path class="ac" d="M811.23,386.29c0-99.03-80.28-179.3-179.3-179.3"/><path class="ad" d="M809.39,676.58c0-99.03-80.28-179.3-179.3-179.3"/><path class="af" d="M809.29,682.79c0,99.03-80.28,179.3-179.3,179.3"/><g class="ap"><g class="ao"><g class="ah"><g class="ax"><path class="aj" d="M994.04,667.51c0,17.69-32.33,47.25-57.79,64.22-25.45,16.97-71.83,20.74-88.64,20.66-62.67-.3-82.19-6.8-82.19-6.8,0,0-42.14-12.16-63.32-18.68-21.17-6.51-25.31-17.96-25.31-17.96-11.7-18.53-17.15-22.48-21.96-27-18.72-9.24-20.02-12.85-20.07-13.58h-.01s-1.13-4.54,20.08-15.01c4.81-4.53,10.26-8.47,21.96-27,0,0,4.13-11.44,25.31-17.96,21.17-6.51,63.32-18.68,63.32-18.68,0,0,19.52-6.51,82.19-6.8,16.81-.08,63.18,3.69,88.64,20.66,25.45,16.96,57.79,46.83,57.79,63.92"/></g></g><g class="ah"><g class="aw"><path class="aj" d="M771.36,737.39s-110.3-17.43-110.3-69.29c3.11-53.74,110.3-69.29,110.3-69.29,121.76-19.37,158.95,49.35,158.95,69.29s-38.89,88.95-158.95,69.29"/></g></g><g class="ah"><g class="av"><path class="aj" d="M881.24,667.96c.28,9.9-27.9,70.41-122.89,59.62-88.89-10.1-96.66-54.67-97.18-58.63h-.03s0-.05,.01-.14c-.01-.09-.01-.14-.01-.14h.03c.52-3.96,8.28-48.53,97.18-58.63,94.99-10.79,124.02,51.42,122.89,57.92"/></g></g><g class="ah"><g class="au"><path class="aj" d="M856.63,668.81c0,12.44-25.49,47.94-96.25,47.94-62.28,0-99.25-38.7-99.25-48.34,0,0,21.88-48.67,99.85-48.67,66.09,0,95.65,36.63,95.65,49.07"/></g></g><g class="ah"><g class="at"><path class="aj" d="M757.22,709.8c-48.44,4.55-67.03-31.68-75.23-33.37-8.19-1.69-20.45-3.93-20.85-8.03h0v-.02h0c.4-4.1,12.66-6.33,20.85-8.03,8.2-1.7,26.8-37.93,75.23-33.37,57.23,5.38,74.24,31.93,74.24,41.26,0,9.33-17.01,36.18-74.24,41.56"/></g></g><g class="ah"><g class="as"><path class="aj" d="M831.46,668.24c0,8.2-10.12,31.35-83.01,37.19,0,0-50.63,2.26-63.35-37.05,10.89-40.73,62.22-36.77,62.22-36.77,68.44,6.51,84.14,28.42,84.14,36.63"/></g></g><g class="ai"><g class="ar"><path class="aj" d="M738.55,699.32c-46.95-3.11-53.31-22.32-53.31-31.08,0-8.2,14-30.4,53.3-30.23,46.68,.11,67.9,22.74,67.9,30.66,0,7.92-20.93,33.77-67.88,30.66"/></g></g></g></g><g class="aq"><g class="bc"><g class="bb"><g class="ah"><g class="ba"><path class="aj" d="M996.28,372.96c0,17.69-32.33,47.25-57.79,64.22-25.45,16.97-71.83,20.74-88.64,20.66-62.67-.3-82.19-6.8-82.19-6.8,0,0-42.14-12.16-63.32-18.68-21.17-6.51-25.31-17.96-25.31-17.96-11.7-18.53-17.15-22.48-21.96-27-18.72-9.24-20.02-12.85-20.07-13.58h-.01s-1.13-4.54,20.08-15.01c4.81-4.53,10.26-8.47,21.96-27,0,0,4.13-11.44,25.31-17.96,21.17-6.51,63.32-18.68,63.32-18.68,0,0,19.52-6.51,82.19-6.8,16.81-.08,63.18,3.69,88.64,20.66,25.45,16.96,57.79,46.83,57.79,63.92"/></g></g><g class="ah"><g class="b`"><path class="aj" d="M773.61,442.84s-110.3-17.43-110.3-69.29c3.11-53.74,110.3-69.29,110.3-69.29,121.76-19.37,158.95,49.35,158.95,69.29,0,19.94-38.89,88.95-158.95,69.29"/></g></g><g class="ah"><g class="ay"><path class="aj" d="M883.49,373.41c.28,9.9-27.9,70.41-122.89,59.62-88.89-10.1-96.66-54.67-97.18-58.63h-.03s0-.05,.01-.14c-.01-.09-.01-.14-.01-.14h.03c.52-3.96,8.28-48.53,97.18-58.63,94.99-10.79,124.02,51.42,122.89,57.92"/></g></g><g class="ah"><g class="am"><path class="aj" d="M858.88,374.25c0,12.44-25.49,47.94-96.25,47.94-62.28,0-99.25-38.7-99.25-48.34,0,0,21.88-48.67,99.85-48.67,66.09,0,95.65,36.63,95.65,49.07"/></g></g><g class="ah"><g class="al"><path class="aj" d="M759.47,415.25c-48.44,4.55-67.03-31.68-75.23-33.37-8.19-1.69-20.45-3.93-20.85-8.03h0v-.02h0c.4-4.1,12.66-6.33,20.85-8.03,8.2-1.7,26.8-37.93,75.23-33.37,57.23,5.38,74.24,31.93,74.24,41.26s-17.01,36.18-74.24,41.56"/></g></g><g class="ah"><g class="ak"><path class="aj" d="M833.71,373.69c0,8.2-10.12,31.35-83.01,37.19,0,0-50.63,2.26-63.35-37.05,10.89-40.73,62.22-36.77,62.22-36.77,68.44,6.51,84.14,28.42,84.14,36.63"/></g></g><g class="ai"><g class="an"><path class="aj" d="M740.8,404.77c-46.95-3.11-53.31-22.32-53.31-31.08,0-8.2,14-30.4,53.3-30.23,46.68,.11,67.9,22.74,67.9,30.66,0,7.92-20.93,33.77-67.88,30.66"/></g></g></g></g></g><path class="ag" d="M996.79,391.82c0-195.41-158.42-353.83-353.83-353.83"/><path class="ae" d="M994.95,671.26c0-195.41-158.42-353.83-353.83-353.83"/><path class="ab" d="M994.85,670.95c0,195.41-158.42,353.83-353.83,353.83"/></g></g></svg>