<?xml version="1.0" encoding="UTF-8"?>
<svg xmlns="http://www.w3.org/2000/svg" xmlns:xlink="http://www.w3.org/1999/xlink" viewBox="0 0 1080 1080">
  <defs>
    <style>
      .cls-1 {
        fill: none;
      }

      .cls-2 {
        fill: url(#linear-gradient-3);
      }

      .cls-3 {
        fill: url(#linear-gradient-2);
      }

      .cls-4 {
        opacity: .33;
      }

      .cls-4, .cls-5 {
        mix-blend-mode: overlay;
      }

      .cls-6 {
        fill: #fff;
      }

      .cls-7 {
        fill: url(#New_Gradient_Swatch);
      }

      .cls-8 {
        fill: url(#linear-gradient);
      }

      .cls-9 {
        clip-path: url(#clippath-18);
      }

      .cls-10 {
        clip-path: url(#clippath-16);
      }

      .cls-11 {
        clip-path: url(#clippath-10);
      }

      .cls-12 {
        clip-path: url(#clippath-15);
      }

      .cls-13 {
        clip-path: url(#clippath-17);
      }

      .cls-14 {
        clip-path: url(#clippath-11);
      }

      .cls-15 {
        clip-path: url(#clippath-13);
      }

      .cls-16 {
        clip-path: url(#clippath-14);
      }

      .cls-17 {
        clip-path: url(#clippath-12);
      }

      .cls-18 {
        clip-path: url(#clippath-3);
      }

      .cls-19 {
        clip-path: url(#clippath-1);
      }

      .cls-20 {
        clip-path: url(#clippath-4);
      }

      .cls-21 {
        clip-path: url(#clippath-2);
      }

      .cls-22 {
        clip-path: url(#clippath-9);
      }

      .cls-23 {
        clip-path: url(#clippath-8);
      }

      .cls-24 {
        clip-path: url(#clippath-7);
      }

      .cls-25 {
        clip-path: url(#clippath-6);
      }

      .cls-26 {
        clip-path: url(#clippath-5);
      }

      .cls-27 {
        fill: url(#New_Gradient_Swatch-2);
      }

      .cls-28 {
        fill: url(#New_Gradient_Swatch-3);
      }

      .cls-29 {
        isolation: isolate;
      }

      .cls-30 {
        clip-path: url(#clippath);
      }
    </style>
    <clipPath id="clippath">
      <rect class="cls-1" x="634.74577" y="640.66331" width="359.28967" height="169.45971"/>
    </clipPath>
    <clipPath id="clippath-1">
      <rect class="cls-1" x="634.74577" y="640.66331" width="359.28967" height="169.45971"/>
    </clipPath>
    <clipPath id="clippath-2">
      <rect class="cls-1" x="634.74577" y="640.66331" width="359.28967" height="169.45971"/>
    </clipPath>
    <clipPath id="clippath-3">
      <rect class="cls-1" x="661.05917" y="653.12834" width="269.25067" height="145.47583"/>
    </clipPath>
    <clipPath id="clippath-4">
      <rect class="cls-1" x="661.13634" y="666.51071" width="220.1349" height="120.07487"/>
    </clipPath>
    <clipPath id="clippath-5">
      <rect class="cls-1" x="661.13634" y="677.46307" width="195.49724" height="97.00962"/>
    </clipPath>
    <clipPath id="clippath-6">
      <rect class="cls-1" x="661.13346" y="684.31374" width="170.32847" height="83.61221"/>
    </clipPath>
    <clipPath id="clippath-7">
      <rect class="cls-1" x="685.09947" y="689.23685" width="146.36246" height="73.94677"/>
    </clipPath>
    <clipPath id="clippath-8">
      <rect class="cls-1" x="685.24091" y="695.73204" width="121.19131" height="61.57777"/>
    </clipPath>
    <clipPath id="clippath-9">
      <rect class="cls-1" x="627.2392" y="266.74674" width="385.45632" height="121.893" transform="translate(1639.93473 655.38648) rotate(-180)"/>
    </clipPath>
    <clipPath id="clippath-10">
      <rect class="cls-1" x="636.99412" y="288.3841" width="359.28967" height="169.45971"/>
    </clipPath>
    <clipPath id="clippath-11">
      <rect class="cls-1" x="636.99412" y="288.3841" width="359.28967" height="169.45971"/>
    </clipPath>
    <clipPath id="clippath-12">
      <rect class="cls-1" x="636.99412" y="288.3841" width="359.28967" height="169.45971"/>
    </clipPath>
    <clipPath id="clippath-13">
      <rect class="cls-1" x="663.30752" y="300.84913" width="269.25067" height="145.47583"/>
    </clipPath>
    <clipPath id="clippath-14">
      <rect class="cls-1" x="663.38469" y="314.2315" width="220.1349" height="120.07487"/>
    </clipPath>
    <clipPath id="clippath-15">
      <rect class="cls-1" x="663.38469" y="325.18386" width="195.49724" height="97.00962"/>
    </clipPath>
    <clipPath id="clippath-16">
      <rect class="cls-1" x="663.38181" y="332.03453" width="170.32847" height="83.61221"/>
    </clipPath>
    <clipPath id="clippath-17">
      <rect class="cls-1" x="687.34782" y="336.95764" width="146.36246" height="73.94677"/>
    </clipPath>
    <clipPath id="clippath-18">
      <rect class="cls-1" x="687.48926" y="343.45283" width="121.19131" height="61.57777"/>
    </clipPath>
    <linearGradient id="New_Gradient_Swatch" data-name="New Gradient Swatch" x1="837.49684" y1="296.51272" x2="1017.80178" y2="296.51272" gradientTransform="translate(1649.35008) rotate(-180) scale(1 -1)" gradientUnits="userSpaceOnUse">
      <stop offset=".49008" stop-color="#fff"/>
      <stop offset=".95002" stop-color="#fff" stop-opacity="0"/>
    </linearGradient>
    <linearGradient id="New_Gradient_Swatch-2" data-name="New Gradient Swatch" x1="839.33718" y1="637.73952" x2="1019.64211" y2="637.73952" xlink:href="#New_Gradient_Swatch"/>
    <linearGradient id="New_Gradient_Swatch-3" data-name="New Gradient Swatch" x1="839.43727" y1="5609.6581" x2="1019.74196" y2="5609.6581" gradientTransform="translate(1649.35008 6433.90543) rotate(-180)" xlink:href="#New_Gradient_Swatch"/>
    <linearGradient id="linear-gradient" x1="-380.76044" y1="214.4009" x2="-25.93036" y2="214.4009" gradientTransform="translate(617.03054) rotate(-180) scale(1 -1)" gradientUnits="userSpaceOnUse">
      <stop offset="0" stop-color="#fff" stop-opacity=".5"/>
      <stop offset=".15646" stop-color="#fff" stop-opacity=".44956"/>
      <stop offset=".44542" stop-color="#fff" stop-opacity=".31608"/>
      <stop offset=".83206" stop-color="#fff" stop-opacity=".10168"/>
      <stop offset="1" stop-color="#fff" stop-opacity="0"/>
    </linearGradient>
    <linearGradient id="linear-gradient-2" x1="-378.9201" y1="555.62819" x2="-24.09003" y2="555.62819" xlink:href="#linear-gradient"/>
    <linearGradient id="linear-gradient-3" x1="-378.82001" y1="5523.75966" x2="-23.98993" y2="5523.75966" gradientTransform="translate(617.03054 6433.90543) rotate(-180)" xlink:href="#linear-gradient"/>
  </defs>
  <g class="cls-29">
    <g id="lights">
      <g class="cls-30">
        <g class="cls-19">
          <g class="cls-4">
            <g class="cls-21">
              <path class="cls-6" d="M994.03535,725.24294c0,17.69439-32.33179,47.25005-57.78579,64.2194-25.45451,16.96985-71.82916,20.73899-88.63921,20.65959-62.67303-.29626-82.18821-6.80084-82.18821-6.80084,0,0-42.14098-12.16152-63.3157-18.6765-21.17472-6.51499-25.30912-17.9584-25.30912-17.9584-11.69601-18.53308-17.15246-22.47593-21.96029-27.00138-18.72317-9.23701-20.02138-12.85381-20.06854-13.57537h-.01239s-1.13099-4.54332,20.08093-15.0076c4.80783-4.52546,10.26428-8.4683,21.96029-27.00188,0,0,4.1344-11.44292,25.30912-17.95791,21.17472-6.51499,63.3157-18.6765,63.3157-18.6765,0,0,19.51518-6.50506,82.18821-6.80084,16.81005-.0794,63.1847,3.68974,88.63921,20.65959,25.44754,16.96488,57.78579,46.82525,57.78579,63.91866"/>
            </g>
          </g>
          <g class="cls-4">
            <g class="cls-18">
              <path class="cls-6" d="M771.3615,795.11888s-110.30224-17.43435-110.30224-69.29274c3.1111-53.73675,110.30224-69.29224,110.30224-69.29224,121.75705-19.37376,158.94828,49.35323,158.94828,69.29224,0,19.9395-38.88845,88.94937-158.94828,69.29274"/>
            </g>
          </g>
          <g class="cls-4">
            <g class="cls-20">
              <path class="cls-6" d="M881.23962,725.68496c.28288,9.89904-27.9031,70.40635-122.89103,59.61752-88.89477-10.09705-96.66333-54.66925-97.17945-58.62747h-.03276s.00397-.04814,.01489-.14143c-.01092-.0933-.01489-.14144-.01489-.14144h.03276c.51612-3.95822,8.28468-48.53092,97.17945-58.62747,94.98793-10.78934,124.02252,51.41522,122.89103,57.92028"/>
            </g>
          </g>
          <g class="cls-4">
            <g class="cls-26">
              <path class="cls-6" d="M856.63372,726.53343c0,12.44439-25.48578,47.93887-96.24746,47.93887-62.27701,0-99.24988-38.70434-99.24988-48.34184,0,0,21.8809-48.66739,99.85086-48.66739,66.09132,0,95.64648,36.62597,95.64648,49.07036"/>
            </g>
          </g>
          <g class="cls-4">
            <g class="cls-25">
              <path class="cls-6" d="M757.22019,767.53072c-48.43613,4.55225-67.02975-31.67671-75.23205-33.37345-8.18741-1.69426-20.45364-3.92696-20.85165-8.02661h-.00298l.00149-.01092-.00149-.01043h.00298c.39801-4.10015,12.66424-6.33286,20.85165-8.02662,8.2023-1.69723,26.79592-37.9262,75.23205-33.37345,57.23395,5.37904,74.24201,31.92534,74.24201,41.25863,0,9.33328-17.00806,36.1833-74.24201,41.56283"/>
            </g>
          </g>
          <g class="cls-4">
            <g class="cls-24">
              <path class="cls-6" d="M831.46213,725.96779c0,8.2018-10.11789,31.34917-83.00955,37.19172,0,0-50.62616,2.26248-63.35341-37.05028,10.88909-40.72712,62.22193-36.76741,62.22193-36.76741,68.44412,6.50507,84.14104,28.42417,84.14104,36.62598"/>
            </g>
          </g>
          <g class="cls-5">
            <g class="cls-23">
              <path class="cls-6" d="M738.55361,757.05125c-46.94932-3.11109-53.31294-22.31562-53.31294-31.08366,0-8.2018,14.00018-30.40379,53.29607-30.23456,46.68332,.11364,67.89524,22.73993,67.89524,30.65886s-20.92906,33.77045-67.87837,30.65936"/>
            </g>
          </g>
        </g>
      </g>
      <g class="cls-22">
        <g class="cls-11">
          <g class="cls-14">
            <g class="cls-4">
              <g class="cls-17">
                <path class="cls-6" d="M996.2837,372.96373c0,17.69439-32.33179,47.25005-57.78579,64.2194-25.45451,16.96985-71.82916,20.73899-88.63921,20.65959-62.67303-.29626-82.18821-6.80084-82.18821-6.80084,0,0-42.14098-12.16152-63.3157-18.6765-21.17472-6.51499-25.30912-17.9584-25.30912-17.9584-11.69601-18.53308-17.15246-22.47593-21.96029-27.00138-18.72317-9.23701-20.02138-12.85381-20.06854-13.57537h-.01239s-1.13099-4.54332,20.08093-15.0076c4.80783-4.52546,10.26428-8.4683,21.96029-27.00188,0,0,4.1344-11.44292,25.30912-17.95791,21.17472-6.51499,63.3157-18.6765,63.3157-18.6765,0,0,19.51518-6.50506,82.18821-6.80084,16.81005-.0794,63.1847,3.68974,88.63921,20.65959,25.44754,16.96488,57.78579,46.82525,57.78579,63.91866"/>
              </g>
            </g>
            <g class="cls-4">
              <g class="cls-15">
                <path class="cls-6" d="M773.60985,442.83967s-110.30224-17.43435-110.30224-69.29274c3.1111-53.73675,110.30224-69.29224,110.30224-69.29224,121.75705-19.37376,158.94828,49.35323,158.94828,69.29224s-38.88845,88.94937-158.94828,69.29274"/>
              </g>
            </g>
            <g class="cls-4">
              <g class="cls-16">
                <path class="cls-6" d="M883.48797,373.40575c.28288,9.89904-27.9031,70.40635-122.89103,59.61752-88.89477-10.09705-96.66333-54.66925-97.17945-58.62747h-.03276s.00397-.04814,.01489-.14143c-.01092-.0933-.01489-.14144-.01489-.14144h.03276c.51612-3.95822,8.28468-48.53092,97.17945-58.62747,94.98793-10.78934,124.02252,51.41522,122.89103,57.92028"/>
              </g>
            </g>
            <g class="cls-4">
              <g class="cls-12">
                <path class="cls-6" d="M858.88207,374.25422c0,12.44439-25.48578,47.93887-96.24746,47.93887-62.27701,0-99.24988-38.70434-99.24988-48.34184,0,0,21.8809-48.66739,99.85086-48.66739,66.09132,0,95.64648,36.62597,95.64648,49.07036"/>
              </g>
            </g>
            <g class="cls-4">
              <g class="cls-10">
                <path class="cls-6" d="M759.46854,415.25151c-48.43613,4.55225-67.02975-31.67671-75.23205-33.37345-8.18741-1.69426-20.45364-3.92696-20.85165-8.02661h-.00298l.00149-.01092-.00149-.01043h.00298c.39801-4.10015,12.66424-6.33286,20.85165-8.02662,8.2023-1.69723,26.79592-37.9262,75.23205-33.37345,57.23395,5.37904,74.24201,31.92534,74.24201,41.25863s-17.00806,36.1833-74.24201,41.56283"/>
              </g>
            </g>
            <g class="cls-4">
              <g class="cls-13">
                <path class="cls-6" d="M833.71048,373.68858c0,8.2018-10.11789,31.34917-83.00955,37.19172,0,0-50.62616,2.26248-63.35341-37.05028,10.88909-40.72712,62.22193-36.76741,62.22193-36.76741,68.44412,6.50507,84.14104,28.42417,84.14104,36.62598"/>
              </g>
            </g>
            <g class="cls-5">
              <g class="cls-9">
                <path class="cls-6" d="M740.80196,404.77204c-46.94932-3.11109-53.31294-22.31562-53.31294-31.08366,0-8.2018,14.00018-30.40379,53.29607-30.23456,46.68332,.11364,67.89524,22.73993,67.89524,30.65886s-20.92906,33.77045-67.87837,30.65936"/>
              </g>
            </g>
          </g>
        </g>
      </g>
      <path class="cls-7" d="M811.85323,386.6653h-2c0-98.31787-79.9873-178.30518-178.30493-178.30518v-2c99.42041,0,180.30493,80.88477,180.30493,180.30518Z"/>
      <path class="cls-6" d="M687.72317,384.60311c.18848-8.28931,14.84863-30.40552,54.55908-29.33081,47.17725,1.18921,68.09473,24.54443,67.9126,32.54785-.00684,.30347-.05566,.64014-.125,.99219h-121.9834c-.2998-1.56079-.39111-2.98706-.36328-4.20923Z"/>
      <path class="cls-27" d="M810.0129,727.89187h-2c0-98.31738-79.9873-178.30469-178.30493-178.30469v-2c99.42041,0,180.30493,80.88477,180.30493,180.30469Z"/>
      <path class="cls-28" d="M629.60812,914.39968v-2c98.31763,0,178.30469-79.9873,178.30469-178.30469h2c0,99.41992-80.88428,180.30469-180.30469,180.30469Z"/>
      <g>
        <path class="cls-8" d="M997.79098,391.81569h-2c0-94.24414-36.70068-182.84717-103.34155-249.48828-66.64087-66.64062-155.24414-103.34131-249.48853-103.34131v-2c47.90137,0,94.37036,9.38184,138.11621,27.88477,42.25317,17.87158,80.19995,43.45605,112.78662,76.04248s58.17114,70.5332,76.04248,112.78662c18.50293,43.74561,27.88477,90.21436,27.88477,138.11572Z"/>
        <path class="cls-3" d="M995.95064,733.04323h-2c0-94.24414-36.70068-182.84766-103.34155-249.48828s-155.24414-103.3418-249.48853-103.3418v-2c47.90137,0,94.37036,9.38184,138.11621,27.88477,42.25317,17.87109,80.19995,43.45605,112.78662,76.04297,32.58667,32.58594,58.17114,70.5332,76.04248,112.78613,18.50293,43.74609,27.88477,90.21484,27.88477,138.11621Z"/>
        <path class="cls-2" d="M641.02047,1087.56081v-2c94.24438,0,182.84766-36.70117,249.48853-103.3418s103.34155-155.24414,103.34155-249.48828h2c0,47.90137-9.38184,94.37012-27.88477,138.11621-17.87134,42.25293-43.45581,80.2002-76.04248,112.78613-32.58667,32.58691-70.53345,58.17188-112.78662,76.04297-43.74585,18.50293-90.21484,27.88477-138.11621,27.88477Z"/>
      </g>
    </g>
  </g>
</svg>