<?xml version="1.0" encoding="UTF-8"?><svg xmlns="http://www.w3.org/2000/svg" xmlns:xlink="http://www.w3.org/1999/xlink" viewBox="0 0 1080 1080"><defs><style>.aa,.ab,.ac,.ad,.ae,.af,.ag{fill:none;}.ah{opacity:.33;}.ah,.ai{mix-blend-mode:overlay;}.aj{fill:#fff;}.ak{clip-path:url(#v);}.al{clip-path:url(#u);}.am{clip-path:url(#t);}.an{clip-path:url(#y);}.ao{clip-path:url(#x);}.ap{clip-path:url(#w);}.aq{clip-path:url(#n);}.ar{clip-path:url(#m);}.as{clip-path:url(#l);}.at{clip-path:url(#k);}.au{clip-path:url(#j);}.av{clip-path:url(#i);}.aw{clip-path:url(#h);}.ax{clip-path:url(#s);}.ay{clip-path:url(#r);}.b`{clip-path:url(#q);}.ba{clip-path:url(#p);}.bb{clip-path:url(#o);}.bc{clip-path:url(#a`);}.ab{stroke:url(#b);}.ab,.ac,.ad,.ae,.af,.ag{stroke-miterlimit:10;stroke-width:2px;}.ac{stroke:url(#c);}.ad{stroke:url(#g);}.ae{stroke:url(#e);}.af{stroke:url(#f);}.ag{stroke:url(#d);}.bd{isolation:isolate;}</style><linearGradient id="b" x1="129.63" y1="214.4" x2="484.46" y2="214.4" gradientTransform="matrix(1, 0, 0, 1, 0, 0)" gradientUnits="userSpaceOnUse"><stop offset="0" stop-color="#fff" stop-opacity=".5"/><stop offset=".16" stop-color="#fff" stop-opacity=".45"/><stop offset=".45" stop-color="#fff" stop-opacity=".32"/><stop offset=".83" stop-color="#fff" stop-opacity=".1"/><stop offset="1" stop-color="#fff" stop-opacity="0"/></linearGradient><linearGradient id="c" x1="317.59" y1="298.41" x2="497.9" y2="298.41" gradientTransform="matrix(1, 0, 0, 1, 0, 0)" gradientUnits="userSpaceOnUse"><stop offset=".49" stop-color="#fff"/><stop offset=".95" stop-color="#fff" stop-opacity="0"/></linearGradient><linearGradient id="d" x1="131.47" y1="504.69" x2="486.3" y2="504.69" xlink:href="#b"/><linearGradient id="e" x1="319.43" y1="588.69" x2="499.74" y2="588.69" xlink:href="#c"/><linearGradient id="f" x1="131.57" y1="8069.11" x2="486.4" y2="8069.11" gradientTransform="translate(0 8928.32) scale(1 -1)" xlink:href="#b"/><linearGradient id="g" x1="319.53" y1="8153.12" x2="499.84" y2="8153.12" gradientTransform="translate(0 8928.32) scale(1 -1)" xlink:href="#c"/><clipPath id="h"><rect class="aa" x="135.42" y="584.95" width="359.29" height="169.46"/></clipPath><clipPath id="i"><rect class="aa" x="135.42" y="584.95" width="359.29" height="169.46"/></clipPath><clipPath id="j"><rect class="aa" x="135.42" y="584.95" width="359.29" height="169.46"/></clipPath><clipPath id="k"><rect class="aa" x="199.14" y="597.42" width="269.25" height="145.48"/></clipPath><clipPath id="l"><rect class="aa" x="248.18" y="610.8" width="220.13" height="120.07"/></clipPath><clipPath id="m"><rect class="aa" x="272.82" y="621.75" width="195.5" height="97.01"/></clipPath><clipPath id="n"><rect class="aa" x="297.99" y="628.6" width="170.33" height="83.61"/></clipPath><clipPath id="o"><rect class="aa" x="297.99" y="633.53" width="146.36" height="73.95"/></clipPath><clipPath id="p"><rect class="aa" x="323.02" y="640.02" width="121.19" height="61.58"/></clipPath><clipPath id="q"><rect class="aa" x="116.76" y="271.13" width="385.46" height="121.89"/></clipPath><clipPath id="r"><rect class="aa" x="133.17" y="292.77" width="359.29" height="169.46"/></clipPath><clipPath id="s"><rect class="aa" x="133.17" y="292.77" width="359.29" height="169.46"/></clipPath><clipPath id="t"><rect class="aa" x="133.17" y="292.77" width="359.29" height="169.46"/></clipPath><clipPath id="u"><rect class="aa" x="196.9" y="305.23" width="269.25" height="145.48"/></clipPath><clipPath id="v"><rect class="aa" x="245.93" y="318.62" width="220.13" height="120.07"/></clipPath><clipPath id="w"><rect class="aa" x="270.57" y="329.57" width="195.5" height="97.01"/></clipPath><clipPath id="x"><rect class="aa" x="295.74" y="336.42" width="170.33" height="83.61"/></clipPath><clipPath id="y"><rect class="aa" x="295.74" y="341.34" width="146.36" height="73.95"/></clipPath><clipPath id="a`"><rect class="aa" x="320.77" y="347.84" width="121.19" height="61.58"/></clipPath></defs><g class="bd"><g id="a"><path class="ab" d="M130.63,391.82c0-195.41,158.42-353.83,353.83-353.83"/><path class="ac" d="M318.59,388.56c0-99.03,80.28-179.3,179.3-179.3"/><path class="ag" d="M132.47,682.1c0-195.41,158.42-353.83,353.83-353.83"/><path class="ae" d="M320.43,678.85c0-99.03,80.28-179.3,179.3-179.3"/><path class="af" d="M132.57,681.79c0,195.41,158.42,353.83,353.83,353.83"/><path class="ad" d="M320.53,685.05c0,99.03,80.28,179.3,179.3,179.3"/><g class="aw"><g class="av"><g class="ah"><g class="au"><path class="aj" d="M135.42,669.53c0,17.69,32.33,47.25,57.79,64.22,25.45,16.97,71.83,20.74,88.64,20.66,62.67-.3,82.19-6.8,82.19-6.8,0,0,42.14-12.16,63.32-18.68,21.17-6.51,25.31-17.96,25.31-17.96,11.7-18.53,17.15-22.48,21.96-27,18.72-9.24,20.02-12.85,20.07-13.58h.01s1.13-4.54-20.08-15.01c-4.81-4.53-10.26-8.47-21.96-27,0,0-4.13-11.44-25.31-17.96-21.17-6.51-63.32-18.68-63.32-18.68,0,0-19.52-6.51-82.19-6.8-16.81-.08-63.18,3.69-88.64,20.66-25.45,16.96-57.79,46.83-57.79,63.92"/></g></g><g class="ah"><g class="at"><path class="aj" d="M358.09,739.41s110.3-17.43,110.3-69.29c-3.11-53.74-110.3-69.29-110.3-69.29-121.76-19.37-158.95,49.35-158.95,69.29s38.89,88.95,158.95,69.29"/></g></g><g class="ah"><g class="as"><path class="aj" d="M248.21,669.97c-.28,9.9,27.9,70.41,122.89,59.62,88.89-10.1,96.66-54.67,97.18-58.63h.03s0-.05-.01-.14c.01-.09,.01-.14,.01-.14h-.03c-.52-3.96-8.28-48.53-97.18-58.63-94.99-10.79-124.02,51.42-122.89,57.92"/></g></g><g class="ah"><g class="ar"><path class="aj" d="M272.82,670.82c0,12.44,25.49,47.94,96.25,47.94,62.28,0,99.25-38.7,99.25-48.34,0,0-21.88-48.67-99.85-48.67-66.09,0-95.65,36.63-95.65,49.07"/></g></g><g class="ah"><g class="aq"><path class="aj" d="M372.23,711.82c48.44,4.55,67.03-31.68,75.23-33.37,8.19-1.69,20.45-3.93,20.85-8.03h0v-.02h0c-.4-4.1-12.66-6.33-20.85-8.03-8.2-1.7-26.8-37.93-75.23-33.37-57.23,5.38-74.24,31.93-74.24,41.26s17.01,36.18,74.24,41.56"/></g></g><g class="ah"><g class="bb"><path class="aj" d="M297.99,670.26c0,8.2,10.12,31.35,83.01,37.19,0,0,50.63,2.26,63.35-37.05-10.89-40.73-62.22-36.77-62.22-36.77-68.44,6.51-84.14,28.42-84.14,36.63"/></g></g><g class="ai"><g class="ba"><path class="aj" d="M390.9,701.34c46.95-3.11,53.31-22.32,53.31-31.08,0-8.2-14-30.4-53.3-30.23-46.68,.11-67.9,22.74-67.9,30.66s20.93,33.77,67.88,30.66"/></g></g></g></g><g class="b`"><g class="ay"><g class="ax"><g class="ah"><g class="am"><path class="aj" d="M133.17,377.35c0,17.69,32.33,47.25,57.79,64.22,25.45,16.97,71.83,20.74,88.64,20.66,62.67-.3,82.19-6.8,82.19-6.8,0,0,42.14-12.16,63.32-18.68,21.17-6.51,25.31-17.96,25.31-17.96,11.7-18.53,17.15-22.48,21.96-27,18.72-9.24,20.02-12.85,20.07-13.58h.01s1.13-4.54-20.08-15.01c-4.81-4.53-10.26-8.47-21.96-27,0,0-4.13-11.44-25.31-17.96-21.17-6.51-63.32-18.68-63.32-18.68,0,0-19.52-6.51-82.19-6.8-16.81-.08-63.18,3.69-88.64,20.66-25.45,16.96-57.79,46.83-57.79,63.92"/></g></g><g class="ah"><g class="al"><path class="aj" d="M355.84,447.23s110.3-17.43,110.3-69.29c-3.11-53.74-110.3-69.29-110.3-69.29-121.76-19.37-158.95,49.35-158.95,69.29s38.89,88.95,158.95,69.29"/></g></g><g class="ah"><g class="ak"><path class="aj" d="M245.97,377.79c-.28,9.9,27.9,70.41,122.89,59.62,88.89-10.1,96.66-54.67,97.18-58.63h.03s0-.05-.01-.14c.01-.09,.01-.14,.01-.14h-.03c-.52-3.96-8.28-48.53-97.18-58.63-94.99-10.79-124.02,51.42-122.89,57.92"/></g></g><g class="ah"><g class="ap"><path class="aj" d="M270.57,378.64c0,12.44,25.49,47.94,96.25,47.94,62.28,0,99.25-38.7,99.25-48.34,0,0-21.88-48.67-99.85-48.67-66.09,0-95.65,36.63-95.65,49.07"/></g></g><g class="ah"><g class="ao"><path class="aj" d="M369.98,419.64c48.44,4.55,67.03-31.68,75.23-33.37,8.19-1.69,20.45-3.93,20.85-8.03h0v-.02h0c-.4-4.1-12.66-6.33-20.85-8.03-8.2-1.7-26.8-37.93-75.23-33.37-57.23,5.38-74.24,31.93-74.24,41.26s17.01,36.18,74.24,41.56"/></g></g><g class="ah"><g class="an"><path class="aj" d="M295.74,378.07c0,8.2,10.12,31.35,83.01,37.19,0,0,50.63,2.26,63.35-37.05-10.89-40.73-62.22-36.77-62.22-36.77-68.44,6.51-84.14,28.42-84.14,36.63"/></g></g><g class="ai"><g class="bc"><path class="aj" d="M388.65,409.16c46.95-3.11,53.31-22.32,53.31-31.08,0-8.2-14-30.4-53.3-30.23-46.68,.11-67.9,22.74-67.9,30.66s20.93,33.77,67.88,30.66"/></g></g></g></g></g></g></g></svg>