<?xml version="1.0" encoding="UTF-8"?><svg xmlns="http://www.w3.org/2000/svg" xmlns:xlink="http://www.w3.org/1999/xlink" viewBox="0 0 1080 1080"><defs><style>.y,.a`,.aa,.ab,.ac,.ad,.ae{fill:none;}.af{opacity:.65;}.af,.ag,.ah,.ai{mix-blend-mode:overlay;}.ag{opacity:.38;}.ah{opacity:.55;}.ai{opacity:.33;}.aj{fill:#fff;}.a`{stroke:url(#c);stroke-width:1.72px;}.a`,.aa,.ab,.ac,.ad,.ae{stroke-miterlimit:10;}.aa{stroke:url(#g);}.aa,.ab{stroke-width:1.73px;}.ab{stroke:url(#e);}.ak{clip-path:url(#v);}.al{clip-path:url(#u);}.am{clip-path:url(#t);}.an{clip-path:url(#x);}.ao{clip-path:url(#w);}.ap{clip-path:url(#n);}.aq{clip-path:url(#m);}.ar{clip-path:url(#l);}.as{clip-path:url(#k);}.at{clip-path:url(#j);}.au{clip-path:url(#i);}.av{clip-path:url(#h);}.aw{clip-path:url(#s);}.ax{clip-path:url(#r);}.ay{clip-path:url(#q);}.b`{clip-path:url(#p);}.ba{clip-path:url(#o);}.ac{stroke:url(#b);}.ac,.ad,.ae{stroke-width:2px;}.ad{stroke:url(#f);}.ae{stroke:url(#d);}.bb{isolation:isolate;}</style><linearGradient id="b" x1="-3761.38" y1="218.49" x2="-4100.15" y2="218.49" gradientTransform="translate(-3113.45) rotate(-180) scale(1 -1)" gradientUnits="userSpaceOnUse"><stop offset="0" stop-color="#fff" stop-opacity=".02"/><stop offset="1" stop-color="#fff" stop-opacity=".5"/></linearGradient><linearGradient id="c" x1="-3903.98" y1="307.06" x2="-3748.55" y2="307.06" gradientTransform="translate(-3113.45) rotate(-180) scale(1 -1)" gradientUnits="userSpaceOnUse"><stop offset=".49" stop-color="#fff"/><stop offset=".95" stop-color="#fff" stop-opacity="0"/></linearGradient><linearGradient id="d" x1="-3758.33" y1="507.98" x2="-4094.77" y2="507.98" xlink:href="#b"/><linearGradient id="e" x1="-3902.69" y1="598.02" x2="-3746.7" y2="598.02" xlink:href="#c"/><linearGradient id="f" x1="-3758.24" y1="5570.22" x2="-4094.68" y2="5570.22" gradientTransform="translate(-3113.45 6414.35) rotate(-180)" xlink:href="#b"/><linearGradient id="g" x1="-3902.61" y1="5654.96" x2="-3746.61" y2="5654.96" gradientTransform="translate(-3113.45 6414.35) rotate(-180)" xlink:href="#c"/><clipPath id="h"><rect class="y" x="637.5" y="554.42" width="345.57" height="222.15"/></clipPath><clipPath id="i"><rect class="y" x="637.5" y="554.42" width="345.57" height="222.15"/></clipPath><clipPath id="j"><rect class="y" x="637.5" y="554.42" width="345.57" height="222.15"/></clipPath><clipPath id="k"><rect class="y" x="661.74" y="576.46" width="247.13" height="177.84"/></clipPath><clipPath id="l"><rect class="y" x="661.58" y="599.4" width="198.13" height="132.66"/></clipPath><clipPath id="m"><rect class="y" x="686.26" y="616.49" width="148.83" height="97.9"/></clipPath><clipPath id="n"><rect class="y" x="686.26" y="629.63" width="124.02" height="71.98"/></clipPath><clipPath id="o"><rect class="y" x="711.14" y="640.72" width="74.23" height="49.31"/></clipPath><clipPath id="p"><rect class="y" x="631.74" y="265" width="407.89" height="128.7" transform="translate(1671.38 658.7) rotate(-180)"/></clipPath><clipPath id="q"><rect class="y" x="643.11" y="270.63" width="345.57" height="222.15"/></clipPath><clipPath id="r"><rect class="y" x="643.11" y="270.63" width="345.57" height="222.15"/></clipPath><clipPath id="s"><rect class="y" x="643.11" y="270.63" width="345.57" height="222.15"/></clipPath><clipPath id="t"><rect class="y" x="667.35" y="292.91" width="247.13" height="177.84"/></clipPath><clipPath id="u"><rect class="y" x="667.19" y="315.14" width="198.13" height="132.66"/></clipPath><clipPath id="v"><rect class="y" x="691.87" y="332.8" width="148.83" height="97.9"/></clipPath><clipPath id="w"><rect class="y" x="691.87" y="345.59" width="124.02" height="71.98"/></clipPath><clipPath id="x"><rect class="y" x="716.75" y="357.17" width="74.23" height="49.31"/></clipPath></defs><g class="bb"><g id="a"><path class="ac" d="M985.7,387.88c0-186.55-151.23-337.77-337.77-337.77"/><path class="a`" d="M789.66,384.77c0-85.36-69.2-154.56-154.56-154.56"/><path class="ae" d="M980.32,676.2c0-185.26-150.18-335.44-335.44-335.44"/><path class="ab" d="M788.37,676.02c0-85.67-69.45-155.13-155.13-155.13"/><path class="ad" d="M980.22,675.91c0,185.26-150.18,335.44-335.44,335.44"/><path class="aa" d="M788.29,681.39c0,85.67-69.45,155.13-155.13,155.13"/><g class="av"><g class="au"><g class="ai"><g class="at"><path class="aj" d="M983.07,665.48c0-3.77-5.67-8.28-16.56-14.3-13.76-7.74-32.11-34.69-50.17-56.19-24.66-25.23-27.52-24.37-55.04-34.12-27.52-9.75-52.46-6.02-62.21-4.3-9.75,1.72-13.47,2.29-25.23,2.87-11.75,.57-17.2,3.73-17.2,3.73,0,0-33.26,14.33-40.71,18.35-7.45,4.01-9.75,6.88-9.75,6.88,0,0-5.16,4.87-14.62,12.61-9.46,7.74-10.61,15.48-18.52,34.21-7.91,18.73-18.29,20.4-20.64,20.98-15.41,3.46-14.93,8.94-14.88,9.3-.05,.36-.91,5.81,14.34,9.91,5.47,1.47,11,3.73,20.36,21.79,8.31,16.05,9.89,25.05,19.35,32.79,9.46,7.74,14.62,12.61,14.62,12.61,0,0,2.29,2.87,9.75,6.88,7.45,4.01,40.71,18.35,40.71,18.35,0,0,6.16,1.62,17.92,2.19,11.75,.57,14.76,2.69,24.51,4.41,9.75,1.72,34.69,5.45,62.21-4.3,27.52-9.75,30.39-8.89,55.04-34.12,18.06-21.5,36.41-48.45,50.17-56.19,10.89-6.02,16.56-10.53,16.56-14.3"/></g></g><g class="ai"><g class="as"><path class="aj" d="M908.88,665.37c-.29-9.17-10.03-28.67-28.38-49.6-18.35-20.93-35.26-27.24-54.18-34.12-18.92-6.88-24.94-5.45-44.72-4.01-39.56,2.01-69.09,22.36-84.29,34.69-25.49,19.63-35.61,46.42-35.55,53.18v-.29c-.29,7.74,10.06,33.55,35.55,53.18,15.19,12.33,44.72,32.68,84.29,34.69,19.78,1.43,25.8,2.87,44.72-4.01,18.92-6.88,35.84-13.19,54.18-34.12,18.35-20.93,28.1-40.42,28.38-49.6Z"/></g></g><g class="ai"><g class="ar"><path class="aj" d="M661.61,665.37s-.57,5.16,12.61,9.32c12.19,3.84,13.93,5.36,22.08,20.93,8.03,15.34,8.89,18.06,12.9,22.65,4.01,4.59,20.07,7.45,20.07,7.45,0,0,40.42,6.88,52.75,6.31,12.33-.57,29.53-2.87,44.72-13.19,5.45-4.01,19.21-16.34,27.52-34.98,5.45-13.47,5.45-18.49,5.45-18.49,0,0-.69-5.09-5.59-17.2-8.31-18.63-22.22-31.54-27.67-35.55-15.19-10.32-32.11-12.61-44.44-13.19-12.33-.57-52.89,6.88-52.89,6.88,0,0-16.05,2.87-20.07,7.45-4.01,4.59-5.02,6.59-13.33,22.08-8.31,15.48-9.61,17.04-21.79,20.93-13.47,4.3-12.33,8.6-12.33,8.6"/></g></g><g class="ag"><g class="aq"><path class="aj" d="M686.26,665.79s.29,5.32,5.16,11.63c1.2,1.56,16.05,18.76,23.22,22.49,7.17,3.73,24.66,14.5,45.87,14.5,19.68,.02,29.82-10.32,29.82-10.32,0,0,16.63-20.07,27.81-24.94,13.56-5.91,16.74-12.45,16.94-13.64h.01s0-.04,0-.06c0-.03,0-.05,0-.07h-.01c-.18-1.21-3.07-8.27-14.65-12.61-9.17-3.44-29.24-26.95-29.24-26.95,0,0-8.31-9.32-29.14-9.32-22.83,0-40.24,10.75-47.41,14.48-7.17,3.73-16.91,15.48-22.65,22.08-5.73,6.59-5.73,12.74-5.73,12.74"/></g></g><g class="ah"><g class="ap"><path class="aj" d="M810.28,665.37s-1.32-7.17-19.38-15.77c-19.21-12.33-30.39-23.51-52.75-18.92-18.92,4.3-51.89,20.6-51.89,35.1s39.56,31.98,48.45,33.99c8.89,2.01,24.94,6.59,51.03-14.91,2.01-2.01,15-7.35,19.4-11.7,4.4-4.35,5.02-4.35,5.14-7.79"/></g></g><g class="af"><g class="ba"><path class="aj" d="M761.38,645.47c-19.5-8.89-29.79-3.15-33.96,0-4.09,3.09-15.72,10.54-16.2,19.62h-.08c0,9.34,12.1,17.04,16.27,20.19,4.17,3.15,14.46,8.89,33.96,0,24.13-11.54,24.14-18.76,23.97-19.91,.17-1.15,.16-8.37-23.97-19.91"/></g></g></g></g><g class="b`"><g class="ay"><g class="ax"><g class="ai"><g class="aw"><path class="aj" d="M988.67,381.72c0,3.77-5.67,8.28-16.56,14.3-13.76,7.74-32.11,34.69-50.17,56.19-24.66,25.23-27.52,24.37-55.04,34.12-27.52,9.75-52.46,6.02-62.21,4.3-9.75-1.72-13.47-2.29-25.23-2.87-11.75-.57-17.2-3.73-17.2-3.73,0,0-33.26-14.33-40.71-18.35-7.45-4.01-9.75-6.88-9.75-6.88,0,0-5.16-4.87-14.62-12.61-9.46-7.74-10.61-15.48-18.52-34.21-7.91-18.73-18.29-20.4-20.64-20.98-15.41-3.46-14.93-8.94-14.88-9.3-.05-.36-.91-5.81,14.34-9.91,5.47-1.47,11-3.73,20.36-21.79,8.31-16.05,9.89-25.05,19.35-32.79,9.46-7.74,14.62-12.61,14.62-12.61,0,0,2.29-2.87,9.75-6.88,7.45-4.01,40.71-18.35,40.71-18.35,0,0,6.16-1.62,17.92-2.19,11.75-.57,14.76-2.69,24.51-4.41,9.75-1.72,34.69-5.45,62.21,4.3,27.52,9.75,30.39,8.89,55.04,34.12,18.06,21.5,36.41,48.45,50.17,56.19,10.89,6.02,16.56,10.53,16.56,14.3"/></g></g><g class="ai"><g class="am"><path class="aj" d="M914.49,381.83c-.29,9.17-10.03,28.67-28.38,49.6-18.35,20.93-35.26,27.24-54.18,34.12-18.92,6.88-24.94,5.45-44.72,4.01-39.56-2.01-69.09-22.36-84.29-34.69-25.49-19.63-35.61-46.42-35.55-53.18v.29c-.29-7.74,10.06-33.55,35.55-53.18,15.19-12.33,44.72-32.68,84.29-34.69,19.78-1.43,25.8-2.87,44.72,4.01,18.92,6.88,35.84,13.19,54.18,34.12,18.35,20.93,28.1,40.42,28.38,49.6Z"/></g></g><g class="ai"><g class="al"><path class="aj" d="M667.22,381.83s-.57-5.16,12.61-9.32c12.19-3.84,13.93-5.36,22.08-20.93,8.03-15.34,8.89-18.06,12.9-22.65,4.01-4.59,20.07-7.45,20.07-7.45,0,0,40.42-6.88,52.75-6.31,12.33,.57,29.53,2.87,44.72,13.19,5.45,4.01,19.21,16.34,27.52,34.98,5.45,13.47,5.45,18.49,5.45,18.49,0,0-.69,5.09-5.59,17.2-8.31,18.63-22.22,31.54-27.67,35.55-15.19,10.32-32.11,12.61-44.44,13.19-12.33,.57-52.89-6.88-52.89-6.88,0,0-16.05-2.87-20.07-7.45-4.01-4.59-5.02-6.59-13.33-22.08-8.31-15.48-9.61-17.04-21.79-20.93-13.47-4.3-12.33-8.6-12.33-8.6"/></g></g><g class="ag"><g class="ak"><path class="aj" d="M691.87,381.42s.29-5.32,5.16-11.63c1.2-1.56,16.05-18.76,23.22-22.49,7.17-3.73,24.66-14.5,45.87-14.5,19.68-.02,29.82,10.32,29.82,10.32,0,0,16.63,20.07,27.81,24.94,13.56,5.91,16.74,12.45,16.94,13.64h.01s0,.04,0,.06c0,.03,0,.05,0,.07h-.01c-.18,1.21-3.07,8.27-14.65,12.61-9.17,3.44-29.24,26.95-29.24,26.95,0,0-8.31,9.32-29.14,9.32-22.83,0-40.24-10.75-47.41-14.48-7.17-3.73-16.91-15.48-22.65-22.08-5.73-6.59-5.73-12.74-5.73-12.74"/></g></g><g class="ah"><g class="ao"><path class="aj" d="M815.89,381.83s-1.32,7.17-19.38,15.77c-19.21,12.33-30.39,23.51-52.75,18.92-18.92-4.3-51.89-20.6-51.89-35.1s39.56-31.98,48.45-33.99c8.89-2.01,24.94-6.59,51.03,14.91,2.01,2.01,15,7.35,19.4,11.7,4.4,4.35,5.02,4.35,5.14,7.79"/></g></g><g class="af"><g class="an"><path class="aj" d="M766.98,401.73c-19.5,8.89-29.79,3.15-33.96,0-4.09-3.09-15.72-10.54-16.2-19.62h-.08c0-9.34,12.1-17.04,16.27-20.19,4.17-3.15,14.46-8.89,33.96,0,24.13,11.54,24.14,18.76,23.97,19.91,.17,1.15,.16,8.37-23.97,19.91"/></g></g></g></g></g></g></g></svg>