<?xml version="1.0" encoding="UTF-8"?><svg xmlns="http://www.w3.org/2000/svg" xmlns:xlink="http://www.w3.org/1999/xlink" viewBox="0 0 1080 1080"><defs><style>.aa,.ab,.ac,.ad,.ae,.af,.ag,.ah,.ai{fill:none;}.aj{opacity:.65;}.aj,.ak,.al,.am{mix-blend-mode:overlay;}.ak{opacity:.38;}.al{opacity:.55;}.am{opacity:.33;}.an{fill:#fff;}.ab{stroke:url(#n);}.ab,.ac,.ad,.ae{stroke-width:1.73px;}.ab,.ac,.ad,.ae,.af,.ag,.ah,.ai{stroke-miterlimit:10;}.ac{stroke:url(#p);}.ad{stroke:url(#r);}.ae{stroke:url(#l);}.ao{clip-path:url(#v);}.ap{clip-path:url(#u);}.aq{clip-path:url(#t);}.ar{clip-path:url(#y);}.as{clip-path:url(#x);}.at{clip-path:url(#w);}.au{clip-path:url(#c);}.av{clip-path:url(#b);}.aw{clip-path:url(#f);}.ax{clip-path:url(#e);}.ay{clip-path:url(#d);}.b`{clip-path:url(#j);}.ba{clip-path:url(#i);}.bb{clip-path:url(#h);}.bc{clip-path:url(#g);}.bd{clip-path:url(#s);}.be{clip-path:url(#a`);}.af{stroke:url(#q);}.af,.ag,.ah,.ai{stroke-width:2px;}.ag{stroke:url(#m);}.ah{stroke:url(#o);}.ai{stroke:url(#k);}.bf{isolation:isolate;}</style><clipPath id="b"><rect class="aa" x="108.76" y="214.13" width="407.89" height="178.21"/></clipPath><clipPath id="c"><rect class="aa" x="159.72" y="219.76" width="345.57" height="222.15"/></clipPath><clipPath id="d"><rect class="aa" x="159.72" y="219.76" width="345.57" height="222.15"/></clipPath><clipPath id="e"><rect class="aa" x="159.72" y="219.76" width="345.57" height="222.15"/></clipPath><clipPath id="f"><rect class="aa" x="233.91" y="242.04" width="247.13" height="177.84"/></clipPath><clipPath id="g"><rect class="aa" x="283.07" y="264.27" width="198.13" height="132.66"/></clipPath><clipPath id="h"><rect class="aa" x="307.69" y="281.93" width="148.83" height="97.9"/></clipPath><clipPath id="i"><rect class="aa" x="332.5" y="294.72" width="124.02" height="71.98"/></clipPath><clipPath id="j"><rect class="aa" x="357.41" y="306.3" width="74.23" height="49.31"/></clipPath><linearGradient id="k" x1="161.76" y1="166.12" x2="498.19" y2="166.12" gradientTransform="matrix(1, 0, 0, 1, 0, 0)" gradientUnits="userSpaceOnUse"><stop offset="0" stop-color="#fff" stop-opacity=".5"/><stop offset=".16" stop-color="#fff" stop-opacity=".45"/><stop offset=".45" stop-color="#fff" stop-opacity=".32"/><stop offset=".83" stop-color="#fff" stop-opacity=".1"/><stop offset="1" stop-color="#fff" stop-opacity="0"/></linearGradient><linearGradient id="l" x1="353.84" y1="256.16" x2="509.83" y2="256.16" gradientTransform="matrix(1, 0, 0, 1, 0, 0)" gradientUnits="userSpaceOnUse"><stop offset=".49" stop-color="#fff"/><stop offset=".95" stop-color="#fff" stop-opacity="0"/></linearGradient><linearGradient id="m" x1="161.85" y1="8590.1" x2="169.02" y2="8590.1" gradientTransform="translate(0 8953.77) scale(1 -1)" xlink:href="#k"/><linearGradient id="n" x1="353.92" y1="8587.36" x2="365.06" y2="8587.36" gradientTransform="translate(0 8953.77) scale(1 -1)" xlink:href="#l"/><linearGradient id="o" x1="160.38" y1="508.47" x2="496.81" y2="508.47" xlink:href="#k"/><linearGradient id="p" x1="352.46" y1="598.51" x2="508.45" y2="598.51" xlink:href="#l"/><linearGradient id="q" x1="160.47" y1="8109.16" x2="496.91" y2="8109.16" gradientTransform="translate(0 8953.77) scale(1 -1)" xlink:href="#k"/><linearGradient id="r" x1="352.54" y1="8193.9" x2="508.54" y2="8193.9" gradientTransform="translate(0 8953.77) scale(1 -1)" xlink:href="#l"/><clipPath id="s"><rect class="aa" x="163.68" y="566.73" width="345.57" height="222.15"/></clipPath><clipPath id="t"><rect class="aa" x="163.68" y="566.73" width="345.57" height="222.15"/></clipPath><clipPath id="u"><rect class="aa" x="163.68" y="566.73" width="345.57" height="222.15"/></clipPath><clipPath id="v"><rect class="aa" x="237.87" y="589.01" width="247.13" height="177.84"/></clipPath><clipPath id="w"><rect class="aa" x="287.04" y="611.24" width="198.13" height="132.66"/></clipPath><clipPath id="x"><rect class="aa" x="311.65" y="628.9" width="148.83" height="97.9"/></clipPath><clipPath id="y"><rect class="aa" x="336.46" y="641.69" width="124.02" height="71.98"/></clipPath><clipPath id="a`"><rect class="aa" x="361.38" y="653.27" width="74.23" height="49.31"/></clipPath></defs><g class="bf"><g id="a"><g class="av"><g class="au"><g class="ay"><g class="am"><g class="ax"><path class="an" d="M159.72,330.85c0,3.77,5.67,8.28,16.56,14.3,13.76,7.74,32.11,34.69,50.17,56.19,24.66,25.23,27.52,24.37,55.04,34.12,27.52,9.75,52.46,6.02,62.21,4.3,9.75-1.72,13.47-2.29,25.23-2.87,11.75-.57,17.2-3.73,17.2-3.73,0,0,33.26-14.33,40.71-18.35,7.45-4.01,9.75-6.88,9.75-6.88,0,0,5.16-4.87,14.62-12.61,9.46-7.74,10.61-15.48,18.52-34.21,7.91-18.73,18.29-20.4,20.64-20.98,15.41-3.46,14.93-8.94,14.88-9.3,.05-.36,.91-5.81-14.34-9.91-5.47-1.47-11-3.73-20.36-21.79-8.31-16.05-9.89-25.05-19.35-32.79-9.46-7.74-14.62-12.61-14.62-12.61,0,0-2.29-2.87-9.75-6.88-7.45-4.01-40.71-18.35-40.71-18.35,0,0-6.16-1.62-17.92-2.19-11.75-.57-14.76-2.69-24.51-4.41-9.75-1.72-34.69-5.45-62.21,4.3-27.52,9.75-30.39,8.89-55.04,34.12-18.06,21.5-36.41,48.45-50.17,56.19-10.89,6.02-16.56,10.53-16.56,14.3"/></g></g><g class="am"><g class="aw"><path class="an" d="M233.91,330.96c.29,9.17,10.03,28.67,28.38,49.6,18.35,20.93,35.26,27.24,54.18,34.12,18.92,6.88,24.94,5.45,44.72,4.01,39.56-2.01,69.09-22.36,84.29-34.69,25.49-19.63,35.61-46.42,35.55-53.18v.29c.29-7.74-10.06-33.55-35.55-53.18-15.19-12.33-44.72-32.68-84.29-34.69-19.78-1.43-25.8-2.87-44.72,4.01-18.92,6.88-35.84,13.19-54.18,34.12-18.35,20.93-28.1,40.42-28.38,49.6Z"/></g></g><g class="am"><g class="bc"><path class="an" d="M481.18,330.96s.57-5.16-12.61-9.32c-12.19-3.84-13.93-5.36-22.08-20.93-8.03-15.34-8.89-18.06-12.9-22.65-4.01-4.59-20.07-7.45-20.07-7.45,0,0-40.42-6.88-52.75-6.31-12.33,.57-29.53,2.87-44.72,13.19-5.45,4.01-19.21,16.34-27.52,34.98-5.45,13.47-5.45,18.49-5.45,18.49,0,0,.69,5.09,5.59,17.2,8.31,18.63,22.22,31.54,27.67,35.55,15.19,10.32,32.11,12.61,44.44,13.19,12.33,.57,52.89-6.88,52.89-6.88,0,0,16.05-2.87,20.07-7.45,4.01-4.59,5.02-6.59,13.33-22.08,8.31-15.48,9.61-17.04,21.79-20.93,13.47-4.3,12.33-8.6,12.33-8.6"/></g></g><g class="ak"><g class="bb"><path class="an" d="M456.52,330.55s-.29-5.32-5.16-11.63c-1.2-1.56-16.05-18.76-23.22-22.49-7.17-3.73-24.66-14.5-45.87-14.5-19.68-.02-29.82,10.32-29.82,10.32,0,0-16.63,20.07-27.81,24.94-13.56,5.91-16.74,12.45-16.94,13.64h-.01s0,.04,0,.06c0,.03,0,.05,0,.07h.01c.18,1.21,3.07,8.27,14.65,12.61,9.17,3.44,29.24,26.95,29.24,26.95,0,0,8.31,9.32,29.14,9.32,22.83,0,40.24-10.75,47.41-14.48,7.17-3.73,16.91-15.48,22.65-22.08,5.73-6.59,5.73-12.74,5.73-12.74"/></g></g><g class="al"><g class="ba"><path class="an" d="M332.5,330.96s1.32,7.17,19.38,15.77c19.21,12.33,30.39,23.51,52.75,18.92,18.92-4.3,51.89-20.6,51.89-35.1s-39.56-31.98-48.45-33.99c-8.89-2.01-24.94-6.59-51.03,14.91-2.01,2.01-15,7.35-19.4,11.7-4.4,4.35-5.02,4.35-5.14,7.79"/></g></g><g class="aj"><g class="b`"><path class="an" d="M381.41,350.86c19.5,8.89,29.79,3.15,33.96,0,4.09-3.09,15.72-10.54,16.2-19.62h.08c0-9.34-12.1-17.04-16.27-20.19-4.17-3.15-14.46-8.89-33.96,0-24.13,11.54-24.14,18.76-23.97,19.91-.17,1.15-.16,8.37,23.97,19.91"/></g></g></g></g></g><path class="ai" d="M162.76,334.34C162.76,149.08,312.94-1.1,498.19-1.1"/><path class="ae" d="M354.7,334.16c0-85.67,69.45-155.13,155.13-155.13"/><path class="ag" d="M162.85,334.04c0,20.16,1.78,39.91,5.19,59.09"/><path class="ab" d="M354.79,339.52c0,18.79,3.34,36.8,9.46,53.47"/><path class="ah" d="M161.38,676.69c0-185.26,150.18-335.44,335.44-335.44"/><path class="ac" d="M353.32,676.51c0-85.67,69.45-155.13,155.13-155.13"/><path class="af" d="M161.47,676.39c0,185.26,150.18,335.44,335.44,335.44"/><path class="ad" d="M353.41,681.87c0,85.67,69.45,155.13,155.13,155.13"/><g class="bd"><g class="aq"><g class="am"><g class="ap"><path class="an" d="M163.68,677.82c0,3.77,5.67,8.28,16.56,14.3,13.76,7.74,32.11,34.69,50.17,56.19,24.66,25.23,27.52,24.37,55.04,34.12,27.52,9.75,52.46,6.02,62.21,4.3,9.75-1.72,13.47-2.29,25.23-2.87,11.75-.57,17.2-3.73,17.2-3.73,0,0,33.26-14.33,40.71-18.35,7.45-4.01,9.75-6.88,9.75-6.88,0,0,5.16-4.87,14.62-12.61,9.46-7.74,10.61-15.48,18.52-34.21,7.91-18.73,18.29-20.4,20.64-20.98,15.41-3.46,14.93-8.94,14.88-9.3,.05-.36,.91-5.81-14.34-9.91-5.47-1.47-11-3.73-20.36-21.79-8.31-16.05-9.89-25.05-19.35-32.79-9.46-7.74-14.62-12.61-14.62-12.61,0,0-2.29-2.87-9.75-6.88-7.45-4.01-40.71-18.35-40.71-18.35,0,0-6.16-1.62-17.92-2.19-11.75-.57-14.76-2.69-24.51-4.41-9.75-1.72-34.69-5.45-62.21,4.3-27.52,9.75-30.39,8.89-55.04,34.12-18.06,21.5-36.41,48.45-50.17,56.19-10.89,6.02-16.56,10.53-16.56,14.3"/></g></g><g class="am"><g class="ao"><path class="an" d="M237.87,677.93c.29,9.17,10.03,28.67,28.38,49.6,18.35,20.93,35.26,27.24,54.18,34.12,18.92,6.88,24.94,5.45,44.72,4.01,39.56-2.01,69.09-22.36,84.29-34.69,25.49-19.63,35.61-46.42,35.55-53.18v.29c.29-7.74-10.06-33.55-35.55-53.18-15.19-12.33-44.72-32.68-84.29-34.69-19.78-1.43-25.8-2.87-44.72,4.01-18.92,6.88-35.84,13.19-54.18,34.12-18.35,20.93-28.1,40.42-28.38,49.6Z"/></g></g><g class="am"><g class="at"><path class="an" d="M485.14,677.93s.57-5.16-12.61-9.32c-12.19-3.84-13.93-5.36-22.08-20.93-8.03-15.34-8.89-18.06-12.9-22.65-4.01-4.59-20.07-7.45-20.07-7.45,0,0-40.42-6.88-52.75-6.31-12.33,.57-29.53,2.87-44.72,13.19-5.45,4.01-19.21,16.34-27.52,34.98-5.45,13.47-5.45,18.49-5.45,18.49,0,0,.69,5.09,5.59,17.2,8.31,18.63,22.22,31.54,27.67,35.55,15.19,10.32,32.11,12.61,44.44,13.19,12.33,.57,52.89-6.88,52.89-6.88,0,0,16.05-2.87,20.07-7.45,4.01-4.59,5.02-6.59,13.33-22.08,8.31-15.48,9.61-17.04,21.79-20.93,13.47-4.3,12.33-8.6,12.33-8.6"/></g></g><g class="ak"><g class="as"><path class="an" d="M460.48,677.52s-.29-5.32-5.16-11.63c-1.2-1.56-16.05-18.76-23.22-22.49-7.17-3.73-24.66-14.5-45.87-14.5-19.68-.02-29.82,10.32-29.82,10.32,0,0-16.63,20.07-27.81,24.94-13.56,5.91-16.74,12.45-16.94,13.64h-.01s0,.04,0,.06c0,.03,0,.05,0,.07h.01c.18,1.21,3.07,8.27,14.65,12.61,9.17,3.44,29.24,26.95,29.24,26.95,0,0,8.31,9.32,29.14,9.32,22.83,0,40.24-10.75,47.41-14.48,7.17-3.73,16.91-15.48,22.65-22.08,5.73-6.59,5.73-12.74,5.73-12.74"/></g></g><g class="al"><g class="ar"><path class="an" d="M336.46,677.93s1.32,7.17,19.38,15.77c19.21,12.33,30.39,23.51,52.75,18.92,18.92-4.3,51.89-20.6,51.89-35.1s-39.56-31.98-48.45-33.99c-8.89-2.01-24.94-6.59-51.03,14.91-2.01,2.01-15,7.35-19.4,11.7-4.4,4.35-5.02,4.35-5.14,7.79"/></g></g><g class="aj"><g class="be"><path class="an" d="M385.37,697.83c19.5,8.89,29.79,3.15,33.96,0,4.09-3.09,15.72-10.54,16.2-19.62h.08c0-9.34-12.1-17.04-16.27-20.19-4.17-3.15-14.46-8.89-33.96,0-24.13,11.54-24.14,18.76-23.97,19.91-.17,1.15-.16,8.37,23.97,19.91"/></g></g></g></g></g></g></svg>