<?xml version="1.0" encoding="UTF-8"?>
<svg xmlns="http://www.w3.org/2000/svg" xmlns:xlink="http://www.w3.org/1999/xlink" viewBox="0 0 1080 1080">
  <defs>
    <style>
      .cls-1 {
        fill: none;
      }

      .cls-2 {
        opacity: .64999;
      }

      .cls-2, .cls-3, .cls-4, .cls-5 {
        mix-blend-mode: overlay;
      }

      .cls-3 {
        opacity: .38001;
      }

      .cls-4 {
        opacity: .55;
      }

      .cls-6 {
        fill: url(#linear-gradient-3);
      }

      .cls-7 {
        fill: url(#linear-gradient-2);
      }

      .cls-8 {
        fill: url(#linear-gradient-4);
      }

      .cls-5 {
        opacity: .33;
      }

      .cls-9 {
        fill: #fff;
      }

      .cls-10 {
        fill: url(#New_Gradient_Swatch);
      }

      .cls-11 {
        fill: url(#linear-gradient);
      }

      .cls-12 {
        clip-path: url(#clippath-10);
      }

      .cls-13 {
        clip-path: url(#clippath-11);
      }

      .cls-14 {
        clip-path: url(#clippath-13);
      }

      .cls-15 {
        clip-path: url(#clippath-14);
      }

      .cls-16 {
        clip-path: url(#clippath-12);
      }

      .cls-17 {
        clip-path: url(#clippath-3);
      }

      .cls-18 {
        clip-path: url(#clippath-1);
      }

      .cls-19 {
        clip-path: url(#clippath-4);
      }

      .cls-20 {
        clip-path: url(#clippath-2);
      }

      .cls-21 {
        clip-path: url(#clippath-9);
      }

      .cls-22 {
        clip-path: url(#clippath-8);
      }

      .cls-23 {
        clip-path: url(#clippath-7);
      }

      .cls-24 {
        clip-path: url(#clippath-6);
      }

      .cls-25 {
        clip-path: url(#clippath-5);
      }

      .cls-26 {
        fill: url(#New_Gradient_Swatch-2);
      }

      .cls-27 {
        fill: url(#New_Gradient_Swatch-3);
      }

      .cls-28 {
        fill: url(#New_Gradient_Swatch-4);
      }

      .cls-29 {
        isolation: isolate;
      }

      .cls-30 {
        clip-path: url(#clippath);
      }
    </style>
    <clipPath id="clippath">
      <rect class="cls-1" x="111.5778" y="204.79459" width="407.89025" height="186.83712"/>
    </clipPath>
    <clipPath id="clippath-1">
      <rect class="cls-1" x="162.53697" y="220.61399" width="345.56713" height="222.15263"/>
    </clipPath>
    <clipPath id="clippath-2">
      <rect class="cls-1" x="236.72496" y="242.89673" width="247.1332" height="177.8354"/>
    </clipPath>
    <clipPath id="clippath-3">
      <rect class="cls-1" x="285.89264" y="265.12497" width="198.12733" height="132.66002"/>
    </clipPath>
    <clipPath id="clippath-4">
      <rect class="cls-1" x="310.50766" y="282.79038" width="148.83269" height="97.90494"/>
    </clipPath>
    <clipPath id="clippath-5">
      <rect class="cls-1" x="335.32078" y="295.57633" width="124.01956" height="71.97906"/>
    </clipPath>
    <clipPath id="clippath-6">
      <rect class="cls-1" x="360.23198" y="307.16052" width="74.2272" height="49.30797"/>
    </clipPath>
    <linearGradient id="linear-gradient" x1="161.75706" y1="166.11763" x2="498.19456" y2="166.11763" gradientTransform="matrix(1, 0, 0, 1, 0, 0)" gradientUnits="userSpaceOnUse">
      <stop offset="0" stop-color="#fff" stop-opacity=".5"/>
      <stop offset=".15646" stop-color="#fff" stop-opacity=".44956"/>
      <stop offset=".44542" stop-color="#fff" stop-opacity=".31608"/>
      <stop offset=".83206" stop-color="#fff" stop-opacity=".10168"/>
      <stop offset="1" stop-color="#fff" stop-opacity="0"/>
    </linearGradient>
    <linearGradient id="New_Gradient_Swatch" data-name="New Gradient Swatch" x1="353.83616" y1="256.15987" x2="509.82933" y2="256.15987" gradientTransform="matrix(1, 0, 0, 1, 0, 0)" gradientUnits="userSpaceOnUse">
      <stop offset=".49008" stop-color="#fff"/>
      <stop offset=".95002" stop-color="#fff" stop-opacity="0"/>
    </linearGradient>
    <linearGradient id="linear-gradient-2" x1="161.85179" y1="8601.86629" x2="169.02366" y2="8601.86629" gradientTransform="translate(0 8965.53763) scale(1 -1)" xlink:href="#linear-gradient"/>
    <linearGradient id="New_Gradient_Swatch-2" data-name="New Gradient Swatch" x1="353.9221" y1="8599.12849" x2="365.06273" y2="8599.12849" gradientTransform="translate(0 8965.53763) scale(1 -1)" xlink:href="#New_Gradient_Swatch"/>
    <linearGradient id="linear-gradient-3" x1="163.27659" y1="551.95162" x2="499.71312" y2="551.95162" xlink:href="#linear-gradient"/>
    <linearGradient id="New_Gradient_Swatch-3" data-name="New Gradient Swatch" x1="355.35472" y1="641.99385" x2="511.34788" y2="641.99385" xlink:href="#New_Gradient_Swatch"/>
    <linearGradient id="linear-gradient-4" x1="163.37132" y1="8077.4449" x2="499.80784" y2="8077.4449" gradientTransform="translate(0 8965.53763) scale(1 -1)" xlink:href="#linear-gradient"/>
    <linearGradient id="New_Gradient_Swatch-4" data-name="New Gradient Swatch" x1="355.44163" y1="8162.18367" x2="511.4348" y2="8162.18367" gradientTransform="translate(0 8965.53763) scale(1 -1)" xlink:href="#New_Gradient_Swatch"/>
    <clipPath id="clippath-7">
      <rect class="cls-1" x="159.75548" y="604.6684" width="345.56713" height="222.15263"/>
    </clipPath>
    <clipPath id="clippath-8">
      <rect class="cls-1" x="159.75548" y="604.6684" width="345.56713" height="222.15263"/>
    </clipPath>
    <clipPath id="clippath-9">
      <rect class="cls-1" x="159.75548" y="604.6684" width="345.56713" height="222.15263"/>
    </clipPath>
    <clipPath id="clippath-10">
      <rect class="cls-1" x="233.94347" y="626.95114" width="247.1332" height="177.8354"/>
    </clipPath>
    <clipPath id="clippath-11">
      <rect class="cls-1" x="283.11114" y="649.17938" width="198.12733" height="132.66002"/>
    </clipPath>
    <clipPath id="clippath-12">
      <rect class="cls-1" x="307.72616" y="666.84479" width="148.83269" height="97.90494"/>
    </clipPath>
    <clipPath id="clippath-13">
      <rect class="cls-1" x="332.53929" y="679.63074" width="124.01956" height="71.97906"/>
    </clipPath>
    <clipPath id="clippath-14">
      <rect class="cls-1" x="357.45048" y="691.21493" width="74.2272" height="49.30797"/>
    </clipPath>
  </defs>
  <g class="cls-29">
    <g id="lights">
      <g class="cls-30">
        <g class="cls-5">
          <g class="cls-18">
            <path class="cls-9" d="M162.53703,331.70926c0,3.76519,5.66889,8.27607,16.56321,14.29645,13.76143,7.74057,32.10968,34.68972,50.17082,56.19121,24.65576,25.22898,27.52239,24.36864,55.04477,34.11649,27.52237,9.74736,52.46423,6.02039,62.21158,4.3002,9.74785-1.72018,13.47483-2.29339,25.22898-2.86713,11.75413-.57322,17.20129-3.72698,17.20129-3.72698,0,0,33.25616-14.33414,40.71009-18.34825,7.45393-4.01358,9.74785-6.88021,9.74785-6.88021,0,0,5.16005-4.87392,14.62079-12.61449,9.46074-7.74057,10.6077-15.48112,18.52021-34.21253,7.91202-18.7309,18.29347-20.40231,20.63965-20.97554,15.40873-3.4645,14.93303-8.9388,14.88427-9.29832,.04877-.35953,.91466-5.8092-14.33718-9.90977-5.47331-1.47178-11.00443-3.73251-20.35505-21.78861-8.31427-16.05485-9.89114-25.04745-19.35188-32.78801-9.46074-7.74056-14.62079-12.61448-14.62079-12.61448,0,0-2.29391-2.86663-9.74785-6.88022-7.45393-4.01359-40.71009-18.34826-40.71009-18.34826,0,0-6.16368-1.61509-17.91783-2.18832-11.75464-.57323-14.76459-2.68561-24.51244-4.40579-9.74736-1.72018-34.68921-5.44716-62.21158,4.3007-27.52239,9.74736-30.38901,8.88701-55.04477,34.11599-18.06114,21.502-36.40939,48.45065-50.17082,56.19121-10.89431,6.02088-16.56321,10.53126-16.56321,14.29645"/>
          </g>
        </g>
        <g class="cls-5">
          <g class="cls-20">
            <path class="cls-9" d="M236.72514,331.81451c.28662,9.17412,10.03397,28.66882,28.38222,49.5976,18.34825,20.92827,35.26294,27.23526,54.1844,34.11599,18.922,6.88072,24.94236,5.44714,44.72418,4.01358,39.56314-2.00681,69.09231-22.36185,84.28681-34.68921,25.49095-19.62846,35.6109-46.42425,35.54955-53.18127v.28662c.28662-7.74056-10.0586-33.55332-35.54955-53.18127-15.1945-12.32737-44.72368-32.68242-84.2873-34.68921-19.78133-1.43357-25.80169-2.86714-44.72369,4.01358-18.92147,6.88072-35.83615,13.18771-54.1844,34.11598-18.34825,20.92877-28.0956,40.42348-28.38222,49.5976Z"/>
          </g>
        </g>
        <g class="cls-5">
          <g class="cls-17">
            <path class="cls-9" d="M483.99574,331.81451s.57323-5.16054-12.61449-9.31743c-12.19412-3.84413-13.92687-5.35916-22.07523-20.92827-8.02717-15.33831-8.88701-18.06164-12.9011-22.64895-4.01358-4.58681-20.06793-7.45394-20.06793-7.45394,0,0-40.42348-6.88022-52.75135-6.307-12.32787,.57323-29.52918,2.86714-44.72368,13.18771-5.44716,4.01359-19.2081,16.34146-27.52239,34.97633-5.44714,13.47432-5.44714,18.49156-5.44714,18.49156,0,0,.6934,5.08763,5.59045,17.2013,8.31429,18.63487,22.21854,31.53596,27.6657,35.54955,15.1945,10.32108,32.10919,12.61449,44.43706,13.18823,12.32787,.57322,52.89466-6.88073,52.89466-6.88073,0,0,16.05434-2.86713,20.06793-7.45395,4.01409-4.58731,5.01723-6.5941,13.33152-22.07521,8.31378-15.48112,9.60756-17.0409,21.78811-20.92828,13.47483-4.3007,12.32787-8.6009,12.32787-8.6009"/>
          </g>
        </g>
        <g class="cls-3">
          <g class="cls-19">
            <path class="cls-9" d="M459.34034,331.40354s-.28661-5.32295-5.16054-11.62994c-1.20126-1.55525-16.05435-18.75907-23.22168-22.48604-7.16733-3.72697-24.65575-14.49708-45.87063-14.49708-19.67823-.01911-29.81579,10.32057-29.81579,10.32057,0,0-16.62807,20.06844-27.80899,24.94236-13.56282,5.91227-16.7377,12.45409-16.94335,13.63674h-.01155c-.00051,.01558,.0015,.03771,.00301,.05883-.00252,.02514-.00402,.04777-.00301,.06537h.01056c.178,1.21082,3.07027,8.27155,14.65094,12.61449,9.17412,3.44036,29.24206,26.94915,29.24206,26.94915,0,0,8.31429,9.31743,29.13948,9.31743,22.83198,0,40.23994-10.75101,47.40727-14.47797,7.16733-3.72698,16.91469-15.48162,22.64846-22.07523,5.73377-6.59411,5.73377-12.73869,5.73377-12.73869"/>
          </g>
        </g>
        <g class="cls-4">
          <g class="cls-25">
            <path class="cls-9" d="M335.32054,331.81445s1.31641,7.16733,19.37754,15.76823c19.2086,12.32738,30.38952,23.5083,52.75136,18.92148,18.92148-4.30071,51.89101-20.60395,51.89101-35.10052s-39.56364-31.98499-48.45065-33.99178c-8.88751-2.0073-24.94236-6.59411-51.03117,14.90789-2.00679,2.00679-15.00393,7.35137-19.39967,11.70286-4.39574,4.35149-5.02125,4.35149-5.13841,7.79185"/>
          </g>
        </g>
        <g class="cls-2">
          <g class="cls-24">
            <path class="cls-9" d="M384.2274,351.72043c19.4952,8.88751,29.78511,3.15375,33.95759,0,4.0865-3.08889,15.71996-10.54182,16.19614-19.61941h.07794c0-9.33654-12.10159-17.03888-16.27408-20.19263-4.17248-3.15324-14.46239-8.88702-33.95759,0-24.12678,11.53893-24.14235,18.75856-23.96938,19.90602-.17297,1.14746-.1574,8.36708,23.96938,19.90602"/>
          </g>
        </g>
        <rect class="cls-1" x="162.53697" y="220.61399" width="345.56713" height="222.15263"/>
        <rect class="cls-1" x="162.53697" y="220.61399" width="345.56713" height="222.15263"/>
      </g>
      <path class="cls-11" d="M163.75706,334.33589h-2c0-89.86523,34.99609-174.35205,98.54004-237.89648C323.84202,32.89498,408.32933-2.10063,498.19456-2.10063V-.10063c-89.33105,0-173.31641,34.7876-236.4834,97.9541-63.16602,63.16699-97.9541,147.15137-97.9541,236.48242Z"/>
      <path class="cls-10" d="M355.56663,334.15669h-1.73047c0-86.01514,69.97852-155.99365,155.99316-155.99365v1.73047c-85.06055,0-154.2627,69.20215-154.2627,154.26318Z"/>
      <path class="cls-7" d="M167.05491,393.3022c-3.45215-19.42969-5.20312-39.36816-5.20312-59.26172h2c0,19.77637,1.74023,39.59717,5.17188,58.91211l-1.96875,.34961Z"/>
      <path class="cls-26" d="M363.43773,393.29488c-6.31348-17.1958-9.51562-35.28711-9.51562-53.77148h1.73047c0,18.28027,3.16602,36.1709,9.41016,53.1748l-1.625,.59668Z"/>
      <path class="cls-6" d="M165.27659,720.16988h-2c0-89.86572,34.99512-174.35205,98.54004-237.89648s148.03125-98.54004,237.89648-98.54004v2c-89.33105,0-173.31543,34.7876-236.48242,97.9541s-97.9541,147.15088-97.9541,236.48242Z"/>
      <path class="cls-27" d="M357.08519,719.99068h-1.73047c0-86.01514,69.97852-155.99365,155.99316-155.99365v1.73047c-85.06055,0-154.2627,69.20215-154.2627,154.26318Z"/>
      <path class="cls-8" d="M499.80784,1056.31099c-89.86523,0-174.35156-34.99561-237.89648-98.54004s-98.54004-148.03125-98.54004-237.89648h2c0,89.33105,34.78711,173.31543,97.9541,236.48242,63.16699,63.1665,147.15137,97.9541,236.48242,97.9541v2Z"/>
      <path class="cls-28" d="M511.4348,881.35054c-86.01465,0-155.99316-69.97852-155.99316-155.99316h1.73047c0,85.06055,69.20215,154.2627,154.2627,154.2627v1.73047Z"/>
      <g class="cls-23">
        <g class="cls-22">
          <g class="cls-5">
            <g class="cls-21">
              <path class="cls-9" d="M159.75554,715.76368c0,3.76519,5.66889,8.27607,16.56321,14.29645,13.76143,7.74057,32.10968,34.68972,50.17082,56.19121,24.65576,25.22898,27.52239,24.36864,55.04477,34.11649,27.52237,9.74736,52.46423,6.02039,62.21158,4.3002,9.74785-1.72018,13.47483-2.29339,25.22898-2.86713,11.75413-.57322,17.20129-3.72698,17.20129-3.72698,0,0,33.25616-14.33414,40.71009-18.34825,7.45393-4.01358,9.74785-6.88021,9.74785-6.88021,0,0,5.16005-4.87392,14.62079-12.61449,9.46074-7.74057,10.6077-15.48112,18.52021-34.21253,7.91202-18.7309,18.29347-20.40231,20.63965-20.97554,15.40873-3.4645,14.93303-8.9388,14.88427-9.29832,.04877-.35953,.91466-5.8092-14.33718-9.90977-5.47331-1.47178-11.00443-3.73251-20.35505-21.78861-8.31427-16.05485-9.89114-25.04745-19.35188-32.78801-9.46074-7.74056-14.62079-12.61448-14.62079-12.61448,0,0-2.29391-2.86663-9.74785-6.88022-7.45393-4.01359-40.71009-18.34826-40.71009-18.34826,0,0-6.16368-1.61509-17.91783-2.18832-11.75464-.57323-14.76459-2.68561-24.51244-4.40579-9.74736-1.72018-34.68921-5.44716-62.21158,4.3007-27.52239,9.74736-30.38901,8.88701-55.04477,34.11599-18.06114,21.502-36.40939,48.45065-50.17082,56.19121-10.89431,6.02088-16.56321,10.53126-16.56321,14.29645"/>
            </g>
          </g>
          <g class="cls-5">
            <g class="cls-12">
              <path class="cls-9" d="M233.94365,715.86892c.28662,9.17412,10.03397,28.66882,28.38222,49.5976,18.34825,20.92827,35.26294,27.23526,54.1844,34.11599,18.922,6.88072,24.94236,5.44714,44.72418,4.01358,39.56314-2.00681,69.09231-22.36185,84.28681-34.68921,25.49095-19.62846,35.6109-46.42425,35.54955-53.18127v.28662c.28662-7.74056-10.0586-33.55332-35.54955-53.18127-15.1945-12.32737-44.72368-32.68242-84.2873-34.68921-19.78133-1.43357-25.80169-2.86714-44.72369,4.01358-18.92147,6.88072-35.83615,13.18771-54.1844,34.11598-18.34825,20.92877-28.0956,40.42348-28.38222,49.5976Z"/>
            </g>
          </g>
          <g class="cls-5">
            <g class="cls-13">
              <path class="cls-9" d="M481.21424,715.86892s.57323-5.16054-12.61449-9.31743c-12.19412-3.84413-13.92687-5.35916-22.07523-20.92827-8.02717-15.33831-8.88701-18.06164-12.9011-22.64895-4.01358-4.58681-20.06793-7.45394-20.06793-7.45394,0,0-40.42348-6.88022-52.75135-6.307-12.32787,.57323-29.52918,2.86714-44.72368,13.18771-5.44716,4.01359-19.2081,16.34146-27.52239,34.97633-5.44714,13.47432-5.44714,18.49156-5.44714,18.49156,0,0,.6934,5.08763,5.59045,17.2013,8.31429,18.63487,22.21854,31.53596,27.6657,35.54955,15.1945,10.32108,32.10919,12.61449,44.43706,13.18823,12.32787,.57322,52.89466-6.88073,52.89466-6.88073,0,0,16.05434-2.86713,20.06793-7.45395,4.01409-4.58731,5.01723-6.5941,13.33152-22.07521,8.31378-15.48112,9.60756-17.0409,21.78811-20.92828,13.47483-4.3007,12.32787-8.6009,12.32787-8.6009"/>
            </g>
          </g>
          <g class="cls-3">
            <g class="cls-16">
              <path class="cls-9" d="M456.55885,715.45795s-.28661-5.32295-5.16054-11.62994c-1.20126-1.55525-16.05435-18.75907-23.22168-22.48604-7.16733-3.72697-24.65575-14.49708-45.87063-14.49708-19.67823-.01911-29.81579,10.32057-29.81579,10.32057,0,0-16.62807,20.06844-27.80899,24.94236-13.56282,5.91227-16.7377,12.45409-16.94335,13.63674h-.01155c-.00051,.01558,.0015,.03771,.00301,.05883-.00252,.02514-.00402,.04777-.00301,.06537h.01056c.178,1.21082,3.07027,8.27155,14.65094,12.61449,9.17412,3.44036,29.24206,26.94915,29.24206,26.94915,0,0,8.31429,9.31743,29.13948,9.31743,22.83198,0,40.23994-10.75101,47.40727-14.47797,7.16733-3.72698,16.91469-15.48162,22.64846-22.07523,5.73377-6.59411,5.73377-12.73869,5.73377-12.73869"/>
            </g>
          </g>
          <g class="cls-4">
            <g class="cls-14">
              <path class="cls-9" d="M332.53904,715.86887s1.31641,7.16733,19.37754,15.76823c19.2086,12.32738,30.38952,23.5083,52.75136,18.92148,18.92148-4.30071,51.89101-20.60395,51.89101-35.10052s-39.56364-31.98499-48.45065-33.99178c-8.88751-2.0073-24.94236-6.59411-51.03117,14.90789-2.00679,2.00679-15.00393,7.35137-19.39967,11.70286-4.39574,4.35149-5.02125,4.35149-5.13841,7.79185"/>
            </g>
          </g>
          <g class="cls-2">
            <g class="cls-15">
              <path class="cls-9" d="M381.4459,735.77484c19.4952,8.88751,29.78511,3.15375,33.95759,0,4.0865-3.08889,15.71996-10.54182,16.19614-19.61941h.07794c0-9.33654-12.10159-17.03888-16.27408-20.19263-4.17248-3.15324-14.46239-8.88702-33.95759,0-24.12678,11.53893-24.14235,18.75856-23.96938,19.90602-.17297,1.14746-.1574,8.36708,23.96938,19.90602"/>
            </g>
          </g>
        </g>
      </g>
    </g>
  </g>
</svg>