<?xml version="1.0" encoding="UTF-8"?><svg xmlns="http://www.w3.org/2000/svg" xmlns:xlink="http://www.w3.org/1999/xlink" viewBox="0 0 1080 1080"><defs><style>.aa,.ab,.ac,.ad,.ae,.af,.ag,.ah,.ai{fill:none;}.aj{opacity:.65;}.aj,.ak,.al,.am{mix-blend-mode:overlay;}.ak{opacity:.38;}.al{opacity:.55;}.am{opacity:.33;}.an{fill:#fff;}.ab{stroke:url(#c);}.ab,.ac,.ad,.ae{stroke-width:1.73px;}.ab,.ac,.ad,.ae,.af,.ag,.ah,.ai{stroke-miterlimit:10;}.ac{stroke:url(#g);}.ad{stroke:url(#e);}.ae{stroke:url(#i);}.ao{clip-path:url(#v);}.ap{clip-path:url(#u);}.aq{clip-path:url(#t);}.ar{clip-path:url(#y);}.as{clip-path:url(#x);}.at{clip-path:url(#w);}.au{clip-path:url(#n);}.av{clip-path:url(#m);}.aw{clip-path:url(#l);}.ax{clip-path:url(#k);}.ay{clip-path:url(#j);}.b`{clip-path:url(#s);}.ba{clip-path:url(#r);}.bb{clip-path:url(#q);}.bc{clip-path:url(#p);}.bd{clip-path:url(#o);}.be{clip-path:url(#a`);}.af{stroke:url(#b);}.af,.ag,.ah,.ai{stroke-width:2px;}.ag{stroke:url(#f);}.ah{stroke:url(#h);}.ai{stroke:url(#d);}.bf{isolation:isolate;}</style><linearGradient id="b" x1="-5811.28" y1="166.12" x2="-6147.71" y2="166.12" gradientTransform="translate(-5243.39) rotate(-180) scale(1 -1)" gradientUnits="userSpaceOnUse"><stop offset="0" stop-color="#fff" stop-opacity=".02"/><stop offset="1" stop-color="#fff" stop-opacity=".5"/></linearGradient><linearGradient id="c" x1="-5955.63" y1="256.16" x2="-5799.64" y2="256.16" gradientTransform="translate(-5243.39) rotate(-180) scale(1 -1)" gradientUnits="userSpaceOnUse"><stop offset=".49" stop-color="#fff"/><stop offset=".95" stop-color="#fff" stop-opacity="0"/></linearGradient><linearGradient id="d" x1="-6140.45" y1="6050.67" x2="-6147.62" y2="6050.67" gradientTransform="translate(-5243.39 6414.35) rotate(-180)" gradientUnits="userSpaceOnUse"><stop offset="0" stop-color="#fff" stop-opacity=".5"/><stop offset=".16" stop-color="#fff" stop-opacity=".45"/><stop offset=".45" stop-color="#fff" stop-opacity=".32"/><stop offset=".83" stop-color="#fff" stop-opacity=".1"/><stop offset="1" stop-color="#fff" stop-opacity="0"/></linearGradient><linearGradient id="e" x1="-5955.55" y1="6047.94" x2="-5944.41" y2="6047.94" gradientTransform="translate(-5243.39 6414.35) rotate(-180)" xlink:href="#c"/><linearGradient id="f" x1="-8297.54" y1="541.51" x2="-8633.97" y2="541.51" gradientTransform="translate(-7721.45) rotate(-180) scale(1 -1)" xlink:href="#b"/><linearGradient id="g" x1="-8441.89" y1="631.55" x2="-8285.9" y2="631.55" gradientTransform="translate(-7721.45) rotate(-180) scale(1 -1)" xlink:href="#c"/><linearGradient id="h" x1="-8297.44" y1="5536.7" x2="-8633.88" y2="5536.7" gradientTransform="translate(-7721.45 6414.35) rotate(-180)" xlink:href="#b"/><linearGradient id="i" x1="-8441.81" y1="5621.44" x2="-8285.81" y2="5621.44" gradientTransform="translate(-7721.45 6414.35) rotate(-180)" xlink:href="#c"/><clipPath id="j"><rect class="aa" x="565.7" y="614.8" width="345.57" height="222.15"/></clipPath><clipPath id="k"><rect class="aa" x="565.7" y="614.8" width="345.57" height="222.15"/></clipPath><clipPath id="l"><rect class="aa" x="565.7" y="614.8" width="345.57" height="222.15"/></clipPath><clipPath id="m"><rect class="aa" x="589.95" y="636.83" width="247.13" height="177.84"/></clipPath><clipPath id="n"><rect class="aa" x="589.78" y="659.78" width="198.13" height="132.66"/></clipPath><clipPath id="o"><rect class="aa" x="614.46" y="676.87" width="148.83" height="97.9"/></clipPath><clipPath id="p"><rect class="aa" x="614.46" y="690.01" width="124.02" height="71.98"/></clipPath><clipPath id="q"><rect class="aa" x="639.35" y="701.1" width="74.23" height="49.31"/></clipPath><clipPath id="r"><rect class="aa" x="555.79" y="217.8" width="407.89" height="178.21"/></clipPath><clipPath id="s"><rect class="aa" x="567.15" y="223.43" width="345.57" height="222.15"/></clipPath><clipPath id="t"><rect class="aa" x="567.15" y="223.43" width="345.57" height="222.15"/></clipPath><clipPath id="u"><rect class="aa" x="567.15" y="223.43" width="345.57" height="222.15"/></clipPath><clipPath id="v"><rect class="aa" x="591.4" y="245.71" width="247.13" height="177.84"/></clipPath><clipPath id="w"><rect class="aa" x="591.23" y="267.94" width="198.13" height="132.66"/></clipPath><clipPath id="x"><rect class="aa" x="615.91" y="285.61" width="148.83" height="97.9"/></clipPath><clipPath id="y"><rect class="aa" x="615.91" y="298.39" width="124.02" height="71.98"/></clipPath><clipPath id="a`"><rect class="aa" x="640.79" y="309.98" width="74.23" height="49.31"/></clipPath></defs><g class="bf"><g id="a"><path class="af" d="M903.32,334.34c0-185.26-150.18-335.44-335.44-335.44"/><path class="ab" d="M711.38,334.16c0-85.67-69.45-155.13-155.13-155.13"/><path class="ai" d="M903.23,334.04c0,20.16-1.78,39.91-5.19,59.09"/><path class="ad" d="M711.29,339.52c0,18.79-3.34,36.8-9.46,53.47"/><path class="ag" d="M911.53,709.72c0-185.26-150.18-335.44-335.44-335.44"/><path class="ac" d="M719.58,709.54c0-85.67-69.45-155.13-155.13-155.13"/><path class="ah" d="M911.43,709.43c0,185.26-150.18,335.44-335.44,335.44"/><path class="ae" d="M719.5,714.91c0,85.67-69.45,155.13-155.13,155.13"/><g class="ay"><g class="ax"><g class="am"><g class="aw"><path class="an" d="M911.27,725.86c0-3.77-5.67-8.28-16.56-14.3-13.76-7.74-32.11-34.69-50.17-56.19-24.66-25.23-27.52-24.37-55.04-34.12-27.52-9.75-52.46-6.02-62.21-4.3-9.75,1.72-13.47,2.29-25.23,2.87-11.75,.57-17.2,3.73-17.2,3.73,0,0-33.26,14.33-40.71,18.35-7.45,4.01-9.75,6.88-9.75,6.88,0,0-5.16,4.87-14.62,12.61-9.46,7.74-10.61,15.48-18.52,34.21-7.91,18.73-18.29,20.4-20.64,20.98-15.41,3.46-14.93,8.94-14.88,9.3-.05,.36-.91,5.81,14.34,9.91,5.47,1.47,11,3.73,20.36,21.79,8.31,16.05,9.89,25.05,19.35,32.79,9.46,7.74,14.62,12.61,14.62,12.61,0,0,2.29,2.87,9.75,6.88,7.45,4.01,40.71,18.35,40.71,18.35,0,0,6.16,1.62,17.92,2.19,11.75,.57,14.76,2.69,24.51,4.41,9.75,1.72,34.69,5.45,62.21-4.3,27.52-9.75,30.39-8.89,55.04-34.12,18.06-21.5,36.41-48.45,50.17-56.19,10.89-6.02,16.56-10.53,16.56-14.3"/></g></g><g class="am"><g class="av"><path class="an" d="M837.08,725.75c-.29-9.17-10.03-28.67-28.38-49.6-18.35-20.93-35.26-27.24-54.18-34.12-18.92-6.88-24.94-5.45-44.72-4.01-39.56,2.01-69.09,22.36-84.29,34.69-25.49,19.63-35.61,46.42-35.55,53.18v-.29c-.29,7.74,10.06,33.55,35.55,53.18,15.19,12.33,44.72,32.68,84.29,34.69,19.78,1.43,25.8,2.87,44.72-4.01,18.92-6.88,35.84-13.19,54.18-34.12,18.35-20.93,28.1-40.42,28.38-49.6Z"/></g></g><g class="am"><g class="au"><path class="an" d="M589.81,725.75s-.57,5.16,12.61,9.32c12.19,3.84,13.93,5.36,22.08,20.93,8.03,15.34,8.89,18.06,12.9,22.65,4.01,4.59,20.07,7.45,20.07,7.45,0,0,40.42,6.88,52.75,6.31,12.33-.57,29.53-2.87,44.72-13.19,5.45-4.01,19.21-16.34,27.52-34.98,5.45-13.47,5.45-18.49,5.45-18.49,0,0-.69-5.09-5.59-17.2-8.31-18.63-22.22-31.54-27.67-35.55-15.19-10.32-32.11-12.61-44.44-13.19-12.33-.57-52.89,6.88-52.89,6.88,0,0-16.05,2.87-20.07,7.45-4.01,4.59-5.02,6.59-13.33,22.08-8.31,15.48-9.61,17.04-21.79,20.93-13.47,4.3-12.33,8.6-12.33,8.6"/></g></g><g class="ak"><g class="bd"><path class="an" d="M614.46,726.16s.29,5.32,5.16,11.63c1.2,1.56,16.05,18.76,23.22,22.49,7.17,3.73,24.66,14.5,45.87,14.5,19.68,.02,29.82-10.32,29.82-10.32,0,0,16.63-20.07,27.81-24.94,13.56-5.91,16.74-12.45,16.94-13.64h.01s0-.04,0-.06c0-.03,0-.05,0-.07h-.01c-.18-1.21-3.07-8.27-14.65-12.61-9.17-3.44-29.24-26.95-29.24-26.95,0,0-8.31-9.32-29.14-9.32-22.83,0-40.24,10.75-47.41,14.48-7.17,3.73-16.91,15.48-22.65,22.08-5.73,6.59-5.73,12.74-5.73,12.74"/></g></g><g class="al"><g class="bc"><path class="an" d="M738.48,725.75s-1.32-7.17-19.38-15.77c-19.21-12.33-30.39-23.51-52.75-18.92-18.92,4.3-51.89,20.6-51.89,35.1s39.56,31.98,48.45,33.99c8.89,2.01,24.94,6.59,51.03-14.91,2.01-2.01,15-7.35,19.4-11.7,4.4-4.35,5.02-4.35,5.14-7.79"/></g></g><g class="aj"><g class="bb"><path class="an" d="M689.58,705.84c-19.5-8.89-29.79-3.15-33.96,0-4.09,3.09-15.72,10.54-16.2,19.62h-.08c0,9.34,12.1,17.04,16.27,20.19,4.17,3.15,14.46,8.89,33.96,0,24.13-11.54,24.14-18.76,23.97-19.91,.17-1.15,.16-8.37-23.97-19.91"/></g></g></g></g><g class="ba"><g class="b`"><g class="aq"><g class="am"><g class="ap"><path class="an" d="M912.72,334.53c0,3.77-5.67,8.28-16.56,14.3-13.76,7.74-32.11,34.69-50.17,56.19-27.46,35.38-87.34,45.45-117.26,38.42-9.75-1.72-13.47-2.29-25.23-2.87-11.75-.57-17.2-3.73-17.2-3.73,0,0-33.26-14.33-40.71-18.35-17.12-10.9-4.75-4.02-24.37-19.49-13.32-7.97-19.04-54.01-39.16-55.19-20.02-4.76-20.01-13.73-.55-19.21,15.73,.15,28.05-47.18,39.71-54.58,19.63-15.49,7.23-8.59,24.37-19.49,7.45-4.01,40.71-18.35,40.71-18.35,0,0,6.16-1.62,17.92-2.19,11.75-.57,14.76-2.69,24.51-4.41,30.01-6.87,89.64,2.96,117.25,38.42,18.06,21.5,36.41,48.45,50.17,56.19,10.89,6.02,16.56,10.53,16.56,14.3"/></g></g><g class="am"><g class="ao"><path class="an" d="M838.53,334.63c-2.45,28.76-49.46,77.79-82.57,83.71-64.11,23.9-157.95-33.44-164.56-83.85v.29c6.04-38.23,60.32-84.46,119.84-87.87,52.59-10.86,118.62,40.38,127.29,87.73Z"/></g></g><g class="am"><g class="at"><path class="an" d="M591.26,334.63s-.57-5.16,12.61-9.32c18.14-1.08,26.84-35.47,34.98-43.58,15.69-10.1,45.76-11.54,72.82-13.76,35.13-1.13,71.28,26.28,77.69,66.66-8.45,40.18-42.36,66.97-77.69,65.94-26.34-2.19-58.1-4.62-72.96-14.33-8.69-7.89-17.26-41.52-35.12-43.01-13.47-4.3-12.33-8.6-12.33-8.6"/></g></g><g class="ak"><g class="as"><path class="an" d="M615.91,334.22c7.1-23.91,39.73-47.52,74.25-48.61,40.62,4.02,24.99,16.66,57.63,35.26,13.56,5.91,16.74,12.46,16.94,13.64h.01s0,.09,0,.12h-.01c-.18,1.21-3.07,8.27-14.65,12.61-9.17,3.44-29.24,26.95-29.24,26.95-27.64,23.55-82.54-.82-99.19-27.24-5.73-6.59-5.73-12.74-5.73-12.74"/></g></g><g class="al"><g class="ar"><path class="an" d="M739.93,334.63s-1.32,7.17-19.38,15.77c-19.21,12.33-30.39,23.51-52.75,18.92-18.92-4.3-51.89-20.6-51.89-35.1,0-14.5,39.56-31.98,48.45-33.99,8.89-2.01,24.94-6.59,51.03,14.91,3.68,3.19,24.86,11.07,24.54,19.49"/></g></g><g class="aj"><g class="be"><path class="an" d="M691.03,354.54c-19.5,8.89-29.79,3.15-33.96,0-4.09-3.09-15.72-10.54-16.2-19.62h-.08c0-9.34,12.1-17.04,16.27-20.19,4.17-3.15,14.46-8.89,33.96,0,24.13,11.54,24.14,18.76,23.97,19.91,.17,1.15,.16,8.37-23.97,19.91"/></g></g></g></g></g></g></g></svg>