<?xml version="1.0" encoding="UTF-8"?><svg xmlns="http://www.w3.org/2000/svg" xmlns:xlink="http://www.w3.org/1999/xlink" viewBox="0 0 1080 1080"><defs><style>.y,.a`,.aa,.ab,.ac,.ad,.ae{fill:none;}.af{opacity:.65;}.af,.ag,.ah,.ai{mix-blend-mode:overlay;}.ag{opacity:.38;}.ah{opacity:.55;}.ai{opacity:.33;}.aj{fill:#fff;}.a`{stroke:url(#p);stroke-width:1.72px;}.a`,.aa,.ab,.ac,.ad,.ae{stroke-miterlimit:10;}.aa{stroke:url(#n);}.aa,.ab{stroke-width:1.73px;}.ab{stroke:url(#l);}.ak{clip-path:url(#v);}.al{clip-path:url(#u);}.am{clip-path:url(#t);}.an{clip-path:url(#x);}.ao{clip-path:url(#w);}.ap{clip-path:url(#c);}.aq{clip-path:url(#b);}.ar{clip-path:url(#f);}.as{clip-path:url(#e);}.at{clip-path:url(#d);}.au{clip-path:url(#j);}.av{clip-path:url(#i);}.aw{clip-path:url(#h);}.ax{clip-path:url(#g);}.ay{clip-path:url(#s);}.b`{clip-path:url(#r);}.ba{clip-path:url(#q);}.ac{stroke:url(#m);}.ac,.ad,.ae{stroke-width:2px;}.ad{stroke:url(#o);}.ae{stroke:url(#k);}.bb{isolation:isolate;}</style><clipPath id="b"><rect class="y" x="97.65" y="263.8" width="407.89" height="128.7"/></clipPath><clipPath id="c"><rect class="y" x="148.61" y="269.43" width="345.57" height="222.15"/></clipPath><clipPath id="d"><rect class="y" x="148.61" y="269.43" width="345.57" height="222.15"/></clipPath><clipPath id="e"><rect class="y" x="148.61" y="269.43" width="345.57" height="222.15"/></clipPath><clipPath id="f"><rect class="y" x="222.79" y="291.71" width="247.13" height="177.84"/></clipPath><clipPath id="g"><rect class="y" x="271.96" y="313.94" width="198.13" height="132.66"/></clipPath><clipPath id="h"><rect class="y" x="296.58" y="331.6" width="148.83" height="97.9"/></clipPath><clipPath id="i"><rect class="y" x="321.39" y="344.39" width="124.02" height="71.98"/></clipPath><clipPath id="j"><rect class="y" x="346.3" y="355.97" width="74.23" height="49.31"/></clipPath><linearGradient id="k" x1="151.68" y1="562.14" x2="488.12" y2="562.14" gradientTransform="matrix(1, 0, 0, 1, 0, 0)" gradientUnits="userSpaceOnUse"><stop offset="0" stop-color="#fff" stop-opacity=".5"/><stop offset=".16" stop-color="#fff" stop-opacity=".45"/><stop offset=".45" stop-color="#fff" stop-opacity=".32"/><stop offset=".83" stop-color="#fff" stop-opacity=".1"/><stop offset="1" stop-color="#fff" stop-opacity="0"/></linearGradient><linearGradient id="l" x1="343.76" y1="652.18" x2="499.75" y2="652.18" gradientTransform="matrix(1, 0, 0, 1, 0, 0)" gradientUnits="userSpaceOnUse"><stop offset=".49" stop-color="#fff"/><stop offset=".95" stop-color="#fff" stop-opacity="0"/></linearGradient><linearGradient id="m" x1="151.78" y1="8013.8" x2="488.21" y2="8013.8" gradientTransform="translate(0 8912.08) scale(1 -1)" xlink:href="#k"/><linearGradient id="n" x1="343.85" y1="8098.54" x2="499.84" y2="8098.54" gradientTransform="translate(0 8912.08) scale(1 -1)" xlink:href="#l"/><linearGradient id="o" x1="146.3" y1="222.43" x2="485.07" y2="222.43" xlink:href="#k"/><linearGradient id="p" x1="342.48" y1="310.99" x2="497.9" y2="310.99" xlink:href="#l"/><clipPath id="q"><rect class="y" x="147.98" y="619.06" width="345.57" height="222.15"/></clipPath><clipPath id="r"><rect class="y" x="147.98" y="619.06" width="345.57" height="222.15"/></clipPath><clipPath id="s"><rect class="y" x="147.98" y="619.06" width="345.57" height="222.15"/></clipPath><clipPath id="t"><rect class="y" x="222.17" y="641.34" width="247.13" height="177.84"/></clipPath><clipPath id="u"><rect class="y" x="271.34" y="663.57" width="198.13" height="132.66"/></clipPath><clipPath id="v"><rect class="y" x="295.95" y="681.24" width="148.83" height="97.9"/></clipPath><clipPath id="w"><rect class="y" x="320.76" y="694.02" width="124.02" height="71.98"/></clipPath><clipPath id="x"><rect class="y" x="345.68" y="705.61" width="74.23" height="49.31"/></clipPath></defs><g class="bb"><g id="a"><g class="aq"><g class="ap"><g class="at"><g class="ai"><g class="as"><path class="aj" d="M148.61,380.52c0,3.77,5.67,8.28,16.56,14.3,13.76,7.74,32.11,34.69,50.17,56.19,24.66,25.23,27.52,24.37,55.04,34.12,27.52,9.75,52.46,6.02,62.21,4.3,9.75-1.72,13.47-2.29,25.23-2.87,11.75-.57,17.2-3.73,17.2-3.73,0,0,33.26-14.33,40.71-18.35,7.45-4.01,9.75-6.88,9.75-6.88,0,0,5.16-4.87,14.62-12.61,9.46-7.74,10.61-15.48,18.52-34.21,7.91-18.73,18.29-20.4,20.64-20.98,15.41-3.46,14.93-8.94,14.88-9.3,.05-.36,.91-5.81-14.34-9.91-5.47-1.47-11-3.73-20.36-21.79-8.31-16.05-9.89-25.05-19.35-32.79-9.46-7.74-14.62-12.61-14.62-12.61,0,0-2.29-2.87-9.75-6.88-7.45-4.01-40.71-18.35-40.71-18.35,0,0-6.16-1.62-17.92-2.19-11.75-.57-14.76-2.69-24.51-4.41-9.75-1.72-34.69-5.45-62.21,4.3-27.52,9.75-30.39,8.89-55.04,34.12-18.06,21.5-36.41,48.45-50.17,56.19-10.89,6.02-16.56,10.53-16.56,14.3"/></g></g><g class="ai"><g class="ar"><path class="aj" d="M222.79,380.63c.29,9.17,10.03,28.67,28.38,49.6,18.35,20.93,35.26,27.24,54.18,34.12,18.92,6.88,24.94,5.45,44.72,4.01,39.56-2.01,69.09-22.36,84.29-34.69,25.49-19.63,35.61-46.42,35.55-53.18v.29c.29-7.74-10.06-33.55-35.55-53.18-15.19-12.33-44.72-32.68-84.29-34.69-19.78-1.43-25.8-2.87-44.72,4.01-18.92,6.88-35.84,13.19-54.18,34.12-18.35,20.93-28.1,40.42-28.38,49.6Z"/></g></g><g class="ai"><g class="ax"><path class="aj" d="M470.06,380.63s.57-5.16-12.61-9.32c-12.19-3.84-13.93-5.36-22.08-20.93-8.03-15.34-8.89-18.06-12.9-22.65-4.01-4.59-20.07-7.45-20.07-7.45,0,0-40.42-6.88-52.75-6.31-12.33,.57-29.53,2.87-44.72,13.19-5.45,4.01-19.21,16.34-27.52,34.98-5.45,13.47-5.45,18.49-5.45,18.49,0,0,.69,5.09,5.59,17.2,8.31,18.63,22.22,31.54,27.67,35.55,15.19,10.32,32.11,12.61,44.44,13.19,12.33,.57,52.89-6.88,52.89-6.88,0,0,16.05-2.87,20.07-7.45,4.01-4.59,5.02-6.59,13.33-22.08,8.31-15.48,9.61-17.04,21.79-20.93,13.47-4.3,12.33-8.6,12.33-8.6"/></g></g><g class="ag"><g class="aw"><path class="aj" d="M445.41,380.22s-.29-5.32-5.16-11.63c-1.2-1.56-16.05-18.76-23.22-22.49-7.17-3.73-24.66-14.5-45.87-14.5-19.68-.02-29.82,10.32-29.82,10.32,0,0-16.63,20.07-27.81,24.94-13.56,5.91-16.74,12.45-16.94,13.64h-.01s0,.04,0,.06c0,.03,0,.05,0,.07h.01c.18,1.21,3.07,8.27,14.65,12.61,9.17,3.44,29.24,26.95,29.24,26.95,0,0,8.31,9.32,29.14,9.32,22.83,0,40.24-10.75,47.41-14.48,7.17-3.73,16.91-15.48,22.65-22.08,5.73-6.59,5.73-12.74,5.73-12.74"/></g></g><g class="ah"><g class="av"><path class="aj" d="M321.39,380.63s1.32,7.17,19.38,15.77c19.21,12.33,30.39,23.51,52.75,18.92,18.92-4.3,51.89-20.6,51.89-35.1s-39.56-31.98-48.45-33.99c-8.89-2.01-24.94-6.59-51.03,14.91-2.01,2.01-15,7.35-19.4,11.7-4.4,4.35-5.02,4.35-5.14,7.79"/></g></g><g class="af"><g class="au"><path class="aj" d="M370.3,400.53c19.5,8.89,29.79,3.15,33.96,0,4.09-3.09,15.72-10.54,16.2-19.62h.08c0-9.34-12.1-17.04-16.27-20.19-4.17-3.15-14.46-8.89-33.96,0-24.13,11.54-24.14,18.76-23.97,19.91-.17,1.15-.16,8.37,23.97,19.91"/></g></g></g></g></g><path class="ae" d="M152.68,730.36c0-185.26,150.18-335.44,335.44-335.44"/><path class="ab" d="M344.62,730.18c0-85.67,69.45-155.13,155.13-155.13"/><path class="ac" d="M152.78,730.06c0,185.26,150.18,335.44,335.44,335.44"/><path class="aa" d="M344.71,735.55c0,85.67,69.45,155.13,155.13,155.13"/><path class="ad" d="M147.3,391.82c0-186.55,151.23-337.77,337.77-337.77"/><path class="a`" d="M343.34,388.71c0-85.36,69.2-154.56,154.56-154.56"/><g class="ba"><g class="b`"><g class="ai"><g class="ay"><path class="aj" d="M147.98,730.15c0,3.77,5.67,8.28,16.56,14.3,13.76,7.74,32.11,34.69,50.17,56.19,24.66,25.23,27.52,24.37,55.04,34.12,27.52,9.75,52.46,6.02,62.21,4.3,9.75-1.72,13.47-2.29,25.23-2.87,11.75-.57,17.2-3.73,17.2-3.73,0,0,33.26-14.33,40.71-18.35,7.45-4.01,9.75-6.88,9.75-6.88,0,0,5.16-4.87,14.62-12.61,9.46-7.74,10.61-15.48,18.52-34.21,7.91-18.73,18.29-20.4,20.64-20.98,15.41-3.46,14.93-8.94,14.88-9.3,.05-.36,.91-5.81-14.34-9.91-5.47-1.47-11-3.73-20.36-21.79-8.31-16.05-9.89-25.05-19.35-32.79-9.46-7.74-14.62-12.61-14.62-12.61,0,0-2.29-2.87-9.75-6.88-7.45-4.01-40.71-18.35-40.71-18.35,0,0-6.16-1.62-17.92-2.19-11.75-.57-14.76-2.69-24.51-4.41-9.75-1.72-34.69-5.45-62.21,4.3-27.52,9.75-30.39,8.89-55.04,34.12-18.06,21.5-36.41,48.45-50.17,56.19-10.89,6.02-16.56,10.53-16.56,14.3"/></g></g><g class="ai"><g class="am"><path class="aj" d="M222.17,730.26c.29,9.17,10.03,28.67,28.38,49.6,18.35,20.93,35.26,27.24,54.18,34.12,18.92,6.88,24.94,5.45,44.72,4.01,39.56-2.01,69.09-22.36,84.29-34.69,25.49-19.63,35.61-46.42,35.55-53.18v.29c.29-7.74-10.06-33.55-35.55-53.18-15.19-12.33-44.72-32.68-84.29-34.69-19.78-1.43-25.8-2.87-44.72,4.01-18.92,6.88-35.84,13.19-54.18,34.12-18.35,20.93-28.1,40.42-28.38,49.6Z"/></g></g><g class="ai"><g class="al"><path class="aj" d="M469.44,730.26s.57-5.16-12.61-9.32c-12.19-3.84-13.93-5.36-22.08-20.93-8.03-15.34-8.89-18.06-12.9-22.65-4.01-4.59-20.07-7.45-20.07-7.45,0,0-40.42-6.88-52.75-6.31-12.33,.57-29.53,2.87-44.72,13.19-5.45,4.01-19.21,16.34-27.52,34.98-5.45,13.47-5.45,18.49-5.45,18.49,0,0,.69,5.09,5.59,17.2,8.31,18.63,22.22,31.54,27.67,35.55,15.19,10.32,32.11,12.61,44.44,13.19,12.33,.57,52.89-6.88,52.89-6.88,0,0,16.05-2.87,20.07-7.45,4.01-4.59,5.02-6.59,13.33-22.08,8.31-15.48,9.61-17.04,21.79-20.93,13.47-4.3,12.33-8.6,12.33-8.6"/></g></g><g class="ag"><g class="ak"><path class="aj" d="M444.78,729.85s-.29-5.32-5.16-11.63c-1.2-1.56-16.05-18.76-23.22-22.49-7.17-3.73-24.66-14.5-45.87-14.5-19.68-.02-29.82,10.32-29.82,10.32,0,0-16.63,20.07-27.81,24.94-13.56,5.91-16.74,12.45-16.94,13.64h-.01s0,.04,0,.06c0,.03,0,.05,0,.07h.01c.18,1.21,3.07,8.27,14.65,12.61,9.17,3.44,29.24,26.95,29.24,26.95,0,0,8.31,9.32,29.14,9.32,22.83,0,40.24-10.75,47.41-14.48,7.17-3.73,16.91-15.48,22.65-22.08,5.73-6.59,5.73-12.74,5.73-12.74"/></g></g><g class="ah"><g class="ao"><path class="aj" d="M320.76,730.26s1.32,7.17,19.38,15.77c19.21,12.33,30.39,23.51,52.75,18.92,18.92-4.3,51.89-20.6,51.89-35.1s-39.56-31.98-48.45-33.99c-8.89-2.01-24.94-6.59-51.03,14.91-2.01,2.01-15,7.35-19.4,11.7-4.4,4.35-5.02,4.35-5.14,7.79"/></g></g><g class="af"><g class="an"><path class="aj" d="M369.67,750.17c19.5,8.89,29.79,3.15,33.96,0,4.09-3.09,15.72-10.54,16.2-19.62h.08c0-9.34-12.1-17.04-16.27-20.19-4.17-3.15-14.46-8.89-33.96,0-24.13,11.54-24.14,18.76-23.97,19.91-.17,1.15-.16,8.37,23.97,19.91"/></g></g></g></g></g></g></svg>