<svg width="20" height="21" viewBox="0 0 20 21" fill="none" xmlns="http://www.w3.org/2000/svg">
<path d="M10 20.3945C4.49 20.3945 0 15.9045 0 10.3945C0 4.88453 4.49 0.394531 10 0.394531C15.51 0.394531 20 4.43453 20 9.39453C20 12.7045 17.31 15.3945 14 15.3945H12.23C11.95 15.3945 11.73 15.6145 11.73 15.8945C11.73 16.0145 11.78 16.1245 11.86 16.2245C12.27 16.6945 12.5 17.2845 12.5 17.8945C12.5 19.2745 11.38 20.3945 10 20.3945ZM10 2.39453C5.59 2.39453 2 5.98453 2 10.3945C2 14.8045 5.59 18.3945 10 18.3945C10.28 18.3945 10.5 18.1745 10.5 17.8945C10.5 17.7345 10.42 17.6145 10.36 17.5445C9.95 17.0845 9.73 16.4945 9.73 15.8945C9.73 14.5145 10.85 13.3945 12.23 13.3945H14C16.21 13.3945 18 11.6045 18 9.39453C18 5.53453 14.41 2.39453 10 2.39453Z" fill="black"/>
<path d="M4.5 11.3945C5.32843 11.3945 6 10.723 6 9.89453C6 9.0661 5.32843 8.39453 4.5 8.39453C3.67157 8.39453 3 9.0661 3 9.89453C3 10.723 3.67157 11.3945 4.5 11.3945Z" fill="black"/>
<path d="M7.5 7.39453C8.32843 7.39453 9 6.72296 9 5.89453C9 5.0661 8.32843 4.39453 7.5 4.39453C6.67157 4.39453 6 5.0661 6 5.89453C6 6.72296 6.67157 7.39453 7.5 7.39453Z" fill="black"/>
<path d="M12.5 7.39453C13.3284 7.39453 14 6.72296 14 5.89453C14 5.0661 13.3284 4.39453 12.5 4.39453C11.6716 4.39453 11 5.0661 11 5.89453C11 6.72296 11.6716 7.39453 12.5 7.39453Z" fill="black"/>
<path d="M15.5 11.3945C16.3284 11.3945 17 10.723 17 9.89453C17 9.0661 16.3284 8.39453 15.5 8.39453C14.6716 8.39453 14 9.0661 14 9.89453C14 10.723 14.6716 11.3945 15.5 11.3945Z" fill="black"/>
</svg>
