<svg width="14" height="21" viewBox="0 0 14 21" fill="none" xmlns="http://www.w3.org/2000/svg">
<path d="M4 19.1973C4 19.7473 4.45 20.1973 5 20.1973H9C9.55 20.1973 10 19.7473 10 19.1973V18.1973H4V19.1973ZM7 0.197266C3.14 0.197266 0 3.33727 0 7.19727C0 9.57727 1.19 11.6673 3 12.9373V15.1973C3 15.7473 3.45 16.1973 4 16.1973H10C10.55 16.1973 11 15.7473 11 15.1973V12.9373C12.81 11.6673 14 9.57727 14 7.19727C14 3.33727 10.86 0.197266 7 0.197266ZM9.85 11.2973L9 11.8973V14.1973H5V11.8973L4.15 11.2973C2.8 10.3573 2 8.82727 2 7.19727C2 4.43727 4.24 2.19727 7 2.19727C9.76 2.19727 12 4.43727 12 7.19727C12 8.82727 11.2 10.3573 9.85 11.2973Z" fill="black"/>
</svg>
