<svg width="20" height="21" viewBox="0 0 20 21" fill="none" xmlns="http://www.w3.org/2000/svg">
<path d="M10 0.394531C4.5 0.394531 0 4.89453 0 10.3945C0 15.8945 4.5 20.3945 10 20.3945C15.5 20.3945 20 15.8945 20 10.3945C20 4.89453 15.5 0.394531 10 0.394531ZM10 18.3945C5.59 18.3945 2 14.8045 2 10.3945C2 5.98453 5.59 2.39453 10 2.39453C14.41 2.39453 18 5.98453 18 10.3945C18 14.8045 14.41 18.3945 10 18.3945ZM10.5 5.39453H9V11.3945L14.2 14.5945L15 13.2945L10.5 10.5945V5.39453Z" fill="black"/>
</svg>
