<?xml version="1.0" encoding="UTF-8"?>
<svg xmlns="http://www.w3.org/2000/svg" xmlns:xlink="http://www.w3.org/1999/xlink" viewBox="0 0 1080 1080">
  <defs>
    <style>
      .cls-1 {
        fill: none;
      }

      .cls-2 {
        fill: url(#linear-gradient-3);
      }

      .cls-3 {
        fill: url(#linear-gradient-2);
      }

      .cls-4 {
        opacity: .33;
      }

      .cls-4, .cls-5 {
        mix-blend-mode: overlay;
      }

      .cls-6 {
        fill: #fff;
      }

      .cls-7 {
        fill: url(#New_Gradient_Swatch);
      }

      .cls-8 {
        fill: url(#linear-gradient);
      }

      .cls-9 {
        clip-path: url(#clippath-18);
      }

      .cls-10 {
        clip-path: url(#clippath-16);
      }

      .cls-11 {
        clip-path: url(#clippath-10);
      }

      .cls-12 {
        clip-path: url(#clippath-15);
      }

      .cls-13 {
        clip-path: url(#clippath-17);
      }

      .cls-14 {
        clip-path: url(#clippath-11);
      }

      .cls-15 {
        clip-path: url(#clippath-13);
      }

      .cls-16 {
        clip-path: url(#clippath-14);
      }

      .cls-17 {
        clip-path: url(#clippath-12);
      }

      .cls-18 {
        clip-path: url(#clippath-3);
      }

      .cls-19 {
        clip-path: url(#clippath-1);
      }

      .cls-20 {
        clip-path: url(#clippath-4);
      }

      .cls-21 {
        clip-path: url(#clippath-2);
      }

      .cls-22 {
        clip-path: url(#clippath-9);
      }

      .cls-23 {
        clip-path: url(#clippath-8);
      }

      .cls-24 {
        clip-path: url(#clippath-7);
      }

      .cls-25 {
        clip-path: url(#clippath-6);
      }

      .cls-26 {
        clip-path: url(#clippath-5);
      }

      .cls-27 {
        fill: url(#New_Gradient_Swatch-2);
      }

      .cls-28 {
        fill: url(#New_Gradient_Swatch-3);
      }

      .cls-29 {
        isolation: isolate;
      }

      .cls-30 {
        clip-path: url(#clippath);
      }
    </style>
    <linearGradient id="linear-gradient" x1="131.47064" y1="504.68983" x2="486.30023" y2="504.68983" gradientTransform="matrix(1, 0, 0, 1, 0, 0)" gradientUnits="userSpaceOnUse">
      <stop offset="0" stop-color="#fff" stop-opacity=".5"/>
      <stop offset=".15646" stop-color="#fff" stop-opacity=".44956"/>
      <stop offset=".44542" stop-color="#fff" stop-opacity=".31608"/>
      <stop offset=".83206" stop-color="#fff" stop-opacity=".10168"/>
      <stop offset="1" stop-color="#fff" stop-opacity="0"/>
    </linearGradient>
    <linearGradient id="New_Gradient_Swatch" data-name="New Gradient Swatch" x1="319.43402" y1="588.69472" x2="499.73871" y2="588.69472" gradientTransform="matrix(1, 0, 0, 1, 0, 0)" gradientUnits="userSpaceOnUse">
      <stop offset=".49008" stop-color="#fff"/>
      <stop offset=".95002" stop-color="#fff" stop-opacity="0"/>
    </linearGradient>
    <linearGradient id="linear-gradient-2" x1="131.57025" y1="8069.11183" x2="486.40033" y2="8069.11183" gradientTransform="translate(0 8928.31973) scale(1 -1)" xlink:href="#linear-gradient"/>
    <linearGradient id="New_Gradient_Swatch-2" data-name="New Gradient Swatch" x1="319.53412" y1="8153.11696" x2="499.83881" y2="8153.11696" gradientTransform="translate(0 8928.31973) scale(1 -1)" xlink:href="#New_Gradient_Swatch"/>
    <clipPath id="clippath">
      <rect class="cls-1" x="135.41805" y="584.95232" width="359.28967" height="169.45971"/>
    </clipPath>
    <clipPath id="clippath-1">
      <rect class="cls-1" x="135.41805" y="584.95232" width="359.28967" height="169.45971"/>
    </clipPath>
    <clipPath id="clippath-2">
      <rect class="cls-1" x="135.41805" y="584.95232" width="359.28967" height="169.45971"/>
    </clipPath>
    <clipPath id="clippath-3">
      <rect class="cls-1" x="199.14365" y="597.41734" width="269.25067" height="145.47583"/>
    </clipPath>
    <clipPath id="clippath-4">
      <rect class="cls-1" x="248.18225" y="610.79972" width="220.1349" height="120.07487"/>
    </clipPath>
    <clipPath id="clippath-5">
      <rect class="cls-1" x="272.81991" y="621.75208" width="195.49724" height="97.00962"/>
    </clipPath>
    <clipPath id="clippath-6">
      <rect class="cls-1" x="297.99155" y="628.60275" width="170.32847" height="83.61221"/>
    </clipPath>
    <clipPath id="clippath-7">
      <rect class="cls-1" x="297.99155" y="633.52586" width="146.36246" height="73.94677"/>
    </clipPath>
    <clipPath id="clippath-8">
      <rect class="cls-1" x="323.02127" y="640.02105" width="121.19131" height="61.57777"/>
    </clipPath>
    <linearGradient id="linear-gradient-3" x1="129.63031" y1="214.40077" x2="484.4599" y2="214.40077" xlink:href="#linear-gradient"/>
    <linearGradient id="New_Gradient_Swatch-3" data-name="New Gradient Swatch" x1="317.59369" y1="298.4059" x2="497.89838" y2="298.4059" xlink:href="#New_Gradient_Swatch"/>
    <clipPath id="clippath-9">
      <rect class="cls-1" x="116.75797" y="271.13219" width="385.45632" height="121.893"/>
    </clipPath>
    <clipPath id="clippath-10">
      <rect class="cls-1" x="133.1697" y="292.76955" width="359.28967" height="169.45971"/>
    </clipPath>
    <clipPath id="clippath-11">
      <rect class="cls-1" x="133.1697" y="292.76955" width="359.28967" height="169.45971"/>
    </clipPath>
    <clipPath id="clippath-12">
      <rect class="cls-1" x="133.1697" y="292.76955" width="359.28967" height="169.45971"/>
    </clipPath>
    <clipPath id="clippath-13">
      <rect class="cls-1" x="196.8953" y="305.23458" width="269.25067" height="145.47583"/>
    </clipPath>
    <clipPath id="clippath-14">
      <rect class="cls-1" x="245.9339" y="318.61696" width="220.1349" height="120.07487"/>
    </clipPath>
    <clipPath id="clippath-15">
      <rect class="cls-1" x="270.57155" y="329.56932" width="195.49724" height="97.00962"/>
    </clipPath>
    <clipPath id="clippath-16">
      <rect class="cls-1" x="295.7432" y="336.41998" width="170.32847" height="83.61221"/>
    </clipPath>
    <clipPath id="clippath-17">
      <rect class="cls-1" x="295.7432" y="341.3431" width="146.36246" height="73.94677"/>
    </clipPath>
    <clipPath id="clippath-18">
      <rect class="cls-1" x="320.77292" y="347.83829" width="121.19131" height="61.57777"/>
    </clipPath>
  </defs>
  <g class="cls-29">
    <g id="lights">
      <path class="cls-8" d="M133.47064,682.10487h-2c0-47.90137,9.38184-94.37012,27.88477-138.11621,17.87158-42.25293,43.45605-80.19971,76.04248-112.78662,32.58643-32.58643,70.5332-58.1709,112.78662-76.04248,43.74561-18.50293,90.21436-27.88477,138.11572-27.88477v2c-94.24414,0-182.84766,36.70068-249.48828,103.34131-66.64062,66.64111-103.34131,155.24463-103.34131,249.48877Z"/>
      <path class="cls-7" d="M321.43402,678.84706h-2c0-99.42041,80.88428-180.30469,180.30469-180.30469v2c-98.31738,0-178.30469,79.9873-178.30469,178.30469Z"/>
      <path class="cls-3" d="M486.40033,1036.62294c-47.90137,0-94.37012-9.38184-138.11621-27.88477-42.25293-17.87158-80.19971-43.45605-112.78662-76.04248-32.58643-32.58691-58.1709-70.53369-76.04248-112.78662-18.50293-43.74609-27.88477-90.21484-27.88477-138.11621h2c0,94.24414,36.70068,182.84766,103.34131,249.48877,66.64111,66.64062,155.24463,103.34131,249.48877,103.34131v2Z"/>
      <path class="cls-27" d="M499.83881,865.35536c-99.42041,0-180.30469-80.88477-180.30469-180.30518h2c0,98.31787,79.9873,178.30518,178.30469,178.30518v2Z"/>
      <g class="cls-30">
        <g class="cls-19">
          <g class="cls-4">
            <g class="cls-21">
              <path class="cls-6" d="M135.41814,669.53195c0,17.69439,32.33179,47.25005,57.78579,64.2194,25.45451,16.96985,71.82916,20.73899,88.63921,20.65959,62.67303-.29626,82.18821-6.80084,82.18821-6.80084,0,0,42.14098-12.16152,63.3157-18.6765,21.17472-6.51499,25.30912-17.9584,25.30912-17.9584,11.69601-18.53308,17.15246-22.47593,21.96029-27.00138,18.72317-9.23701,20.02138-12.85381,20.06854-13.57537h.01239s1.13099-4.54332-20.08093-15.0076c-4.80783-4.52546-10.26428-8.4683-21.96029-27.00188,0,0-4.1344-11.44292-25.30912-17.95791-21.17472-6.51499-63.3157-18.6765-63.3157-18.6765,0,0-19.51518-6.50506-82.18821-6.80084-16.81005-.0794-63.1847,3.68974-88.63921,20.65959-25.44754,16.96488-57.78579,46.82525-57.78579,63.91866"/>
            </g>
          </g>
          <g class="cls-4">
            <g class="cls-18">
              <path class="cls-6" d="M358.09199,739.40789s110.30224-17.43435,110.30224-69.29274c-3.1111-53.73675-110.30224-69.29224-110.30224-69.29224-121.75705-19.37376-158.94828,49.35323-158.94828,69.29224s38.88845,88.94937,158.94828,69.29274"/>
            </g>
          </g>
          <g class="cls-4">
            <g class="cls-20">
              <path class="cls-6" d="M248.21387,669.97397c-.28288,9.89904,27.9031,70.40635,122.89103,59.61752,88.89477-10.09705,96.66333-54.66925,97.17945-58.62747h.03276s-.00397-.04814-.01489-.14143c.01092-.0933,.01489-.14144,.01489-.14144h-.03276c-.51612-3.95822-8.28468-48.53092-97.17945-58.62747-94.98793-10.78934-124.02252,51.41522-122.89103,57.92028"/>
            </g>
          </g>
          <g class="cls-4">
            <g class="cls-26">
              <path class="cls-6" d="M272.81977,670.82244c0,12.44439,25.48578,47.93887,96.24746,47.93887,62.27701,0,99.24988-38.70434,99.24988-48.34184,0,0-21.8809-48.66739-99.85086-48.66739-66.09132,0-95.64648,36.62597-95.64648,49.07036"/>
            </g>
          </g>
          <g class="cls-4">
            <g class="cls-25">
              <path class="cls-6" d="M372.23331,711.81973c48.43613,4.55225,67.02975-31.67671,75.23205-33.37345,8.18741-1.69426,20.45364-3.92696,20.85165-8.02661h.00298l-.00149-.01092,.00149-.01043h-.00298c-.39801-4.10015-12.66424-6.33286-20.85165-8.02662-8.2023-1.69723-26.79592-37.9262-75.23205-33.37345-57.23395,5.37904-74.24201,31.92534-74.24201,41.25863s17.00806,36.1833,74.24201,41.56283"/>
            </g>
          </g>
          <g class="cls-4">
            <g class="cls-24">
              <path class="cls-6" d="M297.99136,670.2568c0,8.2018,10.11789,31.34917,83.00955,37.19172,0,0,50.62616,2.26248,63.35341-37.05028-10.88909-40.72712-62.22193-36.76741-62.22193-36.76741-68.44412,6.50507-84.14104,28.42417-84.14104,36.62598"/>
            </g>
          </g>
          <g class="cls-5">
            <g class="cls-23">
              <path class="cls-6" d="M390.89988,701.34026c46.94932-3.11109,53.31294-22.31562,53.31294-31.08366,0-8.2018-14.00018-30.40379-53.29607-30.23456-46.68332,.11364-67.89524,22.73993-67.89524,30.65886,0,7.91942,20.92906,33.77045,67.87837,30.65936"/>
            </g>
          </g>
        </g>
      </g>
      <path class="cls-2" d="M131.63031,391.81581h-2c0-47.90137,9.38184-94.37012,27.88477-138.11621,17.87158-42.25293,43.45605-80.19971,76.04248-112.78662,32.58643-32.58643,70.5332-58.1709,112.78662-76.04248,43.74561-18.50293,90.21436-27.88477,138.11572-27.88477v2c-94.24414,0-182.84717,36.70068-249.48828,103.34131-66.64062,66.64111-103.34131,155.24463-103.34131,249.48877Z"/>
      <path class="cls-28" d="M319.59369,388.55849h-2c0-99.42041,80.88428-180.30518,180.30469-180.30518v2c-98.31738,0-178.30469,79.9873-178.30469,178.30518Z"/>
      <g class="cls-22">
        <g class="cls-11">
          <g class="cls-14">
            <g class="cls-4">
              <g class="cls-17">
                <path class="cls-6" d="M133.16979,377.34918c0,17.69439,32.33179,47.25005,57.78579,64.2194,25.45451,16.96985,71.82916,20.73899,88.63921,20.65959,62.67303-.29626,82.18821-6.80084,82.18821-6.80084,0,0,42.14098-12.16152,63.3157-18.6765,21.17472-6.51499,25.30912-17.9584,25.30912-17.9584,11.69601-18.53308,17.15246-22.47593,21.96029-27.00138,18.72317-9.23701,20.02138-12.85381,20.06854-13.57537h.01239s1.13099-4.54332-20.08093-15.0076c-4.80783-4.52546-10.26428-8.4683-21.96029-27.00188,0,0-4.1344-11.44292-25.30912-17.95791-21.17472-6.51499-63.3157-18.6765-63.3157-18.6765,0,0-19.51518-6.50506-82.18821-6.80084-16.81005-.0794-63.1847,3.68974-88.63921,20.65959-25.44754,16.96488-57.78579,46.82525-57.78579,63.91866"/>
              </g>
            </g>
            <g class="cls-4">
              <g class="cls-15">
                <path class="cls-6" d="M355.84364,447.22512s110.30224-17.43435,110.30224-69.29274c-3.1111-53.73675-110.30224-69.29224-110.30224-69.29224-121.75705-19.37376-158.94828,49.35323-158.94828,69.29224s38.88845,88.94937,158.94828,69.29274"/>
              </g>
            </g>
            <g class="cls-4">
              <g class="cls-16">
                <path class="cls-6" d="M245.96552,377.79121c-.28288,9.89904,27.9031,70.40635,122.89103,59.61752,88.89477-10.09705,96.66333-54.66925,97.17945-58.62747h.03276s-.00397-.04814-.01489-.14143c.01092-.0933,.01489-.14144,.01489-.14144h-.03276c-.51612-3.95822-8.28468-48.53092-97.17945-58.62747-94.98793-10.78934-124.02252,51.41522-122.89103,57.92028"/>
              </g>
            </g>
            <g class="cls-4">
              <g class="cls-12">
                <path class="cls-6" d="M270.57142,378.63968c0,12.44439,25.48578,47.93887,96.24746,47.93887,62.27701,0,99.24988-38.70434,99.24988-48.34184,0,0-21.8809-48.66739-99.85086-48.66739-66.09132,0-95.64648,36.62597-95.64648,49.07036"/>
              </g>
            </g>
            <g class="cls-4">
              <g class="cls-10">
                <path class="cls-6" d="M369.98496,419.63697c48.43613,4.55225,67.02975-31.67671,75.23205-33.37345,8.18741-1.69426,20.45364-3.92696,20.85165-8.02661h.00298l-.00149-.01092,.00149-.01043h-.00298c-.39801-4.10015-12.66424-6.33286-20.85165-8.02662-8.2023-1.69723-26.79592-37.9262-75.23205-33.37345-57.23395,5.37904-74.24201,31.92534-74.24201,41.25863s17.00806,36.1833,74.24201,41.56283"/>
              </g>
            </g>
            <g class="cls-4">
              <g class="cls-13">
                <path class="cls-6" d="M295.74301,378.07403c0,8.2018,10.11789,31.34917,83.00955,37.19172,0,0,50.62616,2.26248,63.35341-37.05028-10.88909-40.72712-62.22193-36.76741-62.22193-36.76741-68.44412,6.50507-84.14104,28.42417-84.14104,36.62598"/>
              </g>
            </g>
            <g class="cls-5">
              <g class="cls-9">
                <path class="cls-6" d="M388.65153,409.1575c46.94932-3.11109,53.31294-22.31562,53.31294-31.08366,0-8.2018-14.00018-30.40379-53.29607-30.23456-46.68332,.11364-67.89524,22.73993-67.89524,30.65886,0,7.91942,20.92906,33.77045,67.87837,30.65936"/>
              </g>
            </g>
          </g>
        </g>
      </g>
    </g>
  </g>
</svg>