<?xml version="1.0" encoding="UTF-8"?>
<svg xmlns="http://www.w3.org/2000/svg" xmlns:xlink="http://www.w3.org/1999/xlink" viewBox="0 0 1080 1080">
  <defs>
    <style>
      .cls-1 {
        fill: none;
      }

      .cls-2 {
        fill: url(#New_Gradient_Swatch-4);
      }

      .cls-2, .cls-3, .cls-4, .cls-5, .cls-6, .cls-7, .cls-8, .cls-9, .cls-10 {
        opacity: .7;
      }

      .cls-3 {
        fill: url(#New_Gradient_Swatch-2);
      }

      .cls-4 {
        fill: url(#New_Gradient_Swatch-3);
      }

      .cls-11 {
        opacity: .33;
      }

      .cls-11, .cls-12 {
        mix-blend-mode: overlay;
      }

      .cls-13 {
        fill: #fff;
      }

      .cls-5 {
        fill: url(#New_Gradient_Swatch);
      }

      .cls-6 {
        fill: url(#linear-gradient-4);
      }

      .cls-7 {
        fill: url(#linear-gradient-3);
      }

      .cls-8 {
        fill: url(#linear-gradient-2);
      }

      .cls-14 {
        clip-path: url(#clippath-18);
      }

      .cls-15 {
        clip-path: url(#clippath-16);
      }

      .cls-16 {
        clip-path: url(#clippath-10);
      }

      .cls-17 {
        clip-path: url(#clippath-15);
      }

      .cls-18 {
        clip-path: url(#clippath-17);
      }

      .cls-19 {
        clip-path: url(#clippath-11);
      }

      .cls-20 {
        clip-path: url(#clippath-13);
      }

      .cls-21 {
        clip-path: url(#clippath-14);
      }

      .cls-22 {
        clip-path: url(#clippath-12);
      }

      .cls-23 {
        clip-path: url(#clippath-3);
      }

      .cls-24 {
        clip-path: url(#clippath-1);
      }

      .cls-25 {
        clip-path: url(#clippath-4);
      }

      .cls-26 {
        clip-path: url(#clippath-2);
      }

      .cls-27 {
        clip-path: url(#clippath-9);
      }

      .cls-28 {
        clip-path: url(#clippath-8);
      }

      .cls-29 {
        clip-path: url(#clippath-7);
      }

      .cls-30 {
        clip-path: url(#clippath-6);
      }

      .cls-31 {
        clip-path: url(#clippath-5);
      }

      .cls-9 {
        fill: url(#linear-gradient);
      }

      .cls-32 {
        isolation: isolate;
      }

      .cls-33 {
        clip-path: url(#clippath);
      }
    </style>
    <clipPath id="clippath">
      <rect class="cls-1" x="563.29185" y="225.81762" width="385.45632" height="165.91944" transform="translate(1512.04003 617.55468) rotate(-180)"/>
    </clipPath>
    <clipPath id="clippath-1">
      <rect class="cls-1" x="573.04677" y="247.45498" width="359.28967" height="169.45971"/>
    </clipPath>
    <clipPath id="clippath-2">
      <rect class="cls-1" x="573.04677" y="247.45498" width="359.28967" height="169.45971"/>
    </clipPath>
    <clipPath id="clippath-3">
      <rect class="cls-1" x="573.04677" y="247.45498" width="359.28967" height="169.45971"/>
    </clipPath>
    <clipPath id="clippath-4">
      <rect class="cls-1" x="599.36017" y="259.92001" width="269.25067" height="145.47583"/>
    </clipPath>
    <clipPath id="clippath-5">
      <rect class="cls-1" x="599.43734" y="273.30239" width="220.1349" height="120.07487"/>
    </clipPath>
    <clipPath id="clippath-6">
      <rect class="cls-1" x="599.43734" y="284.25475" width="195.49724" height="97.00962"/>
    </clipPath>
    <clipPath id="clippath-7">
      <rect class="cls-1" x="599.43446" y="291.10541" width="170.32847" height="83.61221"/>
    </clipPath>
    <clipPath id="clippath-8">
      <rect class="cls-1" x="623.40047" y="296.02853" width="146.36246" height="73.94677"/>
    </clipPath>
    <clipPath id="clippath-9">
      <rect class="cls-1" x="623.54191" y="302.52372" width="121.19131" height="61.57777"/>
    </clipPath>
    <clipPath id="clippath-10">
      <rect class="cls-1" x="574.47711" y="594.6964" width="359.28967" height="169.45971"/>
    </clipPath>
    <clipPath id="clippath-11">
      <rect class="cls-1" x="574.47711" y="594.6964" width="359.28967" height="169.45971"/>
    </clipPath>
    <clipPath id="clippath-12">
      <rect class="cls-1" x="574.47711" y="594.6964" width="359.28967" height="169.45971"/>
    </clipPath>
    <clipPath id="clippath-13">
      <rect class="cls-1" x="600.79051" y="607.16143" width="269.25067" height="145.47583"/>
    </clipPath>
    <clipPath id="clippath-14">
      <rect class="cls-1" x="600.86768" y="620.5438" width="220.1349" height="120.07487"/>
    </clipPath>
    <clipPath id="clippath-15">
      <rect class="cls-1" x="600.86768" y="631.49616" width="195.49724" height="97.00962"/>
    </clipPath>
    <clipPath id="clippath-16">
      <rect class="cls-1" x="600.86481" y="638.34683" width="170.32847" height="83.61221"/>
    </clipPath>
    <clipPath id="clippath-17">
      <rect class="cls-1" x="624.83081" y="643.26994" width="146.36246" height="73.94677"/>
    </clipPath>
    <clipPath id="clippath-18">
      <rect class="cls-1" x="624.97225" y="649.76513" width="121.19131" height="61.57777"/>
    </clipPath>
    <linearGradient id="New_Gradient_Swatch" data-name="New Gradient Swatch" x1="-4538.95333" y1="589.85866" x2="-4358.64865" y2="589.85866" gradientTransform="translate(-3787.39639) rotate(-180) scale(1 -1)" gradientUnits="userSpaceOnUse">
      <stop offset=".49008" stop-color="#fff"/>
      <stop offset=".95002" stop-color="#fff" stop-opacity="0"/>
    </linearGradient>
    <linearGradient id="New_Gradient_Swatch-2" data-name="New Gradient Swatch" x1="-4538.85324" y1="5657.53896" x2="-4358.54855" y2="5657.53896" gradientTransform="translate(-3787.39639 6433.90543) rotate(-180)" xlink:href="#New_Gradient_Swatch"/>
    <linearGradient id="New_Gradient_Swatch-3" data-name="New Gradient Swatch" x1="-4538.51779" y1="243.59865" x2="-4358.2131" y2="243.59865" xlink:href="#New_Gradient_Swatch"/>
    <linearGradient id="New_Gradient_Swatch-4" data-name="New Gradient Swatch" x1="-4538.41769" y1="6067.14247" x2="-4528.40158" y2="6067.14247" gradientTransform="translate(-3787.39639 6433.90543) rotate(-180)" xlink:href="#New_Gradient_Swatch"/>
    <linearGradient id="linear-gradient" x1="-4920.93331" y1="505.86403" x2="-4566.10323" y2="505.86403" gradientTransform="translate(-3985.42922) rotate(-180) scale(1 -1)" gradientUnits="userSpaceOnUse">
      <stop offset="0" stop-color="#fff" stop-opacity=".5"/>
      <stop offset=".15646" stop-color="#fff" stop-opacity=".44956"/>
      <stop offset=".44542" stop-color="#fff" stop-opacity=".31608"/>
      <stop offset=".83206" stop-color="#fff" stop-opacity=".10168"/>
      <stop offset="1" stop-color="#fff" stop-opacity="0"/>
    </linearGradient>
    <linearGradient id="linear-gradient-2" x1="-4920.83322" y1="5573.52333" x2="-4566.00314" y2="5573.52333" gradientTransform="translate(-3985.42922 6433.90543) rotate(-180)" xlink:href="#linear-gradient"/>
    <linearGradient id="linear-gradient-3" x1="-338.4052" y1="162.18093" x2="-693.23528" y2="162.18093" gradientTransform="translate(239.8174) rotate(-180) scale(1 -1)" gradientUnits="userSpaceOnUse">
      <stop offset="0" stop-color="#fff" stop-opacity="0"/>
      <stop offset="1" stop-color="#fff" stop-opacity=".5"/>
    </linearGradient>
    <linearGradient id="linear-gradient-4" x1="-686.80852" y1="6066.75673" x2="-693.13518" y2="6066.75673" gradientTransform="translate(239.8174 6433.90543) rotate(-180)" gradientUnits="userSpaceOnUse">
      <stop offset="0" stop-color="#fff" stop-opacity="0"/>
      <stop offset="1" stop-color="#fff" stop-opacity=".5"/>
    </linearGradient>
  </defs>
  <g class="cls-32">
    <g id="lights">
      <g class="cls-10">
        <g class="cls-33">
          <g class="cls-24">
            <g class="cls-26">
              <g class="cls-11">
                <g class="cls-23">
                  <path class="cls-13" d="M932.33635,332.03461c0,17.69439-32.33179,47.25005-57.78579,64.2194-25.45451,16.96985-71.82916,20.73899-88.63921,20.65959-62.67303-.29626-82.18821-6.80084-82.18821-6.80084,0,0-42.14098-12.16152-63.3157-18.6765s-25.30912-17.9584-25.30912-17.9584c-11.69601-18.53308-17.15246-22.47593-21.96029-27.00138-18.72317-9.23701-20.02138-12.85381-20.06854-13.57537h-.01239s-1.13099-4.54332,20.08093-15.0076c4.80783-4.52546,10.26428-8.4683,21.96029-27.00188,0,0,4.1344-11.44292,25.30912-17.95791,21.17472-6.51499,63.3157-18.6765,63.3157-18.6765,0,0,19.51518-6.50506,82.18821-6.80084,16.81005-.0794,63.1847,3.68974,88.63921,20.65959,25.44754,16.96488,57.78579,46.82525,57.78579,63.91866"/>
                </g>
              </g>
              <g class="cls-11">
                <g class="cls-25">
                  <path class="cls-13" d="M709.6625,401.91055s-110.30224-17.43435-110.30224-69.29274c3.1111-53.73675,110.30224-69.29224,110.30224-69.29224,121.75705-19.37376,158.94828,49.35323,158.94828,69.29224s-38.88845,88.94937-158.94828,69.29274"/>
                </g>
              </g>
              <g class="cls-11">
                <g class="cls-31">
                  <path class="cls-13" d="M819.54062,332.47664c.28288,9.89904-27.9031,70.40635-122.89103,59.61752-88.89477-10.09705-96.66333-54.66925-97.17945-58.62747h-.03276s.00397-.04814,.01489-.14143c-.01092-.0933-.01489-.14144-.01489-.14144h.03276c.51612-3.95822,8.28468-48.53092,97.17945-58.62747,94.98793-10.78934,124.02252,51.41522,122.89103,57.92028"/>
                </g>
              </g>
              <g class="cls-11">
                <g class="cls-30">
                  <path class="cls-13" d="M794.93472,333.3251c0,12.44439-25.48578,47.93887-96.24746,47.93887-62.27701,0-99.24988-38.70434-99.24988-48.34184,0,0,21.8809-48.66739,99.85086-48.66739,66.09132,0,95.64648,36.62597,95.64648,49.07036"/>
                </g>
              </g>
              <g class="cls-11">
                <g class="cls-29">
                  <path class="cls-13" d="M695.52119,374.3224c-48.43613,4.55225-67.02975-31.67671-75.23205-33.37345-8.18741-1.69426-20.45364-3.92696-20.85165-8.02661h-.00298l.00149-.01092-.00149-.01043h.00298c.39801-4.10015,12.66424-6.33286,20.85165-8.02662,8.2023-1.69723,26.79592-37.9262,75.23205-33.37345,57.23395,5.37904,74.24201,31.92534,74.24201,41.25863s-17.00806,36.1833-74.24201,41.56283"/>
                </g>
              </g>
              <g class="cls-11">
                <g class="cls-28">
                  <path class="cls-13" d="M769.76313,332.75946c0,8.2018-10.11789,31.34917-83.00955,37.19172,0,0-50.62616,2.26248-63.35341-37.05028,10.88909-40.72712,62.22193-36.76741,62.22193-36.76741,68.44412,6.50507,84.14104,28.42417,84.14104,36.62598"/>
                </g>
              </g>
              <g class="cls-12">
                <g class="cls-27">
                  <path class="cls-13" d="M676.85461,363.84293c-46.94932-3.11109-53.31294-22.31562-53.31294-31.08366,0-8.2018,14.00018-30.40379,53.29607-30.23456,46.68332,.11364,67.89524,22.73993,67.89524,30.65886s-20.92906,33.77045-67.87837,30.65936"/>
                </g>
              </g>
            </g>
          </g>
        </g>
      </g>
      <g class="cls-10">
        <g class="cls-16">
          <g class="cls-19">
            <g class="cls-11">
              <g class="cls-22">
                <path class="cls-13" d="M933.76669,679.27603c0,17.69439-32.33179,47.25005-57.78579,64.2194-25.45451,16.96985-71.82916,20.73899-88.63921,20.65959-62.67303-.29626-82.18821-6.80084-82.18821-6.80084,0,0-42.14098-12.16152-63.3157-18.6765-21.17472-6.51499-25.30912-17.9584-25.30912-17.9584-11.69601-18.53308-17.15246-22.47593-21.96029-27.00138-18.72317-9.23701-20.02138-12.85381-20.06854-13.57537h-.01239s-1.13099-4.54332,20.08093-15.0076c4.80783-4.52546,10.26428-8.4683,21.96029-27.00188,0,0,4.1344-11.44292,25.30912-17.95791,21.17472-6.51499,63.3157-18.6765,63.3157-18.6765,0,0,19.51518-6.50506,82.18821-6.80084,16.81005-.0794,63.1847,3.68974,88.63921,20.65959,25.44754,16.96488,57.78579,46.82525,57.78579,63.91866"/>
              </g>
            </g>
            <g class="cls-11">
              <g class="cls-20">
                <path class="cls-13" d="M711.09284,749.15197s-110.30224-17.43435-110.30224-69.29274c3.1111-53.73675,110.30224-69.29224,110.30224-69.29224,121.75705-19.37376,158.94828,49.35323,158.94828,69.29224,0,19.9395-38.88845,88.94937-158.94828,69.29274"/>
              </g>
            </g>
            <g class="cls-11">
              <g class="cls-21">
                <path class="cls-13" d="M820.97096,679.71805c.28288,9.89904-27.9031,70.40635-122.89103,59.61752-88.89477-10.09705-96.66333-54.66925-97.17945-58.62747h-.03276s.00397-.04814,.01489-.14143c-.01092-.0933-.01489-.14144-.01489-.14144h.03276c.51612-3.95822,8.28468-48.53092,97.17945-58.62747,94.98793-10.78934,124.02252,51.41522,122.89103,57.92028"/>
              </g>
            </g>
            <g class="cls-11">
              <g class="cls-17">
                <path class="cls-13" d="M796.36506,680.56652c0,12.44439-25.48578,47.93887-96.24746,47.93887-62.27701,0-99.24988-38.70434-99.24988-48.34184,0,0,21.8809-48.66739,99.85086-48.66739,66.09132,0,95.64648,36.62597,95.64648,49.07036"/>
              </g>
            </g>
            <g class="cls-11">
              <g class="cls-15">
                <path class="cls-13" d="M696.95153,721.56381c-48.43613,4.55225-67.02975-31.67671-75.23205-33.37345-8.18741-1.69426-20.45364-3.92696-20.85165-8.02661h-.00298l.00149-.01092-.00149-.01043h.00298c.39801-4.10015,12.66424-6.33286,20.85165-8.02662,8.2023-1.69723,26.79592-37.9262,75.23205-33.37345,57.23395,5.37904,74.24201,31.92534,74.24201,41.25863,0,9.33328-17.00806,36.1833-74.24201,41.56283"/>
              </g>
            </g>
            <g class="cls-11">
              <g class="cls-18">
                <path class="cls-13" d="M771.19348,680.00088c0,8.2018-10.11789,31.34917-83.00955,37.19172,0,0-50.62616,2.26248-63.35341-37.05028,10.88909-40.72712,62.22193-36.76741,62.22193-36.76741,68.44412,6.50507,84.14104,28.42417,84.14104,36.62598"/>
              </g>
            </g>
            <g class="cls-12">
              <g class="cls-14">
                <path class="cls-13" d="M678.28495,711.08434c-46.94932-3.11109-53.31294-22.31562-53.31294-31.08366,0-8.2018,14.00018-30.40379,53.29607-30.23456,46.68332,.11364,67.89524,22.73993,67.89524,30.65886s-20.92906,33.77045-67.87837,30.65936"/>
              </g>
            </g>
          </g>
        </g>
      </g>
      <path class="cls-5" d="M751.55695,680.01101h-2c0-98.31738-79.9873-178.30469-178.30469-178.30469v-2c99.42041,0,180.30469,80.88477,180.30469,180.30469Z"/>
      <path class="cls-3" d="M571.15216,866.51882v-2c98.31738,0,178.30469-79.9873,178.30469-178.30469h2c0,99.41992-80.88428,180.30469-180.30469,180.30469Z"/>
      <path class="cls-4" d="M751.1214,333.75124h-2c0-98.31787-79.9873-178.30518-178.30469-178.30518v-2c99.42041,0,180.30469,80.88477,180.30469,180.30518Z"/>
      <path class="cls-2" d="M742.91535,393.57155l-1.91016-.59375c5.31934-17.10156,8.01611-34.94141,8.01611-53.02344h2c0,18.28418-2.72754,36.32324-8.10596,53.61719Z"/>
      <path class="cls-9" d="M935.5041,683.27858h-2c0-94.24414-36.70068-182.84668-103.34131-249.4873-66.64111-66.6416-155.24463-103.3418-249.48877-103.3418v-2c47.90137,0,94.37012,9.38184,138.11621,27.88477,42.25293,17.87109,80.19971,43.45605,112.78662,76.04199,32.58643,32.58691,58.1709,70.53418,76.04248,112.78711,18.50293,43.74512,27.88477,90.21387,27.88477,138.11523Z"/>
      <path class="cls-8" d="M580.57392,1037.79714v-2c94.24414,0,182.84766-36.70117,249.48877-103.3418,66.64062-66.64062,103.34131-155.24414,103.34131-249.48828h2c0,47.90137-9.38184,94.37012-27.88477,138.11621-17.87158,42.25293-43.45605,80.2002-76.04248,112.78613-32.58691,32.58691-70.53369,58.17188-112.78662,76.04297-43.74609,18.50293-90.21484,27.88477-138.11621,27.88477Z"/>
      <path class="cls-7" d="M933.05268,339.59597h-2c0-94.24414-36.70068-182.84766-103.34131-249.48828S672.46674-13.23411,578.2226-13.23411v-2c47.90137,0,94.37012,9.38184,138.11621,27.88477,42.25293,17.87158,80.19971,43.45605,112.78662,76.04297s58.1709,70.5332,76.04248,112.78613c18.50293,43.74609,27.88477,90.21484,27.88477,138.11621Z"/>
      <path class="cls-6" d="M928.60151,395.01296l-1.97559-.3125c2.87109-18.19922,4.32666-36.84375,4.32666-55.41602h2c0,18.67578-1.46387,37.42578-4.35107,55.72852Z"/>
    </g>
  </g>
</svg>