<?xml version="1.0" encoding="UTF-8"?>
<svg xmlns="http://www.w3.org/2000/svg" viewBox="0 0 1080 1080">
  <defs>
    <style>
      .cls-1 {
        stroke-width: .92438px;
      }

      .cls-1, .cls-2, .cls-3, .cls-4, .cls-5, .cls-6, .cls-7, .cls-8, .cls-9 {
        stroke: #bacbdb;
      }

      .cls-1, .cls-2, .cls-3, .cls-4, .cls-5, .cls-6, .cls-7, .cls-8, .cls-9, .cls-10 {
        stroke-miterlimit: 10;
      }

      .cls-1, .cls-3, .cls-11, .cls-7, .cls-8, .cls-9 {
        fill: #36383b;
      }

      .cls-2 {
        stroke-width: 1.50599px;
      }

      .cls-2, .cls-4, .cls-6, .cls-10 {
        fill: none;
      }

      .cls-3 {
        stroke-width: 1.16453px;
      }

      .cls-12 {
        fill: #495866;
      }

      .cls-4, .cls-7 {
        stroke-width: 1.7px;
      }

      .cls-5 {
        fill: #787a69;
        stroke-width: 1.58572px;
      }

      .cls-6, .cls-8 {
        stroke-width: 1.4px;
      }

      .cls-9 {
        stroke-width: 1.49474px;
      }

      .cls-10 {
        stroke: #999;
        stroke-width: .5px;
      }
    </style>
  </defs>
  <g id="Base_copy" data-name="Base copy">
    <rect class="cls-12" x="0" width="1080" height="1080"/>
    <g>
      <rect class="cls-10" width="1080" height="1080"/>
      <line class="cls-10" y1="1030.90909" x2="1080" y2="1030.90909"/>
      <line class="cls-10" y1="981.81818" x2="1080" y2="981.81818"/>
      <line class="cls-10" y1="932.72727" x2="1080" y2="932.72727"/>
      <line class="cls-10" y1="883.63636" x2="1080" y2="883.63636"/>
      <line class="cls-10" y1="834.54545" x2="1080" y2="834.54545"/>
      <line class="cls-10" y1="785.45455" x2="1080" y2="785.45455"/>
      <line class="cls-10" y1="736.36364" x2="1080" y2="736.36364"/>
      <line class="cls-10" y1="687.27273" x2="1080" y2="687.27273"/>
      <line class="cls-10" y1="638.18182" x2="1080" y2="638.18182"/>
      <line class="cls-10" y1="589.09091" x2="1080" y2="589.09091"/>
      <line class="cls-10" y1="540" x2="1080" y2="540"/>
      <line class="cls-10" y1="490.90909" x2="1080" y2="490.90909"/>
      <line class="cls-10" y1="441.81818" x2="1080" y2="441.81818"/>
      <line class="cls-10" y1="392.72727" x2="1080" y2="392.72727"/>
      <line class="cls-10" y1="343.63636" x2="1080" y2="343.63636"/>
      <line class="cls-10" y1="294.54545" x2="1080" y2="294.54545"/>
      <line class="cls-10" y1="245.45455" x2="1080" y2="245.45455"/>
      <line class="cls-10" y1="196.36364" x2="1080" y2="196.36364"/>
      <line class="cls-10" y1="147.27273" x2="1080" y2="147.27273"/>
      <line class="cls-10" y1="98.18182" x2="1080" y2="98.18182"/>
      <line class="cls-10" y1="49.09091" x2="1080" y2="49.09091"/>
      <line class="cls-10" x1="1030.90909" x2="1030.90909" y2="1080"/>
      <line class="cls-10" x1="981.81818" x2="981.81818" y2="1080"/>
      <line class="cls-10" x1="932.72727" x2="932.72727" y2="1080"/>
      <line class="cls-10" x1="883.63636" x2="883.63636" y2="1080"/>
      <line class="cls-10" x1="834.54545" x2="834.54545" y2="1080"/>
      <line class="cls-10" x1="785.45455" x2="785.45455" y2="1080"/>
      <line class="cls-10" x1="736.36364" x2="736.36364" y2="1080"/>
      <line class="cls-10" x1="687.27273" x2="687.27273" y2="1080"/>
      <line class="cls-10" x1="638.18182" x2="638.18182" y2="1080"/>
      <line class="cls-10" x1="589.09091" x2="589.09091" y2="1080"/>
      <line class="cls-10" x1="540" x2="540" y2="1080"/>
      <line class="cls-10" x1="490.90909" x2="490.90909" y2="1080"/>
      <line class="cls-10" x1="441.81818" x2="441.81818" y2="1080"/>
      <line class="cls-10" x1="392.72727" x2="392.72727" y2="1080"/>
      <line class="cls-10" x1="343.63636" x2="343.63636" y2="1080"/>
      <line class="cls-10" x1="294.54545" x2="294.54545" y2="1080"/>
      <line class="cls-10" x1="245.45455" x2="245.45455" y2="1080"/>
      <line class="cls-10" x1="196.36364" x2="196.36364" y2="1080"/>
      <line class="cls-10" x1="147.27273" x2="147.27273" y2="1080"/>
      <line class="cls-10" x1="98.18182" x2="98.18182" y2="1080"/>
      <line class="cls-10" x1="49.09091" x2="49.09091" y2="1080"/>
    </g>
  </g>
  <g id="measures">
    <g>
      <g>
        <g>
          <path class="cls-1" d="M570.22643,331.36716h2.97542c1.39319,0,2.52428,1.13109,2.52428,2.52428v32.19304c0,.24436-.19839,.44274-.44274,.44274h-5.05696c-.24436,0-.44274-.19839-.44274-.44274v-34.27457c0-.24436,.19839-.44274,.44274-.44274Z"/>
          <g>
            <polygon class="cls-11" points="531.66963 366.89765 531.66963 351.64167 531.78877 351.64167 531.78877 327.37629 511.72871 327.37629 511.72871 348.75868 490.82685 348.75868 490.82685 385.75746 527.68183 385.75746 527.68183 386.06526 637.86079 386.06526 637.86079 366.89765 531.66963 366.89765"/>
            <path class="cls-8" d="M517.13656,386.45292h104.12796m-130.46901-37.64021h22.01983l3.47026-21.73428h-2.81623c-12.61216,0-22.84901,10.81611-22.83634,21.67499v37.6995h10.43467"/>
            <path class="cls-6" d="M513.42915,327.07844h18.3093v59.37449"/>
            <path class="cls-8" d="M531.73845,366.84179h106.69503v15.04386"/>
            <path class="cls-8" d="M518.03665,381.88566c0-5.04487-4.08967-9.13454-9.13454-9.13454s-9.13454,4.08967-9.13454,9.13454,4.08967,9.13454,9.13454,9.13454c5.04487,0,9.13454-4.08967,9.13454-9.13454"/>
            <path class="cls-8" d="M638.43349,381.88566c0-5.04487-4.08967-9.13454-9.13454-9.13454s-9.13454,4.08967-9.13454,9.13454,4.08967,9.13454,9.13454,9.13454,9.13454-4.08967,9.13454-9.13454"/>
          </g>
        </g>
        <g>
          <g>
            <rect class="cls-5" x="500.70589" y="731.61932" width="18.52853" height="7.98007" rx="1.673" ry="1.673"/>
            <rect class="cls-5" x="500.70589" y="664.5066" width="18.52853" height="7.98007" rx="1.673" ry="1.673"/>
            <rect class="cls-5" x="619.80774" y="731.61932" width="18.52853" height="7.98007" rx="1.673" ry="1.673"/>
            <rect class="cls-5" x="619.80774" y="664.5066" width="18.52853" height="7.98007" rx="1.673" ry="1.673"/>
            <path class="cls-9" d="M556.11692,668.77622h-50.04677c-8.54326,0-15.46901,7.97283-15.46901,17.80779v31.21749c0,9.83497,6.92576,17.80779,15.46901,17.80779h132.56719v-66.83308h-82.52042Z"/>
            <line class="cls-2" x1="530.44871" y1="735.60931" x2="530.44871" y2="668.77623"/>
            <line class="cls-2" x1="515.93527" y1="734.6118" x2="515.91198" y2="668.62221"/>
          </g>
          <path class="cls-3" d="M570.13448,674.1519h2.76236c1.75513,0,3.18008,1.42495,3.18008,3.18008v49.44212c0,1.75509-1.42491,3.18-3.18,3.18h-2.76244v-55.8022h0Z"/>
        </g>
      </g>
      <g>
        <g>
          <path class="cls-7" d="M570.22643,331.36716h2.97542c1.39319,0,2.52428,1.13109,2.52428,2.52428v32.19304c0,.24436-.19839,.44274-.44274,.44274h-5.05696c-.24436,0-.44274-.19839-.44274-.44274v-34.27457c0-.24436,.19839-.44274,.44274-.44274Z"/>
          <g>
            <polygon class="cls-11" points="531.66963 366.89765 531.66963 351.64167 531.78877 351.64167 531.78877 327.37629 511.72871 327.37629 511.72871 348.75868 490.82685 348.75868 490.82685 385.75746 527.68183 385.75746 527.68183 386.06526 637.86079 386.06526 637.86079 366.89765 531.66963 366.89765"/>
            <path class="cls-7" d="M517.13656,386.45292h104.12796m-130.46901-37.64021h22.01983l3.47026-21.73428h-2.81623c-12.61216,0-22.84901,10.81611-22.83634,21.67499v37.6995h10.43467"/>
            <path class="cls-4" d="M513.42915,327.07844h18.3093v59.37449"/>
            <path class="cls-7" d="M531.73845,366.84179h106.69503v15.04386"/>
            <path class="cls-7" d="M518.03665,381.88566c0-5.04487-4.08967-9.13454-9.13454-9.13454s-9.13454,4.08967-9.13454,9.13454,4.08967,9.13454,9.13454,9.13454c5.04487,0,9.13454-4.08967,9.13454-9.13454"/>
            <path class="cls-7" d="M638.43349,381.88566c0-5.04487-4.08967-9.13454-9.13454-9.13454s-9.13454,4.08967-9.13454,9.13454,4.08967,9.13454,9.13454,9.13454,9.13454-4.08967,9.13454-9.13454"/>
          </g>
        </g>
        <g>
          <g>
            <rect class="cls-7" x="500.70589" y="731.61932" width="18.52853" height="7.98007" rx="1.673" ry="1.673"/>
            <rect class="cls-7" x="500.70589" y="664.5066" width="18.52853" height="7.98007" rx="1.673" ry="1.673"/>
            <rect class="cls-7" x="619.80774" y="731.61932" width="18.52853" height="7.98007" rx="1.673" ry="1.673"/>
            <rect class="cls-7" x="619.80774" y="664.5066" width="18.52853" height="7.98007" rx="1.673" ry="1.673"/>
            <path class="cls-7" d="M556.11692,668.77622h-50.04677c-8.54326,0-15.46901,7.97283-15.46901,17.80779v31.21749c0,9.83497,6.92576,17.80779,15.46901,17.80779h132.56719v-66.83308h-82.52042Z"/>
            <line class="cls-4" x1="530.44871" y1="735.60931" x2="530.44871" y2="668.77623"/>
            <line class="cls-4" x1="515.93527" y1="734.6118" x2="515.91198" y2="668.62221"/>
          </g>
          <path class="cls-7" d="M570.13448,674.1519h2.76236c1.75513,0,3.18008,1.42495,3.18008,3.18008v49.44212c0,1.75509-1.42491,3.18-3.18,3.18h-2.76244v-55.8022h0Z"/>
        </g>
      </g>
    </g>
  </g>
</svg>