<?xml version="1.0" encoding="UTF-8"?><svg id="a" xmlns="http://www.w3.org/2000/svg" viewBox="0 0 300 300"><defs><style>.b{fill:#84857f;}.c{fill:#d7b62e;}</style></defs><g><g><path class="b" d="M143.64893,70.61133c-5.26123,0-9.52686-4.26562-9.52686-9.52686v-25.40479c0-5.26123,4.26562-9.52686,9.52686-9.52686s9.52686,4.26562,9.52686,9.52686v25.40479c0,5.26123-4.26562,9.52686-9.52686,9.52686Z"/><path class="b" d="M207.16016,96.01562c-2.43799,0-4.87598-.93018-6.73633-2.79053-3.72021-3.72021-3.72021-9.75244,0-13.47266l17.7832-17.7832c3.7207-3.7207,9.75195-3.7207,13.47266,0,3.72021,3.72021,3.72021,9.75244,0,13.47266l-17.7832,17.7832c-1.86035,1.86035-4.29834,2.79053-6.73633,2.79053Z"/><path class="b" d="M257.96924,159.52686h-25.40479c-5.26123,0-9.52686-4.26562-9.52686-9.52686s4.26562-9.52686,9.52686-9.52686h25.40479c5.26123,0,9.52686,4.26562,9.52686,9.52686s-4.26562,9.52686-9.52686,9.52686Z"/><path class="b" d="M224.94336,240.82129c-2.43799,0-4.87598-.93018-6.73633-2.79053l-17.7832-17.7832c-3.72021-3.72021-3.72021-9.75244,0-13.47266,3.7207-3.7207,9.75195-3.7207,13.47266,0l17.7832,17.7832c3.72021,3.72021,3.72021,9.75244,0,13.47266-1.86035,1.86035-4.29834,2.79053-6.73633,2.79053Z"/><path class="b" d="M143.64893,273.84717c-5.26123,0-9.52686-4.26562-9.52686-9.52686v-25.40479c0-5.26123,4.26562-9.52686,9.52686-9.52686s9.52686,4.26562,9.52686,9.52686v25.40479c0,5.26123-4.26562,9.52686-9.52686,9.52686Z"/><path class="b" d="M62.35449,240.82129c-2.43799,0-4.87598-.93018-6.73633-2.79053-3.72021-3.72021-3.72021-9.75244,0-13.47266l17.7832-17.7832c3.7207-3.7207,9.75195-3.7207,13.47266,0,3.72021,3.72021,3.72021,9.75244,0,13.47266l-17.7832,17.7832c-1.86035,1.86035-4.29834,2.79053-6.73633,2.79053Z"/><path class="b" d="M67.43555,159.52686h-25.40479c-5.26123,0-9.52686-4.26562-9.52686-9.52686s4.26562-9.52686,9.52686-9.52686h25.40479c5.26123,0,9.52686,4.26562,9.52686,9.52686s-4.26562,9.52686-9.52686,9.52686Z"/><path class="b" d="M80.1377,96.01562c-2.43799,0-4.87598-.93018-6.73633-2.79053l-17.7832-17.7832c-3.72021-3.72021-3.72021-9.75244,0-13.47266,3.7207-3.7207,9.75195-3.7207,13.47266,0l17.7832,17.7832c3.72021,3.72021,3.72021,9.75244,0,13.47266-1.86035,1.86035-4.29834,2.79053-6.73633,2.79053Z"/></g><path class="c" d="M150,210.33594c-33.26904,0-60.33594-27.06689-60.33594-60.33594s27.06689-60.33594,60.33594-60.33594,60.33594,27.06689,60.33594,60.33594-27.06689,60.33594-60.33594,60.33594Zm0-101.61816c-22.76318,0-41.28223,18.51904-41.28223,41.28223s18.51904,41.28223,41.28223,41.28223,41.28223-18.51904,41.28223-41.28223-18.51904-41.28223-41.28223-41.28223Z"/></g><circle class="c" cx="149.99996" cy="149.99993" r="24.40788"/></svg>