<?xml version="1.0" encoding="UTF-8"?>
<svg id="Layer_1" data-name="Layer 1" xmlns="http://www.w3.org/2000/svg" viewBox="0 0 505.44653 274">
  <defs>
    <style>
      .cls-1 {
        fill: #d7b62e;
      }

      .cls-2 {
        fill: #495866;
      }
    </style>
  </defs>
  <g>
    <rect class="cls-1" x="0" y="5.51079" width="505.44655" height="262.9785" rx="39" ry="39"/>
    <path class="cls-2" d="M466.44647,23.51082c11.57935,0,21,9.42056,21,21V229.48926c0,11.57945-9.42065,21-21,21H38.99993c-11.57935,0-21-9.42055-21-21V44.51082c0-11.57945,9.42065-21,21-21H466.44647m0-18H38.99993C17.46087,5.51082-.00007,22.97171-.00007,44.51082V229.48926C-.00007,251.02837,17.46087,268.48926,38.99993,268.48926H466.44647c21.53906,0,39-17.46089,39-39V44.51082c0-21.53911-17.46094-39-39-39h0Z"/>
  </g>
  <g>
    <path class="cls-2" d="M197.11444,140.95391c0,5.03906-.89062,9.45703-2.67188,13.25391s-4.33008,6.72656-7.64648,8.78906-7.11914,3.09375-11.4082,3.09375c-4.24219,0-8.02734-1.01953-11.35547-3.05859s-5.90625-4.95117-7.73438-8.73633-2.75391-8.13867-2.77734-13.06055v-2.53125c0-5.03906,.9082-9.47461,2.72461-13.30664s4.38281-6.77344,7.69922-8.82422,7.10742-3.07617,11.37305-3.07617,8.05664,1.02539,11.37305,3.07617,5.88281,4.99219,7.69922,8.82422,2.72461,8.25586,2.72461,13.27148v2.28516Zm-10.6875-2.32031c0-5.36719-.96094-9.44531-2.88281-12.23438s-4.66406-4.18359-8.22656-4.18359c-3.53906,0-6.26953,1.37695-8.19141,4.13086s-2.89453,6.79102-2.91797,12.11133v2.49609c0,5.22656,.96094,9.28125,2.88281,12.16406s4.6875,4.32422,8.29688,4.32422c3.53906,0,6.25781-1.38867,8.15625-4.16602s2.85938-6.82617,2.88281-12.14648v-2.49609Z"/>
    <path class="cls-2" d="M219.64569,147.35234v18.03516h-10.54688v-51.1875h19.96875c3.84375,0,7.22461,.70312,10.14258,2.10938s5.16211,3.4043,6.73242,5.99414,2.35547,5.53711,2.35547,8.8418c0,5.01562-1.7168,8.9707-5.15039,11.86523s-8.18555,4.3418-14.25586,4.3418h-9.24609Zm0-8.54297h9.42188c2.78906,0,4.91602-.65625,6.38086-1.96875s2.19727-3.1875,2.19727-5.625c0-2.50781-.73828-4.53516-2.21484-6.08203s-3.51562-2.34375-6.11719-2.39062h-9.66797v16.06641Z"/>
    <path class="cls-2" d="M290.65643,143.20391h-20.25v13.71094h23.76562v8.47266h-34.3125v-51.1875h34.24219v8.54297h-23.69531v12.19922h20.25v8.26172Z"/>
    <path class="cls-2" d="M346.30487,165.3875h-10.54688l-20.53125-33.67969v33.67969h-10.54688v-51.1875h10.54688l20.56641,33.75v-33.75h10.51172v51.1875Z"/>
  </g>
</svg>