<?xml version="1.0" encoding="UTF-8"?>
<svg id="Layer_1" data-name="Layer 1" xmlns="http://www.w3.org/2000/svg" viewBox="0 0 699.20093 274">
  <defs>
    <style>
      .cls-1 {
        fill: #d7b62e;
      }

      .cls-2 {
        fill: #495866;
      }
    </style>
  </defs>
  <g>
    <rect class="cls-1" x="-.00005" y="5.51079" width="699.20107" height="262.9785" rx="39" ry="39"/>
    <path class="cls-2" d="M660.20111,23.51081c11.57935,0,21,9.42053,21,21V229.4892c0,11.57947-9.42065,21-21,21H38.99993c-11.57935,0-21-9.42053-21-21V44.51081c0-11.57947,9.42065-21,21-21H660.20111m0-18H38.99993C17.46087,5.51081-.00007,22.97174-.00007,44.51081V229.4892C-.00007,251.02839,17.46087,268.4892,38.99993,268.4892H660.20111c21.53906,0,39-17.46082,39-39V44.51081c0-21.53906-17.46094-39-39-39h0Z"/>
  </g>
  <g>
    <path class="cls-2" d="M205.93402,99.10273h-20.25v13.71094h23.76562v8.47266h-34.3125v-51.1875h34.24219v8.54297h-23.69531v12.19922h20.25v8.26172Z"/>
    <path class="cls-2" d="M238.27386,87.74726l9.59766-17.64844h12.12891l-14.90625,25.38281,15.29297,25.80469h-12.26953l-9.84375-17.92969-9.84375,17.92969h-12.26953l15.29297-25.80469-14.90625-25.38281h12.12891l9.59766,17.64844Z"/>
    <path class="cls-2" d="M280.56195,103.25116v18.03516h-10.54688v-51.1875h19.96875c3.84375,0,7.22461,.70312,10.14258,2.10938s5.16211,3.4043,6.73242,5.99414,2.35547,5.53711,2.35547,8.8418c0,5.01562-1.7168,8.9707-5.15039,11.86523s-8.18555,4.3418-14.25586,4.3418h-9.24609Zm0-8.54297h9.42188c2.78906,0,4.91602-.65625,6.38086-1.96875s2.19727-3.1875,2.19727-5.625c0-2.50781-.73828-4.53516-2.21484-6.08203s-3.51562-2.34375-6.11719-2.39062h-9.66797v16.06641Z"/>
    <path class="cls-2" d="M331.32366,112.81366h22.39453v8.47266h-32.94141v-51.1875h10.54688v42.71484Z"/>
    <path class="cls-2" d="M403.88226,96.85273c0,5.03906-.89062,9.45703-2.67188,13.25391s-4.33008,6.72656-7.64648,8.78906-7.11914,3.09375-11.4082,3.09375c-4.24219,0-8.02734-1.01953-11.35547-3.05859s-5.90625-4.95117-7.73438-8.73633-2.75391-8.13867-2.77734-13.06055v-2.53125c0-5.03906,.9082-9.47461,2.72461-13.30664s4.38281-6.77344,7.69922-8.82422,7.10742-3.07617,11.37305-3.07617,8.05664,1.02539,11.37305,3.07617,5.88281,4.99219,7.69922,8.82422,2.72461,8.25586,2.72461,13.27148v2.28516Zm-10.6875-2.32031c0-5.36719-.96094-9.44531-2.88281-12.23438s-4.66406-4.18359-8.22656-4.18359c-3.53906,0-6.26953,1.37695-8.19141,4.13086s-2.89453,6.79102-2.91797,12.11133v2.49609c0,5.22656,.96094,9.28125,2.88281,12.16406s4.6875,4.32422,8.29688,4.32422c3.53906,0,6.25781-1.38867,8.15625-4.16602s2.85938-6.82617,2.88281-12.14648v-2.49609Z"/>
    <path class="cls-2" d="M434.81488,102.54804h-8.40234v18.73828h-10.54688v-51.1875h19.01953c6.04688,0,10.71094,1.34766,13.99219,4.04297s4.92188,6.50391,4.92188,11.42578c0,3.49219-.75586,6.4043-2.26758,8.73633s-3.80273,4.18945-6.87305,5.57227l11.07422,20.91797v.49219h-11.32031l-9.59766-18.73828Zm-8.40234-8.54297h8.50781c2.64844,0,4.69922-.67383,6.15234-2.02148s2.17969-3.20508,2.17969-5.57227c0-2.41406-.68555-4.3125-2.05664-5.69531s-3.47461-2.07422-6.31055-2.07422h-8.47266v15.36328Z"/>
    <path class="cls-2" d="M496.93206,99.10273h-20.25v13.71094h23.76562v8.47266h-34.3125v-51.1875h34.24219v8.54297h-23.69531v12.19922h20.25v8.26172Z"/>
    <path class="cls-2" d="M162.12933,190.25116v18.03516h-10.54688v-51.1875h19.96875c3.84375,0,7.22461,.70312,10.14258,2.10938s5.16211,3.4043,6.73242,5.99414,2.35547,5.53711,2.35547,8.8418c0,5.01562-1.7168,8.9707-5.15039,11.86523s-8.18555,4.3418-14.25586,4.3418h-9.24609Zm0-8.54297h9.42188c2.78906,0,4.91602-.65625,6.38086-1.96875s2.19727-3.1875,2.19727-5.625c0-2.50781-.73828-4.53516-2.21484-6.08203s-3.51562-2.34375-6.11719-2.39062h-9.66797v16.06641Z"/>
    <path class="cls-2" d="M221.29339,189.54804h-8.40234v18.73828h-10.54688v-51.1875h19.01953c6.04688,0,10.71094,1.34766,13.99219,4.04297s4.92188,6.50391,4.92188,11.42578c0,3.49219-.75586,6.4043-2.26758,8.73633s-3.80273,4.18945-6.87305,5.57227l11.07422,20.91797v.49219h-11.32031l-9.59766-18.73828Zm-8.40234-8.54297h8.50781c2.64844,0,4.69922-.67383,6.15234-2.02148s2.17969-3.20508,2.17969-5.57227c0-2.41406-.68555-4.3125-2.05664-5.69531s-3.47461-2.07422-6.31055-2.07422h-8.47266v15.36328Z"/>
    <path class="cls-2" d="M294.6596,183.85273c0,5.03906-.89062,9.45703-2.67188,13.25391s-4.33008,6.72656-7.64648,8.78906-7.11914,3.09375-11.4082,3.09375c-4.24219,0-8.02734-1.01953-11.35547-3.05859s-5.90625-4.95117-7.73438-8.73633-2.75391-8.13867-2.77734-13.06055v-2.53125c0-5.03906,.9082-9.47461,2.72461-13.30664s4.38281-6.77344,7.69922-8.82422,7.10742-3.07617,11.37305-3.07617,8.05664,1.02539,11.37305,3.07617,5.88281,4.99219,7.69922,8.82422,2.72461,8.25586,2.72461,13.27148v2.28516Zm-10.6875-2.32031c0-5.36719-.96094-9.44531-2.88281-12.23438s-4.66406-4.18359-8.22656-4.18359c-3.53906,0-6.26953,1.37695-8.19141,4.13086s-2.89453,6.79102-2.91797,12.11133v2.49609c0,5.22656,.96094,9.28125,2.88281,12.16406s4.6875,4.32422,8.29688,4.32422c3.53906,0,6.25781-1.38867,8.15625-4.16602s2.85938-6.82617,2.88281-12.14648v-2.49609Z"/>
    <path class="cls-2" d="M306.64398,208.28632v-51.1875h15.75c4.5,0,8.52539,1.01367,12.07617,3.04102s6.32227,4.91016,8.31445,8.64844,2.98828,7.98633,2.98828,12.74414v2.35547c0,4.75781-.97852,8.98828-2.93555,12.69141s-4.7168,6.57422-8.2793,8.61328-7.58203,3.07031-12.05859,3.09375h-15.85547Zm10.54688-42.64453v34.17188h5.09766c4.125,0,7.27734-1.34766,9.45703-4.04297s3.29297-6.55078,3.33984-11.56641v-2.70703c0-5.20312-1.07812-9.14648-3.23438-11.83008s-5.30859-4.02539-9.45703-4.02539h-5.20312Z"/>
    <path class="cls-2" d="M396.49945,157.09882v33.71484c0,5.60156-1.75195,10.03125-5.25586,13.28906s-8.29102,4.88672-14.36133,4.88672c-5.97656,0-10.72266-1.58203-14.23828-4.74609s-5.30859-7.51172-5.37891-13.04297v-34.10156h10.54688v33.78516c0,3.35156,.80273,5.79492,2.4082,7.33008s3.82617,2.30273,6.66211,2.30273c5.92969,0,8.94141-3.11719,9.03516-9.35156v-34.06641h10.58203Z"/>
    <path class="cls-2" d="M449.65081,191.23554c-.39844,5.50781-2.43164,9.84375-6.09961,13.00781s-8.50195,4.74609-14.50195,4.74609c-6.5625,0-11.72461-2.20898-15.48633-6.62695s-5.64258-10.48242-5.64258-18.19336v-3.12891c0-4.92188,.86719-9.25781,2.60156-13.00781s4.21289-6.62695,7.43555-8.63086,6.9668-3.00586,11.23242-3.00586c5.90625,0,10.66406,1.58203,14.27344,4.74609s5.69531,7.60547,6.25781,13.32422h-10.54688c-.25781-3.30469-1.17773-5.70117-2.75977-7.18945s-3.99023-2.23242-7.22461-2.23242c-3.51562,0-6.14648,1.25977-7.89258,3.7793s-2.64258,6.42773-2.68945,11.72461v3.86719c0,5.53125,.83789,9.57422,2.51367,12.12891s4.31836,3.83203,7.92773,3.83203c3.25781,0,5.68945-.74414,7.29492-2.23242s2.52539-3.79102,2.75977-6.9082h10.54688Z"/>
    <path class="cls-2" d="M498.40863,165.64179h-15.67969v42.64453h-10.54688v-42.64453h-15.46875v-8.54297h41.69531v8.54297Z"/>
    <path class="cls-2" d="M534.72113,194.85663c0-1.99219-.70312-3.52148-2.10938-4.58789s-3.9375-2.19141-7.59375-3.375-6.55078-2.34961-8.68359-3.49805c-5.8125-3.14062-8.71875-7.37109-8.71875-12.69141,0-2.76562,.7793-5.23242,2.33789-7.40039s3.79688-3.86133,6.71484-5.08008,6.19336-1.82812,9.82617-1.82812c3.65625,0,6.91406,.66211,9.77344,1.98633s5.08008,3.19336,6.66211,5.60742,2.37305,5.15625,2.37305,8.22656h-10.54688c0-2.34375-.73828-4.16602-2.21484-5.4668s-3.55078-1.95117-6.22266-1.95117c-2.57812,0-4.58203,.54492-6.01172,1.63477s-2.14453,2.52539-2.14453,4.30664c0,1.66406,.83789,3.05859,2.51367,4.18359s4.14258,2.17969,7.40039,3.16406c6,1.80469,10.37109,4.04297,13.11328,6.71484s4.11328,6,4.11328,9.98438c0,4.42969-1.67578,7.9043-5.02734,10.42383s-7.86328,3.7793-13.53516,3.7793c-3.9375,0-7.52344-.7207-10.75781-2.16211s-5.70117-3.41602-7.40039-5.92383-2.54883-5.41406-2.54883-8.71875h10.58203c0,5.64844,3.375,8.47266,10.125,8.47266,2.50781,0,4.46484-.50977,5.87109-1.5293s2.10938-2.44336,2.10938-4.27148Z"/>
  </g>
</svg>