<?xml version="1.0" encoding="UTF-8"?>
<svg id="Layer_1" data-name="Layer 1" xmlns="http://www.w3.org/2000/svg" viewBox="0 0 760 270">
  <defs>
    <style>
      .cls-1 {
        fill: #d7b62e;
      }

      .cls-2 {
        fill: #495866;
      }
    </style>
  </defs>
  <g>
    <rect class="cls-1" x=".91508" y="3.51075" width="758.16983" height="262.9785" rx="39" ry="39"/>
    <path class="cls-2" d="M720.08483,21.51071c11.57935,0,21,9.42057,21,21V227.48929c0,11.57942-9.42065,21-21,21H39.91503c-11.57947,0-21-9.42058-21-21V42.51071c0-11.57943,9.42053-21,21-21H720.08483m0-18H39.91503C18.37597,3.51071,.91503,20.97171,.91503,42.51071V227.48929c0,21.539,17.46094,39,39,39H720.08483c21.53931,0,39-17.461,39-39V42.51071c0-21.539-17.46069-39-39-39h0Z"/>
  </g>
  <g>
    <path class="cls-2" d="M336.28942,151.73889h-18.49219l-3.51562,10.54688h-11.21484l19.05469-51.1875h9.77344l19.16016,51.1875h-11.21484l-3.55078-10.54688Zm-15.64453-8.54297h12.79688l-6.43359-19.16016-6.36328,19.16016Z"/>
    <path class="cls-2" d="M360.15661,162.28576v-51.1875h15.75c4.5,0,8.52539,1.01367,12.07617,3.04102s6.32227,4.91016,8.31445,8.64844,2.98828,7.98633,2.98828,12.74414v2.35547c0,4.75781-.97852,8.98828-2.93555,12.69141s-4.7168,6.57422-8.2793,8.61328-7.58203,3.07031-12.05859,3.09375h-15.85547Zm10.54688-42.64453v34.17188h5.09766c4.125,0,7.27734-1.34766,9.45703-4.04297s3.29297-6.55078,3.33984-11.56641v-2.70703c0-5.20312-1.07812-9.14648-3.23438-11.83008s-5.30859-4.02539-9.45703-4.02539h-5.20312Z"/>
    <path class="cls-2" d="M411.26892,162.28576v-51.1875h15.75c4.5,0,8.52539,1.01367,12.07617,3.04102s6.32227,4.91016,8.31445,8.64844,2.98828,7.98633,2.98828,12.74414v2.35547c0,4.75781-.97852,8.98828-2.93555,12.69141s-4.7168,6.57422-8.2793,8.61328-7.58203,3.07031-12.05859,3.09375h-15.85547Zm10.54688-42.64453v34.17188h5.09766c4.125,0,7.27734-1.34766,9.45703-4.04297s3.29297-6.55078,3.33984-11.56641v-2.70703c0-5.20312-1.07812-9.14648-3.23438-11.83008s-5.30859-4.02539-9.45703-4.02539h-5.20312Z"/>
  </g>
</svg>