<?xml version="1.0" encoding="UTF-8"?><svg id="a" xmlns="http://www.w3.org/2000/svg" viewBox="0 0 300 300"><defs><style>.b{fill:#d7b62e;}</style></defs><path class="b" d="M149.99999,238.92271c6.43971,.00085,11.85987,4.82059,12.61332,11.21607l.08892,1.48617v12.70224c-.00778,7.01525-5.70106,12.69594-12.71632,12.68816-6.42957-.00715-11.83986-4.81742-12.59925-11.20199l-.08892-1.48617v-12.70224c0-7.01525,5.68698-12.70224,12.70224-12.70224Z"/><path class="b" d="M230.18923,212.37503l1.19401,1.05429,8.89158,8.89158c4.9521,4.96896,4.93841,13.01155-.03055,17.96365-4.52186,4.50653-11.68601,4.95665-16.7364,1.0516l-1.19401-1.05429-8.89158-8.89158c-4.96484-4.95622-4.97184-12.99883-.01563-17.96367,4.10917-4.11632,10.48915-4.9158,15.48696-1.94073l1.29562,.88915Z"/><path class="b" d="M86.57771,213.42932c4.52498,4.5254,4.97677,11.71039,1.05429,16.76695l-1.05429,1.19401-8.89157,8.89158c-4.96896,4.9521-13.01156,4.93841-17.96366-.03055-4.50652-4.52186-4.95666-11.68601-1.05159-16.7364l1.05429-1.19401,8.89157-8.89158c4.96023-4.95874,13.00074-4.95874,17.96096,0Z"/><path class="b" d="M48.38208,137.30479c7.01525,.00778,12.69593,5.70107,12.68815,12.71632-.00713,6.42957-4.81742,11.83986-11.20198,12.59925l-1.48616,.08892h-12.70224c-7.01525-.00778-12.69593-5.70107-12.68815-12.71632,.00713-6.42957,4.81742-11.83986,11.20198-12.59925l1.48616-.08892h12.70224Z"/><path class="b" d="M264.32015,137.30479c7.01525,.00778,12.69594,5.70106,12.68816,12.71632-.00715,6.42957-4.81742,11.83986-11.20199,12.59925l-1.48617,.08892h-12.70224c-7.01525-.00778-12.69594-5.70106-12.68816-12.71632,.00715-6.42957,4.81742-11.83986,11.20199-12.59925l1.48617-.08892h12.70224Z"/><path class="b" d="M76.49213,58.67793l1.19401,1.05429,8.89157,8.89157c4.95212,4.96894,4.93848,13.01154-.03045,17.96366-4.52188,4.50657-11.68609,4.95672-16.7365,1.0516l-1.19401-1.05429-8.89157-8.89157c-4.95462-4.96644-4.94503-13.00905,.02141-17.96367,4.10116-4.09139,10.45096-4.88968,15.43721-1.94074l1.29563,.88916h.0127Z"/><path class="b" d="M240.27481,59.73222c4.52499,4.52541,4.97676,11.71038,1.05429,16.76696l-1.05429,1.19401-8.89158,8.89157c-4.96896,4.9521-13.01155,4.93844-17.96365-.0305-4.50655-4.52188-4.9567-11.68606-1.0516-16.73646l1.05429-1.19401,8.89158-8.89157c4.96021-4.95872,13.00075-4.95872,17.96096,0Z"/><path class="b" d="M149.99999,22.98464c6.43972,.00085,11.85988,4.82059,12.61332,11.21608l.08892,1.48616v12.70224c-.00778,7.01525-5.70107,12.69593-12.71632,12.68815-6.42957-.00713-11.83986-4.81742-12.59925-11.20198l-.08892-1.48616v-12.70224c0-7.01525,5.68698-12.70224,12.70224-12.70224Z"/><path class="b" d="M149.99999,86.49584c35.07627-.00203,63.51285,28.43126,63.51488,63.50753,.00201,35.07627-28.43127,63.51283-63.50754,63.51487-34.00569,.00196-61.97918-26.78116-63.45503-60.75481l-.06351-2.75639,.06351-2.75639c1.47572-33.97081,29.44483-60.75285,63.44769-60.75481Z"/></svg>