<?xml version="1.0" encoding="UTF-8"?>
<svg id="Layer_1" data-name="Layer 1" xmlns="http://www.w3.org/2000/svg" viewBox="0 0 760 270">
  <defs>
    <style>
      .cls-1 {
        fill: #d7b62e;
      }

      .cls-2 {
        fill: #495866;
      }
    </style>
  </defs>
  <g>
    <rect class="cls-1" x=".91509" y="3.51073" width="758.16983" height="262.9785" rx="39" ry="39"/>
    <path class="cls-2" d="M720.08483,21.51065c11.57935,0,21,9.42056,21,21V227.4892c0,11.57947-9.42065,21-21,21H39.91503c-11.57947,0-21-9.42053-21-21V42.51065c0-11.57944,9.42053-21,21-21H720.08483m0-18H39.91503C18.37597,3.51065,.91503,20.97165,.91503,42.51065V227.4892c0,21.53918,17.46094,39,39,39H720.08483c21.53931,0,39-17.46082,39-39V42.51065c0-21.539-17.46069-39-39-39h0Z"/>
  </g>
  <g>
    <path class="cls-2" d="M195.51916,100.3476h-8.40234v18.73828h-10.54688v-51.1875h19.01953c6.04688,0,10.71094,1.34766,13.99219,4.04297s4.92188,6.50391,4.92188,11.42578c0,3.49219-.75586,6.4043-2.26758,8.73633s-3.80273,4.18945-6.87305,5.57227l11.07422,20.91797v.49219h-11.32031l-9.59766-18.73828Zm-8.40234-8.54297h8.50781c2.64844,0,4.69922-.67383,6.15234-2.02148s2.17969-3.20508,2.17969-5.57227c0-2.41406-.68555-4.3125-2.05664-5.69531s-3.47461-2.07422-6.31055-2.07422h-8.47266v15.36328Z"/>
    <path class="cls-2" d="M257.63635,96.90229h-20.25v13.71094h23.76562v8.47266h-34.3125v-51.1875h34.24219v8.54297h-23.69531v12.19922h20.25v8.26172Z"/>
    <path class="cls-2" d="M313.63537,94.65229c0,4.78125-.77344,8.93555-2.32031,12.46289s-3.69141,6.35742-6.43359,8.49023l8.50781,6.67969-6.71484,5.94141-10.89844-8.75391c-1.24219,.21094-2.53125,.31641-3.86719,.31641-4.24219,0-8.02734-1.01953-11.35547-3.05859s-5.90625-4.95117-7.73438-8.73633-2.75391-8.13867-2.77734-13.06055v-2.53125c0-5.03906,.9082-9.47461,2.72461-13.30664s4.38281-6.77344,7.69922-8.82422,7.10742-3.07617,11.37305-3.07617,8.05664,1.02539,11.37305,3.07617,5.88281,4.99219,7.69922,8.82422,2.72461,8.25586,2.72461,13.27148v2.28516Zm-10.6875-2.32031c0-5.36719-.96094-9.44531-2.88281-12.23438s-4.66406-4.18359-8.22656-4.18359c-3.53906,0-6.26953,1.37695-8.19141,4.13086s-2.89453,6.79102-2.91797,12.11133v2.49609c0,5.22656,.96094,9.28125,2.88281,12.16406s4.6875,4.32422,8.29688,4.32422c3.53906,0,6.25781-1.38867,8.15625-4.16602s2.85938-6.82617,2.88281-12.14648v-2.49609Z"/>
    <path class="cls-2" d="M364.43225,67.89838v33.71484c0,5.60156-1.75195,10.03125-5.25586,13.28906s-8.29102,4.88672-14.36133,4.88672c-5.97656,0-10.72266-1.58203-14.23828-4.74609s-5.30859-7.51172-5.37891-13.04297v-34.10156h10.54688v33.78516c0,3.35156,.80273,5.79492,2.4082,7.33008s3.82617,2.30273,6.66211,2.30273c5.92969,0,8.94141-3.11719,9.03516-9.35156v-34.06641h10.58203Z"/>
    <path class="cls-2" d="M408.19787,96.90229h-20.25v13.71094h23.76562v8.47266h-34.3125v-51.1875h34.24219v8.54297h-23.69531v12.19922h20.25v8.26172Z"/>
    <path class="cls-2" d="M448.7633,105.65619c0-1.99219-.70312-3.52148-2.10938-4.58789s-3.9375-2.19141-7.59375-3.375-6.55078-2.34961-8.68359-3.49805c-5.8125-3.14062-8.71875-7.37109-8.71875-12.69141,0-2.76562,.7793-5.23242,2.33789-7.40039s3.79688-3.86133,6.71484-5.08008,6.19336-1.82812,9.82617-1.82812c3.65625,0,6.91406,.66211,9.77344,1.98633s5.08008,3.19336,6.66211,5.60742,2.37305,5.15625,2.37305,8.22656h-10.54688c0-2.34375-.73828-4.16602-2.21484-5.4668s-3.55078-1.95117-6.22266-1.95117c-2.57812,0-4.58203,.54492-6.01172,1.63477s-2.14453,2.52539-2.14453,4.30664c0,1.66406,.83789,3.05859,2.51367,4.18359s4.14258,2.17969,7.40039,3.16406c6,1.80469,10.37109,4.04297,13.11328,6.71484s4.11328,6,4.11328,9.98438c0,4.42969-1.67578,7.9043-5.02734,10.42383s-7.86328,3.7793-13.53516,3.7793c-3.9375,0-7.52344-.7207-10.75781-2.16211s-5.70117-3.41602-7.40039-5.92383-2.54883-5.41406-2.54883-8.71875h10.58203c0,5.64844,3.375,8.47266,10.125,8.47266,2.50781,0,4.46484-.50977,5.87109-1.5293s2.10938-2.44336,2.10938-4.27148Z"/>
    <path class="cls-2" d="M509.33361,76.44135h-15.67969v42.64453h-10.54688v-42.64453h-15.46875v-8.54297h41.69531v8.54297Z"/>
    <path class="cls-2" d="M568.70373,108.53901h-18.49219l-3.51562,10.54688h-11.21484l19.05469-51.1875h9.77344l19.16016,51.1875h-11.21484l-3.55078-10.54688Zm-15.64453-8.54297h12.79688l-6.43359-19.16016-6.36328,19.16016Z"/>
    <path class="cls-2" d="M301.31408,181.65229c0,4.78125-.77344,8.93555-2.32031,12.46289s-3.69141,6.35742-6.43359,8.49023l8.50781,6.67969-6.71484,5.94141-10.89844-8.75391c-1.24219,.21094-2.53125,.31641-3.86719,.31641-4.24219,0-8.02734-1.01953-11.35547-3.05859s-5.90625-4.95117-7.73438-8.73633-2.75391-8.13867-2.77734-13.06055v-2.53125c0-5.03906,.9082-9.47461,2.72461-13.30664s4.38281-6.77344,7.69922-8.82422,7.10742-3.07617,11.37305-3.07617,8.05664,1.02539,11.37305,3.07617,5.88281,4.99219,7.69922,8.82422,2.72461,8.25586,2.72461,13.27148v2.28516Zm-10.6875-2.32031c0-5.36719-.96094-9.44531-2.88281-12.23438s-4.66406-4.18359-8.22656-4.18359c-3.53906,0-6.26953,1.37695-8.19141,4.13086s-2.89453,6.79102-2.91797,12.11133v2.49609c0,5.22656,.96094,9.28125,2.88281,12.16406s4.6875,4.32422,8.29688,4.32422c3.53906,0,6.25781-1.38867,8.15625-4.16602s2.85938-6.82617,2.88281-12.14648v-2.49609Z"/>
    <path class="cls-2" d="M352.11096,154.89838v33.71484c0,5.60156-1.75195,10.03125-5.25586,13.28906s-8.29102,4.88672-14.36133,4.88672c-5.97656,0-10.72266-1.58203-14.23828-4.74609s-5.30859-7.51172-5.37891-13.04297v-34.10156h10.54688v33.78516c0,3.35156,.80273,5.79492,2.4082,7.33008s3.82617,2.30273,6.66211,2.30273c5.92969,0,8.94141-3.11719,9.03516-9.35156v-34.06641h10.58203Z"/>
    <path class="cls-2" d="M407.12561,181.65229c0,5.03906-.89062,9.45703-2.67188,13.25391s-4.33008,6.72656-7.64648,8.78906-7.11914,3.09375-11.4082,3.09375c-4.24219,0-8.02734-1.01953-11.35547-3.05859s-5.90625-4.95117-7.73438-8.73633-2.75391-8.13867-2.77734-13.06055v-2.53125c0-5.03906,.9082-9.47461,2.72461-13.30664s4.38281-6.77344,7.69922-8.82422,7.10742-3.07617,11.37305-3.07617,8.05664,1.02539,11.37305,3.07617,5.88281,4.99219,7.69922,8.82422,2.72461,8.25586,2.72461,13.27148v2.28516Zm-10.6875-2.32031c0-5.36719-.96094-9.44531-2.88281-12.23438s-4.66406-4.18359-8.22656-4.18359c-3.53906,0-6.26953,1.37695-8.19141,4.13086s-2.89453,6.79102-2.91797,12.11133v2.49609c0,5.22656,.96094,9.28125,2.88281,12.16406s4.6875,4.32422,8.29688,4.32422c3.53906,0,6.25781-1.38867,8.15625-4.16602s2.85938-6.82617,2.88281-12.14648v-2.49609Z"/>
    <path class="cls-2" d="M454.65295,163.44135h-15.67969v42.64453h-10.54688v-42.64453h-15.46875v-8.54297h41.69531v8.54297Z"/>
    <path class="cls-2" d="M495.78186,183.90229h-20.25v13.71094h23.76562v8.47266h-34.3125v-51.1875h34.24219v8.54297h-23.69531v12.19922h20.25v8.26172Z"/>
  </g>
</svg>