<?xml version="1.0" encoding="UTF-8"?>
<svg id="Layer_1" data-name="Layer 1" xmlns="http://www.w3.org/2000/svg" viewBox="0 0 710 760">
  <defs>
    <style>
      .cls-1 {
        fill: #fff;
        stroke: #495866;
        stroke-linecap: round;
        stroke-linejoin: round;
        stroke-width: 18px;
      }
    </style>
  </defs>
  <rect class="cls-1" x="17.97425" y="560.48234" width="108.66161" height="183.24546" rx="22.14191" ry="22.14191"/>
  <rect class="cls-1" x="586.36443" y="560.48234" width="108.66161" height="183.24546" rx="22.14191" ry="22.14191" transform="translate(1281.39048 1304.21013) rotate(-180)"/>
  <polygon class="cls-1" points="642.93999 540.3708 642.63996 56.26034 66.29206 56.26034 66.59209 540.3708 45.52105 540.3708 45.52105 699.51655 148.37798 699.51655 148.37798 678.60993 561.45732 678.60993 561.45732 699.51655 664.31426 699.51655 664.31426 540.3708 642.93999 540.3708"/>
  <path class="cls-1" d="M598.24087,266.90283H109.0978c-10.05973,0-18.21475-8.06252-18.21475-18.00813l-.30347-143.57522c0-48.18524,39.51002-87.24709,88.2481-87.24709h349.07636c48.73808,0,88.2481,39.06185,88.2481,87.24709l.30347,143.57522c0,9.94562-8.15502,18.00813-18.21475,18.00813Z"/>
  <g>
    <polyline class="cls-1" points="140.23479 491.89204 106.22618 491.89204 106.22618 527.89204"/>
    <polyline class="cls-1" points="187.09075 520.64888 226.30749 587.39273 181.70238 587.39273"/>
  </g>
  <g>
    <polyline class="cls-1" points="566.99203 491.89204 602.99203 491.89204 602.99203 527.89204"/>
    <polyline class="cls-1" points="522.12746 520.64888 482.91072 587.39273 527.51584 587.39273"/>
  </g>
</svg>