<?xml version="1.0" encoding="UTF-8"?>
<svg id="Layer_1" data-name="Layer 1" xmlns="http://www.w3.org/2000/svg" viewBox="0 0 710 760">
  <defs>
    <style>
      .cls-1 {
        stroke-width: 18px;
      }

      .cls-1, .cls-2 {
        fill: #fff;
        stroke: #495866;
        stroke-linecap: round;
        stroke-linejoin: round;
      }

      .cls-2 {
        stroke-width: 17.18447px;
      }
    </style>
  </defs>
  <rect class="cls-1" x="18.16797" y="562.20703" width="108.66161" height="183.24546" rx="22.14191" ry="22.14191"/>
  <rect class="cls-1" x="584.77057" y="562.20703" width="108.66161" height="183.24546" rx="22.14191" ry="22.14191" transform="translate(1278.20276 1307.65951) rotate(-180)"/>
  <g>
    <path class="cls-1" d="M597.32804,266.17824H108.18497c-10.05973,0-18.21475-8.06252-18.21475-18.00813l-.30347-143.57522c0-48.18524,39.51002-87.24709,88.2481-87.24709h349.07636c48.73808,0,88.2481,39.06185,88.2481,87.24709l.30347,143.57522c0,9.94562-8.15502,18.00813-18.21475,18.00813Z"/>
    <rect class="cls-1" x="18.16797" y="562.20703" width="108.66161" height="183.24546" rx="22.14191" ry="22.14191"/>
    <rect class="cls-1" x="584.77057" y="562.20703" width="108.66161" height="183.24546" rx="22.14191" ry="22.14191" transform="translate(1278.20276 1307.65951) rotate(-180)"/>
    <polygon class="cls-1" points="642.48625 489.28416 642.48625 54.33016 66.13835 54.33016 66.13835 489.28416 45.0673 489.28416 45.0673 701.24124 147.92423 701.24124 147.92423 680.33462 561.00358 680.33462 561.00358 701.24124 663.86051 701.24124 663.86051 489.28416 642.48625 489.28416"/>
    <polyline class="cls-1" points="637.97789 511.86309 637.97789 533.94442 70.94992 533.94442 70.94992 509.4096"/>
    <g>
      <polyline class="cls-1" points="133.87557 635.87724 100.6574 635.87724 100.6574 600.06782"/>
      <polyline class="cls-1" points="560.73063 635.87724 593.94881 635.87724 593.94881 600.06782"/>
    </g>
    <line class="cls-2" x1="95.92334" y1="492.10639" x2="613.00448" y2="492.10639"/>
  </g>
  <path class="cls-1" d="M597.32804,266.17824H108.18497c-10.05973,0-18.21475-8.06252-18.21475-18.00813l-.30347-143.57522c0-48.18524,39.51002-87.24709,88.2481-87.24709h349.07636c48.73808,0,88.2481,39.06185,88.2481,87.24709l.30347,143.57522c0,9.94562-8.15502,18.00813-18.21475,18.00813Z"/>
  <path class="cls-1" d="M643.08802,490.89034V55.9363h-84.75745v96.79907c0,28.9129-23.4386,52.35144-52.3515,52.35144H199.85383c-28.9129,0-52.35144-23.43854-52.35144-52.35144V55.9363H66.74012V490.89034h-21.07104v211.95703h102.85693v-20.90662h413.07935v20.90662h102.85693v-211.95703h-21.37427Z"/>
  <polyline class="cls-1" points="637.97789 511.86309 637.97789 533.94442 70.94992 533.94442 70.94992 509.4096"/>
  <g>
    <polyline class="cls-1" points="133.87557 635.87724 100.6574 635.87724 100.6574 600.06782"/>
    <polyline class="cls-1" points="560.73063 635.87724 593.94881 635.87724 593.94881 600.06782"/>
  </g>
  <line class="cls-2" x1="95.92334" y1="492.10639" x2="613.00448" y2="492.10639"/>
</svg>