<?xml version="1.0" encoding="UTF-8"?>
<svg id="Layer_1" data-name="Layer 1" xmlns="http://www.w3.org/2000/svg" viewBox="0 0 270 270">
  <defs>
    <style>
      .cls-1 {
        fill: #d7b62e;
      }

      .cls-2 {
        fill: #495866;
      }
    </style>
  </defs>
  <path class="cls-1" d="M237.72152,71.47421c.00127,22.04012-17.86474,39.9082-39.90486,39.90948-22.04012,.00126-39.9082-17.86475-39.90948-39.90487-.00123-21.36743,16.82791-38.94453,38.1752-39.87187l1.73197-.03991,1.73197,.03991c21.34551,.92727,38.17397,18.50162,38.1752,39.86726Z"/>
  <path class="cls-2" d="M229.40239,266.48842H40.5977c-20.44971,0-37.08691-16.63672-37.08691-37.08594V40.59779C3.51079,20.1476,20.14799,3.51088,40.5977,3.51088H229.40239c20.4502,0,37.08691,16.63672,37.08691,37.08691V229.40248c0,20.44922-16.63672,37.08594-37.08691,37.08594ZM40.5977,23.7394c-9.29541,0-16.85742,7.5625-16.85742,16.8584V229.40248c0,9.29492,7.56201,16.85742,16.85742,16.85742H229.40239c9.2959,0,16.8584-7.5625,16.8584-16.85742V40.59779c0-9.2959-7.5625-16.8584-16.8584-16.8584H40.5977Z"/>
</svg>