<?xml version="1.0" encoding="UTF-8"?>
<svg id="Layer_1" data-name="Layer 1" xmlns="http://www.w3.org/2000/svg" viewBox="0 0 650 700">
  <defs>
    <style>
      .cls-1 {
        fill: #fff;
      }

      .cls-2 {
        fill: #495866;
      }
    </style>
  </defs>
  <g>
    <rect class="cls-1" x="25.52543" y="510.37297" width="96.38121" height="162.53594" rx="19.63954" ry="19.63954"/>
    <path class="cls-2" d="M102.26712,681.9088H45.16507c-15.79199,0-28.63965-12.84766-28.63965-28.63965v-123.25684c0-15.7915,12.84766-28.63916,28.63965-28.63916h57.10205c15.79199,0,28.63965,12.84766,28.63965,28.63916v123.25684c0,15.79199-12.84766,28.63965-28.63965,28.63965Zm-57.10205-162.53564c-5.8667,0-10.63965,4.77295-10.63965,10.63916v123.25684c0,5.8667,4.77295,10.63965,10.63965,10.63965h57.10205c5.8667,0,10.63965-4.77295,10.63965-10.63965v-123.25684c0-5.86621-4.77295-10.63916-10.63965-10.63916H45.16507Z"/>
  </g>
  <g>
    <rect class="cls-1" x="528.09336" y="510.37297" width="96.38121" height="162.53594" rx="19.63954" ry="19.63954" transform="translate(1152.56793 1183.28189) rotate(-180)"/>
    <path class="cls-2" d="M604.83499,681.9088h-57.10205c-15.79199,0-28.63965-12.84766-28.63965-28.63965v-123.25684c0-15.7915,12.84766-28.63916,28.63965-28.63916h57.10205c15.79199,0,28.63965,12.84766,28.63965,28.63916v123.25684c0,15.79199-12.84766,28.63965-28.63965,28.63965Zm-57.10205-162.53564c-5.8667,0-10.63965,4.77295-10.63965,10.63916v123.25684c0,5.8667,4.77295,10.63965,10.63965,10.63965h57.10205c5.8667,0,10.63965-4.77295,10.63965-10.63965v-123.25684c0-5.86621-4.77295-10.63916-10.63965-10.63916h-57.10205Z"/>
  </g>
  <g>
    <g>
      <path class="cls-1" d="M539.23164,247.79992H105.36915c-8.92283,0-16.15621-7.15133-16.15621-15.97294l-.26918-127.34904c0-42.73958,35.04479-77.38685,78.27473-77.38685H476.84394c43.22994,0,78.27473,34.64727,78.27473,77.38685l.26918,127.34904c0,8.82161-7.23338,15.97294-16.15621,15.97294Z"/>
      <path class="cls-2" d="M539.23147,256.79992H105.36917c-13.87109,0-25.15625-11.20312-25.15625-24.97314l-.26904-127.32959c0-47.65332,39.15137-86.40625,87.27441-86.40625H476.84378c48.12354,0,87.2749,38.75293,87.2749,86.38721l.26904,127.32959c0,13.78906-11.28516,24.99219-25.15625,24.99219ZM167.21829,36.09093c-38.19824,0-69.27441,30.67822-69.27441,68.38721l.26904,127.32959c0,3.86426,3.21045,6.99219,7.15625,6.99219h433.8623c3.9458,0,7.15625-3.12793,7.15625-6.97314l-.26904-127.32959c0-37.72803-31.07666-68.40625-69.2749-68.40625H167.21829Z"/>
    </g>
    <g>
      <rect class="cls-1" x="25.52543" y="510.37297" width="96.38121" height="162.53594" rx="19.63954" ry="19.63954"/>
      <path class="cls-2" d="M102.26712,681.9088H45.16507c-15.79199,0-28.63965-12.84766-28.63965-28.63965v-123.25684c0-15.7915,12.84766-28.63916,28.63965-28.63916h57.10205c15.79199,0,28.63965,12.84766,28.63965,28.63916v123.25684c0,15.79199-12.84766,28.63965-28.63965,28.63965Zm-57.10205-162.53564c-5.8667,0-10.63965,4.77295-10.63965,10.63916v123.25684c0,5.8667,4.77295,10.63965,10.63965,10.63965h57.10205c5.8667,0,10.63965-4.77295,10.63965-10.63965v-123.25684c0-5.86621-4.77295-10.63916-10.63965-10.63916H45.16507Z"/>
    </g>
    <g>
      <rect class="cls-1" x="528.09336" y="510.37297" width="96.38121" height="162.53594" rx="19.63954" ry="19.63954" transform="translate(1152.56793 1183.28189) rotate(-180)"/>
      <path class="cls-2" d="M604.83499,681.9088h-57.10205c-15.79199,0-28.63965-12.84766-28.63965-28.63965v-123.25684c0-15.7915,12.84766-28.63916,28.63965-28.63916h57.10205c15.79199,0,28.63965,12.84766,28.63965,28.63916v123.25684c0,15.79199-12.84766,28.63965-28.63965,28.63965Zm-57.10205-162.53564c-5.8667,0-10.63965,4.77295-10.63965,10.63916v123.25684c0,5.8667,4.77295,10.63965,10.63965,10.63965h57.10205c5.8667,0,10.63965-4.77295,10.63965-10.63965v-123.25684c0-5.86621-4.77295-10.63916-10.63965-10.63916h-57.10205Z"/>
    </g>
    <g>
      <polygon class="cls-1" points="579.28629 445.69149 579.28629 59.89388 68.07443 59.89388 68.07443 445.69149 49.38473 445.69149 49.38473 633.69421 140.61727 633.69421 140.61727 615.15036 507.0124 615.15036 507.0124 633.69421 598.24494 633.69421 598.24494 445.69149 579.28629 445.69149"/>
      <path class="cls-2" d="M598.24514,642.69445h-91.23291c-4.9707,0-9-4.0293-9-9v-9.54395H149.61721v9.54395c0,4.9707-4.0293,9-9,9H49.38479c-4.9707,0-9-4.0293-9-9v-188.00293c0-4.9707,4.0293-9,9-9h9.68945V59.89367c0-4.9707,4.0293-9,9-9h511.21191c4.9707,0,9,4.0293,9,9V436.69152h9.95898c4.9707,0,9,4.0293,9,9v188.00293c0,4.9707-4.0293,9-9,9Zm-82.23291-18h73.23291v-170.00293h-9.95898c-4.9707,0-9-4.0293-9-9V68.89367H77.07425V445.69152c0,4.9707-4.0293,9-9,9h-9.68945v170.00293h73.23242v-9.54395c0-4.9707,4.0293-9,9-9H507.01223c4.9707,0,9,4.0293,9,9v9.54395Z"/>
    </g>
    <g>
      <polyline class="cls-1" points="575.28745 465.71866 575.28745 485.30447 72.34222 485.30447 72.34222 463.54246"/>
      <path class="cls-2" d="M575.28762,494.30431H72.34231c-4.9707,0-9-4.0293-9-9v-21.76172c0-4.9707,4.0293-9,9-9s9,4.0293,9,9v12.76172h484.94531v-10.58545c0-4.9707,4.0293-9,9-9s9,4.0293,9,9v19.58545c0,4.9707-4.0293,9-9,9Z"/>
    </g>
    <g>
      <g>
        <polyline class="cls-1" points="128.15632 575.71733 98.6923 575.71733 98.6923 543.95492"/>
        <path class="cls-2" d="M128.15628,584.7174h-29.46387c-4.9707,0-9-4.0293-9-9v-31.7627c0-4.9707,4.0293-9,9-9s9,4.0293,9,9v22.7627h20.46387c4.9707,0,9,4.0293,9,9s-4.0293,9-9,9Z"/>
      </g>
      <g>
        <polyline class="cls-1" points="506.7703 575.71733 536.23431 575.71733 536.23431 543.95492"/>
        <path class="cls-2" d="M536.2344,584.7174h-29.46387c-4.9707,0-9-4.0293-9-9s4.0293-9,9-9h20.46387v-22.7627c0-4.9707,4.0293-9,9-9s9,4.0293,9,9v31.7627c0,4.9707-4.0293,9-9,9Z"/>
      </g>
    </g>
    <path class="cls-2" d="M553.13626,457.19494H94.49319c-4.9707,0-9-4.0293-9-9s4.0293-9,9-9h458.64307c4.9707,0,9,4.0293,9,9s-4.0293,9-9,9Z"/>
  </g>
  <g>
    <path class="cls-1" d="M539.23164,247.79992H105.36915c-8.92283,0-16.15621-7.15133-16.15621-15.97294l-.26918-127.34904c0-42.73958,35.04479-77.38685,78.27473-77.38685H476.84394c43.22994,0,78.27473,34.64727,78.27473,77.38685l.26918,127.34904c0,8.82161-7.23338,15.97294-16.15621,15.97294Z"/>
    <path class="cls-2" d="M539.23147,256.79992H105.36917c-13.87109,0-25.15625-11.20312-25.15625-24.97314l-.26904-127.32959c0-47.65332,39.15137-86.40625,87.27441-86.40625H476.84378c48.12354,0,87.2749,38.75293,87.2749,86.38721l.26904,127.32959c0,13.78906-11.28516,24.99219-25.15625,24.99219ZM167.21829,36.09093c-38.19824,0-69.27441,30.67822-69.27441,68.38721l.26904,127.32959c0,3.86426,3.21045,6.99219,7.15625,6.99219h433.8623c3.9458,0,7.15625-3.12793,7.15625-6.97314l-.26904-127.32959c0-37.72803-31.07666-68.40625-69.2749-68.40625H167.21829Z"/>
  </g>
  <g>
    <path class="cls-1" d="M579.82005,447.11615V61.3185h-75.17857v85.85931c0,25.64531-20.78968,46.43493-46.43499,46.43493H186.67803c-25.64531,0-46.43493-20.78963-46.43493-46.43493V61.3185H68.60819V447.11615h-18.6897v188.00268h91.23254v-18.54385H507.54616v18.54385h91.23254v-188.00268h-18.95865Z"/>
    <path class="cls-2" d="M598.77884,644.11876h-91.23291c-4.9707,0-9-4.0293-9-9v-9.54395H150.15091v9.54395c0,4.9707-4.0293,9-9,9H49.91848c-4.9707,0-9-4.0293-9-9v-188.00244c0-4.9707,4.0293-9,9-9h9.68994V61.31847c0-4.9707,4.0293-9,9-9h71.63477c4.9707,0,9,4.0293,9,9v85.85938c0,20.6416,16.79346,37.43506,37.43506,37.43506H458.20657c20.6416,0,37.43506-16.79346,37.43506-37.43506V61.31847c0-4.9707,4.0293-9,9-9h75.17822c4.9707,0,9,4.0293,9,9V438.11632h9.95898c4.9707,0,9,4.0293,9,9v188.00244c0,4.9707-4.0293,9-9,9Zm-82.23291-18h73.23291v-170.00244h-9.95898c-4.9707,0-9-4.0293-9-9V70.31847h-57.17822v76.85938c0,30.56689-24.86816,55.43506-55.43506,55.43506H186.67825c-30.56689,0-55.43506-24.86816-55.43506-55.43506V70.31847h-53.63477V447.11632c0,4.9707-4.0293,9-9,9h-9.68994v170.00244h73.23242v-9.54395c0-4.9707,4.0293-9,9-9H507.54593c4.9707,0,9,4.0293,9,9v9.54395Z"/>
  </g>
  <g>
    <polyline class="cls-1" points="575.28745 465.71866 575.28745 485.30447 72.34222 485.30447 72.34222 463.54246"/>
    <path class="cls-2" d="M575.28762,494.30431H72.34231c-4.9707,0-9-4.0293-9-9v-21.76172c0-4.9707,4.0293-9,9-9s9,4.0293,9,9v12.76172h484.94531v-10.58545c0-4.9707,4.0293-9,9-9s9,4.0293,9,9v19.58545c0,4.9707-4.0293,9-9,9Z"/>
  </g>
  <g>
    <g>
      <polyline class="cls-1" points="128.15632 575.71733 98.6923 575.71733 98.6923 543.95492"/>
      <path class="cls-2" d="M128.15628,584.7174h-29.46387c-4.9707,0-9-4.0293-9-9v-31.7627c0-4.9707,4.0293-9,9-9s9,4.0293,9,9v22.7627h20.46387c4.9707,0,9,4.0293,9,9s-4.0293,9-9,9Z"/>
    </g>
    <g>
      <polyline class="cls-1" points="506.7703 575.71733 536.23431 575.71733 536.23431 543.95492"/>
      <path class="cls-2" d="M536.2344,584.7174h-29.46387c-4.9707,0-9-4.0293-9-9s4.0293-9,9-9h20.46387v-22.7627c0-4.9707,4.0293-9,9-9s9,4.0293,9,9v31.7627c0,4.9707-4.0293,9-9,9Z"/>
    </g>
  </g>
  <path class="cls-2" d="M553.13626,457.19494H94.49319c-4.9707,0-9-4.0293-9-9s4.0293-9,9-9h458.64307c4.9707,0,9,4.0293,9,9s-4.0293,9-9,9Z"/>
</svg>