<?xml version="1.0" encoding="UTF-8"?>
<svg id="Layer_1" data-name="Layer 1" xmlns="http://www.w3.org/2000/svg" viewBox="0 0 850 700">
  <defs>
    <style>
      .cls-1 {
        fill: #495866;
      }
    </style>
  </defs>
  <path class="cls-1" d="M744.8076,678.80774c-55.34619,0-100.37354-45.02734-100.37354-100.37354s45.02734-100.37402,100.37354-100.37402,100.37354,45.02734,100.37354,100.37402-45.02734,100.37354-100.37354,100.37354Zm0-182.74756c-45.4209,0-82.37354,36.95264-82.37354,82.37402s36.95264,82.37354,82.37354,82.37354,82.37354-36.95264,82.37354-82.37354-36.95264-82.37402-82.37354-82.37402Z"/>
  <path class="cls-1" d="M196.5659,678.80774c-55.34619,0-100.37354-45.02734-100.37354-100.37354s45.02734-100.37402,100.37354-100.37402,100.37354,45.02734,100.37354,100.37402-45.02734,100.37354-100.37354,100.37354Zm0-182.74756c-45.4209,0-82.37354,36.95264-82.37354,82.37402s36.95264,82.37354,82.37354,82.37354,82.37354-36.95264,82.37354-82.37354-36.95264-82.37402-82.37354-82.37402Z"/>
  <path class="cls-1" d="M653.43406,633.12072H287.93943c-4.9707,0-9-4.0293-9-9s4.0293-9,9-9h365.49463c4.9707,0,9,4.0293,9,9s-4.0293,9-9,9Zm-548.2417,0H13.81883c-4.9707,0-9-4.0293-9-9V247.0094c-.06348-54.55176,24.67041-110.64404,67.86035-153.88428,22.1377-22.16357,47.68701-39.69189,75.93799-52.09814,29.96924-13.16113,61.47314-19.83447,93.63574-19.83447h96.09375c2.63477,0,5.13721,1.15479,6.84717,3.15918,1.70996,2.00488,2.45557,4.65771,2.04004,7.25977l-4.92188,30.82666c-.7832,4.9082-5.396,8.2583-10.30615,7.46826-4.9082-.7832-8.25244-5.39795-7.46875-10.30615l3.25879-20.40771h-85.54297c-29.65576,0-58.72412,6.16211-86.39844,18.31494-26.19189,11.50244-49.89111,27.76562-70.43994,48.33838-37.604,37.64746-60.04053,85.59766-62.39062,132.75635H228.03318l28.58154-179.00195c.7832-4.90869,5.39502-8.25146,10.30615-7.46875,4.90869,.78418,8.25244,5.39844,7.46875,10.30664l-29.79199,186.58301c-.69727,4.36768-4.46436,7.58105-8.88721,7.58105H22.81883v358.51855H105.19236c4.9707,0,9,4.0293,9,9s-4.0293,9-9,9Z"/>
  <path class="cls-1" d="M377.87059,633.12072h-.01123c-4.97021-.00586-8.99512-4.04004-8.98926-9.01074l.64941-553.2207h-102.80127c-4.9707,0-9-4.0293-9-9s4.0293-9,9-9h111.81201c2.38867,0,4.67969,.94971,6.36768,2.63965,1.68799,1.69043,2.63525,3.98193,2.63232,6.37109l-.66016,562.23145c-.00586,4.9668-4.03418,8.98926-8.99951,8.98926Z"/>
  <path class="cls-1" d="M836.18113,587.4342c-4.9707,0-9-4.0293-9-9v-141.48535H390.98729c-4.9707,0-9-4.0293-9-9s4.0293-9,9-9h445.19385c4.9707,0,9,4.0293,9,9v150.48535c0,4.9707-4.0293,9-9,9Z"/>
</svg>