<?xml version="1.0" encoding="UTF-8"?>
<svg id="Layer_1" data-name="Layer 1" xmlns="http://www.w3.org/2000/svg" viewBox="0 0 270 270">
  <defs>
    <style>
      .cls-1 {
        fill: #d7b62e;
      }

      .cls-2 {
        fill: #495866;
      }
    </style>
  </defs>
  <path class="cls-1" d="M32.27848,198.52579c-.00127-22.04012,17.86474-39.9082,39.90486-39.90948,22.04012-.00126,39.9082,17.86475,39.90948,39.90487,.00123,21.36743-16.82791,38.94453-38.1752,39.87187l-1.73197,.03991-1.73197-.03991c-21.34551-.92727-38.17397-18.50162-38.1752-39.86726Z"/>
  <path class="cls-2" d="M229.40273,266.48891H40.59755c-20.44971,0-37.08691-16.63672-37.08691-37.08594V40.5973C3.51064,20.14809,20.14784,3.51137,40.59755,3.51137H229.40273c20.44922,0,37.08643,16.63672,37.08643,37.08594V229.40297c0,20.44922-16.63721,37.08594-37.08643,37.08594ZM40.59755,23.73988c-9.29541,0-16.85742,7.5625-16.85742,16.85742V229.40297c0,9.29492,7.56201,16.85742,16.85742,16.85742H229.40273c9.29492,0,16.85693-7.5625,16.85693-16.85742V40.5973c0-9.29492-7.56201-16.85742-16.85693-16.85742H40.59755Z"/>
</svg>