<?xml version="1.0" encoding="UTF-8"?>
<svg id="Layer_1" data-name="Layer 1" xmlns="http://www.w3.org/2000/svg" viewBox="0 0 650 700">
  <defs>
    <style>
      .cls-1 {
        fill: #fff;
      }

      .cls-2 {
        fill: #495866;
      }
    </style>
  </defs>
  <g>
    <rect class="cls-1" x="24.73266" y="509.28673" width="96.38121" height="162.53594" rx="19.63954" ry="19.63954"/>
    <path class="cls-2" d="M101.47438,680.82278H44.37233c-15.79199,0-28.63965-12.84766-28.63965-28.63965v-123.25684c0-15.79199,12.84766-28.63965,28.63965-28.63965h57.10205c15.79199,0,28.63965,12.84766,28.63965,28.63965v123.25684c0,15.79199-12.84766,28.63965-28.63965,28.63965Zm-57.10205-162.53613c-5.8667,0-10.63965,4.77246-10.63965,10.63965v123.25684c0,5.86719,4.77295,10.63965,10.63965,10.63965h57.10205c5.8667,0,10.63965-4.77246,10.63965-10.63965v-123.25684c0-5.86719-4.77295-10.63965-10.63965-10.63965H44.37233Z"/>
  </g>
  <g>
    <rect class="cls-1" x="528.88614" y="509.28673" width="96.38121" height="162.53594" rx="19.63954" ry="19.63954" transform="translate(1154.15348 1181.10941) rotate(-180)"/>
    <path class="cls-2" d="M605.6277,680.82278h-57.10205c-15.79199,0-28.63965-12.84766-28.63965-28.63965v-123.25684c0-15.79199,12.84766-28.63965,28.63965-28.63965h57.10205c15.79199,0,28.63965,12.84766,28.63965,28.63965v123.25684c0,15.79199-12.84766,28.63965-28.63965,28.63965Zm-57.10205-162.53613c-5.8667,0-10.63965,4.77246-10.63965,10.63965v123.25684c0,5.86719,4.77295,10.63965,10.63965,10.63965h57.10205c5.8667,0,10.63965-4.77246,10.63965-10.63965v-123.25684c0-5.86719-4.77295-10.63965-10.63965-10.63965h-57.10205Z"/>
  </g>
  <g>
    <polygon class="cls-1" points="579.0678 491.4481 578.80168 62.04946 67.58982 62.04946 67.85594 491.4481 49.16624 491.4481 49.16624 632.60797 140.39879 632.60797 140.39879 614.06412 506.79391 614.06412 506.79391 632.60797 598.02645 632.60797 598.02645 491.4481 579.0678 491.4481"/>
    <path class="cls-2" d="M598.02663,641.60793h-91.23291c-4.9707,0-9-4.0293-9-9v-9.54395H149.3987v9.54395c0,4.9707-4.0293,9-9,9H49.16628c-4.9707,0-9-4.0293-9-9v-141.16016c0-4.9707,4.0293-9,9-9h9.68408l-.26074-420.39258c-.00146-2.3877,.9458-4.67871,2.63428-6.36816,1.68799-1.68848,3.97754-2.6377,6.36572-2.6377h511.21191c4.96826,0,8.99707,4.02637,9,8.99414l.26074,420.4043h9.96436c4.9707,0,9,4.0293,9,9v141.16016c0,4.9707-4.0293,9-9,9Zm-82.23291-18h73.23291v-123.16016h-9.95898c-4.96826,0-8.99707-4.02637-9-8.99414l-.26074-420.4043H76.59548l.26025,420.39258c.00146,2.38867-.94629,4.67871-2.63428,6.36816-1.68799,1.68848-3.97803,2.6377-6.36572,2.6377h-9.68945v123.16016h73.23242v-9.54395c0-4.9707,4.0293-9,9-9H506.79372c4.9707,0,9,4.0293,9,9v9.54395Z"/>
  </g>
  <g>
    <path class="cls-1" d="M539.42035,248.88615H105.55786c-8.92283,0-16.15621-7.15133-16.15621-15.97294l-.26918-127.34904c0-42.73958,35.04479-77.38685,78.27473-77.38685H477.03265c43.22994,0,78.27473,34.64727,78.27473,77.38685l.26918,127.34904c0,8.82161-7.23338,15.97294-16.15621,15.97294Z"/>
    <path class="cls-2" d="M539.42018,257.88625H105.55788c-13.87109,0-25.15625-11.20312-25.15625-24.97266l-.26904-127.33008c0-47.65332,39.15137-86.40625,87.27441-86.40625H477.03249c48.12354,0,87.2749,38.75293,87.2749,86.38672l.26904,127.33105c0,13.78809-11.28516,24.99121-25.15625,24.99121ZM167.407,37.17727c-38.19824,0-69.27441,30.67773-69.27441,68.38672l.26904,127.33105c0,3.86328,3.21045,6.99121,7.15625,6.99121h433.8623c3.9458,0,7.15625-3.12793,7.15625-6.97266l-.26904-127.33008c0-37.72852-31.07666-68.40625-69.2749-68.40625H167.407Z"/>
  </g>
  <g>
    <g>
      <polyline class="cls-1" points="133.17591 448.44818 103.01078 448.44818 103.01078 480.37963"/>
      <path class="cls-2" d="M103.011,489.37942c-4.9707,0-9-4.0293-9-9v-31.93164c0-4.9707,4.0293-9,9-9h30.16504c4.9707,0,9,4.0293,9,9s-4.0293,9-9,9h-21.16504v22.93164c0,4.9707-4.0293,9-9,9Z"/>
    </g>
    <g>
      <polyline class="cls-1" points="174.73643 473.95506 209.52108 533.15584 169.95702 533.15584"/>
      <path class="cls-2" d="M209.52126,542.15578h-39.56445c-4.9707,0-9-4.0293-9-9s4.0293-9,9-9h23.83789l-26.81787-45.6416c-2.51807-4.28613-1.08496-9.80078,3.2002-12.31934,4.28613-2.51855,9.80078-1.08496,12.31934,3.2002l34.78467,59.20117c1.63477,2.7832,1.65479,6.22852,.05176,9.03027-1.60352,2.80078-4.58398,4.5293-7.81152,4.5293Z"/>
    </g>
  </g>
  <g>
    <g>
      <polyline class="cls-1" points="511.70311 448.44818 543.63457 448.44818 543.63457 480.37963"/>
      <path class="cls-2" d="M543.63454,489.37942c-4.9707,0-9-4.0293-9-9v-22.93164h-22.93164c-4.9707,0-9-4.0293-9-9s4.0293-9,9-9h31.93164c4.9707,0,9,4.0293,9,9v31.93164c0,4.9707-4.0293,9-9,9Z"/>
    </g>
    <g>
      <polyline class="cls-1" points="471.90892 473.95506 437.12426 533.15584 476.68832 533.15584"/>
      <path class="cls-2" d="M476.68825,542.15578h-39.56396c-3.22754,0-6.20801-1.72852-7.81152-4.5293-1.60303-2.80176-1.58301-6.24707,.05176-9.03027l34.78467-59.20117c2.51855-4.28418,8.0332-5.71973,12.31934-3.2002,4.28516,2.51855,5.71826,8.0332,3.2002,12.31934l-26.81787,45.6416h23.8374c4.9707,0,9,4.0293,9,9s-4.0293,9-9,9Z"/>
    </g>
  </g>
</svg>